<?xml version="1.0" encoding="utf-8" standalone="no"?>
<!DOCTYPE svg PUBLIC "-//W3C//DTD SVG 1.1//EN"
  "http://www.w3.org/Graphics/SVG/1.1/DTD/svg11.dtd">
<svg xmlns:xlink="http://www.w3.org/1999/xlink" width="460.8pt" height="345.6pt" viewBox="0 0 460.8 345.6" xmlns="http://www.w3.org/2000/svg" version="1.1">
 <metadata>
  <rdf:RDF xmlns:dc="http://purl.org/dc/elements/1.1/" xmlns:cc="http://creativecommons.org/ns#" xmlns:rdf="http://www.w3.org/1999/02/22-rdf-syntax-ns#">
   <cc:Work>
    <dc:type rdf:resource="http://purl.org/dc/dcmitype/StillImage"/>
    <dc:date>2023-03-08T10:43:13.671260</dc:date>
    <dc:format>image/svg+xml</dc:format>
    <dc:creator>
     <cc:Agent>
      <dc:title>Matplotlib v3.5.3, https://matplotlib.org/</dc:title>
     </cc:Agent>
    </dc:creator>
   </cc:Work>
  </rdf:RDF>
 </metadata>
 <defs>
  <style type="text/css">*{stroke-linejoin: round; stroke-linecap: butt}</style>
 </defs>
 <g id="figure_1">
  <g id="patch_1">
   <path d="M 0 345.6 
L 460.8 345.6 
L 460.8 0 
L 0 0 
z
" style="fill: #ffffff"/>
  </g>
  <g id="axes_1">
   <g id="patch_2">
    <path d="M 57.6 307.584 
L 414.72 307.584 
L 414.72 41.472 
L 57.6 41.472 
z
" style="fill: #ffffff"/>
   </g>
   <g id="matplotlib.axis_1">
    <g id="xtick_1">
     <g id="line2d_1">
      <defs>
       <path id="mda5ea9eb26" d="M 0 0 
L 0 3.5 
" style="stroke: #000000; stroke-width: 0.8"/>
      </defs>
      <g>
       <use xlink:href="#mda5ea9eb26" x="73.832727" y="307.584" style="stroke: #000000; stroke-width: 0.8"/>
      </g>
     </g>
     <g id="text_1">
      <!-- 0 -->
      <g transform="translate(71.332727 321.459)scale(0.1 -0.1)">
       <defs>
        <path id="SimHei-30" d="M 225 2537 
Q 250 3200 412 3587 
Q 575 3975 875 4225 
Q 1175 4475 1612 4475 
Q 2050 4475 2375 4112 
Q 2700 3750 2800 3200 
Q 2900 2650 2862 1937 
Q 2825 1225 2612 775 
Q 2400 325 1975 150 
Q 1550 -25 1125 187 
Q 700 400 525 750 
Q 350 1100 275 1487 
Q 200 1875 225 2537 
z
M 750 2687 
Q 675 2000 800 1462 
Q 925 925 1212 700 
Q 1500 475 1800 612 
Q 2100 750 2237 1162 
Q 2375 1575 2375 2062 
Q 2375 2550 2337 2950 
Q 2300 3350 2112 3675 
Q 1925 4000 1612 4012 
Q 1300 4025 1062 3700 
Q 825 3375 750 2687 
z
" transform="scale(0.015625)"/>
       </defs>
       <use xlink:href="#SimHei-30"/>
      </g>
     </g>
    </g>
    <g id="xtick_2">
     <g id="line2d_2">
      <g>
       <use xlink:href="#mda5ea9eb26" x="117.148877" y="307.584" style="stroke: #000000; stroke-width: 0.8"/>
      </g>
     </g>
     <g id="text_2">
      <!-- 200 -->
      <g transform="translate(109.648877 321.459)scale(0.1 -0.1)">
       <defs>
        <path id="SimHei-32" d="M 300 250 
Q 325 625 650 925 
Q 975 1225 1475 1862 
Q 1975 2500 2125 2850 
Q 2275 3200 2237 3450 
Q 2200 3700 2000 3862 
Q 1800 4025 1537 4000 
Q 1275 3975 1037 3800 
Q 800 3625 675 3275 
L 200 3350 
Q 400 3925 712 4187 
Q 1025 4450 1450 4475 
Q 1700 4500 1900 4462 
Q 2100 4425 2312 4287 
Q 2525 4150 2662 3875 
Q 2800 3600 2762 3212 
Q 2725 2825 2375 2287 
Q 2025 1750 1025 600 
L 2825 600 
L 2825 150 
L 300 150 
L 300 250 
z
" transform="scale(0.015625)"/>
       </defs>
       <use xlink:href="#SimHei-32"/>
       <use xlink:href="#SimHei-30" x="50"/>
       <use xlink:href="#SimHei-30" x="100"/>
      </g>
     </g>
    </g>
    <g id="xtick_3">
     <g id="line2d_3">
      <g>
       <use xlink:href="#mda5ea9eb26" x="160.465028" y="307.584" style="stroke: #000000; stroke-width: 0.8"/>
      </g>
     </g>
     <g id="text_3">
      <!-- 400 -->
      <g transform="translate(152.965028 321.459)scale(0.1 -0.1)">
       <defs>
        <path id="SimHei-34" d="M 2000 1100 
L 75 1100 
L 75 1525 
L 2100 4450 
L 2475 4450 
L 2475 1525 
L 3075 1525 
L 3075 1100 
L 2475 1100 
L 2475 150 
L 2000 150 
L 2000 1100 
z
M 2000 1525 
L 2000 3500 
L 600 1525 
L 2000 1525 
z
" transform="scale(0.015625)"/>
       </defs>
       <use xlink:href="#SimHei-34"/>
       <use xlink:href="#SimHei-30" x="50"/>
       <use xlink:href="#SimHei-30" x="100"/>
      </g>
     </g>
    </g>
    <g id="xtick_4">
     <g id="line2d_4">
      <g>
       <use xlink:href="#mda5ea9eb26" x="203.781178" y="307.584" style="stroke: #000000; stroke-width: 0.8"/>
      </g>
     </g>
     <g id="text_4">
      <!-- 600 -->
      <g transform="translate(196.281178 321.459)scale(0.1 -0.1)">
       <defs>
        <path id="SimHei-36" d="M 250 1612 
Q 275 1975 387 2225 
Q 500 2475 725 2850 
L 1750 4450 
L 2325 4450 
L 1275 2800 
Q 1950 2975 2350 2750 
Q 2750 2525 2887 2237 
Q 3025 1950 3037 1612 
Q 3050 1275 2937 950 
Q 2825 625 2537 362 
Q 2250 100 1737 75 
Q 1225 50 862 262 
Q 500 475 362 862 
Q 225 1250 250 1612 
z
M 1025 787 
Q 1250 550 1625 525 
Q 2000 500 2250 775 
Q 2500 1050 2500 1575 
Q 2500 2100 2187 2300 
Q 1875 2500 1487 2450 
Q 1100 2400 925 2075 
Q 750 1750 775 1387 
Q 800 1025 1025 787 
z
" transform="scale(0.015625)"/>
       </defs>
       <use xlink:href="#SimHei-36"/>
       <use xlink:href="#SimHei-30" x="50"/>
       <use xlink:href="#SimHei-30" x="100"/>
      </g>
     </g>
    </g>
    <g id="xtick_5">
     <g id="line2d_5">
      <g>
       <use xlink:href="#mda5ea9eb26" x="247.097328" y="307.584" style="stroke: #000000; stroke-width: 0.8"/>
      </g>
     </g>
     <g id="text_5">
      <!-- 800 -->
      <g transform="translate(239.597328 321.459)scale(0.1 -0.1)">
       <defs>
        <path id="SimHei-38" d="M 175 1375 
Q 175 1675 325 1962 
Q 475 2250 825 2425 
Q 525 2600 425 2812 
Q 325 3025 312 3300 
Q 300 3575 387 3775 
Q 475 3975 650 4150 
Q 825 4325 1037 4387 
Q 1250 4450 1500 4450 
Q 1750 4450 1950 4400 
Q 2150 4350 2375 4187 
Q 2600 4025 2700 3725 
Q 2800 3425 2687 3025 
Q 2575 2625 2100 2400 
Q 2525 2275 2700 2012 
Q 2875 1750 2875 1375 
Q 2875 1000 2762 775 
Q 2650 550 2512 400 
Q 2375 250 2137 162 
Q 1900 75 1537 75 
Q 1175 75 912 162 
Q 650 250 475 425 
Q 300 600 237 837 
Q 175 1075 175 1375 
z
M 687 1400 
Q 675 1100 787 875 
Q 900 650 1200 587 
Q 1500 525 1825 600 
Q 2150 675 2275 950 
Q 2400 1225 2362 1500 
Q 2325 1775 2050 1962 
Q 1775 2150 1450 2125 
Q 1125 2100 912 1900 
Q 700 1700 687 1400 
z
M 775 3350 
Q 775 3100 950 2875 
Q 1125 2650 1500 2650 
Q 1875 2650 2062 2875 
Q 2250 3100 2237 3412 
Q 2225 3725 2012 3875 
Q 1800 4025 1437 4000 
Q 1075 3975 925 3787 
Q 775 3600 775 3350 
z
" transform="scale(0.015625)"/>
       </defs>
       <use xlink:href="#SimHei-38"/>
       <use xlink:href="#SimHei-30" x="50"/>
       <use xlink:href="#SimHei-30" x="100"/>
      </g>
     </g>
    </g>
    <g id="xtick_6">
     <g id="line2d_6">
      <g>
       <use xlink:href="#mda5ea9eb26" x="290.413478" y="307.584" style="stroke: #000000; stroke-width: 0.8"/>
      </g>
     </g>
     <g id="text_6">
      <!-- 1000 -->
      <g transform="translate(280.413478 321.459)scale(0.1 -0.1)">
       <defs>
        <path id="SimHei-31" d="M 1400 3600 
Q 1075 3275 575 2975 
L 575 3450 
Q 1200 3875 1600 4450 
L 1900 4450 
L 1900 150 
L 1400 150 
L 1400 3600 
z
" transform="scale(0.015625)"/>
       </defs>
       <use xlink:href="#SimHei-31"/>
       <use xlink:href="#SimHei-30" x="50"/>
       <use xlink:href="#SimHei-30" x="100"/>
       <use xlink:href="#SimHei-30" x="150"/>
      </g>
     </g>
    </g>
    <g id="xtick_7">
     <g id="line2d_7">
      <g>
       <use xlink:href="#mda5ea9eb26" x="333.729628" y="307.584" style="stroke: #000000; stroke-width: 0.8"/>
      </g>
     </g>
     <g id="text_7">
      <!-- 1200 -->
      <g transform="translate(323.729628 321.459)scale(0.1 -0.1)">
       <use xlink:href="#SimHei-31"/>
       <use xlink:href="#SimHei-32" x="50"/>
       <use xlink:href="#SimHei-30" x="100"/>
       <use xlink:href="#SimHei-30" x="150"/>
      </g>
     </g>
    </g>
    <g id="xtick_8">
     <g id="line2d_8">
      <g>
       <use xlink:href="#mda5ea9eb26" x="377.045778" y="307.584" style="stroke: #000000; stroke-width: 0.8"/>
      </g>
     </g>
     <g id="text_8">
      <!-- 1400 -->
      <g transform="translate(367.045778 321.459)scale(0.1 -0.1)">
       <use xlink:href="#SimHei-31"/>
       <use xlink:href="#SimHei-34" x="50"/>
       <use xlink:href="#SimHei-30" x="100"/>
       <use xlink:href="#SimHei-30" x="150"/>
      </g>
     </g>
    </g>
    <g id="text_9">
     <!-- epoch -->
     <g transform="translate(223.66 333.584)scale(0.1 -0.1)">
      <defs>
       <path id="SimHei-65" d="M 2850 1075 
Q 2800 625 2450 350 
Q 2100 75 1625 75 
Q 1025 75 637 462 
Q 250 850 250 1525 
Q 250 2200 637 2587 
Q 1025 2975 1625 2975 
Q 2150 2975 2487 2637 
Q 2825 2300 2825 1525 
L 800 1525 
Q 800 975 1037 750 
Q 1275 525 1625 525 
Q 1900 525 2075 662 
Q 2250 800 2300 1075 
L 2850 1075 
z
M 2250 1925 
Q 2200 2275 2025 2412 
Q 1850 2550 1575 2550 
Q 1325 2550 1125 2412 
Q 925 2275 825 1925 
L 2250 1925 
z
" transform="scale(0.015625)"/>
       <path id="SimHei-70" d="M 2825 1525 
Q 2825 800 2475 425 
Q 2125 50 1625 50 
Q 1350 50 1150 162 
Q 950 275 800 500 
L 800 -800 
L 300 -800 
L 300 2925 
L 800 2925 
L 800 2550 
Q 950 2775 1150 2875 
Q 1350 2975 1625 2975 
Q 2125 2975 2475 2612 
Q 2825 2250 2825 1525 
z
M 2275 1525 
Q 2275 2000 2087 2262 
Q 1900 2525 1525 2525 
Q 1225 2525 1012 2262 
Q 800 2000 800 1525 
Q 800 1050 1012 775 
Q 1225 500 1525 500 
Q 1900 500 2087 775 
Q 2275 1050 2275 1525 
z
" transform="scale(0.015625)"/>
       <path id="SimHei-6f" d="M 2925 1525 
Q 2925 875 2525 475 
Q 2125 75 1575 75 
Q 1025 75 625 475 
Q 225 875 225 1525 
Q 225 2175 625 2575 
Q 1025 2975 1575 2975 
Q 2125 2975 2525 2575 
Q 2925 2175 2925 1525 
z
M 2375 1525 
Q 2375 2025 2125 2275 
Q 1875 2525 1575 2525 
Q 1275 2525 1025 2275 
Q 775 2025 775 1525 
Q 775 1025 1025 775 
Q 1275 525 1575 525 
Q 1875 525 2125 775 
Q 2375 1025 2375 1525 
z
" transform="scale(0.015625)"/>
       <path id="SimHei-63" d="M 2850 1250 
Q 2850 725 2487 400 
Q 2125 75 1575 75 
Q 1025 75 625 462 
Q 225 850 225 1525 
Q 225 2200 625 2587 
Q 1025 2975 1575 2975 
Q 2125 2975 2450 2687 
Q 2775 2400 2775 2000 
L 2225 2000 
Q 2200 2300 2012 2412 
Q 1825 2525 1575 2525 
Q 1275 2525 1025 2287 
Q 775 2050 775 1525 
Q 775 1000 1025 762 
Q 1275 525 1575 525 
Q 1900 525 2100 700 
Q 2300 875 2300 1250 
L 2850 1250 
z
" transform="scale(0.015625)"/>
       <path id="SimHei-68" d="M 2800 125 
L 2300 125 
L 2300 1925 
Q 2300 2225 2150 2400 
Q 2000 2575 1750 2575 
Q 1425 2575 1137 2237 
Q 850 1900 850 1400 
L 850 125 
L 350 125 
L 350 4400 
L 850 4400 
L 850 2400 
Q 1050 2675 1287 2825 
Q 1525 2975 1900 2975 
Q 2350 2975 2575 2725 
Q 2800 2475 2800 2100 
L 2800 125 
z
" transform="scale(0.015625)"/>
      </defs>
      <use xlink:href="#SimHei-65"/>
      <use xlink:href="#SimHei-70" x="50"/>
      <use xlink:href="#SimHei-6f" x="100"/>
      <use xlink:href="#SimHei-63" x="150"/>
      <use xlink:href="#SimHei-68" x="200"/>
     </g>
    </g>
   </g>
   <g id="matplotlib.axis_2">
    <g id="ytick_1">
     <g id="line2d_9">
      <defs>
       <path id="mc0bc00abd1" d="M 0 0 
L -3.5 0 
" style="stroke: #000000; stroke-width: 0.8"/>
      </defs>
      <g>
       <use xlink:href="#mc0bc00abd1" x="57.6" y="265.865" style="stroke: #000000; stroke-width: 0.8"/>
      </g>
     </g>
     <g id="text_10">
      <!-- -140 -->
      <g transform="translate(30.6 269.3025)scale(0.1 -0.1)">
       <defs>
        <path id="SimHei-2d" d="M 2975 2125 
L 125 2125 
L 125 2525 
L 2975 2525 
L 2975 2125 
z
" transform="scale(0.015625)"/>
       </defs>
       <use xlink:href="#SimHei-2d"/>
       <use xlink:href="#SimHei-31" x="50"/>
       <use xlink:href="#SimHei-34" x="100"/>
       <use xlink:href="#SimHei-30" x="150"/>
      </g>
     </g>
    </g>
    <g id="ytick_2">
     <g id="line2d_10">
      <g>
       <use xlink:href="#mc0bc00abd1" x="57.6" y="221.956512" style="stroke: #000000; stroke-width: 0.8"/>
      </g>
     </g>
     <g id="text_11">
      <!-- -120 -->
      <g transform="translate(30.6 225.394012)scale(0.1 -0.1)">
       <use xlink:href="#SimHei-2d"/>
       <use xlink:href="#SimHei-31" x="50"/>
       <use xlink:href="#SimHei-32" x="100"/>
       <use xlink:href="#SimHei-30" x="150"/>
      </g>
     </g>
    </g>
    <g id="ytick_3">
     <g id="line2d_11">
      <g>
       <use xlink:href="#mc0bc00abd1" x="57.6" y="178.048023" style="stroke: #000000; stroke-width: 0.8"/>
      </g>
     </g>
     <g id="text_12">
      <!-- -100 -->
      <g transform="translate(30.6 181.485523)scale(0.1 -0.1)">
       <use xlink:href="#SimHei-2d"/>
       <use xlink:href="#SimHei-31" x="50"/>
       <use xlink:href="#SimHei-30" x="100"/>
       <use xlink:href="#SimHei-30" x="150"/>
      </g>
     </g>
    </g>
    <g id="ytick_4">
     <g id="line2d_12">
      <g>
       <use xlink:href="#mc0bc00abd1" x="57.6" y="134.139534" style="stroke: #000000; stroke-width: 0.8"/>
      </g>
     </g>
     <g id="text_13">
      <!-- -80 -->
      <g transform="translate(35.6 137.577034)scale(0.1 -0.1)">
       <use xlink:href="#SimHei-2d"/>
       <use xlink:href="#SimHei-38" x="50"/>
       <use xlink:href="#SimHei-30" x="100"/>
      </g>
     </g>
    </g>
    <g id="ytick_5">
     <g id="line2d_13">
      <g>
       <use xlink:href="#mc0bc00abd1" x="57.6" y="90.231046" style="stroke: #000000; stroke-width: 0.8"/>
      </g>
     </g>
     <g id="text_14">
      <!-- -60 -->
      <g transform="translate(35.6 93.668546)scale(0.1 -0.1)">
       <use xlink:href="#SimHei-2d"/>
       <use xlink:href="#SimHei-36" x="50"/>
       <use xlink:href="#SimHei-30" x="100"/>
      </g>
     </g>
    </g>
    <g id="ytick_6">
     <g id="line2d_14">
      <g>
       <use xlink:href="#mc0bc00abd1" x="57.6" y="46.322557" style="stroke: #000000; stroke-width: 0.8"/>
      </g>
     </g>
     <g id="text_15">
      <!-- -40 -->
      <g transform="translate(35.6 49.760057)scale(0.1 -0.1)">
       <use xlink:href="#SimHei-2d"/>
       <use xlink:href="#SimHei-34" x="50"/>
       <use xlink:href="#SimHei-30" x="100"/>
      </g>
     </g>
    </g>
    <g id="text_16">
     <!-- 值 -->
     <g transform="translate(25.35 179.528)rotate(-90)scale(0.1 -0.1)">
      <defs>
       <path id="SimHei-503c" d="M 3675 4450 
L 3675 5100 
Q 3975 5075 4350 5050 
Q 4225 4875 4200 4450 
L 5125 4450 
Q 5550 4450 5875 4475 
L 5875 4025 
Q 5525 4050 5125 4050 
L 4175 4050 
L 4125 3500 
L 5400 3500 
Q 5375 3200 5375 2700 
L 5375 150 
Q 5875 150 6100 175 
L 6100 -275 
Q 5775 -250 5200 -250 
L 2850 -250 
Q 2275 -250 1900 -275 
L 1900 175 
Q 2125 150 2600 150 
L 2600 2700 
Q 2600 3175 2575 3500 
L 3600 3500 
L 3650 4050 
L 3200 4050 
Q 2575 4050 2225 4025 
L 2225 4475 
Q 2550 4450 3200 4450 
L 3675 4450 
z
M 2225 4900 
Q 2025 4675 1650 3750 
L 1650 450 
Q 1650 -75 1675 -550 
L 1150 -550 
Q 1175 -125 1175 375 
L 1175 2950 
Q 875 2450 625 2150 
Q 425 2425 250 2575 
Q 500 2825 937 3537 
Q 1375 4250 1625 5150 
Q 1975 4975 2225 4900 
z
M 4925 2650 
L 4925 3150 
L 3075 3150 
L 3075 2650 
L 4925 2650 
z
M 4925 150 
L 4925 625 
L 3075 625 
L 3075 150 
L 4925 150 
z
M 4925 1000 
L 4925 1450 
L 3075 1450 
L 3075 1000 
L 4925 1000 
z
M 4925 1825 
L 4925 2275 
L 3075 2275 
L 3075 1825 
L 4925 1825 
z
" transform="scale(0.015625)"/>
      </defs>
      <use xlink:href="#SimHei-503c"/>
     </g>
    </g>
   </g>
   <g id="line2d_15">
    <path d="M 73.832727 295.488 
L 74.049308 295.105171 
L 74.265889 294.466193 
L 74.48247 294.801029 
L 74.69905 294.902223 
L 74.915631 294.79231 
L 75.348793 294.392725 
L 75.565373 294.448536 
L 75.781954 294.627626 
L 75.998535 295.004094 
L 76.215116 295.025717 
L 76.431696 295.191177 
L 76.648277 294.850024 
L 76.864858 294.293719 
L 77.298019 294.191913 
L 77.5146 293.812576 
L 77.731181 293.66915 
L 77.947762 293.730885 
L 78.164342 293.658084 
L 78.380923 293.340469 
L 79.030665 293.820205 
L 79.247246 293.811716 
L 79.463827 293.953811 
L 79.680408 293.802686 
L 80.113569 292.74604 
L 80.546731 288.74163 
L 80.979892 284.831963 
L 81.196473 283.573939 
L 82.062796 269.172037 
L 82.712538 254.821987 
L 83.1457 237.717708 
L 83.578861 225.480104 
L 84.012023 220.43303 
L 84.228603 218.679536 
L 84.661765 210.799772 
L 84.878346 209.420207 
L 85.311507 200.32174 
L 85.961249 187.392571 
L 87.477315 168.890847 
L 87.910476 164.910357 
L 88.343638 161.695561 
L 88.776799 160.099561 
L 89.209961 158.772068 
L 89.426541 157.056785 
L 89.859703 155.754658 
L 90.076284 155.52988 
L 90.292864 155.517745 
L 90.509445 155.782253 
L 90.942607 154.603945 
L 91.159187 154.583545 
L 91.375768 153.523957 
L 91.592349 153.518193 
L 91.80893 152.648675 
L 92.242091 153.462726 
L 92.458672 153.730993 
L 92.891833 152.524421 
L 93.108414 152.29622 
L 93.324995 154.231895 
L 93.541576 153.396296 
L 93.758156 153.344716 
L 94.191318 153.809877 
L 94.624479 153.516131 
L 94.84106 154.137291 
L 95.057641 154.174663 
L 95.274222 153.77783 
L 95.490802 153.755991 
L 95.707383 153.162755 
L 95.923964 153.425229 
L 96.140545 151.683374 
L 96.357125 151.379481 
L 96.573706 150.500321 
L 96.790287 150.370343 
L 97.006868 149.61345 
L 97.223448 149.986877 
L 97.440029 148.452673 
L 97.65661 148.206537 
L 97.873191 149.242597 
L 98.089771 148.821956 
L 98.306352 149.252629 
L 98.522933 148.667229 
L 98.739514 147.134015 
L 98.956094 146.837877 
L 99.172675 146.126734 
L 99.389256 144.900096 
L 99.605837 144.779363 
L 99.822417 144.264756 
L 100.038998 143.436799 
L 100.255579 142.059633 
L 100.47216 142.156935 
L 100.68874 141.441975 
L 100.905321 141.147023 
L 101.555063 137.068856 
L 101.771644 137.040233 
L 102.204806 134.770579 
L 102.421386 134.361187 
L 102.637967 132.597858 
L 103.071129 131.072738 
L 103.50429 128.849606 
L 103.720871 128.940906 
L 104.154032 127.547677 
L 104.587194 125.506929 
L 104.803775 123.955799 
L 105.236936 123.408587 
L 105.453517 122.533724 
L 105.670098 122.131787 
L 106.31984 119.45842 
L 106.536421 118.842932 
L 106.753001 119.419275 
L 107.402744 115.637868 
L 107.619324 113.392491 
L 108.269067 110.354845 
L 108.485647 110.092686 
L 108.702228 108.547578 
L 108.918809 105.781478 
L 109.13539 107.142657 
L 109.568551 116.931331 
L 109.785132 116.160711 
L 110.218293 119.282939 
L 110.434874 119.396305 
L 110.651455 119.077689 
L 110.868036 117.707117 
L 111.084616 118.734742 
L 111.517778 118.351104 
L 111.734359 117.701186 
L 111.950939 119.045637 
L 112.16752 118.935799 
L 112.384101 119.272562 
L 112.600682 119.101885 
L 112.817262 117.701802 
L 113.033843 114.920905 
L 113.250424 116.009061 
L 113.467005 114.781296 
L 113.683585 117.843137 
L 113.900166 116.199461 
L 114.116747 115.570342 
L 114.333328 115.463063 
L 114.549908 114.415033 
L 114.766489 114.144382 
L 114.98307 114.519074 
L 115.199651 116.799092 
L 115.849393 130.69349 
L 116.065974 129.64253 
L 116.282554 130.813288 
L 116.499135 132.925208 
L 116.715716 132.548066 
L 116.932297 132.57918 
L 117.365458 128.853908 
L 117.79862 122.903452 
L 118.0152 121.433558 
L 118.231781 120.983709 
L 118.664943 118.489475 
L 118.881523 116.804828 
L 119.098104 116.353252 
L 119.314685 114.362787 
L 119.747846 113.512151 
L 119.964427 111.729158 
L 120.614169 113.797477 
L 120.83075 112.768283 
L 121.047331 116.606326 
L 121.263912 115.522158 
L 121.480492 115.921985 
L 121.913654 110.915569 
L 122.563396 105.586503 
L 122.779977 106.257595 
L 123.213138 104.981042 
L 123.429719 104.54845 
L 123.6463 104.588624 
L 123.862881 106.29709 
L 124.079461 106.48923 
L 124.296042 106.875293 
L 124.512623 108.673107 
L 124.729204 109.348283 
L 124.945784 107.336303 
L 125.162365 109.516717 
L 125.812107 103.858384 
L 126.028688 104.251288 
L 126.46185 101.426735 
L 126.67843 101.999823 
L 127.111592 100.433736 
L 127.328173 100.291441 
L 127.761334 99.409592 
L 127.977915 97.619462 
L 128.194496 98.018895 
L 128.411076 97.472252 
L 128.627657 95.627639 
L 129.277399 93.732758 
L 129.49398 95.604269 
L 130.576884 122.631398 
L 130.793465 122.255302 
L 131.010045 120.959194 
L 131.226626 120.70253 
L 131.659788 121.68254 
L 133.392434 108.22235 
L 133.609014 107.448698 
L 135.341661 95.807835 
L 135.558241 93.285747 
L 135.774822 92.993108 
L 136.424564 88.228455 
L 136.641145 89.30242 
L 137.074307 87.26777 
L 137.290887 86.166773 
L 137.507468 90.063024 
L 137.94063 87.055555 
L 138.15721 87.014131 
L 138.590372 86.154751 
L 138.806953 85.915918 
L 139.023533 85.059004 
L 139.240114 85.256196 
L 139.889856 82.389134 
L 140.106437 83.73213 
L 140.323018 82.906297 
L 140.539599 84.160664 
L 140.756179 84.54713 
L 140.97276 84.272323 
L 141.189341 83.568622 
L 141.405922 82.425829 
L 141.622502 82.631868 
L 141.839083 83.106656 
L 142.055664 82.649061 
L 142.272245 82.747631 
L 142.488825 82.685556 
L 142.705406 83.189315 
L 143.138568 82.297107 
L 143.355148 83.368788 
L 143.571729 82.102003 
L 143.78831 81.525188 
L 144.004891 81.536988 
L 144.438052 79.355284 
L 145.087794 77.091458 
L 145.304375 78.14432 
L 145.737537 76.44508 
L 146.170698 83.082566 
L 146.387279 81.83823 
L 146.60386 79.916955 
L 147.470183 77.936923 
L 147.686763 77.461743 
L 147.903344 78.066189 
L 148.119925 77.415199 
L 148.336506 77.332686 
L 148.553086 76.90689 
L 148.769667 76.798176 
L 148.986248 75.750613 
L 149.419409 76.328865 
L 149.63599 75.953091 
L 149.852571 78.888401 
L 150.069152 79.17183 
L 150.502313 78.199152 
L 150.718894 78.398041 
L 151.801798 74.903727 
L 152.018378 73.80962 
L 152.234959 73.666091 
L 152.45154 72.979924 
L 152.668121 72.708074 
L 153.101282 73.629908 
L 153.317863 72.66105 
L 153.534444 72.475272 
L 153.751024 73.217542 
L 153.967605 75.057333 
L 154.184186 75.245389 
L 154.400767 76.019529 
L 154.617347 76.329108 
L 154.833928 75.458596 
L 155.26709 75.483269 
L 155.700251 74.656538 
L 156.133413 73.88047 
L 156.349993 74.157984 
L 156.566574 74.773233 
L 156.783155 74.625702 
L 156.999736 74.714864 
L 157.216316 75.134202 
L 157.432897 74.853796 
L 157.649478 75.236432 
L 158.29922 77.635242 
L 158.515801 79.930984 
L 158.732382 79.835315 
L 158.948962 79.330851 
L 159.382124 81.747672 
L 159.598705 82.327203 
L 159.815285 82.418139 
L 160.031866 81.947889 
L 160.248447 82.655857 
L 160.898189 82.871362 
L 161.11477 83.253708 
L 161.547931 85.535962 
L 161.764512 86.747606 
L 161.981093 90.379531 
L 162.197674 89.743048 
L 162.630835 87.743975 
L 162.847416 87.684316 
L 163.063997 86.774802 
L 163.280577 86.430692 
L 163.713739 82.805874 
L 163.93032 81.335265 
L 164.363481 80.333461 
L 164.580062 79.091889 
L 164.796643 78.711724 
L 165.446385 75.761279 
L 165.879546 75.939629 
L 166.529289 74.9984 
L 167.179031 72.533857 
L 167.395612 72.051413 
L 167.828773 70.590409 
L 168.045354 70.104971 
L 168.478515 69.778787 
L 168.695096 69.13908 
L 168.911677 68.866477 
L 169.128258 68.918807 
L 169.344838 68.521652 
L 169.561419 67.657571 
L 169.994581 67.642683 
L 170.427742 65.81113 
L 170.644323 65.663034 
L 171.077484 64.727752 
L 171.294065 64.096946 
L 171.510646 64.201726 
L 171.943807 64.031158 
L 172.376969 64.364084 
L 172.59355 64.299344 
L 173.026711 63.555326 
L 173.243292 63.816321 
L 173.459873 63.902225 
L 173.893034 63.647887 
L 174.326196 64.565699 
L 174.759357 64.53917 
L 175.409099 63.23223 
L 175.842261 61.483486 
L 176.708584 58.92317 
L 176.925165 58.81813 
L 177.574907 57.450074 
L 178.008068 56.237571 
L 178.224649 56.238403 
L 178.657811 56.768191 
L 178.874391 57.21719 
L 179.307553 59.05237 
L 179.957295 61.789704 
L 181.25678 66.341841 
L 182.772845 69.750945 
L 183.206006 71.014286 
L 183.639168 71.586061 
L 184.28891 72.026762 
L 184.505491 72.066757 
L 184.938652 71.833617 
L 185.371814 71.030701 
L 186.021556 69.328612 
L 187.10446 65.686089 
L 187.537621 64.381922 
L 187.970783 63.850526 
L 188.403944 63.002815 
L 189.703429 60.313787 
L 189.92001 63.872614 
L 190.13659 64.790185 
L 190.353171 66.386966 
L 190.569752 66.198478 
L 190.786333 66.859836 
L 191.002913 70.800852 
L 191.219494 70.831498 
L 191.436075 71.0679 
L 191.652656 72.211168 
L 191.869236 71.86748 
L 192.085817 72.327403 
L 192.302398 74.297895 
L 193.168721 77.346184 
L 193.385302 77.729625 
L 193.601882 77.778925 
L 193.818463 79.243027 
L 194.251625 79.409235 
L 194.468205 79.930017 
L 194.901367 85.593878 
L 195.117948 85.770874 
L 195.551109 85.447407 
L 195.76769 86.036792 
L 195.984271 86.302459 
L 196.200851 86.118239 
L 196.417432 86.536399 
L 196.634013 86.681776 
L 197.067174 84.879635 
L 197.716917 80.991527 
L 199.232982 74.089839 
L 199.882724 72.097412 
L 200.749047 69.485732 
L 201.182209 68.186183 
L 202.048532 66.556303 
L 202.481693 65.711373 
L 203.348016 64.814297 
L 203.781178 64.223864 
L 203.997759 64.153898 
L 204.43092 63.851516 
L 204.864082 63.677454 
L 205.080662 63.498009 
L 205.513824 63.442648 
L 205.730405 63.653351 
L 205.946985 63.631255 
L 206.163566 63.763686 
L 206.380147 63.587373 
L 206.596728 63.625447 
L 206.813308 64.051976 
L 207.029889 63.902722 
L 207.24647 63.992652 
L 207.896212 64.900288 
L 208.112793 65.093783 
L 208.762535 66.922639 
L 209.412277 67.584725 
L 209.628858 67.913329 
L 210.06202 67.80765 
L 210.711762 67.139119 
L 211.144923 66.164158 
L 211.578085 65.691109 
L 212.227827 65.354955 
L 212.444408 65.657538 
L 212.877569 65.510714 
L 213.527312 65.829087 
L 213.743892 65.605868 
L 213.960473 65.616631 
L 214.826796 64.276877 
L 215.693119 61.995306 
L 216.126281 61.255314 
L 216.342861 61.089501 
L 216.776023 60.307369 
L 217.858927 57.279824 
L 219.158411 55.775351 
L 219.591573 55.438189 
L 219.808153 55.361849 
L 220.457896 54.602131 
L 221.973961 56.939961 
L 222.623703 57.769088 
L 223.490026 59.087571 
L 224.57293 59.752642 
L 224.789511 59.810519 
L 225.655834 60.568249 
L 226.305576 60.537831 
L 226.738737 59.866725 
L 227.171899 59.262662 
L 227.38848 59.026444 
L 228.038222 57.870728 
L 228.687964 57.292743 
L 229.121126 56.592579 
L 229.337706 56.559205 
L 229.554287 56.793188 
L 229.987449 56.554948 
L 230.204029 56.510135 
L 231.070352 57.041997 
L 231.286933 57.297537 
L 231.936675 57.261147 
L 233.23616 59.260301 
L 233.669321 59.192667 
L 234.102483 59.071184 
L 234.752225 58.835733 
L 235.185387 59.104377 
L 235.401967 58.993973 
L 236.26829 59.296483 
L 236.918033 59.076915 
L 237.351194 58.969241 
L 237.567775 59.012203 
L 237.784356 59.323404 
L 238.000936 59.337713 
L 239.08384 60.656231 
L 239.733582 60.939717 
L 239.950163 60.90336 
L 241.033067 61.322219 
L 241.466228 61.413711 
L 241.682809 61.454482 
L 241.89939 61.671663 
L 242.332551 61.781168 
L 242.765713 61.535067 
L 242.982294 61.504252 
L 243.415455 61.16443 
L 243.632036 60.660597 
L 243.848617 60.598967 
L 244.498359 60.765531 
L 244.93152 61.232887 
L 245.148101 61.525418 
L 246.014424 64.334067 
L 246.231005 64.940371 
L 246.880747 67.752228 
L 247.097328 67.943914 
L 249.263135 65.721518 
L 249.696297 65.270768 
L 250.346039 64.971188 
L 250.995781 64.352717 
L 251.212362 64.298491 
L 251.645524 64.357199 
L 251.862104 64.417971 
L 252.078685 64.879632 
L 252.511847 66.26729 
L 252.728427 66.683552 
L 252.945008 66.794121 
L 253.161589 67.052323 
L 253.37817 67.093416 
L 253.811331 66.870019 
L 254.027912 66.88498 
L 254.244493 66.654385 
L 254.461073 66.614346 
L 254.894235 66.974542 
L 255.110816 66.813627 
L 255.760558 65.719403 
L 256.843462 63.550096 
L 257.276623 62.845928 
L 257.709785 62.42912 
L 257.926365 62.291479 
L 258.359527 61.839983 
L 259.009269 62.074974 
L 259.22585 61.967904 
L 259.659011 62.303056 
L 259.875592 62.784937 
L 260.092173 62.897392 
L 260.525334 62.898868 
L 260.741915 63.054365 
L 261.391657 64.256567 
L 261.824819 64.648603 
L 262.25798 64.565922 
L 262.474561 64.741112 
L 262.907723 65.631937 
L 263.340884 67.314952 
L 263.990626 68.525805 
L 264.207207 68.599158 
L 264.856949 69.095684 
L 265.07353 69.041302 
L 265.290111 68.795038 
L 265.723272 68.797775 
L 265.939853 68.855637 
L 266.156434 68.688101 
L 266.589595 68.768221 
L 267.239338 68.195064 
L 267.455918 67.716909 
L 267.672499 67.636374 
L 267.88908 67.684023 
L 268.538822 67.167158 
L 269.405145 66.526047 
L 269.838307 65.754414 
L 270.054888 65.556603 
L 270.488049 64.774768 
L 270.70463 64.598256 
L 270.921211 64.686127 
L 271.354372 64.235414 
L 271.787534 63.384311 
L 272.437276 61.675152 
L 273.087018 60.50501 
L 273.953341 59.645774 
L 274.169922 59.669075 
L 274.386503 59.828276 
L 274.603083 59.7022 
L 275.252826 60.099923 
L 275.685987 60.335711 
L 275.902568 60.740353 
L 276.119149 60.810538 
L 276.335729 61.045956 
L 276.55231 60.836613 
L 276.768891 60.89096 
L 276.985472 60.641594 
L 277.202052 60.636194 
L 277.418633 60.89319 
L 278.284956 60.554101 
L 278.934698 60.126671 
L 279.584441 61.096801 
L 279.801021 60.827892 
L 280.017602 61.346359 
L 280.234183 61.269737 
L 280.450764 61.703442 
L 281.100506 61.38299 
L 281.317087 62.368364 
L 281.750248 63.202262 
L 281.966829 63.977956 
L 282.616571 67.911068 
L 283.049733 69.532794 
L 283.482894 69.213601 
L 283.699475 68.584648 
L 283.916056 68.493863 
L 284.349217 69.530929 
L 284.565798 69.860078 
L 285.21554 71.491742 
L 285.432121 71.392877 
L 285.648702 71.4915 
L 285.865282 71.88385 
L 286.081863 71.923833 
L 286.948186 68.097201 
L 287.164767 67.899299 
L 287.381348 67.530695 
L 287.597928 67.477735 
L 288.247671 66.628511 
L 291.279801 60.76013 
L 292.146124 59.968732 
L 292.362705 59.895155 
L 293.229028 59.131179 
L 293.87877 58.911422 
L 294.311932 58.543483 
L 294.745093 58.31917 
L 295.178255 58.084691 
L 295.827997 57.952564 
L 296.69432 57.928759 
L 296.910901 57.843019 
L 297.344062 58.321475 
L 297.993804 59.009239 
L 298.426966 59.106258 
L 298.860127 59.123802 
L 299.50987 58.780836 
L 299.943031 58.69423 
L 300.376193 58.87925 
L 300.592773 59.279058 
L 300.809354 59.372348 
L 301.892258 60.377187 
L 302.325419 59.799583 
L 302.542 59.633987 
L 302.758581 59.703026 
L 303.624904 60.372663 
L 304.058065 60.172004 
L 304.924388 58.775044 
L 306.007292 57.641498 
L 306.440454 57.432318 
L 307.090196 56.895178 
L 307.739938 56.708013 
L 308.606261 56.245251 
L 309.039423 56.301442 
L 309.472584 56.665879 
L 309.905746 57.0309 
L 310.338907 57.026821 
L 310.555488 57.171495 
L 310.988649 57.095058 
L 311.421811 57.105872 
L 312.071553 56.678484 
L 312.288134 56.690987 
L 312.504715 56.837641 
L 312.937876 56.696266 
L 313.587618 56.338929 
L 314.453941 55.743532 
L 315.320264 55.160553 
L 315.753426 54.87779 
L 315.970007 54.692027 
L 316.186587 54.759967 
L 316.83633 54.579596 
L 317.269491 54.630744 
L 317.486072 54.510482 
L 318.135814 54.542683 
L 318.785556 53.983791 
L 319.002137 54.093865 
L 319.218718 54.014659 
L 319.435299 54.171742 
L 319.86846 54.229502 
L 320.951364 55.078268 
L 321.167945 55.549678 
L 321.817687 56.253581 
L 322.250848 57.26783 
L 322.467429 57.889639 
L 323.333752 61.739582 
L 323.766914 62.511824 
L 324.849817 62.802864 
L 325.49956 64.35276 
L 326.149302 65.802275 
L 326.365883 65.950089 
L 326.799044 65.761695 
L 327.015625 65.668061 
L 327.448786 65.131216 
L 328.315109 63.843234 
L 328.964852 63.306777 
L 329.398013 62.479548 
L 329.831175 61.524401 
L 330.047755 61.341099 
L 330.480917 60.758734 
L 330.697498 60.611803 
L 331.563821 59.372372 
L 331.996982 58.789312 
L 332.863305 57.991399 
L 334.595951 56.792774 
L 335.245693 56.623756 
L 336.112016 56.435225 
L 336.545178 56.878302 
L 337.19492 57.774033 
L 337.411501 57.819849 
L 338.061243 57.361108 
L 338.494405 56.860712 
L 339.793889 55.664162 
L 340.01047 55.621278 
L 340.660212 55.158787 
L 341.309955 54.936666 
L 342.392858 54.529038 
L 343.259181 54.335702 
L 344.125504 54.215228 
L 344.342085 54.431638 
L 344.991827 54.278608 
L 345.424989 54.068207 
L 346.074731 54.170541 
L 346.291312 54.073973 
L 346.507893 54.109077 
L 346.724473 54.271592 
L 347.157635 54.183924 
L 347.590796 54.007757 
L 348.240539 53.568 
L 349.540023 53.952208 
L 349.756604 53.970733 
L 351.48925 55.205752 
L 351.922411 55.459985 
L 352.138992 55.587809 
L 353.655057 55.206786 
L 354.088219 55.018187 
L 354.52138 54.961989 
L 354.954542 54.505373 
L 355.387703 54.339938 
L 356.470607 54.278377 
L 356.687188 54.153019 
L 356.903769 54.356593 
L 357.33693 54.215195 
L 357.553511 54.333202 
L 357.986672 54.253744 
L 358.203253 54.364985 
L 358.419834 54.630287 
L 359.286157 54.428031 
L 359.502738 54.284945 
L 359.719318 54.330591 
L 359.935899 54.844507 
L 360.15248 54.809425 
L 361.018803 53.917146 
L 361.235384 53.77953 
L 361.451964 53.78137 
L 361.668545 53.662983 
L 361.885126 53.883227 
L 362.534868 53.569862 
L 363.18461 53.992595 
L 363.617772 54.669592 
L 364.267514 55.38822 
L 365.566999 56.519817 
L 366.216741 56.300287 
L 366.649902 56.026226 
L 366.866483 56.122285 
L 367.083064 55.957562 
L 367.732806 55.939421 
L 367.949387 56.316804 
L 368.382548 56.445096 
L 368.81571 56.266799 
L 369.898614 54.892472 
L 370.331775 54.586376 
L 370.764937 54.497275 
L 372.064421 53.889636 
L 372.930744 54.679792 
L 373.363906 55.514798 
L 373.797067 56.878366 
L 374.446809 60.150179 
L 374.879971 62.056248 
L 375.529713 63.497926 
L 375.962875 63.932009 
L 376.829198 64.493871 
L 377.262359 64.719773 
L 378.561844 65.021838 
L 379.428167 64.928366 
L 380.29449 64.631139 
L 380.727651 64.484863 
L 381.377393 64.088824 
L 382.243716 63.485066 
L 383.976362 63.018632 
L 385.059266 62.373399 
L 386.358751 61.904169 
L 386.791912 61.465743 
L 387.441654 60.700258 
L 388.95772 59.940998 
L 389.607462 59.649213 
L 392.206431 59.416645 
L 392.423012 59.343241 
L 393.072754 59.673868 
L 394.8054 60.878522 
L 395.238561 61.02772 
L 395.888304 61.084152 
L 396.538046 60.72702 
L 396.971207 60.676706 
L 397.404369 60.476982 
L 397.83753 60.383435 
L 398.487273 60.029526 
L 398.487273 60.029526 
" clip-path="url(#pc9f8839792)" style="fill: none; stroke: #ff0000; stroke-width: 1.5; stroke-linecap: square"/>
   </g>
   <g id="patch_3">
    <path d="M 57.6 307.584 
L 57.6 41.472 
" style="fill: none; stroke: #000000; stroke-width: 0.8; stroke-linejoin: miter; stroke-linecap: square"/>
   </g>
   <g id="patch_4">
    <path d="M 414.72 307.584 
L 414.72 41.472 
" style="fill: none; stroke: #000000; stroke-width: 0.8; stroke-linejoin: miter; stroke-linecap: square"/>
   </g>
   <g id="patch_5">
    <path d="M 57.6 307.584 
L 414.72 307.584 
" style="fill: none; stroke: #000000; stroke-width: 0.8; stroke-linejoin: miter; stroke-linecap: square"/>
   </g>
   <g id="patch_6">
    <path d="M 57.6 41.472 
L 414.72 41.472 
" style="fill: none; stroke: #000000; stroke-width: 0.8; stroke-linejoin: miter; stroke-linecap: square"/>
   </g>
   <g id="legend_1">
    <g id="patch_7">
     <path d="M 64.6 63.651688 
L 116.6 63.651688 
Q 118.6 63.651688 118.6 61.651688 
L 118.6 48.472 
Q 118.6 46.472 116.6 46.472 
L 64.6 46.472 
Q 62.6 46.472 62.6 48.472 
L 62.6 61.651688 
Q 62.6 63.651688 64.6 63.651688 
z
" style="fill: #ffffff; opacity: 0.8; stroke: #cccccc; stroke-linejoin: miter"/>
    </g>
    <g id="line2d_16">
     <path d="M 66.6 54.901688 
L 76.6 54.901688 
L 86.6 54.901688 
" style="fill: none; stroke: #ff0000; stroke-width: 1.5; stroke-linecap: square"/>
    </g>
    <g id="text_17">
     <!-- 奖励 -->
     <g transform="translate(94.6 58.401688)scale(0.1 -0.1)">
      <defs>
       <path id="SimHei-5956" d="M 5075 1575 
Q 5650 1575 6075 1600 
L 6075 1125 
Q 5675 1200 5075 1175 
L 3550 1175 
Q 3975 600 4712 300 
Q 5450 0 6150 -50 
Q 6000 -225 5850 -550 
Q 5350 -450 4975 -325 
Q 4600 -200 4137 87 
Q 3675 375 3250 875 
Q 3025 550 2800 350 
Q 2575 150 2250 -50 
Q 1925 -250 1562 -375 
Q 1200 -500 700 -625 
Q 600 -375 400 -125 
Q 875 -75 1262 37 
Q 1650 150 1962 312 
Q 2275 475 2500 687 
Q 2725 900 2850 1175 
L 1325 1175 
Q 825 1175 350 1150 
L 350 1600 
Q 825 1575 1325 1575 
L 2950 1575 
Q 2975 1750 2975 1950 
Q 3475 1875 3550 1875 
Q 3475 1725 3450 1575 
L 5075 1575 
z
M 4325 5000 
Q 4125 4800 3925 4500 
L 5900 4500 
Q 5675 3950 5462 3587 
Q 5250 3225 4987 2937 
Q 4725 2650 4287 2400 
Q 3850 2150 3050 1975 
Q 2925 2200 2750 2425 
Q 3500 2450 4100 2800 
L 3425 3250 
Q 3575 3425 3700 3600 
Q 3950 3450 4100 3337 
Q 4250 3225 4475 3075 
Q 4900 3450 5175 4100 
L 3675 4100 
Q 3550 3950 3375 3750 
Q 3200 3550 2900 3200 
Q 2700 3375 2475 3475 
Q 2850 3800 3187 4250 
Q 3525 4700 3750 5225 
Q 4075 5075 4325 5000 
z
M 2450 5175 
Q 2425 4875 2425 4475 
L 2425 2875 
Q 2425 2500 2450 1975 
L 1925 1975 
Q 1950 2500 1950 2875 
L 1950 3050 
Q 1225 2575 750 2275 
Q 575 2550 400 2700 
Q 825 2825 1950 3525 
L 1950 4475 
Q 1950 4850 1925 5175 
L 2450 5175 
z
M 1000 4700 
Q 1475 4325 1800 4025 
L 1425 3650 
Q 1100 4000 675 4350 
Q 850 4500 1000 4700 
z
" transform="scale(0.015625)"/>
       <path id="SimHei-52b1" d="M 2725 3575 
Q 3125 3575 3400 3600 
L 3400 3150 
Q 3100 3175 2725 3175 
L 2275 3175 
Q 2275 2875 2250 2450 
L 3375 2450 
Q 3300 1350 3275 1037 
Q 3250 725 3200 337 
Q 3150 -50 2950 -137 
Q 2750 -225 2275 -275 
Q 2250 -25 2075 300 
Q 2525 250 2637 275 
Q 2750 300 2787 537 
Q 2825 775 2850 1250 
Q 2875 1725 2875 2075 
L 2225 2075 
Q 2200 1600 2112 1250 
Q 2025 900 1925 587 
Q 1825 275 1687 12 
Q 1550 -250 1425 -450 
Q 1250 -250 975 -100 
Q 1200 125 1362 462 
Q 1525 800 1625 1150 
Q 1725 1500 1775 2037 
Q 1825 2575 1825 3175 
L 1250 3175 
Q 1250 2675 1225 2262 
Q 1200 1850 1150 1400 
Q 1100 950 975 425 
Q 850 -100 625 -500 
Q 425 -325 200 -200 
Q 375 125 487 487 
Q 600 850 675 1350 
Q 750 1850 762 2300 
Q 775 2750 775 3475 
Q 775 4225 750 4700 
L 2875 4700 
Q 3125 4700 3425 4725 
L 3425 4300 
Q 3150 4325 2875 4325 
L 1250 4325 
L 1250 3575 
L 2725 3575 
z
M 4550 -600 
Q 4500 -300 4325 50 
Q 4825 -25 5000 50 
Q 5175 125 5212 625 
Q 5250 1125 5287 1912 
Q 5325 2700 5325 3400 
L 4675 3400 
Q 4650 2325 4525 1675 
Q 4400 1025 4212 575 
Q 4025 125 3837 -137 
Q 3650 -400 3475 -650 
Q 3225 -450 3025 -375 
Q 3400 50 3637 512 
Q 3875 975 3987 1362 
Q 4100 1750 4150 2175 
Q 4200 2600 4225 3400 
Q 3825 3400 3550 3375 
L 3550 3825 
Q 3925 3800 4225 3800 
L 4225 4350 
Q 4225 4625 4200 5175 
Q 4500 5100 4750 5075 
Q 4725 4850 4700 4575 
Q 4675 4300 4675 3800 
L 5825 3800 
Q 5775 3375 5775 2675 
Q 5700 850 5675 500 
Q 5650 150 5575 -112 
Q 5500 -375 5225 -475 
Q 4950 -575 4550 -600 
z
" transform="scale(0.015625)"/>
      </defs>
      <use xlink:href="#SimHei-5956"/>
      <use xlink:href="#SimHei-52b1" x="100"/>
     </g>
    </g>
   </g>
  </g>
 </g>
 <defs>
  <clipPath id="pc9f8839792">
   <rect x="57.6" y="41.472" width="357.12" height="266.112"/>
  </clipPath>
 </defs>
</svg>
