<?xml version="1.0" encoding="utf-8" standalone="no"?>
<!DOCTYPE svg PUBLIC "-//W3C//DTD SVG 1.1//EN"
  "http://www.w3.org/Graphics/SVG/1.1/DTD/svg11.dtd">
<svg xmlns:xlink="http://www.w3.org/1999/xlink" width="396.850394pt" height="170.07874pt" viewBox="0 0 396.850394 170.07874" xmlns="http://www.w3.org/2000/svg" version="1.1">
 <metadata>
  <rdf:RDF xmlns:dc="http://purl.org/dc/elements/1.1/" xmlns:cc="http://creativecommons.org/ns#" xmlns:rdf="http://www.w3.org/1999/02/22-rdf-syntax-ns#">
   <cc:Work>
    <dc:type rdf:resource="http://purl.org/dc/dcmitype/StillImage"/>
    <dc:date>2023-02-28T12:47:18.610764</dc:date>
    <dc:format>image/svg+xml</dc:format>
    <dc:creator>
     <cc:Agent>
      <dc:title>Matplotlib v3.5.2, https://matplotlib.org/</dc:title>
     </cc:Agent>
    </dc:creator>
   </cc:Work>
  </rdf:RDF>
 </metadata>
 <defs>
  <style type="text/css">*{stroke-linejoin: round; stroke-linecap: butt}</style>
 </defs>
 <g id="figure_1">
  <g id="patch_1">
   <path d="M 0 170.07874 
L 396.850394 170.07874 
L 396.850394 0 
L 0 0 
L 0 170.07874 
z
" style="fill: none"/>
  </g>
  <g id="axes_1">
   <g id="patch_2">
    <path d="M 38.59125 139.19749 
L 192.374723 139.19749 
L 192.374723 10.8 
L 38.59125 10.8 
z
" style="fill: #ffffff"/>
   </g>
   <g id="matplotlib.axis_1">
    <g id="xtick_1">
     <g id="line2d_1">
      <defs>
       <path id="me2b2ed2f86" d="M 0 0 
L 0 -3.5 
" style="stroke: #000000; stroke-width: 0.8"/>
      </defs>
      <g>
       <use xlink:href="#me2b2ed2f86" x="45.581408" y="139.19749" style="stroke: #000000; stroke-width: 0.8"/>
      </g>
     </g>
     <g id="text_1">
      <!-- 0 -->
      <g transform="translate(43.831408 147.50999)scale(0.07 -0.07)">
       <defs>
        <path id="SimHei-30" d="M 225 2537 
Q 250 3200 412 3587 
Q 575 3975 875 4225 
Q 1175 4475 1612 4475 
Q 2050 4475 2375 4112 
Q 2700 3750 2800 3200 
Q 2900 2650 2862 1937 
Q 2825 1225 2612 775 
Q 2400 325 1975 150 
Q 1550 -25 1125 187 
Q 700 400 525 750 
Q 350 1100 275 1487 
Q 200 1875 225 2537 
z
M 750 2687 
Q 675 2000 800 1462 
Q 925 925 1212 700 
Q 1500 475 1800 612 
Q 2100 750 2237 1162 
Q 2375 1575 2375 2062 
Q 2375 2550 2337 2950 
Q 2300 3350 2112 3675 
Q 1925 4000 1612 4012 
Q 1300 4025 1062 3700 
Q 825 3375 750 2687 
z
" transform="scale(0.015625)"/>
       </defs>
       <use xlink:href="#SimHei-30"/>
      </g>
     </g>
    </g>
    <g id="xtick_2">
     <g id="line2d_2">
      <g>
       <use xlink:href="#me2b2ed2f86" x="73.542039" y="139.19749" style="stroke: #000000; stroke-width: 0.8"/>
      </g>
     </g>
     <g id="text_2">
      <!-- 200 -->
      <g transform="translate(68.292039 147.50999)scale(0.07 -0.07)">
       <defs>
        <path id="SimHei-32" d="M 300 250 
Q 325 625 650 925 
Q 975 1225 1475 1862 
Q 1975 2500 2125 2850 
Q 2275 3200 2237 3450 
Q 2200 3700 2000 3862 
Q 1800 4025 1537 4000 
Q 1275 3975 1037 3800 
Q 800 3625 675 3275 
L 200 3350 
Q 400 3925 712 4187 
Q 1025 4450 1450 4475 
Q 1700 4500 1900 4462 
Q 2100 4425 2312 4287 
Q 2525 4150 2662 3875 
Q 2800 3600 2762 3212 
Q 2725 2825 2375 2287 
Q 2025 1750 1025 600 
L 2825 600 
L 2825 150 
L 300 150 
L 300 250 
z
" transform="scale(0.015625)"/>
       </defs>
       <use xlink:href="#SimHei-32"/>
       <use xlink:href="#SimHei-30" x="50"/>
       <use xlink:href="#SimHei-30" x="100"/>
      </g>
     </g>
    </g>
    <g id="xtick_3">
     <g id="line2d_3">
      <g>
       <use xlink:href="#me2b2ed2f86" x="101.502671" y="139.19749" style="stroke: #000000; stroke-width: 0.8"/>
      </g>
     </g>
     <g id="text_3">
      <!-- 400 -->
      <g transform="translate(96.252671 147.50999)scale(0.07 -0.07)">
       <defs>
        <path id="SimHei-34" d="M 2000 1100 
L 75 1100 
L 75 1525 
L 2100 4450 
L 2475 4450 
L 2475 1525 
L 3075 1525 
L 3075 1100 
L 2475 1100 
L 2475 150 
L 2000 150 
L 2000 1100 
z
M 2000 1525 
L 2000 3500 
L 600 1525 
L 2000 1525 
z
" transform="scale(0.015625)"/>
       </defs>
       <use xlink:href="#SimHei-34"/>
       <use xlink:href="#SimHei-30" x="50"/>
       <use xlink:href="#SimHei-30" x="100"/>
      </g>
     </g>
    </g>
    <g id="xtick_4">
     <g id="line2d_4">
      <g>
       <use xlink:href="#me2b2ed2f86" x="129.463302" y="139.19749" style="stroke: #000000; stroke-width: 0.8"/>
      </g>
     </g>
     <g id="text_4">
      <!-- 600 -->
      <g transform="translate(124.213302 147.50999)scale(0.07 -0.07)">
       <defs>
        <path id="SimHei-36" d="M 250 1612 
Q 275 1975 387 2225 
Q 500 2475 725 2850 
L 1750 4450 
L 2325 4450 
L 1275 2800 
Q 1950 2975 2350 2750 
Q 2750 2525 2887 2237 
Q 3025 1950 3037 1612 
Q 3050 1275 2937 950 
Q 2825 625 2537 362 
Q 2250 100 1737 75 
Q 1225 50 862 262 
Q 500 475 362 862 
Q 225 1250 250 1612 
z
M 1025 787 
Q 1250 550 1625 525 
Q 2000 500 2250 775 
Q 2500 1050 2500 1575 
Q 2500 2100 2187 2300 
Q 1875 2500 1487 2450 
Q 1100 2400 925 2075 
Q 750 1750 775 1387 
Q 800 1025 1025 787 
z
" transform="scale(0.015625)"/>
       </defs>
       <use xlink:href="#SimHei-36"/>
       <use xlink:href="#SimHei-30" x="50"/>
       <use xlink:href="#SimHei-30" x="100"/>
      </g>
     </g>
    </g>
    <g id="xtick_5">
     <g id="line2d_5">
      <g>
       <use xlink:href="#me2b2ed2f86" x="157.423934" y="139.19749" style="stroke: #000000; stroke-width: 0.8"/>
      </g>
     </g>
     <g id="text_5">
      <!-- 800 -->
      <g transform="translate(152.173934 147.50999)scale(0.07 -0.07)">
       <defs>
        <path id="SimHei-38" d="M 175 1375 
Q 175 1675 325 1962 
Q 475 2250 825 2425 
Q 525 2600 425 2812 
Q 325 3025 312 3300 
Q 300 3575 387 3775 
Q 475 3975 650 4150 
Q 825 4325 1037 4387 
Q 1250 4450 1500 4450 
Q 1750 4450 1950 4400 
Q 2150 4350 2375 4187 
Q 2600 4025 2700 3725 
Q 2800 3425 2687 3025 
Q 2575 2625 2100 2400 
Q 2525 2275 2700 2012 
Q 2875 1750 2875 1375 
Q 2875 1000 2762 775 
Q 2650 550 2512 400 
Q 2375 250 2137 162 
Q 1900 75 1537 75 
Q 1175 75 912 162 
Q 650 250 475 425 
Q 300 600 237 837 
Q 175 1075 175 1375 
z
M 687 1400 
Q 675 1100 787 875 
Q 900 650 1200 587 
Q 1500 525 1825 600 
Q 2150 675 2275 950 
Q 2400 1225 2362 1500 
Q 2325 1775 2050 1962 
Q 1775 2150 1450 2125 
Q 1125 2100 912 1900 
Q 700 1700 687 1400 
z
M 775 3350 
Q 775 3100 950 2875 
Q 1125 2650 1500 2650 
Q 1875 2650 2062 2875 
Q 2250 3100 2237 3412 
Q 2225 3725 2012 3875 
Q 1800 4025 1437 4000 
Q 1075 3975 925 3787 
Q 775 3600 775 3350 
z
" transform="scale(0.015625)"/>
       </defs>
       <use xlink:href="#SimHei-38"/>
       <use xlink:href="#SimHei-30" x="50"/>
       <use xlink:href="#SimHei-30" x="100"/>
      </g>
     </g>
    </g>
    <g id="xtick_6">
     <g id="line2d_6">
      <g>
       <use xlink:href="#me2b2ed2f86" x="185.384565" y="139.19749" style="stroke: #000000; stroke-width: 0.8"/>
      </g>
     </g>
     <g id="text_6">
      <!-- 1000 -->
      <g transform="translate(178.384565 147.50999)scale(0.07 -0.07)">
       <defs>
        <path id="SimHei-31" d="M 1400 3600 
Q 1075 3275 575 2975 
L 575 3450 
Q 1200 3875 1600 4450 
L 1900 4450 
L 1900 150 
L 1400 150 
L 1400 3600 
z
" transform="scale(0.015625)"/>
       </defs>
       <use xlink:href="#SimHei-31"/>
       <use xlink:href="#SimHei-30" x="50"/>
       <use xlink:href="#SimHei-30" x="100"/>
       <use xlink:href="#SimHei-30" x="150"/>
      </g>
     </g>
    </g>
    <g id="text_7">
     <!-- 时间 -->
     <g transform="translate(108.482986 157.990459)scale(0.07 -0.07)">
      <defs>
       <path id="SimHei-65f6" d="M 2525 4575 
Q 2500 3675 2500 2400 
Q 2500 1125 2525 400 
L 2000 400 
L 2000 875 
L 1000 875 
L 1000 50 
L 475 50 
Q 500 1200 500 2350 
Q 500 3525 475 4575 
L 2525 4575 
z
M 4875 3825 
Q 4875 4575 4850 5225 
L 5400 5225 
Q 5375 4575 5375 3825 
Q 5750 3825 6175 3850 
L 6175 3375 
Q 5750 3400 5375 3400 
L 5375 50 
Q 5375 -325 5075 -425 
Q 4775 -525 4300 -575 
Q 4300 -275 4025 0 
Q 4500 -50 4687 -25 
Q 4875 0 4875 300 
L 4875 3400 
Q 3625 3400 2775 3375 
L 2775 3850 
Q 3575 3825 4875 3825 
z
M 2000 1300 
L 2000 2550 
L 1000 2550 
L 1000 1300 
L 2000 1300 
z
M 2000 2975 
L 2000 4150 
L 1000 4150 
L 1000 2975 
L 2000 2975 
z
M 3550 2725 
Q 3875 2200 4175 1600 
Q 3925 1525 3650 1375 
Q 3450 1975 3075 2500 
Q 3300 2600 3550 2725 
z
" transform="scale(0.015625)"/>
       <path id="SimHei-95f4" d="M 4450 3550 
Q 4425 3075 4425 2725 
L 4425 1400 
Q 4425 1075 4450 625 
L 1925 625 
Q 1950 1075 1950 1425 
L 1950 2725 
Q 1950 3075 1925 3550 
L 4450 3550 
z
M 5800 4875 
Q 5775 4400 5775 3925 
L 5775 250 
Q 5800 -325 5462 -450 
Q 5125 -575 4725 -625 
Q 4700 -325 4525 -25 
Q 5000 -50 5137 25 
Q 5275 100 5275 350 
L 5275 4450 
L 3775 4450 
Q 3175 4450 2650 4425 
L 2650 4900 
Q 3175 4875 3775 4875 
L 5800 4875 
z
M 550 -525 
Q 600 -25 600 525 
L 600 3150 
Q 600 3675 550 4025 
L 1125 4025 
Q 1100 3650 1100 3300 
L 1100 500 
Q 1100 0 1125 -525 
L 550 -525 
z
M 3950 1025 
L 3950 1950 
L 2425 1950 
L 2425 1025 
L 3950 1025 
z
M 3950 2350 
L 3950 3150 
L 2425 3150 
L 2425 2350 
L 3950 2350 
z
M 1525 5300 
Q 1750 5000 2225 4350 
Q 1950 4225 1700 4075 
Q 1450 4575 1075 5025 
Q 1350 5225 1525 5300 
z
" transform="scale(0.015625)"/>
      </defs>
      <use xlink:href="#SimHei-65f6"/>
      <use xlink:href="#SimHei-95f4" x="100"/>
     </g>
    </g>
   </g>
   <g id="matplotlib.axis_2">
    <g id="ytick_1">
     <g id="line2d_7">
      <defs>
       <path id="m2a6d948148" d="M 0 0 
L 3.5 0 
" style="stroke: #000000; stroke-width: 0.8"/>
      </defs>
      <g>
       <use xlink:href="#m2a6d948148" x="38.59125" y="122.079309" style="stroke: #000000; stroke-width: 0.8"/>
      </g>
     </g>
     <g id="text_8">
      <!-- -1.0 -->
      <g transform="translate(21.09125 124.485559)scale(0.07 -0.07)">
       <defs>
        <path id="SimHei-2d" d="M 2975 2125 
L 125 2125 
L 125 2525 
L 2975 2525 
L 2975 2125 
z
" transform="scale(0.015625)"/>
        <path id="SimHei-2e" d="M 1075 125 
L 500 125 
L 500 675 
L 1075 675 
L 1075 125 
z
" transform="scale(0.015625)"/>
       </defs>
       <use xlink:href="#SimHei-2d"/>
       <use xlink:href="#SimHei-31" x="50"/>
       <use xlink:href="#SimHei-2e" x="100"/>
       <use xlink:href="#SimHei-30" x="150"/>
      </g>
     </g>
    </g>
    <g id="ytick_2">
     <g id="line2d_8">
      <g>
       <use xlink:href="#m2a6d948148" x="38.59125" y="103.0553" style="stroke: #000000; stroke-width: 0.8"/>
      </g>
     </g>
     <g id="text_9">
      <!-- -0.5 -->
      <g transform="translate(21.09125 105.46155)scale(0.07 -0.07)">
       <defs>
        <path id="SimHei-35" d="M 550 1325 
Q 725 650 1150 575 
Q 1575 500 1837 662 
Q 2100 825 2212 1087 
Q 2325 1350 2312 1675 
Q 2300 2000 2137 2225 
Q 1975 2450 1725 2525 
Q 1475 2600 1162 2525 
Q 850 2450 650 2175 
L 225 2225 
Q 275 2375 700 4375 
L 2675 4375 
L 2675 3925 
L 1075 3925 
Q 950 3250 825 2850 
Q 1200 3025 1525 3012 
Q 1850 3000 2150 2862 
Q 2450 2725 2587 2487 
Q 2725 2250 2787 2012 
Q 2850 1775 2837 1500 
Q 2825 1225 2725 937 
Q 2625 650 2425 462 
Q 2225 275 1937 162 
Q 1650 50 1275 75 
Q 900 100 562 350 
Q 225 600 100 1200 
L 550 1325 
z
" transform="scale(0.015625)"/>
       </defs>
       <use xlink:href="#SimHei-2d"/>
       <use xlink:href="#SimHei-30" x="50"/>
       <use xlink:href="#SimHei-2e" x="100"/>
       <use xlink:href="#SimHei-35" x="150"/>
      </g>
     </g>
    </g>
    <g id="ytick_3">
     <g id="line2d_9">
      <g>
       <use xlink:href="#m2a6d948148" x="38.59125" y="84.031291" style="stroke: #000000; stroke-width: 0.8"/>
      </g>
     </g>
     <g id="text_10">
      <!-- 0.0 -->
      <g transform="translate(24.59125 86.437541)scale(0.07 -0.07)">
       <use xlink:href="#SimHei-30"/>
       <use xlink:href="#SimHei-2e" x="50"/>
       <use xlink:href="#SimHei-30" x="100"/>
      </g>
     </g>
    </g>
    <g id="ytick_4">
     <g id="line2d_10">
      <g>
       <use xlink:href="#m2a6d948148" x="38.59125" y="65.007282" style="stroke: #000000; stroke-width: 0.8"/>
      </g>
     </g>
     <g id="text_11">
      <!-- 0.5 -->
      <g transform="translate(24.59125 67.413532)scale(0.07 -0.07)">
       <use xlink:href="#SimHei-30"/>
       <use xlink:href="#SimHei-2e" x="50"/>
       <use xlink:href="#SimHei-35" x="100"/>
      </g>
     </g>
    </g>
    <g id="ytick_5">
     <g id="line2d_11">
      <g>
       <use xlink:href="#m2a6d948148" x="38.59125" y="45.983273" style="stroke: #000000; stroke-width: 0.8"/>
      </g>
     </g>
     <g id="text_12">
      <!-- 1.0 -->
      <g transform="translate(24.59125 48.389523)scale(0.07 -0.07)">
       <use xlink:href="#SimHei-31"/>
       <use xlink:href="#SimHei-2e" x="50"/>
       <use xlink:href="#SimHei-30" x="100"/>
      </g>
     </g>
    </g>
    <g id="ytick_6">
     <g id="line2d_12">
      <g>
       <use xlink:href="#m2a6d948148" x="38.59125" y="26.959264" style="stroke: #000000; stroke-width: 0.8"/>
      </g>
     </g>
     <g id="text_13">
      <!-- 1.5 -->
      <g transform="translate(24.59125 29.365514)scale(0.07 -0.07)">
       <use xlink:href="#SimHei-31"/>
       <use xlink:href="#SimHei-2e" x="50"/>
       <use xlink:href="#SimHei-35" x="100"/>
      </g>
     </g>
    </g>
    <g id="text_14">
     <!-- 值 -->
     <g transform="translate(16.21625 78.498745)rotate(-90)scale(0.07 -0.07)">
      <defs>
       <path id="SimHei-503c" d="M 3675 4450 
L 3675 5100 
Q 3975 5075 4350 5050 
Q 4225 4875 4200 4450 
L 5125 4450 
Q 5550 4450 5875 4475 
L 5875 4025 
Q 5525 4050 5125 4050 
L 4175 4050 
L 4125 3500 
L 5400 3500 
Q 5375 3200 5375 2700 
L 5375 150 
Q 5875 150 6100 175 
L 6100 -275 
Q 5775 -250 5200 -250 
L 2850 -250 
Q 2275 -250 1900 -275 
L 1900 175 
Q 2125 150 2600 150 
L 2600 2700 
Q 2600 3175 2575 3500 
L 3600 3500 
L 3650 4050 
L 3200 4050 
Q 2575 4050 2225 4025 
L 2225 4475 
Q 2550 4450 3200 4450 
L 3675 4450 
z
M 2225 4900 
Q 2025 4675 1650 3750 
L 1650 450 
Q 1650 -75 1675 -550 
L 1150 -550 
Q 1175 -125 1175 375 
L 1175 2950 
Q 875 2450 625 2150 
Q 425 2425 250 2575 
Q 500 2825 937 3537 
Q 1375 4250 1625 5150 
Q 1975 4975 2225 4900 
z
M 4925 2650 
L 4925 3150 
L 3075 3150 
L 3075 2650 
L 4925 2650 
z
M 4925 150 
L 4925 625 
L 3075 625 
L 3075 150 
L 4925 150 
z
M 4925 1000 
L 4925 1450 
L 3075 1450 
L 3075 1000 
L 4925 1000 
z
M 4925 1825 
L 4925 2275 
L 3075 2275 
L 3075 1825 
L 4925 1825 
z
" transform="scale(0.015625)"/>
      </defs>
      <use xlink:href="#SimHei-503c"/>
     </g>
    </g>
   </g>
   <g id="line2d_13">
    <path d="M 45.581408 116.775578 
L 46.420227 115.31831 
L 47.119243 113.606152 
L 47.538652 112.522313 
L 48.936684 109.007001 
L 49.495896 106.856987 
L 50.055109 104.307705 
L 50.334715 101.878617 
L 51.732747 94.872276 
L 52.851172 88.766465 
L 54.249204 80.439984 
L 56.206448 73.523521 
L 56.486054 71.789369 
L 57.464676 69.05162 
L 62.357787 56.230431 
L 63.616015 53.717844 
L 63.895621 52.617309 
L 64.035425 52.349014 
L 64.315031 51.061686 
L 67.250897 45.984942 
L 67.949913 45.055608 
L 70.606173 42.123705 
L 72.423614 40.851394 
L 74.940071 39.511469 
L 75.219677 38.885637 
L 76.477906 37.634218 
L 78.01574 35.760139 
L 79.413772 33.789209 
L 79.693378 32.911354 
L 81.930229 29.269182 
L 82.489441 28.309187 
L 82.769048 27.252306 
L 83.887473 25.240539 
L 84.167079 24.514314 
L 87.522355 18.116632 
L 88.361174 16.63625 
L 88.64078 17.307877 
L 90.038812 22.063669 
L 90.318418 22.718654 
L 91.157237 20.701194 
L 91.996056 18.701155 
L 92.135859 18.743441 
L 92.415465 19.463292 
L 95.071725 23.667652 
L 95.211529 23.898502 
L 95.491135 24.951879 
L 97.588182 28.723443 
L 98.706608 30.497887 
L 100.524049 32.924659 
L 101.083261 33.591483 
L 101.223064 57.248037 
L 102.481293 68.44666 
L 102.760899 72.274573 
L 104.857946 89.455659 
L 106.675387 103.297929 
L 107.514206 109.805976 
L 108.073419 113.866589 
L 108.632632 133.161728 
L 108.772435 133.361241 
L 109.471451 132.896669 
L 117.580034 133.112385 
L 118.139246 133.089271 
L 118.558656 133.10494 
L 118.978065 133.098614 
L 119.397475 133.088979 
L 119.956687 133.09949 
L 120.655703 133.038712 
L 121.494522 133.106692 
L 122.752751 133.000074 
L 123.451766 133.057154 
L 124.010979 133.054916 
L 124.430388 133.060755 
L 124.849798 133.161777 
L 124.989601 133.007763 
L 125.269207 133.165329 
L 125.548814 132.803433 
L 127.366255 132.703239 
L 127.925467 132.43633 
L 128.904089 131.615215 
L 129.183696 130.071281 
L 132.119562 121.702707 
L 135.474838 112.061731 
L 136.03405 111.121541 
L 137.292279 109.73347 
L 137.851492 109.262037 
L 138.550507 109.174105 
L 139.668933 109.231915 
L 140.507752 109.541743 
L 141.066964 109.856146 
L 142.464996 111.057454 
L 143.164011 111.64475 
L 144.282437 112.327959 
L 145.540665 112.3101 
L 146.379484 111.492196 
L 146.519287 111.329813 
L 146.798894 110.728112 
L 148.336728 108.255229 
L 152.251217 101.165968 
L 152.950232 99.497509 
L 153.090036 99.109774 
L 153.369642 97.982918 
L 154.62787 94.323422 
L 154.907477 92.475158 
L 156.025902 88.714105 
L 156.305508 86.934017 
L 156.585115 86.41144 
L 157.144327 85.972999 
L 157.70354 85.733049 
L 159.101571 85.024099 
L 160.3598 84.411206 
L 160.779209 84.493493 
L 161.058816 84.716314 
L 161.757831 84.923175 
L 162.037438 85.046386 
L 162.736453 85.364048 
L 163.295666 85.206482 
L 165.812123 84.435294 
L 168.608186 83.620748 
L 169.726611 82.983865 
L 170.705233 82.422992 
L 171.963462 81.770343 
L 173.780903 80.535166 
L 174.200312 80.172102 
L 176.017753 78.719117 
L 178.813817 75.191056 
L 181.60988 70.099401 
L 182.029289 69.266656 
L 182.308895 68.102768 
L 183.986533 64.342008 
L 185.384565 60.730545 
L 185.384565 60.730545 
" clip-path="url(#p0fca51a8fe)" style="fill: none; stroke: #ff0000; stroke-width: 1.5; stroke-linecap: square"/>
   </g>
   <g id="line2d_14">
    <path d="M 45.581408 116.775578 
L 45.721211 115.610737 
L 46.420227 114.806087 
L 46.979439 113.757491 
L 47.259046 113.284558 
L 47.818258 112.484335 
L 48.377471 111.328128 
L 48.79688 110.550379 
L 49.21629 109.792152 
L 50.614322 106.690704 
L 51.592944 104.640349 
L 52.291959 102.664306 
L 52.571566 102.859174 
L 53.410385 104.240985 
L 53.689991 104.108046 
L 54.249204 104.032468 
L 54.948219 103.397489 
L 55.507432 102.834901 
L 56.76566 101.353015 
L 57.045267 101.308015 
L 57.324873 101.5613 
L 58.583101 103.722024 
L 61.099558 105.152812 
L 61.379165 105.209701 
L 61.658771 104.929401 
L 62.07818 103.88878 
L 62.637393 102.380238 
L 62.777196 102.230155 
L 63.056802 101.299348 
L 63.476212 98.803256 
L 64.035425 95.458623 
L 64.454834 94.141635 
L 65.293653 91.364943 
L 66.132472 88.944468 
L 68.089716 82.595188 
L 68.509126 81.990826 
L 68.928535 81.799091 
L 69.068338 81.771106 
L 69.907157 81.079172 
L 70.326567 80.8079 
L 72.144008 78.791975 
L 72.563417 78.486833 
L 73.12263 77.683083 
L 73.542039 77.058237 
L 74.380858 76.194679 
L 74.800268 76.174334 
L 75.499283 76.446749 
L 76.058496 77.002784 
L 77.736134 78.733246 
L 81.650622 82.457298 
L 82.908851 83.290255 
L 84.167079 83.865392 
L 85.285504 84.068684 
L 86.264127 84.010635 
L 87.382552 83.71124 
L 88.64078 83.13226 
L 89.619402 82.490812 
L 90.458221 81.636394 
L 92.135859 79.74612 
L 92.275662 79.772165 
L 92.555269 80.547422 
L 92.974678 83.384684 
L 93.533891 87.648957 
L 93.813497 88.764347 
L 95.770741 98.787691 
L 96.889167 102.922849 
L 98.147395 106.78452 
L 98.706608 108.079075 
L 99.405623 109.094946 
L 101.223064 111.676309 
L 101.502671 112.162171 
L 101.92208 113.62963 
L 102.760899 117.263846 
L 104.857946 122.312556 
L 105.836569 123.85157 
L 106.815191 125.038607 
L 107.933616 126.061406 
L 108.632632 126.725788 
L 109.331647 127.603496 
L 109.611254 127.548065 
L 109.89086 127.361019 
L 110.450073 126.452745 
L 112.54712 127.398329 
L 114.923774 128.784559 
L 116.741215 129.625972 
L 118.698459 130.28277 
L 120.93531 130.785006 
L 123.731373 131.167286 
L 125.688617 131.269847 
L 126.247829 130.99152 
L 127.226452 130.123128 
L 127.925467 129.433043 
L 129.323499 128.725414 
L 129.603105 128.81131 
L 130.022515 129.213425 
L 130.581727 129.838451 
L 131.14094 130.139647 
L 131.839956 130.568536 
L 134.356413 131.147937 
L 135.195232 131.149942 
L 136.872869 130.89789 
L 137.571885 130.788353 
L 137.991295 130.467359 
L 138.410704 129.744027 
L 138.969917 128.657152 
L 141.486374 125.004911 
L 141.905783 124.328809 
L 142.325193 123.713304 
L 142.884405 122.254853 
L 144.282437 118.082039 
L 145.400862 115.627523 
L 145.680468 115.42042 
L 145.960075 115.47976 
L 146.65909 115.904712 
L 147.218303 115.668381 
L 147.917319 115.373367 
L 148.476531 114.964301 
L 148.895941 114.34783 
L 150.154169 111.819532 
L 150.573579 111.592249 
L 150.992988 111.199085 
L 151.412398 111.17333 
L 151.831807 111.229059 
L 152.39102 110.958627 
L 152.810429 110.947916 
L 153.789051 111.100727 
L 154.907477 110.426812 
L 155.746296 109.673667 
L 157.563737 107.851958 
L 157.843343 107.99848 
L 158.122949 108.509937 
L 158.961768 110.385757 
L 159.381178 111.012515 
L 160.219997 112.317781 
L 160.639406 112.954662 
L 161.478225 114.872816 
L 162.177241 116.295277 
L 164.134485 120.257787 
L 165.392713 122.2498 
L 166.650942 123.864946 
L 167.90917 125.140033 
L 168.887792 125.860852 
L 169.167399 125.869017 
L 169.586808 125.602527 
L 170.98484 124.048623 
L 171.404249 124.019204 
L 172.243068 124.082055 
L 173.6411 123.883306 
L 174.340116 123.657552 
L 175.598344 123.317177 
L 177.835194 122.289623 
L 178.813817 121.983331 
L 179.093423 121.720276 
L 179.512832 120.972585 
L 181.470077 116.565399 
L 183.427321 113.517377 
L 185.384565 110.964087 
L 185.384565 110.964087 
" clip-path="url(#p0fca51a8fe)" style="fill: none; stroke-dasharray: 5.55,2.4; stroke-dashoffset: 0; stroke: #008000; stroke-width: 1.5"/>
   </g>
   <g id="patch_3">
    <path d="M 38.59125 139.19749 
L 38.59125 10.8 
" style="fill: none; stroke: #000000; stroke-linejoin: miter; stroke-linecap: square"/>
   </g>
   <g id="patch_4">
    <path d="M 192.374723 139.19749 
L 192.374723 10.8 
" style="fill: none; stroke: #000000; stroke-linejoin: miter; stroke-linecap: square"/>
   </g>
   <g id="patch_5">
    <path d="M 38.59125 139.19749 
L 192.374723 139.19749 
" style="fill: none; stroke: #000000; stroke-linejoin: miter; stroke-linecap: square"/>
   </g>
   <g id="patch_6">
    <path d="M 38.59125 10.8 
L 192.374723 10.8 
" style="fill: none; stroke: #000000; stroke-linejoin: miter; stroke-linecap: square"/>
   </g>
   <g id="legend_1">
    <g id="patch_7">
     <path d="M 144.974723 32.75625 
L 188.174723 32.75625 
Q 189.374723 32.75625 189.374723 31.55625 
L 189.374723 15 
Q 189.374723 13.8 188.174723 13.8 
L 144.974723 13.8 
Q 143.774723 13.8 143.774723 15 
L 143.774723 31.55625 
Q 143.774723 32.75625 144.974723 32.75625 
z
" style="fill: #ffffff; opacity: 0.8; stroke: #cccccc; stroke-linejoin: miter"/>
    </g>
    <g id="line2d_15">
     <path d="M 146.174723 18.904688 
L 152.174723 18.904688 
L 158.174723 18.904688 
" style="fill: none; stroke: #ff0000; stroke-width: 1.5; stroke-linecap: square"/>
    </g>
    <g id="text_15">
     <!-- 真实值 -->
     <g transform="translate(162.974723 21.004688)scale(0.06 -0.06)">
      <defs>
       <path id="SimHei-771f" d="M 3550 5100 
Q 3450 4925 3400 4625 
L 4850 4625 
Q 5175 4625 5725 4650 
L 5725 4250 
Q 5200 4275 4850 4275 
L 3350 4275 
L 3300 3850 
L 5050 3850 
Q 5025 3550 5025 3150 
L 5025 1075 
L 5400 1075 
Q 5800 1075 6075 1100 
L 6075 625 
Q 5575 650 4900 650 
L 1450 650 
Q 775 650 350 625 
L 350 1100 
Q 725 1075 1100 1075 
L 1425 1075 
L 1425 3075 
Q 1425 3450 1400 3850 
L 2825 3850 
L 2850 4275 
L 1400 4275 
Q 1050 4275 625 4250 
L 625 4650 
Q 1175 4625 1375 4625 
L 2925 4625 
Q 2950 4875 2950 5125 
Q 3300 5100 3550 5100 
z
M 4075 525 
Q 4500 425 4925 250 
Q 5350 75 5825 -150 
Q 5550 -425 5450 -575 
Q 5025 -300 4550 -100 
Q 4075 100 3800 175 
Q 3925 350 4075 525 
z
M 4525 3150 
L 4525 3475 
L 1925 3475 
L 1925 3150 
L 4525 3150 
z
M 4525 1075 
L 4525 1400 
L 1925 1400 
L 1925 1075 
L 4525 1075 
z
M 2775 200 
Q 2375 -25 1875 -225 
Q 1375 -425 950 -575 
Q 775 -400 600 -250 
Q 1225 -50 1625 137 
Q 2025 325 2350 525 
Q 2550 350 2775 200 
z
M 4525 1775 
L 4525 2075 
L 1925 2075 
L 1925 1775 
L 4525 1775 
z
M 4525 2475 
L 4525 2775 
L 1925 2775 
L 1925 2475 
L 4525 2475 
z
" transform="scale(0.015625)"/>
       <path id="SimHei-5b9e" d="M 4125 3500 
Q 4050 3200 4000 2675 
Q 3950 2150 3850 1550 
L 5025 1550 
Q 5475 1550 5975 1575 
L 5975 1100 
Q 5450 1125 5000 1125 
L 3725 1125 
Q 3500 625 3050 250 
Q 2600 -125 2000 -337 
Q 1400 -550 925 -675 
Q 825 -375 500 -200 
Q 1225 -125 2050 212 
Q 2875 550 3200 1125 
L 1425 1125 
Q 975 1125 425 1100 
L 425 1575 
Q 1000 1550 1425 1550 
L 3375 1550 
Q 3450 1975 3487 2462 
Q 3525 2950 3500 3650 
Q 3800 3550 4125 3500 
z
M 3250 5250 
Q 3450 4850 3600 4375 
L 5775 4375 
Q 5750 4100 5750 3825 
Q 5750 3575 5775 3275 
L 5200 3275 
L 5200 3975 
L 1225 3975 
L 1225 3225 
L 675 3225 
Q 700 3525 700 3800 
Q 700 4100 675 4375 
L 2975 4375 
Q 2900 4675 2700 5075 
Q 2900 5150 3250 5250 
z
M 4000 825 
Q 4550 525 5050 262 
Q 5550 0 5925 -225 
Q 5750 -425 5550 -650 
Q 5100 -325 4575 -37 
Q 4050 250 3675 400 
Q 3875 650 4000 825 
z
M 1175 2750 
Q 1600 2550 2350 2050 
Q 2250 1900 2050 1650 
Q 1350 2175 925 2350 
Q 1075 2500 1175 2750 
z
M 3150 2825 
Q 2975 2625 2850 2425 
Q 2050 3000 1675 3125 
Q 1800 3300 1950 3525 
L 3150 2825 
z
" transform="scale(0.015625)"/>
      </defs>
      <use xlink:href="#SimHei-771f"/>
      <use xlink:href="#SimHei-5b9e" x="100"/>
      <use xlink:href="#SimHei-503c" x="200"/>
     </g>
    </g>
    <g id="line2d_16">
     <path d="M 146.174723 27.50625 
L 152.174723 27.50625 
L 158.174723 27.50625 
" style="fill: none; stroke-dasharray: 5.55,2.4; stroke-dashoffset: 0; stroke: #008000; stroke-width: 1.5"/>
    </g>
    <g id="text_16">
     <!-- 模型输出 -->
     <g transform="translate(162.974723 29.60625)scale(0.06 -0.06)">
      <defs>
       <path id="SimHei-6a21" d="M 5700 3675 
Q 5675 3400 5675 2725 
Q 5675 2050 5700 1725 
L 4375 1725 
Q 4350 1450 4325 1200 
L 5225 1200 
Q 5750 1200 6025 1225 
L 6025 825 
Q 5725 850 5225 850 
L 4700 850 
Q 5075 375 5437 137 
Q 5800 -100 6200 -200 
Q 5975 -375 5850 -625 
Q 5275 -400 4862 25 
Q 4450 450 4300 775 
L 4225 775 
Q 4000 275 3537 -62 
Q 3075 -400 2475 -625 
Q 2350 -375 2125 -200 
Q 2775 -75 3200 200 
Q 3625 475 3775 850 
L 3325 850 
Q 2800 850 2400 825 
L 2400 1225 
Q 2800 1200 3350 1200 
L 3875 1200 
Q 3925 1475 3925 1725 
L 2750 1725 
Q 2775 2075 2775 2700 
Q 2775 3350 2750 3675 
L 5700 3675 
z
M 2175 1650 
Q 2025 1975 1675 2525 
L 1675 300 
Q 1675 -300 1700 -550 
L 1175 -550 
Q 1200 -275 1200 250 
L 1200 2225 
Q 1125 2000 962 1712 
Q 800 1425 600 1050 
Q 450 1275 200 1425 
Q 600 1825 850 2425 
Q 1100 3025 1175 3425 
L 950 3425 
Q 700 3425 400 3400 
L 400 3825 
Q 675 3800 825 3800 
L 1200 3800 
L 1200 4350 
Q 1200 4775 1175 5150 
L 1700 5150 
Q 1675 4825 1675 4425 
L 1675 3800 
Q 2075 3800 2375 3825 
L 2375 3400 
Q 2050 3425 1675 3425 
L 1675 2575 
Q 1850 2675 2000 2775 
Q 2150 2525 2287 2325 
Q 2425 2125 2550 1925 
Q 2325 1775 2175 1650 
z
M 3375 4300 
L 3175 4300 
Q 2700 4300 2425 4275 
L 2425 4675 
Q 2700 4650 3150 4650 
L 3375 4650 
Q 3375 5000 3350 5225 
L 3825 5225 
Q 3800 5000 3800 4650 
L 4550 4650 
Q 4550 4975 4525 5200 
L 5025 5200 
Q 5000 4925 5000 4650 
L 5375 4650 
Q 5650 4650 5950 4675 
L 5950 4275 
Q 5650 4300 5375 4300 
L 5000 4300 
L 5000 3850 
L 4550 3850 
L 4550 4300 
L 3800 4300 
L 3800 3875 
L 3375 3875 
L 3375 4300 
z
M 5275 2075 
L 5275 2525 
L 3200 2525 
L 3200 2075 
L 5275 2075 
z
M 5275 2875 
L 5275 3325 
L 3200 3325 
L 3200 2875 
L 5275 2875 
z
" transform="scale(0.015625)"/>
       <path id="SimHei-578b" d="M 2625 1775 
Q 2650 2325 2650 2700 
L 2650 3000 
L 1825 3000 
Q 1725 2375 1425 2000 
Q 1125 1625 775 1425 
Q 650 1650 375 1900 
Q 850 2075 1062 2362 
Q 1275 2650 1350 3000 
Q 900 3000 375 2975 
L 375 3450 
Q 925 3425 1400 3425 
Q 1425 3950 1425 4475 
Q 1075 4475 700 4450 
L 700 4900 
Q 1050 4875 1525 4875 
L 3000 4875 
Q 3275 4875 3650 4900 
L 3650 4450 
Q 3325 4475 3125 4475 
L 3125 3425 
Q 3450 3425 3825 3450 
L 3825 2975 
Q 3450 3000 3125 3000 
L 3125 2675 
Q 3125 2225 3150 1775 
L 2625 1775 
z
M 3000 1175 
Q 3000 1375 2975 1725 
L 3500 1725 
Q 3475 1375 3475 1175 
L 4550 1175 
Q 5050 1175 5450 1200 
L 5450 725 
Q 4975 750 4550 750 
L 3475 750 
L 3475 -50 
L 5275 -50 
Q 5700 -50 6100 -25 
L 6100 -500 
Q 5725 -475 5300 -475 
L 1250 -475 
Q 775 -475 400 -500 
L 400 -25 
Q 775 -50 1250 -50 
L 3000 -50 
L 3000 750 
L 2025 750 
Q 1500 750 975 725 
L 1050 1200 
Q 1500 1175 2025 1175 
L 3000 1175 
z
M 5775 5200 
Q 5750 4775 5750 4325 
L 5750 2400 
Q 5775 1950 5612 1775 
Q 5450 1600 4900 1525 
Q 4825 1775 4675 2100 
Q 5175 2075 5237 2150 
Q 5300 2225 5300 2525 
L 5300 4325 
Q 5300 4775 5275 5200 
L 5775 5200 
z
M 4600 4750 
Q 4575 4450 4575 3975 
L 4575 3200 
Q 4575 2825 4600 2425 
L 4100 2425 
Q 4125 2825 4125 3200 
L 4125 3975 
Q 4125 4450 4100 4750 
L 4600 4750 
z
M 2650 3425 
L 2650 4475 
L 1875 4475 
Q 1850 3750 1850 3425 
L 2650 3425 
z
" transform="scale(0.015625)"/>
       <path id="SimHei-8f93" d="M 3225 3650 
Q 2725 3100 2550 2950 
L 4100 2950 
Q 4075 2675 4075 2275 
L 4075 -100 
Q 4100 -325 3962 -425 
Q 3825 -525 3475 -600 
Q 3400 -350 3225 -100 
Q 3650 -100 3650 25 
L 3650 675 
L 2975 675 
L 2975 -575 
L 2525 -575 
Q 2550 -125 2550 325 
L 2550 2075 
Q 2550 2500 2525 2925 
L 2375 2800 
Q 2200 3000 1950 3100 
Q 2575 3525 3025 4087 
Q 3475 4650 3775 5300 
Q 4075 5150 4325 5100 
L 4225 4975 
Q 4700 4325 5225 3975 
Q 5750 3625 6200 3475 
Q 5975 3275 5825 3025 
Q 5275 3300 4875 3650 
L 4875 3350 
L 3225 3350 
L 3225 3650 
z
M 2225 825 
Q 1975 775 1725 675 
Q 1725 -100 1750 -650 
L 1275 -650 
Q 1300 -100 1300 575 
Q 725 425 475 325 
Q 400 575 250 825 
Q 650 875 1300 1025 
L 1300 1975 
Q 700 1925 400 1800 
L 225 2225 
Q 425 2350 600 2850 
Q 775 3350 875 3825 
Q 625 3825 350 3800 
L 350 4250 
Q 675 4225 950 4225 
Q 1050 4700 1075 5175 
Q 1400 5075 1675 5025 
Q 1525 4850 1400 4225 
Q 1925 4225 2300 4250 
L 2300 3800 
Q 1850 3825 1325 3825 
Q 1075 2900 825 2325 
L 1300 2375 
Q 1300 2700 1275 3125 
L 1750 3125 
Q 1725 2900 1725 2425 
L 2150 2475 
L 2150 2075 
L 1725 2025 
L 1725 1125 
L 2225 1250 
L 2225 825 
z
M 5775 2925 
Q 5750 2525 5750 2150 
L 5750 -100 
Q 5750 -375 5625 -475 
Q 5500 -575 5000 -675 
Q 4950 -450 4750 -175 
Q 5300 -200 5325 0 
L 5325 2100 
Q 5325 2500 5300 2925 
L 5775 2925 
z
M 4975 2700 
Q 4950 2400 4950 2000 
L 4950 900 
Q 4950 425 4975 125 
L 4475 125 
Q 4500 500 4500 875 
L 4500 2000 
Q 4500 2350 4475 2700 
L 4975 2700 
z
M 4750 3750 
Q 4450 4025 3975 4675 
Q 3575 4075 3300 3750 
L 4750 3750 
z
M 3650 2000 
L 3650 2575 
L 2975 2575 
L 2975 2000 
L 3650 2000 
z
M 3650 1075 
L 3650 1625 
L 2975 1625 
L 2975 1075 
L 3650 1075 
z
" transform="scale(0.015625)"/>
       <path id="SimHei-51fa" d="M 1475 4550 
Q 1450 4225 1450 3950 
L 1450 2950 
L 2925 2950 
L 2925 4425 
Q 2925 4775 2900 5125 
L 3425 5125 
Q 3400 4825 3400 4425 
L 3400 2950 
L 4900 2950 
L 4900 3875 
Q 4900 4275 4875 4525 
L 5400 4525 
Q 5375 4275 5375 3850 
L 5375 3175 
Q 5375 2775 5400 2525 
L 3400 2525 
L 3400 225 
L 5125 225 
L 5125 1275 
Q 5125 1650 5100 1925 
L 5625 1925 
Q 5600 1650 5600 1300 
L 5600 175 
Q 5600 -325 5625 -650 
L 5125 -650 
L 5125 -200 
L 675 -200 
Q 700 100 700 525 
L 700 1275 
Q 700 1700 675 1950 
L 1200 1950 
Q 1175 1700 1175 1275 
L 1175 225 
L 2925 225 
L 2925 2525 
L 950 2525 
Q 975 2775 975 3150 
L 975 3925 
Q 975 4250 950 4550 
L 1475 4550 
z
" transform="scale(0.015625)"/>
      </defs>
      <use xlink:href="#SimHei-6a21"/>
      <use xlink:href="#SimHei-578b" x="100"/>
      <use xlink:href="#SimHei-8f93" x="200"/>
      <use xlink:href="#SimHei-51fa" x="300"/>
     </g>
    </g>
   </g>
  </g>
  <g id="axes_2">
   <g id="patch_8">
    <path d="M 231.616447 139.19749 
L 385.39992 139.19749 
L 385.39992 10.8 
L 231.616447 10.8 
z
" style="fill: #ffffff"/>
   </g>
   <g id="matplotlib.axis_3">
    <g id="xtick_7">
     <g id="line2d_17">
      <g>
       <use xlink:href="#me2b2ed2f86" x="238.606605" y="139.19749" style="stroke: #000000; stroke-width: 0.8"/>
      </g>
     </g>
     <g id="text_17">
      <!-- 0 -->
      <g transform="translate(236.856605 147.50999)scale(0.07 -0.07)">
       <use xlink:href="#SimHei-30"/>
      </g>
     </g>
    </g>
    <g id="xtick_8">
     <g id="line2d_18">
      <g>
       <use xlink:href="#me2b2ed2f86" x="266.567236" y="139.19749" style="stroke: #000000; stroke-width: 0.8"/>
      </g>
     </g>
     <g id="text_18">
      <!-- 200 -->
      <g transform="translate(261.317236 147.50999)scale(0.07 -0.07)">
       <use xlink:href="#SimHei-32"/>
       <use xlink:href="#SimHei-30" x="50"/>
       <use xlink:href="#SimHei-30" x="100"/>
      </g>
     </g>
    </g>
    <g id="xtick_9">
     <g id="line2d_19">
      <g>
       <use xlink:href="#me2b2ed2f86" x="294.527868" y="139.19749" style="stroke: #000000; stroke-width: 0.8"/>
      </g>
     </g>
     <g id="text_19">
      <!-- 400 -->
      <g transform="translate(289.277868 147.50999)scale(0.07 -0.07)">
       <use xlink:href="#SimHei-34"/>
       <use xlink:href="#SimHei-30" x="50"/>
       <use xlink:href="#SimHei-30" x="100"/>
      </g>
     </g>
    </g>
    <g id="xtick_10">
     <g id="line2d_20">
      <g>
       <use xlink:href="#me2b2ed2f86" x="322.488499" y="139.19749" style="stroke: #000000; stroke-width: 0.8"/>
      </g>
     </g>
     <g id="text_20">
      <!-- 600 -->
      <g transform="translate(317.238499 147.50999)scale(0.07 -0.07)">
       <use xlink:href="#SimHei-36"/>
       <use xlink:href="#SimHei-30" x="50"/>
       <use xlink:href="#SimHei-30" x="100"/>
      </g>
     </g>
    </g>
    <g id="xtick_11">
     <g id="line2d_21">
      <g>
       <use xlink:href="#me2b2ed2f86" x="350.44913" y="139.19749" style="stroke: #000000; stroke-width: 0.8"/>
      </g>
     </g>
     <g id="text_21">
      <!-- 800 -->
      <g transform="translate(345.19913 147.50999)scale(0.07 -0.07)">
       <use xlink:href="#SimHei-38"/>
       <use xlink:href="#SimHei-30" x="50"/>
       <use xlink:href="#SimHei-30" x="100"/>
      </g>
     </g>
    </g>
    <g id="xtick_12">
     <g id="line2d_22">
      <g>
       <use xlink:href="#me2b2ed2f86" x="378.409762" y="139.19749" style="stroke: #000000; stroke-width: 0.8"/>
      </g>
     </g>
     <g id="text_22">
      <!-- 1000 -->
      <g transform="translate(371.409762 147.50999)scale(0.07 -0.07)">
       <use xlink:href="#SimHei-31"/>
       <use xlink:href="#SimHei-30" x="50"/>
       <use xlink:href="#SimHei-30" x="100"/>
       <use xlink:href="#SimHei-30" x="150"/>
      </g>
     </g>
    </g>
    <g id="text_23">
     <!-- 时间 -->
     <g transform="translate(301.508183 157.990459)scale(0.07 -0.07)">
      <use xlink:href="#SimHei-65f6"/>
      <use xlink:href="#SimHei-95f4" x="100"/>
     </g>
    </g>
   </g>
   <g id="matplotlib.axis_4">
    <g id="ytick_7">
     <g id="line2d_23">
      <g>
       <use xlink:href="#m2a6d948148" x="231.616447" y="127.678997" style="stroke: #000000; stroke-width: 0.8"/>
      </g>
     </g>
     <g id="text_24">
      <!-- -1.0 -->
      <g transform="translate(214.116447 130.085247)scale(0.07 -0.07)">
       <use xlink:href="#SimHei-2d"/>
       <use xlink:href="#SimHei-31" x="50"/>
       <use xlink:href="#SimHei-2e" x="100"/>
       <use xlink:href="#SimHei-30" x="150"/>
      </g>
     </g>
    </g>
    <g id="ytick_8">
     <g id="line2d_24">
      <g>
       <use xlink:href="#m2a6d948148" x="231.616447" y="111.956355" style="stroke: #000000; stroke-width: 0.8"/>
      </g>
     </g>
     <g id="text_25">
      <!-- -0.5 -->
      <g transform="translate(214.116447 114.362605)scale(0.07 -0.07)">
       <use xlink:href="#SimHei-2d"/>
       <use xlink:href="#SimHei-30" x="50"/>
       <use xlink:href="#SimHei-2e" x="100"/>
       <use xlink:href="#SimHei-35" x="150"/>
      </g>
     </g>
    </g>
    <g id="ytick_9">
     <g id="line2d_25">
      <g>
       <use xlink:href="#m2a6d948148" x="231.616447" y="96.233714" style="stroke: #000000; stroke-width: 0.8"/>
      </g>
     </g>
     <g id="text_26">
      <!-- 0.0 -->
      <g transform="translate(217.616447 98.639964)scale(0.07 -0.07)">
       <use xlink:href="#SimHei-30"/>
       <use xlink:href="#SimHei-2e" x="50"/>
       <use xlink:href="#SimHei-30" x="100"/>
      </g>
     </g>
    </g>
    <g id="ytick_10">
     <g id="line2d_26">
      <g>
       <use xlink:href="#m2a6d948148" x="231.616447" y="80.511072" style="stroke: #000000; stroke-width: 0.8"/>
      </g>
     </g>
     <g id="text_27">
      <!-- 0.5 -->
      <g transform="translate(217.616447 82.917322)scale(0.07 -0.07)">
       <use xlink:href="#SimHei-30"/>
       <use xlink:href="#SimHei-2e" x="50"/>
       <use xlink:href="#SimHei-35" x="100"/>
      </g>
     </g>
    </g>
    <g id="ytick_11">
     <g id="line2d_27">
      <g>
       <use xlink:href="#m2a6d948148" x="231.616447" y="64.78843" style="stroke: #000000; stroke-width: 0.8"/>
      </g>
     </g>
     <g id="text_28">
      <!-- 1.0 -->
      <g transform="translate(217.616447 67.19468)scale(0.07 -0.07)">
       <use xlink:href="#SimHei-31"/>
       <use xlink:href="#SimHei-2e" x="50"/>
       <use xlink:href="#SimHei-30" x="100"/>
      </g>
     </g>
    </g>
    <g id="ytick_12">
     <g id="line2d_28">
      <g>
       <use xlink:href="#m2a6d948148" x="231.616447" y="49.065789" style="stroke: #000000; stroke-width: 0.8"/>
      </g>
     </g>
     <g id="text_29">
      <!-- 1.5 -->
      <g transform="translate(217.616447 51.472039)scale(0.07 -0.07)">
       <use xlink:href="#SimHei-31"/>
       <use xlink:href="#SimHei-2e" x="50"/>
       <use xlink:href="#SimHei-35" x="100"/>
      </g>
     </g>
    </g>
    <g id="ytick_13">
     <g id="line2d_29">
      <g>
       <use xlink:href="#m2a6d948148" x="231.616447" y="33.343147" style="stroke: #000000; stroke-width: 0.8"/>
      </g>
     </g>
     <g id="text_30">
      <!-- 2.0 -->
      <g transform="translate(217.616447 35.749397)scale(0.07 -0.07)">
       <use xlink:href="#SimHei-32"/>
       <use xlink:href="#SimHei-2e" x="50"/>
       <use xlink:href="#SimHei-30" x="100"/>
      </g>
     </g>
    </g>
    <g id="ytick_14">
     <g id="line2d_30">
      <g>
       <use xlink:href="#m2a6d948148" x="231.616447" y="17.620505" style="stroke: #000000; stroke-width: 0.8"/>
      </g>
     </g>
     <g id="text_31">
      <!-- 2.5 -->
      <g transform="translate(217.616447 20.026755)scale(0.07 -0.07)">
       <use xlink:href="#SimHei-32"/>
       <use xlink:href="#SimHei-2e" x="50"/>
       <use xlink:href="#SimHei-35" x="100"/>
      </g>
     </g>
    </g>
    <g id="text_32">
     <!-- 值 -->
     <g transform="translate(209.241447 78.498745)rotate(-90)scale(0.07 -0.07)">
      <use xlink:href="#SimHei-503c"/>
     </g>
    </g>
   </g>
   <g id="line2d_31">
    <path d="M 238.606605 111.285154 
L 240.144439 114.036738 
L 240.843455 114.422218 
L 241.96188 115.187106 
L 242.38129 115.469452 
L 243.359912 116.018466 
L 244.338534 116.697887 
L 246.016172 117.664624 
L 247.2744 118.228324 
L 249.651054 119.905069 
L 250.070464 119.89734 
L 251.328692 119.770797 
L 254.544165 120.029072 
L 257.060621 120.245497 
L 257.480031 120.337699 
L 258.878062 120.598624 
L 261.114913 121.175133 
L 264.050779 121.323208 
L 267.965268 121.842518 
L 268.244874 121.94797 
L 273.837 122.543361 
L 280.687355 123.014307 
L 281.526174 123.151892 
L 283.343615 123.996061 
L 285.161056 124.042659 
L 285.580465 124.249257 
L 287.1183 124.646442 
L 291.032789 125.352254 
L 294.108458 126.259474 
L 294.248261 16.63625 
L 295.50649 20.879733 
L 295.786096 22.374836 
L 298.022946 29.607419 
L 299.281175 33.156354 
L 300.539403 37.106118 
L 301.098616 38.702808 
L 301.797632 64.743422 
L 302.077238 66.821548 
L 302.356844 67.071099 
L 302.496647 67.12631 
L 302.636451 67.039077 
L 303.195663 66.091664 
L 303.47527 67.124102 
L 303.754876 67.10533 
L 304.733498 66.484763 
L 305.432514 66.512368 
L 305.991726 66.696772 
L 306.411136 67.073308 
L 307.389758 68.092495 
L 308.647986 69.186768 
L 311.723656 72.273149 
L 312.003262 73.769576 
L 312.422672 75.684168 
L 314.10031 80.16561 
L 314.799325 81.615218 
L 315.358538 82.213369 
L 316.057554 82.589353 
L 316.896373 82.46535 
L 317.595388 81.578669 
L 317.874995 83.797802 
L 318.294404 83.312391 
L 318.99342 82.546731 
L 319.273026 82.399429 
L 319.972042 82.382424 
L 320.251648 82.453425 
L 321.090467 83.037553 
L 321.929286 83.29649 
L 322.208893 82.878657 
L 322.768105 82.509961 
L 323.467121 82.33152 
L 324.30594 82.363542 
L 325.703972 82.696131 
L 328.639838 83.50364 
L 329.478657 83.437056 
L 330.457279 83.528927 
L 331.156295 84.006167 
L 331.995114 84.557389 
L 332.554326 84.943421 
L 333.253342 85.572049 
L 333.532948 86.132767 
L 334.791177 88.01622 
L 335.070783 88.778347 
L 336.189208 91.112098 
L 338.705665 96.505507 
L 343.319169 104.226925 
L 345.55602 107.014065 
L 347.653067 109.29923 
L 347.932674 109.877285 
L 349.051099 110.918777 
L 349.330705 111.408163 
L 350.728737 112.941029 
L 354.084012 114.046345 
L 354.223816 113.992459 
L 354.503422 114.044026 
L 354.922831 114.139209 
L 355.621847 114.13954 
L 357.579091 114.034971 
L 361.633383 114.015427 
L 362.472202 114.462964 
L 364.14984 115.528086 
L 366.8061 116.867273 
L 367.365312 117.235307 
L 369.741966 118.705896 
L 371.978817 120.163896 
L 373.376848 121.641552 
L 375.054486 123.465267 
L 375.334092 124.057676 
L 377.850549 126.487604 
L 378.409762 126.94287 
L 378.409762 126.94287 
" clip-path="url(#pe8152b0101)" style="fill: none; stroke: #ff0000; stroke-width: 1.5; stroke-linecap: square"/>
   </g>
   <g id="line2d_32">
    <path d="M 238.606605 111.285154 
L 238.746408 110.937289 
L 239.864833 112.206842 
L 240.563849 112.902641 
L 241.402668 113.924336 
L 242.38129 114.44836 
L 245.03755 114.781042 
L 245.456959 114.586929 
L 245.736566 114.10983 
L 246.016172 113.163365 
L 246.575385 110.46391 
L 246.994794 109.955019 
L 247.973416 108.456335 
L 249.371448 107.675529 
L 249.790857 107.665968 
L 250.070464 107.881324 
L 250.489873 108.684646 
L 251.608298 111.409652 
L 252.726724 113.829085 
L 253.705346 115.496872 
L 254.823771 117.307664 
L 255.942196 119.833844 
L 256.501409 120.314186 
L 257.200425 120.578115 
L 257.619834 120.424547 
L 260.276094 118.537476 
L 261.813929 117.793201 
L 264.050779 117.350701 
L 266.986646 117.355627 
L 268.664283 117.31503 
L 269.782709 117.432799 
L 270.621528 117.840137 
L 271.60015 118.559649 
L 272.998181 119.954851 
L 277.332079 124.516449 
L 278.590308 125.411671 
L 279.988339 126.140127 
L 281.526174 126.681656 
L 283.343615 127.278309 
L 284.46204 127.980555 
L 284.88145 128.19501 
L 285.300859 128.264168 
L 285.580465 128.731427 
L 285.999875 130.148821 
L 286.559088 132.492401 
L 286.978497 132.747742 
L 287.817316 133.361241 
L 288.376529 133.238696 
L 289.215348 132.849471 
L 290.473576 131.895512 
L 292.151214 130.329817 
L 293.129836 129.453788 
L 294.947277 127.966115 
L 295.366686 127.228502 
L 295.925899 126.085521 
L 299.700584 121.478488 
L 301.098616 120.265259 
L 301.657829 119.730672 
L 302.356844 118.685762 
L 302.776254 117.618435 
L 303.05586 116.247838 
L 303.47527 113.125812 
L 303.894679 112.413951 
L 304.453892 110.720475 
L 304.873301 109.665002 
L 305.432514 108.74332 
L 306.13153 107.58242 
L 307.948971 105.575261 
L 309.207199 104.552872 
L 310.745034 103.557657 
L 312.562475 102.632389 
L 314.659522 101.811963 
L 317.036176 101.12504 
L 319.273026 100.687893 
L 322.488499 100.611862 
L 323.187515 100.976152 
L 323.606924 101.097175 
L 326.682594 101.794889 
L 328.080625 101.990528 
L 328.360232 102.322798 
L 328.779641 103.289262 
L 329.338854 104.523743 
L 330.457279 105.90182 
L 331.016492 106.408923 
L 332.833933 108.514598 
L 334.231964 109.649035 
L 336.189208 111.272218 
L 336.748421 111.884526 
L 337.58724 112.659344 
L 338.286256 113.314991 
L 338.845468 113.565766 
L 339.125075 113.489236 
L 339.404681 113.206264 
L 339.684287 112.853602 
L 340.383303 113.03829 
L 341.222122 113.220467 
L 342.200744 113.454202 
L 342.89976 113.627161 
L 343.878382 114.121739 
L 345.835626 115.17466 
L 346.115232 115.157743 
L 346.534642 114.836415 
L 346.954051 114.298469 
L 347.653067 114.218764 
L 348.491886 114.112698 
L 350.029721 114.221076 
L 350.728737 114.39663 
L 351.986965 114.981328 
L 353.804406 115.624489 
L 354.363619 115.593544 
L 356.18106 114.980046 
L 362.472202 111.616925 
L 363.870233 111.429307 
L 366.107084 111.363623 
L 368.623541 111.401514 
L 370.860391 111.661286 
L 372.677832 111.756398 
L 374.35547 111.740988 
L 376.033108 112.115017 
L 377.151533 112.570907 
L 378.409762 113.270143 
L 378.409762 113.270143 
" clip-path="url(#pe8152b0101)" style="fill: none; stroke-dasharray: 5.55,2.4; stroke-dashoffset: 0; stroke: #008000; stroke-width: 1.5"/>
   </g>
   <g id="patch_9">
    <path d="M 231.616447 139.19749 
L 231.616447 10.8 
" style="fill: none; stroke: #000000; stroke-linejoin: miter; stroke-linecap: square"/>
   </g>
   <g id="patch_10">
    <path d="M 385.39992 139.19749 
L 385.39992 10.8 
" style="fill: none; stroke: #000000; stroke-linejoin: miter; stroke-linecap: square"/>
   </g>
   <g id="patch_11">
    <path d="M 231.616447 139.19749 
L 385.39992 139.19749 
" style="fill: none; stroke: #000000; stroke-linejoin: miter; stroke-linecap: square"/>
   </g>
   <g id="patch_12">
    <path d="M 231.616447 10.8 
L 385.39992 10.8 
" style="fill: none; stroke: #000000; stroke-linejoin: miter; stroke-linecap: square"/>
   </g>
   <g id="legend_2">
    <g id="patch_13">
     <path d="M 337.99992 32.75625 
L 381.19992 32.75625 
Q 382.39992 32.75625 382.39992 31.55625 
L 382.39992 15 
Q 382.39992 13.8 381.19992 13.8 
L 337.99992 13.8 
Q 336.79992 13.8 336.79992 15 
L 336.79992 31.55625 
Q 336.79992 32.75625 337.99992 32.75625 
z
" style="fill: #ffffff; opacity: 0.8; stroke: #cccccc; stroke-linejoin: miter"/>
    </g>
    <g id="line2d_33">
     <path d="M 339.19992 18.904688 
L 345.19992 18.904688 
L 351.19992 18.904688 
" style="fill: none; stroke: #ff0000; stroke-width: 1.5; stroke-linecap: square"/>
    </g>
    <g id="text_33">
     <!-- 真实值 -->
     <g transform="translate(355.99992 21.004688)scale(0.06 -0.06)">
      <use xlink:href="#SimHei-771f"/>
      <use xlink:href="#SimHei-5b9e" x="100"/>
      <use xlink:href="#SimHei-503c" x="200"/>
     </g>
    </g>
    <g id="line2d_34">
     <path d="M 339.19992 27.50625 
L 345.19992 27.50625 
L 351.19992 27.50625 
" style="fill: none; stroke-dasharray: 5.55,2.4; stroke-dashoffset: 0; stroke: #008000; stroke-width: 1.5"/>
    </g>
    <g id="text_34">
     <!-- 模型输出 -->
     <g transform="translate(355.99992 29.60625)scale(0.06 -0.06)">
      <use xlink:href="#SimHei-6a21"/>
      <use xlink:href="#SimHei-578b" x="100"/>
      <use xlink:href="#SimHei-8f93" x="200"/>
      <use xlink:href="#SimHei-51fa" x="300"/>
     </g>
    </g>
   </g>
  </g>
 </g>
 <defs>
  <clipPath id="p0fca51a8fe">
   <rect x="38.59125" y="10.8" width="153.783473" height="128.39749"/>
  </clipPath>
  <clipPath id="pe8152b0101">
   <rect x="231.616447" y="10.8" width="153.783473" height="128.39749"/>
  </clipPath>
 </defs>
</svg>
