<?xml version="1.0" encoding="utf-8" standalone="no"?>
<!DOCTYPE svg PUBLIC "-//W3C//DTD SVG 1.1//EN"
  "http://www.w3.org/Graphics/SVG/1.1/DTD/svg11.dtd">
<svg xmlns:xlink="http://www.w3.org/1999/xlink" width="396.850394pt" height="170.07874pt" viewBox="0 0 396.850394 170.07874" xmlns="http://www.w3.org/2000/svg" version="1.1">
 <metadata>
  <rdf:RDF xmlns:dc="http://purl.org/dc/elements/1.1/" xmlns:cc="http://creativecommons.org/ns#" xmlns:rdf="http://www.w3.org/1999/02/22-rdf-syntax-ns#">
   <cc:Work>
    <dc:type rdf:resource="http://purl.org/dc/dcmitype/StillImage"/>
    <dc:date>2023-02-28T17:16:28.622728</dc:date>
    <dc:format>image/svg+xml</dc:format>
    <dc:creator>
     <cc:Agent>
      <dc:title>Matplotlib v3.5.2, https://matplotlib.org/</dc:title>
     </cc:Agent>
    </dc:creator>
   </cc:Work>
  </rdf:RDF>
 </metadata>
 <defs>
  <style type="text/css">*{stroke-linejoin: round; stroke-linecap: butt}</style>
 </defs>
 <g id="figure_1">
  <g id="patch_1">
   <path d="M 0 170.07874 
L 396.850394 170.07874 
L 396.850394 0 
L 0 0 
L 0 170.07874 
z
" style="fill: none"/>
  </g>
  <g id="axes_1">
   <g id="patch_2">
    <path d="M 38.59125 139.19749 
L 192.374723 139.19749 
L 192.374723 10.8 
L 38.59125 10.8 
z
" style="fill: #ffffff"/>
   </g>
   <g id="matplotlib.axis_1">
    <g id="xtick_1">
     <g id="line2d_1">
      <defs>
       <path id="m48729c0421" d="M 0 0 
L 0 -3.5 
" style="stroke: #000000; stroke-width: 0.8"/>
      </defs>
      <g>
       <use xlink:href="#m48729c0421" x="45.581408" y="139.19749" style="stroke: #000000; stroke-width: 0.8"/>
      </g>
     </g>
     <g id="text_1">
      <!-- 0 -->
      <g transform="translate(43.831408 147.50999)scale(0.07 -0.07)">
       <defs>
        <path id="SimHei-30" d="M 225 2537 
Q 250 3200 412 3587 
Q 575 3975 875 4225 
Q 1175 4475 1612 4475 
Q 2050 4475 2375 4112 
Q 2700 3750 2800 3200 
Q 2900 2650 2862 1937 
Q 2825 1225 2612 775 
Q 2400 325 1975 150 
Q 1550 -25 1125 187 
Q 700 400 525 750 
Q 350 1100 275 1487 
Q 200 1875 225 2537 
z
M 750 2687 
Q 675 2000 800 1462 
Q 925 925 1212 700 
Q 1500 475 1800 612 
Q 2100 750 2237 1162 
Q 2375 1575 2375 2062 
Q 2375 2550 2337 2950 
Q 2300 3350 2112 3675 
Q 1925 4000 1612 4012 
Q 1300 4025 1062 3700 
Q 825 3375 750 2687 
z
" transform="scale(0.015625)"/>
       </defs>
       <use xlink:href="#SimHei-30"/>
      </g>
     </g>
    </g>
    <g id="xtick_2">
     <g id="line2d_2">
      <g>
       <use xlink:href="#m48729c0421" x="73.542039" y="139.19749" style="stroke: #000000; stroke-width: 0.8"/>
      </g>
     </g>
     <g id="text_2">
      <!-- 200 -->
      <g transform="translate(68.292039 147.50999)scale(0.07 -0.07)">
       <defs>
        <path id="SimHei-32" d="M 300 250 
Q 325 625 650 925 
Q 975 1225 1475 1862 
Q 1975 2500 2125 2850 
Q 2275 3200 2237 3450 
Q 2200 3700 2000 3862 
Q 1800 4025 1537 4000 
Q 1275 3975 1037 3800 
Q 800 3625 675 3275 
L 200 3350 
Q 400 3925 712 4187 
Q 1025 4450 1450 4475 
Q 1700 4500 1900 4462 
Q 2100 4425 2312 4287 
Q 2525 4150 2662 3875 
Q 2800 3600 2762 3212 
Q 2725 2825 2375 2287 
Q 2025 1750 1025 600 
L 2825 600 
L 2825 150 
L 300 150 
L 300 250 
z
" transform="scale(0.015625)"/>
       </defs>
       <use xlink:href="#SimHei-32"/>
       <use xlink:href="#SimHei-30" x="50"/>
       <use xlink:href="#SimHei-30" x="100"/>
      </g>
     </g>
    </g>
    <g id="xtick_3">
     <g id="line2d_3">
      <g>
       <use xlink:href="#m48729c0421" x="101.502671" y="139.19749" style="stroke: #000000; stroke-width: 0.8"/>
      </g>
     </g>
     <g id="text_3">
      <!-- 400 -->
      <g transform="translate(96.252671 147.50999)scale(0.07 -0.07)">
       <defs>
        <path id="SimHei-34" d="M 2000 1100 
L 75 1100 
L 75 1525 
L 2100 4450 
L 2475 4450 
L 2475 1525 
L 3075 1525 
L 3075 1100 
L 2475 1100 
L 2475 150 
L 2000 150 
L 2000 1100 
z
M 2000 1525 
L 2000 3500 
L 600 1525 
L 2000 1525 
z
" transform="scale(0.015625)"/>
       </defs>
       <use xlink:href="#SimHei-34"/>
       <use xlink:href="#SimHei-30" x="50"/>
       <use xlink:href="#SimHei-30" x="100"/>
      </g>
     </g>
    </g>
    <g id="xtick_4">
     <g id="line2d_4">
      <g>
       <use xlink:href="#m48729c0421" x="129.463302" y="139.19749" style="stroke: #000000; stroke-width: 0.8"/>
      </g>
     </g>
     <g id="text_4">
      <!-- 600 -->
      <g transform="translate(124.213302 147.50999)scale(0.07 -0.07)">
       <defs>
        <path id="SimHei-36" d="M 250 1612 
Q 275 1975 387 2225 
Q 500 2475 725 2850 
L 1750 4450 
L 2325 4450 
L 1275 2800 
Q 1950 2975 2350 2750 
Q 2750 2525 2887 2237 
Q 3025 1950 3037 1612 
Q 3050 1275 2937 950 
Q 2825 625 2537 362 
Q 2250 100 1737 75 
Q 1225 50 862 262 
Q 500 475 362 862 
Q 225 1250 250 1612 
z
M 1025 787 
Q 1250 550 1625 525 
Q 2000 500 2250 775 
Q 2500 1050 2500 1575 
Q 2500 2100 2187 2300 
Q 1875 2500 1487 2450 
Q 1100 2400 925 2075 
Q 750 1750 775 1387 
Q 800 1025 1025 787 
z
" transform="scale(0.015625)"/>
       </defs>
       <use xlink:href="#SimHei-36"/>
       <use xlink:href="#SimHei-30" x="50"/>
       <use xlink:href="#SimHei-30" x="100"/>
      </g>
     </g>
    </g>
    <g id="xtick_5">
     <g id="line2d_5">
      <g>
       <use xlink:href="#m48729c0421" x="157.423934" y="139.19749" style="stroke: #000000; stroke-width: 0.8"/>
      </g>
     </g>
     <g id="text_5">
      <!-- 800 -->
      <g transform="translate(152.173934 147.50999)scale(0.07 -0.07)">
       <defs>
        <path id="SimHei-38" d="M 175 1375 
Q 175 1675 325 1962 
Q 475 2250 825 2425 
Q 525 2600 425 2812 
Q 325 3025 312 3300 
Q 300 3575 387 3775 
Q 475 3975 650 4150 
Q 825 4325 1037 4387 
Q 1250 4450 1500 4450 
Q 1750 4450 1950 4400 
Q 2150 4350 2375 4187 
Q 2600 4025 2700 3725 
Q 2800 3425 2687 3025 
Q 2575 2625 2100 2400 
Q 2525 2275 2700 2012 
Q 2875 1750 2875 1375 
Q 2875 1000 2762 775 
Q 2650 550 2512 400 
Q 2375 250 2137 162 
Q 1900 75 1537 75 
Q 1175 75 912 162 
Q 650 250 475 425 
Q 300 600 237 837 
Q 175 1075 175 1375 
z
M 687 1400 
Q 675 1100 787 875 
Q 900 650 1200 587 
Q 1500 525 1825 600 
Q 2150 675 2275 950 
Q 2400 1225 2362 1500 
Q 2325 1775 2050 1962 
Q 1775 2150 1450 2125 
Q 1125 2100 912 1900 
Q 700 1700 687 1400 
z
M 775 3350 
Q 775 3100 950 2875 
Q 1125 2650 1500 2650 
Q 1875 2650 2062 2875 
Q 2250 3100 2237 3412 
Q 2225 3725 2012 3875 
Q 1800 4025 1437 4000 
Q 1075 3975 925 3787 
Q 775 3600 775 3350 
z
" transform="scale(0.015625)"/>
       </defs>
       <use xlink:href="#SimHei-38"/>
       <use xlink:href="#SimHei-30" x="50"/>
       <use xlink:href="#SimHei-30" x="100"/>
      </g>
     </g>
    </g>
    <g id="xtick_6">
     <g id="line2d_6">
      <g>
       <use xlink:href="#m48729c0421" x="185.384565" y="139.19749" style="stroke: #000000; stroke-width: 0.8"/>
      </g>
     </g>
     <g id="text_6">
      <!-- 1000 -->
      <g transform="translate(178.384565 147.50999)scale(0.07 -0.07)">
       <defs>
        <path id="SimHei-31" d="M 1400 3600 
Q 1075 3275 575 2975 
L 575 3450 
Q 1200 3875 1600 4450 
L 1900 4450 
L 1900 150 
L 1400 150 
L 1400 3600 
z
" transform="scale(0.015625)"/>
       </defs>
       <use xlink:href="#SimHei-31"/>
       <use xlink:href="#SimHei-30" x="50"/>
       <use xlink:href="#SimHei-30" x="100"/>
       <use xlink:href="#SimHei-30" x="150"/>
      </g>
     </g>
    </g>
    <g id="text_7">
     <!-- 时间 -->
     <g transform="translate(108.482986 157.990459)scale(0.07 -0.07)">
      <defs>
       <path id="SimHei-65f6" d="M 2525 4575 
Q 2500 3675 2500 2400 
Q 2500 1125 2525 400 
L 2000 400 
L 2000 875 
L 1000 875 
L 1000 50 
L 475 50 
Q 500 1200 500 2350 
Q 500 3525 475 4575 
L 2525 4575 
z
M 4875 3825 
Q 4875 4575 4850 5225 
L 5400 5225 
Q 5375 4575 5375 3825 
Q 5750 3825 6175 3850 
L 6175 3375 
Q 5750 3400 5375 3400 
L 5375 50 
Q 5375 -325 5075 -425 
Q 4775 -525 4300 -575 
Q 4300 -275 4025 0 
Q 4500 -50 4687 -25 
Q 4875 0 4875 300 
L 4875 3400 
Q 3625 3400 2775 3375 
L 2775 3850 
Q 3575 3825 4875 3825 
z
M 2000 1300 
L 2000 2550 
L 1000 2550 
L 1000 1300 
L 2000 1300 
z
M 2000 2975 
L 2000 4150 
L 1000 4150 
L 1000 2975 
L 2000 2975 
z
M 3550 2725 
Q 3875 2200 4175 1600 
Q 3925 1525 3650 1375 
Q 3450 1975 3075 2500 
Q 3300 2600 3550 2725 
z
" transform="scale(0.015625)"/>
       <path id="SimHei-95f4" d="M 4450 3550 
Q 4425 3075 4425 2725 
L 4425 1400 
Q 4425 1075 4450 625 
L 1925 625 
Q 1950 1075 1950 1425 
L 1950 2725 
Q 1950 3075 1925 3550 
L 4450 3550 
z
M 5800 4875 
Q 5775 4400 5775 3925 
L 5775 250 
Q 5800 -325 5462 -450 
Q 5125 -575 4725 -625 
Q 4700 -325 4525 -25 
Q 5000 -50 5137 25 
Q 5275 100 5275 350 
L 5275 4450 
L 3775 4450 
Q 3175 4450 2650 4425 
L 2650 4900 
Q 3175 4875 3775 4875 
L 5800 4875 
z
M 550 -525 
Q 600 -25 600 525 
L 600 3150 
Q 600 3675 550 4025 
L 1125 4025 
Q 1100 3650 1100 3300 
L 1100 500 
Q 1100 0 1125 -525 
L 550 -525 
z
M 3950 1025 
L 3950 1950 
L 2425 1950 
L 2425 1025 
L 3950 1025 
z
M 3950 2350 
L 3950 3150 
L 2425 3150 
L 2425 2350 
L 3950 2350 
z
M 1525 5300 
Q 1750 5000 2225 4350 
Q 1950 4225 1700 4075 
Q 1450 4575 1075 5025 
Q 1350 5225 1525 5300 
z
" transform="scale(0.015625)"/>
      </defs>
      <use xlink:href="#SimHei-65f6"/>
      <use xlink:href="#SimHei-95f4" x="100"/>
     </g>
    </g>
   </g>
   <g id="matplotlib.axis_2">
    <g id="ytick_1">
     <g id="line2d_7">
      <defs>
       <path id="mc6f90178dd" d="M 0 0 
L 3.5 0 
" style="stroke: #000000; stroke-width: 0.8"/>
      </defs>
      <g>
       <use xlink:href="#mc6f90178dd" x="38.59125" y="121.738758" style="stroke: #000000; stroke-width: 0.8"/>
      </g>
     </g>
     <g id="text_8">
      <!-- -1.0 -->
      <g transform="translate(21.09125 124.145008)scale(0.07 -0.07)">
       <defs>
        <path id="SimHei-2d" d="M 2975 2125 
L 125 2125 
L 125 2525 
L 2975 2525 
L 2975 2125 
z
" transform="scale(0.015625)"/>
        <path id="SimHei-2e" d="M 1075 125 
L 500 125 
L 500 675 
L 1075 675 
L 1075 125 
z
" transform="scale(0.015625)"/>
       </defs>
       <use xlink:href="#SimHei-2d"/>
       <use xlink:href="#SimHei-31" x="50"/>
       <use xlink:href="#SimHei-2e" x="100"/>
       <use xlink:href="#SimHei-30" x="150"/>
      </g>
     </g>
    </g>
    <g id="ytick_2">
     <g id="line2d_8">
      <g>
       <use xlink:href="#mc6f90178dd" x="38.59125" y="102.776191" style="stroke: #000000; stroke-width: 0.8"/>
      </g>
     </g>
     <g id="text_9">
      <!-- -0.5 -->
      <g transform="translate(21.09125 105.182441)scale(0.07 -0.07)">
       <defs>
        <path id="SimHei-35" d="M 550 1325 
Q 725 650 1150 575 
Q 1575 500 1837 662 
Q 2100 825 2212 1087 
Q 2325 1350 2312 1675 
Q 2300 2000 2137 2225 
Q 1975 2450 1725 2525 
Q 1475 2600 1162 2525 
Q 850 2450 650 2175 
L 225 2225 
Q 275 2375 700 4375 
L 2675 4375 
L 2675 3925 
L 1075 3925 
Q 950 3250 825 2850 
Q 1200 3025 1525 3012 
Q 1850 3000 2150 2862 
Q 2450 2725 2587 2487 
Q 2725 2250 2787 2012 
Q 2850 1775 2837 1500 
Q 2825 1225 2725 937 
Q 2625 650 2425 462 
Q 2225 275 1937 162 
Q 1650 50 1275 75 
Q 900 100 562 350 
Q 225 600 100 1200 
L 550 1325 
z
" transform="scale(0.015625)"/>
       </defs>
       <use xlink:href="#SimHei-2d"/>
       <use xlink:href="#SimHei-30" x="50"/>
       <use xlink:href="#SimHei-2e" x="100"/>
       <use xlink:href="#SimHei-35" x="150"/>
      </g>
     </g>
    </g>
    <g id="ytick_3">
     <g id="line2d_9">
      <g>
       <use xlink:href="#mc6f90178dd" x="38.59125" y="83.813624" style="stroke: #000000; stroke-width: 0.8"/>
      </g>
     </g>
     <g id="text_10">
      <!-- 0.0 -->
      <g transform="translate(24.59125 86.219874)scale(0.07 -0.07)">
       <use xlink:href="#SimHei-30"/>
       <use xlink:href="#SimHei-2e" x="50"/>
       <use xlink:href="#SimHei-30" x="100"/>
      </g>
     </g>
    </g>
    <g id="ytick_4">
     <g id="line2d_10">
      <g>
       <use xlink:href="#mc6f90178dd" x="38.59125" y="64.851057" style="stroke: #000000; stroke-width: 0.8"/>
      </g>
     </g>
     <g id="text_11">
      <!-- 0.5 -->
      <g transform="translate(24.59125 67.257307)scale(0.07 -0.07)">
       <use xlink:href="#SimHei-30"/>
       <use xlink:href="#SimHei-2e" x="50"/>
       <use xlink:href="#SimHei-35" x="100"/>
      </g>
     </g>
    </g>
    <g id="ytick_5">
     <g id="line2d_11">
      <g>
       <use xlink:href="#mc6f90178dd" x="38.59125" y="45.888491" style="stroke: #000000; stroke-width: 0.8"/>
      </g>
     </g>
     <g id="text_12">
      <!-- 1.0 -->
      <g transform="translate(24.59125 48.294741)scale(0.07 -0.07)">
       <use xlink:href="#SimHei-31"/>
       <use xlink:href="#SimHei-2e" x="50"/>
       <use xlink:href="#SimHei-30" x="100"/>
      </g>
     </g>
    </g>
    <g id="ytick_6">
     <g id="line2d_12">
      <g>
       <use xlink:href="#mc6f90178dd" x="38.59125" y="26.925924" style="stroke: #000000; stroke-width: 0.8"/>
      </g>
     </g>
     <g id="text_13">
      <!-- 1.5 -->
      <g transform="translate(24.59125 29.332174)scale(0.07 -0.07)">
       <use xlink:href="#SimHei-31"/>
       <use xlink:href="#SimHei-2e" x="50"/>
       <use xlink:href="#SimHei-35" x="100"/>
      </g>
     </g>
    </g>
    <g id="text_14">
     <!-- 值 -->
     <g transform="translate(16.21625 78.498745)rotate(-90)scale(0.07 -0.07)">
      <defs>
       <path id="SimHei-503c" d="M 3675 4450 
L 3675 5100 
Q 3975 5075 4350 5050 
Q 4225 4875 4200 4450 
L 5125 4450 
Q 5550 4450 5875 4475 
L 5875 4025 
Q 5525 4050 5125 4050 
L 4175 4050 
L 4125 3500 
L 5400 3500 
Q 5375 3200 5375 2700 
L 5375 150 
Q 5875 150 6100 175 
L 6100 -275 
Q 5775 -250 5200 -250 
L 2850 -250 
Q 2275 -250 1900 -275 
L 1900 175 
Q 2125 150 2600 150 
L 2600 2700 
Q 2600 3175 2575 3500 
L 3600 3500 
L 3650 4050 
L 3200 4050 
Q 2575 4050 2225 4025 
L 2225 4475 
Q 2550 4450 3200 4450 
L 3675 4450 
z
M 2225 4900 
Q 2025 4675 1650 3750 
L 1650 450 
Q 1650 -75 1675 -550 
L 1150 -550 
Q 1175 -125 1175 375 
L 1175 2950 
Q 875 2450 625 2150 
Q 425 2425 250 2575 
Q 500 2825 937 3537 
Q 1375 4250 1625 5150 
Q 1975 4975 2225 4900 
z
M 4925 2650 
L 4925 3150 
L 3075 3150 
L 3075 2650 
L 4925 2650 
z
M 4925 150 
L 4925 625 
L 3075 625 
L 3075 150 
L 4925 150 
z
M 4925 1000 
L 4925 1450 
L 3075 1450 
L 3075 1000 
L 4925 1000 
z
M 4925 1825 
L 4925 2275 
L 3075 2275 
L 3075 1825 
L 4925 1825 
z
" transform="scale(0.015625)"/>
      </defs>
      <use xlink:href="#SimHei-503c"/>
     </g>
    </g>
   </g>
   <g id="line2d_13">
    <path d="M 45.581408 116.452156 
L 46.420227 114.999595 
L 47.119243 113.292967 
L 47.538652 112.212628 
L 48.936684 108.70867 
L 49.495896 106.5656 
L 50.055109 104.024551 
L 50.334715 101.603308 
L 51.732747 94.619596 
L 52.851172 88.533505 
L 54.249204 80.233916 
L 56.206448 73.339791 
L 56.486054 71.61124 
L 57.464676 68.882333 
L 62.357787 56.102553 
L 63.616015 53.598081 
L 63.895621 52.501101 
L 64.035425 52.233672 
L 64.315031 50.950502 
L 67.250897 45.890154 
L 67.949913 44.963822 
L 70.606173 42.041387 
L 72.423614 40.773186 
L 74.940071 39.437589 
L 75.219677 38.813778 
L 76.477906 37.5664 
L 78.01574 35.698374 
L 79.413772 33.73381 
L 79.693378 32.858791 
L 81.930229 29.228381 
L 82.489441 28.271486 
L 82.769048 27.218019 
L 83.887473 25.21275 
L 84.167079 24.48887 
L 87.522355 18.111851 
L 88.361174 16.63625 
L 88.64078 17.305707 
L 90.038812 22.04614 
L 90.318418 22.699009 
L 91.157237 20.688065 
L 91.996056 18.694485 
L 92.135859 18.736636 
L 92.415465 19.454161 
L 95.071725 23.644942 
L 95.211529 23.875047 
L 95.491135 24.925022 
L 97.588182 28.684404 
L 98.706608 30.453118 
L 100.524049 32.872052 
L 101.083261 33.536722 
L 101.223064 57.116872 
L 102.481293 68.279327 
L 102.760899 72.094877 
L 104.857946 89.220473 
L 106.675387 103.018036 
L 107.514206 109.505064 
L 108.073419 113.552563 
L 108.632632 132.785384 
L 108.772435 132.984252 
L 109.471451 132.521181 
L 117.580034 132.736201 
L 118.139246 132.713161 
L 118.558656 132.728779 
L 118.978065 132.722474 
L 119.397475 132.71287 
L 119.956687 132.723347 
L 120.655703 132.662765 
L 121.494522 132.730526 
L 122.752751 132.624252 
L 123.451766 132.681148 
L 124.010979 132.678917 
L 124.430388 132.684737 
L 124.849798 132.785433 
L 124.989601 132.631916 
L 125.269207 132.788973 
L 125.548814 132.428246 
L 127.366255 132.328376 
L 127.925467 132.062329 
L 128.904089 131.243866 
L 129.183696 129.704918 
L 132.119562 121.363373 
L 135.474838 111.753534 
L 136.03405 110.816381 
L 137.292279 109.432793 
L 137.851492 108.962882 
L 138.550507 108.875234 
L 139.668933 108.932858 
L 140.507752 109.241685 
L 141.066964 109.555072 
L 142.464996 110.7525 
L 143.164011 111.3379 
L 144.282437 112.018902 
L 145.540665 112.001101 
L 146.379484 111.185839 
L 146.519287 111.02398 
L 146.798894 110.424223 
L 148.336728 107.959326 
L 152.251217 100.892961 
L 152.950232 99.229891 
L 153.090036 98.843408 
L 153.369642 97.720191 
L 154.62787 94.072514 
L 154.907477 92.23022 
L 156.025902 88.481315 
L 156.305508 86.706975 
L 156.585115 86.186086 
L 157.144327 85.749061 
L 157.70354 85.509886 
L 159.101571 84.803225 
L 160.3598 84.192312 
L 160.779209 84.274333 
L 161.058816 84.496435 
L 161.757831 84.702627 
L 162.037438 84.82544 
L 162.736453 85.142077 
L 163.295666 84.98502 
L 165.812123 84.216322 
L 168.608186 83.404407 
L 169.726611 82.769581 
L 170.705233 82.210519 
L 171.963462 81.559978 
L 173.780903 80.328791 
L 174.200312 79.9669 
L 176.017753 78.518607 
L 178.813817 75.00194 
L 181.60988 69.92673 
L 182.029289 69.096674 
L 182.308895 67.936546 
L 183.986533 64.187932 
L 185.384565 60.588133 
L 185.384565 60.588133 
" clip-path="url(#p52a95a7089)" style="fill: none; stroke: #ff0000; stroke-width: 1.5; stroke-linecap: square"/>
   </g>
   <g id="line2d_14">
    <path d="M 45.581408 116.452156 
L 45.721211 117.101415 
L 46.420227 116.380724 
L 46.979439 115.377404 
L 47.259046 114.89221 
L 47.958062 113.765135 
L 49.076487 111.986524 
L 49.635699 110.979423 
L 50.194912 109.904182 
L 51.173534 108.371499 
L 51.87255 107.126948 
L 52.291959 106.198761 
L 52.711369 106.069959 
L 53.270581 105.993379 
L 53.550188 105.733972 
L 55.647235 103.529625 
L 56.76566 102.324898 
L 57.045267 102.20666 
L 57.324873 102.327168 
L 57.604479 102.739997 
L 57.884086 103.175972 
L 58.862708 104.175318 
L 59.282117 104.224333 
L 59.701527 104.446568 
L 60.400543 104.609393 
L 61.518968 104.659932 
L 61.938377 104.172386 
L 63.196606 101.898563 
L 64.175228 99.099493 
L 66.971291 94.506301 
L 68.788732 92.278452 
L 69.347945 92.057666 
L 69.907157 91.698527 
L 70.606173 91.353358 
L 71.305189 90.910256 
L 74.660465 89.348421 
L 75.77889 89.245544 
L 77.596331 89.197539 
L 78.994362 88.924935 
L 80.392394 88.411264 
L 81.510819 87.808489 
L 82.769048 86.887062 
L 84.306882 85.469058 
L 85.844717 83.710335 
L 87.382552 81.607092 
L 88.920387 79.140574 
L 90.318418 76.500896 
L 92.415465 72.180743 
L 92.555269 72.149434 
L 92.695072 72.279229 
L 92.974678 73.147593 
L 93.254284 74.992614 
L 93.394088 76.340817 
L 93.673694 76.2819 
L 93.9533 76.663273 
L 94.512513 78.234089 
L 94.792119 78.900592 
L 95.211529 79.465346 
L 96.469757 81.544568 
L 97.867789 83.462268 
L 99.405623 85.288485 
L 101.782277 87.393911 
L 102.201686 87.664762 
L 104.158931 89.948114 
L 105.137553 91.098223 
L 108.492829 94.898587 
L 108.772435 95.737281 
L 109.751057 99.458897 
L 109.89086 99.491215 
L 110.030663 99.366218 
L 110.31027 98.600645 
L 110.450073 98.713996 
L 110.869482 99.952344 
L 111.987907 102.267391 
L 113.525742 107.234492 
L 115.20338 113.720997 
L 117.160624 121.072785 
L 118.27905 124.520695 
L 119.257672 126.938012 
L 120.236294 128.812381 
L 121.214916 130.218272 
L 122.193538 131.250119 
L 123.311963 132.086781 
L 124.570192 132.721578 
L 125.82842 133.111562 
L 126.247829 133.06765 
L 127.366255 132.452799 
L 127.785664 132.074303 
L 129.603105 131.615789 
L 130.022515 131.837591 
L 130.721531 132.463193 
L 131.420546 132.74856 
L 132.119562 132.973508 
L 134.076806 133.30575 
L 135.055428 133.322296 
L 135.335035 133.072998 
L 135.754444 132.225287 
L 136.313657 130.695914 
L 136.733066 130.674561 
L 137.152476 130.600647 
L 137.571885 130.333965 
L 138.131098 129.839581 
L 138.550507 129.021686 
L 138.969917 128.227568 
L 139.389326 127.812795 
L 139.948539 127.170027 
L 140.927161 125.961104 
L 141.486374 125.139986 
L 141.905783 124.46383 
L 142.325193 123.998924 
L 142.744602 123.100428 
L 144.701846 117.842859 
L 145.400862 116.373927 
L 145.680468 116.055703 
L 146.099878 115.95809 
L 146.65909 115.991911 
L 147.218303 115.619094 
L 148.196925 115.074954 
L 148.756138 114.578123 
L 149.175547 113.837913 
L 149.874563 112.375353 
L 150.293973 111.735958 
L 150.573579 111.622182 
L 150.992988 111.063893 
L 151.412398 110.887049 
L 151.831807 110.982101 
L 152.39102 110.607292 
L 152.810429 110.553329 
L 153.928855 110.621931 
L 154.62787 110.225405 
L 155.326886 109.900081 
L 157.843343 108.278083 
L 158.122949 108.619288 
L 158.402556 109.35843 
L 158.821965 110.841832 
L 159.101571 111.124493 
L 159.520981 111.976183 
L 160.219997 113.493691 
L 160.779209 114.540035 
L 161.478225 116.417505 
L 161.897635 117.494916 
L 164.833501 123.749526 
L 165.951926 125.354066 
L 167.070351 126.58233 
L 168.188777 127.505582 
L 169.167399 128.078342 
L 169.447005 128.07228 
L 169.726611 127.863978 
L 170.146021 127.397317 
L 170.425627 127.251152 
L 171.264446 126.447277 
L 171.683856 126.490105 
L 172.103265 126.539574 
L 172.522674 126.453932 
L 173.501297 126.371274 
L 174.619722 125.993592 
L 175.87795 125.598531 
L 177.136179 124.924572 
L 178.394407 124.486969 
L 179.093423 124.178345 
L 179.373029 123.841795 
L 179.792439 122.868874 
L 180.491454 121.360011 
L 181.470077 119.038906 
L 184.126337 114.857362 
L 185.384565 113.207539 
L 185.384565 113.207539 
" clip-path="url(#p52a95a7089)" style="fill: none; stroke-dasharray: 5.55,2.4; stroke-dashoffset: 0; stroke: #008000; stroke-width: 1.5"/>
   </g>
   <g id="patch_3">
    <path d="M 38.59125 139.19749 
L 38.59125 10.8 
" style="fill: none; stroke: #000000; stroke-linejoin: miter; stroke-linecap: square"/>
   </g>
   <g id="patch_4">
    <path d="M 192.374723 139.19749 
L 192.374723 10.8 
" style="fill: none; stroke: #000000; stroke-linejoin: miter; stroke-linecap: square"/>
   </g>
   <g id="patch_5">
    <path d="M 38.59125 139.19749 
L 192.374723 139.19749 
" style="fill: none; stroke: #000000; stroke-linejoin: miter; stroke-linecap: square"/>
   </g>
   <g id="patch_6">
    <path d="M 38.59125 10.8 
L 192.374723 10.8 
" style="fill: none; stroke: #000000; stroke-linejoin: miter; stroke-linecap: square"/>
   </g>
   <g id="legend_1">
    <g id="patch_7">
     <path d="M 144.974723 32.75625 
L 188.174723 32.75625 
Q 189.374723 32.75625 189.374723 31.55625 
L 189.374723 15 
Q 189.374723 13.8 188.174723 13.8 
L 144.974723 13.8 
Q 143.774723 13.8 143.774723 15 
L 143.774723 31.55625 
Q 143.774723 32.75625 144.974723 32.75625 
z
" style="fill: #ffffff; opacity: 0.8; stroke: #cccccc; stroke-linejoin: miter"/>
    </g>
    <g id="line2d_15">
     <path d="M 146.174723 18.904688 
L 152.174723 18.904688 
L 158.174723 18.904688 
" style="fill: none; stroke: #ff0000; stroke-width: 1.5; stroke-linecap: square"/>
    </g>
    <g id="text_15">
     <!-- 真实值 -->
     <g transform="translate(162.974723 21.004688)scale(0.06 -0.06)">
      <defs>
       <path id="SimHei-771f" d="M 3550 5100 
Q 3450 4925 3400 4625 
L 4850 4625 
Q 5175 4625 5725 4650 
L 5725 4250 
Q 5200 4275 4850 4275 
L 3350 4275 
L 3300 3850 
L 5050 3850 
Q 5025 3550 5025 3150 
L 5025 1075 
L 5400 1075 
Q 5800 1075 6075 1100 
L 6075 625 
Q 5575 650 4900 650 
L 1450 650 
Q 775 650 350 625 
L 350 1100 
Q 725 1075 1100 1075 
L 1425 1075 
L 1425 3075 
Q 1425 3450 1400 3850 
L 2825 3850 
L 2850 4275 
L 1400 4275 
Q 1050 4275 625 4250 
L 625 4650 
Q 1175 4625 1375 4625 
L 2925 4625 
Q 2950 4875 2950 5125 
Q 3300 5100 3550 5100 
z
M 4075 525 
Q 4500 425 4925 250 
Q 5350 75 5825 -150 
Q 5550 -425 5450 -575 
Q 5025 -300 4550 -100 
Q 4075 100 3800 175 
Q 3925 350 4075 525 
z
M 4525 3150 
L 4525 3475 
L 1925 3475 
L 1925 3150 
L 4525 3150 
z
M 4525 1075 
L 4525 1400 
L 1925 1400 
L 1925 1075 
L 4525 1075 
z
M 2775 200 
Q 2375 -25 1875 -225 
Q 1375 -425 950 -575 
Q 775 -400 600 -250 
Q 1225 -50 1625 137 
Q 2025 325 2350 525 
Q 2550 350 2775 200 
z
M 4525 1775 
L 4525 2075 
L 1925 2075 
L 1925 1775 
L 4525 1775 
z
M 4525 2475 
L 4525 2775 
L 1925 2775 
L 1925 2475 
L 4525 2475 
z
" transform="scale(0.015625)"/>
       <path id="SimHei-5b9e" d="M 4125 3500 
Q 4050 3200 4000 2675 
Q 3950 2150 3850 1550 
L 5025 1550 
Q 5475 1550 5975 1575 
L 5975 1100 
Q 5450 1125 5000 1125 
L 3725 1125 
Q 3500 625 3050 250 
Q 2600 -125 2000 -337 
Q 1400 -550 925 -675 
Q 825 -375 500 -200 
Q 1225 -125 2050 212 
Q 2875 550 3200 1125 
L 1425 1125 
Q 975 1125 425 1100 
L 425 1575 
Q 1000 1550 1425 1550 
L 3375 1550 
Q 3450 1975 3487 2462 
Q 3525 2950 3500 3650 
Q 3800 3550 4125 3500 
z
M 3250 5250 
Q 3450 4850 3600 4375 
L 5775 4375 
Q 5750 4100 5750 3825 
Q 5750 3575 5775 3275 
L 5200 3275 
L 5200 3975 
L 1225 3975 
L 1225 3225 
L 675 3225 
Q 700 3525 700 3800 
Q 700 4100 675 4375 
L 2975 4375 
Q 2900 4675 2700 5075 
Q 2900 5150 3250 5250 
z
M 4000 825 
Q 4550 525 5050 262 
Q 5550 0 5925 -225 
Q 5750 -425 5550 -650 
Q 5100 -325 4575 -37 
Q 4050 250 3675 400 
Q 3875 650 4000 825 
z
M 1175 2750 
Q 1600 2550 2350 2050 
Q 2250 1900 2050 1650 
Q 1350 2175 925 2350 
Q 1075 2500 1175 2750 
z
M 3150 2825 
Q 2975 2625 2850 2425 
Q 2050 3000 1675 3125 
Q 1800 3300 1950 3525 
L 3150 2825 
z
" transform="scale(0.015625)"/>
      </defs>
      <use xlink:href="#SimHei-771f"/>
      <use xlink:href="#SimHei-5b9e" x="100"/>
      <use xlink:href="#SimHei-503c" x="200"/>
     </g>
    </g>
    <g id="line2d_16">
     <path d="M 146.174723 27.50625 
L 152.174723 27.50625 
L 158.174723 27.50625 
" style="fill: none; stroke-dasharray: 5.55,2.4; stroke-dashoffset: 0; stroke: #008000; stroke-width: 1.5"/>
    </g>
    <g id="text_16">
     <!-- 模型输出 -->
     <g transform="translate(162.974723 29.60625)scale(0.06 -0.06)">
      <defs>
       <path id="SimHei-6a21" d="M 5700 3675 
Q 5675 3400 5675 2725 
Q 5675 2050 5700 1725 
L 4375 1725 
Q 4350 1450 4325 1200 
L 5225 1200 
Q 5750 1200 6025 1225 
L 6025 825 
Q 5725 850 5225 850 
L 4700 850 
Q 5075 375 5437 137 
Q 5800 -100 6200 -200 
Q 5975 -375 5850 -625 
Q 5275 -400 4862 25 
Q 4450 450 4300 775 
L 4225 775 
Q 4000 275 3537 -62 
Q 3075 -400 2475 -625 
Q 2350 -375 2125 -200 
Q 2775 -75 3200 200 
Q 3625 475 3775 850 
L 3325 850 
Q 2800 850 2400 825 
L 2400 1225 
Q 2800 1200 3350 1200 
L 3875 1200 
Q 3925 1475 3925 1725 
L 2750 1725 
Q 2775 2075 2775 2700 
Q 2775 3350 2750 3675 
L 5700 3675 
z
M 2175 1650 
Q 2025 1975 1675 2525 
L 1675 300 
Q 1675 -300 1700 -550 
L 1175 -550 
Q 1200 -275 1200 250 
L 1200 2225 
Q 1125 2000 962 1712 
Q 800 1425 600 1050 
Q 450 1275 200 1425 
Q 600 1825 850 2425 
Q 1100 3025 1175 3425 
L 950 3425 
Q 700 3425 400 3400 
L 400 3825 
Q 675 3800 825 3800 
L 1200 3800 
L 1200 4350 
Q 1200 4775 1175 5150 
L 1700 5150 
Q 1675 4825 1675 4425 
L 1675 3800 
Q 2075 3800 2375 3825 
L 2375 3400 
Q 2050 3425 1675 3425 
L 1675 2575 
Q 1850 2675 2000 2775 
Q 2150 2525 2287 2325 
Q 2425 2125 2550 1925 
Q 2325 1775 2175 1650 
z
M 3375 4300 
L 3175 4300 
Q 2700 4300 2425 4275 
L 2425 4675 
Q 2700 4650 3150 4650 
L 3375 4650 
Q 3375 5000 3350 5225 
L 3825 5225 
Q 3800 5000 3800 4650 
L 4550 4650 
Q 4550 4975 4525 5200 
L 5025 5200 
Q 5000 4925 5000 4650 
L 5375 4650 
Q 5650 4650 5950 4675 
L 5950 4275 
Q 5650 4300 5375 4300 
L 5000 4300 
L 5000 3850 
L 4550 3850 
L 4550 4300 
L 3800 4300 
L 3800 3875 
L 3375 3875 
L 3375 4300 
z
M 5275 2075 
L 5275 2525 
L 3200 2525 
L 3200 2075 
L 5275 2075 
z
M 5275 2875 
L 5275 3325 
L 3200 3325 
L 3200 2875 
L 5275 2875 
z
" transform="scale(0.015625)"/>
       <path id="SimHei-578b" d="M 2625 1775 
Q 2650 2325 2650 2700 
L 2650 3000 
L 1825 3000 
Q 1725 2375 1425 2000 
Q 1125 1625 775 1425 
Q 650 1650 375 1900 
Q 850 2075 1062 2362 
Q 1275 2650 1350 3000 
Q 900 3000 375 2975 
L 375 3450 
Q 925 3425 1400 3425 
Q 1425 3950 1425 4475 
Q 1075 4475 700 4450 
L 700 4900 
Q 1050 4875 1525 4875 
L 3000 4875 
Q 3275 4875 3650 4900 
L 3650 4450 
Q 3325 4475 3125 4475 
L 3125 3425 
Q 3450 3425 3825 3450 
L 3825 2975 
Q 3450 3000 3125 3000 
L 3125 2675 
Q 3125 2225 3150 1775 
L 2625 1775 
z
M 3000 1175 
Q 3000 1375 2975 1725 
L 3500 1725 
Q 3475 1375 3475 1175 
L 4550 1175 
Q 5050 1175 5450 1200 
L 5450 725 
Q 4975 750 4550 750 
L 3475 750 
L 3475 -50 
L 5275 -50 
Q 5700 -50 6100 -25 
L 6100 -500 
Q 5725 -475 5300 -475 
L 1250 -475 
Q 775 -475 400 -500 
L 400 -25 
Q 775 -50 1250 -50 
L 3000 -50 
L 3000 750 
L 2025 750 
Q 1500 750 975 725 
L 1050 1200 
Q 1500 1175 2025 1175 
L 3000 1175 
z
M 5775 5200 
Q 5750 4775 5750 4325 
L 5750 2400 
Q 5775 1950 5612 1775 
Q 5450 1600 4900 1525 
Q 4825 1775 4675 2100 
Q 5175 2075 5237 2150 
Q 5300 2225 5300 2525 
L 5300 4325 
Q 5300 4775 5275 5200 
L 5775 5200 
z
M 4600 4750 
Q 4575 4450 4575 3975 
L 4575 3200 
Q 4575 2825 4600 2425 
L 4100 2425 
Q 4125 2825 4125 3200 
L 4125 3975 
Q 4125 4450 4100 4750 
L 4600 4750 
z
M 2650 3425 
L 2650 4475 
L 1875 4475 
Q 1850 3750 1850 3425 
L 2650 3425 
z
" transform="scale(0.015625)"/>
       <path id="SimHei-8f93" d="M 3225 3650 
Q 2725 3100 2550 2950 
L 4100 2950 
Q 4075 2675 4075 2275 
L 4075 -100 
Q 4100 -325 3962 -425 
Q 3825 -525 3475 -600 
Q 3400 -350 3225 -100 
Q 3650 -100 3650 25 
L 3650 675 
L 2975 675 
L 2975 -575 
L 2525 -575 
Q 2550 -125 2550 325 
L 2550 2075 
Q 2550 2500 2525 2925 
L 2375 2800 
Q 2200 3000 1950 3100 
Q 2575 3525 3025 4087 
Q 3475 4650 3775 5300 
Q 4075 5150 4325 5100 
L 4225 4975 
Q 4700 4325 5225 3975 
Q 5750 3625 6200 3475 
Q 5975 3275 5825 3025 
Q 5275 3300 4875 3650 
L 4875 3350 
L 3225 3350 
L 3225 3650 
z
M 2225 825 
Q 1975 775 1725 675 
Q 1725 -100 1750 -650 
L 1275 -650 
Q 1300 -100 1300 575 
Q 725 425 475 325 
Q 400 575 250 825 
Q 650 875 1300 1025 
L 1300 1975 
Q 700 1925 400 1800 
L 225 2225 
Q 425 2350 600 2850 
Q 775 3350 875 3825 
Q 625 3825 350 3800 
L 350 4250 
Q 675 4225 950 4225 
Q 1050 4700 1075 5175 
Q 1400 5075 1675 5025 
Q 1525 4850 1400 4225 
Q 1925 4225 2300 4250 
L 2300 3800 
Q 1850 3825 1325 3825 
Q 1075 2900 825 2325 
L 1300 2375 
Q 1300 2700 1275 3125 
L 1750 3125 
Q 1725 2900 1725 2425 
L 2150 2475 
L 2150 2075 
L 1725 2025 
L 1725 1125 
L 2225 1250 
L 2225 825 
z
M 5775 2925 
Q 5750 2525 5750 2150 
L 5750 -100 
Q 5750 -375 5625 -475 
Q 5500 -575 5000 -675 
Q 4950 -450 4750 -175 
Q 5300 -200 5325 0 
L 5325 2100 
Q 5325 2500 5300 2925 
L 5775 2925 
z
M 4975 2700 
Q 4950 2400 4950 2000 
L 4950 900 
Q 4950 425 4975 125 
L 4475 125 
Q 4500 500 4500 875 
L 4500 2000 
Q 4500 2350 4475 2700 
L 4975 2700 
z
M 4750 3750 
Q 4450 4025 3975 4675 
Q 3575 4075 3300 3750 
L 4750 3750 
z
M 3650 2000 
L 3650 2575 
L 2975 2575 
L 2975 2000 
L 3650 2000 
z
M 3650 1075 
L 3650 1625 
L 2975 1625 
L 2975 1075 
L 3650 1075 
z
" transform="scale(0.015625)"/>
       <path id="SimHei-51fa" d="M 1475 4550 
Q 1450 4225 1450 3950 
L 1450 2950 
L 2925 2950 
L 2925 4425 
Q 2925 4775 2900 5125 
L 3425 5125 
Q 3400 4825 3400 4425 
L 3400 2950 
L 4900 2950 
L 4900 3875 
Q 4900 4275 4875 4525 
L 5400 4525 
Q 5375 4275 5375 3850 
L 5375 3175 
Q 5375 2775 5400 2525 
L 3400 2525 
L 3400 225 
L 5125 225 
L 5125 1275 
Q 5125 1650 5100 1925 
L 5625 1925 
Q 5600 1650 5600 1300 
L 5600 175 
Q 5600 -325 5625 -650 
L 5125 -650 
L 5125 -200 
L 675 -200 
Q 700 100 700 525 
L 700 1275 
Q 700 1700 675 1950 
L 1200 1950 
Q 1175 1700 1175 1275 
L 1175 225 
L 2925 225 
L 2925 2525 
L 950 2525 
Q 975 2775 975 3150 
L 975 3925 
Q 975 4250 950 4550 
L 1475 4550 
z
" transform="scale(0.015625)"/>
      </defs>
      <use xlink:href="#SimHei-6a21"/>
      <use xlink:href="#SimHei-578b" x="100"/>
      <use xlink:href="#SimHei-8f93" x="200"/>
      <use xlink:href="#SimHei-51fa" x="300"/>
     </g>
    </g>
   </g>
  </g>
  <g id="axes_2">
   <g id="patch_8">
    <path d="M 231.616447 139.19749 
L 385.39992 139.19749 
L 385.39992 10.8 
L 231.616447 10.8 
z
" style="fill: #ffffff"/>
   </g>
   <g id="matplotlib.axis_3">
    <g id="xtick_7">
     <g id="line2d_17">
      <g>
       <use xlink:href="#m48729c0421" x="238.606605" y="139.19749" style="stroke: #000000; stroke-width: 0.8"/>
      </g>
     </g>
     <g id="text_17">
      <!-- 0 -->
      <g transform="translate(236.856605 147.50999)scale(0.07 -0.07)">
       <use xlink:href="#SimHei-30"/>
      </g>
     </g>
    </g>
    <g id="xtick_8">
     <g id="line2d_18">
      <g>
       <use xlink:href="#m48729c0421" x="266.567236" y="139.19749" style="stroke: #000000; stroke-width: 0.8"/>
      </g>
     </g>
     <g id="text_18">
      <!-- 200 -->
      <g transform="translate(261.317236 147.50999)scale(0.07 -0.07)">
       <use xlink:href="#SimHei-32"/>
       <use xlink:href="#SimHei-30" x="50"/>
       <use xlink:href="#SimHei-30" x="100"/>
      </g>
     </g>
    </g>
    <g id="xtick_9">
     <g id="line2d_19">
      <g>
       <use xlink:href="#m48729c0421" x="294.527868" y="139.19749" style="stroke: #000000; stroke-width: 0.8"/>
      </g>
     </g>
     <g id="text_19">
      <!-- 400 -->
      <g transform="translate(289.277868 147.50999)scale(0.07 -0.07)">
       <use xlink:href="#SimHei-34"/>
       <use xlink:href="#SimHei-30" x="50"/>
       <use xlink:href="#SimHei-30" x="100"/>
      </g>
     </g>
    </g>
    <g id="xtick_10">
     <g id="line2d_20">
      <g>
       <use xlink:href="#m48729c0421" x="322.488499" y="139.19749" style="stroke: #000000; stroke-width: 0.8"/>
      </g>
     </g>
     <g id="text_20">
      <!-- 600 -->
      <g transform="translate(317.238499 147.50999)scale(0.07 -0.07)">
       <use xlink:href="#SimHei-36"/>
       <use xlink:href="#SimHei-30" x="50"/>
       <use xlink:href="#SimHei-30" x="100"/>
      </g>
     </g>
    </g>
    <g id="xtick_11">
     <g id="line2d_21">
      <g>
       <use xlink:href="#m48729c0421" x="350.44913" y="139.19749" style="stroke: #000000; stroke-width: 0.8"/>
      </g>
     </g>
     <g id="text_21">
      <!-- 800 -->
      <g transform="translate(345.19913 147.50999)scale(0.07 -0.07)">
       <use xlink:href="#SimHei-38"/>
       <use xlink:href="#SimHei-30" x="50"/>
       <use xlink:href="#SimHei-30" x="100"/>
      </g>
     </g>
    </g>
    <g id="xtick_12">
     <g id="line2d_22">
      <g>
       <use xlink:href="#m48729c0421" x="378.409762" y="139.19749" style="stroke: #000000; stroke-width: 0.8"/>
      </g>
     </g>
     <g id="text_22">
      <!-- 1000 -->
      <g transform="translate(371.409762 147.50999)scale(0.07 -0.07)">
       <use xlink:href="#SimHei-31"/>
       <use xlink:href="#SimHei-30" x="50"/>
       <use xlink:href="#SimHei-30" x="100"/>
       <use xlink:href="#SimHei-30" x="150"/>
      </g>
     </g>
    </g>
    <g id="text_23">
     <!-- 时间 -->
     <g transform="translate(301.508183 157.990459)scale(0.07 -0.07)">
      <use xlink:href="#SimHei-65f6"/>
      <use xlink:href="#SimHei-95f4" x="100"/>
     </g>
    </g>
   </g>
   <g id="matplotlib.axis_4">
    <g id="ytick_7">
     <g id="line2d_23">
      <g>
       <use xlink:href="#mc6f90178dd" x="231.616447" y="124.467208" style="stroke: #000000; stroke-width: 0.8"/>
      </g>
     </g>
     <g id="text_24">
      <!-- -1.0 -->
      <g transform="translate(214.116447 126.873458)scale(0.07 -0.07)">
       <use xlink:href="#SimHei-2d"/>
       <use xlink:href="#SimHei-31" x="50"/>
       <use xlink:href="#SimHei-2e" x="100"/>
       <use xlink:href="#SimHei-30" x="150"/>
      </g>
     </g>
    </g>
    <g id="ytick_8">
     <g id="line2d_24">
      <g>
       <use xlink:href="#mc6f90178dd" x="231.616447" y="109.199327" style="stroke: #000000; stroke-width: 0.8"/>
      </g>
     </g>
     <g id="text_25">
      <!-- -0.5 -->
      <g transform="translate(214.116447 111.605577)scale(0.07 -0.07)">
       <use xlink:href="#SimHei-2d"/>
       <use xlink:href="#SimHei-30" x="50"/>
       <use xlink:href="#SimHei-2e" x="100"/>
       <use xlink:href="#SimHei-35" x="150"/>
      </g>
     </g>
    </g>
    <g id="ytick_9">
     <g id="line2d_25">
      <g>
       <use xlink:href="#mc6f90178dd" x="231.616447" y="93.931445" style="stroke: #000000; stroke-width: 0.8"/>
      </g>
     </g>
     <g id="text_26">
      <!-- 0.0 -->
      <g transform="translate(217.616447 96.337695)scale(0.07 -0.07)">
       <use xlink:href="#SimHei-30"/>
       <use xlink:href="#SimHei-2e" x="50"/>
       <use xlink:href="#SimHei-30" x="100"/>
      </g>
     </g>
    </g>
    <g id="ytick_10">
     <g id="line2d_26">
      <g>
       <use xlink:href="#mc6f90178dd" x="231.616447" y="78.663563" style="stroke: #000000; stroke-width: 0.8"/>
      </g>
     </g>
     <g id="text_27">
      <!-- 0.5 -->
      <g transform="translate(217.616447 81.069813)scale(0.07 -0.07)">
       <use xlink:href="#SimHei-30"/>
       <use xlink:href="#SimHei-2e" x="50"/>
       <use xlink:href="#SimHei-35" x="100"/>
      </g>
     </g>
    </g>
    <g id="ytick_11">
     <g id="line2d_27">
      <g>
       <use xlink:href="#mc6f90178dd" x="231.616447" y="63.395682" style="stroke: #000000; stroke-width: 0.8"/>
      </g>
     </g>
     <g id="text_28">
      <!-- 1.0 -->
      <g transform="translate(217.616447 65.801932)scale(0.07 -0.07)">
       <use xlink:href="#SimHei-31"/>
       <use xlink:href="#SimHei-2e" x="50"/>
       <use xlink:href="#SimHei-30" x="100"/>
      </g>
     </g>
    </g>
    <g id="ytick_12">
     <g id="line2d_28">
      <g>
       <use xlink:href="#mc6f90178dd" x="231.616447" y="48.1278" style="stroke: #000000; stroke-width: 0.8"/>
      </g>
     </g>
     <g id="text_29">
      <!-- 1.5 -->
      <g transform="translate(217.616447 50.53405)scale(0.07 -0.07)">
       <use xlink:href="#SimHei-31"/>
       <use xlink:href="#SimHei-2e" x="50"/>
       <use xlink:href="#SimHei-35" x="100"/>
      </g>
     </g>
    </g>
    <g id="ytick_13">
     <g id="line2d_29">
      <g>
       <use xlink:href="#mc6f90178dd" x="231.616447" y="32.859918" style="stroke: #000000; stroke-width: 0.8"/>
      </g>
     </g>
     <g id="text_30">
      <!-- 2.0 -->
      <g transform="translate(217.616447 35.266168)scale(0.07 -0.07)">
       <use xlink:href="#SimHei-32"/>
       <use xlink:href="#SimHei-2e" x="50"/>
       <use xlink:href="#SimHei-30" x="100"/>
      </g>
     </g>
    </g>
    <g id="ytick_14">
     <g id="line2d_30">
      <g>
       <use xlink:href="#mc6f90178dd" x="231.616447" y="17.592037" style="stroke: #000000; stroke-width: 0.8"/>
      </g>
     </g>
     <g id="text_31">
      <!-- 2.5 -->
      <g transform="translate(217.616447 19.998287)scale(0.07 -0.07)">
       <use xlink:href="#SimHei-32"/>
       <use xlink:href="#SimHei-2e" x="50"/>
       <use xlink:href="#SimHei-35" x="100"/>
      </g>
     </g>
    </g>
    <g id="text_32">
     <!-- 值 -->
     <g transform="translate(209.241447 78.498745)rotate(-90)scale(0.07 -0.07)">
      <use xlink:href="#SimHei-503c"/>
     </g>
    </g>
   </g>
   <g id="line2d_31">
    <path d="M 238.606605 108.547539 
L 240.144439 111.219537 
L 240.843455 111.593867 
L 241.96188 112.336631 
L 242.38129 112.610811 
L 243.359912 113.143945 
L 244.338534 113.803715 
L 246.016172 114.74249 
L 247.2744 115.289886 
L 249.651054 116.918133 
L 250.070464 116.910627 
L 251.468495 116.803292 
L 252.58692 116.961774 
L 256.920818 117.234882 
L 258.598456 117.508312 
L 261.114913 118.151461 
L 264.050779 118.295253 
L 267.965268 118.799543 
L 268.244874 118.901945 
L 273.837 119.480115 
L 280.966961 119.954167 
L 281.526174 120.071045 
L 283.343615 120.890797 
L 285.161056 120.936047 
L 285.580465 121.13667 
L 287.1183 121.522366 
L 291.172592 122.252799 
L 294.108458 123.088743 
L 294.248261 16.63625 
L 295.50649 20.756995 
L 295.786096 22.208853 
L 298.022946 29.232243 
L 299.281175 32.678529 
L 300.539403 36.51405 
L 301.098616 38.064557 
L 301.797632 63.351975 
L 302.077238 65.369993 
L 302.356844 65.612327 
L 302.496647 65.665941 
L 302.636451 65.581231 
L 303.195663 64.661221 
L 303.47527 65.663796 
L 303.754876 65.645568 
L 304.733498 65.04295 
L 305.432514 65.069757 
L 306.13153 65.343187 
L 306.690742 65.951165 
L 307.249955 66.503386 
L 308.508183 67.531696 
L 311.723656 70.663913 
L 312.003262 72.117058 
L 312.422672 73.976272 
L 314.10031 78.328093 
L 314.799325 79.735773 
L 315.358538 80.316624 
L 316.057554 80.681733 
L 316.896373 80.561316 
L 317.595388 79.700281 
L 317.874995 81.855228 
L 318.294404 81.383857 
L 318.99342 80.640343 
L 319.273026 80.497302 
L 319.972042 80.480789 
L 320.251648 80.549736 
L 321.090467 81.116968 
L 321.929286 81.368416 
L 322.208893 80.962668 
L 322.768105 80.604636 
L 323.467121 80.431357 
L 324.30594 80.462453 
L 325.843775 80.826597 
L 328.639838 81.569575 
L 329.478657 81.504917 
L 330.457279 81.59413 
L 331.156295 82.057566 
L 331.995114 82.592845 
L 332.554326 82.967712 
L 333.253342 83.578157 
L 333.532948 84.122657 
L 334.791177 85.951634 
L 335.070783 86.691717 
L 336.329011 89.260776 
L 338.845468 94.428704 
L 342.89976 101.061035 
L 343.878382 102.37532 
L 347.513264 106.485343 
L 347.653067 106.619056 
L 347.932674 107.180391 
L 349.051099 108.191759 
L 349.330705 108.66699 
L 350.728737 110.15552 
L 354.084012 111.228865 
L 354.223816 111.176539 
L 354.503422 111.226614 
L 354.922831 111.319044 
L 355.621847 111.319365 
L 357.718895 111.214068 
L 361.633383 111.198842 
L 362.472202 111.633434 
L 364.14984 112.667749 
L 366.8061 113.968202 
L 367.365312 114.32559 
L 369.741966 115.753644 
L 371.978817 117.169473 
L 373.376848 118.604389 
L 375.054486 120.375356 
L 375.334092 120.95063 
L 377.850549 123.310275 
L 378.409762 123.752373 
L 378.409762 123.752373 
" clip-path="url(#pff74947743)" style="fill: none; stroke: #ff0000; stroke-width: 1.5; stroke-linecap: square"/>
   </g>
   <g id="line2d_32">
    <path d="M 238.606605 108.547539 
L 238.746408 106.852164 
L 239.72503 108.300711 
L 240.424046 109.324566 
L 241.402668 110.381803 
L 241.682274 110.760009 
L 244.757944 112.890339 
L 245.317156 113.062906 
L 245.596763 113.041917 
L 245.876369 112.830227 
L 246.155975 112.366269 
L 246.575385 111.54529 
L 247.134597 111.506763 
L 247.973416 111.241751 
L 250.070464 111.479169 
L 250.489873 111.947809 
L 251.328692 113.05594 
L 253.00633 114.994609 
L 253.984952 115.812479 
L 254.683968 116.426965 
L 255.66259 117.482712 
L 256.081999 117.566699 
L 256.361606 117.413478 
L 257.340228 116.487395 
L 258.039244 115.805086 
L 258.598456 115.411794 
L 260.136291 114.584612 
L 261.534322 114.171279 
L 262.932354 114.021047 
L 263.63137 113.982953 
L 264.190582 113.918569 
L 267.545858 114.104188 
L 268.244874 114.545108 
L 268.94389 115.139027 
L 271.18074 117.859137 
L 273.137985 120.186549 
L 274.536016 121.495819 
L 275.794244 122.40817 
L 277.052473 123.074641 
L 278.590308 123.672943 
L 280.687355 124.243358 
L 283.902828 125.053115 
L 285.021253 125.489646 
L 285.300859 125.526917 
L 285.580465 126.086648 
L 285.860072 127.170654 
L 286.279481 129.790737 
L 286.419284 130.916926 
L 286.838694 131.346638 
L 287.957119 132.901814 
L 289.215348 133.338177 
L 290.613379 133.321039 
L 292.990033 132.960177 
L 294.807474 132.601302 
L 295.08708 132.322332 
L 295.366686 131.709218 
L 295.786096 130.586885 
L 296.345309 130.389017 
L 297.184128 129.945869 
L 301.518025 129.259647 
L 302.356844 129.331631 
L 302.636451 129.02619 
L 302.916057 128.266342 
L 303.195663 126.430856 
L 303.47527 124.668581 
L 303.894679 124.039488 
L 304.314089 122.91121 
L 304.873301 121.392329 
L 305.432514 120.344386 
L 306.411136 118.465902 
L 312.562475 107.781253 
L 314.10031 105.584925 
L 315.498341 103.935822 
L 316.896373 102.602886 
L 318.434207 101.455047 
L 319.133223 101.162994 
L 320.111845 100.952104 
L 322.069089 100.739062 
L 323.746727 100.439463 
L 325.564168 100.063963 
L 329.19905 99.519611 
L 330.317476 100.456772 
L 330.736885 100.714828 
L 331.296098 101.473757 
L 331.85531 102.223574 
L 333.952358 104.43347 
L 336.189208 107.213883 
L 338.146453 109.940755 
L 339.125075 110.948861 
L 339.544484 111.096187 
L 339.82409 111.293623 
L 340.942516 112.240189 
L 344.857004 115.249909 
L 345.975429 115.812611 
L 346.534642 115.872076 
L 347.093855 115.809666 
L 348.911296 116.253771 
L 351.287949 116.742779 
L 351.707359 116.557843 
L 352.266571 116.400352 
L 353.5248 115.79354 
L 354.084012 115.288271 
L 356.18106 112.753857 
L 357.718895 110.915397 
L 359.536336 109.022654 
L 361.07417 107.719716 
L 362.052792 107.112709 
L 362.612005 107.08683 
L 365.967281 107.440126 
L 367.924525 107.733451 
L 369.182753 108.02895 
L 371.139998 108.532335 
L 372.11862 108.837489 
L 373.796258 109.88402 
L 376.452518 111.840897 
L 378.409762 113.387223 
L 378.409762 113.387223 
" clip-path="url(#pff74947743)" style="fill: none; stroke-dasharray: 5.55,2.4; stroke-dashoffset: 0; stroke: #008000; stroke-width: 1.5"/>
   </g>
   <g id="patch_9">
    <path d="M 231.616447 139.19749 
L 231.616447 10.8 
" style="fill: none; stroke: #000000; stroke-linejoin: miter; stroke-linecap: square"/>
   </g>
   <g id="patch_10">
    <path d="M 385.39992 139.19749 
L 385.39992 10.8 
" style="fill: none; stroke: #000000; stroke-linejoin: miter; stroke-linecap: square"/>
   </g>
   <g id="patch_11">
    <path d="M 231.616447 139.19749 
L 385.39992 139.19749 
" style="fill: none; stroke: #000000; stroke-linejoin: miter; stroke-linecap: square"/>
   </g>
   <g id="patch_12">
    <path d="M 231.616447 10.8 
L 385.39992 10.8 
" style="fill: none; stroke: #000000; stroke-linejoin: miter; stroke-linecap: square"/>
   </g>
   <g id="legend_2">
    <g id="patch_13">
     <path d="M 337.99992 32.75625 
L 381.19992 32.75625 
Q 382.39992 32.75625 382.39992 31.55625 
L 382.39992 15 
Q 382.39992 13.8 381.19992 13.8 
L 337.99992 13.8 
Q 336.79992 13.8 336.79992 15 
L 336.79992 31.55625 
Q 336.79992 32.75625 337.99992 32.75625 
z
" style="fill: #ffffff; opacity: 0.8; stroke: #cccccc; stroke-linejoin: miter"/>
    </g>
    <g id="line2d_33">
     <path d="M 339.19992 18.904688 
L 345.19992 18.904688 
L 351.19992 18.904688 
" style="fill: none; stroke: #ff0000; stroke-width: 1.5; stroke-linecap: square"/>
    </g>
    <g id="text_33">
     <!-- 真实值 -->
     <g transform="translate(355.99992 21.004688)scale(0.06 -0.06)">
      <use xlink:href="#SimHei-771f"/>
      <use xlink:href="#SimHei-5b9e" x="100"/>
      <use xlink:href="#SimHei-503c" x="200"/>
     </g>
    </g>
    <g id="line2d_34">
     <path d="M 339.19992 27.50625 
L 345.19992 27.50625 
L 351.19992 27.50625 
" style="fill: none; stroke-dasharray: 5.55,2.4; stroke-dashoffset: 0; stroke: #008000; stroke-width: 1.5"/>
    </g>
    <g id="text_34">
     <!-- 模型输出 -->
     <g transform="translate(355.99992 29.60625)scale(0.06 -0.06)">
      <use xlink:href="#SimHei-6a21"/>
      <use xlink:href="#SimHei-578b" x="100"/>
      <use xlink:href="#SimHei-8f93" x="200"/>
      <use xlink:href="#SimHei-51fa" x="300"/>
     </g>
    </g>
   </g>
  </g>
 </g>
 <defs>
  <clipPath id="p52a95a7089">
   <rect x="38.59125" y="10.8" width="153.783473" height="128.39749"/>
  </clipPath>
  <clipPath id="pff74947743">
   <rect x="231.616447" y="10.8" width="153.783473" height="128.39749"/>
  </clipPath>
 </defs>
</svg>
