<?xml version="1.0" encoding="utf-8" standalone="no"?>
<!DOCTYPE svg PUBLIC "-//W3C//DTD SVG 1.1//EN"
  "http://www.w3.org/Graphics/SVG/1.1/DTD/svg11.dtd">
<svg xmlns:xlink="http://www.w3.org/1999/xlink" width="396.850394pt" height="170.07874pt" viewBox="0 0 396.850394 170.07874" xmlns="http://www.w3.org/2000/svg" version="1.1">
 <metadata>
  <rdf:RDF xmlns:dc="http://purl.org/dc/elements/1.1/" xmlns:cc="http://creativecommons.org/ns#" xmlns:rdf="http://www.w3.org/1999/02/22-rdf-syntax-ns#">
   <cc:Work>
    <dc:type rdf:resource="http://purl.org/dc/dcmitype/StillImage"/>
    <dc:date>2023-02-28T16:29:21.733351</dc:date>
    <dc:format>image/svg+xml</dc:format>
    <dc:creator>
     <cc:Agent>
      <dc:title>Matplotlib v3.5.2, https://matplotlib.org/</dc:title>
     </cc:Agent>
    </dc:creator>
   </cc:Work>
  </rdf:RDF>
 </metadata>
 <defs>
  <style type="text/css">*{stroke-linejoin: round; stroke-linecap: butt}</style>
 </defs>
 <g id="figure_1">
  <g id="patch_1">
   <path d="M 0 170.07874 
L 396.850394 170.07874 
L 396.850394 0 
L 0 0 
L 0 170.07874 
z
" style="fill: none"/>
  </g>
  <g id="axes_1">
   <g id="patch_2">
    <path d="M 38.59125 139.19749 
L 192.374723 139.19749 
L 192.374723 10.8 
L 38.59125 10.8 
z
" style="fill: #ffffff"/>
   </g>
   <g id="matplotlib.axis_1">
    <g id="xtick_1">
     <g id="line2d_1">
      <defs>
       <path id="mf8c3f0a6e0" d="M 0 0 
L 0 -3.5 
" style="stroke: #000000; stroke-width: 0.8"/>
      </defs>
      <g>
       <use xlink:href="#mf8c3f0a6e0" x="45.581408" y="139.19749" style="stroke: #000000; stroke-width: 0.8"/>
      </g>
     </g>
     <g id="text_1">
      <!-- 0 -->
      <g transform="translate(43.831408 147.50999)scale(0.07 -0.07)">
       <defs>
        <path id="SimHei-30" d="M 225 2537 
Q 250 3200 412 3587 
Q 575 3975 875 4225 
Q 1175 4475 1612 4475 
Q 2050 4475 2375 4112 
Q 2700 3750 2800 3200 
Q 2900 2650 2862 1937 
Q 2825 1225 2612 775 
Q 2400 325 1975 150 
Q 1550 -25 1125 187 
Q 700 400 525 750 
Q 350 1100 275 1487 
Q 200 1875 225 2537 
z
M 750 2687 
Q 675 2000 800 1462 
Q 925 925 1212 700 
Q 1500 475 1800 612 
Q 2100 750 2237 1162 
Q 2375 1575 2375 2062 
Q 2375 2550 2337 2950 
Q 2300 3350 2112 3675 
Q 1925 4000 1612 4012 
Q 1300 4025 1062 3700 
Q 825 3375 750 2687 
z
" transform="scale(0.015625)"/>
       </defs>
       <use xlink:href="#SimHei-30"/>
      </g>
     </g>
    </g>
    <g id="xtick_2">
     <g id="line2d_2">
      <g>
       <use xlink:href="#mf8c3f0a6e0" x="73.542039" y="139.19749" style="stroke: #000000; stroke-width: 0.8"/>
      </g>
     </g>
     <g id="text_2">
      <!-- 200 -->
      <g transform="translate(68.292039 147.50999)scale(0.07 -0.07)">
       <defs>
        <path id="SimHei-32" d="M 300 250 
Q 325 625 650 925 
Q 975 1225 1475 1862 
Q 1975 2500 2125 2850 
Q 2275 3200 2237 3450 
Q 2200 3700 2000 3862 
Q 1800 4025 1537 4000 
Q 1275 3975 1037 3800 
Q 800 3625 675 3275 
L 200 3350 
Q 400 3925 712 4187 
Q 1025 4450 1450 4475 
Q 1700 4500 1900 4462 
Q 2100 4425 2312 4287 
Q 2525 4150 2662 3875 
Q 2800 3600 2762 3212 
Q 2725 2825 2375 2287 
Q 2025 1750 1025 600 
L 2825 600 
L 2825 150 
L 300 150 
L 300 250 
z
" transform="scale(0.015625)"/>
       </defs>
       <use xlink:href="#SimHei-32"/>
       <use xlink:href="#SimHei-30" x="50"/>
       <use xlink:href="#SimHei-30" x="100"/>
      </g>
     </g>
    </g>
    <g id="xtick_3">
     <g id="line2d_3">
      <g>
       <use xlink:href="#mf8c3f0a6e0" x="101.502671" y="139.19749" style="stroke: #000000; stroke-width: 0.8"/>
      </g>
     </g>
     <g id="text_3">
      <!-- 400 -->
      <g transform="translate(96.252671 147.50999)scale(0.07 -0.07)">
       <defs>
        <path id="SimHei-34" d="M 2000 1100 
L 75 1100 
L 75 1525 
L 2100 4450 
L 2475 4450 
L 2475 1525 
L 3075 1525 
L 3075 1100 
L 2475 1100 
L 2475 150 
L 2000 150 
L 2000 1100 
z
M 2000 1525 
L 2000 3500 
L 600 1525 
L 2000 1525 
z
" transform="scale(0.015625)"/>
       </defs>
       <use xlink:href="#SimHei-34"/>
       <use xlink:href="#SimHei-30" x="50"/>
       <use xlink:href="#SimHei-30" x="100"/>
      </g>
     </g>
    </g>
    <g id="xtick_4">
     <g id="line2d_4">
      <g>
       <use xlink:href="#mf8c3f0a6e0" x="129.463302" y="139.19749" style="stroke: #000000; stroke-width: 0.8"/>
      </g>
     </g>
     <g id="text_4">
      <!-- 600 -->
      <g transform="translate(124.213302 147.50999)scale(0.07 -0.07)">
       <defs>
        <path id="SimHei-36" d="M 250 1612 
Q 275 1975 387 2225 
Q 500 2475 725 2850 
L 1750 4450 
L 2325 4450 
L 1275 2800 
Q 1950 2975 2350 2750 
Q 2750 2525 2887 2237 
Q 3025 1950 3037 1612 
Q 3050 1275 2937 950 
Q 2825 625 2537 362 
Q 2250 100 1737 75 
Q 1225 50 862 262 
Q 500 475 362 862 
Q 225 1250 250 1612 
z
M 1025 787 
Q 1250 550 1625 525 
Q 2000 500 2250 775 
Q 2500 1050 2500 1575 
Q 2500 2100 2187 2300 
Q 1875 2500 1487 2450 
Q 1100 2400 925 2075 
Q 750 1750 775 1387 
Q 800 1025 1025 787 
z
" transform="scale(0.015625)"/>
       </defs>
       <use xlink:href="#SimHei-36"/>
       <use xlink:href="#SimHei-30" x="50"/>
       <use xlink:href="#SimHei-30" x="100"/>
      </g>
     </g>
    </g>
    <g id="xtick_5">
     <g id="line2d_5">
      <g>
       <use xlink:href="#mf8c3f0a6e0" x="157.423934" y="139.19749" style="stroke: #000000; stroke-width: 0.8"/>
      </g>
     </g>
     <g id="text_5">
      <!-- 800 -->
      <g transform="translate(152.173934 147.50999)scale(0.07 -0.07)">
       <defs>
        <path id="SimHei-38" d="M 175 1375 
Q 175 1675 325 1962 
Q 475 2250 825 2425 
Q 525 2600 425 2812 
Q 325 3025 312 3300 
Q 300 3575 387 3775 
Q 475 3975 650 4150 
Q 825 4325 1037 4387 
Q 1250 4450 1500 4450 
Q 1750 4450 1950 4400 
Q 2150 4350 2375 4187 
Q 2600 4025 2700 3725 
Q 2800 3425 2687 3025 
Q 2575 2625 2100 2400 
Q 2525 2275 2700 2012 
Q 2875 1750 2875 1375 
Q 2875 1000 2762 775 
Q 2650 550 2512 400 
Q 2375 250 2137 162 
Q 1900 75 1537 75 
Q 1175 75 912 162 
Q 650 250 475 425 
Q 300 600 237 837 
Q 175 1075 175 1375 
z
M 687 1400 
Q 675 1100 787 875 
Q 900 650 1200 587 
Q 1500 525 1825 600 
Q 2150 675 2275 950 
Q 2400 1225 2362 1500 
Q 2325 1775 2050 1962 
Q 1775 2150 1450 2125 
Q 1125 2100 912 1900 
Q 700 1700 687 1400 
z
M 775 3350 
Q 775 3100 950 2875 
Q 1125 2650 1500 2650 
Q 1875 2650 2062 2875 
Q 2250 3100 2237 3412 
Q 2225 3725 2012 3875 
Q 1800 4025 1437 4000 
Q 1075 3975 925 3787 
Q 775 3600 775 3350 
z
" transform="scale(0.015625)"/>
       </defs>
       <use xlink:href="#SimHei-38"/>
       <use xlink:href="#SimHei-30" x="50"/>
       <use xlink:href="#SimHei-30" x="100"/>
      </g>
     </g>
    </g>
    <g id="xtick_6">
     <g id="line2d_6">
      <g>
       <use xlink:href="#mf8c3f0a6e0" x="185.384565" y="139.19749" style="stroke: #000000; stroke-width: 0.8"/>
      </g>
     </g>
     <g id="text_6">
      <!-- 1000 -->
      <g transform="translate(178.384565 147.50999)scale(0.07 -0.07)">
       <defs>
        <path id="SimHei-31" d="M 1400 3600 
Q 1075 3275 575 2975 
L 575 3450 
Q 1200 3875 1600 4450 
L 1900 4450 
L 1900 150 
L 1400 150 
L 1400 3600 
z
" transform="scale(0.015625)"/>
       </defs>
       <use xlink:href="#SimHei-31"/>
       <use xlink:href="#SimHei-30" x="50"/>
       <use xlink:href="#SimHei-30" x="100"/>
       <use xlink:href="#SimHei-30" x="150"/>
      </g>
     </g>
    </g>
    <g id="text_7">
     <!-- 时间 -->
     <g transform="translate(108.482986 157.990459)scale(0.07 -0.07)">
      <defs>
       <path id="SimHei-65f6" d="M 2525 4575 
Q 2500 3675 2500 2400 
Q 2500 1125 2525 400 
L 2000 400 
L 2000 875 
L 1000 875 
L 1000 50 
L 475 50 
Q 500 1200 500 2350 
Q 500 3525 475 4575 
L 2525 4575 
z
M 4875 3825 
Q 4875 4575 4850 5225 
L 5400 5225 
Q 5375 4575 5375 3825 
Q 5750 3825 6175 3850 
L 6175 3375 
Q 5750 3400 5375 3400 
L 5375 50 
Q 5375 -325 5075 -425 
Q 4775 -525 4300 -575 
Q 4300 -275 4025 0 
Q 4500 -50 4687 -25 
Q 4875 0 4875 300 
L 4875 3400 
Q 3625 3400 2775 3375 
L 2775 3850 
Q 3575 3825 4875 3825 
z
M 2000 1300 
L 2000 2550 
L 1000 2550 
L 1000 1300 
L 2000 1300 
z
M 2000 2975 
L 2000 4150 
L 1000 4150 
L 1000 2975 
L 2000 2975 
z
M 3550 2725 
Q 3875 2200 4175 1600 
Q 3925 1525 3650 1375 
Q 3450 1975 3075 2500 
Q 3300 2600 3550 2725 
z
" transform="scale(0.015625)"/>
       <path id="SimHei-95f4" d="M 4450 3550 
Q 4425 3075 4425 2725 
L 4425 1400 
Q 4425 1075 4450 625 
L 1925 625 
Q 1950 1075 1950 1425 
L 1950 2725 
Q 1950 3075 1925 3550 
L 4450 3550 
z
M 5800 4875 
Q 5775 4400 5775 3925 
L 5775 250 
Q 5800 -325 5462 -450 
Q 5125 -575 4725 -625 
Q 4700 -325 4525 -25 
Q 5000 -50 5137 25 
Q 5275 100 5275 350 
L 5275 4450 
L 3775 4450 
Q 3175 4450 2650 4425 
L 2650 4900 
Q 3175 4875 3775 4875 
L 5800 4875 
z
M 550 -525 
Q 600 -25 600 525 
L 600 3150 
Q 600 3675 550 4025 
L 1125 4025 
Q 1100 3650 1100 3300 
L 1100 500 
Q 1100 0 1125 -525 
L 550 -525 
z
M 3950 1025 
L 3950 1950 
L 2425 1950 
L 2425 1025 
L 3950 1025 
z
M 3950 2350 
L 3950 3150 
L 2425 3150 
L 2425 2350 
L 3950 2350 
z
M 1525 5300 
Q 1750 5000 2225 4350 
Q 1950 4225 1700 4075 
Q 1450 4575 1075 5025 
Q 1350 5225 1525 5300 
z
" transform="scale(0.015625)"/>
      </defs>
      <use xlink:href="#SimHei-65f6"/>
      <use xlink:href="#SimHei-95f4" x="100"/>
     </g>
    </g>
   </g>
   <g id="matplotlib.axis_2">
    <g id="ytick_1">
     <g id="line2d_7">
      <defs>
       <path id="m6ba1d2885a" d="M 0 0 
L 3.5 0 
" style="stroke: #000000; stroke-width: 0.8"/>
      </defs>
      <g>
       <use xlink:href="#m6ba1d2885a" x="38.59125" y="120.930471" style="stroke: #000000; stroke-width: 0.8"/>
      </g>
     </g>
     <g id="text_8">
      <!-- -1.0 -->
      <g transform="translate(21.09125 123.336721)scale(0.07 -0.07)">
       <defs>
        <path id="SimHei-2d" d="M 2975 2125 
L 125 2125 
L 125 2525 
L 2975 2525 
L 2975 2125 
z
" transform="scale(0.015625)"/>
        <path id="SimHei-2e" d="M 1075 125 
L 500 125 
L 500 675 
L 1075 675 
L 1075 125 
z
" transform="scale(0.015625)"/>
       </defs>
       <use xlink:href="#SimHei-2d"/>
       <use xlink:href="#SimHei-31" x="50"/>
       <use xlink:href="#SimHei-2e" x="100"/>
       <use xlink:href="#SimHei-30" x="150"/>
      </g>
     </g>
    </g>
    <g id="ytick_2">
     <g id="line2d_8">
      <g>
       <use xlink:href="#m6ba1d2885a" x="38.59125" y="102.113735" style="stroke: #000000; stroke-width: 0.8"/>
      </g>
     </g>
     <g id="text_9">
      <!-- -0.5 -->
      <g transform="translate(21.09125 104.519985)scale(0.07 -0.07)">
       <defs>
        <path id="SimHei-35" d="M 550 1325 
Q 725 650 1150 575 
Q 1575 500 1837 662 
Q 2100 825 2212 1087 
Q 2325 1350 2312 1675 
Q 2300 2000 2137 2225 
Q 1975 2450 1725 2525 
Q 1475 2600 1162 2525 
Q 850 2450 650 2175 
L 225 2225 
Q 275 2375 700 4375 
L 2675 4375 
L 2675 3925 
L 1075 3925 
Q 950 3250 825 2850 
Q 1200 3025 1525 3012 
Q 1850 3000 2150 2862 
Q 2450 2725 2587 2487 
Q 2725 2250 2787 2012 
Q 2850 1775 2837 1500 
Q 2825 1225 2725 937 
Q 2625 650 2425 462 
Q 2225 275 1937 162 
Q 1650 50 1275 75 
Q 900 100 562 350 
Q 225 600 100 1200 
L 550 1325 
z
" transform="scale(0.015625)"/>
       </defs>
       <use xlink:href="#SimHei-2d"/>
       <use xlink:href="#SimHei-30" x="50"/>
       <use xlink:href="#SimHei-2e" x="100"/>
       <use xlink:href="#SimHei-35" x="150"/>
      </g>
     </g>
    </g>
    <g id="ytick_3">
     <g id="line2d_9">
      <g>
       <use xlink:href="#m6ba1d2885a" x="38.59125" y="83.296999" style="stroke: #000000; stroke-width: 0.8"/>
      </g>
     </g>
     <g id="text_10">
      <!-- 0.0 -->
      <g transform="translate(24.59125 85.703249)scale(0.07 -0.07)">
       <use xlink:href="#SimHei-30"/>
       <use xlink:href="#SimHei-2e" x="50"/>
       <use xlink:href="#SimHei-30" x="100"/>
      </g>
     </g>
    </g>
    <g id="ytick_4">
     <g id="line2d_10">
      <g>
       <use xlink:href="#m6ba1d2885a" x="38.59125" y="64.480263" style="stroke: #000000; stroke-width: 0.8"/>
      </g>
     </g>
     <g id="text_11">
      <!-- 0.5 -->
      <g transform="translate(24.59125 66.886513)scale(0.07 -0.07)">
       <use xlink:href="#SimHei-30"/>
       <use xlink:href="#SimHei-2e" x="50"/>
       <use xlink:href="#SimHei-35" x="100"/>
      </g>
     </g>
    </g>
    <g id="ytick_5">
     <g id="line2d_11">
      <g>
       <use xlink:href="#m6ba1d2885a" x="38.59125" y="45.663527" style="stroke: #000000; stroke-width: 0.8"/>
      </g>
     </g>
     <g id="text_12">
      <!-- 1.0 -->
      <g transform="translate(24.59125 48.069777)scale(0.07 -0.07)">
       <use xlink:href="#SimHei-31"/>
       <use xlink:href="#SimHei-2e" x="50"/>
       <use xlink:href="#SimHei-30" x="100"/>
      </g>
     </g>
    </g>
    <g id="ytick_6">
     <g id="line2d_12">
      <g>
       <use xlink:href="#m6ba1d2885a" x="38.59125" y="26.846792" style="stroke: #000000; stroke-width: 0.8"/>
      </g>
     </g>
     <g id="text_13">
      <!-- 1.5 -->
      <g transform="translate(24.59125 29.253042)scale(0.07 -0.07)">
       <use xlink:href="#SimHei-31"/>
       <use xlink:href="#SimHei-2e" x="50"/>
       <use xlink:href="#SimHei-35" x="100"/>
      </g>
     </g>
    </g>
    <g id="text_14">
     <!-- 值 -->
     <g transform="translate(16.21625 78.498745)rotate(-90)scale(0.07 -0.07)">
      <defs>
       <path id="SimHei-503c" d="M 3675 4450 
L 3675 5100 
Q 3975 5075 4350 5050 
Q 4225 4875 4200 4450 
L 5125 4450 
Q 5550 4450 5875 4475 
L 5875 4025 
Q 5525 4050 5125 4050 
L 4175 4050 
L 4125 3500 
L 5400 3500 
Q 5375 3200 5375 2700 
L 5375 150 
Q 5875 150 6100 175 
L 6100 -275 
Q 5775 -250 5200 -250 
L 2850 -250 
Q 2275 -250 1900 -275 
L 1900 175 
Q 2125 150 2600 150 
L 2600 2700 
Q 2600 3175 2575 3500 
L 3600 3500 
L 3650 4050 
L 3200 4050 
Q 2575 4050 2225 4025 
L 2225 4475 
Q 2550 4450 3200 4450 
L 3675 4450 
z
M 2225 4900 
Q 2025 4675 1650 3750 
L 1650 450 
Q 1650 -75 1675 -550 
L 1150 -550 
Q 1175 -125 1175 375 
L 1175 2950 
Q 875 2450 625 2150 
Q 425 2425 250 2575 
Q 500 2825 937 3537 
Q 1375 4250 1625 5150 
Q 1975 4975 2225 4900 
z
M 4925 2650 
L 4925 3150 
L 3075 3150 
L 3075 2650 
L 4925 2650 
z
M 4925 150 
L 4925 625 
L 3075 625 
L 3075 150 
L 4925 150 
z
M 4925 1000 
L 4925 1450 
L 3075 1450 
L 3075 1000 
L 4925 1000 
z
M 4925 1825 
L 4925 2275 
L 3075 2275 
L 3075 1825 
L 4925 1825 
z
" transform="scale(0.015625)"/>
      </defs>
      <use xlink:href="#SimHei-503c"/>
     </g>
    </g>
   </g>
   <g id="line2d_13">
    <path d="M 45.581408 115.684526 
L 46.420227 114.243135 
L 47.119243 112.549632 
L 47.538652 111.477602 
L 48.936684 108.000591 
L 49.495896 105.874002 
L 50.055109 103.352495 
L 50.334715 100.949872 
L 51.732747 94.019868 
L 52.851172 87.980582 
L 54.249204 79.744821 
L 56.206448 72.903715 
L 56.486054 71.188457 
L 57.464676 68.480537 
L 62.357787 55.799039 
L 63.616015 53.313828 
L 63.895621 52.225283 
L 64.035425 51.959911 
L 64.315031 50.68661 
L 67.250897 45.665178 
L 67.949913 44.745969 
L 70.606173 41.84601 
L 72.423614 40.587562 
L 74.940071 39.262236 
L 75.219677 38.643223 
L 76.477906 37.405438 
L 78.01574 35.551778 
L 79.413772 33.602322 
L 79.693378 32.734032 
L 81.930229 29.131542 
L 82.489441 28.182006 
L 82.769048 27.13664 
L 83.887473 25.146793 
L 84.167079 24.42848 
L 87.522355 18.100503 
L 88.361174 16.63625 
L 88.64078 17.300559 
L 90.038812 22.004535 
L 90.318418 22.652384 
L 91.157237 20.656905 
L 91.996056 18.678657 
L 92.135859 18.720483 
L 92.415465 19.43249 
L 95.071725 23.591042 
L 95.211529 23.819377 
L 95.491135 24.861277 
L 97.588182 28.591748 
L 98.706608 30.346859 
L 100.524049 32.747191 
L 101.083261 33.40675 
L 101.223064 56.805557 
L 102.481293 67.882168 
L 102.760899 71.668375 
L 104.857946 88.662267 
L 106.675387 102.353721 
L 107.514206 108.79086 
L 108.073419 112.807231 
L 108.632632 131.892144 
L 108.772435 132.089482 
L 109.471451 131.629972 
L 117.580034 131.843338 
L 118.139246 131.820476 
L 118.558656 131.835974 
L 118.978065 131.829717 
L 119.397475 131.820187 
L 119.956687 131.830584 
L 120.655703 131.770467 
L 121.494522 131.837707 
L 122.752751 131.732251 
L 123.451766 131.788709 
L 124.010979 131.786495 
L 124.430388 131.792271 
L 124.849798 131.892192 
L 124.989601 131.739856 
L 125.269207 131.895705 
L 125.548814 131.537752 
L 127.366255 131.43865 
L 127.925467 131.174649 
L 128.904089 130.36248 
L 129.183696 128.835367 
L 132.119562 120.557973 
L 135.474838 111.022038 
L 136.03405 110.092092 
L 137.292279 108.719144 
L 137.851492 108.252847 
L 138.550507 108.165874 
L 139.668933 108.223054 
L 140.507752 108.529507 
L 141.066964 108.840483 
L 142.464996 110.028703 
L 143.164011 110.609601 
L 144.282437 111.285365 
L 145.540665 111.267701 
L 146.379484 110.458709 
L 146.519287 110.298094 
L 146.798894 109.70295 
L 148.336728 107.257009 
L 152.251217 100.244988 
L 152.950232 98.594708 
L 153.090036 98.211197 
L 153.369642 97.096618 
L 154.62787 93.476994 
L 154.907477 91.648867 
L 156.025902 87.928793 
L 156.305508 86.168099 
L 156.585115 85.651216 
L 157.144327 85.217552 
L 157.70354 84.980216 
L 159.241375 84.206552 
L 160.499603 83.681776 
L 160.779209 83.754165 
L 161.058816 83.974559 
L 161.757831 84.179165 
L 162.037438 84.301034 
L 162.736453 84.615236 
L 163.295666 84.459386 
L 165.812123 83.6966 
L 168.608186 82.890929 
L 169.726611 82.260985 
L 170.705233 81.706223 
L 171.963462 81.060685 
L 173.780903 79.838966 
L 174.200312 79.479858 
L 176.017753 78.042703 
L 178.813817 74.553081 
L 181.749683 69.247896 
L 182.029289 68.693229 
L 182.308895 67.542023 
L 183.986533 63.822237 
L 185.384565 60.250123 
L 185.384565 60.250123 
" clip-path="url(#p518caf6d0c)" style="fill: none; stroke: #ff0000; stroke-width: 1.5; stroke-linecap: square"/>
   </g>
   <g id="line2d_14">
    <path d="M 45.581408 115.684526 
L 45.721211 112.483383 
L 46.14062 111.644589 
L 46.56003 110.089571 
L 46.979439 107.401227 
L 47.259046 105.70322 
L 47.678455 103.490043 
L 48.097865 99.918306 
L 49.775503 81.167268 
L 51.313337 63.329204 
L 52.152156 56.212397 
L 52.431763 54.816096 
L 52.711369 54.369751 
L 52.851172 54.54642 
L 53.130778 55.763188 
L 53.410385 58.087974 
L 53.689991 57.742951 
L 53.829794 57.802847 
L 54.1094 58.301379 
L 54.808416 60.080535 
L 55.088023 60.287921 
L 56.625857 62.319068 
L 56.905464 62.461117 
L 57.18507 62.304082 
L 57.464676 61.825165 
L 58.163692 60.394371 
L 58.583101 59.556105 
L 59.84133 56.502384 
L 60.819952 54.519904 
L 61.518968 53.213341 
L 61.938377 51.833518 
L 62.777196 48.423773 
L 64.315031 45.832471 
L 65.293653 45.257512 
L 66.691685 44.75816 
L 67.111094 44.604443 
L 68.369322 44.553416 
L 68.788732 44.824516 
L 69.347945 45.277821 
L 70.186763 45.413073 
L 70.885779 45.60198 
L 74.380858 45.614529 
L 75.77889 45.278526 
L 76.338102 45.26264 
L 77.176921 45.359776 
L 78.574953 45.687973 
L 80.392394 46.337839 
L 86.40393 48.967375 
L 88.780583 49.686946 
L 89.759205 49.848591 
L 90.318418 49.738406 
L 91.017434 49.37414 
L 91.856253 48.91841 
L 92.135859 48.879 
L 92.275662 48.763688 
L 92.555269 48.135575 
L 93.533891 45.015617 
L 93.9533 45.042513 
L 94.232907 45.471426 
L 94.652316 47.008389 
L 95.211529 49.934895 
L 95.770741 55.320685 
L 96.60956 65.897309 
L 97.448379 76.22637 
L 98.147395 81.874644 
L 98.706608 84.481474 
L 99.26582 85.93509 
L 99.964836 87.039535 
L 100.663852 87.634731 
L 101.642474 88.298954 
L 101.92208 88.893891 
L 102.34149 90.378389 
L 102.760899 91.811202 
L 103.320112 92.31892 
L 104.019128 92.94884 
L 105.696765 93.154583 
L 107.793813 92.984966 
L 108.632632 92.972532 
L 108.912238 93.282119 
L 109.191844 94.014415 
L 109.471451 95.369311 
L 110.030663 99.268116 
L 110.450073 102.941566 
L 111.009285 105.30611 
L 111.987907 109.556587 
L 113.385939 113.702829 
L 114.644167 116.541904 
L 116.182002 119.426697 
L 118.27905 122.887256 
L 121.354719 127.555963 
L 123.311963 130.173924 
L 124.709995 131.672922 
L 126.108026 132.793356 
L 126.946845 133.185195 
L 127.506058 133.295732 
L 127.925467 133.318132 
L 129.043893 133.350891 
L 129.742908 133.227617 
L 135.335035 131.333698 
L 135.614641 131.112929 
L 135.894247 130.482193 
L 136.45346 128.218843 
L 136.872869 127.862518 
L 137.152476 127.599748 
L 137.432082 127.401689 
L 138.131098 126.25143 
L 138.69031 124.374756 
L 139.10972 122.876305 
L 139.668933 121.49656 
L 141.34657 116.128962 
L 142.464996 111.430547 
L 142.884405 108.625482 
L 143.863027 99.595854 
L 144.701846 89.431846 
L 145.820271 75.295231 
L 146.379484 70.568867 
L 146.65909 68.597701 
L 147.218303 63.492232 
L 148.196925 57.319552 
L 148.895941 54.119792 
L 149.594957 51.705355 
L 150.293973 50.158961 
L 150.992988 49.248161 
L 151.552201 48.843906 
L 152.950232 48.510963 
L 153.369642 48.850633 
L 154.068658 49.763114 
L 154.62787 50.034189 
L 155.326886 50.42287 
L 158.122949 51.099097 
L 158.402556 51.464108 
L 158.961768 52.417203 
L 159.520981 52.768533 
L 160.219997 53.21534 
L 160.639406 53.363182 
L 161.058816 53.773684 
L 162.177241 55.11416 
L 163.01606 56.08363 
L 163.575272 56.589678 
L 164.693698 57.247529 
L 166.091729 57.741505 
L 167.769367 58.07397 
L 168.887792 58.128895 
L 169.167399 57.943126 
L 169.586808 57.325606 
L 170.285824 56.046461 
L 171.404249 54.463256 
L 171.963462 54.251036 
L 173.780903 53.453489 
L 174.340116 53.212552 
L 176.017753 52.63059 
L 176.856572 52.24256 
L 178.674013 51.835319 
L 179.233226 51.628344 
L 179.792439 51.153004 
L 180.351651 50.780847 
L 181.889486 50.067374 
L 183.007911 49.854591 
L 185.104959 49.488342 
L 185.384565 49.396261 
L 185.384565 49.396261 
" clip-path="url(#p518caf6d0c)" style="fill: none; stroke-dasharray: 5.55,2.4; stroke-dashoffset: 0; stroke: #008000; stroke-width: 1.5"/>
   </g>
   <g id="patch_3">
    <path d="M 38.59125 139.19749 
L 38.59125 10.8 
" style="fill: none; stroke: #000000; stroke-linejoin: miter; stroke-linecap: square"/>
   </g>
   <g id="patch_4">
    <path d="M 192.374723 139.19749 
L 192.374723 10.8 
" style="fill: none; stroke: #000000; stroke-linejoin: miter; stroke-linecap: square"/>
   </g>
   <g id="patch_5">
    <path d="M 38.59125 139.19749 
L 192.374723 139.19749 
" style="fill: none; stroke: #000000; stroke-linejoin: miter; stroke-linecap: square"/>
   </g>
   <g id="patch_6">
    <path d="M 38.59125 10.8 
L 192.374723 10.8 
" style="fill: none; stroke: #000000; stroke-linejoin: miter; stroke-linecap: square"/>
   </g>
   <g id="legend_1">
    <g id="patch_7">
     <path d="M 144.974723 32.75625 
L 188.174723 32.75625 
Q 189.374723 32.75625 189.374723 31.55625 
L 189.374723 15 
Q 189.374723 13.8 188.174723 13.8 
L 144.974723 13.8 
Q 143.774723 13.8 143.774723 15 
L 143.774723 31.55625 
Q 143.774723 32.75625 144.974723 32.75625 
z
" style="fill: #ffffff; opacity: 0.8; stroke: #cccccc; stroke-linejoin: miter"/>
    </g>
    <g id="line2d_15">
     <path d="M 146.174723 18.904688 
L 152.174723 18.904688 
L 158.174723 18.904688 
" style="fill: none; stroke: #ff0000; stroke-width: 1.5; stroke-linecap: square"/>
    </g>
    <g id="text_15">
     <!-- 真实值 -->
     <g transform="translate(162.974723 21.004688)scale(0.06 -0.06)">
      <defs>
       <path id="SimHei-771f" d="M 3550 5100 
Q 3450 4925 3400 4625 
L 4850 4625 
Q 5175 4625 5725 4650 
L 5725 4250 
Q 5200 4275 4850 4275 
L 3350 4275 
L 3300 3850 
L 5050 3850 
Q 5025 3550 5025 3150 
L 5025 1075 
L 5400 1075 
Q 5800 1075 6075 1100 
L 6075 625 
Q 5575 650 4900 650 
L 1450 650 
Q 775 650 350 625 
L 350 1100 
Q 725 1075 1100 1075 
L 1425 1075 
L 1425 3075 
Q 1425 3450 1400 3850 
L 2825 3850 
L 2850 4275 
L 1400 4275 
Q 1050 4275 625 4250 
L 625 4650 
Q 1175 4625 1375 4625 
L 2925 4625 
Q 2950 4875 2950 5125 
Q 3300 5100 3550 5100 
z
M 4075 525 
Q 4500 425 4925 250 
Q 5350 75 5825 -150 
Q 5550 -425 5450 -575 
Q 5025 -300 4550 -100 
Q 4075 100 3800 175 
Q 3925 350 4075 525 
z
M 4525 3150 
L 4525 3475 
L 1925 3475 
L 1925 3150 
L 4525 3150 
z
M 4525 1075 
L 4525 1400 
L 1925 1400 
L 1925 1075 
L 4525 1075 
z
M 2775 200 
Q 2375 -25 1875 -225 
Q 1375 -425 950 -575 
Q 775 -400 600 -250 
Q 1225 -50 1625 137 
Q 2025 325 2350 525 
Q 2550 350 2775 200 
z
M 4525 1775 
L 4525 2075 
L 1925 2075 
L 1925 1775 
L 4525 1775 
z
M 4525 2475 
L 4525 2775 
L 1925 2775 
L 1925 2475 
L 4525 2475 
z
" transform="scale(0.015625)"/>
       <path id="SimHei-5b9e" d="M 4125 3500 
Q 4050 3200 4000 2675 
Q 3950 2150 3850 1550 
L 5025 1550 
Q 5475 1550 5975 1575 
L 5975 1100 
Q 5450 1125 5000 1125 
L 3725 1125 
Q 3500 625 3050 250 
Q 2600 -125 2000 -337 
Q 1400 -550 925 -675 
Q 825 -375 500 -200 
Q 1225 -125 2050 212 
Q 2875 550 3200 1125 
L 1425 1125 
Q 975 1125 425 1100 
L 425 1575 
Q 1000 1550 1425 1550 
L 3375 1550 
Q 3450 1975 3487 2462 
Q 3525 2950 3500 3650 
Q 3800 3550 4125 3500 
z
M 3250 5250 
Q 3450 4850 3600 4375 
L 5775 4375 
Q 5750 4100 5750 3825 
Q 5750 3575 5775 3275 
L 5200 3275 
L 5200 3975 
L 1225 3975 
L 1225 3225 
L 675 3225 
Q 700 3525 700 3800 
Q 700 4100 675 4375 
L 2975 4375 
Q 2900 4675 2700 5075 
Q 2900 5150 3250 5250 
z
M 4000 825 
Q 4550 525 5050 262 
Q 5550 0 5925 -225 
Q 5750 -425 5550 -650 
Q 5100 -325 4575 -37 
Q 4050 250 3675 400 
Q 3875 650 4000 825 
z
M 1175 2750 
Q 1600 2550 2350 2050 
Q 2250 1900 2050 1650 
Q 1350 2175 925 2350 
Q 1075 2500 1175 2750 
z
M 3150 2825 
Q 2975 2625 2850 2425 
Q 2050 3000 1675 3125 
Q 1800 3300 1950 3525 
L 3150 2825 
z
" transform="scale(0.015625)"/>
      </defs>
      <use xlink:href="#SimHei-771f"/>
      <use xlink:href="#SimHei-5b9e" x="100"/>
      <use xlink:href="#SimHei-503c" x="200"/>
     </g>
    </g>
    <g id="line2d_16">
     <path d="M 146.174723 27.50625 
L 152.174723 27.50625 
L 158.174723 27.50625 
" style="fill: none; stroke-dasharray: 5.55,2.4; stroke-dashoffset: 0; stroke: #008000; stroke-width: 1.5"/>
    </g>
    <g id="text_16">
     <!-- 模型输出 -->
     <g transform="translate(162.974723 29.60625)scale(0.06 -0.06)">
      <defs>
       <path id="SimHei-6a21" d="M 5700 3675 
Q 5675 3400 5675 2725 
Q 5675 2050 5700 1725 
L 4375 1725 
Q 4350 1450 4325 1200 
L 5225 1200 
Q 5750 1200 6025 1225 
L 6025 825 
Q 5725 850 5225 850 
L 4700 850 
Q 5075 375 5437 137 
Q 5800 -100 6200 -200 
Q 5975 -375 5850 -625 
Q 5275 -400 4862 25 
Q 4450 450 4300 775 
L 4225 775 
Q 4000 275 3537 -62 
Q 3075 -400 2475 -625 
Q 2350 -375 2125 -200 
Q 2775 -75 3200 200 
Q 3625 475 3775 850 
L 3325 850 
Q 2800 850 2400 825 
L 2400 1225 
Q 2800 1200 3350 1200 
L 3875 1200 
Q 3925 1475 3925 1725 
L 2750 1725 
Q 2775 2075 2775 2700 
Q 2775 3350 2750 3675 
L 5700 3675 
z
M 2175 1650 
Q 2025 1975 1675 2525 
L 1675 300 
Q 1675 -300 1700 -550 
L 1175 -550 
Q 1200 -275 1200 250 
L 1200 2225 
Q 1125 2000 962 1712 
Q 800 1425 600 1050 
Q 450 1275 200 1425 
Q 600 1825 850 2425 
Q 1100 3025 1175 3425 
L 950 3425 
Q 700 3425 400 3400 
L 400 3825 
Q 675 3800 825 3800 
L 1200 3800 
L 1200 4350 
Q 1200 4775 1175 5150 
L 1700 5150 
Q 1675 4825 1675 4425 
L 1675 3800 
Q 2075 3800 2375 3825 
L 2375 3400 
Q 2050 3425 1675 3425 
L 1675 2575 
Q 1850 2675 2000 2775 
Q 2150 2525 2287 2325 
Q 2425 2125 2550 1925 
Q 2325 1775 2175 1650 
z
M 3375 4300 
L 3175 4300 
Q 2700 4300 2425 4275 
L 2425 4675 
Q 2700 4650 3150 4650 
L 3375 4650 
Q 3375 5000 3350 5225 
L 3825 5225 
Q 3800 5000 3800 4650 
L 4550 4650 
Q 4550 4975 4525 5200 
L 5025 5200 
Q 5000 4925 5000 4650 
L 5375 4650 
Q 5650 4650 5950 4675 
L 5950 4275 
Q 5650 4300 5375 4300 
L 5000 4300 
L 5000 3850 
L 4550 3850 
L 4550 4300 
L 3800 4300 
L 3800 3875 
L 3375 3875 
L 3375 4300 
z
M 5275 2075 
L 5275 2525 
L 3200 2525 
L 3200 2075 
L 5275 2075 
z
M 5275 2875 
L 5275 3325 
L 3200 3325 
L 3200 2875 
L 5275 2875 
z
" transform="scale(0.015625)"/>
       <path id="SimHei-578b" d="M 2625 1775 
Q 2650 2325 2650 2700 
L 2650 3000 
L 1825 3000 
Q 1725 2375 1425 2000 
Q 1125 1625 775 1425 
Q 650 1650 375 1900 
Q 850 2075 1062 2362 
Q 1275 2650 1350 3000 
Q 900 3000 375 2975 
L 375 3450 
Q 925 3425 1400 3425 
Q 1425 3950 1425 4475 
Q 1075 4475 700 4450 
L 700 4900 
Q 1050 4875 1525 4875 
L 3000 4875 
Q 3275 4875 3650 4900 
L 3650 4450 
Q 3325 4475 3125 4475 
L 3125 3425 
Q 3450 3425 3825 3450 
L 3825 2975 
Q 3450 3000 3125 3000 
L 3125 2675 
Q 3125 2225 3150 1775 
L 2625 1775 
z
M 3000 1175 
Q 3000 1375 2975 1725 
L 3500 1725 
Q 3475 1375 3475 1175 
L 4550 1175 
Q 5050 1175 5450 1200 
L 5450 725 
Q 4975 750 4550 750 
L 3475 750 
L 3475 -50 
L 5275 -50 
Q 5700 -50 6100 -25 
L 6100 -500 
Q 5725 -475 5300 -475 
L 1250 -475 
Q 775 -475 400 -500 
L 400 -25 
Q 775 -50 1250 -50 
L 3000 -50 
L 3000 750 
L 2025 750 
Q 1500 750 975 725 
L 1050 1200 
Q 1500 1175 2025 1175 
L 3000 1175 
z
M 5775 5200 
Q 5750 4775 5750 4325 
L 5750 2400 
Q 5775 1950 5612 1775 
Q 5450 1600 4900 1525 
Q 4825 1775 4675 2100 
Q 5175 2075 5237 2150 
Q 5300 2225 5300 2525 
L 5300 4325 
Q 5300 4775 5275 5200 
L 5775 5200 
z
M 4600 4750 
Q 4575 4450 4575 3975 
L 4575 3200 
Q 4575 2825 4600 2425 
L 4100 2425 
Q 4125 2825 4125 3200 
L 4125 3975 
Q 4125 4450 4100 4750 
L 4600 4750 
z
M 2650 3425 
L 2650 4475 
L 1875 4475 
Q 1850 3750 1850 3425 
L 2650 3425 
z
" transform="scale(0.015625)"/>
       <path id="SimHei-8f93" d="M 3225 3650 
Q 2725 3100 2550 2950 
L 4100 2950 
Q 4075 2675 4075 2275 
L 4075 -100 
Q 4100 -325 3962 -425 
Q 3825 -525 3475 -600 
Q 3400 -350 3225 -100 
Q 3650 -100 3650 25 
L 3650 675 
L 2975 675 
L 2975 -575 
L 2525 -575 
Q 2550 -125 2550 325 
L 2550 2075 
Q 2550 2500 2525 2925 
L 2375 2800 
Q 2200 3000 1950 3100 
Q 2575 3525 3025 4087 
Q 3475 4650 3775 5300 
Q 4075 5150 4325 5100 
L 4225 4975 
Q 4700 4325 5225 3975 
Q 5750 3625 6200 3475 
Q 5975 3275 5825 3025 
Q 5275 3300 4875 3650 
L 4875 3350 
L 3225 3350 
L 3225 3650 
z
M 2225 825 
Q 1975 775 1725 675 
Q 1725 -100 1750 -650 
L 1275 -650 
Q 1300 -100 1300 575 
Q 725 425 475 325 
Q 400 575 250 825 
Q 650 875 1300 1025 
L 1300 1975 
Q 700 1925 400 1800 
L 225 2225 
Q 425 2350 600 2850 
Q 775 3350 875 3825 
Q 625 3825 350 3800 
L 350 4250 
Q 675 4225 950 4225 
Q 1050 4700 1075 5175 
Q 1400 5075 1675 5025 
Q 1525 4850 1400 4225 
Q 1925 4225 2300 4250 
L 2300 3800 
Q 1850 3825 1325 3825 
Q 1075 2900 825 2325 
L 1300 2375 
Q 1300 2700 1275 3125 
L 1750 3125 
Q 1725 2900 1725 2425 
L 2150 2475 
L 2150 2075 
L 1725 2025 
L 1725 1125 
L 2225 1250 
L 2225 825 
z
M 5775 2925 
Q 5750 2525 5750 2150 
L 5750 -100 
Q 5750 -375 5625 -475 
Q 5500 -575 5000 -675 
Q 4950 -450 4750 -175 
Q 5300 -200 5325 0 
L 5325 2100 
Q 5325 2500 5300 2925 
L 5775 2925 
z
M 4975 2700 
Q 4950 2400 4950 2000 
L 4950 900 
Q 4950 425 4975 125 
L 4475 125 
Q 4500 500 4500 875 
L 4500 2000 
Q 4500 2350 4475 2700 
L 4975 2700 
z
M 4750 3750 
Q 4450 4025 3975 4675 
Q 3575 4075 3300 3750 
L 4750 3750 
z
M 3650 2000 
L 3650 2575 
L 2975 2575 
L 2975 2000 
L 3650 2000 
z
M 3650 1075 
L 3650 1625 
L 2975 1625 
L 2975 1075 
L 3650 1075 
z
" transform="scale(0.015625)"/>
       <path id="SimHei-51fa" d="M 1475 4550 
Q 1450 4225 1450 3950 
L 1450 2950 
L 2925 2950 
L 2925 4425 
Q 2925 4775 2900 5125 
L 3425 5125 
Q 3400 4825 3400 4425 
L 3400 2950 
L 4900 2950 
L 4900 3875 
Q 4900 4275 4875 4525 
L 5400 4525 
Q 5375 4275 5375 3850 
L 5375 3175 
Q 5375 2775 5400 2525 
L 3400 2525 
L 3400 225 
L 5125 225 
L 5125 1275 
Q 5125 1650 5100 1925 
L 5625 1925 
Q 5600 1650 5600 1300 
L 5600 175 
Q 5600 -325 5625 -650 
L 5125 -650 
L 5125 -200 
L 675 -200 
Q 700 100 700 525 
L 700 1275 
Q 700 1700 675 1950 
L 1200 1950 
Q 1175 1700 1175 1275 
L 1175 225 
L 2925 225 
L 2925 2525 
L 950 2525 
Q 975 2775 975 3150 
L 975 3925 
Q 975 4250 950 4550 
L 1475 4550 
z
" transform="scale(0.015625)"/>
      </defs>
      <use xlink:href="#SimHei-6a21"/>
      <use xlink:href="#SimHei-578b" x="100"/>
      <use xlink:href="#SimHei-8f93" x="200"/>
      <use xlink:href="#SimHei-51fa" x="300"/>
     </g>
    </g>
   </g>
  </g>
  <g id="axes_2">
   <g id="patch_8">
    <path d="M 231.616447 139.19749 
L 385.39992 139.19749 
L 385.39992 10.8 
L 231.616447 10.8 
z
" style="fill: #ffffff"/>
   </g>
   <g id="matplotlib.axis_3">
    <g id="xtick_7">
     <g id="line2d_17">
      <g>
       <use xlink:href="#mf8c3f0a6e0" x="238.606605" y="139.19749" style="stroke: #000000; stroke-width: 0.8"/>
      </g>
     </g>
     <g id="text_17">
      <!-- 0 -->
      <g transform="translate(236.856605 147.50999)scale(0.07 -0.07)">
       <use xlink:href="#SimHei-30"/>
      </g>
     </g>
    </g>
    <g id="xtick_8">
     <g id="line2d_18">
      <g>
       <use xlink:href="#mf8c3f0a6e0" x="266.567236" y="139.19749" style="stroke: #000000; stroke-width: 0.8"/>
      </g>
     </g>
     <g id="text_18">
      <!-- 200 -->
      <g transform="translate(261.317236 147.50999)scale(0.07 -0.07)">
       <use xlink:href="#SimHei-32"/>
       <use xlink:href="#SimHei-30" x="50"/>
       <use xlink:href="#SimHei-30" x="100"/>
      </g>
     </g>
    </g>
    <g id="xtick_9">
     <g id="line2d_19">
      <g>
       <use xlink:href="#mf8c3f0a6e0" x="294.527868" y="139.19749" style="stroke: #000000; stroke-width: 0.8"/>
      </g>
     </g>
     <g id="text_19">
      <!-- 400 -->
      <g transform="translate(289.277868 147.50999)scale(0.07 -0.07)">
       <use xlink:href="#SimHei-34"/>
       <use xlink:href="#SimHei-30" x="50"/>
       <use xlink:href="#SimHei-30" x="100"/>
      </g>
     </g>
    </g>
    <g id="xtick_10">
     <g id="line2d_20">
      <g>
       <use xlink:href="#mf8c3f0a6e0" x="322.488499" y="139.19749" style="stroke: #000000; stroke-width: 0.8"/>
      </g>
     </g>
     <g id="text_20">
      <!-- 600 -->
      <g transform="translate(317.238499 147.50999)scale(0.07 -0.07)">
       <use xlink:href="#SimHei-36"/>
       <use xlink:href="#SimHei-30" x="50"/>
       <use xlink:href="#SimHei-30" x="100"/>
      </g>
     </g>
    </g>
    <g id="xtick_11">
     <g id="line2d_21">
      <g>
       <use xlink:href="#mf8c3f0a6e0" x="350.44913" y="139.19749" style="stroke: #000000; stroke-width: 0.8"/>
      </g>
     </g>
     <g id="text_21">
      <!-- 800 -->
      <g transform="translate(345.19913 147.50999)scale(0.07 -0.07)">
       <use xlink:href="#SimHei-38"/>
       <use xlink:href="#SimHei-30" x="50"/>
       <use xlink:href="#SimHei-30" x="100"/>
      </g>
     </g>
    </g>
    <g id="xtick_12">
     <g id="line2d_22">
      <g>
       <use xlink:href="#mf8c3f0a6e0" x="378.409762" y="139.19749" style="stroke: #000000; stroke-width: 0.8"/>
      </g>
     </g>
     <g id="text_22">
      <!-- 1000 -->
      <g transform="translate(371.409762 147.50999)scale(0.07 -0.07)">
       <use xlink:href="#SimHei-31"/>
       <use xlink:href="#SimHei-30" x="50"/>
       <use xlink:href="#SimHei-30" x="100"/>
       <use xlink:href="#SimHei-30" x="150"/>
      </g>
     </g>
    </g>
    <g id="text_23">
     <!-- 时间 -->
     <g transform="translate(301.508183 157.990459)scale(0.07 -0.07)">
      <use xlink:href="#SimHei-65f6"/>
      <use xlink:href="#SimHei-95f4" x="100"/>
     </g>
    </g>
   </g>
   <g id="matplotlib.axis_4">
    <g id="ytick_7">
     <g id="line2d_23">
      <g>
       <use xlink:href="#m6ba1d2885a" x="231.616447" y="134.140201" style="stroke: #000000; stroke-width: 0.8"/>
      </g>
     </g>
     <g id="text_24">
      <!-- -1.0 -->
      <g transform="translate(214.116447 136.546451)scale(0.07 -0.07)">
       <use xlink:href="#SimHei-2d"/>
       <use xlink:href="#SimHei-31" x="50"/>
       <use xlink:href="#SimHei-2e" x="100"/>
       <use xlink:href="#SimHei-30" x="150"/>
      </g>
     </g>
    </g>
    <g id="ytick_8">
     <g id="line2d_24">
      <g>
       <use xlink:href="#m6ba1d2885a" x="231.616447" y="117.502711" style="stroke: #000000; stroke-width: 0.8"/>
      </g>
     </g>
     <g id="text_25">
      <!-- -0.5 -->
      <g transform="translate(214.116447 119.908961)scale(0.07 -0.07)">
       <use xlink:href="#SimHei-2d"/>
       <use xlink:href="#SimHei-30" x="50"/>
       <use xlink:href="#SimHei-2e" x="100"/>
       <use xlink:href="#SimHei-35" x="150"/>
      </g>
     </g>
    </g>
    <g id="ytick_9">
     <g id="line2d_25">
      <g>
       <use xlink:href="#m6ba1d2885a" x="231.616447" y="100.865222" style="stroke: #000000; stroke-width: 0.8"/>
      </g>
     </g>
     <g id="text_26">
      <!-- 0.0 -->
      <g transform="translate(217.616447 103.271472)scale(0.07 -0.07)">
       <use xlink:href="#SimHei-30"/>
       <use xlink:href="#SimHei-2e" x="50"/>
       <use xlink:href="#SimHei-30" x="100"/>
      </g>
     </g>
    </g>
    <g id="ytick_10">
     <g id="line2d_26">
      <g>
       <use xlink:href="#m6ba1d2885a" x="231.616447" y="84.227733" style="stroke: #000000; stroke-width: 0.8"/>
      </g>
     </g>
     <g id="text_27">
      <!-- 0.5 -->
      <g transform="translate(217.616447 86.633983)scale(0.07 -0.07)">
       <use xlink:href="#SimHei-30"/>
       <use xlink:href="#SimHei-2e" x="50"/>
       <use xlink:href="#SimHei-35" x="100"/>
      </g>
     </g>
    </g>
    <g id="ytick_11">
     <g id="line2d_27">
      <g>
       <use xlink:href="#m6ba1d2885a" x="231.616447" y="67.590244" style="stroke: #000000; stroke-width: 0.8"/>
      </g>
     </g>
     <g id="text_28">
      <!-- 1.0 -->
      <g transform="translate(217.616447 69.996494)scale(0.07 -0.07)">
       <use xlink:href="#SimHei-31"/>
       <use xlink:href="#SimHei-2e" x="50"/>
       <use xlink:href="#SimHei-30" x="100"/>
      </g>
     </g>
    </g>
    <g id="ytick_12">
     <g id="line2d_28">
      <g>
       <use xlink:href="#m6ba1d2885a" x="231.616447" y="50.952754" style="stroke: #000000; stroke-width: 0.8"/>
      </g>
     </g>
     <g id="text_29">
      <!-- 1.5 -->
      <g transform="translate(217.616447 53.359004)scale(0.07 -0.07)">
       <use xlink:href="#SimHei-31"/>
       <use xlink:href="#SimHei-2e" x="50"/>
       <use xlink:href="#SimHei-35" x="100"/>
      </g>
     </g>
    </g>
    <g id="ytick_13">
     <g id="line2d_29">
      <g>
       <use xlink:href="#m6ba1d2885a" x="231.616447" y="34.315265" style="stroke: #000000; stroke-width: 0.8"/>
      </g>
     </g>
     <g id="text_30">
      <!-- 2.0 -->
      <g transform="translate(217.616447 36.721515)scale(0.07 -0.07)">
       <use xlink:href="#SimHei-32"/>
       <use xlink:href="#SimHei-2e" x="50"/>
       <use xlink:href="#SimHei-30" x="100"/>
      </g>
     </g>
    </g>
    <g id="ytick_14">
     <g id="line2d_30">
      <g>
       <use xlink:href="#m6ba1d2885a" x="231.616447" y="17.677776" style="stroke: #000000; stroke-width: 0.8"/>
      </g>
     </g>
     <g id="text_31">
      <!-- 2.5 -->
      <g transform="translate(217.616447 20.084026)scale(0.07 -0.07)">
       <use xlink:href="#SimHei-32"/>
       <use xlink:href="#SimHei-2e" x="50"/>
       <use xlink:href="#SimHei-35" x="100"/>
      </g>
     </g>
    </g>
    <g id="text_32">
     <!-- 值 -->
     <g transform="translate(209.241447 78.498745)rotate(-90)scale(0.07 -0.07)">
      <use xlink:href="#SimHei-503c"/>
     </g>
    </g>
   </g>
   <g id="line2d_31">
    <path d="M 238.606605 116.792455 
L 240.144439 119.704145 
L 240.843455 120.112054 
L 241.96188 120.921448 
L 242.38129 121.220223 
L 243.359912 121.801183 
L 244.338534 122.520137 
L 246.016172 123.543125 
L 247.2744 124.139625 
L 249.651054 125.913934 
L 250.070464 125.905754 
L 251.328692 125.771849 
L 254.404361 126.036272 
L 257.060621 126.27417 
L 257.480031 126.371737 
L 258.878062 126.647844 
L 260.97511 127.256496 
L 263.771173 127.388065 
L 266.567236 127.75134 
L 272.159362 128.525562 
L 279.56893 129.139939 
L 281.526174 129.349678 
L 283.343615 130.242967 
L 285.161056 130.292276 
L 285.580465 130.510895 
L 287.1183 130.931191 
L 291.032789 131.678072 
L 293.968655 132.597768 
L 294.108458 132.63808 
L 294.248261 16.63625 
L 295.50649 21.126648 
L 295.786096 22.708745 
L 298.022946 30.362168 
L 299.281175 34.117604 
L 300.539403 38.297191 
L 301.098616 39.986786 
L 301.797632 67.542616 
L 302.077238 69.741661 
L 302.356844 70.005733 
L 302.496647 70.064156 
L 302.636451 69.971848 
L 303.195663 68.969308 
L 303.47527 70.06182 
L 303.754876 70.041956 
L 304.733498 69.38528 
L 305.432514 69.414492 
L 305.991726 69.609625 
L 306.411136 70.00807 
L 307.389758 71.08656 
L 308.647986 72.244506 
L 311.723656 75.510473 
L 312.003262 77.093972 
L 312.422672 79.119968 
L 314.10031 83.862169 
L 314.799325 85.396125 
L 315.358538 86.029081 
L 316.057554 86.426942 
L 316.896373 86.295724 
L 317.595388 85.357449 
L 317.874995 87.705707 
L 318.294404 87.192051 
L 318.99342 86.38184 
L 319.273026 86.225967 
L 319.972042 86.207973 
L 320.251648 86.283105 
L 321.090467 86.901221 
L 321.929286 87.175225 
L 322.208893 86.733079 
L 322.768105 86.34293 
L 323.467121 86.154106 
L 324.30594 86.187992 
L 325.703972 86.539932 
L 328.639838 87.394428 
L 329.478657 87.32397 
L 330.457279 87.421186 
L 331.156295 87.926195 
L 331.85531 88.43915 
L 332.414523 88.798802 
L 333.253342 89.583191 
L 333.532948 90.176536 
L 334.791177 92.16958 
L 335.070783 92.976053 
L 336.189208 95.445596 
L 338.705665 101.15283 
L 343.319169 109.323532 
L 345.55602 112.272846 
L 347.653067 114.690977 
L 347.932674 115.302666 
L 349.051099 116.404759 
L 349.330705 116.922622 
L 350.169524 118.093888 
L 350.44913 118.41463 
L 351.427752 118.821372 
L 353.5248 119.588233 
L 353.804406 119.595361 
L 354.084012 119.71431 
L 354.223816 119.657289 
L 354.503422 119.711856 
L 354.922831 119.812578 
L 355.482044 119.808839 
L 356.600469 119.739783 
L 361.353777 119.620483 
L 361.633383 119.681593 
L 362.472202 120.155171 
L 364.14984 121.282269 
L 366.8061 122.699379 
L 367.225509 123.005049 
L 369.602163 124.554662 
L 371.978817 126.187821 
L 373.376848 127.751456 
L 375.054486 129.681288 
L 375.334092 130.308167 
L 377.710746 132.755861 
L 378.409762 133.361241 
L 378.409762 133.361241 
" clip-path="url(#pe0fe304f4a)" style="fill: none; stroke: #ff0000; stroke-width: 1.5; stroke-linecap: square"/>
   </g>
   <g id="line2d_32">
    <path d="M 238.606605 116.792455 
L 238.746408 106.222499 
L 239.585227 107.474447 
L 240.004636 108.535127 
L 240.424046 109.64195 
L 240.983258 111.385729 
L 242.660896 117.88677 
L 244.058928 123.408544 
L 244.757944 125.298494 
L 245.177353 126.03726 
L 245.596763 126.348077 
L 245.876369 126.238186 
L 246.155975 125.79094 
L 246.435582 125.001812 
L 246.854991 124.987301 
L 247.2744 124.697249 
L 247.833613 124.210142 
L 248.392826 124.027439 
L 249.371448 123.660609 
L 249.93066 123.627319 
L 250.210267 123.810001 
L 250.629676 124.438381 
L 251.049086 125.071812 
L 252.726724 126.756412 
L 253.565543 127.246974 
L 255.24318 128.025399 
L 255.66259 128.164786 
L 256.221802 128.145571 
L 256.641212 127.915511 
L 257.200425 127.494319 
L 260.276094 126.889042 
L 264.470189 126.670109 
L 267.825465 126.823143 
L 269.782709 127.406814 
L 271.879756 127.70637 
L 274.536016 127.820351 
L 280.687355 127.818109 
L 285.300859 127.80686 
L 285.580465 126.989369 
L 285.860072 124.888686 
L 286.139678 120.745682 
L 286.559088 113.214399 
L 286.838694 111.227453 
L 287.258103 105.655671 
L 288.935741 74.350489 
L 290.054167 53.059101 
L 290.613379 46.674703 
L 291.172592 42.87614 
L 291.592001 41.303151 
L 292.011411 40.423824 
L 292.43082 39.974695 
L 293.129836 39.544937 
L 293.968655 39.347947 
L 294.947277 39.124694 
L 295.50649 38.821528 
L 295.925899 38.846875 
L 299.141372 38.739854 
L 301.797632 38.736006 
L 302.077238 38.939577 
L 302.356844 39.4603 
L 302.916057 41.362385 
L 303.195663 43.225189 
L 303.47527 45.124371 
L 303.894679 46.117201 
L 305.991726 52.25086 
L 308.508183 57.755951 
L 312.422672 66.023279 
L 314.519719 71.030376 
L 317.175979 78.047312 
L 319.412829 83.781078 
L 321.64968 87.780428 
L 322.907908 89.743226 
L 324.585546 92.95894 
L 325.284562 93.99181 
L 326.682594 95.821638 
L 327.940822 97.151945 
L 328.360232 97.384044 
L 328.639838 97.282596 
L 329.338854 96.746082 
L 330.457279 98.287369 
L 330.876688 98.775438 
L 331.435901 99.859315 
L 331.995114 101.282522 
L 332.414523 102.234681 
L 334.371767 106.771711 
L 335.490193 109.592119 
L 336.189208 111.817004 
L 338.146453 120.624625 
L 339.264878 125.502866 
L 340.383303 128.560165 
L 341.082319 129.65982 
L 341.641531 130.206973 
L 342.060941 130.370877 
L 342.759957 130.334058 
L 344.157988 130.234288 
L 346.255036 130.163347 
L 347.653067 129.636335 
L 350.029721 129.361857 
L 350.86854 129.407059 
L 351.427752 129.740025 
L 351.986965 130.063577 
L 352.685981 130.32568 
L 353.384997 130.568747 
L 354.922831 130.825411 
L 357.439288 130.971703 
L 359.955745 131.038192 
L 362.612005 131.161858 
L 363.73043 131.217356 
L 365.827478 131.166388 
L 369.881769 131.01269 
L 372.538029 130.821333 
L 373.936061 130.20683 
L 374.495273 130.017611 
L 376.871927 129.585322 
L 378.409762 129.558559 
L 378.409762 129.558559 
" clip-path="url(#pe0fe304f4a)" style="fill: none; stroke-dasharray: 5.55,2.4; stroke-dashoffset: 0; stroke: #008000; stroke-width: 1.5"/>
   </g>
   <g id="patch_9">
    <path d="M 231.616447 139.19749 
L 231.616447 10.8 
" style="fill: none; stroke: #000000; stroke-linejoin: miter; stroke-linecap: square"/>
   </g>
   <g id="patch_10">
    <path d="M 385.39992 139.19749 
L 385.39992 10.8 
" style="fill: none; stroke: #000000; stroke-linejoin: miter; stroke-linecap: square"/>
   </g>
   <g id="patch_11">
    <path d="M 231.616447 139.19749 
L 385.39992 139.19749 
" style="fill: none; stroke: #000000; stroke-linejoin: miter; stroke-linecap: square"/>
   </g>
   <g id="patch_12">
    <path d="M 231.616447 10.8 
L 385.39992 10.8 
" style="fill: none; stroke: #000000; stroke-linejoin: miter; stroke-linecap: square"/>
   </g>
   <g id="legend_2">
    <g id="patch_13">
     <path d="M 337.99992 32.75625 
L 381.19992 32.75625 
Q 382.39992 32.75625 382.39992 31.55625 
L 382.39992 15 
Q 382.39992 13.8 381.19992 13.8 
L 337.99992 13.8 
Q 336.79992 13.8 336.79992 15 
L 336.79992 31.55625 
Q 336.79992 32.75625 337.99992 32.75625 
z
" style="fill: #ffffff; opacity: 0.8; stroke: #cccccc; stroke-linejoin: miter"/>
    </g>
    <g id="line2d_33">
     <path d="M 339.19992 18.904688 
L 345.19992 18.904688 
L 351.19992 18.904688 
" style="fill: none; stroke: #ff0000; stroke-width: 1.5; stroke-linecap: square"/>
    </g>
    <g id="text_33">
     <!-- 真实值 -->
     <g transform="translate(355.99992 21.004688)scale(0.06 -0.06)">
      <use xlink:href="#SimHei-771f"/>
      <use xlink:href="#SimHei-5b9e" x="100"/>
      <use xlink:href="#SimHei-503c" x="200"/>
     </g>
    </g>
    <g id="line2d_34">
     <path d="M 339.19992 27.50625 
L 345.19992 27.50625 
L 351.19992 27.50625 
" style="fill: none; stroke-dasharray: 5.55,2.4; stroke-dashoffset: 0; stroke: #008000; stroke-width: 1.5"/>
    </g>
    <g id="text_34">
     <!-- 模型输出 -->
     <g transform="translate(355.99992 29.60625)scale(0.06 -0.06)">
      <use xlink:href="#SimHei-6a21"/>
      <use xlink:href="#SimHei-578b" x="100"/>
      <use xlink:href="#SimHei-8f93" x="200"/>
      <use xlink:href="#SimHei-51fa" x="300"/>
     </g>
    </g>
   </g>
  </g>
 </g>
 <defs>
  <clipPath id="p518caf6d0c">
   <rect x="38.59125" y="10.8" width="153.783473" height="128.39749"/>
  </clipPath>
  <clipPath id="pe0fe304f4a">
   <rect x="231.616447" y="10.8" width="153.783473" height="128.39749"/>
  </clipPath>
 </defs>
</svg>
