<?xml version="1.0" encoding="utf-8" standalone="no"?>
<!DOCTYPE svg PUBLIC "-//W3C//DTD SVG 1.1//EN"
  "http://www.w3.org/Graphics/SVG/1.1/DTD/svg11.dtd">
<svg xmlns:xlink="http://www.w3.org/1999/xlink" width="396.850394pt" height="170.07874pt" viewBox="0 0 396.850394 170.07874" xmlns="http://www.w3.org/2000/svg" version="1.1">
 <metadata>
  <rdf:RDF xmlns:dc="http://purl.org/dc/elements/1.1/" xmlns:cc="http://creativecommons.org/ns#" xmlns:rdf="http://www.w3.org/1999/02/22-rdf-syntax-ns#">
   <cc:Work>
    <dc:type rdf:resource="http://purl.org/dc/dcmitype/StillImage"/>
    <dc:date>2023-02-28T16:49:37.596777</dc:date>
    <dc:format>image/svg+xml</dc:format>
    <dc:creator>
     <cc:Agent>
      <dc:title>Matplotlib v3.5.2, https://matplotlib.org/</dc:title>
     </cc:Agent>
    </dc:creator>
   </cc:Work>
  </rdf:RDF>
 </metadata>
 <defs>
  <style type="text/css">*{stroke-linejoin: round; stroke-linecap: butt}</style>
 </defs>
 <g id="figure_1">
  <g id="patch_1">
   <path d="M 0 170.07874 
L 396.850394 170.07874 
L 396.850394 0 
L 0 0 
L 0 170.07874 
z
" style="fill: none"/>
  </g>
  <g id="axes_1">
   <g id="patch_2">
    <path d="M 38.59125 139.19749 
L 192.374723 139.19749 
L 192.374723 10.8 
L 38.59125 10.8 
z
" style="fill: #ffffff"/>
   </g>
   <g id="matplotlib.axis_1">
    <g id="xtick_1">
     <g id="line2d_1">
      <defs>
       <path id="m3bcc847526" d="M 0 0 
L 0 -3.5 
" style="stroke: #000000; stroke-width: 0.8"/>
      </defs>
      <g>
       <use xlink:href="#m3bcc847526" x="45.581408" y="139.19749" style="stroke: #000000; stroke-width: 0.8"/>
      </g>
     </g>
     <g id="text_1">
      <!-- 0 -->
      <g transform="translate(43.831408 147.50999)scale(0.07 -0.07)">
       <defs>
        <path id="SimHei-30" d="M 225 2537 
Q 250 3200 412 3587 
Q 575 3975 875 4225 
Q 1175 4475 1612 4475 
Q 2050 4475 2375 4112 
Q 2700 3750 2800 3200 
Q 2900 2650 2862 1937 
Q 2825 1225 2612 775 
Q 2400 325 1975 150 
Q 1550 -25 1125 187 
Q 700 400 525 750 
Q 350 1100 275 1487 
Q 200 1875 225 2537 
z
M 750 2687 
Q 675 2000 800 1462 
Q 925 925 1212 700 
Q 1500 475 1800 612 
Q 2100 750 2237 1162 
Q 2375 1575 2375 2062 
Q 2375 2550 2337 2950 
Q 2300 3350 2112 3675 
Q 1925 4000 1612 4012 
Q 1300 4025 1062 3700 
Q 825 3375 750 2687 
z
" transform="scale(0.015625)"/>
       </defs>
       <use xlink:href="#SimHei-30"/>
      </g>
     </g>
    </g>
    <g id="xtick_2">
     <g id="line2d_2">
      <g>
       <use xlink:href="#m3bcc847526" x="73.542039" y="139.19749" style="stroke: #000000; stroke-width: 0.8"/>
      </g>
     </g>
     <g id="text_2">
      <!-- 200 -->
      <g transform="translate(68.292039 147.50999)scale(0.07 -0.07)">
       <defs>
        <path id="SimHei-32" d="M 300 250 
Q 325 625 650 925 
Q 975 1225 1475 1862 
Q 1975 2500 2125 2850 
Q 2275 3200 2237 3450 
Q 2200 3700 2000 3862 
Q 1800 4025 1537 4000 
Q 1275 3975 1037 3800 
Q 800 3625 675 3275 
L 200 3350 
Q 400 3925 712 4187 
Q 1025 4450 1450 4475 
Q 1700 4500 1900 4462 
Q 2100 4425 2312 4287 
Q 2525 4150 2662 3875 
Q 2800 3600 2762 3212 
Q 2725 2825 2375 2287 
Q 2025 1750 1025 600 
L 2825 600 
L 2825 150 
L 300 150 
L 300 250 
z
" transform="scale(0.015625)"/>
       </defs>
       <use xlink:href="#SimHei-32"/>
       <use xlink:href="#SimHei-30" x="50"/>
       <use xlink:href="#SimHei-30" x="100"/>
      </g>
     </g>
    </g>
    <g id="xtick_3">
     <g id="line2d_3">
      <g>
       <use xlink:href="#m3bcc847526" x="101.502671" y="139.19749" style="stroke: #000000; stroke-width: 0.8"/>
      </g>
     </g>
     <g id="text_3">
      <!-- 400 -->
      <g transform="translate(96.252671 147.50999)scale(0.07 -0.07)">
       <defs>
        <path id="SimHei-34" d="M 2000 1100 
L 75 1100 
L 75 1525 
L 2100 4450 
L 2475 4450 
L 2475 1525 
L 3075 1525 
L 3075 1100 
L 2475 1100 
L 2475 150 
L 2000 150 
L 2000 1100 
z
M 2000 1525 
L 2000 3500 
L 600 1525 
L 2000 1525 
z
" transform="scale(0.015625)"/>
       </defs>
       <use xlink:href="#SimHei-34"/>
       <use xlink:href="#SimHei-30" x="50"/>
       <use xlink:href="#SimHei-30" x="100"/>
      </g>
     </g>
    </g>
    <g id="xtick_4">
     <g id="line2d_4">
      <g>
       <use xlink:href="#m3bcc847526" x="129.463302" y="139.19749" style="stroke: #000000; stroke-width: 0.8"/>
      </g>
     </g>
     <g id="text_4">
      <!-- 600 -->
      <g transform="translate(124.213302 147.50999)scale(0.07 -0.07)">
       <defs>
        <path id="SimHei-36" d="M 250 1612 
Q 275 1975 387 2225 
Q 500 2475 725 2850 
L 1750 4450 
L 2325 4450 
L 1275 2800 
Q 1950 2975 2350 2750 
Q 2750 2525 2887 2237 
Q 3025 1950 3037 1612 
Q 3050 1275 2937 950 
Q 2825 625 2537 362 
Q 2250 100 1737 75 
Q 1225 50 862 262 
Q 500 475 362 862 
Q 225 1250 250 1612 
z
M 1025 787 
Q 1250 550 1625 525 
Q 2000 500 2250 775 
Q 2500 1050 2500 1575 
Q 2500 2100 2187 2300 
Q 1875 2500 1487 2450 
Q 1100 2400 925 2075 
Q 750 1750 775 1387 
Q 800 1025 1025 787 
z
" transform="scale(0.015625)"/>
       </defs>
       <use xlink:href="#SimHei-36"/>
       <use xlink:href="#SimHei-30" x="50"/>
       <use xlink:href="#SimHei-30" x="100"/>
      </g>
     </g>
    </g>
    <g id="xtick_5">
     <g id="line2d_5">
      <g>
       <use xlink:href="#m3bcc847526" x="157.423934" y="139.19749" style="stroke: #000000; stroke-width: 0.8"/>
      </g>
     </g>
     <g id="text_5">
      <!-- 800 -->
      <g transform="translate(152.173934 147.50999)scale(0.07 -0.07)">
       <defs>
        <path id="SimHei-38" d="M 175 1375 
Q 175 1675 325 1962 
Q 475 2250 825 2425 
Q 525 2600 425 2812 
Q 325 3025 312 3300 
Q 300 3575 387 3775 
Q 475 3975 650 4150 
Q 825 4325 1037 4387 
Q 1250 4450 1500 4450 
Q 1750 4450 1950 4400 
Q 2150 4350 2375 4187 
Q 2600 4025 2700 3725 
Q 2800 3425 2687 3025 
Q 2575 2625 2100 2400 
Q 2525 2275 2700 2012 
Q 2875 1750 2875 1375 
Q 2875 1000 2762 775 
Q 2650 550 2512 400 
Q 2375 250 2137 162 
Q 1900 75 1537 75 
Q 1175 75 912 162 
Q 650 250 475 425 
Q 300 600 237 837 
Q 175 1075 175 1375 
z
M 687 1400 
Q 675 1100 787 875 
Q 900 650 1200 587 
Q 1500 525 1825 600 
Q 2150 675 2275 950 
Q 2400 1225 2362 1500 
Q 2325 1775 2050 1962 
Q 1775 2150 1450 2125 
Q 1125 2100 912 1900 
Q 700 1700 687 1400 
z
M 775 3350 
Q 775 3100 950 2875 
Q 1125 2650 1500 2650 
Q 1875 2650 2062 2875 
Q 2250 3100 2237 3412 
Q 2225 3725 2012 3875 
Q 1800 4025 1437 4000 
Q 1075 3975 925 3787 
Q 775 3600 775 3350 
z
" transform="scale(0.015625)"/>
       </defs>
       <use xlink:href="#SimHei-38"/>
       <use xlink:href="#SimHei-30" x="50"/>
       <use xlink:href="#SimHei-30" x="100"/>
      </g>
     </g>
    </g>
    <g id="xtick_6">
     <g id="line2d_6">
      <g>
       <use xlink:href="#m3bcc847526" x="185.384565" y="139.19749" style="stroke: #000000; stroke-width: 0.8"/>
      </g>
     </g>
     <g id="text_6">
      <!-- 1000 -->
      <g transform="translate(178.384565 147.50999)scale(0.07 -0.07)">
       <defs>
        <path id="SimHei-31" d="M 1400 3600 
Q 1075 3275 575 2975 
L 575 3450 
Q 1200 3875 1600 4450 
L 1900 4450 
L 1900 150 
L 1400 150 
L 1400 3600 
z
" transform="scale(0.015625)"/>
       </defs>
       <use xlink:href="#SimHei-31"/>
       <use xlink:href="#SimHei-30" x="50"/>
       <use xlink:href="#SimHei-30" x="100"/>
       <use xlink:href="#SimHei-30" x="150"/>
      </g>
     </g>
    </g>
    <g id="text_7">
     <!-- 时间 -->
     <g transform="translate(108.482986 157.990459)scale(0.07 -0.07)">
      <defs>
       <path id="SimHei-65f6" d="M 2525 4575 
Q 2500 3675 2500 2400 
Q 2500 1125 2525 400 
L 2000 400 
L 2000 875 
L 1000 875 
L 1000 50 
L 475 50 
Q 500 1200 500 2350 
Q 500 3525 475 4575 
L 2525 4575 
z
M 4875 3825 
Q 4875 4575 4850 5225 
L 5400 5225 
Q 5375 4575 5375 3825 
Q 5750 3825 6175 3850 
L 6175 3375 
Q 5750 3400 5375 3400 
L 5375 50 
Q 5375 -325 5075 -425 
Q 4775 -525 4300 -575 
Q 4300 -275 4025 0 
Q 4500 -50 4687 -25 
Q 4875 0 4875 300 
L 4875 3400 
Q 3625 3400 2775 3375 
L 2775 3850 
Q 3575 3825 4875 3825 
z
M 2000 1300 
L 2000 2550 
L 1000 2550 
L 1000 1300 
L 2000 1300 
z
M 2000 2975 
L 2000 4150 
L 1000 4150 
L 1000 2975 
L 2000 2975 
z
M 3550 2725 
Q 3875 2200 4175 1600 
Q 3925 1525 3650 1375 
Q 3450 1975 3075 2500 
Q 3300 2600 3550 2725 
z
" transform="scale(0.015625)"/>
       <path id="SimHei-95f4" d="M 4450 3550 
Q 4425 3075 4425 2725 
L 4425 1400 
Q 4425 1075 4450 625 
L 1925 625 
Q 1950 1075 1950 1425 
L 1950 2725 
Q 1950 3075 1925 3550 
L 4450 3550 
z
M 5800 4875 
Q 5775 4400 5775 3925 
L 5775 250 
Q 5800 -325 5462 -450 
Q 5125 -575 4725 -625 
Q 4700 -325 4525 -25 
Q 5000 -50 5137 25 
Q 5275 100 5275 350 
L 5275 4450 
L 3775 4450 
Q 3175 4450 2650 4425 
L 2650 4900 
Q 3175 4875 3775 4875 
L 5800 4875 
z
M 550 -525 
Q 600 -25 600 525 
L 600 3150 
Q 600 3675 550 4025 
L 1125 4025 
Q 1100 3650 1100 3300 
L 1100 500 
Q 1100 0 1125 -525 
L 550 -525 
z
M 3950 1025 
L 3950 1950 
L 2425 1950 
L 2425 1025 
L 3950 1025 
z
M 3950 2350 
L 3950 3150 
L 2425 3150 
L 2425 2350 
L 3950 2350 
z
M 1525 5300 
Q 1750 5000 2225 4350 
Q 1950 4225 1700 4075 
Q 1450 4575 1075 5025 
Q 1350 5225 1525 5300 
z
" transform="scale(0.015625)"/>
      </defs>
      <use xlink:href="#SimHei-65f6"/>
      <use xlink:href="#SimHei-95f4" x="100"/>
     </g>
    </g>
   </g>
   <g id="matplotlib.axis_2">
    <g id="ytick_1">
     <g id="line2d_7">
      <defs>
       <path id="md82675c132" d="M 0 0 
L 3.5 0 
" style="stroke: #000000; stroke-width: 0.8"/>
      </defs>
      <g>
       <use xlink:href="#md82675c132" x="38.59125" y="122.079309" style="stroke: #000000; stroke-width: 0.8"/>
      </g>
     </g>
     <g id="text_8">
      <!-- -1.0 -->
      <g transform="translate(21.09125 124.485559)scale(0.07 -0.07)">
       <defs>
        <path id="SimHei-2d" d="M 2975 2125 
L 125 2125 
L 125 2525 
L 2975 2525 
L 2975 2125 
z
" transform="scale(0.015625)"/>
        <path id="SimHei-2e" d="M 1075 125 
L 500 125 
L 500 675 
L 1075 675 
L 1075 125 
z
" transform="scale(0.015625)"/>
       </defs>
       <use xlink:href="#SimHei-2d"/>
       <use xlink:href="#SimHei-31" x="50"/>
       <use xlink:href="#SimHei-2e" x="100"/>
       <use xlink:href="#SimHei-30" x="150"/>
      </g>
     </g>
    </g>
    <g id="ytick_2">
     <g id="line2d_8">
      <g>
       <use xlink:href="#md82675c132" x="38.59125" y="103.0553" style="stroke: #000000; stroke-width: 0.8"/>
      </g>
     </g>
     <g id="text_9">
      <!-- -0.5 -->
      <g transform="translate(21.09125 105.46155)scale(0.07 -0.07)">
       <defs>
        <path id="SimHei-35" d="M 550 1325 
Q 725 650 1150 575 
Q 1575 500 1837 662 
Q 2100 825 2212 1087 
Q 2325 1350 2312 1675 
Q 2300 2000 2137 2225 
Q 1975 2450 1725 2525 
Q 1475 2600 1162 2525 
Q 850 2450 650 2175 
L 225 2225 
Q 275 2375 700 4375 
L 2675 4375 
L 2675 3925 
L 1075 3925 
Q 950 3250 825 2850 
Q 1200 3025 1525 3012 
Q 1850 3000 2150 2862 
Q 2450 2725 2587 2487 
Q 2725 2250 2787 2012 
Q 2850 1775 2837 1500 
Q 2825 1225 2725 937 
Q 2625 650 2425 462 
Q 2225 275 1937 162 
Q 1650 50 1275 75 
Q 900 100 562 350 
Q 225 600 100 1200 
L 550 1325 
z
" transform="scale(0.015625)"/>
       </defs>
       <use xlink:href="#SimHei-2d"/>
       <use xlink:href="#SimHei-30" x="50"/>
       <use xlink:href="#SimHei-2e" x="100"/>
       <use xlink:href="#SimHei-35" x="150"/>
      </g>
     </g>
    </g>
    <g id="ytick_3">
     <g id="line2d_9">
      <g>
       <use xlink:href="#md82675c132" x="38.59125" y="84.031291" style="stroke: #000000; stroke-width: 0.8"/>
      </g>
     </g>
     <g id="text_10">
      <!-- 0.0 -->
      <g transform="translate(24.59125 86.437541)scale(0.07 -0.07)">
       <use xlink:href="#SimHei-30"/>
       <use xlink:href="#SimHei-2e" x="50"/>
       <use xlink:href="#SimHei-30" x="100"/>
      </g>
     </g>
    </g>
    <g id="ytick_4">
     <g id="line2d_10">
      <g>
       <use xlink:href="#md82675c132" x="38.59125" y="65.007282" style="stroke: #000000; stroke-width: 0.8"/>
      </g>
     </g>
     <g id="text_11">
      <!-- 0.5 -->
      <g transform="translate(24.59125 67.413532)scale(0.07 -0.07)">
       <use xlink:href="#SimHei-30"/>
       <use xlink:href="#SimHei-2e" x="50"/>
       <use xlink:href="#SimHei-35" x="100"/>
      </g>
     </g>
    </g>
    <g id="ytick_5">
     <g id="line2d_11">
      <g>
       <use xlink:href="#md82675c132" x="38.59125" y="45.983273" style="stroke: #000000; stroke-width: 0.8"/>
      </g>
     </g>
     <g id="text_12">
      <!-- 1.0 -->
      <g transform="translate(24.59125 48.389523)scale(0.07 -0.07)">
       <use xlink:href="#SimHei-31"/>
       <use xlink:href="#SimHei-2e" x="50"/>
       <use xlink:href="#SimHei-30" x="100"/>
      </g>
     </g>
    </g>
    <g id="ytick_6">
     <g id="line2d_12">
      <g>
       <use xlink:href="#md82675c132" x="38.59125" y="26.959264" style="stroke: #000000; stroke-width: 0.8"/>
      </g>
     </g>
     <g id="text_13">
      <!-- 1.5 -->
      <g transform="translate(24.59125 29.365514)scale(0.07 -0.07)">
       <use xlink:href="#SimHei-31"/>
       <use xlink:href="#SimHei-2e" x="50"/>
       <use xlink:href="#SimHei-35" x="100"/>
      </g>
     </g>
    </g>
    <g id="text_14">
     <!-- 值 -->
     <g transform="translate(16.21625 78.498745)rotate(-90)scale(0.07 -0.07)">
      <defs>
       <path id="SimHei-503c" d="M 3675 4450 
L 3675 5100 
Q 3975 5075 4350 5050 
Q 4225 4875 4200 4450 
L 5125 4450 
Q 5550 4450 5875 4475 
L 5875 4025 
Q 5525 4050 5125 4050 
L 4175 4050 
L 4125 3500 
L 5400 3500 
Q 5375 3200 5375 2700 
L 5375 150 
Q 5875 150 6100 175 
L 6100 -275 
Q 5775 -250 5200 -250 
L 2850 -250 
Q 2275 -250 1900 -275 
L 1900 175 
Q 2125 150 2600 150 
L 2600 2700 
Q 2600 3175 2575 3500 
L 3600 3500 
L 3650 4050 
L 3200 4050 
Q 2575 4050 2225 4025 
L 2225 4475 
Q 2550 4450 3200 4450 
L 3675 4450 
z
M 2225 4900 
Q 2025 4675 1650 3750 
L 1650 450 
Q 1650 -75 1675 -550 
L 1150 -550 
Q 1175 -125 1175 375 
L 1175 2950 
Q 875 2450 625 2150 
Q 425 2425 250 2575 
Q 500 2825 937 3537 
Q 1375 4250 1625 5150 
Q 1975 4975 2225 4900 
z
M 4925 2650 
L 4925 3150 
L 3075 3150 
L 3075 2650 
L 4925 2650 
z
M 4925 150 
L 4925 625 
L 3075 625 
L 3075 150 
L 4925 150 
z
M 4925 1000 
L 4925 1450 
L 3075 1450 
L 3075 1000 
L 4925 1000 
z
M 4925 1825 
L 4925 2275 
L 3075 2275 
L 3075 1825 
L 4925 1825 
z
" transform="scale(0.015625)"/>
      </defs>
      <use xlink:href="#SimHei-503c"/>
     </g>
    </g>
   </g>
   <g id="line2d_13">
    <path d="M 45.581408 116.775578 
L 46.420227 115.31831 
L 47.119243 113.606152 
L 47.538652 112.522313 
L 48.936684 109.007001 
L 49.495896 106.856987 
L 50.055109 104.307705 
L 50.334715 101.878617 
L 51.732747 94.872276 
L 52.851172 88.766465 
L 54.249204 80.439984 
L 56.206448 73.523521 
L 56.486054 71.789369 
L 57.464676 69.05162 
L 62.357787 56.230431 
L 63.616015 53.717844 
L 63.895621 52.617309 
L 64.035425 52.349014 
L 64.315031 51.061686 
L 67.250897 45.984942 
L 67.949913 45.055608 
L 70.606173 42.123705 
L 72.423614 40.851394 
L 74.940071 39.511469 
L 75.219677 38.885637 
L 76.477906 37.634218 
L 78.01574 35.760139 
L 79.413772 33.789209 
L 79.693378 32.911354 
L 81.930229 29.269182 
L 82.489441 28.309187 
L 82.769048 27.252306 
L 83.887473 25.240539 
L 84.167079 24.514314 
L 87.522355 18.116632 
L 88.361174 16.63625 
L 88.64078 17.307877 
L 90.038812 22.063669 
L 90.318418 22.718654 
L 91.157237 20.701194 
L 91.996056 18.701155 
L 92.135859 18.743441 
L 92.415465 19.463292 
L 95.071725 23.667652 
L 95.211529 23.898502 
L 95.491135 24.951879 
L 97.588182 28.723443 
L 98.706608 30.497887 
L 100.524049 32.924659 
L 101.083261 33.591483 
L 101.223064 57.248037 
L 102.481293 68.44666 
L 102.760899 72.274573 
L 104.857946 89.455659 
L 106.675387 103.297929 
L 107.514206 109.805976 
L 108.073419 113.866589 
L 108.632632 133.161728 
L 108.772435 133.361241 
L 109.471451 132.896669 
L 117.580034 133.112385 
L 118.139246 133.089271 
L 118.558656 133.10494 
L 118.978065 133.098614 
L 119.397475 133.088979 
L 119.956687 133.09949 
L 120.655703 133.038712 
L 121.494522 133.106692 
L 122.752751 133.000074 
L 123.451766 133.057154 
L 124.010979 133.054916 
L 124.430388 133.060755 
L 124.849798 133.161777 
L 124.989601 133.007763 
L 125.269207 133.165329 
L 125.548814 132.803433 
L 127.366255 132.703239 
L 127.925467 132.43633 
L 128.904089 131.615215 
L 129.183696 130.071281 
L 132.119562 121.702707 
L 135.474838 112.061731 
L 136.03405 111.121541 
L 137.292279 109.73347 
L 137.851492 109.262037 
L 138.550507 109.174105 
L 139.668933 109.231915 
L 140.507752 109.541743 
L 141.066964 109.856146 
L 142.464996 111.057454 
L 143.164011 111.64475 
L 144.282437 112.327959 
L 145.540665 112.3101 
L 146.379484 111.492196 
L 146.519287 111.329813 
L 146.798894 110.728112 
L 148.336728 108.255229 
L 152.251217 101.165968 
L 152.950232 99.497509 
L 153.090036 99.109774 
L 153.369642 97.982918 
L 154.62787 94.323422 
L 154.907477 92.475158 
L 156.025902 88.714105 
L 156.305508 86.934017 
L 156.585115 86.41144 
L 157.144327 85.972999 
L 157.70354 85.733049 
L 159.101571 85.024099 
L 160.3598 84.411206 
L 160.779209 84.493493 
L 161.058816 84.716314 
L 161.757831 84.923175 
L 162.037438 85.046386 
L 162.736453 85.364048 
L 163.295666 85.206482 
L 165.812123 84.435294 
L 168.608186 83.620748 
L 169.726611 82.983865 
L 170.705233 82.422992 
L 171.963462 81.770343 
L 173.780903 80.535166 
L 174.200312 80.172102 
L 176.017753 78.719117 
L 178.813817 75.191056 
L 181.60988 70.099401 
L 182.029289 69.266656 
L 182.308895 68.102768 
L 183.986533 64.342008 
L 185.384565 60.730545 
L 185.384565 60.730545 
" clip-path="url(#p7e39e93e92)" style="fill: none; stroke: #ff0000; stroke-width: 1.5; stroke-linecap: square"/>
   </g>
   <g id="line2d_14">
    <path d="M 45.581408 116.775578 
L 45.721211 117.310003 
L 46.420227 116.455166 
L 46.979439 115.264411 
L 47.259046 114.686486 
L 48.237668 113.182403 
L 49.076487 111.761947 
L 49.775503 109.905744 
L 50.474518 108.073217 
L 51.45314 105.273024 
L 52.711369 101.278167 
L 53.410385 100.633258 
L 53.969597 99.242891 
L 55.088023 96.563701 
L 57.045267 92.1505 
L 57.324873 92.008078 
L 57.604479 92.188704 
L 57.884086 92.413101 
L 58.443298 92.646837 
L 59.981133 91.11382 
L 61.239361 89.235687 
L 61.658771 88.299634 
L 62.217984 86.363149 
L 64.874244 76.176567 
L 66.132472 72.052739 
L 68.369322 63.873941 
L 68.928535 62.967389 
L 69.208141 62.501842 
L 69.907157 60.923733 
L 73.262433 54.463515 
L 73.821646 53.460233 
L 74.800268 51.472239 
L 76.198299 47.275758 
L 78.01574 41.267058 
L 79.413772 37.361595 
L 80.532197 34.900727 
L 81.650622 33.00476 
L 82.629244 31.741818 
L 83.74767 30.661475 
L 85.005898 29.779095 
L 86.40393 29.086551 
L 88.081568 28.522241 
L 90.598024 27.942717 
L 91.29704 27.965913 
L 91.856253 28.036796 
L 92.135859 27.983738 
L 92.275662 28.128417 
L 92.555269 29.496477 
L 92.834875 32.772352 
L 93.114481 38.761151 
L 93.533891 48.899183 
L 93.813497 51.947777 
L 94.232907 59.434711 
L 94.931922 71.988313 
L 96.469757 92.122005 
L 97.308576 99.531024 
L 98.147395 104.775045 
L 98.846411 107.761439 
L 99.68523 110.097853 
L 100.384245 111.642282 
L 101.782277 114.32512 
L 102.481293 117.055758 
L 102.900702 118.251324 
L 104.438537 122.248698 
L 105.277356 123.772114 
L 106.255978 125.017502 
L 107.2346 125.875253 
L 108.213222 126.468266 
L 109.052041 126.769562 
L 109.331647 126.549146 
L 109.611254 125.7859 
L 109.89086 124.835186 
L 110.450073 122.062515 
L 111.428695 121.5067 
L 111.848104 121.5657 
L 112.267514 121.84776 
L 113.106333 122.859627 
L 113.805349 123.919052 
L 116.042199 127.417891 
L 117.160624 128.767791 
L 118.139246 129.644328 
L 119.257672 130.340836 
L 120.5159 130.832884 
L 122.053735 131.16671 
L 124.150782 131.374453 
L 125.82842 131.366643 
L 126.387633 131.078763 
L 128.065271 129.782757 
L 129.463302 129.350208 
L 129.882712 129.636518 
L 130.721531 130.489724 
L 131.420546 130.858103 
L 131.979759 131.077557 
L 133.937003 131.428782 
L 135.335035 131.62289 
L 136.313657 132.281253 
L 137.851492 131.493996 
L 138.131098 131.050062 
L 138.69031 129.525838 
L 139.249523 128.385496 
L 139.808736 127.479495 
L 140.927161 125.499472 
L 142.604799 122.30836 
L 144.00283 118.086949 
L 144.562043 116.486356 
L 145.400862 114.433338 
L 145.820271 113.932709 
L 146.239681 113.867095 
L 146.519287 113.88466 
L 146.938697 113.394081 
L 148.336728 111.761221 
L 148.895941 110.733949 
L 150.573579 106.850258 
L 151.132791 105.801432 
L 152.251217 104.19094 
L 154.068658 100.924052 
L 155.466689 97.007169 
L 156.585115 93.069604 
L 158.122949 87.469519 
L 158.961768 85.572986 
L 162.59665 72.329726 
L 163.715076 67.190125 
L 165.113107 59.628026 
L 168.608186 40.077477 
L 170.146021 33.565641 
L 171.124643 30.702187 
L 171.823659 29.335787 
L 172.802281 27.899556 
L 173.920706 26.738531 
L 174.619722 26.214425 
L 175.738147 25.61498 
L 177.136179 25.113697 
L 178.813817 24.796554 
L 179.792439 24.847036 
L 180.771061 25.1209 
L 181.749683 25.357009 
L 183.287518 25.604113 
L 185.384565 25.787735 
L 185.384565 25.787735 
" clip-path="url(#p7e39e93e92)" style="fill: none; stroke-dasharray: 5.55,2.4; stroke-dashoffset: 0; stroke: #008000; stroke-width: 1.5"/>
   </g>
   <g id="patch_3">
    <path d="M 38.59125 139.19749 
L 38.59125 10.8 
" style="fill: none; stroke: #000000; stroke-linejoin: miter; stroke-linecap: square"/>
   </g>
   <g id="patch_4">
    <path d="M 192.374723 139.19749 
L 192.374723 10.8 
" style="fill: none; stroke: #000000; stroke-linejoin: miter; stroke-linecap: square"/>
   </g>
   <g id="patch_5">
    <path d="M 38.59125 139.19749 
L 192.374723 139.19749 
" style="fill: none; stroke: #000000; stroke-linejoin: miter; stroke-linecap: square"/>
   </g>
   <g id="patch_6">
    <path d="M 38.59125 10.8 
L 192.374723 10.8 
" style="fill: none; stroke: #000000; stroke-linejoin: miter; stroke-linecap: square"/>
   </g>
   <g id="legend_1">
    <g id="patch_7">
     <path d="M 42.79125 136.19749 
L 85.99125 136.19749 
Q 87.19125 136.19749 87.19125 134.99749 
L 87.19125 118.44124 
Q 87.19125 117.24124 85.99125 117.24124 
L 42.79125 117.24124 
Q 41.59125 117.24124 41.59125 118.44124 
L 41.59125 134.99749 
Q 41.59125 136.19749 42.79125 136.19749 
z
" style="fill: #ffffff; opacity: 0.8; stroke: #cccccc; stroke-linejoin: miter"/>
    </g>
    <g id="line2d_15">
     <path d="M 43.99125 122.345928 
L 49.99125 122.345928 
L 55.99125 122.345928 
" style="fill: none; stroke: #ff0000; stroke-width: 1.5; stroke-linecap: square"/>
    </g>
    <g id="text_15">
     <!-- 真实值 -->
     <g transform="translate(60.79125 124.445928)scale(0.06 -0.06)">
      <defs>
       <path id="SimHei-771f" d="M 3550 5100 
Q 3450 4925 3400 4625 
L 4850 4625 
Q 5175 4625 5725 4650 
L 5725 4250 
Q 5200 4275 4850 4275 
L 3350 4275 
L 3300 3850 
L 5050 3850 
Q 5025 3550 5025 3150 
L 5025 1075 
L 5400 1075 
Q 5800 1075 6075 1100 
L 6075 625 
Q 5575 650 4900 650 
L 1450 650 
Q 775 650 350 625 
L 350 1100 
Q 725 1075 1100 1075 
L 1425 1075 
L 1425 3075 
Q 1425 3450 1400 3850 
L 2825 3850 
L 2850 4275 
L 1400 4275 
Q 1050 4275 625 4250 
L 625 4650 
Q 1175 4625 1375 4625 
L 2925 4625 
Q 2950 4875 2950 5125 
Q 3300 5100 3550 5100 
z
M 4075 525 
Q 4500 425 4925 250 
Q 5350 75 5825 -150 
Q 5550 -425 5450 -575 
Q 5025 -300 4550 -100 
Q 4075 100 3800 175 
Q 3925 350 4075 525 
z
M 4525 3150 
L 4525 3475 
L 1925 3475 
L 1925 3150 
L 4525 3150 
z
M 4525 1075 
L 4525 1400 
L 1925 1400 
L 1925 1075 
L 4525 1075 
z
M 2775 200 
Q 2375 -25 1875 -225 
Q 1375 -425 950 -575 
Q 775 -400 600 -250 
Q 1225 -50 1625 137 
Q 2025 325 2350 525 
Q 2550 350 2775 200 
z
M 4525 1775 
L 4525 2075 
L 1925 2075 
L 1925 1775 
L 4525 1775 
z
M 4525 2475 
L 4525 2775 
L 1925 2775 
L 1925 2475 
L 4525 2475 
z
" transform="scale(0.015625)"/>
       <path id="SimHei-5b9e" d="M 4125 3500 
Q 4050 3200 4000 2675 
Q 3950 2150 3850 1550 
L 5025 1550 
Q 5475 1550 5975 1575 
L 5975 1100 
Q 5450 1125 5000 1125 
L 3725 1125 
Q 3500 625 3050 250 
Q 2600 -125 2000 -337 
Q 1400 -550 925 -675 
Q 825 -375 500 -200 
Q 1225 -125 2050 212 
Q 2875 550 3200 1125 
L 1425 1125 
Q 975 1125 425 1100 
L 425 1575 
Q 1000 1550 1425 1550 
L 3375 1550 
Q 3450 1975 3487 2462 
Q 3525 2950 3500 3650 
Q 3800 3550 4125 3500 
z
M 3250 5250 
Q 3450 4850 3600 4375 
L 5775 4375 
Q 5750 4100 5750 3825 
Q 5750 3575 5775 3275 
L 5200 3275 
L 5200 3975 
L 1225 3975 
L 1225 3225 
L 675 3225 
Q 700 3525 700 3800 
Q 700 4100 675 4375 
L 2975 4375 
Q 2900 4675 2700 5075 
Q 2900 5150 3250 5250 
z
M 4000 825 
Q 4550 525 5050 262 
Q 5550 0 5925 -225 
Q 5750 -425 5550 -650 
Q 5100 -325 4575 -37 
Q 4050 250 3675 400 
Q 3875 650 4000 825 
z
M 1175 2750 
Q 1600 2550 2350 2050 
Q 2250 1900 2050 1650 
Q 1350 2175 925 2350 
Q 1075 2500 1175 2750 
z
M 3150 2825 
Q 2975 2625 2850 2425 
Q 2050 3000 1675 3125 
Q 1800 3300 1950 3525 
L 3150 2825 
z
" transform="scale(0.015625)"/>
      </defs>
      <use xlink:href="#SimHei-771f"/>
      <use xlink:href="#SimHei-5b9e" x="100"/>
      <use xlink:href="#SimHei-503c" x="200"/>
     </g>
    </g>
    <g id="line2d_16">
     <path d="M 43.99125 130.94749 
L 49.99125 130.94749 
L 55.99125 130.94749 
" style="fill: none; stroke-dasharray: 5.55,2.4; stroke-dashoffset: 0; stroke: #008000; stroke-width: 1.5"/>
    </g>
    <g id="text_16">
     <!-- 模型输出 -->
     <g transform="translate(60.79125 133.04749)scale(0.06 -0.06)">
      <defs>
       <path id="SimHei-6a21" d="M 5700 3675 
Q 5675 3400 5675 2725 
Q 5675 2050 5700 1725 
L 4375 1725 
Q 4350 1450 4325 1200 
L 5225 1200 
Q 5750 1200 6025 1225 
L 6025 825 
Q 5725 850 5225 850 
L 4700 850 
Q 5075 375 5437 137 
Q 5800 -100 6200 -200 
Q 5975 -375 5850 -625 
Q 5275 -400 4862 25 
Q 4450 450 4300 775 
L 4225 775 
Q 4000 275 3537 -62 
Q 3075 -400 2475 -625 
Q 2350 -375 2125 -200 
Q 2775 -75 3200 200 
Q 3625 475 3775 850 
L 3325 850 
Q 2800 850 2400 825 
L 2400 1225 
Q 2800 1200 3350 1200 
L 3875 1200 
Q 3925 1475 3925 1725 
L 2750 1725 
Q 2775 2075 2775 2700 
Q 2775 3350 2750 3675 
L 5700 3675 
z
M 2175 1650 
Q 2025 1975 1675 2525 
L 1675 300 
Q 1675 -300 1700 -550 
L 1175 -550 
Q 1200 -275 1200 250 
L 1200 2225 
Q 1125 2000 962 1712 
Q 800 1425 600 1050 
Q 450 1275 200 1425 
Q 600 1825 850 2425 
Q 1100 3025 1175 3425 
L 950 3425 
Q 700 3425 400 3400 
L 400 3825 
Q 675 3800 825 3800 
L 1200 3800 
L 1200 4350 
Q 1200 4775 1175 5150 
L 1700 5150 
Q 1675 4825 1675 4425 
L 1675 3800 
Q 2075 3800 2375 3825 
L 2375 3400 
Q 2050 3425 1675 3425 
L 1675 2575 
Q 1850 2675 2000 2775 
Q 2150 2525 2287 2325 
Q 2425 2125 2550 1925 
Q 2325 1775 2175 1650 
z
M 3375 4300 
L 3175 4300 
Q 2700 4300 2425 4275 
L 2425 4675 
Q 2700 4650 3150 4650 
L 3375 4650 
Q 3375 5000 3350 5225 
L 3825 5225 
Q 3800 5000 3800 4650 
L 4550 4650 
Q 4550 4975 4525 5200 
L 5025 5200 
Q 5000 4925 5000 4650 
L 5375 4650 
Q 5650 4650 5950 4675 
L 5950 4275 
Q 5650 4300 5375 4300 
L 5000 4300 
L 5000 3850 
L 4550 3850 
L 4550 4300 
L 3800 4300 
L 3800 3875 
L 3375 3875 
L 3375 4300 
z
M 5275 2075 
L 5275 2525 
L 3200 2525 
L 3200 2075 
L 5275 2075 
z
M 5275 2875 
L 5275 3325 
L 3200 3325 
L 3200 2875 
L 5275 2875 
z
" transform="scale(0.015625)"/>
       <path id="SimHei-578b" d="M 2625 1775 
Q 2650 2325 2650 2700 
L 2650 3000 
L 1825 3000 
Q 1725 2375 1425 2000 
Q 1125 1625 775 1425 
Q 650 1650 375 1900 
Q 850 2075 1062 2362 
Q 1275 2650 1350 3000 
Q 900 3000 375 2975 
L 375 3450 
Q 925 3425 1400 3425 
Q 1425 3950 1425 4475 
Q 1075 4475 700 4450 
L 700 4900 
Q 1050 4875 1525 4875 
L 3000 4875 
Q 3275 4875 3650 4900 
L 3650 4450 
Q 3325 4475 3125 4475 
L 3125 3425 
Q 3450 3425 3825 3450 
L 3825 2975 
Q 3450 3000 3125 3000 
L 3125 2675 
Q 3125 2225 3150 1775 
L 2625 1775 
z
M 3000 1175 
Q 3000 1375 2975 1725 
L 3500 1725 
Q 3475 1375 3475 1175 
L 4550 1175 
Q 5050 1175 5450 1200 
L 5450 725 
Q 4975 750 4550 750 
L 3475 750 
L 3475 -50 
L 5275 -50 
Q 5700 -50 6100 -25 
L 6100 -500 
Q 5725 -475 5300 -475 
L 1250 -475 
Q 775 -475 400 -500 
L 400 -25 
Q 775 -50 1250 -50 
L 3000 -50 
L 3000 750 
L 2025 750 
Q 1500 750 975 725 
L 1050 1200 
Q 1500 1175 2025 1175 
L 3000 1175 
z
M 5775 5200 
Q 5750 4775 5750 4325 
L 5750 2400 
Q 5775 1950 5612 1775 
Q 5450 1600 4900 1525 
Q 4825 1775 4675 2100 
Q 5175 2075 5237 2150 
Q 5300 2225 5300 2525 
L 5300 4325 
Q 5300 4775 5275 5200 
L 5775 5200 
z
M 4600 4750 
Q 4575 4450 4575 3975 
L 4575 3200 
Q 4575 2825 4600 2425 
L 4100 2425 
Q 4125 2825 4125 3200 
L 4125 3975 
Q 4125 4450 4100 4750 
L 4600 4750 
z
M 2650 3425 
L 2650 4475 
L 1875 4475 
Q 1850 3750 1850 3425 
L 2650 3425 
z
" transform="scale(0.015625)"/>
       <path id="SimHei-8f93" d="M 3225 3650 
Q 2725 3100 2550 2950 
L 4100 2950 
Q 4075 2675 4075 2275 
L 4075 -100 
Q 4100 -325 3962 -425 
Q 3825 -525 3475 -600 
Q 3400 -350 3225 -100 
Q 3650 -100 3650 25 
L 3650 675 
L 2975 675 
L 2975 -575 
L 2525 -575 
Q 2550 -125 2550 325 
L 2550 2075 
Q 2550 2500 2525 2925 
L 2375 2800 
Q 2200 3000 1950 3100 
Q 2575 3525 3025 4087 
Q 3475 4650 3775 5300 
Q 4075 5150 4325 5100 
L 4225 4975 
Q 4700 4325 5225 3975 
Q 5750 3625 6200 3475 
Q 5975 3275 5825 3025 
Q 5275 3300 4875 3650 
L 4875 3350 
L 3225 3350 
L 3225 3650 
z
M 2225 825 
Q 1975 775 1725 675 
Q 1725 -100 1750 -650 
L 1275 -650 
Q 1300 -100 1300 575 
Q 725 425 475 325 
Q 400 575 250 825 
Q 650 875 1300 1025 
L 1300 1975 
Q 700 1925 400 1800 
L 225 2225 
Q 425 2350 600 2850 
Q 775 3350 875 3825 
Q 625 3825 350 3800 
L 350 4250 
Q 675 4225 950 4225 
Q 1050 4700 1075 5175 
Q 1400 5075 1675 5025 
Q 1525 4850 1400 4225 
Q 1925 4225 2300 4250 
L 2300 3800 
Q 1850 3825 1325 3825 
Q 1075 2900 825 2325 
L 1300 2375 
Q 1300 2700 1275 3125 
L 1750 3125 
Q 1725 2900 1725 2425 
L 2150 2475 
L 2150 2075 
L 1725 2025 
L 1725 1125 
L 2225 1250 
L 2225 825 
z
M 5775 2925 
Q 5750 2525 5750 2150 
L 5750 -100 
Q 5750 -375 5625 -475 
Q 5500 -575 5000 -675 
Q 4950 -450 4750 -175 
Q 5300 -200 5325 0 
L 5325 2100 
Q 5325 2500 5300 2925 
L 5775 2925 
z
M 4975 2700 
Q 4950 2400 4950 2000 
L 4950 900 
Q 4950 425 4975 125 
L 4475 125 
Q 4500 500 4500 875 
L 4500 2000 
Q 4500 2350 4475 2700 
L 4975 2700 
z
M 4750 3750 
Q 4450 4025 3975 4675 
Q 3575 4075 3300 3750 
L 4750 3750 
z
M 3650 2000 
L 3650 2575 
L 2975 2575 
L 2975 2000 
L 3650 2000 
z
M 3650 1075 
L 3650 1625 
L 2975 1625 
L 2975 1075 
L 3650 1075 
z
" transform="scale(0.015625)"/>
       <path id="SimHei-51fa" d="M 1475 4550 
Q 1450 4225 1450 3950 
L 1450 2950 
L 2925 2950 
L 2925 4425 
Q 2925 4775 2900 5125 
L 3425 5125 
Q 3400 4825 3400 4425 
L 3400 2950 
L 4900 2950 
L 4900 3875 
Q 4900 4275 4875 4525 
L 5400 4525 
Q 5375 4275 5375 3850 
L 5375 3175 
Q 5375 2775 5400 2525 
L 3400 2525 
L 3400 225 
L 5125 225 
L 5125 1275 
Q 5125 1650 5100 1925 
L 5625 1925 
Q 5600 1650 5600 1300 
L 5600 175 
Q 5600 -325 5625 -650 
L 5125 -650 
L 5125 -200 
L 675 -200 
Q 700 100 700 525 
L 700 1275 
Q 700 1700 675 1950 
L 1200 1950 
Q 1175 1700 1175 1275 
L 1175 225 
L 2925 225 
L 2925 2525 
L 950 2525 
Q 975 2775 975 3150 
L 975 3925 
Q 975 4250 950 4550 
L 1475 4550 
z
" transform="scale(0.015625)"/>
      </defs>
      <use xlink:href="#SimHei-6a21"/>
      <use xlink:href="#SimHei-578b" x="100"/>
      <use xlink:href="#SimHei-8f93" x="200"/>
      <use xlink:href="#SimHei-51fa" x="300"/>
     </g>
    </g>
   </g>
  </g>
  <g id="axes_2">
   <g id="patch_8">
    <path d="M 231.616447 139.19749 
L 385.39992 139.19749 
L 385.39992 10.8 
L 231.616447 10.8 
z
" style="fill: #ffffff"/>
   </g>
   <g id="matplotlib.axis_3">
    <g id="xtick_7">
     <g id="line2d_17">
      <g>
       <use xlink:href="#m3bcc847526" x="238.606605" y="139.19749" style="stroke: #000000; stroke-width: 0.8"/>
      </g>
     </g>
     <g id="text_17">
      <!-- 0 -->
      <g transform="translate(236.856605 147.50999)scale(0.07 -0.07)">
       <use xlink:href="#SimHei-30"/>
      </g>
     </g>
    </g>
    <g id="xtick_8">
     <g id="line2d_18">
      <g>
       <use xlink:href="#m3bcc847526" x="266.567236" y="139.19749" style="stroke: #000000; stroke-width: 0.8"/>
      </g>
     </g>
     <g id="text_18">
      <!-- 200 -->
      <g transform="translate(261.317236 147.50999)scale(0.07 -0.07)">
       <use xlink:href="#SimHei-32"/>
       <use xlink:href="#SimHei-30" x="50"/>
       <use xlink:href="#SimHei-30" x="100"/>
      </g>
     </g>
    </g>
    <g id="xtick_9">
     <g id="line2d_19">
      <g>
       <use xlink:href="#m3bcc847526" x="294.527868" y="139.19749" style="stroke: #000000; stroke-width: 0.8"/>
      </g>
     </g>
     <g id="text_19">
      <!-- 400 -->
      <g transform="translate(289.277868 147.50999)scale(0.07 -0.07)">
       <use xlink:href="#SimHei-34"/>
       <use xlink:href="#SimHei-30" x="50"/>
       <use xlink:href="#SimHei-30" x="100"/>
      </g>
     </g>
    </g>
    <g id="xtick_10">
     <g id="line2d_20">
      <g>
       <use xlink:href="#m3bcc847526" x="322.488499" y="139.19749" style="stroke: #000000; stroke-width: 0.8"/>
      </g>
     </g>
     <g id="text_20">
      <!-- 600 -->
      <g transform="translate(317.238499 147.50999)scale(0.07 -0.07)">
       <use xlink:href="#SimHei-36"/>
       <use xlink:href="#SimHei-30" x="50"/>
       <use xlink:href="#SimHei-30" x="100"/>
      </g>
     </g>
    </g>
    <g id="xtick_11">
     <g id="line2d_21">
      <g>
       <use xlink:href="#m3bcc847526" x="350.44913" y="139.19749" style="stroke: #000000; stroke-width: 0.8"/>
      </g>
     </g>
     <g id="text_21">
      <!-- 800 -->
      <g transform="translate(345.19913 147.50999)scale(0.07 -0.07)">
       <use xlink:href="#SimHei-38"/>
       <use xlink:href="#SimHei-30" x="50"/>
       <use xlink:href="#SimHei-30" x="100"/>
      </g>
     </g>
    </g>
    <g id="xtick_12">
     <g id="line2d_22">
      <g>
       <use xlink:href="#m3bcc847526" x="378.409762" y="139.19749" style="stroke: #000000; stroke-width: 0.8"/>
      </g>
     </g>
     <g id="text_22">
      <!-- 1000 -->
      <g transform="translate(371.409762 147.50999)scale(0.07 -0.07)">
       <use xlink:href="#SimHei-31"/>
       <use xlink:href="#SimHei-30" x="50"/>
       <use xlink:href="#SimHei-30" x="100"/>
       <use xlink:href="#SimHei-30" x="150"/>
      </g>
     </g>
    </g>
    <g id="text_23">
     <!-- 时间 -->
     <g transform="translate(301.508183 157.990459)scale(0.07 -0.07)">
      <use xlink:href="#SimHei-65f6"/>
      <use xlink:href="#SimHei-95f4" x="100"/>
     </g>
    </g>
   </g>
   <g id="matplotlib.axis_4">
    <g id="ytick_7">
     <g id="line2d_23">
      <g>
       <use xlink:href="#md82675c132" x="231.616447" y="138.502488" style="stroke: #000000; stroke-width: 0.8"/>
      </g>
     </g>
     <g id="text_24">
      <!-- -1.5 -->
      <g transform="translate(214.116447 140.908738)scale(0.07 -0.07)">
       <use xlink:href="#SimHei-2d"/>
       <use xlink:href="#SimHei-31" x="50"/>
       <use xlink:href="#SimHei-2e" x="100"/>
       <use xlink:href="#SimHei-35" x="150"/>
      </g>
     </g>
    </g>
    <g id="ytick_8">
     <g id="line2d_24">
      <g>
       <use xlink:href="#md82675c132" x="231.616447" y="123.387485" style="stroke: #000000; stroke-width: 0.8"/>
      </g>
     </g>
     <g id="text_25">
      <!-- -1.0 -->
      <g transform="translate(214.116447 125.793735)scale(0.07 -0.07)">
       <use xlink:href="#SimHei-2d"/>
       <use xlink:href="#SimHei-31" x="50"/>
       <use xlink:href="#SimHei-2e" x="100"/>
       <use xlink:href="#SimHei-30" x="150"/>
      </g>
     </g>
    </g>
    <g id="ytick_9">
     <g id="line2d_25">
      <g>
       <use xlink:href="#md82675c132" x="231.616447" y="108.272483" style="stroke: #000000; stroke-width: 0.8"/>
      </g>
     </g>
     <g id="text_26">
      <!-- -0.5 -->
      <g transform="translate(214.116447 110.678733)scale(0.07 -0.07)">
       <use xlink:href="#SimHei-2d"/>
       <use xlink:href="#SimHei-30" x="50"/>
       <use xlink:href="#SimHei-2e" x="100"/>
       <use xlink:href="#SimHei-35" x="150"/>
      </g>
     </g>
    </g>
    <g id="ytick_10">
     <g id="line2d_26">
      <g>
       <use xlink:href="#md82675c132" x="231.616447" y="93.15748" style="stroke: #000000; stroke-width: 0.8"/>
      </g>
     </g>
     <g id="text_27">
      <!-- 0.0 -->
      <g transform="translate(217.616447 95.56373)scale(0.07 -0.07)">
       <use xlink:href="#SimHei-30"/>
       <use xlink:href="#SimHei-2e" x="50"/>
       <use xlink:href="#SimHei-30" x="100"/>
      </g>
     </g>
    </g>
    <g id="ytick_11">
     <g id="line2d_27">
      <g>
       <use xlink:href="#md82675c132" x="231.616447" y="78.042477" style="stroke: #000000; stroke-width: 0.8"/>
      </g>
     </g>
     <g id="text_28">
      <!-- 0.5 -->
      <g transform="translate(217.616447 80.448727)scale(0.07 -0.07)">
       <use xlink:href="#SimHei-30"/>
       <use xlink:href="#SimHei-2e" x="50"/>
       <use xlink:href="#SimHei-35" x="100"/>
      </g>
     </g>
    </g>
    <g id="ytick_12">
     <g id="line2d_28">
      <g>
       <use xlink:href="#md82675c132" x="231.616447" y="62.927475" style="stroke: #000000; stroke-width: 0.8"/>
      </g>
     </g>
     <g id="text_29">
      <!-- 1.0 -->
      <g transform="translate(217.616447 65.333725)scale(0.07 -0.07)">
       <use xlink:href="#SimHei-31"/>
       <use xlink:href="#SimHei-2e" x="50"/>
       <use xlink:href="#SimHei-30" x="100"/>
      </g>
     </g>
    </g>
    <g id="ytick_13">
     <g id="line2d_29">
      <g>
       <use xlink:href="#md82675c132" x="231.616447" y="47.812472" style="stroke: #000000; stroke-width: 0.8"/>
      </g>
     </g>
     <g id="text_30">
      <!-- 1.5 -->
      <g transform="translate(217.616447 50.218722)scale(0.07 -0.07)">
       <use xlink:href="#SimHei-31"/>
       <use xlink:href="#SimHei-2e" x="50"/>
       <use xlink:href="#SimHei-35" x="100"/>
      </g>
     </g>
    </g>
    <g id="ytick_14">
     <g id="line2d_30">
      <g>
       <use xlink:href="#md82675c132" x="231.616447" y="32.697469" style="stroke: #000000; stroke-width: 0.8"/>
      </g>
     </g>
     <g id="text_31">
      <!-- 2.0 -->
      <g transform="translate(217.616447 35.103719)scale(0.07 -0.07)">
       <use xlink:href="#SimHei-32"/>
       <use xlink:href="#SimHei-2e" x="50"/>
       <use xlink:href="#SimHei-30" x="100"/>
      </g>
     </g>
    </g>
    <g id="ytick_15">
     <g id="line2d_31">
      <g>
       <use xlink:href="#md82675c132" x="231.616447" y="17.582466" style="stroke: #000000; stroke-width: 0.8"/>
      </g>
     </g>
     <g id="text_32">
      <!-- 2.5 -->
      <g transform="translate(217.616447 19.988716)scale(0.07 -0.07)">
       <use xlink:href="#SimHei-32"/>
       <use xlink:href="#SimHei-2e" x="50"/>
       <use xlink:href="#SimHei-35" x="100"/>
      </g>
     </g>
    </g>
    <g id="text_33">
     <!-- 值 -->
     <g transform="translate(209.241447 78.498745)rotate(-90)scale(0.07 -0.07)">
      <use xlink:href="#SimHei-503c"/>
     </g>
    </g>
   </g>
   <g id="line2d_32">
    <path d="M 238.606605 107.627221 
L 240.144439 110.272464 
L 240.843455 110.643046 
L 241.96188 111.378373 
L 242.38129 111.649807 
L 243.359912 112.177603 
L 244.338534 112.830767 
L 246.016172 113.760142 
L 247.2744 114.302056 
L 249.651054 115.913999 
L 250.070464 115.906568 
L 251.468495 115.800309 
L 252.58692 115.957204 
L 256.920818 116.227577 
L 258.598456 116.498269 
L 261.114913 117.134978 
L 264.050779 117.27733 
L 267.965268 117.776571 
L 268.244874 117.877948 
L 273.837 118.450328 
L 280.966961 118.919633 
L 281.526174 119.035341 
L 283.343615 119.846885 
L 285.161056 119.891682 
L 285.580465 120.090296 
L 287.1183 120.47213 
L 291.172592 121.195249 
L 294.108458 122.022823 
L 294.248261 16.63625 
L 295.50649 20.715734 
L 295.786096 22.153054 
L 298.022946 29.106118 
L 299.281175 32.517896 
L 300.539403 36.315011 
L 301.098616 37.849993 
L 301.797632 62.884206 
L 302.077238 64.882017 
L 302.356844 65.121924 
L 302.496647 65.175001 
L 302.636451 65.09114 
L 303.195663 64.180342 
L 303.47527 65.172878 
L 303.754876 65.154832 
L 304.733498 64.558248 
L 305.432514 64.584787 
L 306.13153 64.855479 
L 306.690742 65.45737 
L 307.249955 66.004061 
L 308.508183 67.022074 
L 311.723656 70.122928 
L 312.003262 71.561523 
L 312.422672 73.40212 
L 314.10031 77.710366 
L 314.799325 79.103951 
L 315.358538 79.678985 
L 316.057554 80.040438 
L 316.896373 79.921228 
L 317.595388 79.068814 
L 317.874995 81.202184 
L 318.294404 80.735532 
L 318.99342 79.999463 
L 319.273026 79.857854 
L 319.972042 79.841506 
L 320.251648 79.909763 
L 321.090467 80.471316 
L 321.929286 80.720246 
L 322.208893 80.318561 
L 322.768105 79.964114 
L 323.467121 79.79257 
L 324.30594 79.823354 
L 325.843775 80.183852 
L 328.639838 80.91939 
L 329.478657 80.85538 
L 330.457279 80.9437 
L 331.156295 81.402496 
L 331.995114 81.932415 
L 332.554326 82.303528 
L 333.253342 82.90786 
L 333.532948 83.446909 
L 334.791177 85.257571 
L 335.070783 85.990244 
L 336.329011 88.533579 
L 338.845468 93.649759 
L 342.89976 100.215681 
L 343.878382 101.516806 
L 347.513264 105.585675 
L 347.653067 105.718048 
L 347.932674 106.273763 
L 349.051099 107.275004 
L 349.330705 107.745477 
L 350.728737 109.219101 
L 354.084012 110.281699 
L 354.223816 110.229896 
L 354.503422 110.27947 
L 354.922831 110.370975 
L 355.621847 110.371293 
L 357.718895 110.26705 
L 361.633383 110.251976 
L 362.472202 110.682217 
L 364.14984 111.706175 
L 366.8061 112.993606 
L 367.365312 113.347416 
L 369.741966 114.761171 
L 371.978817 116.162823 
L 373.376848 117.583371 
L 375.054486 119.336605 
L 375.334092 119.906119 
L 377.850549 122.242136 
L 378.409762 122.679808 
L 378.409762 122.679808 
" clip-path="url(#p91a002ce5b)" style="fill: none; stroke: #ff0000; stroke-width: 1.5; stroke-linecap: square"/>
   </g>
   <g id="line2d_33">
    <path d="M 238.606605 107.627221 
L 238.746408 104.238356 
L 239.585227 105.08816 
L 240.284243 105.594959 
L 240.563849 106.144025 
L 241.123062 108.037433 
L 241.682274 109.826527 
L 243.359912 113.022873 
L 244.61814 114.891842 
L 245.317156 115.669358 
L 245.596763 115.685735 
L 245.876369 115.195139 
L 246.155975 114.049466 
L 246.435582 112.157393 
L 246.715188 112.242161 
L 246.994794 112.141937 
L 248.113219 111.323647 
L 249.651054 111.058667 
L 249.93066 111.176338 
L 250.210267 111.547263 
L 250.629676 112.654031 
L 251.049086 113.845235 
L 253.00633 117.798711 
L 253.984952 119.184916 
L 254.683968 120.1756 
L 255.382984 121.831387 
L 255.66259 122.456193 
L 256.221802 122.583569 
L 256.501409 122.404162 
L 257.340228 121.618023 
L 257.89944 120.967123 
L 258.458653 120.378769 
L 259.996488 119.557216 
L 262.093535 118.504956 
L 262.512945 118.352797 
L 263.491567 118.123264 
L 264.470189 117.754807 
L 265.309008 117.615357 
L 265.86822 117.537313 
L 266.707039 117.233152 
L 267.545858 117.23082 
L 268.244874 117.630135 
L 269.083693 118.24638 
L 269.922512 118.809081 
L 270.901134 119.261203 
L 271.879756 119.390635 
L 272.858378 119.269403 
L 273.976803 118.899039 
L 276.353457 117.896573 
L 279.009717 116.797811 
L 281.386371 116.071075 
L 282.924205 115.770433 
L 283.763024 115.866048 
L 284.46204 116.191478 
L 284.88145 116.301016 
L 285.161056 116.226072 
L 285.300859 116.347489 
L 285.580465 117.538737 
L 285.860072 119.961836 
L 286.279481 125.810413 
L 286.419284 128.188594 
L 286.698891 128.798545 
L 287.258103 131.009972 
L 287.677513 132.465088 
L 287.957119 132.855779 
L 288.516332 133.304439 
L 288.935741 133.340725 
L 289.355151 133.125555 
L 290.054167 132.431155 
L 291.452198 130.573125 
L 292.291017 129.697599 
L 294.108458 128.155476 
L 294.527868 127.798353 
L 294.807474 127.296239 
L 295.226883 125.900167 
L 295.786096 123.495895 
L 296.345309 122.651448 
L 297.044324 121.530547 
L 298.861765 119.872673 
L 299.980191 119.248361 
L 301.238419 118.818858 
L 301.937435 118.520045 
L 302.217041 118.294023 
L 302.496647 117.786368 
L 302.916057 116.012322 
L 303.195663 113.005993 
L 303.47527 110.135419 
L 303.754876 109.603838 
L 304.174285 108.03572 
L 304.873301 104.823303 
L 305.292711 103.616887 
L 306.411136 100.050201 
L 307.948971 95.912544 
L 309.067396 93.408281 
L 310.185821 91.341463 
L 311.304246 89.70654 
L 312.422672 88.455166 
L 313.541097 87.517973 
L 314.799325 86.751774 
L 316.197357 86.159449 
L 317.874995 85.691848 
L 318.99342 85.532804 
L 319.832239 85.678514 
L 320.531255 85.851621 
L 320.950664 85.953999 
L 322.907908 86.276468 
L 323.606924 86.411738 
L 326.682594 86.93975 
L 328.080625 87.192171 
L 328.360232 87.688243 
L 328.639838 88.717137 
L 329.61846 93.219643 
L 331.435901 96.791175 
L 332.134917 98.239322 
L 333.393145 100.08661 
L 333.952358 100.797286 
L 336.189208 103.791101 
L 336.888224 104.819856 
L 338.705665 107.127274 
L 339.125075 107.327687 
L 339.404681 107.223398 
L 339.684287 107.014421 
L 340.523106 107.745665 
L 341.641531 108.652098 
L 343.598776 110.37935 
L 344.996807 111.865245 
L 346.115232 112.932604 
L 346.534642 112.98724 
L 346.954051 112.812482 
L 348.072477 113.626948 
L 349.330705 114.689277 
L 351.148146 116.546821 
L 351.707359 117.079775 
L 352.126768 117.458171 
L 353.5248 118.767909 
L 354.084012 119.083993 
L 355.342241 119.377311 
L 356.18106 119.361427 
L 358.278107 119.021982 
L 359.256729 118.529649 
L 360.235351 117.797599 
L 361.49358 116.555333 
L 362.612005 115.483195 
L 364.14984 114.159382 
L 366.945903 111.825292 
L 368.763344 110.762057 
L 370.440982 110.195315 
L 372.398226 109.732679 
L 374.635077 109.585229 
L 376.732124 109.702102 
L 378.409762 110.078177 
L 378.409762 110.078177 
" clip-path="url(#p91a002ce5b)" style="fill: none; stroke-dasharray: 5.55,2.4; stroke-dashoffset: 0; stroke: #008000; stroke-width: 1.5"/>
   </g>
   <g id="patch_9">
    <path d="M 231.616447 139.19749 
L 231.616447 10.8 
" style="fill: none; stroke: #000000; stroke-linejoin: miter; stroke-linecap: square"/>
   </g>
   <g id="patch_10">
    <path d="M 385.39992 139.19749 
L 385.39992 10.8 
" style="fill: none; stroke: #000000; stroke-linejoin: miter; stroke-linecap: square"/>
   </g>
   <g id="patch_11">
    <path d="M 231.616447 139.19749 
L 385.39992 139.19749 
" style="fill: none; stroke: #000000; stroke-linejoin: miter; stroke-linecap: square"/>
   </g>
   <g id="patch_12">
    <path d="M 231.616447 10.8 
L 385.39992 10.8 
" style="fill: none; stroke: #000000; stroke-linejoin: miter; stroke-linecap: square"/>
   </g>
   <g id="legend_2">
    <g id="patch_13">
     <path d="M 337.99992 32.75625 
L 381.19992 32.75625 
Q 382.39992 32.75625 382.39992 31.55625 
L 382.39992 15 
Q 382.39992 13.8 381.19992 13.8 
L 337.99992 13.8 
Q 336.79992 13.8 336.79992 15 
L 336.79992 31.55625 
Q 336.79992 32.75625 337.99992 32.75625 
z
" style="fill: #ffffff; opacity: 0.8; stroke: #cccccc; stroke-linejoin: miter"/>
    </g>
    <g id="line2d_34">
     <path d="M 339.19992 18.904688 
L 345.19992 18.904688 
L 351.19992 18.904688 
" style="fill: none; stroke: #ff0000; stroke-width: 1.5; stroke-linecap: square"/>
    </g>
    <g id="text_34">
     <!-- 真实值 -->
     <g transform="translate(355.99992 21.004688)scale(0.06 -0.06)">
      <use xlink:href="#SimHei-771f"/>
      <use xlink:href="#SimHei-5b9e" x="100"/>
      <use xlink:href="#SimHei-503c" x="200"/>
     </g>
    </g>
    <g id="line2d_35">
     <path d="M 339.19992 27.50625 
L 345.19992 27.50625 
L 351.19992 27.50625 
" style="fill: none; stroke-dasharray: 5.55,2.4; stroke-dashoffset: 0; stroke: #008000; stroke-width: 1.5"/>
    </g>
    <g id="text_35">
     <!-- 模型输出 -->
     <g transform="translate(355.99992 29.60625)scale(0.06 -0.06)">
      <use xlink:href="#SimHei-6a21"/>
      <use xlink:href="#SimHei-578b" x="100"/>
      <use xlink:href="#SimHei-8f93" x="200"/>
      <use xlink:href="#SimHei-51fa" x="300"/>
     </g>
    </g>
   </g>
  </g>
 </g>
 <defs>
  <clipPath id="p7e39e93e92">
   <rect x="38.59125" y="10.8" width="153.783473" height="128.39749"/>
  </clipPath>
  <clipPath id="p91a002ce5b">
   <rect x="231.616447" y="10.8" width="153.783473" height="128.39749"/>
  </clipPath>
 </defs>
</svg>
