<?xml version="1.0" encoding="utf-8" standalone="no"?>
<!DOCTYPE svg PUBLIC "-//W3C//DTD SVG 1.1//EN"
  "http://www.w3.org/Graphics/SVG/1.1/DTD/svg11.dtd">
<svg xmlns:xlink="http://www.w3.org/1999/xlink" width="396.850394pt" height="170.07874pt" viewBox="0 0 396.850394 170.07874" xmlns="http://www.w3.org/2000/svg" version="1.1">
 <metadata>
  <rdf:RDF xmlns:dc="http://purl.org/dc/elements/1.1/" xmlns:cc="http://creativecommons.org/ns#" xmlns:rdf="http://www.w3.org/1999/02/22-rdf-syntax-ns#">
   <cc:Work>
    <dc:type rdf:resource="http://purl.org/dc/dcmitype/StillImage"/>
    <dc:date>2023-03-02T11:03:19.095233</dc:date>
    <dc:format>image/svg+xml</dc:format>
    <dc:creator>
     <cc:Agent>
      <dc:title>Matplotlib v3.5.2, https://matplotlib.org/</dc:title>
     </cc:Agent>
    </dc:creator>
   </cc:Work>
  </rdf:RDF>
 </metadata>
 <defs>
  <style type="text/css">*{stroke-linejoin: round; stroke-linecap: butt}</style>
 </defs>
 <g id="figure_1">
  <g id="patch_1">
   <path d="M 0 170.07874 
L 396.850394 170.07874 
L 396.850394 0 
L 0 0 
L 0 170.07874 
z
" style="fill: none"/>
  </g>
  <g id="axes_1">
   <g id="patch_2">
    <path d="M 24.77 149.77874 
L 386.050394 149.77874 
L 386.050394 10.8 
L 24.77 10.8 
z
" style="fill: #ffffff"/>
   </g>
   <g id="matplotlib.axis_1">
    <g id="xtick_1">
     <g id="line2d_1">
      <defs>
       <path id="mff634876c6" d="M 0 0 
L 0 -3.5 
" style="stroke: #000000; stroke-width: 0.8"/>
      </defs>
      <g>
       <use xlink:href="#mff634876c6" x="41.191836" y="149.77874" style="stroke: #000000; stroke-width: 0.8"/>
      </g>
     </g>
     <g id="text_1">
      <!-- 0 -->
      <g transform="translate(39.441836 158.09124)scale(0.07 -0.07)">
       <defs>
        <path id="SimHei-30" d="M 225 2537 
Q 250 3200 412 3587 
Q 575 3975 875 4225 
Q 1175 4475 1612 4475 
Q 2050 4475 2375 4112 
Q 2700 3750 2800 3200 
Q 2900 2650 2862 1937 
Q 2825 1225 2612 775 
Q 2400 325 1975 150 
Q 1550 -25 1125 187 
Q 700 400 525 750 
Q 350 1100 275 1487 
Q 200 1875 225 2537 
z
M 750 2687 
Q 675 2000 800 1462 
Q 925 925 1212 700 
Q 1500 475 1800 612 
Q 2100 750 2237 1162 
Q 2375 1575 2375 2062 
Q 2375 2550 2337 2950 
Q 2300 3350 2112 3675 
Q 1925 4000 1612 4012 
Q 1300 4025 1062 3700 
Q 825 3375 750 2687 
z
" transform="scale(0.015625)"/>
       </defs>
       <use xlink:href="#SimHei-30"/>
      </g>
     </g>
    </g>
    <g id="xtick_2">
     <g id="line2d_2">
      <g>
       <use xlink:href="#mff634876c6" x="80.604243" y="149.77874" style="stroke: #000000; stroke-width: 0.8"/>
      </g>
     </g>
     <g id="text_2">
      <!-- 60 -->
      <g transform="translate(77.104243 158.09124)scale(0.07 -0.07)">
       <defs>
        <path id="SimHei-36" d="M 250 1612 
Q 275 1975 387 2225 
Q 500 2475 725 2850 
L 1750 4450 
L 2325 4450 
L 1275 2800 
Q 1950 2975 2350 2750 
Q 2750 2525 2887 2237 
Q 3025 1950 3037 1612 
Q 3050 1275 2937 950 
Q 2825 625 2537 362 
Q 2250 100 1737 75 
Q 1225 50 862 262 
Q 500 475 362 862 
Q 225 1250 250 1612 
z
M 1025 787 
Q 1250 550 1625 525 
Q 2000 500 2250 775 
Q 2500 1050 2500 1575 
Q 2500 2100 2187 2300 
Q 1875 2500 1487 2450 
Q 1100 2400 925 2075 
Q 750 1750 775 1387 
Q 800 1025 1025 787 
z
" transform="scale(0.015625)"/>
       </defs>
       <use xlink:href="#SimHei-36"/>
       <use xlink:href="#SimHei-30" x="50"/>
      </g>
     </g>
    </g>
    <g id="xtick_3">
     <g id="line2d_3">
      <g>
       <use xlink:href="#mff634876c6" x="120.016649" y="149.77874" style="stroke: #000000; stroke-width: 0.8"/>
      </g>
     </g>
     <g id="text_3">
      <!-- 120 -->
      <g transform="translate(114.766649 158.09124)scale(0.07 -0.07)">
       <defs>
        <path id="SimHei-31" d="M 1400 3600 
Q 1075 3275 575 2975 
L 575 3450 
Q 1200 3875 1600 4450 
L 1900 4450 
L 1900 150 
L 1400 150 
L 1400 3600 
z
" transform="scale(0.015625)"/>
        <path id="SimHei-32" d="M 300 250 
Q 325 625 650 925 
Q 975 1225 1475 1862 
Q 1975 2500 2125 2850 
Q 2275 3200 2237 3450 
Q 2200 3700 2000 3862 
Q 1800 4025 1537 4000 
Q 1275 3975 1037 3800 
Q 800 3625 675 3275 
L 200 3350 
Q 400 3925 712 4187 
Q 1025 4450 1450 4475 
Q 1700 4500 1900 4462 
Q 2100 4425 2312 4287 
Q 2525 4150 2662 3875 
Q 2800 3600 2762 3212 
Q 2725 2825 2375 2287 
Q 2025 1750 1025 600 
L 2825 600 
L 2825 150 
L 300 150 
L 300 250 
z
" transform="scale(0.015625)"/>
       </defs>
       <use xlink:href="#SimHei-31"/>
       <use xlink:href="#SimHei-32" x="50"/>
       <use xlink:href="#SimHei-30" x="100"/>
      </g>
     </g>
    </g>
    <g id="xtick_4">
     <g id="line2d_4">
      <g>
       <use xlink:href="#mff634876c6" x="159.429056" y="149.77874" style="stroke: #000000; stroke-width: 0.8"/>
      </g>
     </g>
     <g id="text_4">
      <!-- 180 -->
      <g transform="translate(154.179056 158.09124)scale(0.07 -0.07)">
       <defs>
        <path id="SimHei-38" d="M 175 1375 
Q 175 1675 325 1962 
Q 475 2250 825 2425 
Q 525 2600 425 2812 
Q 325 3025 312 3300 
Q 300 3575 387 3775 
Q 475 3975 650 4150 
Q 825 4325 1037 4387 
Q 1250 4450 1500 4450 
Q 1750 4450 1950 4400 
Q 2150 4350 2375 4187 
Q 2600 4025 2700 3725 
Q 2800 3425 2687 3025 
Q 2575 2625 2100 2400 
Q 2525 2275 2700 2012 
Q 2875 1750 2875 1375 
Q 2875 1000 2762 775 
Q 2650 550 2512 400 
Q 2375 250 2137 162 
Q 1900 75 1537 75 
Q 1175 75 912 162 
Q 650 250 475 425 
Q 300 600 237 837 
Q 175 1075 175 1375 
z
M 687 1400 
Q 675 1100 787 875 
Q 900 650 1200 587 
Q 1500 525 1825 600 
Q 2150 675 2275 950 
Q 2400 1225 2362 1500 
Q 2325 1775 2050 1962 
Q 1775 2150 1450 2125 
Q 1125 2100 912 1900 
Q 700 1700 687 1400 
z
M 775 3350 
Q 775 3100 950 2875 
Q 1125 2650 1500 2650 
Q 1875 2650 2062 2875 
Q 2250 3100 2237 3412 
Q 2225 3725 2012 3875 
Q 1800 4025 1437 4000 
Q 1075 3975 925 3787 
Q 775 3600 775 3350 
z
" transform="scale(0.015625)"/>
       </defs>
       <use xlink:href="#SimHei-31"/>
       <use xlink:href="#SimHei-38" x="50"/>
       <use xlink:href="#SimHei-30" x="100"/>
      </g>
     </g>
    </g>
    <g id="xtick_5">
     <g id="line2d_5">
      <g>
       <use xlink:href="#mff634876c6" x="198.841462" y="149.77874" style="stroke: #000000; stroke-width: 0.8"/>
      </g>
     </g>
     <g id="text_5">
      <!-- 240 -->
      <g transform="translate(193.591462 158.09124)scale(0.07 -0.07)">
       <defs>
        <path id="SimHei-34" d="M 2000 1100 
L 75 1100 
L 75 1525 
L 2100 4450 
L 2475 4450 
L 2475 1525 
L 3075 1525 
L 3075 1100 
L 2475 1100 
L 2475 150 
L 2000 150 
L 2000 1100 
z
M 2000 1525 
L 2000 3500 
L 600 1525 
L 2000 1525 
z
" transform="scale(0.015625)"/>
       </defs>
       <use xlink:href="#SimHei-32"/>
       <use xlink:href="#SimHei-34" x="50"/>
       <use xlink:href="#SimHei-30" x="100"/>
      </g>
     </g>
    </g>
    <g id="xtick_6">
     <g id="line2d_6">
      <g>
       <use xlink:href="#mff634876c6" x="238.253869" y="149.77874" style="stroke: #000000; stroke-width: 0.8"/>
      </g>
     </g>
     <g id="text_6">
      <!-- 300 -->
      <g transform="translate(233.003869 158.09124)scale(0.07 -0.07)">
       <defs>
        <path id="SimHei-33" d="M 250 1225 
L 700 1300 
Q 800 975 1025 762 
Q 1250 550 1587 562 
Q 1925 575 2125 837 
Q 2325 1100 2300 1437 
Q 2275 1775 2037 1962 
Q 1800 2150 1275 2225 
L 1275 2550 
Q 1800 2600 2037 2825 
Q 2275 3050 2250 3412 
Q 2225 3775 1925 3937 
Q 1625 4100 1287 3975 
Q 950 3850 750 3275 
L 300 3350 
Q 450 3800 712 4100 
Q 975 4400 1425 4450 
Q 1875 4500 2212 4337 
Q 2550 4175 2687 3837 
Q 2825 3500 2725 3100 
Q 2625 2700 2150 2400 
Q 2500 2250 2687 1950 
Q 2875 1650 2812 1162 
Q 2750 675 2375 375 
Q 2000 75 1525 87 
Q 1050 100 700 387 
Q 350 675 250 1225 
z
" transform="scale(0.015625)"/>
       </defs>
       <use xlink:href="#SimHei-33"/>
       <use xlink:href="#SimHei-30" x="50"/>
       <use xlink:href="#SimHei-30" x="100"/>
      </g>
     </g>
    </g>
    <g id="xtick_7">
     <g id="line2d_7">
      <g>
       <use xlink:href="#mff634876c6" x="277.666276" y="149.77874" style="stroke: #000000; stroke-width: 0.8"/>
      </g>
     </g>
     <g id="text_7">
      <!-- 360 -->
      <g transform="translate(272.416276 158.09124)scale(0.07 -0.07)">
       <use xlink:href="#SimHei-33"/>
       <use xlink:href="#SimHei-36" x="50"/>
       <use xlink:href="#SimHei-30" x="100"/>
      </g>
     </g>
    </g>
    <g id="xtick_8">
     <g id="line2d_8">
      <g>
       <use xlink:href="#mff634876c6" x="317.078682" y="149.77874" style="stroke: #000000; stroke-width: 0.8"/>
      </g>
     </g>
     <g id="text_8">
      <!-- 420 -->
      <g transform="translate(311.828682 158.09124)scale(0.07 -0.07)">
       <use xlink:href="#SimHei-34"/>
       <use xlink:href="#SimHei-32" x="50"/>
       <use xlink:href="#SimHei-30" x="100"/>
      </g>
     </g>
    </g>
    <g id="xtick_9">
     <g id="line2d_9">
      <g>
       <use xlink:href="#mff634876c6" x="356.491089" y="149.77874" style="stroke: #000000; stroke-width: 0.8"/>
      </g>
     </g>
     <g id="text_9">
      <!-- 480 -->
      <g transform="translate(351.241089 158.09124)scale(0.07 -0.07)">
       <use xlink:href="#SimHei-34"/>
       <use xlink:href="#SimHei-38" x="50"/>
       <use xlink:href="#SimHei-30" x="100"/>
      </g>
     </g>
    </g>
   </g>
   <g id="matplotlib.axis_2">
    <g id="ytick_1">
     <g id="line2d_10">
      <defs>
       <path id="m66c3cba721" d="M 0 0 
L 3.5 0 
" style="stroke: #000000; stroke-width: 0.8"/>
      </defs>
      <g>
       <use xlink:href="#m66c3cba721" x="24.77" y="142.974446" style="stroke: #000000; stroke-width: 0.8"/>
      </g>
     </g>
     <g id="text_10">
      <!-- 1.0 -->
      <g transform="translate(10.77 145.380696)scale(0.07 -0.07)">
       <defs>
        <path id="SimHei-2e" d="M 1075 125 
L 500 125 
L 500 675 
L 1075 675 
L 1075 125 
z
" transform="scale(0.015625)"/>
       </defs>
       <use xlink:href="#SimHei-31"/>
       <use xlink:href="#SimHei-2e" x="50"/>
       <use xlink:href="#SimHei-30" x="100"/>
      </g>
     </g>
    </g>
    <g id="ytick_2">
     <g id="line2d_11">
      <g>
       <use xlink:href="#m66c3cba721" x="24.77" y="112.945903" style="stroke: #000000; stroke-width: 0.8"/>
      </g>
     </g>
     <g id="text_11">
      <!-- 1.2 -->
      <g transform="translate(10.77 115.352153)scale(0.07 -0.07)">
       <use xlink:href="#SimHei-31"/>
       <use xlink:href="#SimHei-2e" x="50"/>
       <use xlink:href="#SimHei-32" x="100"/>
      </g>
     </g>
    </g>
    <g id="ytick_3">
     <g id="line2d_12">
      <g>
       <use xlink:href="#m66c3cba721" x="24.77" y="82.917359" style="stroke: #000000; stroke-width: 0.8"/>
      </g>
     </g>
     <g id="text_12">
      <!-- 1.4 -->
      <g transform="translate(10.77 85.323609)scale(0.07 -0.07)">
       <use xlink:href="#SimHei-31"/>
       <use xlink:href="#SimHei-2e" x="50"/>
       <use xlink:href="#SimHei-34" x="100"/>
      </g>
     </g>
    </g>
    <g id="ytick_4">
     <g id="line2d_13">
      <g>
       <use xlink:href="#m66c3cba721" x="24.77" y="52.888816" style="stroke: #000000; stroke-width: 0.8"/>
      </g>
     </g>
     <g id="text_13">
      <!-- 1.6 -->
      <g transform="translate(10.77 55.295066)scale(0.07 -0.07)">
       <use xlink:href="#SimHei-31"/>
       <use xlink:href="#SimHei-2e" x="50"/>
       <use xlink:href="#SimHei-36" x="100"/>
      </g>
     </g>
    </g>
    <g id="ytick_5">
     <g id="line2d_14">
      <g>
       <use xlink:href="#m66c3cba721" x="24.77" y="22.860272" style="stroke: #000000; stroke-width: 0.8"/>
      </g>
     </g>
     <g id="text_14">
      <!-- 1.8 -->
      <g transform="translate(10.77 25.266522)scale(0.07 -0.07)">
       <use xlink:href="#SimHei-31"/>
       <use xlink:href="#SimHei-2e" x="50"/>
       <use xlink:href="#SimHei-38" x="100"/>
      </g>
     </g>
    </g>
   </g>
   <g id="line2d_15">
    <path d="M 41.191836 37.765115 
L 45.133077 23.697921 
L 47.103697 17.117215 
L 47.760571 125.251605 
L 50.388064 122.174958 
L 51.044938 121.736072 
L 51.701811 121.652683 
L 52.358685 122.047218 
L 53.015558 123.047416 
L 53.672431 124.772107 
L 54.329305 130.74826 
L 54.986178 130.328971 
L 55.643052 130.138765 
L 56.956799 130.042293 
L 57.613672 130.19808 
L 58.270546 130.632618 
L 59.584292 132.060803 
L 60.898039 133.489132 
L 61.554913 133.586839 
L 63.525533 134.587665 
L 64.182407 135.01626 
L 65.496153 136.140441 
L 66.153027 136.630285 
L 66.8099 136.832143 
L 71.408014 139.013851 
L 74.035508 140.052746 
L 75.349255 140.318645 
L 78.633622 141.497613 
L 79.947369 141.803085 
L 80.604243 141.62777 
L 81.261116 141.822881 
L 81.91799 141.825941 
L 82.574863 141.985613 
L 83.88861 141.866696 
L 85.202357 142.198962 
L 87.172977 142.480719 
L 88.486724 142.338391 
L 89.800471 142.539086 
L 91.114218 142.489507 
L 91.771091 142.687428 
L 92.427965 142.560832 
L 93.084838 142.547766 
L 93.741712 142.70504 
L 98.996699 142.880927 
L 99.653573 142.661958 
L 100.310446 142.889107 
L 104.90856 142.72675 
L 106.87918 142.873285 
L 108.849801 142.51648 
L 110.163548 142.744058 
L 110.820421 142.71236 
L 111.477294 142.898539 
L 113.447915 142.747709 
L 114.761662 142.910943 
L 115.418535 142.916617 
L 116.732282 143.115029 
L 118.046029 142.628488 
L 119.359776 142.838186 
L 120.016649 142.663873 
L 120.673523 142.683347 
L 121.330396 142.819965 
L 121.98727 142.773537 
L 122.644143 142.613722 
L 123.301016 142.590866 
L 123.95789 142.408463 
L 125.271637 142.802031 
L 125.92851 142.663766 
L 127.242257 142.99818 
L 127.899131 143.111083 
L 128.556004 142.823348 
L 129.212877 143.027524 
L 129.869751 142.934211 
L 130.526624 142.62566 
L 131.840371 142.922487 
L 132.497245 142.78032 
L 133.810992 142.960629 
L 134.467865 142.931043 
L 135.124738 142.704359 
L 135.781612 142.897483 
L 136.438485 142.897984 
L 137.095359 142.738975 
L 139.065979 142.711143 
L 141.036599 143.073058 
L 141.693473 142.83389 
L 143.664093 142.709443 
L 144.320967 142.454945 
L 146.291587 142.917708 
L 149.575954 142.883308 
L 150.232828 142.662262 
L 151.546575 142.806828 
L 152.203448 142.581326 
L 154.174068 143.086929 
L 154.830942 143.382629 
L 156.144689 143.340997 
L 156.801562 143.384741 
L 157.458436 143.104228 
L 159.429056 142.716781 
L 160.742803 142.950015 
L 162.713423 143.31653 
L 164.02717 143.216469 
L 164.684043 142.931275 
L 165.99779 142.880301 
L 167.311537 142.813898 
L 167.968411 142.90713 
L 168.625284 143.130861 
L 170.595904 142.729256 
L 171.252778 142.849802 
L 171.909651 142.677208 
L 173.223398 142.947384 
L 174.537145 142.644239 
L 176.507765 142.788482 
L 178.478386 142.425395 
L 179.792133 142.827948 
L 180.449006 142.68553 
L 181.105879 142.967269 
L 183.733373 142.942623 
L 185.04712 143.145045 
L 185.703994 142.924778 
L 187.674614 142.848048 
L 189.645234 142.550523 
L 190.302108 142.688698 
L 190.958981 142.708261 
L 191.615855 142.57141 
L 192.929601 142.73237 
L 194.243348 143.014387 
L 194.900222 142.878726 
L 196.213969 143.224326 
L 196.870842 143.461525 
L 198.841462 142.821952 
L 199.498336 142.920501 
L 200.812083 142.65419 
L 202.782703 143.025967 
L 204.09645 142.991674 
L 204.753323 143.241625 
L 205.410197 143.034397 
L 208.037691 142.928573 
L 210.008311 143.030692 
L 211.322058 142.892919 
L 211.978931 142.932367 
L 212.635805 142.829308 
L 213.949552 142.928018 
L 214.606425 142.743253 
L 215.263298 142.72369 
L 217.890792 143.204906 
L 218.547666 143.146387 
L 219.204539 142.792097 
L 219.861413 142.779461 
L 221.175159 142.972048 
L 221.832033 142.778566 
L 222.488906 142.967394 
L 223.14578 142.850643 
L 223.802653 143.048179 
L 224.459527 142.970831 
L 226.430147 143.065066 
L 227.743894 142.977731 
L 228.400767 143.221382 
L 229.057641 142.90364 
L 229.714514 142.75562 
L 231.028261 142.819303 
L 232.342008 142.945021 
L 232.998881 143.197899 
L 233.655755 143.008471 
L 237.596996 142.790147 
L 238.253869 143.015702 
L 238.910742 142.92442 
L 239.567616 142.580986 
L 240.224489 142.591814 
L 242.851983 143.051114 
L 244.16573 142.61408 
L 244.822603 142.742895 
L 245.479477 142.51426 
L 246.13635 142.699724 
L 248.106971 142.524695 
L 248.763844 142.734805 
L 250.077591 142.73731 
L 252.048211 142.892418 
L 252.705085 142.875701 
L 253.361958 142.692672 
L 254.018832 142.947975 
L 254.675705 142.824153 
L 255.332579 143.0273 
L 255.989452 142.677548 
L 256.646325 142.619986 
L 257.303199 142.442094 
L 258.616946 142.384587 
L 259.273819 142.832852 
L 259.930693 142.687266 
L 260.587566 142.834266 
L 261.24444 142.682774 
L 261.901313 142.911534 
L 264.528807 143.087421 
L 265.18568 142.922971 
L 266.499427 143.062721 
L 267.813174 142.937629 
L 268.470047 143.131031 
L 269.783794 143.128901 
L 270.440668 143.283176 
L 271.097541 143.302247 
L 271.754415 143.095529 
L 273.725035 142.871817 
L 274.381908 142.660473 
L 275.038782 142.820663 
L 275.695655 142.805879 
L 276.352529 142.913467 
L 277.009402 142.727699 
L 278.980022 143.063375 
L 279.636896 143.067124 
L 280.950643 142.890521 
L 281.607516 142.998591 
L 282.921263 142.810067 
L 284.23501 143.009894 
L 284.891883 143.047624 
L 285.548757 142.92936 
L 288.833124 142.967412 
L 289.489998 142.839421 
L 290.146871 142.954722 
L 293.431238 142.972871 
L 294.744985 143.250726 
L 296.058732 143.082902 
L 297.372479 142.815186 
L 298.686226 142.892346 
L 299.999973 143.229087 
L 301.31372 143.176475 
L 301.970593 143.132597 
L 302.627466 142.972209 
L 303.28434 143.033726 
L 304.598087 142.741696 
L 306.568707 142.959358 
L 307.882454 142.735163 
L 308.539327 142.853274 
L 309.196201 142.779211 
L 309.853074 142.892686 
L 311.166821 142.880014 
L 311.823695 142.988345 
L 313.137442 142.802264 
L 313.794315 142.606115 
L 315.108062 142.640874 
L 315.764935 142.821379 
L 317.078682 142.690757 
L 319.049303 142.837434 
L 319.706176 142.668258 
L 320.363049 142.74787 
L 322.990543 142.531658 
L 323.647417 142.581469 
L 324.30429 142.414477 
L 324.961163 142.464467 
L 325.618037 142.661725 
L 326.931784 142.517697 
L 328.245531 142.46998 
L 329.559278 142.796626 
L 330.216151 142.542218 
L 332.843645 142.766181 
L 333.500518 143.010879 
L 334.814265 143.121213 
L 335.471139 142.731887 
L 336.128012 142.579357 
L 339.412379 142.924295 
L 340.726126 143.212737 
L 342.039873 142.984443 
L 343.35362 143.06614 
L 344.010493 142.763585 
L 344.667367 142.671319 
L 345.981114 142.776866 
L 346.637987 142.512292 
L 347.951734 142.779175 
L 349.265481 142.618465 
L 351.236101 142.864944 
L 352.549848 142.896141 
L 353.206722 143.078409 
L 353.863595 142.852576 
L 355.177342 142.628238 
L 357.147962 142.845721 
L 357.804836 143.018996 
L 359.775456 142.987432 
L 360.432329 143.080879 
L 361.746076 142.664643 
L 362.40295 142.683758 
L 363.716697 142.31029 
L 364.37357 142.38038 
L 365.030444 142.650503 
L 365.687317 142.567222 
L 367.657937 142.768472 
L 368.314811 142.723439 
L 368.971684 142.848209 
L 369.628558 142.829845 
L 369.628558 142.829845 
" clip-path="url(#p3ebe918fc1)" style="fill: none; stroke: #1f77b4; stroke-width: 1.5; stroke-linecap: square"/>
   </g>
   <g id="line2d_16">
    <path d="M 41.191836 142.974446 
L 368.971684 142.974446 
L 368.971684 142.974446 
" clip-path="url(#p3ebe918fc1)" style="fill: none; stroke: #ff7f0e; stroke-width: 1.5; stroke-linecap: square"/>
   </g>
   <g id="patch_3">
    <path d="M 24.77 149.77874 
L 24.77 10.8 
" style="fill: none; stroke: #000000; stroke-linejoin: miter; stroke-linecap: square"/>
   </g>
   <g id="patch_4">
    <path d="M 386.050394 149.77874 
L 386.050394 10.8 
" style="fill: none; stroke: #000000; stroke-linejoin: miter; stroke-linecap: square"/>
   </g>
   <g id="patch_5">
    <path d="M 24.77 149.77874 
L 386.050394 149.77874 
" style="fill: none; stroke: #000000; stroke-linejoin: miter; stroke-linecap: square"/>
   </g>
   <g id="patch_6">
    <path d="M 24.77 10.8 
L 386.050394 10.8 
" style="fill: none; stroke: #000000; stroke-linejoin: miter; stroke-linecap: square"/>
   </g>
   <g id="legend_1">
    <g id="patch_7">
     <path d="M 314.650394 32.779688 
L 381.850394 32.779688 
Q 383.050394 32.779688 383.050394 31.579688 
L 383.050394 15 
Q 383.050394 13.8 381.850394 13.8 
L 314.650394 13.8 
Q 313.450394 13.8 313.450394 15 
L 313.450394 31.579688 
Q 313.450394 32.779688 314.650394 32.779688 
z
" style="fill: #ffffff; opacity: 0.8; stroke: #cccccc; stroke-linejoin: miter"/>
    </g>
    <g id="line2d_17">
     <path d="M 315.850394 18.928125 
L 321.850394 18.928125 
L 327.850394 18.928125 
" style="fill: none; stroke: #1f77b4; stroke-width: 1.5; stroke-linecap: square"/>
    </g>
    <g id="text_15">
     <!-- 稳压器液位响应 -->
     <g transform="translate(332.650394 21.028125)scale(0.06 -0.06)">
      <defs>
       <path id="SimHei-7a33" d="M 4050 5125 
Q 3875 4975 3675 4625 
L 5325 4625 
Q 5200 4450 5062 4212 
Q 4925 3975 4800 3650 
L 5625 3650 
Q 5600 3350 5600 2600 
Q 5600 1875 5625 1425 
L 3425 1425 
Q 3075 1425 2750 1400 
L 2750 1850 
Q 3075 1825 3450 1825 
L 5100 1825 
L 5100 2375 
L 3550 2375 
Q 3175 2375 2875 2350 
L 2875 2775 
Q 3175 2750 3525 2750 
L 5100 2750 
L 5100 3275 
L 3775 3275 
Q 3350 3275 3050 3250 
L 3050 3650 
Q 2875 3425 2725 3200 
Q 2525 3400 2350 3475 
Q 2675 3875 2987 4412 
Q 3300 4950 3400 5300 
Q 3725 5200 4050 5125 
z
M 2500 4575 
Q 2275 4575 2012 4512 
Q 1750 4450 1625 4450 
L 1625 3350 
Q 1975 3350 2375 3375 
L 2375 2950 
Q 1925 2975 1625 2975 
L 1625 2225 
Q 1775 2325 1950 2500 
Q 2225 2100 2525 1600 
Q 2300 1500 2150 1350 
Q 1950 1725 1625 2175 
L 1625 400 
Q 1625 25 1650 -625 
L 1150 -625 
Q 1200 25 1200 400 
L 1200 2075 
Q 875 1250 475 650 
Q 375 925 175 1125 
Q 325 1250 650 1887 
Q 975 2525 1050 2975 
Q 750 2975 275 2950 
L 275 3375 
Q 750 3350 1200 3350 
L 1200 4325 
Q 950 4275 550 4200 
Q 475 4425 275 4625 
Q 750 4675 1237 4775 
Q 1725 4875 2125 5075 
Q 2275 4775 2500 4575 
z
M 3675 1025 
Q 3650 700 3650 300 
Q 3650 -75 3775 -100 
Q 3900 -125 4250 -125 
Q 4600 -125 4687 -100 
Q 4775 -75 4825 425 
Q 5025 275 5350 200 
Q 5150 -450 4950 -500 
Q 4750 -550 4175 -550 
Q 3625 -550 3425 -487 
Q 3225 -425 3225 -100 
L 3225 525 
Q 3225 775 3200 1025 
L 3675 1025 
z
M 3050 3675 
Q 3325 3650 3775 3650 
L 4275 3650 
Q 4450 4000 4575 4275 
L 3425 4275 
Q 3275 4050 3050 3675 
z
M 2925 900 
Q 2800 725 2700 287 
Q 2600 -150 2550 -300 
Q 2325 -200 2075 -175 
Q 2225 200 2275 412 
Q 2325 625 2425 1000 
L 2925 900 
z
M 5575 1100 
Q 5950 475 6175 50 
Q 5950 -25 5750 -175 
Q 5625 175 5200 925 
Q 5425 975 5575 1100 
z
M 4225 1300 
Q 4525 825 4625 525 
Q 4550 500 4250 350 
Q 4150 700 3850 1125 
Q 4050 1200 4225 1300 
z
" transform="scale(0.015625)"/>
       <path id="SimHei-538b" d="M 3300 2725 
L 3300 3475 
Q 3300 3875 3275 4150 
L 3850 4150 
Q 3800 3950 3800 3450 
L 3800 2725 
L 4700 2725 
Q 5225 2725 5475 2750 
L 5475 2200 
Q 5225 2225 4700 2225 
L 3800 2225 
L 3800 175 
L 4900 175 
Q 5525 175 5850 200 
L 5850 -325 
Q 5525 -300 4925 -300 
L 2375 -300 
Q 1725 -300 1450 -325 
L 1450 200 
Q 1825 175 2375 175 
L 3300 175 
L 3300 2225 
L 2725 2225 
Q 2075 2225 1850 2200 
L 1850 2750 
Q 2250 2725 2725 2725 
L 3300 2725 
z
M 4900 4950 
Q 5450 4950 5750 4975 
L 5750 4475 
Q 5500 4500 4900 4500 
L 1450 4500 
L 1450 2275 
Q 1450 1425 1262 725 
Q 1075 25 725 -650 
Q 525 -450 200 -325 
Q 625 300 775 862 
Q 925 1425 950 2125 
L 950 4000 
Q 925 4525 900 4950 
L 4900 4950 
z
M 4625 1850 
Q 5025 1325 5275 925 
Q 5000 775 4775 625 
Q 4525 1150 4225 1575 
Q 4450 1700 4625 1850 
z
" transform="scale(0.015625)"/>
       <path id="SimHei-5668" d="M 275 1925 
Q 775 1925 1212 2000 
Q 1650 2075 1987 2200 
Q 2325 2325 2625 2625 
L 1525 2625 
Q 1250 2625 550 2600 
L 550 3025 
Q 1250 3000 1525 3000 
L 2750 3000 
Q 2825 3225 2800 3550 
Q 3125 3500 3475 3450 
Q 3325 3300 3300 3000 
L 4425 3000 
Q 4250 3175 4075 3300 
L 4425 3550 
Q 4625 3400 4800 3200 
Q 4650 3125 4500 3000 
L 4875 3000 
Q 5425 3000 5875 3025 
L 5875 2600 
Q 5450 2625 4875 2625 
L 3625 2625 
Q 4100 2225 4837 2112 
Q 5575 2000 6100 2050 
Q 5900 1800 5850 1500 
Q 5225 1550 4787 1637 
Q 4350 1725 3987 1900 
Q 3625 2075 3150 2575 
Q 2700 2000 1975 1762 
Q 1250 1525 525 1425 
Q 450 1725 275 1925 
z
M 5025 -575 
L 5025 -100 
L 3825 -100 
L 3825 -550 
L 3400 -550 
Q 3425 0 3425 475 
Q 3425 975 3400 1425 
L 5475 1425 
Q 5450 1125 5450 400 
Q 5450 -300 5475 -575 
L 5025 -575 
z
M 2400 -550 
L 2400 -100 
L 1325 -100 
L 1325 -575 
L 875 -575 
Q 900 -150 900 475 
Q 900 1100 875 1425 
L 2825 1425 
Q 2800 1025 2800 425 
Q 2800 -150 2825 -550 
L 2400 -550 
z
M 5475 5025 
Q 5450 4700 5450 4350 
Q 5450 4000 5475 3625 
L 3375 3625 
Q 3400 4000 3400 4350 
Q 3400 4725 3375 5025 
L 5475 5025 
z
M 2825 5025 
Q 2800 4700 2800 4325 
Q 2800 3975 2825 3625 
L 875 3625 
Q 900 3975 900 4325 
Q 900 4700 875 5025 
L 2825 5025 
z
M 5025 250 
L 5025 1050 
L 3825 1050 
L 3825 250 
L 5025 250 
z
M 2400 250 
L 2400 1050 
L 1325 1050 
L 1325 250 
L 2400 250 
z
M 5025 3975 
L 5025 4675 
L 3825 4675 
L 3825 3975 
L 5025 3975 
z
M 2400 3975 
L 2400 4675 
L 1325 4675 
L 1325 3975 
L 2400 3975 
z
" transform="scale(0.015625)"/>
       <path id="SimHei-6db2" d="M 4800 3775 
Q 4625 3575 4500 3250 
L 5950 3250 
Q 5825 2550 5587 1737 
Q 5350 925 5025 500 
Q 5600 0 6200 -150 
Q 5875 -375 5800 -600 
Q 5175 -275 4700 175 
Q 4300 -200 3675 -600 
Q 3525 -375 3175 -200 
Q 3875 25 4400 525 
Q 4100 875 3725 1725 
Q 3650 1575 3500 1325 
Q 3325 1525 3100 1700 
Q 3375 1975 3725 2700 
Q 4075 3425 4200 3950 
Q 4450 3850 4800 3775 
z
M 3600 3725 
Q 3475 3600 3337 3337 
Q 3200 3075 2975 2675 
L 2975 250 
Q 2975 -100 3000 -625 
L 2475 -625 
Q 2500 -25 2500 325 
L 2500 2100 
Q 2300 1825 2000 1475 
Q 1875 1650 1625 1850 
Q 1925 2100 2200 2450 
Q 2475 2800 2712 3225 
Q 2950 3650 3025 3925 
Q 3350 3775 3600 3725 
z
M 4275 5300 
Q 4400 4975 4500 4550 
L 5275 4550 
Q 5650 4550 6100 4600 
L 6100 4125 
Q 5750 4150 5275 4150 
L 3025 4150 
Q 2625 4150 2175 4100 
L 2175 4600 
Q 2500 4550 2875 4550 
L 3925 4550 
Q 3875 4850 3725 5175 
Q 4025 5225 4275 5300 
z
M 4025 2200 
Q 4300 1400 4700 850 
Q 5125 1375 5375 2825 
L 4300 2825 
Q 4150 2475 4025 2200 
z
M 1550 1600 
Q 1325 875 1175 287 
Q 1025 -300 925 -625 
Q 650 -450 300 -375 
Q 500 -50 687 450 
Q 875 950 1100 1925 
Q 1325 1725 1550 1600 
z
M 550 3500 
Q 1200 3150 1625 2925 
Q 1400 2650 1300 2450 
Q 875 2725 275 3050 
Q 425 3300 550 3500 
z
M 975 5025 
Q 1400 4675 1950 4275 
Q 1775 4100 1600 3850 
Q 1175 4250 675 4625 
Q 850 4825 975 5025 
z
M 4850 2500 
Q 4925 2150 4975 1750 
Q 4700 1725 4525 1675 
Q 4475 2100 4400 2425 
Q 4575 2475 4850 2500 
z
" transform="scale(0.015625)"/>
       <path id="SimHei-4f4d" d="M 2125 4925 
Q 1950 4750 1625 3750 
L 1625 575 
Q 1625 -225 1650 -650 
L 1100 -650 
Q 1150 -200 1150 550 
L 1150 2950 
Q 775 2275 550 1950 
Q 375 2275 200 2425 
Q 525 2775 912 3575 
Q 1300 4375 1500 5200 
Q 1825 5000 2125 4925 
z
M 5375 3025 
Q 5275 2875 5100 2250 
Q 4925 1625 4600 300 
L 5450 300 
Q 5925 300 6100 325 
L 6100 -175 
Q 5875 -150 5450 -150 
L 2900 -150 
Q 2275 -150 2050 -175 
L 2050 325 
Q 2275 300 2850 300 
L 4075 300 
Q 4400 1400 4700 3175 
Q 5100 3075 5375 3025 
z
M 5250 4025 
Q 5700 4025 5925 4050 
L 5925 3575 
Q 5700 3600 5225 3600 
L 3000 3600 
Q 2650 3600 2275 3575 
L 2275 4050 
Q 2675 4025 3000 4025 
L 5250 4025 
z
M 3050 3050 
Q 3500 1775 3750 725 
Q 3450 625 3250 550 
Q 3125 1125 2962 1675 
Q 2800 2225 2550 2875 
Q 2800 2925 3050 3050 
z
M 3875 5200 
Q 4175 4675 4400 4300 
Q 4200 4250 3875 4075 
Q 3700 4525 3400 4950 
Q 3650 5050 3875 5200 
z
" transform="scale(0.015625)"/>
       <path id="SimHei-54cd" d="M 4150 5125 
Q 4000 4975 3850 4325 
L 5875 4325 
Q 5850 3800 5850 3325 
L 5850 50 
Q 5825 -225 5625 -350 
Q 5425 -475 4850 -550 
Q 4850 -325 4600 25 
Q 5125 25 5237 62 
Q 5350 100 5350 225 
L 5350 3950 
L 2950 3950 
L 2950 -575 
L 2450 -575 
Q 2475 -75 2475 450 
L 2475 3125 
Q 2475 3750 2450 4325 
L 3350 4325 
Q 3475 4775 3525 5250 
Q 3950 5150 4150 5125 
z
M 4875 900 
L 3425 900 
L 3425 3100 
L 4875 3100 
L 4875 900 
z
M 4450 1275 
L 4450 2700 
L 3875 2700 
L 3875 1275 
L 4450 1275 
z
M 2075 4500 
Q 2050 3975 2050 3425 
L 2050 1750 
Q 2050 1250 2075 600 
L 1650 600 
L 1650 1050 
L 950 1050 
L 950 275 
L 500 275 
Q 525 750 525 1275 
L 525 3425 
Q 525 3975 500 4500 
L 2075 4500 
z
M 1650 1400 
L 1650 4125 
L 950 4125 
L 950 1400 
L 1650 1400 
z
" transform="scale(0.015625)"/>
       <path id="SimHei-5e94" d="M 3525 5275 
Q 3700 4825 3850 4400 
L 4750 4400 
Q 5275 4400 5850 4425 
L 5850 3975 
Q 5275 4000 4750 4000 
L 1475 4000 
Q 1475 2525 1425 1900 
Q 1375 1275 1237 625 
Q 1100 -25 750 -625 
Q 575 -400 300 -250 
Q 625 175 800 937 
Q 975 1700 1000 2575 
Q 1025 3450 1000 4400 
L 3250 4400 
Q 3175 4750 3000 5100 
Q 3250 5150 3525 5275 
z
M 5625 3125 
Q 5375 2575 5187 2050 
Q 5000 1525 4450 225 
L 5150 225 
Q 5500 225 5925 250 
L 5925 -275 
Q 5500 -250 5150 -250 
L 2475 -250 
Q 2050 -250 1450 -275 
L 1450 250 
Q 2025 225 2475 225 
L 3950 225 
Q 4325 1000 4612 1850 
Q 4900 2700 5025 3350 
Q 5350 3175 5625 3125 
z
M 2100 2850 
Q 2750 1825 3075 1050 
Q 2900 950 2650 800 
Q 2150 1925 1700 2575 
Q 1925 2750 2100 2850 
z
M 3300 3425 
Q 3800 2550 4175 1700 
Q 3950 1575 3700 1450 
Q 3400 2300 2900 3200 
Q 3100 3275 3300 3425 
z
" transform="scale(0.015625)"/>
      </defs>
      <use xlink:href="#SimHei-7a33"/>
      <use xlink:href="#SimHei-538b" x="100"/>
      <use xlink:href="#SimHei-5668" x="200"/>
      <use xlink:href="#SimHei-6db2" x="300"/>
      <use xlink:href="#SimHei-4f4d" x="400"/>
      <use xlink:href="#SimHei-54cd" x="500"/>
      <use xlink:href="#SimHei-5e94" x="600"/>
     </g>
    </g>
    <g id="line2d_18">
     <path d="M 315.850394 27.529688 
L 321.850394 27.529688 
L 327.850394 27.529688 
" style="fill: none; stroke: #ff7f0e; stroke-width: 1.5; stroke-linecap: square"/>
    </g>
    <g id="text_16">
     <!-- 稳压器液位设定值 -->
     <g transform="translate(332.650394 29.629688)scale(0.06 -0.06)">
      <defs>
       <path id="SimHei-8bbe" d="M 2275 2525 
Q 2675 2500 3175 2500 
L 5425 2500 
Q 5275 2050 5012 1512 
Q 4750 975 4300 450 
Q 5100 -75 6150 -100 
Q 5950 -325 5850 -625 
Q 4775 -400 3925 150 
Q 3600 -50 3150 -287 
Q 2700 -525 2175 -675 
Q 2075 -475 1800 -300 
Q 2350 -200 2837 25 
Q 3325 250 3575 475 
Q 3025 1050 2675 2100 
L 2275 2100 
L 2275 2525 
z
M 4825 2775 
Q 4400 2775 4375 3125 
L 4375 4525 
L 3275 4525 
Q 3275 3825 3112 3425 
Q 2950 3025 2425 2600 
Q 2325 2775 2025 2900 
Q 2650 3325 2737 3875 
Q 2825 4425 2800 4925 
L 4900 4925 
Q 4875 4625 4875 4175 
L 4875 3500 
Q 4875 3300 5012 3262 
Q 5150 3225 5400 3237 
Q 5650 3250 5975 3275 
Q 5925 3025 5975 2775 
L 4825 2775 
z
M 1650 3225 
Q 1625 2775 1625 2225 
L 1625 700 
Q 1950 1000 2175 1300 
Q 2250 1050 2425 775 
Q 2100 475 1825 200 
Q 1550 -75 1325 -400 
Q 1150 -125 950 25 
Q 1150 225 1150 600 
L 1150 2800 
Q 625 2800 275 2775 
L 275 3250 
Q 600 3225 950 3225 
L 1650 3225 
z
M 3950 800 
Q 4450 1300 4725 2100 
L 3175 2100 
Q 3350 1325 3950 800 
z
M 1025 5175 
Q 1425 4850 2000 4150 
Q 1800 4025 1600 3825 
Q 1175 4400 700 4850 
Q 850 4950 1025 5175 
z
" transform="scale(0.015625)"/>
       <path id="SimHei-5b9a" d="M 4200 3125 
Q 4675 3125 5175 3150 
L 5175 2675 
Q 4725 2700 4100 2700 
L 3550 2700 
L 3550 1700 
L 4600 1700 
Q 4875 1700 5375 1725 
L 5375 1250 
Q 4875 1275 4575 1275 
L 3550 1275 
L 3550 100 
Q 4600 -25 6050 125 
Q 5850 -200 5800 -475 
Q 4800 -475 4150 -450 
Q 3500 -425 3050 -300 
Q 2600 -175 2250 75 
Q 1900 325 1600 675 
Q 1200 -50 675 -575 
Q 450 -350 175 -250 
Q 875 300 1200 1050 
Q 1525 1800 1550 2200 
Q 1800 2050 2150 1975 
Q 2075 1875 1987 1662 
Q 1900 1450 1775 1125 
Q 1950 900 2300 612 
Q 2650 325 3050 200 
L 3050 2700 
L 2250 2700 
Q 1825 2700 1400 2675 
L 1400 3150 
Q 1825 3125 2400 3125 
L 4200 3125 
z
M 5750 4275 
Q 5725 3925 5725 3750 
Q 5725 3575 5750 3275 
L 5225 3275 
L 5225 3875 
L 1225 3875 
L 1225 3275 
L 700 3275 
Q 725 3475 725 3725 
Q 725 3975 700 4275 
L 5750 4275 
z
M 2650 5050 
Q 2875 5125 3100 5300 
Q 3375 4975 3600 4550 
Q 3250 4400 3100 4300 
Q 3050 4525 2650 5050 
z
" transform="scale(0.015625)"/>
       <path id="SimHei-503c" d="M 3675 4450 
L 3675 5100 
Q 3975 5075 4350 5050 
Q 4225 4875 4200 4450 
L 5125 4450 
Q 5550 4450 5875 4475 
L 5875 4025 
Q 5525 4050 5125 4050 
L 4175 4050 
L 4125 3500 
L 5400 3500 
Q 5375 3200 5375 2700 
L 5375 150 
Q 5875 150 6100 175 
L 6100 -275 
Q 5775 -250 5200 -250 
L 2850 -250 
Q 2275 -250 1900 -275 
L 1900 175 
Q 2125 150 2600 150 
L 2600 2700 
Q 2600 3175 2575 3500 
L 3600 3500 
L 3650 4050 
L 3200 4050 
Q 2575 4050 2225 4025 
L 2225 4475 
Q 2550 4450 3200 4450 
L 3675 4450 
z
M 2225 4900 
Q 2025 4675 1650 3750 
L 1650 450 
Q 1650 -75 1675 -550 
L 1150 -550 
Q 1175 -125 1175 375 
L 1175 2950 
Q 875 2450 625 2150 
Q 425 2425 250 2575 
Q 500 2825 937 3537 
Q 1375 4250 1625 5150 
Q 1975 4975 2225 4900 
z
M 4925 2650 
L 4925 3150 
L 3075 3150 
L 3075 2650 
L 4925 2650 
z
M 4925 150 
L 4925 625 
L 3075 625 
L 3075 150 
L 4925 150 
z
M 4925 1000 
L 4925 1450 
L 3075 1450 
L 3075 1000 
L 4925 1000 
z
M 4925 1825 
L 4925 2275 
L 3075 2275 
L 3075 1825 
L 4925 1825 
z
" transform="scale(0.015625)"/>
      </defs>
      <use xlink:href="#SimHei-7a33"/>
      <use xlink:href="#SimHei-538b" x="100"/>
      <use xlink:href="#SimHei-5668" x="200"/>
      <use xlink:href="#SimHei-6db2" x="300"/>
      <use xlink:href="#SimHei-4f4d" x="400"/>
      <use xlink:href="#SimHei-8bbe" x="500"/>
      <use xlink:href="#SimHei-5b9a" x="600"/>
      <use xlink:href="#SimHei-503c" x="700"/>
     </g>
    </g>
   </g>
  </g>
 </g>
 <defs>
  <clipPath id="p3ebe918fc1">
   <rect x="24.77" y="10.8" width="361.280394" height="138.97874"/>
  </clipPath>
 </defs>
</svg>
