<?xml version="1.0" encoding="utf-8" standalone="no"?>
<!DOCTYPE svg PUBLIC "-//W3C//DTD SVG 1.1//EN"
  "http://www.w3.org/Graphics/SVG/1.1/DTD/svg11.dtd">
<svg xmlns:xlink="http://www.w3.org/1999/xlink" width="396.850394pt" height="170.07874pt" viewBox="0 0 396.850394 170.07874" xmlns="http://www.w3.org/2000/svg" version="1.1">
 <metadata>
  <rdf:RDF xmlns:dc="http://purl.org/dc/elements/1.1/" xmlns:cc="http://creativecommons.org/ns#" xmlns:rdf="http://www.w3.org/1999/02/22-rdf-syntax-ns#">
   <cc:Work>
    <dc:type rdf:resource="http://purl.org/dc/dcmitype/StillImage"/>
    <dc:date>2023-03-02T15:44:18.175394</dc:date>
    <dc:format>image/svg+xml</dc:format>
    <dc:creator>
     <cc:Agent>
      <dc:title>Matplotlib v3.5.2, https://matplotlib.org/</dc:title>
     </cc:Agent>
    </dc:creator>
   </cc:Work>
  </rdf:RDF>
 </metadata>
 <defs>
  <style type="text/css">*{stroke-linejoin: round; stroke-linecap: butt}</style>
 </defs>
 <g id="figure_1">
  <g id="patch_1">
   <path d="M 0 170.07874 
L 396.850394 170.07874 
L 396.850394 0 
L 0 0 
L 0 170.07874 
z
" style="fill: none"/>
  </g>
  <g id="axes_1">
   <g id="patch_2">
    <path d="M 28.31 149.77874 
L 386.050394 149.77874 
L 386.050394 10.8 
L 28.31 10.8 
z
" style="fill: #ffffff"/>
   </g>
   <g id="matplotlib.axis_1">
    <g id="xtick_1">
     <g id="line2d_1">
      <defs>
       <path id="m792c5bbeb8" d="M 0 0 
L 0 -3.5 
" style="stroke: #000000; stroke-width: 0.8"/>
      </defs>
      <g>
       <use xlink:href="#m792c5bbeb8" x="44.570927" y="149.77874" style="stroke: #000000; stroke-width: 0.8"/>
      </g>
     </g>
     <g id="text_1">
      <!-- 0 -->
      <g transform="translate(42.820927 158.09124)scale(0.07 -0.07)">
       <defs>
        <path id="SimHei-30" d="M 225 2537 
Q 250 3200 412 3587 
Q 575 3975 875 4225 
Q 1175 4475 1612 4475 
Q 2050 4475 2375 4112 
Q 2700 3750 2800 3200 
Q 2900 2650 2862 1937 
Q 2825 1225 2612 775 
Q 2400 325 1975 150 
Q 1550 -25 1125 187 
Q 700 400 525 750 
Q 350 1100 275 1487 
Q 200 1875 225 2537 
z
M 750 2687 
Q 675 2000 800 1462 
Q 925 925 1212 700 
Q 1500 475 1800 612 
Q 2100 750 2237 1162 
Q 2375 1575 2375 2062 
Q 2375 2550 2337 2950 
Q 2300 3350 2112 3675 
Q 1925 4000 1612 4012 
Q 1300 4025 1062 3700 
Q 825 3375 750 2687 
z
" transform="scale(0.015625)"/>
       </defs>
       <use xlink:href="#SimHei-30"/>
      </g>
     </g>
    </g>
    <g id="xtick_2">
     <g id="line2d_2">
      <g>
       <use xlink:href="#m792c5bbeb8" x="109.614635" y="149.77874" style="stroke: #000000; stroke-width: 0.8"/>
      </g>
     </g>
     <g id="text_2">
      <!-- 100 -->
      <g transform="translate(104.364635 158.09124)scale(0.07 -0.07)">
       <defs>
        <path id="SimHei-31" d="M 1400 3600 
Q 1075 3275 575 2975 
L 575 3450 
Q 1200 3875 1600 4450 
L 1900 4450 
L 1900 150 
L 1400 150 
L 1400 3600 
z
" transform="scale(0.015625)"/>
       </defs>
       <use xlink:href="#SimHei-31"/>
       <use xlink:href="#SimHei-30" x="50"/>
       <use xlink:href="#SimHei-30" x="100"/>
      </g>
     </g>
    </g>
    <g id="xtick_3">
     <g id="line2d_3">
      <g>
       <use xlink:href="#m792c5bbeb8" x="174.658343" y="149.77874" style="stroke: #000000; stroke-width: 0.8"/>
      </g>
     </g>
     <g id="text_3">
      <!-- 200 -->
      <g transform="translate(169.408343 158.09124)scale(0.07 -0.07)">
       <defs>
        <path id="SimHei-32" d="M 300 250 
Q 325 625 650 925 
Q 975 1225 1475 1862 
Q 1975 2500 2125 2850 
Q 2275 3200 2237 3450 
Q 2200 3700 2000 3862 
Q 1800 4025 1537 4000 
Q 1275 3975 1037 3800 
Q 800 3625 675 3275 
L 200 3350 
Q 400 3925 712 4187 
Q 1025 4450 1450 4475 
Q 1700 4500 1900 4462 
Q 2100 4425 2312 4287 
Q 2525 4150 2662 3875 
Q 2800 3600 2762 3212 
Q 2725 2825 2375 2287 
Q 2025 1750 1025 600 
L 2825 600 
L 2825 150 
L 300 150 
L 300 250 
z
" transform="scale(0.015625)"/>
       </defs>
       <use xlink:href="#SimHei-32"/>
       <use xlink:href="#SimHei-30" x="50"/>
       <use xlink:href="#SimHei-30" x="100"/>
      </g>
     </g>
    </g>
    <g id="xtick_4">
     <g id="line2d_4">
      <g>
       <use xlink:href="#m792c5bbeb8" x="239.702051" y="149.77874" style="stroke: #000000; stroke-width: 0.8"/>
      </g>
     </g>
     <g id="text_4">
      <!-- 300 -->
      <g transform="translate(234.452051 158.09124)scale(0.07 -0.07)">
       <defs>
        <path id="SimHei-33" d="M 250 1225 
L 700 1300 
Q 800 975 1025 762 
Q 1250 550 1587 562 
Q 1925 575 2125 837 
Q 2325 1100 2300 1437 
Q 2275 1775 2037 1962 
Q 1800 2150 1275 2225 
L 1275 2550 
Q 1800 2600 2037 2825 
Q 2275 3050 2250 3412 
Q 2225 3775 1925 3937 
Q 1625 4100 1287 3975 
Q 950 3850 750 3275 
L 300 3350 
Q 450 3800 712 4100 
Q 975 4400 1425 4450 
Q 1875 4500 2212 4337 
Q 2550 4175 2687 3837 
Q 2825 3500 2725 3100 
Q 2625 2700 2150 2400 
Q 2500 2250 2687 1950 
Q 2875 1650 2812 1162 
Q 2750 675 2375 375 
Q 2000 75 1525 87 
Q 1050 100 700 387 
Q 350 675 250 1225 
z
" transform="scale(0.015625)"/>
       </defs>
       <use xlink:href="#SimHei-33"/>
       <use xlink:href="#SimHei-30" x="50"/>
       <use xlink:href="#SimHei-30" x="100"/>
      </g>
     </g>
    </g>
    <g id="xtick_5">
     <g id="line2d_5">
      <g>
       <use xlink:href="#m792c5bbeb8" x="304.745759" y="149.77874" style="stroke: #000000; stroke-width: 0.8"/>
      </g>
     </g>
     <g id="text_5">
      <!-- 400 -->
      <g transform="translate(299.495759 158.09124)scale(0.07 -0.07)">
       <defs>
        <path id="SimHei-34" d="M 2000 1100 
L 75 1100 
L 75 1525 
L 2100 4450 
L 2475 4450 
L 2475 1525 
L 3075 1525 
L 3075 1100 
L 2475 1100 
L 2475 150 
L 2000 150 
L 2000 1100 
z
M 2000 1525 
L 2000 3500 
L 600 1525 
L 2000 1525 
z
" transform="scale(0.015625)"/>
       </defs>
       <use xlink:href="#SimHei-34"/>
       <use xlink:href="#SimHei-30" x="50"/>
       <use xlink:href="#SimHei-30" x="100"/>
      </g>
     </g>
    </g>
    <g id="xtick_6">
     <g id="line2d_6">
      <g>
       <use xlink:href="#m792c5bbeb8" x="369.789467" y="149.77874" style="stroke: #000000; stroke-width: 0.8"/>
      </g>
     </g>
     <g id="text_6">
      <!-- 500 -->
      <g transform="translate(364.539467 158.09124)scale(0.07 -0.07)">
       <defs>
        <path id="SimHei-35" d="M 550 1325 
Q 725 650 1150 575 
Q 1575 500 1837 662 
Q 2100 825 2212 1087 
Q 2325 1350 2312 1675 
Q 2300 2000 2137 2225 
Q 1975 2450 1725 2525 
Q 1475 2600 1162 2525 
Q 850 2450 650 2175 
L 225 2225 
Q 275 2375 700 4375 
L 2675 4375 
L 2675 3925 
L 1075 3925 
Q 950 3250 825 2850 
Q 1200 3025 1525 3012 
Q 1850 3000 2150 2862 
Q 2450 2725 2587 2487 
Q 2725 2250 2787 2012 
Q 2850 1775 2837 1500 
Q 2825 1225 2725 937 
Q 2625 650 2425 462 
Q 2225 275 1937 162 
Q 1650 50 1275 75 
Q 900 100 562 350 
Q 225 600 100 1200 
L 550 1325 
z
" transform="scale(0.015625)"/>
       </defs>
       <use xlink:href="#SimHei-35"/>
       <use xlink:href="#SimHei-30" x="50"/>
       <use xlink:href="#SimHei-30" x="100"/>
      </g>
     </g>
    </g>
   </g>
   <g id="matplotlib.axis_2">
    <g id="ytick_1">
     <g id="line2d_7">
      <defs>
       <path id="meeef115dd1" d="M 0 0 
L 3.5 0 
" style="stroke: #000000; stroke-width: 0.8"/>
      </defs>
      <g>
       <use xlink:href="#meeef115dd1" x="28.31" y="144.383439" style="stroke: #000000; stroke-width: 0.8"/>
      </g>
     </g>
     <g id="text_7">
      <!-- -1.2 -->
      <g transform="translate(10.81 146.789689)scale(0.07 -0.07)">
       <defs>
        <path id="SimHei-2d" d="M 2975 2125 
L 125 2125 
L 125 2525 
L 2975 2525 
L 2975 2125 
z
" transform="scale(0.015625)"/>
        <path id="SimHei-2e" d="M 1075 125 
L 500 125 
L 500 675 
L 1075 675 
L 1075 125 
z
" transform="scale(0.015625)"/>
       </defs>
       <use xlink:href="#SimHei-2d"/>
       <use xlink:href="#SimHei-31" x="50"/>
       <use xlink:href="#SimHei-2e" x="100"/>
       <use xlink:href="#SimHei-32" x="150"/>
      </g>
     </g>
    </g>
    <g id="ytick_2">
     <g id="line2d_8">
      <g>
       <use xlink:href="#meeef115dd1" x="28.31" y="128.536686" style="stroke: #000000; stroke-width: 0.8"/>
      </g>
     </g>
     <g id="text_8">
      <!-- -1.1 -->
      <g transform="translate(10.81 130.942936)scale(0.07 -0.07)">
       <use xlink:href="#SimHei-2d"/>
       <use xlink:href="#SimHei-31" x="50"/>
       <use xlink:href="#SimHei-2e" x="100"/>
       <use xlink:href="#SimHei-31" x="150"/>
      </g>
     </g>
    </g>
    <g id="ytick_3">
     <g id="line2d_9">
      <g>
       <use xlink:href="#meeef115dd1" x="28.31" y="112.689933" style="stroke: #000000; stroke-width: 0.8"/>
      </g>
     </g>
     <g id="text_9">
      <!-- -1.0 -->
      <g transform="translate(10.81 115.096183)scale(0.07 -0.07)">
       <use xlink:href="#SimHei-2d"/>
       <use xlink:href="#SimHei-31" x="50"/>
       <use xlink:href="#SimHei-2e" x="100"/>
       <use xlink:href="#SimHei-30" x="150"/>
      </g>
     </g>
    </g>
    <g id="ytick_4">
     <g id="line2d_10">
      <g>
       <use xlink:href="#meeef115dd1" x="28.31" y="96.84318" style="stroke: #000000; stroke-width: 0.8"/>
      </g>
     </g>
     <g id="text_10">
      <!-- -0.9 -->
      <g transform="translate(10.81 99.24943)scale(0.07 -0.07)">
       <defs>
        <path id="SimHei-39" d="M 800 75 
Q 1350 1000 1700 1750 
Q 1075 1650 662 1912 
Q 250 2175 162 2625 
Q 75 3075 175 3437 
Q 275 3800 487 4037 
Q 700 4275 1000 4375 
Q 1300 4475 1537 4475 
Q 1775 4475 2025 4375 
Q 2275 4275 2475 4075 
Q 2675 3875 2750 3662 
Q 2825 3450 2825 3112 
Q 2825 2775 2575 2250 
Q 2325 1725 1350 75 
L 800 75 
z
M 662 2875 
Q 700 2550 937 2337 
Q 1175 2125 1450 2150 
Q 1725 2175 1887 2300 
Q 2050 2425 2200 2725 
Q 2300 3100 2250 3362 
Q 2200 3625 1987 3800 
Q 1775 3975 1525 3975 
Q 1375 4000 1137 3900 
Q 900 3800 762 3500 
Q 625 3200 662 2875 
z
" transform="scale(0.015625)"/>
       </defs>
       <use xlink:href="#SimHei-2d"/>
       <use xlink:href="#SimHei-30" x="50"/>
       <use xlink:href="#SimHei-2e" x="100"/>
       <use xlink:href="#SimHei-39" x="150"/>
      </g>
     </g>
    </g>
    <g id="ytick_5">
     <g id="line2d_11">
      <g>
       <use xlink:href="#meeef115dd1" x="28.31" y="80.996427" style="stroke: #000000; stroke-width: 0.8"/>
      </g>
     </g>
     <g id="text_11">
      <!-- -0.8 -->
      <g transform="translate(10.81 83.402677)scale(0.07 -0.07)">
       <defs>
        <path id="SimHei-38" d="M 175 1375 
Q 175 1675 325 1962 
Q 475 2250 825 2425 
Q 525 2600 425 2812 
Q 325 3025 312 3300 
Q 300 3575 387 3775 
Q 475 3975 650 4150 
Q 825 4325 1037 4387 
Q 1250 4450 1500 4450 
Q 1750 4450 1950 4400 
Q 2150 4350 2375 4187 
Q 2600 4025 2700 3725 
Q 2800 3425 2687 3025 
Q 2575 2625 2100 2400 
Q 2525 2275 2700 2012 
Q 2875 1750 2875 1375 
Q 2875 1000 2762 775 
Q 2650 550 2512 400 
Q 2375 250 2137 162 
Q 1900 75 1537 75 
Q 1175 75 912 162 
Q 650 250 475 425 
Q 300 600 237 837 
Q 175 1075 175 1375 
z
M 687 1400 
Q 675 1100 787 875 
Q 900 650 1200 587 
Q 1500 525 1825 600 
Q 2150 675 2275 950 
Q 2400 1225 2362 1500 
Q 2325 1775 2050 1962 
Q 1775 2150 1450 2125 
Q 1125 2100 912 1900 
Q 700 1700 687 1400 
z
M 775 3350 
Q 775 3100 950 2875 
Q 1125 2650 1500 2650 
Q 1875 2650 2062 2875 
Q 2250 3100 2237 3412 
Q 2225 3725 2012 3875 
Q 1800 4025 1437 4000 
Q 1075 3975 925 3787 
Q 775 3600 775 3350 
z
" transform="scale(0.015625)"/>
       </defs>
       <use xlink:href="#SimHei-2d"/>
       <use xlink:href="#SimHei-30" x="50"/>
       <use xlink:href="#SimHei-2e" x="100"/>
       <use xlink:href="#SimHei-38" x="150"/>
      </g>
     </g>
    </g>
    <g id="ytick_6">
     <g id="line2d_12">
      <g>
       <use xlink:href="#meeef115dd1" x="28.31" y="65.149674" style="stroke: #000000; stroke-width: 0.8"/>
      </g>
     </g>
     <g id="text_12">
      <!-- -0.7 -->
      <g transform="translate(10.81 67.555924)scale(0.07 -0.07)">
       <defs>
        <path id="SimHei-37" d="M 850 150 
Q 1300 2050 2425 3925 
L 275 3925 
L 275 4375 
L 2950 4375 
L 2950 3950 
Q 1775 2050 1400 150 
L 850 150 
z
" transform="scale(0.015625)"/>
       </defs>
       <use xlink:href="#SimHei-2d"/>
       <use xlink:href="#SimHei-30" x="50"/>
       <use xlink:href="#SimHei-2e" x="100"/>
       <use xlink:href="#SimHei-37" x="150"/>
      </g>
     </g>
    </g>
    <g id="ytick_7">
     <g id="line2d_13">
      <g>
       <use xlink:href="#meeef115dd1" x="28.31" y="49.30292" style="stroke: #000000; stroke-width: 0.8"/>
      </g>
     </g>
     <g id="text_13">
      <!-- -0.6 -->
      <g transform="translate(10.81 51.70917)scale(0.07 -0.07)">
       <defs>
        <path id="SimHei-36" d="M 250 1612 
Q 275 1975 387 2225 
Q 500 2475 725 2850 
L 1750 4450 
L 2325 4450 
L 1275 2800 
Q 1950 2975 2350 2750 
Q 2750 2525 2887 2237 
Q 3025 1950 3037 1612 
Q 3050 1275 2937 950 
Q 2825 625 2537 362 
Q 2250 100 1737 75 
Q 1225 50 862 262 
Q 500 475 362 862 
Q 225 1250 250 1612 
z
M 1025 787 
Q 1250 550 1625 525 
Q 2000 500 2250 775 
Q 2500 1050 2500 1575 
Q 2500 2100 2187 2300 
Q 1875 2500 1487 2450 
Q 1100 2400 925 2075 
Q 750 1750 775 1387 
Q 800 1025 1025 787 
z
" transform="scale(0.015625)"/>
       </defs>
       <use xlink:href="#SimHei-2d"/>
       <use xlink:href="#SimHei-30" x="50"/>
       <use xlink:href="#SimHei-2e" x="100"/>
       <use xlink:href="#SimHei-36" x="150"/>
      </g>
     </g>
    </g>
    <g id="ytick_8">
     <g id="line2d_14">
      <g>
       <use xlink:href="#meeef115dd1" x="28.31" y="33.456167" style="stroke: #000000; stroke-width: 0.8"/>
      </g>
     </g>
     <g id="text_14">
      <!-- -0.5 -->
      <g transform="translate(10.81 35.862417)scale(0.07 -0.07)">
       <use xlink:href="#SimHei-2d"/>
       <use xlink:href="#SimHei-30" x="50"/>
       <use xlink:href="#SimHei-2e" x="100"/>
       <use xlink:href="#SimHei-35" x="150"/>
      </g>
     </g>
    </g>
    <g id="ytick_9">
     <g id="line2d_15">
      <g>
       <use xlink:href="#meeef115dd1" x="28.31" y="17.609414" style="stroke: #000000; stroke-width: 0.8"/>
      </g>
     </g>
     <g id="text_15">
      <!-- -0.4 -->
      <g transform="translate(10.81 20.015664)scale(0.07 -0.07)">
       <use xlink:href="#SimHei-2d"/>
       <use xlink:href="#SimHei-30" x="50"/>
       <use xlink:href="#SimHei-2e" x="100"/>
       <use xlink:href="#SimHei-34" x="150"/>
      </g>
     </g>
    </g>
   </g>
   <g id="line2d_16">
    <path d="M 44.570927 141.052593 
L 49.774424 143.126533 
L 50.424861 143.461525 
L 51.075298 79.408817 
L 51.725735 79.140823 
L 52.376172 78.676279 
L 53.026609 77.882365 
L 53.677046 76.587051 
L 54.327483 74.588272 
L 54.97792 71.636697 
L 55.628357 67.47307 
L 56.278794 61.836848 
L 56.929231 54.48912 
L 57.579669 50.746304 
L 58.230106 49.680334 
L 59.53098 46.652658 
L 61.482291 39.752934 
L 62.783165 35.110425 
L 63.433602 33.21284 
L 64.084039 32.100502 
L 65.384914 30.287627 
L 67.986662 26.023029 
L 69.287536 24.460873 
L 69.937973 23.810987 
L 71.238847 22.929854 
L 72.539721 21.999208 
L 73.840596 21.092147 
L 75.14147 20.473795 
L 79.694529 18.864378 
L 80.995403 18.677161 
L 84.898026 18.114791 
L 86.849337 18.06015 
L 87.499774 18.170075 
L 92.052834 17.563709 
L 92.703271 17.563331 
L 94.004145 17.448456 
L 95.955456 17.56719 
L 97.906768 17.430765 
L 98.557205 17.467465 
L 99.207642 17.615517 
L 100.508516 17.59281 
L 101.158953 17.676931 
L 102.459827 17.653913 
L 103.110264 17.702089 
L 103.760701 17.567109 
L 108.964198 17.525663 
L 109.614635 17.694991 
L 110.265072 17.734109 
L 110.915509 17.640925 
L 112.86682 17.804992 
L 114.167694 17.614445 
L 115.468569 17.696474 
L 116.119006 17.618932 
L 116.769443 17.738794 
L 117.41988 17.654744 
L 118.070317 17.717107 
L 120.021628 17.556757 
L 121.972939 17.781473 
L 123.273814 17.779697 
L 123.924251 17.853385 
L 126.525999 17.359287 
L 127.826873 17.69721 
L 129.778184 17.87741 
L 130.428621 17.753179 
L 131.079059 17.407449 
L 132.379933 17.449146 
L 133.03037 17.359141 
L 133.680807 17.444886 
L 134.331244 17.667977 
L 134.981681 17.655641 
L 135.632118 17.814768 
L 136.282555 17.784505 
L 136.932992 17.613576 
L 137.583429 17.572422 
L 138.233866 17.775201 
L 138.884304 17.835883 
L 140.185178 17.689583 
L 141.486052 17.835737 
L 144.0878 17.564937 
L 144.738237 17.803079 
L 145.388674 17.657355 
L 147.990423 17.636155 
L 148.64086 17.697692 
L 149.291297 17.571006 
L 149.941734 17.660775 
L 151.242608 17.530518 
L 154.494793 17.579436 
L 157.096542 17.73783 
L 159.69829 17.502862 
L 162.950475 17.701862 
L 163.600913 17.594921 
L 164.901787 17.618285 
L 166.202661 17.504449 
L 168.153972 17.554358 
L 168.804409 17.508444 
L 170.75572 17.732106 
L 173.357469 17.534494 
L 174.658343 17.44542 
L 177.910528 17.549097 
L 179.86184 17.38742 
L 181.813151 17.5178 
L 182.463588 17.414434 
L 183.764462 17.576517 
L 185.065336 17.557036 
L 187.667084 17.931145 
L 189.618396 17.872394 
L 190.268833 17.762029 
L 190.91927 17.808893 
L 191.569707 17.650012 
L 192.870581 17.684402 
L 194.821892 17.62526 
L 198.074078 17.590515 
L 198.724515 17.794139 
L 200.025389 17.566377 
L 200.675826 17.515405 
L 201.9767 17.761354 
L 202.627137 17.644798 
L 203.277574 17.775772 
L 204.578449 17.676837 
L 205.228886 17.695897 
L 205.879323 17.483867 
L 206.52976 17.563445 
L 207.830634 17.397876 
L 208.481071 17.613878 
L 209.131508 17.698382 
L 210.432382 17.485784 
L 211.082819 17.52392 
L 213.034131 17.315711 
L 213.684568 17.523604 
L 214.335005 17.438817 
L 215.635879 17.691449 
L 216.936753 17.441434 
L 222.14025 17.165675 
L 225.392435 17.486512 
L 226.693309 17.455021 
L 228.64462 17.617491 
L 229.295058 17.434798 
L 230.595932 17.375788 
L 231.246369 17.213346 
L 232.547243 17.272389 
L 233.19768 17.202422 
L 235.148991 17.386863 
L 238.401177 17.233833 
L 239.702051 17.561234 
L 241.653362 17.506876 
L 242.303799 17.380364 
L 242.954236 17.474044 
L 243.604673 17.699557 
L 244.905547 17.773482 
L 245.555985 17.552606 
L 246.206422 17.673701 
L 246.856859 17.552497 
L 247.507296 17.70727 
L 248.80817 17.744003 
L 249.458607 17.652704 
L 250.109044 17.769623 
L 250.759481 17.529493 
L 251.409918 17.45537 
L 254.011667 17.584272 
L 254.662104 17.503905 
L 256.613415 17.695538 
L 259.215163 17.793506 
L 259.8656 17.587795 
L 260.516037 17.683713 
L 261.816912 17.582014 
L 263.117786 17.569164 
L 267.670845 17.362347 
L 270.272594 17.556993 
L 271.573468 17.440668 
L 272.223905 17.433891 
L 272.874342 17.267345 
L 274.175216 17.400799 
L 279.378713 17.539548 
L 280.02915 17.653757 
L 283.281335 17.23116 
L 283.931772 17.219726 
L 285.883083 17.456022 
L 286.533521 17.366829 
L 287.183958 17.514451 
L 289.135269 17.415633 
L 290.436143 17.294109 
L 291.08658 17.469954 
L 293.037891 17.411034 
L 294.989203 17.380213 
L 295.63964 17.458771 
L 296.290077 17.34297 
L 301.493573 17.563539 
L 302.794448 17.231009 
L 305.396196 17.345265 
L 306.69707 17.608013 
L 309.298818 17.72277 
L 310.599692 17.702589 
L 312.551004 17.645223 
L 313.201441 17.576196 
L 313.851878 17.379902 
L 315.152752 17.355372 
L 316.453626 17.540275 
L 317.7545 17.577901 
L 319.055375 17.723232 
L 319.705812 17.649303 
L 321.657123 17.713839 
L 322.957997 17.716824 
L 323.608434 17.575686 
L 324.909308 17.600149 
L 325.559745 17.504024 
L 327.511057 17.837781 
L 328.161494 17.868559 
L 330.112805 17.706996 
L 330.763242 17.770686 
L 332.714553 17.638252 
L 335.316302 17.617449 
L 335.966739 17.419879 
L 340.519798 17.449764 
L 343.771984 17.227382 
L 345.072858 17.320778 
L 345.723295 17.373743 
L 347.674606 17.254495 
L 348.325043 17.40973 
L 350.926791 17.337161 
L 353.52854 17.490186 
L 354.178977 17.430293 
L 354.829414 17.55585 
L 356.130288 17.55671 
L 357.431162 17.89308 
L 360.032911 17.973063 
L 360.683348 17.85305 
L 363.935533 17.770922 
L 364.58597 17.705952 
L 365.236407 17.875365 
L 365.886844 17.580673 
L 366.537281 17.509379 
L 367.838155 17.571572 
L 369.13903 17.429013 
L 369.789467 17.452924 
L 369.789467 17.452924 
" clip-path="url(#pe9948bba6c)" style="fill: none; stroke: #1f77b4; stroke-width: 1.5; stroke-linecap: square"/>
   </g>
   <g id="line2d_17">
    <path d="M 44.570927 17.609414 
L 369.13903 17.609414 
L 369.13903 17.609414 
" clip-path="url(#pe9948bba6c)" style="fill: none; stroke: #ff7f0e; stroke-width: 1.5; stroke-linecap: square"/>
   </g>
   <g id="patch_3">
    <path d="M 28.31 149.77874 
L 28.31 10.8 
" style="fill: none; stroke: #000000; stroke-linejoin: miter; stroke-linecap: square"/>
   </g>
   <g id="patch_4">
    <path d="M 386.050394 149.77874 
L 386.050394 10.8 
" style="fill: none; stroke: #000000; stroke-linejoin: miter; stroke-linecap: square"/>
   </g>
   <g id="patch_5">
    <path d="M 28.31 149.77874 
L 386.050394 149.77874 
" style="fill: none; stroke: #000000; stroke-linejoin: miter; stroke-linecap: square"/>
   </g>
   <g id="patch_6">
    <path d="M 28.31 10.8 
L 386.050394 10.8 
" style="fill: none; stroke: #000000; stroke-linejoin: miter; stroke-linecap: square"/>
   </g>
   <g id="legend_1">
    <g id="patch_7">
     <path d="M 314.650394 146.77874 
L 381.850394 146.77874 
Q 383.050394 146.77874 383.050394 145.57874 
L 383.050394 128.975615 
Q 383.050394 127.775615 381.850394 127.775615 
L 314.650394 127.775615 
Q 313.450394 127.775615 313.450394 128.975615 
L 313.450394 145.57874 
Q 313.450394 146.77874 314.650394 146.77874 
z
" style="fill: #ffffff; opacity: 0.8; stroke: #cccccc; stroke-linejoin: miter"/>
    </g>
    <g id="line2d_18">
     <path d="M 315.850394 132.927178 
L 321.850394 132.927178 
L 327.850394 132.927178 
" style="fill: none; stroke: #1f77b4; stroke-width: 1.5; stroke-linecap: square"/>
    </g>
    <g id="text_16">
     <!-- 稳压器压力响应 -->
     <g transform="translate(332.650394 135.027178)scale(0.06 -0.06)">
      <defs>
       <path id="SimHei-7a33" d="M 4050 5125 
Q 3875 4975 3675 4625 
L 5325 4625 
Q 5200 4450 5062 4212 
Q 4925 3975 4800 3650 
L 5625 3650 
Q 5600 3350 5600 2600 
Q 5600 1875 5625 1425 
L 3425 1425 
Q 3075 1425 2750 1400 
L 2750 1850 
Q 3075 1825 3450 1825 
L 5100 1825 
L 5100 2375 
L 3550 2375 
Q 3175 2375 2875 2350 
L 2875 2775 
Q 3175 2750 3525 2750 
L 5100 2750 
L 5100 3275 
L 3775 3275 
Q 3350 3275 3050 3250 
L 3050 3650 
Q 2875 3425 2725 3200 
Q 2525 3400 2350 3475 
Q 2675 3875 2987 4412 
Q 3300 4950 3400 5300 
Q 3725 5200 4050 5125 
z
M 2500 4575 
Q 2275 4575 2012 4512 
Q 1750 4450 1625 4450 
L 1625 3350 
Q 1975 3350 2375 3375 
L 2375 2950 
Q 1925 2975 1625 2975 
L 1625 2225 
Q 1775 2325 1950 2500 
Q 2225 2100 2525 1600 
Q 2300 1500 2150 1350 
Q 1950 1725 1625 2175 
L 1625 400 
Q 1625 25 1650 -625 
L 1150 -625 
Q 1200 25 1200 400 
L 1200 2075 
Q 875 1250 475 650 
Q 375 925 175 1125 
Q 325 1250 650 1887 
Q 975 2525 1050 2975 
Q 750 2975 275 2950 
L 275 3375 
Q 750 3350 1200 3350 
L 1200 4325 
Q 950 4275 550 4200 
Q 475 4425 275 4625 
Q 750 4675 1237 4775 
Q 1725 4875 2125 5075 
Q 2275 4775 2500 4575 
z
M 3675 1025 
Q 3650 700 3650 300 
Q 3650 -75 3775 -100 
Q 3900 -125 4250 -125 
Q 4600 -125 4687 -100 
Q 4775 -75 4825 425 
Q 5025 275 5350 200 
Q 5150 -450 4950 -500 
Q 4750 -550 4175 -550 
Q 3625 -550 3425 -487 
Q 3225 -425 3225 -100 
L 3225 525 
Q 3225 775 3200 1025 
L 3675 1025 
z
M 3050 3675 
Q 3325 3650 3775 3650 
L 4275 3650 
Q 4450 4000 4575 4275 
L 3425 4275 
Q 3275 4050 3050 3675 
z
M 2925 900 
Q 2800 725 2700 287 
Q 2600 -150 2550 -300 
Q 2325 -200 2075 -175 
Q 2225 200 2275 412 
Q 2325 625 2425 1000 
L 2925 900 
z
M 5575 1100 
Q 5950 475 6175 50 
Q 5950 -25 5750 -175 
Q 5625 175 5200 925 
Q 5425 975 5575 1100 
z
M 4225 1300 
Q 4525 825 4625 525 
Q 4550 500 4250 350 
Q 4150 700 3850 1125 
Q 4050 1200 4225 1300 
z
" transform="scale(0.015625)"/>
       <path id="SimHei-538b" d="M 3300 2725 
L 3300 3475 
Q 3300 3875 3275 4150 
L 3850 4150 
Q 3800 3950 3800 3450 
L 3800 2725 
L 4700 2725 
Q 5225 2725 5475 2750 
L 5475 2200 
Q 5225 2225 4700 2225 
L 3800 2225 
L 3800 175 
L 4900 175 
Q 5525 175 5850 200 
L 5850 -325 
Q 5525 -300 4925 -300 
L 2375 -300 
Q 1725 -300 1450 -325 
L 1450 200 
Q 1825 175 2375 175 
L 3300 175 
L 3300 2225 
L 2725 2225 
Q 2075 2225 1850 2200 
L 1850 2750 
Q 2250 2725 2725 2725 
L 3300 2725 
z
M 4900 4950 
Q 5450 4950 5750 4975 
L 5750 4475 
Q 5500 4500 4900 4500 
L 1450 4500 
L 1450 2275 
Q 1450 1425 1262 725 
Q 1075 25 725 -650 
Q 525 -450 200 -325 
Q 625 300 775 862 
Q 925 1425 950 2125 
L 950 4000 
Q 925 4525 900 4950 
L 4900 4950 
z
M 4625 1850 
Q 5025 1325 5275 925 
Q 5000 775 4775 625 
Q 4525 1150 4225 1575 
Q 4450 1700 4625 1850 
z
" transform="scale(0.015625)"/>
       <path id="SimHei-5668" d="M 275 1925 
Q 775 1925 1212 2000 
Q 1650 2075 1987 2200 
Q 2325 2325 2625 2625 
L 1525 2625 
Q 1250 2625 550 2600 
L 550 3025 
Q 1250 3000 1525 3000 
L 2750 3000 
Q 2825 3225 2800 3550 
Q 3125 3500 3475 3450 
Q 3325 3300 3300 3000 
L 4425 3000 
Q 4250 3175 4075 3300 
L 4425 3550 
Q 4625 3400 4800 3200 
Q 4650 3125 4500 3000 
L 4875 3000 
Q 5425 3000 5875 3025 
L 5875 2600 
Q 5450 2625 4875 2625 
L 3625 2625 
Q 4100 2225 4837 2112 
Q 5575 2000 6100 2050 
Q 5900 1800 5850 1500 
Q 5225 1550 4787 1637 
Q 4350 1725 3987 1900 
Q 3625 2075 3150 2575 
Q 2700 2000 1975 1762 
Q 1250 1525 525 1425 
Q 450 1725 275 1925 
z
M 5025 -575 
L 5025 -100 
L 3825 -100 
L 3825 -550 
L 3400 -550 
Q 3425 0 3425 475 
Q 3425 975 3400 1425 
L 5475 1425 
Q 5450 1125 5450 400 
Q 5450 -300 5475 -575 
L 5025 -575 
z
M 2400 -550 
L 2400 -100 
L 1325 -100 
L 1325 -575 
L 875 -575 
Q 900 -150 900 475 
Q 900 1100 875 1425 
L 2825 1425 
Q 2800 1025 2800 425 
Q 2800 -150 2825 -550 
L 2400 -550 
z
M 5475 5025 
Q 5450 4700 5450 4350 
Q 5450 4000 5475 3625 
L 3375 3625 
Q 3400 4000 3400 4350 
Q 3400 4725 3375 5025 
L 5475 5025 
z
M 2825 5025 
Q 2800 4700 2800 4325 
Q 2800 3975 2825 3625 
L 875 3625 
Q 900 3975 900 4325 
Q 900 4700 875 5025 
L 2825 5025 
z
M 5025 250 
L 5025 1050 
L 3825 1050 
L 3825 250 
L 5025 250 
z
M 2400 250 
L 2400 1050 
L 1325 1050 
L 1325 250 
L 2400 250 
z
M 5025 3975 
L 5025 4675 
L 3825 4675 
L 3825 3975 
L 5025 3975 
z
M 2400 3975 
L 2400 4675 
L 1325 4675 
L 1325 3975 
L 2400 3975 
z
" transform="scale(0.015625)"/>
       <path id="SimHei-529b" d="M 3275 3275 
Q 3200 2400 3050 1875 
Q 2900 1350 2637 912 
Q 2375 475 1950 87 
Q 1525 -300 925 -675 
Q 800 -475 425 -250 
Q 1025 50 1425 375 
Q 1825 700 2112 1112 
Q 2400 1525 2537 2050 
Q 2675 2575 2725 3275 
L 2000 3275 
Q 1275 3275 675 3250 
L 675 3750 
Q 1275 3725 2000 3725 
L 2750 3725 
L 2750 4475 
Q 2750 4825 2725 5200 
Q 3000 5150 3350 5125 
Q 3300 4900 3287 4475 
Q 3275 4050 3275 3725 
L 5825 3725 
Q 5725 2375 5700 1862 
Q 5675 1350 5600 612 
Q 5525 -125 5187 -300 
Q 4850 -475 4025 -550 
Q 4000 -250 3775 100 
Q 4500 75 4750 175 
Q 5000 275 5037 550 
Q 5075 825 5112 1262 
Q 5150 1700 5225 3275 
L 3275 3275 
z
" transform="scale(0.015625)"/>
       <path id="SimHei-54cd" d="M 4150 5125 
Q 4000 4975 3850 4325 
L 5875 4325 
Q 5850 3800 5850 3325 
L 5850 50 
Q 5825 -225 5625 -350 
Q 5425 -475 4850 -550 
Q 4850 -325 4600 25 
Q 5125 25 5237 62 
Q 5350 100 5350 225 
L 5350 3950 
L 2950 3950 
L 2950 -575 
L 2450 -575 
Q 2475 -75 2475 450 
L 2475 3125 
Q 2475 3750 2450 4325 
L 3350 4325 
Q 3475 4775 3525 5250 
Q 3950 5150 4150 5125 
z
M 4875 900 
L 3425 900 
L 3425 3100 
L 4875 3100 
L 4875 900 
z
M 4450 1275 
L 4450 2700 
L 3875 2700 
L 3875 1275 
L 4450 1275 
z
M 2075 4500 
Q 2050 3975 2050 3425 
L 2050 1750 
Q 2050 1250 2075 600 
L 1650 600 
L 1650 1050 
L 950 1050 
L 950 275 
L 500 275 
Q 525 750 525 1275 
L 525 3425 
Q 525 3975 500 4500 
L 2075 4500 
z
M 1650 1400 
L 1650 4125 
L 950 4125 
L 950 1400 
L 1650 1400 
z
" transform="scale(0.015625)"/>
       <path id="SimHei-5e94" d="M 3525 5275 
Q 3700 4825 3850 4400 
L 4750 4400 
Q 5275 4400 5850 4425 
L 5850 3975 
Q 5275 4000 4750 4000 
L 1475 4000 
Q 1475 2525 1425 1900 
Q 1375 1275 1237 625 
Q 1100 -25 750 -625 
Q 575 -400 300 -250 
Q 625 175 800 937 
Q 975 1700 1000 2575 
Q 1025 3450 1000 4400 
L 3250 4400 
Q 3175 4750 3000 5100 
Q 3250 5150 3525 5275 
z
M 5625 3125 
Q 5375 2575 5187 2050 
Q 5000 1525 4450 225 
L 5150 225 
Q 5500 225 5925 250 
L 5925 -275 
Q 5500 -250 5150 -250 
L 2475 -250 
Q 2050 -250 1450 -275 
L 1450 250 
Q 2025 225 2475 225 
L 3950 225 
Q 4325 1000 4612 1850 
Q 4900 2700 5025 3350 
Q 5350 3175 5625 3125 
z
M 2100 2850 
Q 2750 1825 3075 1050 
Q 2900 950 2650 800 
Q 2150 1925 1700 2575 
Q 1925 2750 2100 2850 
z
M 3300 3425 
Q 3800 2550 4175 1700 
Q 3950 1575 3700 1450 
Q 3400 2300 2900 3200 
Q 3100 3275 3300 3425 
z
" transform="scale(0.015625)"/>
      </defs>
      <use xlink:href="#SimHei-7a33"/>
      <use xlink:href="#SimHei-538b" x="100"/>
      <use xlink:href="#SimHei-5668" x="200"/>
      <use xlink:href="#SimHei-538b" x="300"/>
      <use xlink:href="#SimHei-529b" x="400"/>
      <use xlink:href="#SimHei-54cd" x="500"/>
      <use xlink:href="#SimHei-5e94" x="600"/>
     </g>
    </g>
    <g id="line2d_19">
     <path d="M 315.850394 141.52874 
L 321.850394 141.52874 
L 327.850394 141.52874 
" style="fill: none; stroke: #ff7f0e; stroke-width: 1.5; stroke-linecap: square"/>
    </g>
    <g id="text_17">
     <!-- 稳压器压力设定值 -->
     <g transform="translate(332.650394 143.62874)scale(0.06 -0.06)">
      <defs>
       <path id="SimHei-8bbe" d="M 2275 2525 
Q 2675 2500 3175 2500 
L 5425 2500 
Q 5275 2050 5012 1512 
Q 4750 975 4300 450 
Q 5100 -75 6150 -100 
Q 5950 -325 5850 -625 
Q 4775 -400 3925 150 
Q 3600 -50 3150 -287 
Q 2700 -525 2175 -675 
Q 2075 -475 1800 -300 
Q 2350 -200 2837 25 
Q 3325 250 3575 475 
Q 3025 1050 2675 2100 
L 2275 2100 
L 2275 2525 
z
M 4825 2775 
Q 4400 2775 4375 3125 
L 4375 4525 
L 3275 4525 
Q 3275 3825 3112 3425 
Q 2950 3025 2425 2600 
Q 2325 2775 2025 2900 
Q 2650 3325 2737 3875 
Q 2825 4425 2800 4925 
L 4900 4925 
Q 4875 4625 4875 4175 
L 4875 3500 
Q 4875 3300 5012 3262 
Q 5150 3225 5400 3237 
Q 5650 3250 5975 3275 
Q 5925 3025 5975 2775 
L 4825 2775 
z
M 1650 3225 
Q 1625 2775 1625 2225 
L 1625 700 
Q 1950 1000 2175 1300 
Q 2250 1050 2425 775 
Q 2100 475 1825 200 
Q 1550 -75 1325 -400 
Q 1150 -125 950 25 
Q 1150 225 1150 600 
L 1150 2800 
Q 625 2800 275 2775 
L 275 3250 
Q 600 3225 950 3225 
L 1650 3225 
z
M 3950 800 
Q 4450 1300 4725 2100 
L 3175 2100 
Q 3350 1325 3950 800 
z
M 1025 5175 
Q 1425 4850 2000 4150 
Q 1800 4025 1600 3825 
Q 1175 4400 700 4850 
Q 850 4950 1025 5175 
z
" transform="scale(0.015625)"/>
       <path id="SimHei-5b9a" d="M 4200 3125 
Q 4675 3125 5175 3150 
L 5175 2675 
Q 4725 2700 4100 2700 
L 3550 2700 
L 3550 1700 
L 4600 1700 
Q 4875 1700 5375 1725 
L 5375 1250 
Q 4875 1275 4575 1275 
L 3550 1275 
L 3550 100 
Q 4600 -25 6050 125 
Q 5850 -200 5800 -475 
Q 4800 -475 4150 -450 
Q 3500 -425 3050 -300 
Q 2600 -175 2250 75 
Q 1900 325 1600 675 
Q 1200 -50 675 -575 
Q 450 -350 175 -250 
Q 875 300 1200 1050 
Q 1525 1800 1550 2200 
Q 1800 2050 2150 1975 
Q 2075 1875 1987 1662 
Q 1900 1450 1775 1125 
Q 1950 900 2300 612 
Q 2650 325 3050 200 
L 3050 2700 
L 2250 2700 
Q 1825 2700 1400 2675 
L 1400 3150 
Q 1825 3125 2400 3125 
L 4200 3125 
z
M 5750 4275 
Q 5725 3925 5725 3750 
Q 5725 3575 5750 3275 
L 5225 3275 
L 5225 3875 
L 1225 3875 
L 1225 3275 
L 700 3275 
Q 725 3475 725 3725 
Q 725 3975 700 4275 
L 5750 4275 
z
M 2650 5050 
Q 2875 5125 3100 5300 
Q 3375 4975 3600 4550 
Q 3250 4400 3100 4300 
Q 3050 4525 2650 5050 
z
" transform="scale(0.015625)"/>
       <path id="SimHei-503c" d="M 3675 4450 
L 3675 5100 
Q 3975 5075 4350 5050 
Q 4225 4875 4200 4450 
L 5125 4450 
Q 5550 4450 5875 4475 
L 5875 4025 
Q 5525 4050 5125 4050 
L 4175 4050 
L 4125 3500 
L 5400 3500 
Q 5375 3200 5375 2700 
L 5375 150 
Q 5875 150 6100 175 
L 6100 -275 
Q 5775 -250 5200 -250 
L 2850 -250 
Q 2275 -250 1900 -275 
L 1900 175 
Q 2125 150 2600 150 
L 2600 2700 
Q 2600 3175 2575 3500 
L 3600 3500 
L 3650 4050 
L 3200 4050 
Q 2575 4050 2225 4025 
L 2225 4475 
Q 2550 4450 3200 4450 
L 3675 4450 
z
M 2225 4900 
Q 2025 4675 1650 3750 
L 1650 450 
Q 1650 -75 1675 -550 
L 1150 -550 
Q 1175 -125 1175 375 
L 1175 2950 
Q 875 2450 625 2150 
Q 425 2425 250 2575 
Q 500 2825 937 3537 
Q 1375 4250 1625 5150 
Q 1975 4975 2225 4900 
z
M 4925 2650 
L 4925 3150 
L 3075 3150 
L 3075 2650 
L 4925 2650 
z
M 4925 150 
L 4925 625 
L 3075 625 
L 3075 150 
L 4925 150 
z
M 4925 1000 
L 4925 1450 
L 3075 1450 
L 3075 1000 
L 4925 1000 
z
M 4925 1825 
L 4925 2275 
L 3075 2275 
L 3075 1825 
L 4925 1825 
z
" transform="scale(0.015625)"/>
      </defs>
      <use xlink:href="#SimHei-7a33"/>
      <use xlink:href="#SimHei-538b" x="100"/>
      <use xlink:href="#SimHei-5668" x="200"/>
      <use xlink:href="#SimHei-538b" x="300"/>
      <use xlink:href="#SimHei-529b" x="400"/>
      <use xlink:href="#SimHei-8bbe" x="500"/>
      <use xlink:href="#SimHei-5b9a" x="600"/>
      <use xlink:href="#SimHei-503c" x="700"/>
     </g>
    </g>
   </g>
  </g>
 </g>
 <defs>
  <clipPath id="pe9948bba6c">
   <rect x="28.31" y="10.8" width="357.740394" height="138.97874"/>
  </clipPath>
 </defs>
</svg>
