<?xml version="1.0" encoding="utf-8" standalone="no"?>
<!DOCTYPE svg PUBLIC "-//W3C//DTD SVG 1.1//EN"
  "http://www.w3.org/Graphics/SVG/1.1/DTD/svg11.dtd">
<svg xmlns:xlink="http://www.w3.org/1999/xlink" width="144pt" height="72pt" viewBox="0 0 144 72" xmlns="http://www.w3.org/2000/svg" version="1.1">
 <metadata>
  <rdf:RDF xmlns:dc="http://purl.org/dc/elements/1.1/" xmlns:cc="http://creativecommons.org/ns#" xmlns:rdf="http://www.w3.org/1999/02/22-rdf-syntax-ns#">
   <cc:Work>
    <dc:type rdf:resource="http://purl.org/dc/dcmitype/StillImage"/>
    <dc:date>2023-03-02T15:47:05.913517</dc:date>
    <dc:format>image/svg+xml</dc:format>
    <dc:creator>
     <cc:Agent>
      <dc:title>Matplotlib v3.5.2, https://matplotlib.org/</dc:title>
     </cc:Agent>
    </dc:creator>
   </cc:Work>
  </rdf:RDF>
 </metadata>
 <defs>
  <style type="text/css">*{stroke-linejoin: round; stroke-linecap: butt}</style>
 </defs>
 <g id="figure_1">
  <g id="patch_1">
   <path d="M 0 72 
L 144 72 
L 144 0 
L 0 0 
L 0 72 
z
" style="fill: none"/>
  </g>
  <g id="axes_1">
   <g id="patch_2">
    <path d="M 35.33 61.2 
L 133.2 61.2 
L 133.2 10.8 
L 35.33 10.8 
z
" style="fill: #ffffff"/>
   </g>
   <g id="matplotlib.axis_1"/>
   <g id="matplotlib.axis_2">
    <g id="ytick_1">
     <g id="line2d_1">
      <defs>
       <path id="ma3944858dc" d="M 0 0 
L 3.5 0 
" style="stroke: #000000; stroke-width: 0.8"/>
      </defs>
      <g>
       <use xlink:href="#ma3944858dc" x="35.33" y="57.423978" style="stroke: #000000; stroke-width: 0.8"/>
      </g>
     </g>
     <g id="text_1">
      <!-- -0.402 -->
      <g transform="translate(10.83 59.830228)scale(0.07 -0.07)">
       <defs>
        <path id="SimHei-2d" d="M 2975 2125 
L 125 2125 
L 125 2525 
L 2975 2525 
L 2975 2125 
z
" transform="scale(0.015625)"/>
        <path id="SimHei-30" d="M 225 2537 
Q 250 3200 412 3587 
Q 575 3975 875 4225 
Q 1175 4475 1612 4475 
Q 2050 4475 2375 4112 
Q 2700 3750 2800 3200 
Q 2900 2650 2862 1937 
Q 2825 1225 2612 775 
Q 2400 325 1975 150 
Q 1550 -25 1125 187 
Q 700 400 525 750 
Q 350 1100 275 1487 
Q 200 1875 225 2537 
z
M 750 2687 
Q 675 2000 800 1462 
Q 925 925 1212 700 
Q 1500 475 1800 612 
Q 2100 750 2237 1162 
Q 2375 1575 2375 2062 
Q 2375 2550 2337 2950 
Q 2300 3350 2112 3675 
Q 1925 4000 1612 4012 
Q 1300 4025 1062 3700 
Q 825 3375 750 2687 
z
" transform="scale(0.015625)"/>
        <path id="SimHei-2e" d="M 1075 125 
L 500 125 
L 500 675 
L 1075 675 
L 1075 125 
z
" transform="scale(0.015625)"/>
        <path id="SimHei-34" d="M 2000 1100 
L 75 1100 
L 75 1525 
L 2100 4450 
L 2475 4450 
L 2475 1525 
L 3075 1525 
L 3075 1100 
L 2475 1100 
L 2475 150 
L 2000 150 
L 2000 1100 
z
M 2000 1525 
L 2000 3500 
L 600 1525 
L 2000 1525 
z
" transform="scale(0.015625)"/>
        <path id="SimHei-32" d="M 300 250 
Q 325 625 650 925 
Q 975 1225 1475 1862 
Q 1975 2500 2125 2850 
Q 2275 3200 2237 3450 
Q 2200 3700 2000 3862 
Q 1800 4025 1537 4000 
Q 1275 3975 1037 3800 
Q 800 3625 675 3275 
L 200 3350 
Q 400 3925 712 4187 
Q 1025 4450 1450 4475 
Q 1700 4500 1900 4462 
Q 2100 4425 2312 4287 
Q 2525 4150 2662 3875 
Q 2800 3600 2762 3212 
Q 2725 2825 2375 2287 
Q 2025 1750 1025 600 
L 2825 600 
L 2825 150 
L 300 150 
L 300 250 
z
" transform="scale(0.015625)"/>
       </defs>
       <use xlink:href="#SimHei-2d"/>
       <use xlink:href="#SimHei-30" x="50"/>
       <use xlink:href="#SimHei-2e" x="100"/>
       <use xlink:href="#SimHei-34" x="150"/>
       <use xlink:href="#SimHei-30" x="200"/>
       <use xlink:href="#SimHei-32" x="250"/>
      </g>
     </g>
    </g>
    <g id="ytick_2">
     <g id="line2d_2">
      <g>
       <use xlink:href="#ma3944858dc" x="35.33" y="40.058863" style="stroke: #000000; stroke-width: 0.8"/>
      </g>
     </g>
     <g id="text_2">
      <!-- -0.400 -->
      <g transform="translate(10.83 42.465113)scale(0.07 -0.07)">
       <use xlink:href="#SimHei-2d"/>
       <use xlink:href="#SimHei-30" x="50"/>
       <use xlink:href="#SimHei-2e" x="100"/>
       <use xlink:href="#SimHei-34" x="150"/>
       <use xlink:href="#SimHei-30" x="200"/>
       <use xlink:href="#SimHei-30" x="250"/>
      </g>
     </g>
    </g>
    <g id="ytick_3">
     <g id="line2d_3">
      <g>
       <use xlink:href="#ma3944858dc" x="35.33" y="22.693749" style="stroke: #000000; stroke-width: 0.8"/>
      </g>
     </g>
     <g id="text_3">
      <!-- -0.398 -->
      <g transform="translate(10.83 25.099999)scale(0.07 -0.07)">
       <defs>
        <path id="SimHei-33" d="M 250 1225 
L 700 1300 
Q 800 975 1025 762 
Q 1250 550 1587 562 
Q 1925 575 2125 837 
Q 2325 1100 2300 1437 
Q 2275 1775 2037 1962 
Q 1800 2150 1275 2225 
L 1275 2550 
Q 1800 2600 2037 2825 
Q 2275 3050 2250 3412 
Q 2225 3775 1925 3937 
Q 1625 4100 1287 3975 
Q 950 3850 750 3275 
L 300 3350 
Q 450 3800 712 4100 
Q 975 4400 1425 4450 
Q 1875 4500 2212 4337 
Q 2550 4175 2687 3837 
Q 2825 3500 2725 3100 
Q 2625 2700 2150 2400 
Q 2500 2250 2687 1950 
Q 2875 1650 2812 1162 
Q 2750 675 2375 375 
Q 2000 75 1525 87 
Q 1050 100 700 387 
Q 350 675 250 1225 
z
" transform="scale(0.015625)"/>
        <path id="SimHei-39" d="M 800 75 
Q 1350 1000 1700 1750 
Q 1075 1650 662 1912 
Q 250 2175 162 2625 
Q 75 3075 175 3437 
Q 275 3800 487 4037 
Q 700 4275 1000 4375 
Q 1300 4475 1537 4475 
Q 1775 4475 2025 4375 
Q 2275 4275 2475 4075 
Q 2675 3875 2750 3662 
Q 2825 3450 2825 3112 
Q 2825 2775 2575 2250 
Q 2325 1725 1350 75 
L 800 75 
z
M 662 2875 
Q 700 2550 937 2337 
Q 1175 2125 1450 2150 
Q 1725 2175 1887 2300 
Q 2050 2425 2200 2725 
Q 2300 3100 2250 3362 
Q 2200 3625 1987 3800 
Q 1775 3975 1525 3975 
Q 1375 4000 1137 3900 
Q 900 3800 762 3500 
Q 625 3200 662 2875 
z
" transform="scale(0.015625)"/>
        <path id="SimHei-38" d="M 175 1375 
Q 175 1675 325 1962 
Q 475 2250 825 2425 
Q 525 2600 425 2812 
Q 325 3025 312 3300 
Q 300 3575 387 3775 
Q 475 3975 650 4150 
Q 825 4325 1037 4387 
Q 1250 4450 1500 4450 
Q 1750 4450 1950 4400 
Q 2150 4350 2375 4187 
Q 2600 4025 2700 3725 
Q 2800 3425 2687 3025 
Q 2575 2625 2100 2400 
Q 2525 2275 2700 2012 
Q 2875 1750 2875 1375 
Q 2875 1000 2762 775 
Q 2650 550 2512 400 
Q 2375 250 2137 162 
Q 1900 75 1537 75 
Q 1175 75 912 162 
Q 650 250 475 425 
Q 300 600 237 837 
Q 175 1075 175 1375 
z
M 687 1400 
Q 675 1100 787 875 
Q 900 650 1200 587 
Q 1500 525 1825 600 
Q 2150 675 2275 950 
Q 2400 1225 2362 1500 
Q 2325 1775 2050 1962 
Q 1775 2150 1450 2125 
Q 1125 2100 912 1900 
Q 700 1700 687 1400 
z
M 775 3350 
Q 775 3100 950 2875 
Q 1125 2650 1500 2650 
Q 1875 2650 2062 2875 
Q 2250 3100 2237 3412 
Q 2225 3725 2012 3875 
Q 1800 4025 1437 4000 
Q 1075 3975 925 3787 
Q 775 3600 775 3350 
z
" transform="scale(0.015625)"/>
       </defs>
       <use xlink:href="#SimHei-2d"/>
       <use xlink:href="#SimHei-30" x="50"/>
       <use xlink:href="#SimHei-2e" x="100"/>
       <use xlink:href="#SimHei-33" x="150"/>
       <use xlink:href="#SimHei-39" x="200"/>
       <use xlink:href="#SimHei-38" x="250"/>
      </g>
     </g>
    </g>
   </g>
   <g id="line2d_4">
    <path d="M 39.778636 31.073461 
L 40.677351 33.413173 
L 41.576065 40.963024 
L 42.47478 38.109932 
L 43.373494 39.428834 
L 44.272208 36.754028 
L 45.170923 33.226089 
L 46.069637 32.063737 
L 46.968352 27.895625 
L 47.867066 29.858064 
L 48.765781 32.129204 
L 49.664495 35.039223 
L 50.563209 29.375734 
L 51.461924 34.384559 
L 52.360638 38.25639 
L 53.259353 35.165757 
L 54.158067 37.189004 
L 55.056781 43.336374 
L 55.955496 49.459162 
L 56.85421 55.63836 
L 57.752925 57.686707 
L 58.651639 57.295979 
L 59.550354 58.909091 
L 60.449068 54.467728 
L 61.347782 48.420757 
L 62.246497 50.988436 
L 63.145211 42.283219 
L 64.043926 45.159082 
L 64.94264 44.167512 
L 65.841354 41.377558 
L 66.740069 39.50051 
L 67.638783 40.927056 
L 68.537498 39.812575 
L 69.436212 38.378525 
L 70.334927 42.467716 
L 71.233641 42.497214 
L 72.132355 39.023356 
L 73.03107 50.180068 
L 73.929784 40.939218 
L 74.828499 37.700832 
L 75.727213 34.908031 
L 76.625927 40.494409 
L 77.524642 48.383754 
L 78.423356 41.997548 
L 79.322071 49.173749 
L 80.220785 45.007449 
L 81.1195 43.752978 
L 82.018214 44.797335 
L 82.916928 33.180029 
L 83.815643 37.540142 
L 84.714357 32.636115 
L 85.613072 28.468521 
L 86.511786 40.303444 
L 87.4105 44.933443 
L 88.309215 37.382298 
L 89.207929 33.285086 
L 90.106644 35.374576 
L 91.005358 30.514539 
L 91.904073 29.857029 
L 92.802787 23.966608 
L 93.701501 35.357239 
L 94.600216 30.711714 
L 95.49893 35.622727 
L 96.397645 44.553583 
L 97.296359 35.276247 
L 98.195073 30.855067 
L 99.093788 28.906343 
L 99.992502 26.524971 
L 100.891217 28.766613 
L 101.789931 26.61916 
L 102.688646 22.979954 
L 103.58736 17.510019 
L 104.486074 13.090909 
L 105.384789 15.746049 
L 106.283503 19.871207 
L 107.182218 24.603158 
L 108.080932 31.788157 
L 108.979646 29.735411 
L 109.878361 33.324935 
L 110.777075 31.137375 
L 111.67579 31.599521 
L 112.574504 36.333801 
L 113.473219 41.37497 
L 114.371933 40.501395 
L 115.270647 30.491509 
L 116.169362 29.120597 
L 117.068076 27.258298 
L 117.966791 18.357976 
L 118.865505 20.816976 
L 119.764219 21.592999 
L 120.662934 17.759464 
L 121.561648 23.042316 
L 122.460363 30.267423 
L 123.359077 27.865091 
L 124.257792 25.195461 
L 125.156506 20.939111 
L 126.05522 21.384697 
L 126.953935 19.136328 
L 127.852649 19.480479 
L 128.751364 28.27031 
" clip-path="url(#p59546483b5)" style="fill: none; stroke: #1f77b4; stroke-linecap: square"/>
   </g>
   <g id="line2d_5">
    <path d="M 39.778636 40.058863 
L 40.677351 40.058863 
L 41.576065 40.058863 
L 42.47478 40.058863 
L 43.373494 40.058863 
L 44.272208 40.058863 
L 45.170923 40.058863 
L 46.069637 40.058863 
L 46.968352 40.058863 
L 47.867066 40.058863 
L 48.765781 40.058863 
L 49.664495 40.058863 
L 50.563209 40.058863 
L 51.461924 40.058863 
L 52.360638 40.058863 
L 53.259353 40.058863 
L 54.158067 40.058863 
L 55.056781 40.058863 
L 55.955496 40.058863 
L 56.85421 40.058863 
L 57.752925 40.058863 
L 58.651639 40.058863 
L 59.550354 40.058863 
L 60.449068 40.058863 
L 61.347782 40.058863 
L 62.246497 40.058863 
L 63.145211 40.058863 
L 64.043926 40.058863 
L 64.94264 40.058863 
L 65.841354 40.058863 
L 66.740069 40.058863 
L 67.638783 40.058863 
L 68.537498 40.058863 
L 69.436212 40.058863 
L 70.334927 40.058863 
L 71.233641 40.058863 
L 72.132355 40.058863 
L 73.03107 40.058863 
L 73.929784 40.058863 
L 74.828499 40.058863 
L 75.727213 40.058863 
L 76.625927 40.058863 
L 77.524642 40.058863 
L 78.423356 40.058863 
L 79.322071 40.058863 
L 80.220785 40.058863 
L 81.1195 40.058863 
L 82.018214 40.058863 
L 82.916928 40.058863 
L 83.815643 40.058863 
L 84.714357 40.058863 
L 85.613072 40.058863 
L 86.511786 40.058863 
L 87.4105 40.058863 
L 88.309215 40.058863 
L 89.207929 40.058863 
L 90.106644 40.058863 
L 91.005358 40.058863 
L 91.904073 40.058863 
L 92.802787 40.058863 
L 93.701501 40.058863 
L 94.600216 40.058863 
L 95.49893 40.058863 
L 96.397645 40.058863 
L 97.296359 40.058863 
L 98.195073 40.058863 
L 99.093788 40.058863 
L 99.992502 40.058863 
L 100.891217 40.058863 
L 101.789931 40.058863 
L 102.688646 40.058863 
L 103.58736 40.058863 
L 104.486074 40.058863 
L 105.384789 40.058863 
L 106.283503 40.058863 
L 107.182218 40.058863 
L 108.080932 40.058863 
L 108.979646 40.058863 
L 109.878361 40.058863 
L 110.777075 40.058863 
L 111.67579 40.058863 
L 112.574504 40.058863 
L 113.473219 40.058863 
L 114.371933 40.058863 
L 115.270647 40.058863 
L 116.169362 40.058863 
L 117.068076 40.058863 
L 117.966791 40.058863 
L 118.865505 40.058863 
L 119.764219 40.058863 
L 120.662934 40.058863 
L 121.561648 40.058863 
L 122.460363 40.058863 
L 123.359077 40.058863 
L 124.257792 40.058863 
L 125.156506 40.058863 
L 126.05522 40.058863 
L 126.953935 40.058863 
L 127.852649 40.058863 
L 128.751364 40.058863 
" clip-path="url(#p59546483b5)" style="fill: none; stroke: #ff7f0e; stroke-linecap: square"/>
   </g>
   <g id="patch_3">
    <path d="M 35.33 61.2 
L 35.33 10.8 
" style="fill: none; stroke: #000000; stroke-linejoin: miter; stroke-linecap: square"/>
   </g>
   <g id="patch_4">
    <path d="M 133.2 61.2 
L 133.2 10.8 
" style="fill: none; stroke: #000000; stroke-linejoin: miter; stroke-linecap: square"/>
   </g>
   <g id="patch_5">
    <path d="M 35.33 61.2 
L 133.2 61.2 
" style="fill: none; stroke: #000000; stroke-linejoin: miter; stroke-linecap: square"/>
   </g>
   <g id="patch_6">
    <path d="M 35.33 10.8 
L 133.2 10.8 
" style="fill: none; stroke: #000000; stroke-linejoin: miter; stroke-linecap: square"/>
   </g>
  </g>
 </g>
 <defs>
  <clipPath id="p59546483b5">
   <rect x="35.33" y="10.8" width="97.87" height="50.4"/>
  </clipPath>
 </defs>
</svg>
