<?xml version="1.0" encoding="utf-8" standalone="no"?>
<!DOCTYPE svg PUBLIC "-//W3C//DTD SVG 1.1//EN"
  "http://www.w3.org/Graphics/SVG/1.1/DTD/svg11.dtd">
<svg xmlns:xlink="http://www.w3.org/1999/xlink" width="144pt" height="72pt" viewBox="0 0 144 72" xmlns="http://www.w3.org/2000/svg" version="1.1">
 <metadata>
  <rdf:RDF xmlns:dc="http://purl.org/dc/elements/1.1/" xmlns:cc="http://creativecommons.org/ns#" xmlns:rdf="http://www.w3.org/1999/02/22-rdf-syntax-ns#">
   <cc:Work>
    <dc:type rdf:resource="http://purl.org/dc/dcmitype/StillImage"/>
    <dc:date>2023-03-02T11:21:28.883665</dc:date>
    <dc:format>image/svg+xml</dc:format>
    <dc:creator>
     <cc:Agent>
      <dc:title>Matplotlib v3.5.2, https://matplotlib.org/</dc:title>
     </cc:Agent>
    </dc:creator>
   </cc:Work>
  </rdf:RDF>
 </metadata>
 <defs>
  <style type="text/css">*{stroke-linejoin: round; stroke-linecap: butt}</style>
 </defs>
 <g id="figure_1">
  <g id="patch_1">
   <path d="M 0 72 
L 144 72 
L 144 0 
L 0 0 
L 0 72 
z
" style="fill: none"/>
  </g>
  <g id="axes_1">
   <g id="patch_2">
    <path d="M 35.3 61.2 
L 133.2 61.2 
L 133.2 10.8 
L 35.3 10.8 
z
" style="fill: #ffffff"/>
   </g>
   <g id="matplotlib.axis_1"/>
   <g id="matplotlib.axis_2">
    <g id="ytick_1">
     <g id="line2d_1">
      <defs>
       <path id="mcaf759f1a2" d="M 0 0 
L 3.5 0 
" style="stroke: #000000; stroke-width: 0.8"/>
      </defs>
      <g>
       <use xlink:href="#mcaf759f1a2" x="35.3" y="53.96871" style="stroke: #000000; stroke-width: 0.8"/>
      </g>
     </g>
     <g id="text_1">
      <!-- 0.9975 -->
      <g transform="translate(10.8 56.37496)scale(0.07 -0.07)">
       <defs>
        <path id="SimHei-30" d="M 225 2537 
Q 250 3200 412 3587 
Q 575 3975 875 4225 
Q 1175 4475 1612 4475 
Q 2050 4475 2375 4112 
Q 2700 3750 2800 3200 
Q 2900 2650 2862 1937 
Q 2825 1225 2612 775 
Q 2400 325 1975 150 
Q 1550 -25 1125 187 
Q 700 400 525 750 
Q 350 1100 275 1487 
Q 200 1875 225 2537 
z
M 750 2687 
Q 675 2000 800 1462 
Q 925 925 1212 700 
Q 1500 475 1800 612 
Q 2100 750 2237 1162 
Q 2375 1575 2375 2062 
Q 2375 2550 2337 2950 
Q 2300 3350 2112 3675 
Q 1925 4000 1612 4012 
Q 1300 4025 1062 3700 
Q 825 3375 750 2687 
z
" transform="scale(0.015625)"/>
        <path id="SimHei-2e" d="M 1075 125 
L 500 125 
L 500 675 
L 1075 675 
L 1075 125 
z
" transform="scale(0.015625)"/>
        <path id="SimHei-39" d="M 800 75 
Q 1350 1000 1700 1750 
Q 1075 1650 662 1912 
Q 250 2175 162 2625 
Q 75 3075 175 3437 
Q 275 3800 487 4037 
Q 700 4275 1000 4375 
Q 1300 4475 1537 4475 
Q 1775 4475 2025 4375 
Q 2275 4275 2475 4075 
Q 2675 3875 2750 3662 
Q 2825 3450 2825 3112 
Q 2825 2775 2575 2250 
Q 2325 1725 1350 75 
L 800 75 
z
M 662 2875 
Q 700 2550 937 2337 
Q 1175 2125 1450 2150 
Q 1725 2175 1887 2300 
Q 2050 2425 2200 2725 
Q 2300 3100 2250 3362 
Q 2200 3625 1987 3800 
Q 1775 3975 1525 3975 
Q 1375 4000 1137 3900 
Q 900 3800 762 3500 
Q 625 3200 662 2875 
z
" transform="scale(0.015625)"/>
        <path id="SimHei-37" d="M 850 150 
Q 1300 2050 2425 3925 
L 275 3925 
L 275 4375 
L 2950 4375 
L 2950 3950 
Q 1775 2050 1400 150 
L 850 150 
z
" transform="scale(0.015625)"/>
        <path id="SimHei-35" d="M 550 1325 
Q 725 650 1150 575 
Q 1575 500 1837 662 
Q 2100 825 2212 1087 
Q 2325 1350 2312 1675 
Q 2300 2000 2137 2225 
Q 1975 2450 1725 2525 
Q 1475 2600 1162 2525 
Q 850 2450 650 2175 
L 225 2225 
Q 275 2375 700 4375 
L 2675 4375 
L 2675 3925 
L 1075 3925 
Q 950 3250 825 2850 
Q 1200 3025 1525 3012 
Q 1850 3000 2150 2862 
Q 2450 2725 2587 2487 
Q 2725 2250 2787 2012 
Q 2850 1775 2837 1500 
Q 2825 1225 2725 937 
Q 2625 650 2425 462 
Q 2225 275 1937 162 
Q 1650 50 1275 75 
Q 900 100 562 350 
Q 225 600 100 1200 
L 550 1325 
z
" transform="scale(0.015625)"/>
       </defs>
       <use xlink:href="#SimHei-30"/>
       <use xlink:href="#SimHei-2e" x="50"/>
       <use xlink:href="#SimHei-39" x="100"/>
       <use xlink:href="#SimHei-39" x="150"/>
       <use xlink:href="#SimHei-37" x="200"/>
       <use xlink:href="#SimHei-35" x="250"/>
      </g>
     </g>
    </g>
    <g id="ytick_2">
     <g id="line2d_2">
      <g>
       <use xlink:href="#mcaf759f1a2" x="35.3" y="37.370244" style="stroke: #000000; stroke-width: 0.8"/>
      </g>
     </g>
     <g id="text_2">
      <!-- 1.0000 -->
      <g transform="translate(10.8 39.776494)scale(0.07 -0.07)">
       <defs>
        <path id="SimHei-31" d="M 1400 3600 
Q 1075 3275 575 2975 
L 575 3450 
Q 1200 3875 1600 4450 
L 1900 4450 
L 1900 150 
L 1400 150 
L 1400 3600 
z
" transform="scale(0.015625)"/>
       </defs>
       <use xlink:href="#SimHei-31"/>
       <use xlink:href="#SimHei-2e" x="50"/>
       <use xlink:href="#SimHei-30" x="100"/>
       <use xlink:href="#SimHei-30" x="150"/>
       <use xlink:href="#SimHei-30" x="200"/>
       <use xlink:href="#SimHei-30" x="250"/>
      </g>
     </g>
    </g>
    <g id="ytick_3">
     <g id="line2d_3">
      <g>
       <use xlink:href="#mcaf759f1a2" x="35.3" y="20.771777" style="stroke: #000000; stroke-width: 0.8"/>
      </g>
     </g>
     <g id="text_3">
      <!-- 1.0025 -->
      <g transform="translate(10.8 23.178027)scale(0.07 -0.07)">
       <defs>
        <path id="SimHei-32" d="M 300 250 
Q 325 625 650 925 
Q 975 1225 1475 1862 
Q 1975 2500 2125 2850 
Q 2275 3200 2237 3450 
Q 2200 3700 2000 3862 
Q 1800 4025 1537 4000 
Q 1275 3975 1037 3800 
Q 800 3625 675 3275 
L 200 3350 
Q 400 3925 712 4187 
Q 1025 4450 1450 4475 
Q 1700 4500 1900 4462 
Q 2100 4425 2312 4287 
Q 2525 4150 2662 3875 
Q 2800 3600 2762 3212 
Q 2725 2825 2375 2287 
Q 2025 1750 1025 600 
L 2825 600 
L 2825 150 
L 300 150 
L 300 250 
z
" transform="scale(0.015625)"/>
       </defs>
       <use xlink:href="#SimHei-31"/>
       <use xlink:href="#SimHei-2e" x="50"/>
       <use xlink:href="#SimHei-30" x="100"/>
       <use xlink:href="#SimHei-30" x="150"/>
       <use xlink:href="#SimHei-32" x="200"/>
       <use xlink:href="#SimHei-35" x="250"/>
      </g>
     </g>
    </g>
   </g>
   <g id="line2d_4">
    <path d="M 39.75 25.976147 
L 40.497899 32.892069 
L 41.245798 36.289878 
L 41.993697 40.990853 
L 42.741597 43.111615 
L 43.489496 52.497339 
L 44.237395 48.537582 
L 44.985294 48.07259 
L 45.733193 35.461202 
L 46.481092 32.095053 
L 47.228992 33.207077 
L 47.976891 31.582967 
L 48.72479 30.270699 
L 49.472689 34.3935 
L 50.220588 44.286957 
L 50.968487 37.368661 
L 51.716387 28.490668 
L 52.464286 26.527807 
L 53.212185 31.858401 
L 53.960084 24.226193 
L 54.707983 31.153195 
L 55.455882 36.173531 
L 56.203782 30.616574 
L 56.951681 22.768293 
L 57.69958 25.249572 
L 58.447479 23.633377 
L 59.195378 29.146802 
L 59.943277 24.792098 
L 60.691176 17.126648 
L 61.439076 13.090909 
L 62.186975 20.81018 
L 62.934874 30.892008 
L 63.682773 24.594229 
L 64.430672 37.052862 
L 65.178571 36.29621 
L 65.926471 35.938463 
L 66.67437 36.871614 
L 67.422269 35.962998 
L 68.170168 40.909331 
L 68.918067 44.914203 
L 69.665966 35.173896 
L 70.413866 35.197641 
L 71.161765 35.038554 
L 71.909664 31.780836 
L 72.657563 25.801231 
L 73.405462 23.47983 
L 74.153361 18.624122 
L 74.901261 24.734321 
L 75.64916 25.599405 
L 76.397059 19.547775 
L 77.144958 20.721535 
L 77.892857 26.665523 
L 78.640756 33.961354 
L 79.388655 39.136424 
L 80.136555 33.137427 
L 80.884454 39.859042 
L 81.632353 48.420048 
L 82.380252 58.909091 
L 83.128151 48.007293 
L 83.87605 41.624035 
L 84.62395 30.626864 
L 85.371849 34.984733 
L 86.119748 30.817609 
L 86.867647 23.208354 
L 87.615546 30.311064 
L 88.363445 32.521658 
L 89.111345 39.648509 
L 89.859244 39.030762 
L 90.607143 38.13204 
L 91.355042 49.18501 
L 92.102941 40.021294 
L 92.85084 38.394414 
L 93.598739 39.221507 
L 94.346639 36.859741 
L 95.094538 35.341689 
L 95.842437 37.227778 
L 96.590336 40.735602 
L 97.338235 39.857459 
L 98.086134 36.08172 
L 98.834034 33.765068 
L 99.581933 35.509482 
L 100.329832 30.95216 
L 101.077731 31.77213 
L 101.82563 35.317154 
L 102.573529 27.146741 
L 103.321429 26.281657 
L 104.069328 31.178523 
L 104.817227 34.446529 
L 105.565126 39.646135 
L 106.313025 47.561296 
L 107.060924 44.973563 
L 107.808824 29.306681 
L 108.556723 28.747898 
L 109.304622 33.306012 
L 110.052521 37.264186 
L 110.80042 28.708324 
L 111.548319 37.058402 
L 112.296218 31.8956 
L 113.044118 40.630731 
L 113.792017 37.210366 
L 114.539916 39.705495 
L 115.287815 37.802786 
L 116.035714 41.37749 
L 116.783613 40.618464 
L 117.531513 37.51548 
L 118.279412 48.28985 
L 119.027311 34.239163 
L 119.77521 27.693651 
L 120.523109 30.78595 
L 121.271008 30.509725 
L 122.018908 31.161902 
L 122.766807 36.069056 
L 123.514706 47.251433 
L 124.262605 38.874841 
L 125.010504 36.517032 
L 125.758403 32.440928 
L 126.506303 31.57347 
L 127.254202 27.809999 
L 128.002101 31.025768 
L 128.75 29.22041 
" clip-path="url(#pade3b77e3f)" style="fill: none; stroke: #1f77b4; stroke-linecap: square"/>
   </g>
   <g id="line2d_5">
    <path d="M 39.75 37.370244 
L 40.497899 37.370244 
L 41.245798 37.370244 
L 41.993697 37.370244 
L 42.741597 37.370244 
L 43.489496 37.370244 
L 44.237395 37.370244 
L 44.985294 37.370244 
L 45.733193 37.370244 
L 46.481092 37.370244 
L 47.228992 37.370244 
L 47.976891 37.370244 
L 48.72479 37.370244 
L 49.472689 37.370244 
L 50.220588 37.370244 
L 50.968487 37.370244 
L 51.716387 37.370244 
L 52.464286 37.370244 
L 53.212185 37.370244 
L 53.960084 37.370244 
L 54.707983 37.370244 
L 55.455882 37.370244 
L 56.203782 37.370244 
L 56.951681 37.370244 
L 57.69958 37.370244 
L 58.447479 37.370244 
L 59.195378 37.370244 
L 59.943277 37.370244 
L 60.691176 37.370244 
L 61.439076 37.370244 
L 62.186975 37.370244 
L 62.934874 37.370244 
L 63.682773 37.370244 
L 64.430672 37.370244 
L 65.178571 37.370244 
L 65.926471 37.370244 
L 66.67437 37.370244 
L 67.422269 37.370244 
L 68.170168 37.370244 
L 68.918067 37.370244 
L 69.665966 37.370244 
L 70.413866 37.370244 
L 71.161765 37.370244 
L 71.909664 37.370244 
L 72.657563 37.370244 
L 73.405462 37.370244 
L 74.153361 37.370244 
L 74.901261 37.370244 
L 75.64916 37.370244 
L 76.397059 37.370244 
L 77.144958 37.370244 
L 77.892857 37.370244 
L 78.640756 37.370244 
L 79.388655 37.370244 
L 80.136555 37.370244 
L 80.884454 37.370244 
L 81.632353 37.370244 
L 82.380252 37.370244 
L 83.128151 37.370244 
L 83.87605 37.370244 
L 84.62395 37.370244 
L 85.371849 37.370244 
L 86.119748 37.370244 
L 86.867647 37.370244 
L 87.615546 37.370244 
L 88.363445 37.370244 
L 89.111345 37.370244 
L 89.859244 37.370244 
L 90.607143 37.370244 
L 91.355042 37.370244 
L 92.102941 37.370244 
L 92.85084 37.370244 
L 93.598739 37.370244 
L 94.346639 37.370244 
L 95.094538 37.370244 
L 95.842437 37.370244 
L 96.590336 37.370244 
L 97.338235 37.370244 
L 98.086134 37.370244 
L 98.834034 37.370244 
L 99.581933 37.370244 
L 100.329832 37.370244 
L 101.077731 37.370244 
L 101.82563 37.370244 
L 102.573529 37.370244 
L 103.321429 37.370244 
L 104.069328 37.370244 
L 104.817227 37.370244 
L 105.565126 37.370244 
L 106.313025 37.370244 
L 107.060924 37.370244 
L 107.808824 37.370244 
L 108.556723 37.370244 
L 109.304622 37.370244 
L 110.052521 37.370244 
L 110.80042 37.370244 
L 111.548319 37.370244 
L 112.296218 37.370244 
L 113.044118 37.370244 
L 113.792017 37.370244 
L 114.539916 37.370244 
L 115.287815 37.370244 
L 116.035714 37.370244 
L 116.783613 37.370244 
L 117.531513 37.370244 
L 118.279412 37.370244 
L 119.027311 37.370244 
L 119.77521 37.370244 
L 120.523109 37.370244 
L 121.271008 37.370244 
L 122.018908 37.370244 
L 122.766807 37.370244 
L 123.514706 37.370244 
L 124.262605 37.370244 
L 125.010504 37.370244 
L 125.758403 37.370244 
L 126.506303 37.370244 
L 127.254202 37.370244 
L 128.002101 37.370244 
L 128.75 37.370244 
" clip-path="url(#pade3b77e3f)" style="fill: none; stroke: #ff7f0e; stroke-linecap: square"/>
   </g>
   <g id="patch_3">
    <path d="M 35.3 61.2 
L 35.3 10.8 
" style="fill: none; stroke: #000000; stroke-linejoin: miter; stroke-linecap: square"/>
   </g>
   <g id="patch_4">
    <path d="M 133.2 61.2 
L 133.2 10.8 
" style="fill: none; stroke: #000000; stroke-linejoin: miter; stroke-linecap: square"/>
   </g>
   <g id="patch_5">
    <path d="M 35.3 61.2 
L 133.2 61.2 
" style="fill: none; stroke: #000000; stroke-linejoin: miter; stroke-linecap: square"/>
   </g>
   <g id="patch_6">
    <path d="M 35.3 10.8 
L 133.2 10.8 
" style="fill: none; stroke: #000000; stroke-linejoin: miter; stroke-linecap: square"/>
   </g>
  </g>
 </g>
 <defs>
  <clipPath id="pade3b77e3f">
   <rect x="35.3" y="10.8" width="97.9" height="50.4"/>
  </clipPath>
 </defs>
</svg>
