<?xml version="1.0" encoding="utf-8" standalone="no"?>
<!DOCTYPE svg PUBLIC "-//W3C//DTD SVG 1.1//EN"
  "http://www.w3.org/Graphics/SVG/1.1/DTD/svg11.dtd">
<svg xmlns:xlink="http://www.w3.org/1999/xlink" width="396.850394pt" height="170.07874pt" viewBox="0 0 396.850394 170.07874" xmlns="http://www.w3.org/2000/svg" version="1.1">
 <metadata>
  <rdf:RDF xmlns:dc="http://purl.org/dc/elements/1.1/" xmlns:cc="http://creativecommons.org/ns#" xmlns:rdf="http://www.w3.org/1999/02/22-rdf-syntax-ns#">
   <cc:Work>
    <dc:type rdf:resource="http://purl.org/dc/dcmitype/StillImage"/>
    <dc:date>2023-03-03T23:18:43.171235</dc:date>
    <dc:format>image/svg+xml</dc:format>
    <dc:creator>
     <cc:Agent>
      <dc:title>Matplotlib v3.5.2, https://matplotlib.org/</dc:title>
     </cc:Agent>
    </dc:creator>
   </cc:Work>
  </rdf:RDF>
 </metadata>
 <defs>
  <style type="text/css">*{stroke-linejoin: round; stroke-linecap: butt}</style>
 </defs>
 <g id="figure_1">
  <g id="patch_1">
   <path d="M 0 170.07874 
L 396.850394 170.07874 
L 396.850394 0 
L 0 0 
L 0 170.07874 
z
" style="fill: none"/>
  </g>
  <g id="axes_1">
   <g id="patch_2">
    <path d="M 49.606299 148.818898 
L 357.165354 148.818898 
L 357.165354 20.409449 
L 49.606299 20.409449 
z
" style="fill: #ffffff"/>
   </g>
   <g id="matplotlib.axis_1">
    <g id="xtick_1">
     <g id="line2d_1">
      <defs>
       <path id="m2aa6dfb6b3" d="M 0 0 
L 0 -3.5 
" style="stroke: #000000; stroke-width: 0.8"/>
      </defs>
      <g>
       <use xlink:href="#m2aa6dfb6b3" x="63.586256" y="148.818898" style="stroke: #000000; stroke-width: 0.8"/>
      </g>
     </g>
     <g id="text_1">
      <!-- 0 -->
      <g transform="translate(61.836256 157.131398)scale(0.07 -0.07)">
       <defs>
        <path id="SimHei-30" d="M 225 2537 
Q 250 3200 412 3587 
Q 575 3975 875 4225 
Q 1175 4475 1612 4475 
Q 2050 4475 2375 4112 
Q 2700 3750 2800 3200 
Q 2900 2650 2862 1937 
Q 2825 1225 2612 775 
Q 2400 325 1975 150 
Q 1550 -25 1125 187 
Q 700 400 525 750 
Q 350 1100 275 1487 
Q 200 1875 225 2537 
z
M 750 2687 
Q 675 2000 800 1462 
Q 925 925 1212 700 
Q 1500 475 1800 612 
Q 2100 750 2237 1162 
Q 2375 1575 2375 2062 
Q 2375 2550 2337 2950 
Q 2300 3350 2112 3675 
Q 1925 4000 1612 4012 
Q 1300 4025 1062 3700 
Q 825 3375 750 2687 
z
" transform="scale(0.015625)"/>
       </defs>
       <use xlink:href="#SimHei-30"/>
      </g>
     </g>
    </g>
    <g id="xtick_2">
     <g id="line2d_2">
      <g>
       <use xlink:href="#m2aa6dfb6b3" x="102.41947" y="148.818898" style="stroke: #000000; stroke-width: 0.8"/>
      </g>
     </g>
     <g id="text_2">
      <!-- 200 -->
      <g transform="translate(97.16947 157.131398)scale(0.07 -0.07)">
       <defs>
        <path id="SimHei-32" d="M 300 250 
Q 325 625 650 925 
Q 975 1225 1475 1862 
Q 1975 2500 2125 2850 
Q 2275 3200 2237 3450 
Q 2200 3700 2000 3862 
Q 1800 4025 1537 4000 
Q 1275 3975 1037 3800 
Q 800 3625 675 3275 
L 200 3350 
Q 400 3925 712 4187 
Q 1025 4450 1450 4475 
Q 1700 4500 1900 4462 
Q 2100 4425 2312 4287 
Q 2525 4150 2662 3875 
Q 2800 3600 2762 3212 
Q 2725 2825 2375 2287 
Q 2025 1750 1025 600 
L 2825 600 
L 2825 150 
L 300 150 
L 300 250 
z
" transform="scale(0.015625)"/>
       </defs>
       <use xlink:href="#SimHei-32"/>
       <use xlink:href="#SimHei-30" x="50"/>
       <use xlink:href="#SimHei-30" x="100"/>
      </g>
     </g>
    </g>
    <g id="xtick_3">
     <g id="line2d_3">
      <g>
       <use xlink:href="#m2aa6dfb6b3" x="141.252684" y="148.818898" style="stroke: #000000; stroke-width: 0.8"/>
      </g>
     </g>
     <g id="text_3">
      <!-- 400 -->
      <g transform="translate(136.002684 157.131398)scale(0.07 -0.07)">
       <defs>
        <path id="SimHei-34" d="M 2000 1100 
L 75 1100 
L 75 1525 
L 2100 4450 
L 2475 4450 
L 2475 1525 
L 3075 1525 
L 3075 1100 
L 2475 1100 
L 2475 150 
L 2000 150 
L 2000 1100 
z
M 2000 1525 
L 2000 3500 
L 600 1525 
L 2000 1525 
z
" transform="scale(0.015625)"/>
       </defs>
       <use xlink:href="#SimHei-34"/>
       <use xlink:href="#SimHei-30" x="50"/>
       <use xlink:href="#SimHei-30" x="100"/>
      </g>
     </g>
    </g>
    <g id="xtick_4">
     <g id="line2d_4">
      <g>
       <use xlink:href="#m2aa6dfb6b3" x="180.085898" y="148.818898" style="stroke: #000000; stroke-width: 0.8"/>
      </g>
     </g>
     <g id="text_4">
      <!-- 600 -->
      <g transform="translate(174.835898 157.131398)scale(0.07 -0.07)">
       <defs>
        <path id="SimHei-36" d="M 250 1612 
Q 275 1975 387 2225 
Q 500 2475 725 2850 
L 1750 4450 
L 2325 4450 
L 1275 2800 
Q 1950 2975 2350 2750 
Q 2750 2525 2887 2237 
Q 3025 1950 3037 1612 
Q 3050 1275 2937 950 
Q 2825 625 2537 362 
Q 2250 100 1737 75 
Q 1225 50 862 262 
Q 500 475 362 862 
Q 225 1250 250 1612 
z
M 1025 787 
Q 1250 550 1625 525 
Q 2000 500 2250 775 
Q 2500 1050 2500 1575 
Q 2500 2100 2187 2300 
Q 1875 2500 1487 2450 
Q 1100 2400 925 2075 
Q 750 1750 775 1387 
Q 800 1025 1025 787 
z
" transform="scale(0.015625)"/>
       </defs>
       <use xlink:href="#SimHei-36"/>
       <use xlink:href="#SimHei-30" x="50"/>
       <use xlink:href="#SimHei-30" x="100"/>
      </g>
     </g>
    </g>
    <g id="xtick_5">
     <g id="line2d_5">
      <g>
       <use xlink:href="#m2aa6dfb6b3" x="218.919112" y="148.818898" style="stroke: #000000; stroke-width: 0.8"/>
      </g>
     </g>
     <g id="text_5">
      <!-- 800 -->
      <g transform="translate(213.669112 157.131398)scale(0.07 -0.07)">
       <defs>
        <path id="SimHei-38" d="M 175 1375 
Q 175 1675 325 1962 
Q 475 2250 825 2425 
Q 525 2600 425 2812 
Q 325 3025 312 3300 
Q 300 3575 387 3775 
Q 475 3975 650 4150 
Q 825 4325 1037 4387 
Q 1250 4450 1500 4450 
Q 1750 4450 1950 4400 
Q 2150 4350 2375 4187 
Q 2600 4025 2700 3725 
Q 2800 3425 2687 3025 
Q 2575 2625 2100 2400 
Q 2525 2275 2700 2012 
Q 2875 1750 2875 1375 
Q 2875 1000 2762 775 
Q 2650 550 2512 400 
Q 2375 250 2137 162 
Q 1900 75 1537 75 
Q 1175 75 912 162 
Q 650 250 475 425 
Q 300 600 237 837 
Q 175 1075 175 1375 
z
M 687 1400 
Q 675 1100 787 875 
Q 900 650 1200 587 
Q 1500 525 1825 600 
Q 2150 675 2275 950 
Q 2400 1225 2362 1500 
Q 2325 1775 2050 1962 
Q 1775 2150 1450 2125 
Q 1125 2100 912 1900 
Q 700 1700 687 1400 
z
M 775 3350 
Q 775 3100 950 2875 
Q 1125 2650 1500 2650 
Q 1875 2650 2062 2875 
Q 2250 3100 2237 3412 
Q 2225 3725 2012 3875 
Q 1800 4025 1437 4000 
Q 1075 3975 925 3787 
Q 775 3600 775 3350 
z
" transform="scale(0.015625)"/>
       </defs>
       <use xlink:href="#SimHei-38"/>
       <use xlink:href="#SimHei-30" x="50"/>
       <use xlink:href="#SimHei-30" x="100"/>
      </g>
     </g>
    </g>
    <g id="xtick_6">
     <g id="line2d_6">
      <g>
       <use xlink:href="#m2aa6dfb6b3" x="257.752326" y="148.818898" style="stroke: #000000; stroke-width: 0.8"/>
      </g>
     </g>
     <g id="text_6">
      <!-- 1000 -->
      <g transform="translate(250.752326 157.131398)scale(0.07 -0.07)">
       <defs>
        <path id="SimHei-31" d="M 1400 3600 
Q 1075 3275 575 2975 
L 575 3450 
Q 1200 3875 1600 4450 
L 1900 4450 
L 1900 150 
L 1400 150 
L 1400 3600 
z
" transform="scale(0.015625)"/>
       </defs>
       <use xlink:href="#SimHei-31"/>
       <use xlink:href="#SimHei-30" x="50"/>
       <use xlink:href="#SimHei-30" x="100"/>
       <use xlink:href="#SimHei-30" x="150"/>
      </g>
     </g>
    </g>
    <g id="xtick_7">
     <g id="line2d_7">
      <g>
       <use xlink:href="#m2aa6dfb6b3" x="296.58554" y="148.818898" style="stroke: #000000; stroke-width: 0.8"/>
      </g>
     </g>
     <g id="text_7">
      <!-- 1200 -->
      <g transform="translate(289.58554 157.131398)scale(0.07 -0.07)">
       <use xlink:href="#SimHei-31"/>
       <use xlink:href="#SimHei-32" x="50"/>
       <use xlink:href="#SimHei-30" x="100"/>
       <use xlink:href="#SimHei-30" x="150"/>
      </g>
     </g>
    </g>
    <g id="xtick_8">
     <g id="line2d_8">
      <g>
       <use xlink:href="#m2aa6dfb6b3" x="335.418754" y="148.818898" style="stroke: #000000; stroke-width: 0.8"/>
      </g>
     </g>
     <g id="text_8">
      <!-- 1400 -->
      <g transform="translate(328.418754 157.131398)scale(0.07 -0.07)">
       <use xlink:href="#SimHei-31"/>
       <use xlink:href="#SimHei-34" x="50"/>
       <use xlink:href="#SimHei-30" x="100"/>
       <use xlink:href="#SimHei-30" x="150"/>
      </g>
     </g>
    </g>
   </g>
   <g id="matplotlib.axis_2">
    <g id="ytick_1">
     <g id="line2d_9">
      <defs>
       <path id="m9071097e0c" d="M 0 0 
L 3.5 0 
" style="stroke: #000000; stroke-width: 0.8"/>
      </defs>
      <g>
       <use xlink:href="#m9071097e0c" x="49.606299" y="144.417003" style="stroke: #000000; stroke-width: 0.8"/>
      </g>
     </g>
     <g id="text_9">
      <!-- -2.0 -->
      <g transform="translate(32.106299 146.823253)scale(0.07 -0.07)">
       <defs>
        <path id="SimHei-2d" d="M 2975 2125 
L 125 2125 
L 125 2525 
L 2975 2525 
L 2975 2125 
z
" transform="scale(0.015625)"/>
        <path id="SimHei-2e" d="M 1075 125 
L 500 125 
L 500 675 
L 1075 675 
L 1075 125 
z
" transform="scale(0.015625)"/>
       </defs>
       <use xlink:href="#SimHei-2d"/>
       <use xlink:href="#SimHei-32" x="50"/>
       <use xlink:href="#SimHei-2e" x="100"/>
       <use xlink:href="#SimHei-30" x="150"/>
      </g>
     </g>
    </g>
    <g id="ytick_2">
     <g id="line2d_10">
      <g>
       <use xlink:href="#m9071097e0c" x="49.606299" y="122.088589" style="stroke: #000000; stroke-width: 0.8"/>
      </g>
     </g>
     <g id="text_10">
      <!-- -1.5 -->
      <g transform="translate(32.106299 124.494839)scale(0.07 -0.07)">
       <defs>
        <path id="SimHei-35" d="M 550 1325 
Q 725 650 1150 575 
Q 1575 500 1837 662 
Q 2100 825 2212 1087 
Q 2325 1350 2312 1675 
Q 2300 2000 2137 2225 
Q 1975 2450 1725 2525 
Q 1475 2600 1162 2525 
Q 850 2450 650 2175 
L 225 2225 
Q 275 2375 700 4375 
L 2675 4375 
L 2675 3925 
L 1075 3925 
Q 950 3250 825 2850 
Q 1200 3025 1525 3012 
Q 1850 3000 2150 2862 
Q 2450 2725 2587 2487 
Q 2725 2250 2787 2012 
Q 2850 1775 2837 1500 
Q 2825 1225 2725 937 
Q 2625 650 2425 462 
Q 2225 275 1937 162 
Q 1650 50 1275 75 
Q 900 100 562 350 
Q 225 600 100 1200 
L 550 1325 
z
" transform="scale(0.015625)"/>
       </defs>
       <use xlink:href="#SimHei-2d"/>
       <use xlink:href="#SimHei-31" x="50"/>
       <use xlink:href="#SimHei-2e" x="100"/>
       <use xlink:href="#SimHei-35" x="150"/>
      </g>
     </g>
    </g>
    <g id="ytick_3">
     <g id="line2d_11">
      <g>
       <use xlink:href="#m9071097e0c" x="49.606299" y="99.760174" style="stroke: #000000; stroke-width: 0.8"/>
      </g>
     </g>
     <g id="text_11">
      <!-- -1.0 -->
      <g transform="translate(32.106299 102.166424)scale(0.07 -0.07)">
       <use xlink:href="#SimHei-2d"/>
       <use xlink:href="#SimHei-31" x="50"/>
       <use xlink:href="#SimHei-2e" x="100"/>
       <use xlink:href="#SimHei-30" x="150"/>
      </g>
     </g>
    </g>
    <g id="ytick_4">
     <g id="line2d_12">
      <g>
       <use xlink:href="#m9071097e0c" x="49.606299" y="77.43176" style="stroke: #000000; stroke-width: 0.8"/>
      </g>
     </g>
     <g id="text_12">
      <!-- -0.5 -->
      <g transform="translate(32.106299 79.83801)scale(0.07 -0.07)">
       <use xlink:href="#SimHei-2d"/>
       <use xlink:href="#SimHei-30" x="50"/>
       <use xlink:href="#SimHei-2e" x="100"/>
       <use xlink:href="#SimHei-35" x="150"/>
      </g>
     </g>
    </g>
    <g id="ytick_5">
     <g id="line2d_13">
      <g>
       <use xlink:href="#m9071097e0c" x="49.606299" y="55.103345" style="stroke: #000000; stroke-width: 0.8"/>
      </g>
     </g>
     <g id="text_13">
      <!-- 0.0 -->
      <g transform="translate(35.606299 57.509595)scale(0.07 -0.07)">
       <use xlink:href="#SimHei-30"/>
       <use xlink:href="#SimHei-2e" x="50"/>
       <use xlink:href="#SimHei-30" x="100"/>
      </g>
     </g>
    </g>
    <g id="ytick_6">
     <g id="line2d_14">
      <g>
       <use xlink:href="#m9071097e0c" x="49.606299" y="32.774931" style="stroke: #000000; stroke-width: 0.8"/>
      </g>
     </g>
     <g id="text_14">
      <!-- 0.5 -->
      <g transform="translate(35.606299 35.181181)scale(0.07 -0.07)">
       <use xlink:href="#SimHei-30"/>
       <use xlink:href="#SimHei-2e" x="50"/>
       <use xlink:href="#SimHei-35" x="100"/>
      </g>
     </g>
    </g>
   </g>
   <g id="line2d_15">
    <path d="M 63.586256 41.90178 
L 63.780422 42.242118 
L 63.974588 41.561443 
L 64.168754 42.242118 
L 64.362921 41.561443 
L 64.557087 41.90178 
L 64.751253 41.90178 
L 64.945419 41.561443 
L 65.139585 41.90178 
L 65.527917 41.90178 
L 65.722083 42.242118 
L 66.110415 41.561443 
L 66.304581 41.90178 
L 66.692913 41.90178 
L 66.887079 41.561443 
L 67.081246 42.242118 
L 67.469578 41.561443 
L 67.663744 41.90178 
L 67.85791 41.90178 
L 68.052076 41.561443 
L 68.246242 41.90178 
L 68.440408 41.90178 
L 68.634574 42.242118 
L 69.022906 41.561443 
L 69.217072 41.90178 
L 69.605404 41.90178 
L 69.799571 41.561443 
L 69.993737 41.90178 
L 70.770401 41.90178 
L 70.964567 41.561443 
L 71.158733 41.90178 
L 71.352899 41.561443 
L 71.547065 41.90178 
L 71.741231 41.561443 
L 71.935397 41.561443 
L 72.129563 41.90178 
L 72.323729 41.221105 
L 72.517895 41.90178 
L 72.712062 41.561443 
L 73.100394 41.561443 
L 73.29456 42.582456 
L 73.488726 41.561443 
L 73.877058 40.880767 
L 74.071224 41.561443 
L 74.26539 41.221105 
L 74.459556 41.561443 
L 74.847888 40.880767 
L 75.23622 41.561443 
L 75.430387 41.221105 
L 75.818719 41.221105 
L 76.012885 41.561443 
L 76.595383 40.540429 
L 76.789549 38.83874 
L 76.983715 40.540429 
L 77.177881 38.83874 
L 77.372047 38.498402 
L 77.954545 40.200091 
L 78.148712 40.540429 
L 78.342878 40.200091 
L 78.73121 40.200091 
L 78.925376 39.859754 
L 79.119542 40.200091 
L 79.313708 39.519416 
L 79.507874 39.859754 
L 79.896206 39.859754 
L 80.090372 40.200091 
L 80.478704 40.200091 
L 80.67287 40.880767 
L 80.867037 40.540429 
L 81.061203 41.221105 
L 81.255369 41.221105 
L 81.643701 41.90178 
L 81.837867 39.859754 
L 82.032033 41.90178 
L 82.226199 42.242118 
L 82.420365 40.540429 
L 82.614531 40.880767 
L 83.002863 42.922794 
L 83.197029 43.603469 
L 83.391195 43.603469 
L 83.585361 43.943807 
L 83.973694 43.943807 
L 84.362026 44.624483 
L 84.556192 44.284145 
L 84.944524 44.96482 
L 85.13869 44.96482 
L 85.332856 45.645496 
L 85.527022 45.305158 
L 85.721188 45.645496 
L 85.915354 45.645496 
L 86.10952 45.985834 
L 86.303686 45.985834 
L 86.497853 47.347185 
L 86.692019 47.347185 
L 86.886185 45.985834 
L 87.080351 46.326172 
L 87.274517 46.326172 
L 87.468683 49.048874 
L 87.662849 46.326172 
L 87.857015 46.326172 
L 88.051181 46.666509 
L 88.245347 46.666509 
L 88.439513 47.347185 
L 88.827845 46.666509 
L 89.410344 46.666509 
L 89.60451 46.326172 
L 89.798676 46.666509 
L 90.187008 46.666509 
L 90.381174 46.326172 
L 90.57534 46.666509 
L 90.769506 46.666509 
L 90.963672 46.326172 
L 91.157838 46.666509 
L 91.352004 46.666509 
L 91.54617 46.326172 
L 91.740336 46.666509 
L 92.128669 46.666509 
L 92.322835 47.006847 
L 92.517001 46.666509 
L 92.711167 47.006847 
L 92.905333 46.666509 
L 93.099499 47.006847 
L 93.293665 46.666509 
L 93.487831 46.666509 
L 93.876163 45.985834 
L 94.070329 46.666509 
L 94.264495 45.645496 
L 94.458661 45.985834 
L 94.652827 100.099543 
L 94.846994 45.985834 
L 95.429492 45.985834 
L 95.623658 46.326172 
L 95.817824 46.326172 
L 96.01199 45.985834 
L 96.206156 46.666509 
L 96.594488 45.985834 
L 96.788654 46.326172 
L 96.98282 45.985834 
L 97.176986 46.326172 
L 97.371152 46.326172 
L 97.565319 45.985834 
L 97.759485 45.985834 
L 97.953651 46.326172 
L 98.147817 45.985834 
L 98.341983 46.326172 
L 98.536149 45.985834 
L 98.730315 45.985834 
L 98.924481 46.326172 
L 99.118647 45.985834 
L 99.895311 45.985834 
L 100.089477 46.326172 
L 100.283644 45.985834 
L 100.47781 45.985834 
L 100.671976 45.645496 
L 100.866142 45.985834 
L 101.060308 45.985834 
L 101.254474 45.645496 
L 101.44864 45.985834 
L 101.642806 45.985834 
L 101.836972 45.305158 
L 102.031138 45.985834 
L 102.225304 45.645496 
L 103.390301 45.645496 
L 103.584467 45.305158 
L 103.778633 45.645496 
L 103.972799 45.305158 
L 104.361131 45.985834 
L 104.555297 45.305158 
L 104.749463 45.645496 
L 104.943629 45.305158 
L 105.137795 45.305158 
L 105.331961 49.72955 
L 105.526127 48.708536 
L 105.720293 50.069887 
L 105.91446 49.389212 
L 106.108626 49.72955 
L 106.302792 49.048874 
L 106.496958 49.389212 
L 106.691124 49.389212 
L 106.88529 49.72955 
L 107.273622 49.048874 
L 107.661954 49.72955 
L 107.85612 49.389212 
L 108.244452 49.389212 
L 108.438618 49.72955 
L 108.632785 49.048874 
L 108.826951 49.389212 
L 109.021117 49.389212 
L 109.215283 49.72955 
L 109.409449 49.389212 
L 109.991947 49.389212 
L 110.186113 49.72955 
L 110.380279 49.389212 
L 110.574445 49.389212 
L 110.768611 49.72955 
L 110.962777 49.389212 
L 111.156943 49.72955 
L 111.35111 49.389212 
L 112.32194 49.389212 
L 112.516106 49.72955 
L 112.710272 49.72955 
L 112.904438 44.624483 
L 113.098604 51.771576 
L 113.486936 43.603469 
L 113.875268 46.666509 
L 114.069435 45.305158 
L 114.263601 45.985834 
L 114.457767 44.624483 
L 114.651933 45.985834 
L 115.040265 42.582456 
L 115.234431 42.922794 
L 115.816929 46.326172 
L 116.011095 45.985834 
L 116.205261 46.666509 
L 116.399427 46.326172 
L 116.593593 43.603469 
L 116.787759 43.603469 
L 116.981926 45.305158 
L 117.370258 42.582456 
L 117.75859 46.666509 
L 117.952756 50.410225 
L 118.146922 49.048874 
L 118.341088 46.666509 
L 118.535254 47.687523 
L 118.923586 45.985834 
L 119.117752 43.943807 
L 119.311918 43.603469 
L 119.506084 39.859754 
L 119.700251 44.624483 
L 120.088583 41.561443 
L 120.282749 44.624483 
L 120.476915 42.582456 
L 120.671081 41.90178 
L 121.059413 61.641372 
L 121.253579 49.389212 
L 121.447745 44.96482 
L 121.641911 43.263132 
L 121.836077 29.64962 
L 122.224409 40.880767 
L 122.418576 55.85563 
L 122.612742 54.834616 
L 122.806908 44.284145 
L 123.001074 42.582456 
L 123.19524 59.259008 
L 123.583572 37.137051 
L 123.777738 48.027861 
L 124.16607 38.498402 
L 124.360236 51.771576 
L 124.554402 50.410225 
L 124.748568 32.031984 
L 124.942734 51.090901 
L 125.136901 55.515292 
L 125.331067 33.052998 
L 125.525233 51.090901 
L 125.719399 54.834616 
L 125.913565 32.031984 
L 126.107731 51.090901 
L 126.301897 54.153941 
L 126.496063 32.031984 
L 126.690229 49.389212 
L 126.884395 55.174954 
L 127.078561 32.372322 
L 127.272727 50.750563 
L 127.466893 54.834616 
L 127.661059 33.733673 
L 127.855225 50.410225 
L 128.049392 50.410225 
L 128.243558 32.372322 
L 128.437724 50.069887 
L 128.63189 52.452252 
L 128.826056 32.372322 
L 129.020222 55.85563 
L 129.214388 57.897657 
L 129.408554 28.628606 
L 129.60272 47.347185 
L 129.796886 42.242118 
L 129.991052 47.006847 
L 130.185218 64.364075 
L 130.379384 29.989958 
L 130.57355 50.069887 
L 130.767717 52.452252 
L 130.961883 31.691647 
L 131.156049 47.006847 
L 131.350215 52.452252 
L 131.544381 35.435362 
L 131.738547 52.79259 
L 131.932713 59.259008 
L 132.126879 30.330295 
L 132.321045 51.771576 
L 132.515211 56.195968 
L 132.709377 26.246242 
L 132.903543 50.750563 
L 133.097709 49.389212 
L 133.291875 36.796713 
L 133.486042 50.750563 
L 133.874374 37.477389 
L 134.06854 51.090901 
L 134.262706 47.347185 
L 134.456872 40.200091 
L 134.651038 53.813603 
L 135.03937 37.477389 
L 135.233536 50.410225 
L 135.621868 39.179078 
L 135.816034 50.750563 
L 136.204366 38.498402 
L 136.398533 51.771576 
L 136.592699 42.582456 
L 136.786865 39.179078 
L 136.981031 55.515292 
L 137.175197 49.389212 
L 137.369363 39.179078 
L 137.563529 52.452252 
L 137.951861 37.817727 
L 138.146027 51.090901 
L 138.340193 47.006847 
L 138.534359 39.519416 
L 138.728525 53.473265 
L 139.116858 37.477389 
L 139.50519 54.834616 
L 139.699356 31.691647 
L 140.087688 60.620359 
L 140.281854 27.267255 
L 140.47602 47.347185 
L 140.670186 51.431239 
L 140.864352 35.095025 
L 141.058518 52.79259 
L 141.252684 57.897657 
L 141.44685 28.628606 
L 141.641016 49.72955 
L 141.835183 54.153941 
L 142.029349 33.052998 
L 142.223515 58.578332 
L 142.417681 55.174954 
L 142.806013 59.259008 
L 143.000179 58.91867 
L 143.388511 57.216981 
L 143.582677 57.557319 
L 143.971009 56.195968 
L 144.165175 56.195968 
L 144.359341 53.813603 
L 144.553508 54.494279 
L 144.747674 54.494279 
L 145.330172 52.79259 
L 145.524338 53.132927 
L 145.718504 52.452252 
L 145.91267 52.452252 
L 146.106836 52.111914 
L 146.495168 52.111914 
L 146.689334 53.132927 
L 146.8835 51.431239 
L 147.077666 52.111914 
L 147.271832 51.431239 
L 147.660165 51.431239 
L 147.854331 51.771576 
L 148.048497 51.090901 
L 148.242663 51.431239 
L 148.436829 51.431239 
L 148.630995 51.090901 
L 148.825161 51.431239 
L 149.019327 51.090901 
L 149.213493 51.431239 
L 149.407659 51.090901 
L 149.601825 51.771576 
L 149.990157 51.090901 
L 150.184324 51.431239 
L 150.37849 51.090901 
L 150.572656 51.771576 
L 150.960988 51.090901 
L 151.34932 51.771576 
L 151.543486 51.090901 
L 151.737652 51.431239 
L 152.125984 51.431239 
L 152.32015 51.771576 
L 152.514316 51.431239 
L 152.708482 51.431239 
L 152.902649 51.090901 
L 153.096815 51.431239 
L 153.485147 51.431239 
L 153.679313 51.771576 
L 153.873479 51.431239 
L 154.067645 51.431239 
L 154.261811 51.771576 
L 154.455977 51.431239 
L 154.650143 51.431239 
L 154.844309 50.750563 
L 155.038475 48.027861 
L 155.232641 51.090901 
L 155.426807 47.347185 
L 155.620974 46.326172 
L 155.81514 48.368198 
L 156.203472 49.389212 
L 156.397638 48.368198 
L 156.591804 48.708536 
L 157.174302 43.263132 
L 157.368468 43.603469 
L 157.562634 40.880767 
L 157.7568 40.880767 
L 157.950966 40.540429 
L 158.145132 39.519416 
L 158.339298 39.859754 
L 158.533465 40.880767 
L 158.727631 39.859754 
L 158.921797 40.540429 
L 159.310129 43.263132 
L 159.504295 42.242118 
L 159.698461 43.263132 
L 160.280959 40.880767 
L 160.669291 42.582456 
L 161.057623 43.943807 
L 161.25179 43.603469 
L 161.640122 44.624483 
L 162.028454 43.943807 
L 162.22262 44.624483 
L 162.416786 44.624483 
L 162.610952 44.96482 
L 162.805118 142.982105 
L 162.999284 45.305158 
L 163.19345 46.326172 
L 163.387616 45.645496 
L 163.581782 45.645496 
L 163.775948 45.985834 
L 163.970115 45.645496 
L 164.164281 45.985834 
L 164.358447 45.985834 
L 164.552613 48.368198 
L 164.746779 47.347185 
L 164.940945 47.687523 
L 165.135111 47.687523 
L 165.329277 49.048874 
L 165.717609 45.985834 
L 165.911775 45.985834 
L 166.105941 46.326172 
L 166.494273 46.326172 
L 166.68844 46.666509 
L 166.882606 45.985834 
L 167.076772 45.985834 
L 167.270938 46.326172 
L 167.465104 46.326172 
L 167.65927 44.624483 
L 167.853436 48.027861 
L 168.047602 47.347185 
L 168.241768 47.687523 
L 168.435934 50.069887 
L 168.6301 45.985834 
L 169.018432 45.305158 
L 169.212598 54.153941 
L 169.406764 48.368198 
L 169.600931 46.666509 
L 169.795097 46.326172 
L 169.989263 46.666509 
L 170.183429 46.666509 
L 170.377595 47.006847 
L 170.960093 47.006847 
L 171.154259 46.666509 
L 171.348425 46.666509 
L 171.542591 47.006847 
L 171.736757 46.326172 
L 172.319256 46.326172 
L 172.513422 45.985834 
L 172.707588 46.326172 
L 172.901754 45.645496 
L 173.09592 46.326172 
L 173.290086 45.985834 
L 173.484252 46.326172 
L 173.872584 45.645496 
L 174.260916 46.326172 
L 174.455082 45.985834 
L 174.649248 45.985834 
L 174.843414 45.645496 
L 175.037581 45.985834 
L 175.231747 48.368198 
L 175.425913 48.368198 
L 175.814245 46.326172 
L 176.008411 46.666509 
L 176.202577 43.943807 
L 176.590909 44.624483 
L 176.785075 45.305158 
L 176.979241 46.666509 
L 177.367573 47.347185 
L 177.561739 47.006847 
L 177.950072 42.242118 
L 178.144238 43.263132 
L 178.338404 43.603469 
L 178.53257 46.326172 
L 178.726736 44.284145 
L 179.115068 43.603469 
L 179.309234 42.922794 
L 179.5034 42.922794 
L 179.697566 45.305158 
L 179.891732 44.284145 
L 180.085898 43.943807 
L 180.280064 43.943807 
L 180.47423 44.284145 
L 180.862563 45.305158 
L 181.056729 44.96482 
L 181.250895 44.96482 
L 181.445061 45.305158 
L 181.639227 44.96482 
L 181.833393 45.305158 
L 182.027559 77.977586 
L 182.221725 46.326172 
L 182.415891 45.645496 
L 182.610057 46.326172 
L 182.804223 45.985834 
L 182.998389 45.985834 
L 183.192555 46.326172 
L 183.386722 46.326172 
L 183.580888 45.645496 
L 183.775054 46.326172 
L 184.357552 46.326172 
L 184.551718 45.645496 
L 184.745884 46.326172 
L 184.94005 46.326172 
L 185.134216 46.666509 
L 185.328382 45.985834 
L 185.522548 46.326172 
L 185.716714 46.326172 
L 185.91088 45.985834 
L 186.105047 46.666509 
L 186.299213 45.985834 
L 186.493379 46.326172 
L 187.464209 46.326172 
L 187.658375 45.985834 
L 187.852541 46.326172 
L 188.240873 46.326172 
L 188.435039 45.985834 
L 188.629205 46.666509 
L 188.823372 46.326172 
L 189.017538 46.326172 
L 189.211704 45.985834 
L 189.40587 46.326172 
L 190.182534 46.326172 
L 190.3767 45.985834 
L 190.570866 46.666509 
L 190.765032 52.452252 
L 190.959198 45.985834 
L 191.153364 46.326172 
L 191.735863 46.326172 
L 191.930029 45.985834 
L 192.124195 45.985834 
L 192.318361 46.666509 
L 192.512527 45.985834 
L 192.706693 46.326172 
L 192.900859 45.985834 
L 193.095025 46.326172 
L 193.289191 46.326172 
L 193.483357 45.985834 
L 193.677523 46.326172 
L 193.871689 45.985834 
L 194.065855 46.326172 
L 194.260021 45.985834 
L 194.454188 45.985834 
L 194.648354 45.645496 
L 194.84252 46.326172 
L 195.036686 45.985834 
L 195.230852 82.06164 
L 195.425018 46.326172 
L 195.619184 47.347185 
L 195.81335 46.326172 
L 196.007516 48.368198 
L 196.201682 45.645496 
L 196.395848 45.645496 
L 196.78418 46.326172 
L 197.366679 46.326172 
L 197.560845 46.666509 
L 197.755011 46.666509 
L 197.949177 45.985834 
L 198.143343 46.326172 
L 198.531675 46.326172 
L 198.725841 45.985834 
L 198.920007 46.326172 
L 199.308339 46.326172 
L 199.502505 45.985834 
L 199.696671 45.985834 
L 199.890838 46.326172 
L 200.085004 45.985834 
L 200.27917 46.326172 
L 200.473336 46.326172 
L 200.667502 45.985834 
L 200.861668 46.326172 
L 201.055834 46.326172 
L 201.25 45.985834 
L 201.444166 45.985834 
L 201.638332 46.326172 
L 201.832498 45.645496 
L 202.22083 46.326172 
L 202.414996 45.985834 
L 202.609162 46.326172 
L 202.803329 45.985834 
L 202.997495 46.326172 
L 203.191661 45.645496 
L 203.385827 46.326172 
L 203.579993 45.985834 
L 203.774159 46.326172 
L 203.968325 45.985834 
L 204.162491 45.985834 
L 204.356657 45.645496 
L 204.550823 46.326172 
L 204.744989 45.985834 
L 204.939155 46.326172 
L 205.133321 45.985834 
L 205.327487 45.985834 
L 205.521654 112.351703 
L 205.71582 46.326172 
L 205.909986 46.666509 
L 206.104152 45.985834 
L 206.298318 46.326172 
L 206.492484 46.326172 
L 206.68665 45.985834 
L 206.880816 45.985834 
L 207.074982 46.666509 
L 207.269148 45.985834 
L 207.463314 46.326172 
L 207.65748 45.985834 
L 207.851646 46.326172 
L 208.045812 46.326172 
L 208.239979 51.771576 
L 208.434145 52.111914 
L 208.628311 51.431239 
L 208.822477 52.111914 
L 209.016643 51.431239 
L 209.210809 51.771576 
L 209.599141 51.090901 
L 209.793307 51.431239 
L 209.987473 51.431239 
L 210.181639 51.771576 
L 210.375805 51.771576 
L 210.569971 51.431239 
L 210.764137 51.431239 
L 210.958304 52.111914 
L 211.15247 51.431239 
L 211.734968 51.431239 
L 211.929134 51.771576 
L 212.1233 51.771576 
L 212.317466 51.431239 
L 212.705798 51.431239 
L 212.899964 51.771576 
L 213.09413 51.771576 
L 213.288296 51.431239 
L 214.259127 51.431239 
L 214.453293 51.090901 
L 214.647459 51.771576 
L 215.229957 50.750563 
L 215.424123 51.431239 
L 215.812455 50.410225 
L 216.200787 50.410225 
L 216.394953 49.72955 
L 216.58912 49.72955 
L 216.977452 50.410225 
L 217.171618 51.090901 
L 217.365784 51.090901 
L 217.55995 50.410225 
L 217.754116 51.090901 
L 217.948282 51.090901 
L 218.142448 50.410225 
L 218.336614 50.750563 
L 218.53078 50.410225 
L 218.724946 51.090901 
L 218.919112 50.750563 
L 219.113278 51.090901 
L 219.307445 50.750563 
L 219.501611 51.431239 
L 219.695777 51.090901 
L 220.084109 51.090901 
L 220.278275 52.111914 
L 220.472441 51.090901 
L 221.637437 51.090901 
L 221.831603 51.431239 
L 222.02577 50.750563 
L 222.219936 51.090901 
L 223.190766 51.090901 
L 223.384932 50.750563 
L 223.579098 51.431239 
L 223.96743 50.750563 
L 224.161596 51.431239 
L 224.355762 50.750563 
L 224.549928 51.090901 
L 224.938261 51.090901 
L 225.132427 50.750563 
L 225.326593 51.431239 
L 225.520759 50.750563 
L 225.714925 51.090901 
L 225.909091 50.750563 
L 226.103257 51.431239 
L 226.297423 50.750563 
L 226.491589 50.750563 
L 226.685755 51.090901 
L 227.074087 51.090901 
L 227.268253 50.750563 
L 227.462419 51.090901 
L 227.656586 50.750563 
L 227.850752 51.090901 
L 228.044918 51.090901 
L 228.239084 50.750563 
L 228.43325 51.090901 
L 228.821582 51.090901 
L 229.015748 50.750563 
L 229.209914 50.750563 
L 229.40408 47.347185 
L 229.598246 39.519416 
L 229.792412 36.796713 
L 229.986578 31.010971 
L 230.180744 28.968944 
L 230.569077 38.498402 
L 230.763243 43.943807 
L 230.957409 45.645496 
L 231.345741 43.603469 
L 231.734073 39.859754 
L 231.928239 39.179078 
L 232.122405 39.179078 
L 232.316571 39.519416 
L 232.704903 41.561443 
L 232.899069 41.90178 
L 233.093236 42.922794 
L 233.287402 43.263132 
L 233.481568 42.922794 
L 233.675734 42.242118 
L 233.8699 43.603469 
L 234.064066 42.582456 
L 234.258232 43.263132 
L 234.452398 43.263132 
L 234.646564 49.389212 
L 234.84073 49.389212 
L 235.034896 49.048874 
L 235.229062 49.72955 
L 235.423228 49.048874 
L 235.617394 49.72955 
L 235.81156 49.389212 
L 236.005727 49.389212 
L 236.199893 45.985834 
L 236.394059 50.750563 
L 236.588225 49.389212 
L 236.782391 46.666509 
L 236.976557 49.72955 
L 237.170723 49.389212 
L 237.364889 49.389212 
L 237.753221 50.069887 
L 237.947387 49.048874 
L 238.141553 49.72955 
L 238.724052 49.72955 
L 238.918218 50.069887 
L 239.112384 49.72955 
L 239.500716 50.410225 
L 239.694882 50.069887 
L 239.889048 50.410225 
L 240.083214 50.069887 
L 240.27738 50.410225 
L 240.471546 50.410225 
L 240.665712 50.750563 
L 240.859878 50.410225 
L 241.442377 50.410225 
L 241.636543 50.750563 
L 241.830709 50.410225 
L 242.024875 50.410225 
L 242.219041 51.090901 
L 242.413207 50.410225 
L 242.607373 50.410225 
L 242.801539 51.090901 
L 242.995705 50.410225 
L 243.189871 51.090901 
L 243.384037 50.410225 
L 243.578203 50.410225 
L 243.772369 51.090901 
L 244.160702 50.410225 
L 244.354868 47.687523 
L 244.549034 50.069887 
L 244.7432 47.687523 
L 244.937366 51.771576 
L 245.131532 50.410225 
L 245.71403 50.410225 
L 245.908196 50.069887 
L 246.102362 50.750563 
L 246.296528 50.069887 
L 246.490694 51.090901 
L 246.68486 50.069887 
L 246.879026 50.410225 
L 247.073193 50.410225 
L 247.267359 50.750563 
L 247.461525 50.410225 
L 247.655691 50.750563 
L 247.849857 50.750563 
L 248.044023 50.410225 
L 248.238189 50.410225 
L 248.432355 50.750563 
L 248.820687 50.750563 
L 249.014853 50.410225 
L 249.209019 50.750563 
L 249.403185 50.410225 
L 249.791518 51.090901 
L 249.985684 50.410225 
L 250.17985 50.750563 
L 250.374016 50.750563 
L 250.568182 50.410225 
L 250.956514 51.090901 
L 251.15068 50.410225 
L 251.344846 50.750563 
L 251.539012 50.750563 
L 251.733178 50.410225 
L 251.927344 51.090901 
L 252.12151 50.750563 
L 252.315676 50.750563 
L 252.509843 50.410225 
L 252.704009 50.750563 
L 253.092341 50.750563 
L 253.286507 50.410225 
L 253.480673 50.750563 
L 253.674839 50.410225 
L 253.869005 50.750563 
L 254.063171 50.410225 
L 254.257337 50.750563 
L 254.451503 50.410225 
L 254.645669 50.410225 
L 254.839835 50.750563 
L 255.034001 50.750563 
L 255.228168 50.069887 
L 255.422334 50.750563 
L 255.6165 50.750563 
L 255.810666 50.069887 
L 256.004832 50.750563 
L 256.198998 50.069887 
L 256.393164 50.750563 
L 256.58733 50.410225 
L 256.781496 50.750563 
L 256.975662 50.410225 
L 257.169828 50.410225 
L 257.363994 50.750563 
L 257.55816 50.069887 
L 257.752326 50.750563 
L 257.946492 50.410225 
L 258.528991 50.410225 
L 258.723157 50.750563 
L 258.917323 50.410225 
L 259.111489 50.750563 
L 259.305655 50.069887 
L 259.499821 50.750563 
L 259.693987 50.750563 
L 259.888153 50.069887 
L 260.082319 50.750563 
L 260.276485 50.410225 
L 260.470651 50.750563 
L 260.664817 50.750563 
L 260.858984 50.410225 
L 261.05315 50.410225 
L 261.247316 51.090901 
L 261.441482 50.069887 
L 261.635648 50.750563 
L 262.218146 50.750563 
L 262.412312 51.431239 
L 262.606478 50.410225 
L 262.800644 50.750563 
L 262.99481 50.410225 
L 263.188976 50.750563 
L 263.383142 50.410225 
L 263.577309 50.750563 
L 263.771475 50.410225 
L 263.965641 50.750563 
L 264.159807 50.410225 
L 264.353973 51.431239 
L 264.548139 50.750563 
L 264.936471 50.750563 
L 265.130637 50.410225 
L 265.324803 94.654138 
L 265.518969 50.410225 
L 265.713135 50.750563 
L 266.101467 50.750563 
L 266.295634 50.410225 
L 266.4898 50.410225 
L 266.683966 50.069887 
L 267.072298 50.069887 
L 267.266464 50.410225 
L 267.46063 50.069887 
L 267.848962 50.069887 
L 268.043128 49.72955 
L 268.237294 50.410225 
L 268.43146 50.069887 
L 269.208125 50.069887 
L 269.402291 49.72955 
L 269.596457 50.069887 
L 269.790623 50.069887 
L 269.984789 49.72955 
L 270.178955 50.069887 
L 270.373121 49.72955 
L 270.567287 50.069887 
L 270.761453 50.069887 
L 270.955619 49.72955 
L 271.149785 50.069887 
L 271.343951 49.72955 
L 271.538117 50.069887 
L 271.732283 50.069887 
L 271.92645 49.72955 
L 272.314782 49.72955 
L 272.508948 50.069887 
L 274.062276 50.069887 
L 274.256442 49.72955 
L 274.450608 50.069887 
L 275.615605 50.069887 
L 275.809771 50.750563 
L 276.003937 49.389212 
L 276.392269 50.410225 
L 276.586435 47.687523 
L 276.780601 43.263132 
L 276.974767 81.721302 
L 277.168933 48.708536 
L 277.363099 48.368198 
L 277.557266 47.687523 
L 277.945598 47.687523 
L 278.33393 48.368198 
L 278.528096 47.347185 
L 279.110594 40.200091 
L 279.693092 48.027861 
L 280.081424 48.027861 
L 280.663923 46.326172 
L 280.858089 45.985834 
L 281.052255 45.985834 
L 281.246421 47.006847 
L 281.440587 46.326172 
L 281.634753 47.006847 
L 281.828919 47.006847 
L 282.217251 47.687523 
L 282.605583 47.687523 
L 282.799749 48.027861 
L 282.993916 47.687523 
L 283.382248 47.687523 
L 283.576414 48.027861 
L 283.77058 47.687523 
L 283.964746 48.027861 
L 284.158912 48.027861 
L 284.353078 47.687523 
L 284.547244 48.027861 
L 285.323908 48.027861 
L 285.518074 48.368198 
L 285.712241 48.027861 
L 286.488905 48.027861 
L 286.683071 48.368198 
L 286.877237 48.027861 
L 287.071403 48.027861 
L 287.265569 78.658262 
L 287.459735 48.027861 
L 287.848067 48.027861 
L 288.042233 47.687523 
L 288.236399 48.027861 
L 288.430565 48.027861 
L 288.624732 47.687523 
L 288.818898 48.027861 
L 289.20723 48.027861 
L 289.401396 47.347185 
L 289.789728 48.027861 
L 289.983894 47.687523 
L 290.566392 47.687523 
L 290.760558 48.027861 
L 290.954724 47.347185 
L 291.14889 47.687523 
L 291.343057 47.687523 
L 291.537223 47.347185 
L 291.731389 47.687523 
L 291.925555 47.687523 
L 292.119721 47.347185 
L 292.313887 47.687523 
L 292.508053 47.347185 
L 292.702219 48.368198 
L 292.896385 47.347185 
L 293.090551 47.687523 
L 293.284717 47.347185 
L 293.478883 47.687523 
L 293.673049 47.347185 
L 294.255548 47.347185 
L 294.449714 47.687523 
L 294.64388 47.347185 
L 294.838046 47.347185 
L 295.032212 47.687523 
L 295.226378 47.347185 
L 295.420544 47.687523 
L 295.808876 47.006847 
L 296.003042 45.645496 
L 296.197208 41.90178 
L 296.391374 42.582456 
L 296.973873 47.006847 
L 297.168039 45.985834 
L 297.362205 46.666509 
L 297.556371 46.326172 
L 297.750537 46.326172 
L 297.944703 45.645496 
L 298.138869 99.418867 
L 298.333035 45.985834 
L 298.527201 46.326172 
L 298.721367 46.326172 
L 298.915533 45.985834 
L 299.109699 46.326172 
L 299.886364 46.326172 
L 300.08053 46.666509 
L 300.274696 45.985834 
L 300.468862 46.666509 
L 300.663028 46.326172 
L 300.857194 46.666509 
L 301.05136 45.985834 
L 301.439692 46.666509 
L 301.633858 46.326172 
L 302.02219 46.326172 
L 302.216356 46.666509 
L 302.410523 46.326172 
L 302.798855 46.326172 
L 302.993021 46.666509 
L 303.187187 46.326172 
L 303.575519 46.326172 
L 303.769685 46.666509 
L 303.963851 46.326172 
L 304.158017 46.666509 
L 304.352183 45.985834 
L 304.546349 46.666509 
L 304.740515 46.326172 
L 304.934681 47.006847 
L 305.323014 46.326172 
L 305.51718 46.666509 
L 305.711346 46.326172 
L 305.905512 46.666509 
L 306.099678 46.326172 
L 306.293844 46.666509 
L 306.48801 46.666509 
L 306.682176 45.985834 
L 307.070508 46.666509 
L 308.429671 46.666509 
L 308.623837 46.326172 
L 308.818003 46.666509 
L 309.012169 46.666509 
L 309.206335 47.006847 
L 309.400501 46.666509 
L 309.788833 46.666509 
L 310.177165 47.347185 
L 310.371331 46.666509 
L 310.759664 46.666509 
L 310.95383 47.347185 
L 311.147996 46.666509 
L 311.342162 46.666509 
L 311.536328 47.006847 
L 311.730494 52.111914 
L 312.118826 51.090901 
L 312.312992 51.090901 
L 312.507158 51.431239 
L 312.701324 51.431239 
L 312.89549 50.750563 
L 313.089656 51.431239 
L 313.283822 51.431239 
L 313.477989 51.090901 
L 313.672155 51.431239 
L 313.866321 51.090901 
L 314.060487 51.090901 
L 314.254653 51.431239 
L 314.448819 51.431239 
L 314.642985 50.750563 
L 314.837151 51.431239 
L 315.031317 51.090901 
L 315.225483 51.431239 
L 315.419649 51.090901 
L 315.613815 51.090901 
L 315.807981 51.431239 
L 316.002147 51.431239 
L 316.196314 50.750563 
L 316.39048 51.431239 
L 316.584646 51.431239 
L 316.972978 50.750563 
L 317.167144 50.750563 
L 317.555476 50.069887 
L 317.943808 48.368198 
L 318.33214 41.561443 
L 318.526306 33.733673 
L 318.720472 30.670633 
L 318.914639 29.64962 
L 319.108805 33.733673 
L 319.497137 43.943807 
L 319.691303 45.985834 
L 319.885469 46.326172 
L 320.079635 45.645496 
L 320.273801 48.708536 
L 320.662133 56.536305 
L 320.856299 56.876643 
L 321.050465 53.473265 
L 321.244631 52.452252 
L 321.438797 53.132927 
L 321.82713 51.090901 
L 322.021296 50.750563 
L 322.215462 52.111914 
L 322.409628 51.771576 
L 322.603794 53.813603 
L 322.79796 54.494279 
L 322.992126 58.91867 
L 323.186292 53.473265 
L 323.76879 51.431239 
L 323.962956 51.431239 
L 324.351288 50.750563 
L 324.545455 51.090901 
L 324.739621 51.090901 
L 324.933787 50.750563 
L 325.127953 51.431239 
L 325.516285 50.750563 
L 326.292949 50.750563 
L 326.487115 50.410225 
L 327.457946 50.410225 
L 327.652112 50.750563 
L 327.846278 50.069887 
L 328.040444 50.750563 
L 328.23461 50.069887 
L 328.428776 50.750563 
L 328.622942 50.069887 
L 328.817108 50.410225 
L 329.593772 50.410225 
L 329.787938 50.069887 
L 329.982105 50.410225 
L 330.564603 50.410225 
L 330.758769 51.431239 
L 330.952935 50.410225 
L 331.147101 50.410225 
L 331.341267 51.090901 
L 331.535433 50.410225 
L 331.729599 51.090901 
L 331.923765 50.410225 
L 332.117931 51.090901 
L 332.312097 51.090901 
L 332.506263 50.410225 
L 332.700429 51.090901 
L 333.67126 51.090901 
L 333.865426 50.069887 
L 334.059592 51.431239 
L 334.253758 51.090901 
L 334.447924 51.090901 
L 334.64209 51.771576 
L 334.836256 51.090901 
L 335.030422 51.431239 
L 335.224588 51.090901 
L 335.418754 51.431239 
L 335.612921 52.452252 
L 335.807087 51.431239 
L 336.777917 51.431239 
L 336.972083 51.771576 
L 337.166249 51.771576 
L 337.360415 51.431239 
L 337.554581 51.771576 
L 337.748747 51.090901 
L 338.137079 52.111914 
L 338.525412 51.431239 
L 338.719578 52.452252 
L 338.913744 51.771576 
L 339.10791 52.111914 
L 339.302076 52.111914 
L 339.496242 51.771576 
L 339.690408 52.111914 
L 339.884574 51.771576 
L 340.07874 52.111914 
L 340.272906 51.771576 
L 340.661238 52.452252 
L 340.855404 51.771576 
L 341.049571 52.452252 
L 341.243737 52.111914 
L 341.437903 52.452252 
L 341.632069 52.111914 
L 341.826235 52.452252 
L 342.020401 52.111914 
L 342.214567 52.452252 
L 342.408733 51.771576 
L 342.797065 52.452252 
L 342.991231 52.111914 
L 343.185397 52.111914 
L 343.185397 52.111914 
" clip-path="url(#pff3ea1d7bc)" style="fill: none; stroke: #1f77b4; stroke-width: 1.5; stroke-linecap: square"/>
   </g>
   <g id="line2d_16">
    <path d="M 63.586256 44.434661 
L 64.557087 44.401187 
L 64.751253 44.403628 
L 64.945419 44.579136 
L 65.722083 44.578664 
L 67.275412 44.315771 
L 69.022906 44.360944 
L 69.799571 44.405863 
L 74.071224 44.932388 
L 76.401217 45.224919 
L 77.177881 45.24389 
L 77.372047 45.417415 
L 78.342878 45.239948 
L 78.73121 45.224771 
L 79.119542 45.422936 
L 79.507874 46.036128 
L 80.090372 47.56253 
L 80.867037 50.112318 
L 81.255369 50.77403 
L 81.643701 51.906365 
L 82.226199 51.310924 
L 82.420365 51.250948 
L 84.556192 52.044457 
L 85.13869 52.347977 
L 86.692019 52.863989 
L 87.274517 53.305877 
L 88.051181 54.006342 
L 88.439513 53.956807 
L 90.187008 52.698968 
L 90.57534 52.337953 
L 91.934503 52.367256 
L 94.846994 52.527518 
L 95.235326 53.00651 
L 96.01199 54.134759 
L 96.400322 54.330456 
L 96.594488 54.292519 
L 96.788654 52.368418 
L 98.730315 52.403385 
L 103.778633 52.395306 
L 105.137795 52.413957 
L 105.331961 51.998164 
L 106.88529 51.903135 
L 109.797781 51.961225 
L 113.681102 52.006938 
L 114.457767 51.703521 
L 114.846099 51.468965 
L 115.040265 51.51241 
L 115.234431 51.321961 
L 116.205261 51.268152 
L 116.787759 51.287437 
L 117.75859 51.54288 
L 118.535254 51.402027 
L 119.700251 51.998141 
L 119.894417 51.906151 
L 120.865247 50.782618 
L 121.059413 50.704296 
L 121.447745 50.869895 
L 121.836077 51.30151 
L 122.224409 51.608556 
L 122.806908 51.546195 
L 123.001074 51.213078 
L 123.19524 50.642643 
L 123.389406 50.540388 
L 123.583572 50.646884 
L 123.971904 51.650761 
L 124.360236 52.242863 
L 124.748568 51.636719 
L 125.136901 51.73609 
L 125.331067 51.296291 
L 125.525233 51.172973 
L 125.719399 51.442137 
L 125.913565 51.399266 
L 126.301897 51.772832 
L 126.690229 51.492232 
L 126.884395 51.91994 
L 127.272727 51.467225 
L 127.466893 51.856181 
L 127.855225 51.432375 
L 128.049392 51.867477 
L 128.437724 51.461622 
L 128.63189 51.874577 
L 128.826056 51.751532 
L 129.020222 51.448838 
L 129.214388 51.842514 
L 129.60272 51.443977 
L 129.796886 51.830951 
L 130.185218 51.540467 
L 130.379384 51.969038 
L 130.767717 51.671825 
L 130.961883 52.112603 
L 131.350215 51.456179 
L 131.544381 51.990431 
L 131.738547 51.930778 
L 131.932713 52.014964 
L 132.126879 51.972065 
L 132.321045 51.417313 
L 132.515211 51.925839 
L 132.903543 51.683502 
L 133.097709 52.13252 
L 133.291875 52.099538 
L 133.486042 51.886639 
L 133.680208 52.173065 
L 133.874374 51.920367 
L 134.06854 51.47555 
L 134.262706 51.908823 
L 134.651038 51.376869 
L 134.845204 51.971122 
L 135.233536 51.756744 
L 135.427702 52.040651 
L 135.621868 51.904804 
L 135.816034 51.963608 
L 136.0102 52.196458 
L 136.398533 51.935413 
L 136.592699 52.07441 
L 136.786865 51.803815 
L 136.981031 51.81567 
L 137.175197 52.043368 
L 137.369363 51.903403 
L 137.563529 51.955718 
L 137.757695 52.176496 
L 137.951861 52.058019 
L 138.146027 52.121504 
L 138.340193 52.347411 
L 138.534359 52.176158 
L 138.922691 52.464061 
L 139.311024 52.070854 
L 139.50519 52.269816 
L 139.699356 52.090619 
L 139.893522 52.192999 
L 140.087688 52.440352 
L 140.47602 52.297176 
L 140.670186 52.475616 
L 140.864352 52.240459 
L 141.058518 52.246447 
L 141.252684 52.474834 
L 141.44685 52.409716 
L 141.641016 52.155289 
L 141.835183 52.576165 
L 142.029349 52.471932 
L 142.223515 55.985722 
L 142.611847 56.824834 
L 143.000179 57.145391 
L 143.194345 57.131737 
L 143.776843 56.521123 
L 144.165175 56.412439 
L 145.136006 56.193342 
L 146.495168 55.615537 
L 147.271832 55.474019 
L 156.009306 55.5421 
L 157.950966 54.792406 
L 158.921797 53.784771 
L 159.504295 53.581433 
L 160.086793 53.728952 
L 161.057623 54.123553 
L 162.22262 54.356651 
L 162.999284 54.864022 
L 163.387616 55.851958 
L 164.164281 57.919044 
L 164.552613 58.365651 
L 164.746779 58.392824 
L 164.940945 55.578618 
L 166.68844 55.923403 
L 168.824266 55.844045 
L 170.377595 56.100905 
L 170.765927 56.062354 
L 171.154259 56.109045 
L 171.542591 55.872664 
L 173.290086 55.771878 
L 175.037581 55.673047 
L 175.231747 54.037038 
L 175.814245 53.798575 
L 176.008411 53.265892 
L 176.396743 52.996327 
L 177.755906 51.765605 
L 179.115068 51.753167 
L 179.891732 51.471867 
L 180.47423 51.587426 
L 180.862563 51.521701 
L 182.027559 51.760105 
L 182.415891 52.079566 
L 183.386722 53.172411 
L 183.775054 53.363423 
L 183.96922 53.372102 
L 184.163386 52.257206 
L 187.852541 52.457547 
L 189.794202 52.546025 
L 191.34753 52.684304 
L 192.512527 52.87972 
L 192.706693 52.866439 
L 192.900859 52.662435 
L 195.619184 52.965742 
L 196.590014 53.824223 
L 196.978346 53.82005 
L 197.172513 53.707505 
L 197.366679 52.474034 
L 205.133321 52.532277 
L 205.71582 52.713191 
L 206.104152 53.437884 
L 206.68665 54.702524 
L 207.074982 55.135322 
L 207.463314 55.160761 
L 207.65748 52.82929 
L 208.045812 52.816889 
L 208.239979 50.838579 
L 208.822477 50.38007 
L 209.016643 50.138526 
L 210.764137 49.728901 
L 211.540802 49.534433 
L 212.511632 49.356023 
L 214.647459 48.895881 
L 215.618289 48.433533 
L 216.394953 48.015835 
L 216.58912 48.235159 
L 217.754116 47.615106 
L 221.249105 46.515682 
L 222.219936 46.129955 
L 222.9966 45.782874 
L 223.96743 45.298203 
L 225.132427 44.675411 
L 225.326593 44.891808 
L 228.044918 43.883478 
L 229.015748 43.301903 
L 229.792412 42.496491 
L 230.180744 41.892323 
L 230.569077 40.687592 
L 231.151575 38.612323 
L 231.345741 38.226473 
L 231.539907 38.169887 
L 231.928239 39.053943 
L 232.510737 40.920317 
L 232.704903 41.112789 
L 233.287402 41.0423 
L 233.675734 41.386036 
L 234.452398 42.733534 
L 234.646564 47.801094 
L 234.84073 47.794878 
L 235.034896 47.975348 
L 235.423228 47.971374 
L 235.617394 48.166962 
L 237.559055 48.3039 
L 238.141553 48.169136 
L 238.335719 48.310922 
L 238.724052 48.188268 
L 238.918218 48.307611 
L 239.30655 48.256907 
L 239.500716 48.496948 
L 240.665712 48.576495 
L 242.024875 48.635868 
L 242.607373 48.531966 
L 243.578203 48.183508 
L 245.325698 48.031452 
L 246.296528 47.850142 
L 246.879026 48.126993 
L 247.267359 48.049472 
L 249.597351 47.982355 
L 250.374016 47.603814 
L 251.15068 47.133671 
L 251.539012 47.060042 
L 262.218146 46.884332 
L 264.353973 46.885407 
L 264.936471 46.833165 
L 265.518969 46.852697 
L 265.907301 47.235847 
L 266.4898 47.923981 
L 266.683966 50.966375 
L 269.790623 50.829843 
L 276.392269 50.395931 
L 277.168933 50.193675 
L 277.751432 50.436954 
L 278.722262 50.823376 
L 278.916428 51.035445 
L 279.110594 49.667351 
L 279.887258 49.293398 
L 280.663923 48.842558 
L 280.858089 48.874582 
L 281.634753 49.49525 
L 282.605583 49.283596 
L 285.712241 49.549101 
L 287.459735 49.521987 
L 287.848067 49.717233 
L 288.818898 50.396409 
L 289.20723 50.486442 
L 289.401396 49.238066 
L 296.779707 48.817354 
L 297.556371 48.426679 
L 298.138869 48.257977 
L 298.721367 49.081191 
L 299.498031 50.083637 
L 299.886364 50.321515 
L 300.08053 50.332909 
L 300.274696 48.160583 
L 302.410523 48.160195 
L 303.575519 48.156486 
L 309.594667 48.467826 
L 311.536328 48.520921 
L 311.730494 51.12761 
L 313.672155 51.208134 
L 314.254653 51.176872 
L 317.749642 51.209003 
L 318.526306 50.993917 
L 318.914639 50.547206 
L 319.302971 49.634831 
L 320.273801 46.871478 
L 320.467967 46.86216 
L 320.856299 48.059541 
L 321.438797 50.297887 
L 322.215462 51.854792 
L 322.409628 52.058872 
L 322.603794 51.971061 
L 323.186292 51.466891 
L 323.76879 51.598488 
L 324.351288 51.821768 
L 324.545455 51.802198 
L 324.933787 51.390443 
L 325.127953 50.908108 
L 325.710451 50.64218 
L 328.817108 50.4262 
L 329.787938 50.495084 
L 331.729599 51.02036 
L 332.700429 51.10311 
L 333.282928 51.117827 
L 334.059592 51.257941 
L 335.807087 51.67176 
L 336.389585 51.952305 
L 337.554581 51.989798 
L 338.137079 51.944241 
L 343.185397 51.925157 
L 343.185397 51.925157 
" clip-path="url(#pff3ea1d7bc)" style="fill: none; stroke-dasharray: 5.55,2.4; stroke-dashoffset: 0; stroke: #ff0000; stroke-width: 1.5"/>
   </g>
   <g id="patch_3">
    <path d="M 49.606299 148.818898 
L 49.606299 20.409449 
" style="fill: none; stroke: #000000; stroke-linejoin: miter; stroke-linecap: square"/>
   </g>
   <g id="patch_4">
    <path d="M 357.165354 148.818898 
L 357.165354 20.409449 
" style="fill: none; stroke: #000000; stroke-linejoin: miter; stroke-linecap: square"/>
   </g>
   <g id="patch_5">
    <path d="M 49.606299 148.818898 
L 357.165354 148.818898 
" style="fill: none; stroke: #000000; stroke-linejoin: miter; stroke-linecap: square"/>
   </g>
   <g id="patch_6">
    <path d="M 49.606299 20.409449 
L 357.165354 20.409449 
" style="fill: none; stroke: #000000; stroke-linejoin: miter; stroke-linecap: square"/>
   </g>
   <g id="legend_1">
    <g id="patch_7">
     <path d="M 53.806299 145.818898 
L 97.006299 145.818898 
Q 98.206299 145.818898 98.206299 144.618898 
L 98.206299 128.062648 
Q 98.206299 126.862648 97.006299 126.862648 
L 53.806299 126.862648 
Q 52.606299 126.862648 52.606299 128.062648 
L 52.606299 144.618898 
Q 52.606299 145.818898 53.806299 145.818898 
z
" style="fill: #ffffff; opacity: 0.8; stroke: #cccccc; stroke-linejoin: miter"/>
    </g>
    <g id="line2d_17">
     <path d="M 55.006299 131.967335 
L 61.006299 131.967335 
L 67.006299 131.967335 
" style="fill: none; stroke: #1f77b4; stroke-width: 1.5; stroke-linecap: square"/>
    </g>
    <g id="text_15">
     <!-- 真实值 -->
     <g transform="translate(71.806299 134.067335)scale(0.06 -0.06)">
      <defs>
       <path id="SimHei-771f" d="M 3550 5100 
Q 3450 4925 3400 4625 
L 4850 4625 
Q 5175 4625 5725 4650 
L 5725 4250 
Q 5200 4275 4850 4275 
L 3350 4275 
L 3300 3850 
L 5050 3850 
Q 5025 3550 5025 3150 
L 5025 1075 
L 5400 1075 
Q 5800 1075 6075 1100 
L 6075 625 
Q 5575 650 4900 650 
L 1450 650 
Q 775 650 350 625 
L 350 1100 
Q 725 1075 1100 1075 
L 1425 1075 
L 1425 3075 
Q 1425 3450 1400 3850 
L 2825 3850 
L 2850 4275 
L 1400 4275 
Q 1050 4275 625 4250 
L 625 4650 
Q 1175 4625 1375 4625 
L 2925 4625 
Q 2950 4875 2950 5125 
Q 3300 5100 3550 5100 
z
M 4075 525 
Q 4500 425 4925 250 
Q 5350 75 5825 -150 
Q 5550 -425 5450 -575 
Q 5025 -300 4550 -100 
Q 4075 100 3800 175 
Q 3925 350 4075 525 
z
M 4525 3150 
L 4525 3475 
L 1925 3475 
L 1925 3150 
L 4525 3150 
z
M 4525 1075 
L 4525 1400 
L 1925 1400 
L 1925 1075 
L 4525 1075 
z
M 2775 200 
Q 2375 -25 1875 -225 
Q 1375 -425 950 -575 
Q 775 -400 600 -250 
Q 1225 -50 1625 137 
Q 2025 325 2350 525 
Q 2550 350 2775 200 
z
M 4525 1775 
L 4525 2075 
L 1925 2075 
L 1925 1775 
L 4525 1775 
z
M 4525 2475 
L 4525 2775 
L 1925 2775 
L 1925 2475 
L 4525 2475 
z
" transform="scale(0.015625)"/>
       <path id="SimHei-5b9e" d="M 4125 3500 
Q 4050 3200 4000 2675 
Q 3950 2150 3850 1550 
L 5025 1550 
Q 5475 1550 5975 1575 
L 5975 1100 
Q 5450 1125 5000 1125 
L 3725 1125 
Q 3500 625 3050 250 
Q 2600 -125 2000 -337 
Q 1400 -550 925 -675 
Q 825 -375 500 -200 
Q 1225 -125 2050 212 
Q 2875 550 3200 1125 
L 1425 1125 
Q 975 1125 425 1100 
L 425 1575 
Q 1000 1550 1425 1550 
L 3375 1550 
Q 3450 1975 3487 2462 
Q 3525 2950 3500 3650 
Q 3800 3550 4125 3500 
z
M 3250 5250 
Q 3450 4850 3600 4375 
L 5775 4375 
Q 5750 4100 5750 3825 
Q 5750 3575 5775 3275 
L 5200 3275 
L 5200 3975 
L 1225 3975 
L 1225 3225 
L 675 3225 
Q 700 3525 700 3800 
Q 700 4100 675 4375 
L 2975 4375 
Q 2900 4675 2700 5075 
Q 2900 5150 3250 5250 
z
M 4000 825 
Q 4550 525 5050 262 
Q 5550 0 5925 -225 
Q 5750 -425 5550 -650 
Q 5100 -325 4575 -37 
Q 4050 250 3675 400 
Q 3875 650 4000 825 
z
M 1175 2750 
Q 1600 2550 2350 2050 
Q 2250 1900 2050 1650 
Q 1350 2175 925 2350 
Q 1075 2500 1175 2750 
z
M 3150 2825 
Q 2975 2625 2850 2425 
Q 2050 3000 1675 3125 
Q 1800 3300 1950 3525 
L 3150 2825 
z
" transform="scale(0.015625)"/>
       <path id="SimHei-503c" d="M 3675 4450 
L 3675 5100 
Q 3975 5075 4350 5050 
Q 4225 4875 4200 4450 
L 5125 4450 
Q 5550 4450 5875 4475 
L 5875 4025 
Q 5525 4050 5125 4050 
L 4175 4050 
L 4125 3500 
L 5400 3500 
Q 5375 3200 5375 2700 
L 5375 150 
Q 5875 150 6100 175 
L 6100 -275 
Q 5775 -250 5200 -250 
L 2850 -250 
Q 2275 -250 1900 -275 
L 1900 175 
Q 2125 150 2600 150 
L 2600 2700 
Q 2600 3175 2575 3500 
L 3600 3500 
L 3650 4050 
L 3200 4050 
Q 2575 4050 2225 4025 
L 2225 4475 
Q 2550 4450 3200 4450 
L 3675 4450 
z
M 2225 4900 
Q 2025 4675 1650 3750 
L 1650 450 
Q 1650 -75 1675 -550 
L 1150 -550 
Q 1175 -125 1175 375 
L 1175 2950 
Q 875 2450 625 2150 
Q 425 2425 250 2575 
Q 500 2825 937 3537 
Q 1375 4250 1625 5150 
Q 1975 4975 2225 4900 
z
M 4925 2650 
L 4925 3150 
L 3075 3150 
L 3075 2650 
L 4925 2650 
z
M 4925 150 
L 4925 625 
L 3075 625 
L 3075 150 
L 4925 150 
z
M 4925 1000 
L 4925 1450 
L 3075 1450 
L 3075 1000 
L 4925 1000 
z
M 4925 1825 
L 4925 2275 
L 3075 2275 
L 3075 1825 
L 4925 1825 
z
" transform="scale(0.015625)"/>
      </defs>
      <use xlink:href="#SimHei-771f"/>
      <use xlink:href="#SimHei-5b9e" x="100"/>
      <use xlink:href="#SimHei-503c" x="200"/>
     </g>
    </g>
    <g id="line2d_18">
     <path d="M 55.006299 140.568898 
L 61.006299 140.568898 
L 67.006299 140.568898 
" style="fill: none; stroke-dasharray: 5.55,2.4; stroke-dashoffset: 0; stroke: #ff0000; stroke-width: 1.5"/>
    </g>
    <g id="text_16">
     <!-- 模型输出 -->
     <g transform="translate(71.806299 142.668898)scale(0.06 -0.06)">
      <defs>
       <path id="SimHei-6a21" d="M 5700 3675 
Q 5675 3400 5675 2725 
Q 5675 2050 5700 1725 
L 4375 1725 
Q 4350 1450 4325 1200 
L 5225 1200 
Q 5750 1200 6025 1225 
L 6025 825 
Q 5725 850 5225 850 
L 4700 850 
Q 5075 375 5437 137 
Q 5800 -100 6200 -200 
Q 5975 -375 5850 -625 
Q 5275 -400 4862 25 
Q 4450 450 4300 775 
L 4225 775 
Q 4000 275 3537 -62 
Q 3075 -400 2475 -625 
Q 2350 -375 2125 -200 
Q 2775 -75 3200 200 
Q 3625 475 3775 850 
L 3325 850 
Q 2800 850 2400 825 
L 2400 1225 
Q 2800 1200 3350 1200 
L 3875 1200 
Q 3925 1475 3925 1725 
L 2750 1725 
Q 2775 2075 2775 2700 
Q 2775 3350 2750 3675 
L 5700 3675 
z
M 2175 1650 
Q 2025 1975 1675 2525 
L 1675 300 
Q 1675 -300 1700 -550 
L 1175 -550 
Q 1200 -275 1200 250 
L 1200 2225 
Q 1125 2000 962 1712 
Q 800 1425 600 1050 
Q 450 1275 200 1425 
Q 600 1825 850 2425 
Q 1100 3025 1175 3425 
L 950 3425 
Q 700 3425 400 3400 
L 400 3825 
Q 675 3800 825 3800 
L 1200 3800 
L 1200 4350 
Q 1200 4775 1175 5150 
L 1700 5150 
Q 1675 4825 1675 4425 
L 1675 3800 
Q 2075 3800 2375 3825 
L 2375 3400 
Q 2050 3425 1675 3425 
L 1675 2575 
Q 1850 2675 2000 2775 
Q 2150 2525 2287 2325 
Q 2425 2125 2550 1925 
Q 2325 1775 2175 1650 
z
M 3375 4300 
L 3175 4300 
Q 2700 4300 2425 4275 
L 2425 4675 
Q 2700 4650 3150 4650 
L 3375 4650 
Q 3375 5000 3350 5225 
L 3825 5225 
Q 3800 5000 3800 4650 
L 4550 4650 
Q 4550 4975 4525 5200 
L 5025 5200 
Q 5000 4925 5000 4650 
L 5375 4650 
Q 5650 4650 5950 4675 
L 5950 4275 
Q 5650 4300 5375 4300 
L 5000 4300 
L 5000 3850 
L 4550 3850 
L 4550 4300 
L 3800 4300 
L 3800 3875 
L 3375 3875 
L 3375 4300 
z
M 5275 2075 
L 5275 2525 
L 3200 2525 
L 3200 2075 
L 5275 2075 
z
M 5275 2875 
L 5275 3325 
L 3200 3325 
L 3200 2875 
L 5275 2875 
z
" transform="scale(0.015625)"/>
       <path id="SimHei-578b" d="M 2625 1775 
Q 2650 2325 2650 2700 
L 2650 3000 
L 1825 3000 
Q 1725 2375 1425 2000 
Q 1125 1625 775 1425 
Q 650 1650 375 1900 
Q 850 2075 1062 2362 
Q 1275 2650 1350 3000 
Q 900 3000 375 2975 
L 375 3450 
Q 925 3425 1400 3425 
Q 1425 3950 1425 4475 
Q 1075 4475 700 4450 
L 700 4900 
Q 1050 4875 1525 4875 
L 3000 4875 
Q 3275 4875 3650 4900 
L 3650 4450 
Q 3325 4475 3125 4475 
L 3125 3425 
Q 3450 3425 3825 3450 
L 3825 2975 
Q 3450 3000 3125 3000 
L 3125 2675 
Q 3125 2225 3150 1775 
L 2625 1775 
z
M 3000 1175 
Q 3000 1375 2975 1725 
L 3500 1725 
Q 3475 1375 3475 1175 
L 4550 1175 
Q 5050 1175 5450 1200 
L 5450 725 
Q 4975 750 4550 750 
L 3475 750 
L 3475 -50 
L 5275 -50 
Q 5700 -50 6100 -25 
L 6100 -500 
Q 5725 -475 5300 -475 
L 1250 -475 
Q 775 -475 400 -500 
L 400 -25 
Q 775 -50 1250 -50 
L 3000 -50 
L 3000 750 
L 2025 750 
Q 1500 750 975 725 
L 1050 1200 
Q 1500 1175 2025 1175 
L 3000 1175 
z
M 5775 5200 
Q 5750 4775 5750 4325 
L 5750 2400 
Q 5775 1950 5612 1775 
Q 5450 1600 4900 1525 
Q 4825 1775 4675 2100 
Q 5175 2075 5237 2150 
Q 5300 2225 5300 2525 
L 5300 4325 
Q 5300 4775 5275 5200 
L 5775 5200 
z
M 4600 4750 
Q 4575 4450 4575 3975 
L 4575 3200 
Q 4575 2825 4600 2425 
L 4100 2425 
Q 4125 2825 4125 3200 
L 4125 3975 
Q 4125 4450 4100 4750 
L 4600 4750 
z
M 2650 3425 
L 2650 4475 
L 1875 4475 
Q 1850 3750 1850 3425 
L 2650 3425 
z
" transform="scale(0.015625)"/>
       <path id="SimHei-8f93" d="M 3225 3650 
Q 2725 3100 2550 2950 
L 4100 2950 
Q 4075 2675 4075 2275 
L 4075 -100 
Q 4100 -325 3962 -425 
Q 3825 -525 3475 -600 
Q 3400 -350 3225 -100 
Q 3650 -100 3650 25 
L 3650 675 
L 2975 675 
L 2975 -575 
L 2525 -575 
Q 2550 -125 2550 325 
L 2550 2075 
Q 2550 2500 2525 2925 
L 2375 2800 
Q 2200 3000 1950 3100 
Q 2575 3525 3025 4087 
Q 3475 4650 3775 5300 
Q 4075 5150 4325 5100 
L 4225 4975 
Q 4700 4325 5225 3975 
Q 5750 3625 6200 3475 
Q 5975 3275 5825 3025 
Q 5275 3300 4875 3650 
L 4875 3350 
L 3225 3350 
L 3225 3650 
z
M 2225 825 
Q 1975 775 1725 675 
Q 1725 -100 1750 -650 
L 1275 -650 
Q 1300 -100 1300 575 
Q 725 425 475 325 
Q 400 575 250 825 
Q 650 875 1300 1025 
L 1300 1975 
Q 700 1925 400 1800 
L 225 2225 
Q 425 2350 600 2850 
Q 775 3350 875 3825 
Q 625 3825 350 3800 
L 350 4250 
Q 675 4225 950 4225 
Q 1050 4700 1075 5175 
Q 1400 5075 1675 5025 
Q 1525 4850 1400 4225 
Q 1925 4225 2300 4250 
L 2300 3800 
Q 1850 3825 1325 3825 
Q 1075 2900 825 2325 
L 1300 2375 
Q 1300 2700 1275 3125 
L 1750 3125 
Q 1725 2900 1725 2425 
L 2150 2475 
L 2150 2075 
L 1725 2025 
L 1725 1125 
L 2225 1250 
L 2225 825 
z
M 5775 2925 
Q 5750 2525 5750 2150 
L 5750 -100 
Q 5750 -375 5625 -475 
Q 5500 -575 5000 -675 
Q 4950 -450 4750 -175 
Q 5300 -200 5325 0 
L 5325 2100 
Q 5325 2500 5300 2925 
L 5775 2925 
z
M 4975 2700 
Q 4950 2400 4950 2000 
L 4950 900 
Q 4950 425 4975 125 
L 4475 125 
Q 4500 500 4500 875 
L 4500 2000 
Q 4500 2350 4475 2700 
L 4975 2700 
z
M 4750 3750 
Q 4450 4025 3975 4675 
Q 3575 4075 3300 3750 
L 4750 3750 
z
M 3650 2000 
L 3650 2575 
L 2975 2575 
L 2975 2000 
L 3650 2000 
z
M 3650 1075 
L 3650 1625 
L 2975 1625 
L 2975 1075 
L 3650 1075 
z
" transform="scale(0.015625)"/>
       <path id="SimHei-51fa" d="M 1475 4550 
Q 1450 4225 1450 3950 
L 1450 2950 
L 2925 2950 
L 2925 4425 
Q 2925 4775 2900 5125 
L 3425 5125 
Q 3400 4825 3400 4425 
L 3400 2950 
L 4900 2950 
L 4900 3875 
Q 4900 4275 4875 4525 
L 5400 4525 
Q 5375 4275 5375 3850 
L 5375 3175 
Q 5375 2775 5400 2525 
L 3400 2525 
L 3400 225 
L 5125 225 
L 5125 1275 
Q 5125 1650 5100 1925 
L 5625 1925 
Q 5600 1650 5600 1300 
L 5600 175 
Q 5600 -325 5625 -650 
L 5125 -650 
L 5125 -200 
L 675 -200 
Q 700 100 700 525 
L 700 1275 
Q 700 1700 675 1950 
L 1200 1950 
Q 1175 1700 1175 1275 
L 1175 225 
L 2925 225 
L 2925 2525 
L 950 2525 
Q 975 2775 975 3150 
L 975 3925 
Q 975 4250 950 4550 
L 1475 4550 
z
" transform="scale(0.015625)"/>
      </defs>
      <use xlink:href="#SimHei-6a21"/>
      <use xlink:href="#SimHei-578b" x="100"/>
      <use xlink:href="#SimHei-8f93" x="200"/>
      <use xlink:href="#SimHei-51fa" x="300"/>
     </g>
    </g>
   </g>
  </g>
 </g>
 <defs>
  <clipPath id="pff3ea1d7bc">
   <rect x="49.606299" y="20.409449" width="307.559055" height="128.409449"/>
  </clipPath>
 </defs>
</svg>
