<?xml version="1.0" encoding="utf-8" standalone="no"?>
<!DOCTYPE svg PUBLIC "-//W3C//DTD SVG 1.1//EN"
  "http://www.w3.org/Graphics/SVG/1.1/DTD/svg11.dtd">
<svg xmlns:xlink="http://www.w3.org/1999/xlink" width="283.464567pt" height="170.07874pt" viewBox="0 0 283.464567 170.07874" xmlns="http://www.w3.org/2000/svg" version="1.1">
 <metadata>
  <rdf:RDF xmlns:dc="http://purl.org/dc/elements/1.1/" xmlns:cc="http://creativecommons.org/ns#" xmlns:rdf="http://www.w3.org/1999/02/22-rdf-syntax-ns#">
   <cc:Work>
    <dc:type rdf:resource="http://purl.org/dc/dcmitype/StillImage"/>
    <dc:date>2023-02-23T10:47:01.298207</dc:date>
    <dc:format>image/svg+xml</dc:format>
    <dc:creator>
     <cc:Agent>
      <dc:title>Matplotlib v3.5.2, https://matplotlib.org/</dc:title>
     </cc:Agent>
    </dc:creator>
   </cc:Work>
  </rdf:RDF>
 </metadata>
 <defs>
  <style type="text/css">*{stroke-linejoin: round; stroke-linecap: butt}</style>
 </defs>
 <g id="figure_1">
  <g id="patch_1">
   <path d="M 0 170.07874 
L 283.464567 170.07874 
L 283.464567 0 
L 0 0 
L 0 170.07874 
z
" style="fill: none"/>
  </g>
  <g id="axes_1">
   <g id="patch_2">
    <path d="M 35.433071 148.818898 
L 255.11811 148.818898 
L 255.11811 20.409449 
L 35.433071 20.409449 
z
" style="fill: #ffffff"/>
   </g>
   <g id="matplotlib.axis_1">
    <g id="xtick_1">
     <g id="line2d_1">
      <defs>
       <path id="mc9bb832b54" d="M 0 0 
L 0 -3.5 
" style="stroke: #000000; stroke-width: 0.8"/>
      </defs>
      <g>
       <use xlink:href="#mc9bb832b54" x="45.418754" y="148.818898" style="stroke: #000000; stroke-width: 0.8"/>
      </g>
     </g>
     <g id="text_1">
      <!-- 0 -->
      <g transform="translate(43.668754 157.131398)scale(0.07 -0.07)">
       <defs>
        <path id="SimHei-30" d="M 225 2537 
Q 250 3200 412 3587 
Q 575 3975 875 4225 
Q 1175 4475 1612 4475 
Q 2050 4475 2375 4112 
Q 2700 3750 2800 3200 
Q 2900 2650 2862 1937 
Q 2825 1225 2612 775 
Q 2400 325 1975 150 
Q 1550 -25 1125 187 
Q 700 400 525 750 
Q 350 1100 275 1487 
Q 200 1875 225 2537 
z
M 750 2687 
Q 675 2000 800 1462 
Q 925 925 1212 700 
Q 1500 475 1800 612 
Q 2100 750 2237 1162 
Q 2375 1575 2375 2062 
Q 2375 2550 2337 2950 
Q 2300 3350 2112 3675 
Q 1925 4000 1612 4012 
Q 1300 4025 1062 3700 
Q 825 3375 750 2687 
z
" transform="scale(0.015625)"/>
       </defs>
       <use xlink:href="#SimHei-30"/>
      </g>
     </g>
    </g>
    <g id="xtick_2">
     <g id="line2d_2">
      <g>
       <use xlink:href="#mc9bb832b54" x="69.327015" y="148.818898" style="stroke: #000000; stroke-width: 0.8"/>
      </g>
     </g>
     <g id="text_2">
      <!-- 600 -->
      <g transform="translate(64.077015 157.131398)scale(0.07 -0.07)">
       <defs>
        <path id="SimHei-36" d="M 250 1612 
Q 275 1975 387 2225 
Q 500 2475 725 2850 
L 1750 4450 
L 2325 4450 
L 1275 2800 
Q 1950 2975 2350 2750 
Q 2750 2525 2887 2237 
Q 3025 1950 3037 1612 
Q 3050 1275 2937 950 
Q 2825 625 2537 362 
Q 2250 100 1737 75 
Q 1225 50 862 262 
Q 500 475 362 862 
Q 225 1250 250 1612 
z
M 1025 787 
Q 1250 550 1625 525 
Q 2000 500 2250 775 
Q 2500 1050 2500 1575 
Q 2500 2100 2187 2300 
Q 1875 2500 1487 2450 
Q 1100 2400 925 2075 
Q 750 1750 775 1387 
Q 800 1025 1025 787 
z
" transform="scale(0.015625)"/>
       </defs>
       <use xlink:href="#SimHei-36"/>
       <use xlink:href="#SimHei-30" x="50"/>
       <use xlink:href="#SimHei-30" x="100"/>
      </g>
     </g>
    </g>
    <g id="xtick_3">
     <g id="line2d_3">
      <g>
       <use xlink:href="#mc9bb832b54" x="93.235276" y="148.818898" style="stroke: #000000; stroke-width: 0.8"/>
      </g>
     </g>
     <g id="text_3">
      <!-- 1200 -->
      <g transform="translate(86.235276 157.131398)scale(0.07 -0.07)">
       <defs>
        <path id="SimHei-31" d="M 1400 3600 
Q 1075 3275 575 2975 
L 575 3450 
Q 1200 3875 1600 4450 
L 1900 4450 
L 1900 150 
L 1400 150 
L 1400 3600 
z
" transform="scale(0.015625)"/>
        <path id="SimHei-32" d="M 300 250 
Q 325 625 650 925 
Q 975 1225 1475 1862 
Q 1975 2500 2125 2850 
Q 2275 3200 2237 3450 
Q 2200 3700 2000 3862 
Q 1800 4025 1537 4000 
Q 1275 3975 1037 3800 
Q 800 3625 675 3275 
L 200 3350 
Q 400 3925 712 4187 
Q 1025 4450 1450 4475 
Q 1700 4500 1900 4462 
Q 2100 4425 2312 4287 
Q 2525 4150 2662 3875 
Q 2800 3600 2762 3212 
Q 2725 2825 2375 2287 
Q 2025 1750 1025 600 
L 2825 600 
L 2825 150 
L 300 150 
L 300 250 
z
" transform="scale(0.015625)"/>
       </defs>
       <use xlink:href="#SimHei-31"/>
       <use xlink:href="#SimHei-32" x="50"/>
       <use xlink:href="#SimHei-30" x="100"/>
       <use xlink:href="#SimHei-30" x="150"/>
      </g>
     </g>
    </g>
    <g id="xtick_4">
     <g id="line2d_4">
      <g>
       <use xlink:href="#mc9bb832b54" x="117.143537" y="148.818898" style="stroke: #000000; stroke-width: 0.8"/>
      </g>
     </g>
     <g id="text_4">
      <!-- 1800 -->
      <g transform="translate(110.143537 157.131398)scale(0.07 -0.07)">
       <defs>
        <path id="SimHei-38" d="M 175 1375 
Q 175 1675 325 1962 
Q 475 2250 825 2425 
Q 525 2600 425 2812 
Q 325 3025 312 3300 
Q 300 3575 387 3775 
Q 475 3975 650 4150 
Q 825 4325 1037 4387 
Q 1250 4450 1500 4450 
Q 1750 4450 1950 4400 
Q 2150 4350 2375 4187 
Q 2600 4025 2700 3725 
Q 2800 3425 2687 3025 
Q 2575 2625 2100 2400 
Q 2525 2275 2700 2012 
Q 2875 1750 2875 1375 
Q 2875 1000 2762 775 
Q 2650 550 2512 400 
Q 2375 250 2137 162 
Q 1900 75 1537 75 
Q 1175 75 912 162 
Q 650 250 475 425 
Q 300 600 237 837 
Q 175 1075 175 1375 
z
M 687 1400 
Q 675 1100 787 875 
Q 900 650 1200 587 
Q 1500 525 1825 600 
Q 2150 675 2275 950 
Q 2400 1225 2362 1500 
Q 2325 1775 2050 1962 
Q 1775 2150 1450 2125 
Q 1125 2100 912 1900 
Q 700 1700 687 1400 
z
M 775 3350 
Q 775 3100 950 2875 
Q 1125 2650 1500 2650 
Q 1875 2650 2062 2875 
Q 2250 3100 2237 3412 
Q 2225 3725 2012 3875 
Q 1800 4025 1437 4000 
Q 1075 3975 925 3787 
Q 775 3600 775 3350 
z
" transform="scale(0.015625)"/>
       </defs>
       <use xlink:href="#SimHei-31"/>
       <use xlink:href="#SimHei-38" x="50"/>
       <use xlink:href="#SimHei-30" x="100"/>
       <use xlink:href="#SimHei-30" x="150"/>
      </g>
     </g>
    </g>
    <g id="xtick_5">
     <g id="line2d_5">
      <g>
       <use xlink:href="#mc9bb832b54" x="141.051798" y="148.818898" style="stroke: #000000; stroke-width: 0.8"/>
      </g>
     </g>
     <g id="text_5">
      <!-- 2400 -->
      <g transform="translate(134.051798 157.131398)scale(0.07 -0.07)">
       <defs>
        <path id="SimHei-34" d="M 2000 1100 
L 75 1100 
L 75 1525 
L 2100 4450 
L 2475 4450 
L 2475 1525 
L 3075 1525 
L 3075 1100 
L 2475 1100 
L 2475 150 
L 2000 150 
L 2000 1100 
z
M 2000 1525 
L 2000 3500 
L 600 1525 
L 2000 1525 
z
" transform="scale(0.015625)"/>
       </defs>
       <use xlink:href="#SimHei-32"/>
       <use xlink:href="#SimHei-34" x="50"/>
       <use xlink:href="#SimHei-30" x="100"/>
       <use xlink:href="#SimHei-30" x="150"/>
      </g>
     </g>
    </g>
    <g id="xtick_6">
     <g id="line2d_6">
      <g>
       <use xlink:href="#mc9bb832b54" x="164.960059" y="148.818898" style="stroke: #000000; stroke-width: 0.8"/>
      </g>
     </g>
     <g id="text_6">
      <!-- 3000 -->
      <g transform="translate(157.960059 157.131398)scale(0.07 -0.07)">
       <defs>
        <path id="SimHei-33" d="M 250 1225 
L 700 1300 
Q 800 975 1025 762 
Q 1250 550 1587 562 
Q 1925 575 2125 837 
Q 2325 1100 2300 1437 
Q 2275 1775 2037 1962 
Q 1800 2150 1275 2225 
L 1275 2550 
Q 1800 2600 2037 2825 
Q 2275 3050 2250 3412 
Q 2225 3775 1925 3937 
Q 1625 4100 1287 3975 
Q 950 3850 750 3275 
L 300 3350 
Q 450 3800 712 4100 
Q 975 4400 1425 4450 
Q 1875 4500 2212 4337 
Q 2550 4175 2687 3837 
Q 2825 3500 2725 3100 
Q 2625 2700 2150 2400 
Q 2500 2250 2687 1950 
Q 2875 1650 2812 1162 
Q 2750 675 2375 375 
Q 2000 75 1525 87 
Q 1050 100 700 387 
Q 350 675 250 1225 
z
" transform="scale(0.015625)"/>
       </defs>
       <use xlink:href="#SimHei-33"/>
       <use xlink:href="#SimHei-30" x="50"/>
       <use xlink:href="#SimHei-30" x="100"/>
       <use xlink:href="#SimHei-30" x="150"/>
      </g>
     </g>
    </g>
    <g id="xtick_7">
     <g id="line2d_7">
      <g>
       <use xlink:href="#mc9bb832b54" x="188.868319" y="148.818898" style="stroke: #000000; stroke-width: 0.8"/>
      </g>
     </g>
     <g id="text_7">
      <!-- 3600 -->
      <g transform="translate(181.868319 157.131398)scale(0.07 -0.07)">
       <use xlink:href="#SimHei-33"/>
       <use xlink:href="#SimHei-36" x="50"/>
       <use xlink:href="#SimHei-30" x="100"/>
       <use xlink:href="#SimHei-30" x="150"/>
      </g>
     </g>
    </g>
    <g id="xtick_8">
     <g id="line2d_8">
      <g>
       <use xlink:href="#mc9bb832b54" x="212.77658" y="148.818898" style="stroke: #000000; stroke-width: 0.8"/>
      </g>
     </g>
     <g id="text_8">
      <!-- 4200 -->
      <g transform="translate(205.77658 157.131398)scale(0.07 -0.07)">
       <use xlink:href="#SimHei-34"/>
       <use xlink:href="#SimHei-32" x="50"/>
       <use xlink:href="#SimHei-30" x="100"/>
       <use xlink:href="#SimHei-30" x="150"/>
      </g>
     </g>
    </g>
    <g id="xtick_9">
     <g id="line2d_9">
      <g>
       <use xlink:href="#mc9bb832b54" x="236.684841" y="148.818898" style="stroke: #000000; stroke-width: 0.8"/>
      </g>
     </g>
     <g id="text_9">
      <!-- 4800 -->
      <g transform="translate(229.684841 157.131398)scale(0.07 -0.07)">
       <use xlink:href="#SimHei-34"/>
       <use xlink:href="#SimHei-38" x="50"/>
       <use xlink:href="#SimHei-30" x="100"/>
       <use xlink:href="#SimHei-30" x="150"/>
      </g>
     </g>
    </g>
    <g id="text_10">
     <!-- 时间 -->
     <g transform="translate(138.275591 167.611866)scale(0.07 -0.07)">
      <defs>
       <path id="SimHei-65f6" d="M 2525 4575 
Q 2500 3675 2500 2400 
Q 2500 1125 2525 400 
L 2000 400 
L 2000 875 
L 1000 875 
L 1000 50 
L 475 50 
Q 500 1200 500 2350 
Q 500 3525 475 4575 
L 2525 4575 
z
M 4875 3825 
Q 4875 4575 4850 5225 
L 5400 5225 
Q 5375 4575 5375 3825 
Q 5750 3825 6175 3850 
L 6175 3375 
Q 5750 3400 5375 3400 
L 5375 50 
Q 5375 -325 5075 -425 
Q 4775 -525 4300 -575 
Q 4300 -275 4025 0 
Q 4500 -50 4687 -25 
Q 4875 0 4875 300 
L 4875 3400 
Q 3625 3400 2775 3375 
L 2775 3850 
Q 3575 3825 4875 3825 
z
M 2000 1300 
L 2000 2550 
L 1000 2550 
L 1000 1300 
L 2000 1300 
z
M 2000 2975 
L 2000 4150 
L 1000 4150 
L 1000 2975 
L 2000 2975 
z
M 3550 2725 
Q 3875 2200 4175 1600 
Q 3925 1525 3650 1375 
Q 3450 1975 3075 2500 
Q 3300 2600 3550 2725 
z
" transform="scale(0.015625)"/>
       <path id="SimHei-95f4" d="M 4450 3550 
Q 4425 3075 4425 2725 
L 4425 1400 
Q 4425 1075 4450 625 
L 1925 625 
Q 1950 1075 1950 1425 
L 1950 2725 
Q 1950 3075 1925 3550 
L 4450 3550 
z
M 5800 4875 
Q 5775 4400 5775 3925 
L 5775 250 
Q 5800 -325 5462 -450 
Q 5125 -575 4725 -625 
Q 4700 -325 4525 -25 
Q 5000 -50 5137 25 
Q 5275 100 5275 350 
L 5275 4450 
L 3775 4450 
Q 3175 4450 2650 4425 
L 2650 4900 
Q 3175 4875 3775 4875 
L 5800 4875 
z
M 550 -525 
Q 600 -25 600 525 
L 600 3150 
Q 600 3675 550 4025 
L 1125 4025 
Q 1100 3650 1100 3300 
L 1100 500 
Q 1100 0 1125 -525 
L 550 -525 
z
M 3950 1025 
L 3950 1950 
L 2425 1950 
L 2425 1025 
L 3950 1025 
z
M 3950 2350 
L 3950 3150 
L 2425 3150 
L 2425 2350 
L 3950 2350 
z
M 1525 5300 
Q 1750 5000 2225 4350 
Q 1950 4225 1700 4075 
Q 1450 4575 1075 5025 
Q 1350 5225 1525 5300 
z
" transform="scale(0.015625)"/>
      </defs>
      <use xlink:href="#SimHei-65f6"/>
      <use xlink:href="#SimHei-95f4" x="100"/>
     </g>
    </g>
   </g>
   <g id="matplotlib.axis_2">
    <g id="ytick_1">
     <g id="line2d_10">
      <defs>
       <path id="m37e54f19a7" d="M 0 0 
L 3.5 0 
" style="stroke: #000000; stroke-width: 0.8"/>
      </defs>
      <g>
       <use xlink:href="#m37e54f19a7" x="35.433071" y="138.896184" style="stroke: #000000; stroke-width: 0.8"/>
      </g>
     </g>
     <g id="text_11">
      <!-- 4 -->
      <g transform="translate(28.433071 141.302434)scale(0.07 -0.07)">
       <use xlink:href="#SimHei-34"/>
      </g>
     </g>
    </g>
    <g id="ytick_2">
     <g id="line2d_11">
      <g>
       <use xlink:href="#m37e54f19a7" x="35.433071" y="119.151395" style="stroke: #000000; stroke-width: 0.8"/>
      </g>
     </g>
     <g id="text_12">
      <!-- 6 -->
      <g transform="translate(28.433071 121.557645)scale(0.07 -0.07)">
       <use xlink:href="#SimHei-36"/>
      </g>
     </g>
    </g>
    <g id="ytick_3">
     <g id="line2d_12">
      <g>
       <use xlink:href="#m37e54f19a7" x="35.433071" y="99.406607" style="stroke: #000000; stroke-width: 0.8"/>
      </g>
     </g>
     <g id="text_13">
      <!-- 8 -->
      <g transform="translate(28.433071 101.812857)scale(0.07 -0.07)">
       <use xlink:href="#SimHei-38"/>
      </g>
     </g>
    </g>
    <g id="ytick_4">
     <g id="line2d_13">
      <g>
       <use xlink:href="#m37e54f19a7" x="35.433071" y="79.661818" style="stroke: #000000; stroke-width: 0.8"/>
      </g>
     </g>
     <g id="text_14">
      <!-- 10 -->
      <g transform="translate(24.933071 82.068068)scale(0.07 -0.07)">
       <use xlink:href="#SimHei-31"/>
       <use xlink:href="#SimHei-30" x="50"/>
      </g>
     </g>
    </g>
    <g id="ytick_5">
     <g id="line2d_14">
      <g>
       <use xlink:href="#m37e54f19a7" x="35.433071" y="59.91703" style="stroke: #000000; stroke-width: 0.8"/>
      </g>
     </g>
     <g id="text_15">
      <!-- 12 -->
      <g transform="translate(24.933071 62.32328)scale(0.07 -0.07)">
       <use xlink:href="#SimHei-31"/>
       <use xlink:href="#SimHei-32" x="50"/>
      </g>
     </g>
    </g>
    <g id="ytick_6">
     <g id="line2d_15">
      <g>
       <use xlink:href="#m37e54f19a7" x="35.433071" y="40.172241" style="stroke: #000000; stroke-width: 0.8"/>
      </g>
     </g>
     <g id="text_16">
      <!-- 14 -->
      <g transform="translate(24.933071 42.578491)scale(0.07 -0.07)">
       <use xlink:href="#SimHei-31"/>
       <use xlink:href="#SimHei-34" x="50"/>
      </g>
     </g>
    </g>
    <g id="ytick_7">
     <g id="line2d_16">
      <g>
       <use xlink:href="#m37e54f19a7" x="35.433071" y="20.427453" style="stroke: #000000; stroke-width: 0.8"/>
      </g>
     </g>
     <g id="text_17">
      <!-- 16 -->
      <g transform="translate(24.933071 22.833703)scale(0.07 -0.07)">
       <use xlink:href="#SimHei-31"/>
       <use xlink:href="#SimHei-36" x="50"/>
      </g>
     </g>
    </g>
    <g id="text_18">
     <!-- 压力值 -->
     <g transform="translate(20.058071 95.114173)rotate(-90)scale(0.07 -0.07)">
      <defs>
       <path id="SimHei-538b" d="M 3300 2725 
L 3300 3475 
Q 3300 3875 3275 4150 
L 3850 4150 
Q 3800 3950 3800 3450 
L 3800 2725 
L 4700 2725 
Q 5225 2725 5475 2750 
L 5475 2200 
Q 5225 2225 4700 2225 
L 3800 2225 
L 3800 175 
L 4900 175 
Q 5525 175 5850 200 
L 5850 -325 
Q 5525 -300 4925 -300 
L 2375 -300 
Q 1725 -300 1450 -325 
L 1450 200 
Q 1825 175 2375 175 
L 3300 175 
L 3300 2225 
L 2725 2225 
Q 2075 2225 1850 2200 
L 1850 2750 
Q 2250 2725 2725 2725 
L 3300 2725 
z
M 4900 4950 
Q 5450 4950 5750 4975 
L 5750 4475 
Q 5500 4500 4900 4500 
L 1450 4500 
L 1450 2275 
Q 1450 1425 1262 725 
Q 1075 25 725 -650 
Q 525 -450 200 -325 
Q 625 300 775 862 
Q 925 1425 950 2125 
L 950 4000 
Q 925 4525 900 4950 
L 4900 4950 
z
M 4625 1850 
Q 5025 1325 5275 925 
Q 5000 775 4775 625 
Q 4525 1150 4225 1575 
Q 4450 1700 4625 1850 
z
" transform="scale(0.015625)"/>
       <path id="SimHei-529b" d="M 3275 3275 
Q 3200 2400 3050 1875 
Q 2900 1350 2637 912 
Q 2375 475 1950 87 
Q 1525 -300 925 -675 
Q 800 -475 425 -250 
Q 1025 50 1425 375 
Q 1825 700 2112 1112 
Q 2400 1525 2537 2050 
Q 2675 2575 2725 3275 
L 2000 3275 
Q 1275 3275 675 3250 
L 675 3750 
Q 1275 3725 2000 3725 
L 2750 3725 
L 2750 4475 
Q 2750 4825 2725 5200 
Q 3000 5150 3350 5125 
Q 3300 4900 3287 4475 
Q 3275 4050 3275 3725 
L 5825 3725 
Q 5725 2375 5700 1862 
Q 5675 1350 5600 612 
Q 5525 -125 5187 -300 
Q 4850 -475 4025 -550 
Q 4000 -250 3775 100 
Q 4500 75 4750 175 
Q 5000 275 5037 550 
Q 5075 825 5112 1262 
Q 5150 1700 5225 3275 
L 3275 3275 
z
" transform="scale(0.015625)"/>
       <path id="SimHei-503c" d="M 3675 4450 
L 3675 5100 
Q 3975 5075 4350 5050 
Q 4225 4875 4200 4450 
L 5125 4450 
Q 5550 4450 5875 4475 
L 5875 4025 
Q 5525 4050 5125 4050 
L 4175 4050 
L 4125 3500 
L 5400 3500 
Q 5375 3200 5375 2700 
L 5375 150 
Q 5875 150 6100 175 
L 6100 -275 
Q 5775 -250 5200 -250 
L 2850 -250 
Q 2275 -250 1900 -275 
L 1900 175 
Q 2125 150 2600 150 
L 2600 2700 
Q 2600 3175 2575 3500 
L 3600 3500 
L 3650 4050 
L 3200 4050 
Q 2575 4050 2225 4025 
L 2225 4475 
Q 2550 4450 3200 4450 
L 3675 4450 
z
M 2225 4900 
Q 2025 4675 1650 3750 
L 1650 450 
Q 1650 -75 1675 -550 
L 1150 -550 
Q 1175 -125 1175 375 
L 1175 2950 
Q 875 2450 625 2150 
Q 425 2425 250 2575 
Q 500 2825 937 3537 
Q 1375 4250 1625 5150 
Q 1975 4975 2225 4900 
z
M 4925 2650 
L 4925 3150 
L 3075 3150 
L 3075 2650 
L 4925 2650 
z
M 4925 150 
L 4925 625 
L 3075 625 
L 3075 150 
L 4925 150 
z
M 4925 1000 
L 4925 1450 
L 3075 1450 
L 3075 1000 
L 4925 1000 
z
M 4925 1825 
L 4925 2275 
L 3075 2275 
L 3075 1825 
L 4925 1825 
z
" transform="scale(0.015625)"/>
      </defs>
      <use xlink:href="#SimHei-538b"/>
      <use xlink:href="#SimHei-529b" x="100"/>
      <use xlink:href="#SimHei-503c" x="200"/>
     </g>
    </g>
   </g>
   <g id="line2d_17">
    <path d="M 45.418754 26.36866 
L 51.196584 26.258089 
L 51.595055 26.246242 
L 51.873985 27.932447 
L 55.1016 40.586882 
L 55.260989 42.595914 
L 56.33686 46.252649 
L 56.974414 47.663414 
L 57.133802 48.96657 
L 57.731509 65.413979 
L 58.090133 72.728436 
L 58.369062 75.164943 
L 58.847228 77.01108 
L 59.325393 78.357675 
L 59.604323 78.315224 
L 60.202029 78.214525 
L 60.919277 78.323122 
L 61.756066 78.701234 
L 62.473314 79.283706 
L 63.230409 80.161361 
L 63.90781 81.23844 
L 64.943834 84.240042 
L 66.776801 91.226637 
L 67.972214 94.762929 
L 68.84885 96.996262 
L 69.008238 98.446418 
L 70.64197 101.745377 
L 70.761511 101.958522 
L 70.920899 102.478007 
L 72.116312 104.936036 
L 72.634325 106.694309 
L 73.032796 107.212808 
L 75.503316 109.134074 
L 78.691084 109.037522 
L 83.632125 109.185312 
L 85.62448 109.535683 
L 86.222186 110.045691 
L 88.055153 112.018985 
L 89.60919 113.239016 
L 89.768578 113.88931 
L 91.043686 115.509666 
L 91.482004 115.724391 
L 93.275123 115.720936 
L 93.87283 115.530695 
L 95.028396 115.287636 
L 96.024573 115.383596 
L 96.383197 115.546589 
L 96.741821 115.906438 
L 97.060598 116.240619 
L 97.459069 116.287216 
L 97.538763 116.286229 
L 97.618457 116.353065 
L 97.658304 116.296398 
L 97.85754 116.335887 
L 98.016928 116.370638 
L 101.84225 116.821806 
L 102.320415 116.960514 
L 104.671394 117.743 
L 106.703596 118.473952 
L 110.210141 119.535826 
L 114.712864 120.87087 
L 118.657727 121.873905 
L 119.29528 121.735889 
L 120.450846 121.721871 
L 122.04473 121.972531 
L 125.192651 122.936471 
L 126.148982 123.163141 
L 129.217209 123.757756 
L 129.416444 123.68628 
L 130.611857 123.555767 
L 138.900054 123.122171 
L 140.61348 122.872893 
L 142.486293 122.5165 
L 149.81816 120.466003 
L 156.153849 119.462771 
L 158.664217 119.291978 
L 160.178406 119.375301 
L 161.931679 119.605723 
L 163.166939 120.073674 
L 164.202964 120.667104 
L 165.677306 121.734211 
L 167.071955 122.992053 
L 168.944769 124.719228 
L 169.104157 125.078386 
L 171.375442 127.208651 
L 172.411467 127.956288 
L 172.969326 128.171111 
L 174.005351 128.191843 
L 176.35633 128.40173 
L 202.296793 131.18229 
L 208.353552 131.47708 
L 210.784225 131.672553 
L 215.924501 132.139813 
L 223.136827 132.95399 
L 223.535298 133.06308 
L 224.571322 133.080258 
L 225.368264 133.020233 
L 225.647194 132.92457 
L 227.559855 131.844727 
L 228.157561 131.557441 
L 228.277103 131.596535 
L 228.31695 131.520222 
L 228.874809 131.397409 
L 229.711598 131.186535 
L 235.170651 129.503094 
L 245.132427 126.771403 
L 245.132427 126.771403 
" clip-path="url(#p9deea14fef)" style="fill: none; stroke-dasharray: 14.8,6.4; stroke-dashoffset: 0; stroke: #ff0000; stroke-width: 4"/>
   </g>
   <g id="line2d_18">
    <path d="M 45.418754 26.36866 
L 51.196584 26.258089 
L 51.595055 26.246242 
L 51.873985 27.932447 
L 55.1016 40.586882 
L 55.260989 42.595914 
L 56.33686 46.252649 
L 56.974414 47.663414 
L 57.133802 48.96657 
L 57.731509 65.413979 
L 58.090133 72.728436 
L 58.369062 75.164943 
L 58.847228 77.01108 
L 59.325393 78.357675 
L 59.604323 78.315224 
L 60.202029 78.214525 
L 60.919277 78.323122 
L 61.756066 78.701234 
L 62.473314 79.283706 
L 63.230409 80.161361 
L 63.90781 81.23844 
L 64.943834 84.240042 
L 66.776801 91.226637 
L 67.972214 94.762929 
L 68.84885 96.996262 
L 69.008238 98.446418 
L 70.64197 101.745377 
L 70.761511 101.958522 
L 70.920899 102.478007 
L 72.116312 104.936036 
L 72.634325 106.694309 
L 73.032796 107.212808 
L 75.503316 109.134074 
L 78.691084 109.037522 
L 83.632125 109.185312 
L 85.62448 109.535683 
L 86.222186 110.045691 
L 88.055153 112.018985 
L 89.60919 113.239016 
L 89.768578 113.88931 
L 91.043686 115.509666 
L 91.482004 115.724391 
L 93.275123 115.720936 
L 93.87283 115.530695 
L 95.028396 115.287636 
L 96.024573 115.383596 
L 96.383197 115.546589 
L 96.741821 115.906438 
L 97.060598 116.240619 
L 97.459069 116.287216 
L 97.538763 116.286229 
L 97.618457 116.353065 
L 97.658304 116.296398 
L 97.85754 116.335887 
L 98.016928 116.370638 
L 101.84225 116.821806 
L 102.320415 116.960514 
L 104.671394 117.743 
L 106.703596 118.473952 
L 110.210141 119.535826 
L 114.712864 120.87087 
L 118.657727 121.873905 
L 119.29528 121.735889 
L 120.450846 121.721871 
L 122.04473 121.972531 
L 125.192651 122.936471 
L 126.148982 123.163141 
L 129.217209 123.757756 
L 129.416444 123.68628 
L 130.611857 123.555767 
L 138.900054 123.122171 
L 140.61348 122.872893 
L 142.486293 122.5165 
L 149.81816 120.466003 
L 156.153849 119.462771 
L 158.664217 119.291978 
L 160.178406 119.375301 
L 161.931679 119.605723 
L 163.166939 120.073674 
L 164.202964 120.667104 
L 165.677306 121.734211 
L 167.071955 122.992053 
L 168.944769 124.719228 
L 169.104157 125.078386 
L 171.375442 127.208651 
L 172.411467 127.956288 
L 172.969326 128.171111 
L 174.005351 128.191843 
L 176.35633 128.40173 
L 202.296793 131.18229 
L 208.353552 131.47708 
L 210.784225 131.672553 
L 215.924501 132.139813 
L 223.136827 132.95399 
L 223.535298 133.06308 
L 224.571322 133.080258 
L 225.368264 133.020233 
L 225.647194 132.92457 
L 227.559855 131.844727 
L 228.157561 131.557441 
L 228.277103 131.596535 
L 228.31695 131.520222 
L 228.874809 131.397409 
L 229.711598 131.186535 
L 235.170651 129.503094 
L 245.132427 126.771403 
L 245.132427 126.771403 
" clip-path="url(#p9deea14fef)" style="fill: none; stroke: #bfbf00; stroke-width: 1.5; stroke-linecap: square"/>
   </g>
   <g id="line2d_19">
    <path d="M 45.418754 112.539162 
L 52.35215 112.432046 
L 54.304658 112.262965 
L 56.297013 112.133999 
L 56.974414 111.46883 
L 57.133802 110.96876 
L 57.333038 108.73829 
L 57.57212 107.500621 
L 57.731509 107.462151 
L 57.930744 107.703893 
L 58.169827 108.126761 
L 59.08631 109.184029 
L 59.126157 109.131343 
L 59.285546 108.876931 
L 59.684017 108.606066 
L 60.480959 108.021521 
L 61.198207 107.784353 
L 62.034996 107.755888 
L 62.911632 107.94376 
L 64.067198 108.430304 
L 65.581388 109.342612 
L 67.215119 110.614637 
L 68.84885 112.082827 
L 69.008238 112.669905 
L 70.761511 114.423308 
L 70.920899 114.727872 
L 72.036618 115.826208 
L 73.11249 116.980686 
L 73.311725 117.283275 
L 74.985304 119.083342 
L 77.415977 121.099219 
L 78.770778 121.853766 
L 79.408332 121.861137 
L 80.165427 121.919088 
L 81.161604 122.248365 
L 82.556253 122.937557 
L 84.309525 124.084071 
L 87.218364 126.273702 
L 89.60919 128.089664 
L 89.768578 128.540141 
L 92.63757 130.8385 
L 93.992371 131.806653 
L 95.586255 132.630603 
L 97.817693 133.481241 
L 101.882097 134.716936 
L 106.584055 135.949307 
L 115.469959 138.074241 
L 120.092222 138.975986 
L 123.678462 138.143578 
L 126.188829 137.440532 
L 129.217209 136.370365 
L 129.376597 136.197071 
L 139.696996 133.090031 
L 145.873297 131.551978 
L 152.049598 130.226708 
L 155.556143 129.954098 
L 158.34544 129.911285 
L 160.058865 130.082768 
L 161.413667 130.434423 
L 162.60908 130.957133 
L 163.764646 131.699801 
L 164.960059 132.733868 
L 166.474248 134.35995 
L 166.952414 134.923499 
L 168.506451 136.528224 
L 169.821405 137.522144 
L 170.976971 137.932737 
L 172.610702 138.255367 
L 177.193119 138.802034 
L 198.511318 140.662783 
L 210.624837 141.714588 
L 223.933769 142.800387 
L 224.133004 141.762337 
L 224.292393 140.329195 
L 224.730711 138.671422 
L 225.169029 137.772442 
L 225.687041 137.202805 
L 226.563677 136.6255 
L 228.277103 135.604662 
L 228.436491 135.426136 
L 230.030375 134.785681 
L 232.620437 133.780507 
L 232.779825 133.612281 
L 245.132427 130.465225 
L 245.132427 130.465225 
" clip-path="url(#p9deea14fef)" style="fill: none; stroke: #0000ff; stroke-width: 1.5; stroke-linecap: square"/>
   </g>
   <g id="patch_3">
    <path d="M 35.433071 148.818898 
L 35.433071 20.409449 
" style="fill: none; stroke: #000000; stroke-linejoin: miter; stroke-linecap: square"/>
   </g>
   <g id="patch_4">
    <path d="M 255.11811 148.818898 
L 255.11811 20.409449 
" style="fill: none; stroke: #000000; stroke-linejoin: miter; stroke-linecap: square"/>
   </g>
   <g id="patch_5">
    <path d="M 35.433071 148.818898 
L 255.11811 148.818898 
" style="fill: none; stroke: #000000; stroke-linejoin: miter; stroke-linecap: square"/>
   </g>
   <g id="patch_6">
    <path d="M 35.433071 20.409449 
L 255.11811 20.409449 
" style="fill: none; stroke: #000000; stroke-linejoin: miter; stroke-linecap: square"/>
   </g>
   <g id="legend_1">
    <g id="patch_7">
     <path d="M 195.71811 50.850074 
L 250.91811 50.850074 
Q 252.11811 50.850074 252.11811 49.650074 
L 252.11811 24.609449 
Q 252.11811 23.409449 250.91811 23.409449 
L 195.71811 23.409449 
Q 194.51811 23.409449 194.51811 24.609449 
L 194.51811 49.650074 
Q 194.51811 50.850074 195.71811 50.850074 
z
" style="fill: #ffffff; opacity: 0.8; stroke: #cccccc; stroke-linejoin: miter"/>
    </g>
    <g id="line2d_20">
     <path d="M 196.91811 28.490699 
L 202.91811 28.490699 
L 208.91811 28.490699 
" style="fill: none; stroke-dasharray: 14.8,6.4; stroke-dashoffset: 0; stroke: #ff0000; stroke-width: 4"/>
    </g>
    <g id="text_19">
     <!-- 一回路压力 -->
     <g transform="translate(213.71811 30.590699)scale(0.06 -0.06)">
      <defs>
       <path id="SimHei-4e00" d="M 4875 2675 
Q 5525 2675 6050 2700 
L 6050 2050 
Q 5525 2075 4900 2075 
L 1600 2075 
Q 950 2075 350 2050 
L 350 2700 
Q 950 2675 1600 2675 
L 4875 2675 
z
" transform="scale(0.015625)"/>
       <path id="SimHei-56de" d="M 5650 4850 
Q 5625 4125 5625 3450 
L 5625 950 
Q 5625 300 5650 -375 
L 5150 -375 
L 5150 100 
L 1175 100 
L 1175 -375 
L 700 -375 
Q 725 250 725 950 
L 725 3450 
Q 725 4100 700 4850 
L 5650 4850 
z
M 5150 500 
L 5150 4425 
L 1200 4425 
L 1200 500 
L 5150 500 
z
M 4325 3500 
Q 4300 3125 4300 2750 
L 4300 2175 
Q 4300 1850 4325 1400 
L 2025 1400 
Q 2050 1850 2050 2175 
L 2050 2800 
Q 2050 3150 2025 3500 
L 4325 3500 
z
M 3825 1825 
L 3825 3100 
L 2500 3100 
L 2500 1825 
L 3825 1825 
z
" transform="scale(0.015625)"/>
       <path id="SimHei-8def" d="M 2900 425 
Q 1225 -75 475 -350 
Q 425 -150 275 125 
Q 525 150 700 225 
L 700 1800 
Q 700 2000 675 2325 
L 1150 2325 
Q 1125 2100 1125 1675 
L 1125 325 
Q 1300 375 1550 450 
L 1550 2975 
L 725 2975 
Q 750 3225 750 3850 
Q 750 4500 725 4750 
L 2650 4750 
Q 2625 4475 2625 3850 
Q 2625 3250 2650 2975 
L 1975 2975 
L 1975 2075 
Q 2275 2075 2600 2100 
L 2600 1650 
Q 2275 1675 1975 1675 
L 1975 550 
Q 2200 600 2900 875 
Q 2875 675 2900 425 
z
M 4225 5025 
Q 4075 4850 3925 4550 
L 5750 4550 
Q 5575 4125 5287 3650 
Q 5000 3175 4750 2850 
Q 5325 2400 6200 2200 
Q 6000 1950 5900 1750 
Q 5600 1875 5200 2087 
Q 4800 2300 4475 2550 
Q 4150 2300 3762 2100 
Q 3375 1900 2925 1700 
Q 2825 1925 2650 2125 
Q 2975 2200 3400 2375 
Q 3825 2550 4150 2825 
Q 3900 3075 3425 3650 
Q 3250 3350 3100 3150 
Q 2950 3300 2725 3425 
Q 3000 3675 3275 4187 
Q 3550 4700 3700 5225 
Q 3975 5050 4225 5025 
z
M 5525 1800 
Q 5500 1475 5500 650 
Q 5500 -150 5525 -525 
L 5050 -525 
L 5050 -50 
L 3625 -50 
L 3625 -550 
L 3175 -550 
Q 3200 -125 3200 650 
Q 3200 1450 3175 1800 
L 5525 1800 
z
M 5050 325 
L 5050 1400 
L 3625 1400 
L 3625 325 
L 5050 325 
z
M 2200 3350 
L 2200 4375 
L 1175 4375 
L 1175 3350 
L 2200 3350 
z
M 3650 4000 
Q 3950 3550 4425 3125 
Q 4575 3275 4775 3612 
Q 4975 3950 5075 4175 
L 3750 4175 
L 3650 4000 
z
" transform="scale(0.015625)"/>
      </defs>
      <use xlink:href="#SimHei-4e00"/>
      <use xlink:href="#SimHei-56de" x="100"/>
      <use xlink:href="#SimHei-8def" x="200"/>
      <use xlink:href="#SimHei-538b" x="300"/>
      <use xlink:href="#SimHei-529b" x="400"/>
     </g>
    </g>
    <g id="line2d_21">
     <path d="M 196.91811 37.092261 
L 202.91811 37.092261 
L 208.91811 37.092261 
" style="fill: none; stroke: #bfbf00; stroke-width: 1.5; stroke-linecap: square"/>
    </g>
    <g id="text_20">
     <!-- 稳压器压力 -->
     <g transform="translate(213.71811 39.192261)scale(0.06 -0.06)">
      <defs>
       <path id="SimHei-7a33" d="M 4050 5125 
Q 3875 4975 3675 4625 
L 5325 4625 
Q 5200 4450 5062 4212 
Q 4925 3975 4800 3650 
L 5625 3650 
Q 5600 3350 5600 2600 
Q 5600 1875 5625 1425 
L 3425 1425 
Q 3075 1425 2750 1400 
L 2750 1850 
Q 3075 1825 3450 1825 
L 5100 1825 
L 5100 2375 
L 3550 2375 
Q 3175 2375 2875 2350 
L 2875 2775 
Q 3175 2750 3525 2750 
L 5100 2750 
L 5100 3275 
L 3775 3275 
Q 3350 3275 3050 3250 
L 3050 3650 
Q 2875 3425 2725 3200 
Q 2525 3400 2350 3475 
Q 2675 3875 2987 4412 
Q 3300 4950 3400 5300 
Q 3725 5200 4050 5125 
z
M 2500 4575 
Q 2275 4575 2012 4512 
Q 1750 4450 1625 4450 
L 1625 3350 
Q 1975 3350 2375 3375 
L 2375 2950 
Q 1925 2975 1625 2975 
L 1625 2225 
Q 1775 2325 1950 2500 
Q 2225 2100 2525 1600 
Q 2300 1500 2150 1350 
Q 1950 1725 1625 2175 
L 1625 400 
Q 1625 25 1650 -625 
L 1150 -625 
Q 1200 25 1200 400 
L 1200 2075 
Q 875 1250 475 650 
Q 375 925 175 1125 
Q 325 1250 650 1887 
Q 975 2525 1050 2975 
Q 750 2975 275 2950 
L 275 3375 
Q 750 3350 1200 3350 
L 1200 4325 
Q 950 4275 550 4200 
Q 475 4425 275 4625 
Q 750 4675 1237 4775 
Q 1725 4875 2125 5075 
Q 2275 4775 2500 4575 
z
M 3675 1025 
Q 3650 700 3650 300 
Q 3650 -75 3775 -100 
Q 3900 -125 4250 -125 
Q 4600 -125 4687 -100 
Q 4775 -75 4825 425 
Q 5025 275 5350 200 
Q 5150 -450 4950 -500 
Q 4750 -550 4175 -550 
Q 3625 -550 3425 -487 
Q 3225 -425 3225 -100 
L 3225 525 
Q 3225 775 3200 1025 
L 3675 1025 
z
M 3050 3675 
Q 3325 3650 3775 3650 
L 4275 3650 
Q 4450 4000 4575 4275 
L 3425 4275 
Q 3275 4050 3050 3675 
z
M 2925 900 
Q 2800 725 2700 287 
Q 2600 -150 2550 -300 
Q 2325 -200 2075 -175 
Q 2225 200 2275 412 
Q 2325 625 2425 1000 
L 2925 900 
z
M 5575 1100 
Q 5950 475 6175 50 
Q 5950 -25 5750 -175 
Q 5625 175 5200 925 
Q 5425 975 5575 1100 
z
M 4225 1300 
Q 4525 825 4625 525 
Q 4550 500 4250 350 
Q 4150 700 3850 1125 
Q 4050 1200 4225 1300 
z
" transform="scale(0.015625)"/>
       <path id="SimHei-5668" d="M 275 1925 
Q 775 1925 1212 2000 
Q 1650 2075 1987 2200 
Q 2325 2325 2625 2625 
L 1525 2625 
Q 1250 2625 550 2600 
L 550 3025 
Q 1250 3000 1525 3000 
L 2750 3000 
Q 2825 3225 2800 3550 
Q 3125 3500 3475 3450 
Q 3325 3300 3300 3000 
L 4425 3000 
Q 4250 3175 4075 3300 
L 4425 3550 
Q 4625 3400 4800 3200 
Q 4650 3125 4500 3000 
L 4875 3000 
Q 5425 3000 5875 3025 
L 5875 2600 
Q 5450 2625 4875 2625 
L 3625 2625 
Q 4100 2225 4837 2112 
Q 5575 2000 6100 2050 
Q 5900 1800 5850 1500 
Q 5225 1550 4787 1637 
Q 4350 1725 3987 1900 
Q 3625 2075 3150 2575 
Q 2700 2000 1975 1762 
Q 1250 1525 525 1425 
Q 450 1725 275 1925 
z
M 5025 -575 
L 5025 -100 
L 3825 -100 
L 3825 -550 
L 3400 -550 
Q 3425 0 3425 475 
Q 3425 975 3400 1425 
L 5475 1425 
Q 5450 1125 5450 400 
Q 5450 -300 5475 -575 
L 5025 -575 
z
M 2400 -550 
L 2400 -100 
L 1325 -100 
L 1325 -575 
L 875 -575 
Q 900 -150 900 475 
Q 900 1100 875 1425 
L 2825 1425 
Q 2800 1025 2800 425 
Q 2800 -150 2825 -550 
L 2400 -550 
z
M 5475 5025 
Q 5450 4700 5450 4350 
Q 5450 4000 5475 3625 
L 3375 3625 
Q 3400 4000 3400 4350 
Q 3400 4725 3375 5025 
L 5475 5025 
z
M 2825 5025 
Q 2800 4700 2800 4325 
Q 2800 3975 2825 3625 
L 875 3625 
Q 900 3975 900 4325 
Q 900 4700 875 5025 
L 2825 5025 
z
M 5025 250 
L 5025 1050 
L 3825 1050 
L 3825 250 
L 5025 250 
z
M 2400 250 
L 2400 1050 
L 1325 1050 
L 1325 250 
L 2400 250 
z
M 5025 3975 
L 5025 4675 
L 3825 4675 
L 3825 3975 
L 5025 3975 
z
M 2400 3975 
L 2400 4675 
L 1325 4675 
L 1325 3975 
L 2400 3975 
z
" transform="scale(0.015625)"/>
      </defs>
      <use xlink:href="#SimHei-7a33"/>
      <use xlink:href="#SimHei-538b" x="100"/>
      <use xlink:href="#SimHei-5668" x="200"/>
      <use xlink:href="#SimHei-538b" x="300"/>
      <use xlink:href="#SimHei-529b" x="400"/>
     </g>
    </g>
    <g id="line2d_22">
     <path d="M 196.91811 45.600074 
L 202.91811 45.600074 
L 208.91811 45.600074 
" style="fill: none; stroke: #0000ff; stroke-width: 1.5; stroke-linecap: square"/>
    </g>
    <g id="text_21">
     <!-- SG二次侧压力 -->
     <g transform="translate(213.71811 47.700074)scale(0.06 -0.06)">
      <defs>
       <path id="SimHei-53" d="M 2900 1325 
Q 2900 750 2537 412 
Q 2175 75 1550 75 
Q 925 75 575 425 
Q 225 775 225 1300 
L 225 1475 
L 800 1475 
L 800 1325 
Q 800 950 1025 750 
Q 1250 550 1550 550 
Q 1950 550 2137 762 
Q 2325 975 2325 1275 
Q 2325 1525 2100 1737 
Q 1875 1950 1450 2125 
Q 850 2350 587 2625 
Q 325 2900 325 3275 
Q 325 3800 687 4125 
Q 1050 4450 1550 4450 
Q 2200 4450 2487 4062 
Q 2775 3675 2775 3225 
L 2200 3225 
Q 2225 3500 2050 3725 
Q 1875 3950 1550 3950 
Q 1250 3950 1075 3787 
Q 900 3625 900 3350 
Q 900 3125 1037 2962 
Q 1175 2800 1750 2575 
Q 2300 2350 2600 2037 
Q 2900 1725 2900 1325 
z
" transform="scale(0.015625)"/>
       <path id="SimHei-47" d="M 2850 75 
L 2425 75 
L 2350 425 
Q 2250 275 2037 175 
Q 1825 75 1575 75 
Q 1050 75 637 562 
Q 225 1050 225 2125 
Q 225 3300 600 3875 
Q 975 4450 1625 4450 
Q 2200 4450 2525 4025 
Q 2850 3600 2850 2925 
L 2300 2925 
Q 2300 3450 2125 3712 
Q 1950 3975 1625 3975 
Q 1225 3975 1025 3562 
Q 825 3150 825 2175 
Q 825 1250 1075 900 
Q 1325 550 1650 550 
Q 1975 550 2162 787 
Q 2350 1025 2350 1525 
L 2350 1800 
L 1575 1800 
L 1575 2275 
L 2850 2275 
L 2850 75 
z
" transform="scale(0.015625)"/>
       <path id="SimHei-4e8c" d="M 5050 625 
Q 5650 625 6025 675 
L 6025 50 
Q 5625 75 5050 75 
L 1425 75 
Q 775 75 350 50 
L 350 650 
Q 800 625 1400 625 
L 5050 625 
z
M 4350 4150 
Q 4900 4175 5350 4200 
L 5350 3575 
Q 4900 3600 4375 3600 
L 2050 3600 
Q 1450 3600 1000 3575 
L 1000 4175 
Q 1450 4150 2025 4150 
L 4350 4150 
z
" transform="scale(0.015625)"/>
       <path id="SimHei-6b21" d="M 4150 3025 
Q 4000 2550 4050 2187 
Q 4100 1825 4275 1450 
Q 4450 1075 4800 750 
Q 5150 425 5475 212 
Q 5800 0 6150 -150 
Q 5875 -350 5750 -625 
Q 5250 -325 4887 -25 
Q 4525 275 4275 612 
Q 4025 950 3825 1425 
Q 3525 625 2950 125 
Q 2375 -375 1850 -650 
Q 1675 -400 1475 -225 
Q 2025 0 2487 362 
Q 2950 725 3162 1100 
Q 3375 1475 3450 1825 
Q 3525 2175 3537 2400 
Q 3550 2625 3525 3125 
Q 3825 3050 4150 3025 
z
M 3700 4975 
Q 3625 4900 3475 4575 
Q 3325 4250 3250 4075 
L 5775 4075 
Q 5650 3725 5550 3362 
Q 5450 3000 5275 2500 
Q 5000 2575 4775 2600 
Q 5025 3350 5100 3650 
L 3100 3650 
Q 2975 3400 2812 3100 
Q 2650 2800 2425 2450 
Q 2275 2600 1975 2700 
Q 2300 3050 2625 3762 
Q 2950 4475 3125 5200 
Q 3450 5025 3700 4975 
z
M 2025 2000 
Q 1825 1675 1475 1087 
Q 1125 500 725 -200 
Q 500 -25 250 175 
Q 725 725 1037 1262 
Q 1350 1800 1575 2325 
Q 1750 2175 2025 2000 
z
M 900 4750 
Q 1725 3725 1950 3375 
Q 1750 3250 1500 3050 
Q 1250 3525 500 4425 
Q 700 4575 900 4750 
z
" transform="scale(0.015625)"/>
       <path id="SimHei-4fa7" d="M 4025 4725 
Q 4000 4475 4000 4000 
L 4000 2225 
Q 4000 1775 4025 1350 
L 3550 1350 
L 3550 4325 
L 2350 4325 
L 2350 1325 
L 1900 1325 
Q 1925 1775 1925 2225 
L 1925 4000 
Q 1925 4200 1900 4725 
L 4025 4725 
z
M 1850 4950 
Q 1700 4800 1375 3825 
L 1375 650 
Q 1375 -75 1400 -600 
L 925 -600 
Q 950 -75 950 650 
L 950 3050 
Q 850 2825 550 2300 
Q 375 2550 200 2700 
Q 575 3200 900 4000 
Q 1225 4800 1275 5200 
Q 1575 5025 1850 4950 
z
M 5900 5075 
Q 5875 4800 5875 4375 
L 5875 0 
Q 5875 -325 5650 -425 
Q 5425 -525 4975 -600 
Q 4925 -325 4775 -50 
Q 5125 -50 5262 -25 
Q 5400 0 5400 250 
L 5400 4375 
Q 5400 4775 5375 5075 
L 5900 5075 
z
M 3275 3725 
Q 3225 3400 3200 2325 
Q 3175 1250 2837 550 
Q 2500 -150 2075 -600 
Q 1850 -400 1600 -325 
Q 2200 250 2475 962 
Q 2750 1675 2762 2475 
Q 2775 3275 2725 3800 
Q 3000 3750 3275 3725 
z
M 4950 4275 
Q 4925 4000 4925 3575 
L 4925 1825 
Q 4925 1300 4950 850 
L 4450 850 
Q 4475 1150 4475 1825 
L 4475 3575 
Q 4475 4000 4450 4275 
L 4950 4275 
z
M 3400 1050 
Q 3800 650 4300 -125 
Q 4100 -225 3875 -450 
Q 3475 275 3025 750 
Q 3225 875 3400 1050 
z
" transform="scale(0.015625)"/>
      </defs>
      <use xlink:href="#SimHei-53"/>
      <use xlink:href="#SimHei-47" x="50"/>
      <use xlink:href="#SimHei-4e8c" x="100"/>
      <use xlink:href="#SimHei-6b21" x="200"/>
      <use xlink:href="#SimHei-4fa7" x="300"/>
      <use xlink:href="#SimHei-538b" x="400"/>
      <use xlink:href="#SimHei-529b" x="500"/>
     </g>
    </g>
   </g>
  </g>
 </g>
 <defs>
  <clipPath id="p9deea14fef">
   <rect x="35.433071" y="20.409449" width="219.685039" height="128.409449"/>
  </clipPath>
 </defs>
</svg>
