<?xml version="1.0" encoding="utf-8" standalone="no"?>
<!DOCTYPE svg PUBLIC "-//W3C//DTD SVG 1.1//EN"
  "http://www.w3.org/Graphics/SVG/1.1/DTD/svg11.dtd">
<svg xmlns:xlink="http://www.w3.org/1999/xlink" width="396.850394pt" height="170.07874pt" viewBox="0 0 396.850394 170.07874" xmlns="http://www.w3.org/2000/svg" version="1.1">
 <metadata>
  <rdf:RDF xmlns:dc="http://purl.org/dc/elements/1.1/" xmlns:cc="http://creativecommons.org/ns#" xmlns:rdf="http://www.w3.org/1999/02/22-rdf-syntax-ns#">
   <cc:Work>
    <dc:type rdf:resource="http://purl.org/dc/dcmitype/StillImage"/>
    <dc:date>2023-03-03T23:18:44.217098</dc:date>
    <dc:format>image/svg+xml</dc:format>
    <dc:creator>
     <cc:Agent>
      <dc:title>Matplotlib v3.5.2, https://matplotlib.org/</dc:title>
     </cc:Agent>
    </dc:creator>
   </cc:Work>
  </rdf:RDF>
 </metadata>
 <defs>
  <style type="text/css">*{stroke-linejoin: round; stroke-linecap: butt}</style>
 </defs>
 <g id="figure_1">
  <g id="patch_1">
   <path d="M 0 170.07874 
L 396.850394 170.07874 
L 396.850394 0 
L 0 0 
L 0 170.07874 
z
" style="fill: none"/>
  </g>
  <g id="axes_1">
   <g id="patch_2">
    <path d="M 49.606299 148.818898 
L 357.165354 148.818898 
L 357.165354 20.409449 
L 49.606299 20.409449 
z
" style="fill: #ffffff"/>
   </g>
   <g id="matplotlib.axis_1">
    <g id="xtick_1">
     <g id="line2d_1">
      <defs>
       <path id="m967662af2b" d="M 0 0 
L 0 -3.5 
" style="stroke: #000000; stroke-width: 0.8"/>
      </defs>
      <g>
       <use xlink:href="#m967662af2b" x="63.586256" y="148.818898" style="stroke: #000000; stroke-width: 0.8"/>
      </g>
     </g>
     <g id="text_1">
      <!-- 0 -->
      <g transform="translate(61.836256 157.131398)scale(0.07 -0.07)">
       <defs>
        <path id="SimHei-30" d="M 225 2537 
Q 250 3200 412 3587 
Q 575 3975 875 4225 
Q 1175 4475 1612 4475 
Q 2050 4475 2375 4112 
Q 2700 3750 2800 3200 
Q 2900 2650 2862 1937 
Q 2825 1225 2612 775 
Q 2400 325 1975 150 
Q 1550 -25 1125 187 
Q 700 400 525 750 
Q 350 1100 275 1487 
Q 200 1875 225 2537 
z
M 750 2687 
Q 675 2000 800 1462 
Q 925 925 1212 700 
Q 1500 475 1800 612 
Q 2100 750 2237 1162 
Q 2375 1575 2375 2062 
Q 2375 2550 2337 2950 
Q 2300 3350 2112 3675 
Q 1925 4000 1612 4012 
Q 1300 4025 1062 3700 
Q 825 3375 750 2687 
z
" transform="scale(0.015625)"/>
       </defs>
       <use xlink:href="#SimHei-30"/>
      </g>
     </g>
    </g>
    <g id="xtick_2">
     <g id="line2d_2">
      <g>
       <use xlink:href="#m967662af2b" x="102.41947" y="148.818898" style="stroke: #000000; stroke-width: 0.8"/>
      </g>
     </g>
     <g id="text_2">
      <!-- 200 -->
      <g transform="translate(97.16947 157.131398)scale(0.07 -0.07)">
       <defs>
        <path id="SimHei-32" d="M 300 250 
Q 325 625 650 925 
Q 975 1225 1475 1862 
Q 1975 2500 2125 2850 
Q 2275 3200 2237 3450 
Q 2200 3700 2000 3862 
Q 1800 4025 1537 4000 
Q 1275 3975 1037 3800 
Q 800 3625 675 3275 
L 200 3350 
Q 400 3925 712 4187 
Q 1025 4450 1450 4475 
Q 1700 4500 1900 4462 
Q 2100 4425 2312 4287 
Q 2525 4150 2662 3875 
Q 2800 3600 2762 3212 
Q 2725 2825 2375 2287 
Q 2025 1750 1025 600 
L 2825 600 
L 2825 150 
L 300 150 
L 300 250 
z
" transform="scale(0.015625)"/>
       </defs>
       <use xlink:href="#SimHei-32"/>
       <use xlink:href="#SimHei-30" x="50"/>
       <use xlink:href="#SimHei-30" x="100"/>
      </g>
     </g>
    </g>
    <g id="xtick_3">
     <g id="line2d_3">
      <g>
       <use xlink:href="#m967662af2b" x="141.252684" y="148.818898" style="stroke: #000000; stroke-width: 0.8"/>
      </g>
     </g>
     <g id="text_3">
      <!-- 400 -->
      <g transform="translate(136.002684 157.131398)scale(0.07 -0.07)">
       <defs>
        <path id="SimHei-34" d="M 2000 1100 
L 75 1100 
L 75 1525 
L 2100 4450 
L 2475 4450 
L 2475 1525 
L 3075 1525 
L 3075 1100 
L 2475 1100 
L 2475 150 
L 2000 150 
L 2000 1100 
z
M 2000 1525 
L 2000 3500 
L 600 1525 
L 2000 1525 
z
" transform="scale(0.015625)"/>
       </defs>
       <use xlink:href="#SimHei-34"/>
       <use xlink:href="#SimHei-30" x="50"/>
       <use xlink:href="#SimHei-30" x="100"/>
      </g>
     </g>
    </g>
    <g id="xtick_4">
     <g id="line2d_4">
      <g>
       <use xlink:href="#m967662af2b" x="180.085898" y="148.818898" style="stroke: #000000; stroke-width: 0.8"/>
      </g>
     </g>
     <g id="text_4">
      <!-- 600 -->
      <g transform="translate(174.835898 157.131398)scale(0.07 -0.07)">
       <defs>
        <path id="SimHei-36" d="M 250 1612 
Q 275 1975 387 2225 
Q 500 2475 725 2850 
L 1750 4450 
L 2325 4450 
L 1275 2800 
Q 1950 2975 2350 2750 
Q 2750 2525 2887 2237 
Q 3025 1950 3037 1612 
Q 3050 1275 2937 950 
Q 2825 625 2537 362 
Q 2250 100 1737 75 
Q 1225 50 862 262 
Q 500 475 362 862 
Q 225 1250 250 1612 
z
M 1025 787 
Q 1250 550 1625 525 
Q 2000 500 2250 775 
Q 2500 1050 2500 1575 
Q 2500 2100 2187 2300 
Q 1875 2500 1487 2450 
Q 1100 2400 925 2075 
Q 750 1750 775 1387 
Q 800 1025 1025 787 
z
" transform="scale(0.015625)"/>
       </defs>
       <use xlink:href="#SimHei-36"/>
       <use xlink:href="#SimHei-30" x="50"/>
       <use xlink:href="#SimHei-30" x="100"/>
      </g>
     </g>
    </g>
    <g id="xtick_5">
     <g id="line2d_5">
      <g>
       <use xlink:href="#m967662af2b" x="218.919112" y="148.818898" style="stroke: #000000; stroke-width: 0.8"/>
      </g>
     </g>
     <g id="text_5">
      <!-- 800 -->
      <g transform="translate(213.669112 157.131398)scale(0.07 -0.07)">
       <defs>
        <path id="SimHei-38" d="M 175 1375 
Q 175 1675 325 1962 
Q 475 2250 825 2425 
Q 525 2600 425 2812 
Q 325 3025 312 3300 
Q 300 3575 387 3775 
Q 475 3975 650 4150 
Q 825 4325 1037 4387 
Q 1250 4450 1500 4450 
Q 1750 4450 1950 4400 
Q 2150 4350 2375 4187 
Q 2600 4025 2700 3725 
Q 2800 3425 2687 3025 
Q 2575 2625 2100 2400 
Q 2525 2275 2700 2012 
Q 2875 1750 2875 1375 
Q 2875 1000 2762 775 
Q 2650 550 2512 400 
Q 2375 250 2137 162 
Q 1900 75 1537 75 
Q 1175 75 912 162 
Q 650 250 475 425 
Q 300 600 237 837 
Q 175 1075 175 1375 
z
M 687 1400 
Q 675 1100 787 875 
Q 900 650 1200 587 
Q 1500 525 1825 600 
Q 2150 675 2275 950 
Q 2400 1225 2362 1500 
Q 2325 1775 2050 1962 
Q 1775 2150 1450 2125 
Q 1125 2100 912 1900 
Q 700 1700 687 1400 
z
M 775 3350 
Q 775 3100 950 2875 
Q 1125 2650 1500 2650 
Q 1875 2650 2062 2875 
Q 2250 3100 2237 3412 
Q 2225 3725 2012 3875 
Q 1800 4025 1437 4000 
Q 1075 3975 925 3787 
Q 775 3600 775 3350 
z
" transform="scale(0.015625)"/>
       </defs>
       <use xlink:href="#SimHei-38"/>
       <use xlink:href="#SimHei-30" x="50"/>
       <use xlink:href="#SimHei-30" x="100"/>
      </g>
     </g>
    </g>
    <g id="xtick_6">
     <g id="line2d_6">
      <g>
       <use xlink:href="#m967662af2b" x="257.752326" y="148.818898" style="stroke: #000000; stroke-width: 0.8"/>
      </g>
     </g>
     <g id="text_6">
      <!-- 1000 -->
      <g transform="translate(250.752326 157.131398)scale(0.07 -0.07)">
       <defs>
        <path id="SimHei-31" d="M 1400 3600 
Q 1075 3275 575 2975 
L 575 3450 
Q 1200 3875 1600 4450 
L 1900 4450 
L 1900 150 
L 1400 150 
L 1400 3600 
z
" transform="scale(0.015625)"/>
       </defs>
       <use xlink:href="#SimHei-31"/>
       <use xlink:href="#SimHei-30" x="50"/>
       <use xlink:href="#SimHei-30" x="100"/>
       <use xlink:href="#SimHei-30" x="150"/>
      </g>
     </g>
    </g>
    <g id="xtick_7">
     <g id="line2d_7">
      <g>
       <use xlink:href="#m967662af2b" x="296.58554" y="148.818898" style="stroke: #000000; stroke-width: 0.8"/>
      </g>
     </g>
     <g id="text_7">
      <!-- 1200 -->
      <g transform="translate(289.58554 157.131398)scale(0.07 -0.07)">
       <use xlink:href="#SimHei-31"/>
       <use xlink:href="#SimHei-32" x="50"/>
       <use xlink:href="#SimHei-30" x="100"/>
       <use xlink:href="#SimHei-30" x="150"/>
      </g>
     </g>
    </g>
    <g id="xtick_8">
     <g id="line2d_8">
      <g>
       <use xlink:href="#m967662af2b" x="335.418754" y="148.818898" style="stroke: #000000; stroke-width: 0.8"/>
      </g>
     </g>
     <g id="text_8">
      <!-- 1400 -->
      <g transform="translate(328.418754 157.131398)scale(0.07 -0.07)">
       <use xlink:href="#SimHei-31"/>
       <use xlink:href="#SimHei-34" x="50"/>
       <use xlink:href="#SimHei-30" x="100"/>
       <use xlink:href="#SimHei-30" x="150"/>
      </g>
     </g>
    </g>
   </g>
   <g id="matplotlib.axis_2">
    <g id="ytick_1">
     <g id="line2d_9">
      <defs>
       <path id="mabff962255" d="M 0 0 
L 3.5 0 
" style="stroke: #000000; stroke-width: 0.8"/>
      </defs>
      <g>
       <use xlink:href="#mabff962255" x="49.606299" y="143.994893" style="stroke: #000000; stroke-width: 0.8"/>
      </g>
     </g>
     <g id="text_9">
      <!-- 0.8 -->
      <g transform="translate(35.606299 146.401143)scale(0.07 -0.07)">
       <defs>
        <path id="SimHei-2e" d="M 1075 125 
L 500 125 
L 500 675 
L 1075 675 
L 1075 125 
z
" transform="scale(0.015625)"/>
       </defs>
       <use xlink:href="#SimHei-30"/>
       <use xlink:href="#SimHei-2e" x="50"/>
       <use xlink:href="#SimHei-38" x="100"/>
      </g>
     </g>
    </g>
    <g id="ytick_2">
     <g id="line2d_10">
      <g>
       <use xlink:href="#mabff962255" x="49.606299" y="125.815179" style="stroke: #000000; stroke-width: 0.8"/>
      </g>
     </g>
     <g id="text_10">
      <!-- 1.0 -->
      <g transform="translate(35.606299 128.221429)scale(0.07 -0.07)">
       <use xlink:href="#SimHei-31"/>
       <use xlink:href="#SimHei-2e" x="50"/>
       <use xlink:href="#SimHei-30" x="100"/>
      </g>
     </g>
    </g>
    <g id="ytick_3">
     <g id="line2d_11">
      <g>
       <use xlink:href="#mabff962255" x="49.606299" y="107.635464" style="stroke: #000000; stroke-width: 0.8"/>
      </g>
     </g>
     <g id="text_11">
      <!-- 1.2 -->
      <g transform="translate(35.606299 110.041714)scale(0.07 -0.07)">
       <use xlink:href="#SimHei-31"/>
       <use xlink:href="#SimHei-2e" x="50"/>
       <use xlink:href="#SimHei-32" x="100"/>
      </g>
     </g>
    </g>
    <g id="ytick_4">
     <g id="line2d_12">
      <g>
       <use xlink:href="#mabff962255" x="49.606299" y="89.45575" style="stroke: #000000; stroke-width: 0.8"/>
      </g>
     </g>
     <g id="text_12">
      <!-- 1.4 -->
      <g transform="translate(35.606299 91.862)scale(0.07 -0.07)">
       <use xlink:href="#SimHei-31"/>
       <use xlink:href="#SimHei-2e" x="50"/>
       <use xlink:href="#SimHei-34" x="100"/>
      </g>
     </g>
    </g>
    <g id="ytick_5">
     <g id="line2d_13">
      <g>
       <use xlink:href="#mabff962255" x="49.606299" y="71.276035" style="stroke: #000000; stroke-width: 0.8"/>
      </g>
     </g>
     <g id="text_13">
      <!-- 1.6 -->
      <g transform="translate(35.606299 73.682285)scale(0.07 -0.07)">
       <use xlink:href="#SimHei-31"/>
       <use xlink:href="#SimHei-2e" x="50"/>
       <use xlink:href="#SimHei-36" x="100"/>
      </g>
     </g>
    </g>
    <g id="ytick_6">
     <g id="line2d_14">
      <g>
       <use xlink:href="#mabff962255" x="49.606299" y="53.09632" style="stroke: #000000; stroke-width: 0.8"/>
      </g>
     </g>
     <g id="text_14">
      <!-- 1.8 -->
      <g transform="translate(35.606299 55.50257)scale(0.07 -0.07)">
       <use xlink:href="#SimHei-31"/>
       <use xlink:href="#SimHei-2e" x="50"/>
       <use xlink:href="#SimHei-38" x="100"/>
      </g>
     </g>
    </g>
    <g id="ytick_7">
     <g id="line2d_15">
      <g>
       <use xlink:href="#mabff962255" x="49.606299" y="34.916606" style="stroke: #000000; stroke-width: 0.8"/>
      </g>
     </g>
     <g id="text_15">
      <!-- 2.0 -->
      <g transform="translate(35.606299 37.322856)scale(0.07 -0.07)">
       <use xlink:href="#SimHei-32"/>
       <use xlink:href="#SimHei-2e" x="50"/>
       <use xlink:href="#SimHei-30" x="100"/>
      </g>
     </g>
    </g>
   </g>
   <g id="line2d_16">
    <path d="M 63.586256 71.431683 
L 64.751253 70.454922 
L 65.139585 70.203311 
L 65.722083 69.656268 
L 66.110415 69.394762 
L 66.692913 68.874577 
L 67.081246 68.579145 
L 67.663744 68.094299 
L 68.052076 67.760702 
L 68.634574 67.311194 
L 70.770401 65.523057 
L 71.352899 65.062241 
L 72.517895 64.101029 
L 73.100394 63.593565 
L 73.29456 62.122063 
L 73.682892 61.853489 
L 74.26539 61.334717 
L 74.653722 61.030805 
L 75.23622 60.548785 
L 75.624553 60.206707 
L 76.207051 59.757199 
L 78.342878 57.929483 
L 78.925376 57.479975 
L 83.002863 54.035161 
L 83.391195 53.727008 
L 83.779528 53.401892 
L 84.362026 52.932594 
L 85.527022 51.961488 
L 86.10952 51.445543 
L 86.497853 51.130322 
L 87.080351 50.649716 
L 87.468683 50.297743 
L 88.051181 49.849649 
L 94.458661 44.458381 
L 94.652827 42.325338 
L 95.235326 41.877244 
L 95.817824 41.40936 
L 97.176986 40.200777 
L 98.341983 39.20564 
L 98.730315 38.954029 
L 99.312813 38.395678 
L 99.701145 38.118623 
L 100.283644 37.589956 
L 100.671976 37.274735 
L 101.254474 36.782821 
L 102.613636 35.56717 
L 103.778633 34.573447 
L 104.166965 34.330317 
L 104.749463 33.745108 
L 105.137795 33.475121 
L 105.331961 94.714214 
L 107.467788 94.037125 
L 107.85612 93.942418 
L 108.244452 93.754416 
L 108.826951 93.611648 
L 109.215283 93.450504 
L 109.603615 93.396789 
L 110.186113 93.155072 
L 110.574445 93.075914 
L 110.962777 92.882258 
L 111.545276 92.740903 
L 111.933608 92.582586 
L 112.32194 92.531698 
L 112.904438 92.291395 
L 113.29277 92.212236 
L 113.681102 92.019994 
L 114.263601 91.881466 
L 114.651933 91.714668 
L 115.040265 91.658126 
L 115.622763 91.390966 
L 116.011095 91.304739 
L 116.593593 91.067263 
L 116.981926 90.945698 
L 117.370258 90.757697 
L 117.75859 90.701155 
L 118.341088 90.42834 
L 118.72942 90.349182 
L 119.311918 90.103224 
L 119.700251 89.978832 
L 120.088583 89.792244 
L 120.476915 89.734289 
L 121.059413 89.462888 
L 121.447745 89.380902 
L 122.030243 89.137772 
L 122.418576 89.021861 
L 122.806908 88.828205 
L 123.19524 88.773077 
L 123.777738 88.496022 
L 124.16607 88.421104 
L 124.748568 88.169492 
L 125.136901 88.062063 
L 125.525233 87.862753 
L 126.107731 87.698781 
L 126.496063 87.527742 
L 126.884395 87.459892 
L 127.466893 87.199799 
L 127.855225 87.100851 
L 128.243558 86.895886 
L 128.826056 86.737569 
L 129.214388 86.559462 
L 129.60272 86.485958 
L 130.185218 86.228692 
L 130.57355 86.139639 
L 131.156049 85.902163 
L 131.544381 85.776357 
L 131.932713 85.591183 
L 132.321045 85.531814 
L 132.903543 85.258999 
L 133.291875 85.1756 
L 133.874374 84.931056 
L 134.262706 84.80101 
L 134.651038 84.617249 
L 135.03937 84.556466 
L 135.621868 84.286479 
L 136.0102 84.200252 
L 136.592699 83.957122 
L 136.981031 83.836971 
L 137.369363 83.646142 
L 137.757695 83.5896 
L 138.340193 83.313958 
L 138.728525 83.2348 
L 139.311024 82.984602 
L 139.699356 82.872932 
L 140.087688 82.675035 
L 140.47602 82.62132 
L 141.058518 82.340025 
L 141.44685 82.267934 
L 142.029349 82.010668 
L 142.223515 106.220486 
L 143.388511 105.819039 
L 143.776843 105.752602 
L 144.359341 105.499578 
L 144.747674 105.402043 
L 145.136006 105.202733 
L 145.718504 105.048656 
L 146.106836 104.876203 
L 146.495168 104.814007 
L 147.077666 104.555328 
L 147.465999 104.466275 
L 147.854331 104.259897 
L 148.436829 104.111474 
L 148.825161 103.931954 
L 149.213493 103.873999 
L 149.795991 103.609665 
L 150.184324 103.52768 
L 150.766822 103.290204 
L 151.155154 103.174293 
L 151.543486 102.987705 
L 151.931818 102.924095 
L 152.514316 102.661175 
L 152.902649 102.576362 
L 153.485147 102.341714 
L 153.873479 102.221562 
L 154.261811 102.036388 
L 154.650143 101.979846 
L 155.232641 101.711272 
L 155.620974 101.632113 
L 156.203472 101.390397 
L 156.591804 101.290035 
L 156.980136 101.090725 
L 157.562634 100.921099 
L 157.950966 100.758541 
L 158.339298 100.68645 
L 158.921797 100.436252 
L 159.310129 100.333063 
L 159.698461 100.135167 
L 160.280959 99.975436 
L 160.669291 99.80581 
L 161.057623 99.73796 
L 161.640122 99.480695 
L 162.028454 99.384574 
L 162.416786 99.181023 
L 162.610952 99.158406 
L 162.805118 97.296765 
L 163.19345 97.081906 
L 163.775948 96.902385 
L 164.164281 96.715797 
L 164.552613 96.635225 
L 165.135111 96.353929 
L 165.523443 96.245086 
L 165.911775 96.025986 
L 166.494273 95.850706 
L 166.882606 95.65705 
L 167.270938 95.580719 
L 167.853436 95.293769 
L 168.241768 95.193407 
L 168.824266 94.934728 
L 169.212598 94.797614 
L 169.600931 94.59689 
L 169.989263 94.526213 
L 170.571761 94.233609 
L 170.960093 94.138901 
L 171.542591 93.87174 
L 171.930923 93.744521 
L 172.319256 93.53673 
L 172.707588 93.46888 
L 173.290086 93.167794 
L 173.678418 93.071673 
L 174.260916 92.80734 
L 174.649248 92.690015 
L 175.037581 92.475156 
L 175.231747 91.981828 
L 175.620079 91.908324 
L 176.202577 91.61572 
L 176.590909 91.519598 
L 177.173407 91.253852 
L 177.561739 91.122392 
L 177.950072 90.9146 
L 178.338404 90.836855 
L 178.920902 90.544251 
L 179.309234 90.445303 
L 179.891732 90.182383 
L 180.280064 90.048096 
L 180.668397 89.843132 
L 181.056729 89.761146 
L 181.639227 89.441684 
L 181.833393 89.414827 
L 182.027559 88.667061 
L 182.415891 88.57518 
L 182.998389 88.2642 
L 183.386722 88.158184 
L 183.96922 87.866993 
L 184.357552 87.725638 
L 184.745884 87.499471 
L 185.134216 87.416072 
L 185.716714 87.093783 
L 186.105047 86.980699 
L 186.687545 86.689509 
L 187.075877 86.545327 
L 187.464209 86.321986 
L 187.852541 86.237174 
L 188.435039 85.916298 
L 188.823372 85.811696 
L 189.40587 85.514851 
L 189.794202 85.377737 
L 190.182534 85.148742 
L 190.570866 85.066757 
L 190.765032 84.803837 
L 192.318361 84.196012 
L 192.706693 83.967017 
L 193.289191 83.759226 
L 193.677523 83.558502 
L 194.065855 83.459554 
L 194.648354 83.155641 
L 195.036686 83.025595 
L 195.230852 82.33013 
L 196.78418 81.586604 
L 197.172513 81.484829 
L 197.755011 81.183743 
L 198.143343 81.049456 
L 198.531675 80.816221 
L 199.114173 80.611257 
L 199.502505 80.406292 
L 199.890838 80.310171 
L 200.473336 80.000604 
L 200.861668 79.876212 
L 201.25 79.637323 
L 201.832498 79.438013 
L 202.22083 79.224567 
L 202.609162 79.132687 
L 203.191661 78.817466 
L 203.579993 78.701555 
L 203.968325 78.449944 
L 204.550823 78.247806 
L 204.939155 78.041428 
L 205.327487 77.953789 
L 205.521654 76.688664 
L 205.909986 76.461083 
L 206.298318 76.37627 
L 206.880816 76.049741 
L 207.269148 75.946552 
L 207.851646 75.644053 
L 208.045812 75.611541 
L 208.239979 132.40503 
L 208.628311 132.243885 
L 209.016643 132.024786 
L 209.404975 131.928664 
L 209.987473 131.604962 
L 210.375805 131.486224 
L 210.958304 131.190793 
L 211.346636 131.036716 
L 211.734968 130.811962 
L 212.1233 130.70736 
L 212.705798 130.386485 
L 213.09413 130.26492 
L 213.676628 129.970902 
L 214.064961 129.813998 
L 214.453293 129.590658 
L 214.841625 129.49595 
L 215.424123 129.169421 
L 215.812455 129.05351 
L 216.394953 128.753838 
L 216.783286 128.604002 
L 217.171618 128.375007 
L 217.754116 128.153081 
L 218.142448 127.952357 
L 218.53078 127.8421 
L 219.113278 127.533947 
L 219.501611 127.392592 
L 219.889943 127.157944 
L 220.472441 126.941671 
L 220.860773 126.732466 
L 221.249105 126.627863 
L 221.831603 126.314056 
L 222.219936 126.179769 
L 222.802434 125.89706 
L 223.190766 125.727434 
L 223.579098 125.512575 
L 223.96743 125.4108 
L 224.549928 125.091338 
L 224.938261 124.964119 
L 225.520759 124.670101 
L 225.909091 124.497648 
L 226.297423 124.284203 
L 226.685755 124.182427 
L 227.268253 123.862966 
L 227.656586 123.734333 
L 228.239084 123.445969 
L 228.627416 123.280584 
L 229.015748 123.061485 
L 229.40408 122.913062 
L 229.986578 122.626112 
L 230.374911 122.4579 
L 230.763243 122.240214 
L 231.151575 122.139852 
L 231.734073 121.817563 
L 232.122405 121.691758 
L 232.704903 121.39774 
L 233.093236 121.236595 
L 233.481568 121.011841 
L 233.8699 120.91572 
L 234.452398 120.587777 
L 234.646564 107.32588 
L 235.034896 107.177458 
L 235.423228 106.965426 
L 235.81156 106.880613 
L 236.394059 106.569633 
L 236.782391 106.463617 
L 237.364889 106.176666 
L 237.753221 106.025417 
L 238.141553 105.814798 
L 238.529885 105.728572 
L 239.112384 105.419005 
L 239.500716 105.310162 
L 240.083214 105.028866 
L 240.471546 104.884685 
L 240.859878 104.668412 
L 241.24821 104.585013 
L 241.830709 104.271205 
L 242.219041 104.168016 
L 242.801539 103.878239 
L 243.189871 103.743952 
L 243.578203 103.520612 
L 244.160702 103.315648 
L 244.549034 103.120578 
L 244.937366 103.023043 
L 245.519864 102.726198 
L 245.908196 102.598979 
L 246.296528 102.368571 
L 246.879026 102.169261 
L 247.267359 101.967124 
L 247.655691 101.875243 
L 248.238189 101.569917 
L 248.626521 101.451179 
L 249.209019 101.176951 
L 249.597351 101.021461 
L 249.985684 100.810842 
L 250.374016 100.723202 
L 250.956514 100.413636 
L 251.344846 100.300552 
L 251.733178 100.053181 
L 252.315676 99.856698 
L 252.704009 99.654561 
L 253.092341 99.569748 
L 253.674839 99.254527 
L 254.063171 99.148511 
L 254.645669 98.858734 
L 255.034001 98.720206 
L 255.422334 98.495452 
L 255.810666 98.41488 
L 256.393164 98.094005 
L 256.781496 97.983748 
L 257.363994 97.695385 
L 257.752326 97.55403 
L 258.140659 97.332103 
L 258.528991 97.248704 
L 259.111489 96.929242 
L 259.499821 96.828881 
L 260.082319 96.533449 
L 260.470651 96.399162 
L 260.858984 96.171581 
L 261.441482 95.966617 
L 261.829814 95.767307 
L 262.218146 95.671186 
L 262.800644 95.368687 
L 263.188976 95.244295 
L 263.577309 95.009646 
L 264.159807 94.811749 
L 264.548139 94.599717 
L 264.936471 94.502182 
L 265.130637 94.366482 
L 265.324803 93.854778 
L 265.907301 93.66819 
L 266.295634 93.444849 
L 266.4898 93.413751 
L 266.683966 45.651414 
L 268.237294 45.00401 
L 268.625626 44.936159 
L 269.208125 44.660518 
L 269.596457 44.564397 
L 269.984789 44.34671 
L 270.567287 44.188393 
L 270.955619 43.996151 
L 271.343951 43.92406 
L 271.92645 43.651245 
L 272.314782 43.552297 
L 272.703114 43.334611 
L 273.285612 43.17488 
L 273.673944 42.985465 
L 274.062276 42.920441 
L 274.644775 42.640559 
L 275.033107 42.551506 
L 275.421439 42.329579 
L 276.003937 42.174089 
L 276.392269 41.976192 
L 276.780601 41.91541 
L 276.974767 41.364126 
L 282.411417 39.349822 
L 283.77058 38.905968 
L 284.935576 38.466355 
L 285.323908 38.254323 
L 285.906407 38.086111 
L 286.294739 37.900936 
L 286.683071 37.826018 
L 287.071403 37.59137 
L 287.265569 37.192749 
L 287.653901 37.090974 
L 288.042233 36.859152 
L 288.624732 36.685286 
L 289.013064 36.47184 
L 289.401396 36.396922 
L 289.983894 36.084529 
L 290.372226 35.988407 
L 290.954724 35.701457 
L 291.343057 35.572825 
L 291.731389 35.348071 
L 292.313887 35.153001 
L 292.702219 34.959345 
L 293.090551 34.868878 
L 293.673049 34.573447 
L 294.061382 34.454709 
L 294.449714 34.224301 
L 295.032212 34.034886 
L 295.420544 33.831335 
L 295.808876 33.749349 
L 296.391374 33.445436 
L 296.779707 33.33518 
L 297.362205 33.062365 
L 297.750537 32.91677 
L 297.944703 32.78531 
L 298.138869 31.869332 
L 298.721367 31.559765 
L 299.109699 31.457989 
L 299.692198 31.17528 
L 300.08053 31.038166 
L 300.468862 30.819066 
L 300.857194 30.744148 
L 301.439692 30.424687 
L 301.828024 30.321498 
L 302.410523 30.040202 
L 302.798855 29.901674 
L 303.187187 29.682575 
L 303.575519 29.607657 
L 304.158017 29.292436 
L 304.546349 29.196314 
L 305.128848 28.905124 
L 305.51718 28.776491 
L 305.905512 28.550323 
L 306.48801 28.355254 
L 306.876342 28.157357 
L 307.264674 28.068304 
L 307.847173 27.770046 
L 308.235505 27.651308 
L 308.623837 27.416659 
L 309.206335 27.228657 
L 309.594667 27.022279 
L 309.982999 26.93888 
L 310.565497 26.63214 
L 310.95383 26.523297 
L 311.536328 26.246242 
L 311.730494 107.978939 
L 312.118826 107.838998 
L 312.507158 107.711778 
L 312.89549 107.503987 
L 313.283822 107.43331 
L 313.866321 107.133638 
L 314.254653 107.030449 
L 314.837151 106.763288 
L 315.225483 106.627588 
L 315.613815 106.419797 
L 316.002147 106.344879 
L 316.584646 106.04238 
L 316.972978 105.946258 
L 317.555476 105.670617 
L 317.943808 105.541984 
L 318.33214 105.315816 
L 318.914639 105.116506 
L 319.302971 104.91861 
L 319.691303 104.823902 
L 320.273801 104.525644 
L 320.662133 104.402665 
L 321.050465 104.170843 
L 321.632963 103.975774 
L 322.021296 103.77081 
L 322.409628 103.681756 
L 322.992126 103.369362 
L 323.380458 103.22094 
L 323.76879 103.007494 
L 324.157122 102.922681 
L 324.739621 102.610288 
L 325.127953 102.502858 
L 325.516285 102.254074 
L 326.098783 102.061831 
L 326.487115 101.851213 
L 326.875447 101.763573 
L 327.457946 101.454006 
L 327.846278 101.342336 
L 328.428776 101.059627 
L 328.817108 100.914031 
L 329.20544 100.696345 
L 329.593772 100.612946 
L 330.176271 100.297725 
L 330.564603 100.193122 
L 331.147101 99.901932 
L 331.535433 99.766231 
L 331.923765 99.541477 
L 332.506263 99.335099 
L 332.894596 99.14003 
L 333.282928 99.041082 
L 333.865426 98.742823 
L 334.253758 98.61419 
L 334.64209 98.383782 
L 335.224588 98.184472 
L 335.612921 97.980921 
L 336.001253 97.887627 
L 336.583751 97.583715 
L 336.972083 97.46215 
L 337.554581 97.187922 
L 337.942913 97.031018 
L 338.331246 96.820399 
L 338.719578 96.731346 
L 339.302076 96.421779 
L 339.690408 96.307282 
L 340.272906 96.025986 
L 340.661238 95.863428 
L 341.049571 95.654223 
L 341.437903 95.56517 
L 342.020401 95.255603 
L 342.408733 95.139692 
L 342.991231 94.85981 
L 343.185397 94.82023 
L 343.185397 94.82023 
" clip-path="url(#p8627a9d100)" style="fill: none; stroke: #1f77b4; stroke-width: 1.5; stroke-linecap: square"/>
   </g>
   <g id="line2d_17">
    <path d="M 63.586256 78.981751 
L 65.722083 78.21489 
L 68.440408 77.325995 
L 68.82874 77.451692 
L 69.217072 77.790793 
L 69.993737 78.742623 
L 70.382069 79.197906 
L 74.459556 77.812096 
L 75.624553 77.204047 
L 77.760379 76.65525 
L 78.925376 76.458447 
L 79.313708 76.158226 
L 79.896206 75.267619 
L 80.867037 73.399219 
L 81.255369 73.148713 
L 81.643701 72.599981 
L 82.808697 72.444355 
L 84.944524 71.613909 
L 86.10952 71.243037 
L 86.497853 71.383146 
L 86.886185 71.953529 
L 87.274517 73.035889 
L 87.857015 75.238405 
L 88.245347 74.050026 
L 89.410344 69.82953 
L 89.798676 68.934264 
L 90.57534 67.791547 
L 93.099499 67.196827 
L 95.04116 66.628633 
L 96.01199 65.878091 
L 96.594488 65.375216 
L 96.788654 66.010377 
L 100.283644 65.346458 
L 105.137795 64.544944 
L 105.331961 102.326861 
L 107.273622 101.857837 
L 110.186113 101.222135 
L 114.263601 100.29124 
L 116.011095 99.696736 
L 116.981926 99.490701 
L 117.952756 99.377032 
L 118.72942 99.209834 
L 119.894417 99.139118 
L 121.253579 98.489113 
L 121.836077 98.550379 
L 122.418576 98.634921 
L 122.806908 98.579138 
L 123.583572 98.019049 
L 124.360236 98.451707 
L 124.942734 98.167805 
L 125.136901 98.175043 
L 125.525233 97.890816 
L 125.719399 97.956374 
L 126.107731 97.916909 
L 126.301897 97.981123 
L 126.690229 97.799642 
L 126.884395 97.953578 
L 127.272727 97.70149 
L 127.466893 97.834448 
L 127.855225 97.601258 
L 128.049392 97.742104 
L 128.437724 97.520942 
L 128.63189 97.665775 
L 129.020222 97.431177 
L 129.214388 97.561013 
L 129.60272 97.334043 
L 129.796886 97.462796 
L 130.185218 97.297916 
L 130.379384 97.427059 
L 130.767717 97.231795 
L 130.961883 97.376802 
L 131.350215 97.085921 
L 131.544381 97.239727 
L 132.321045 96.918853 
L 132.515211 97.070014 
L 132.903543 96.901645 
L 133.097709 97.051138 
L 133.874374 96.874924 
L 134.06854 96.690453 
L 134.262706 96.822933 
L 134.651038 96.545142 
L 134.845204 96.694635 
L 135.233536 96.544817 
L 135.427702 96.602074 
L 135.816034 96.508495 
L 136.0102 96.563845 
L 136.398533 96.420984 
L 136.592699 96.450133 
L 136.981031 96.30842 
L 137.175197 96.351395 
L 137.563529 96.256906 
L 137.757695 96.299925 
L 138.146027 96.219262 
L 138.340193 96.275175 
L 138.728525 96.190937 
L 138.922691 96.227974 
L 139.311024 96.028029 
L 139.50519 96.068555 
L 139.893522 95.94871 
L 140.087688 95.99966 
L 140.47602 95.877127 
L 140.670186 95.918998 
L 141.058518 95.797657 
L 141.252684 95.852096 
L 141.641016 95.66212 
L 141.835183 95.792304 
L 142.029349 95.722542 
L 142.223515 113.394358 
L 142.611847 113.704309 
L 143.194345 113.699043 
L 143.971009 113.033391 
L 146.106836 112.141808 
L 147.271832 111.7085 
L 151.34932 110.638991 
L 155.81514 109.538015 
L 157.950966 108.817966 
L 158.727631 108.45572 
L 159.698461 108.374537 
L 163.387616 108.583671 
L 164.746779 109.756186 
L 164.940945 108.036867 
L 167.076772 107.826758 
L 171.154259 107.071622 
L 171.542591 106.873237 
L 175.037581 105.840549 
L 175.231747 103.184483 
L 175.814245 102.95526 
L 176.008411 102.61449 
L 176.785075 102.157213 
L 177.950072 101.380904 
L 178.726736 101.256637 
L 179.5034 100.997918 
L 179.891732 100.875168 
L 180.668397 100.739957 
L 182.415891 100.440646 
L 183.96922 100.441687 
L 184.163386 99.807241 
L 188.240873 98.870278 
L 192.706693 97.873392 
L 193.095025 97.698608 
L 197.172513 96.653198 
L 197.366679 95.98371 
L 203.579993 94.327239 
L 206.298318 93.610918 
L 207.463314 93.758438 
L 207.65748 92.434631 
L 208.045812 92.333445 
L 208.239979 142.982105 
L 209.599141 142.104338 
L 211.15247 141.28047 
L 213.870795 139.702896 
L 215.812455 138.498073 
L 216.394953 138.061389 
L 216.58912 138.150813 
L 217.948282 137.38223 
L 225.326593 132.274345 
L 229.986578 129.286753 
L 230.374911 129.54466 
L 230.957409 130.599562 
L 231.345741 131.293789 
L 231.539907 131.482388 
L 231.928239 131.310378 
L 232.510737 130.681991 
L 232.704903 130.745478 
L 233.481568 131.432456 
L 234.064066 131.484501 
L 234.452398 131.453532 
L 234.646564 108.153679 
L 235.617394 107.555772 
L 236.199893 106.960077 
L 236.976557 106.36826 
L 237.753221 106.166018 
L 239.30655 105.579598 
L 239.500716 105.807781 
L 241.054044 105.432445 
L 242.024875 105.190067 
L 242.801539 104.800558 
L 243.772369 104.223088 
L 245.325698 103.766699 
L 249.985684 102.082575 
L 250.568182 101.501681 
L 250.956514 101.105605 
L 251.539012 100.735536 
L 263.965641 96.654369 
L 266.4898 95.518609 
L 266.683966 65.568465 
L 271.538117 65.736314 
L 276.198103 66.148925 
L 277.945598 65.995033 
L 278.916428 66.238192 
L 279.110594 65.856463 
L 280.081424 65.743292 
L 281.052255 65.601861 
L 281.828919 65.676521 
L 283.576414 65.675502 
L 285.129742 65.613542 
L 286.683071 65.581468 
L 288.042233 65.679035 
L 289.20723 65.950107 
L 289.401396 65.696654 
L 296.973873 65.979516 
L 298.721367 65.838583 
L 300.08053 66.090303 
L 300.274696 65.57657 
L 305.128848 65.525944 
L 309.400501 65.398167 
L 311.536328 65.427424 
L 311.730494 107.3814 
L 316.196314 107.213378 
L 318.720472 106.935241 
L 319.108805 106.641348 
L 319.691303 105.812636 
L 320.273801 104.90209 
L 320.662133 104.725204 
L 321.050465 105.006809 
L 321.82713 105.750957 
L 322.409628 106.32004 
L 322.79796 106.197052 
L 323.186292 106.037157 
L 323.962956 106.045544 
L 324.351288 106.05042 
L 324.739621 105.884586 
L 325.516285 105.262841 
L 326.487115 105.161438 
L 329.399606 104.854282 
L 329.982105 104.571204 
L 331.341267 103.541766 
L 333.865426 103.39923 
L 336.195419 103.834922 
L 336.583751 103.919898 
L 339.884574 103.299474 
L 343.185397 102.100779 
L 343.185397 102.100779 
" clip-path="url(#p8627a9d100)" style="fill: none; stroke-dasharray: 5.55,2.4; stroke-dashoffset: 0; stroke: #ff0000; stroke-width: 1.5"/>
   </g>
   <g id="patch_3">
    <path d="M 49.606299 148.818898 
L 49.606299 20.409449 
" style="fill: none; stroke: #000000; stroke-linejoin: miter; stroke-linecap: square"/>
   </g>
   <g id="patch_4">
    <path d="M 357.165354 148.818898 
L 357.165354 20.409449 
" style="fill: none; stroke: #000000; stroke-linejoin: miter; stroke-linecap: square"/>
   </g>
   <g id="patch_5">
    <path d="M 49.606299 148.818898 
L 357.165354 148.818898 
" style="fill: none; stroke: #000000; stroke-linejoin: miter; stroke-linecap: square"/>
   </g>
   <g id="patch_6">
    <path d="M 49.606299 20.409449 
L 357.165354 20.409449 
" style="fill: none; stroke: #000000; stroke-linejoin: miter; stroke-linecap: square"/>
   </g>
   <g id="legend_1">
    <g id="patch_7">
     <path d="M 53.806299 145.818898 
L 97.006299 145.818898 
Q 98.206299 145.818898 98.206299 144.618898 
L 98.206299 128.062648 
Q 98.206299 126.862648 97.006299 126.862648 
L 53.806299 126.862648 
Q 52.606299 126.862648 52.606299 128.062648 
L 52.606299 144.618898 
Q 52.606299 145.818898 53.806299 145.818898 
z
" style="fill: #ffffff; opacity: 0.8; stroke: #cccccc; stroke-linejoin: miter"/>
    </g>
    <g id="line2d_18">
     <path d="M 55.006299 131.967335 
L 61.006299 131.967335 
L 67.006299 131.967335 
" style="fill: none; stroke: #1f77b4; stroke-width: 1.5; stroke-linecap: square"/>
    </g>
    <g id="text_16">
     <!-- 真实值 -->
     <g transform="translate(71.806299 134.067335)scale(0.06 -0.06)">
      <defs>
       <path id="SimHei-771f" d="M 3550 5100 
Q 3450 4925 3400 4625 
L 4850 4625 
Q 5175 4625 5725 4650 
L 5725 4250 
Q 5200 4275 4850 4275 
L 3350 4275 
L 3300 3850 
L 5050 3850 
Q 5025 3550 5025 3150 
L 5025 1075 
L 5400 1075 
Q 5800 1075 6075 1100 
L 6075 625 
Q 5575 650 4900 650 
L 1450 650 
Q 775 650 350 625 
L 350 1100 
Q 725 1075 1100 1075 
L 1425 1075 
L 1425 3075 
Q 1425 3450 1400 3850 
L 2825 3850 
L 2850 4275 
L 1400 4275 
Q 1050 4275 625 4250 
L 625 4650 
Q 1175 4625 1375 4625 
L 2925 4625 
Q 2950 4875 2950 5125 
Q 3300 5100 3550 5100 
z
M 4075 525 
Q 4500 425 4925 250 
Q 5350 75 5825 -150 
Q 5550 -425 5450 -575 
Q 5025 -300 4550 -100 
Q 4075 100 3800 175 
Q 3925 350 4075 525 
z
M 4525 3150 
L 4525 3475 
L 1925 3475 
L 1925 3150 
L 4525 3150 
z
M 4525 1075 
L 4525 1400 
L 1925 1400 
L 1925 1075 
L 4525 1075 
z
M 2775 200 
Q 2375 -25 1875 -225 
Q 1375 -425 950 -575 
Q 775 -400 600 -250 
Q 1225 -50 1625 137 
Q 2025 325 2350 525 
Q 2550 350 2775 200 
z
M 4525 1775 
L 4525 2075 
L 1925 2075 
L 1925 1775 
L 4525 1775 
z
M 4525 2475 
L 4525 2775 
L 1925 2775 
L 1925 2475 
L 4525 2475 
z
" transform="scale(0.015625)"/>
       <path id="SimHei-5b9e" d="M 4125 3500 
Q 4050 3200 4000 2675 
Q 3950 2150 3850 1550 
L 5025 1550 
Q 5475 1550 5975 1575 
L 5975 1100 
Q 5450 1125 5000 1125 
L 3725 1125 
Q 3500 625 3050 250 
Q 2600 -125 2000 -337 
Q 1400 -550 925 -675 
Q 825 -375 500 -200 
Q 1225 -125 2050 212 
Q 2875 550 3200 1125 
L 1425 1125 
Q 975 1125 425 1100 
L 425 1575 
Q 1000 1550 1425 1550 
L 3375 1550 
Q 3450 1975 3487 2462 
Q 3525 2950 3500 3650 
Q 3800 3550 4125 3500 
z
M 3250 5250 
Q 3450 4850 3600 4375 
L 5775 4375 
Q 5750 4100 5750 3825 
Q 5750 3575 5775 3275 
L 5200 3275 
L 5200 3975 
L 1225 3975 
L 1225 3225 
L 675 3225 
Q 700 3525 700 3800 
Q 700 4100 675 4375 
L 2975 4375 
Q 2900 4675 2700 5075 
Q 2900 5150 3250 5250 
z
M 4000 825 
Q 4550 525 5050 262 
Q 5550 0 5925 -225 
Q 5750 -425 5550 -650 
Q 5100 -325 4575 -37 
Q 4050 250 3675 400 
Q 3875 650 4000 825 
z
M 1175 2750 
Q 1600 2550 2350 2050 
Q 2250 1900 2050 1650 
Q 1350 2175 925 2350 
Q 1075 2500 1175 2750 
z
M 3150 2825 
Q 2975 2625 2850 2425 
Q 2050 3000 1675 3125 
Q 1800 3300 1950 3525 
L 3150 2825 
z
" transform="scale(0.015625)"/>
       <path id="SimHei-503c" d="M 3675 4450 
L 3675 5100 
Q 3975 5075 4350 5050 
Q 4225 4875 4200 4450 
L 5125 4450 
Q 5550 4450 5875 4475 
L 5875 4025 
Q 5525 4050 5125 4050 
L 4175 4050 
L 4125 3500 
L 5400 3500 
Q 5375 3200 5375 2700 
L 5375 150 
Q 5875 150 6100 175 
L 6100 -275 
Q 5775 -250 5200 -250 
L 2850 -250 
Q 2275 -250 1900 -275 
L 1900 175 
Q 2125 150 2600 150 
L 2600 2700 
Q 2600 3175 2575 3500 
L 3600 3500 
L 3650 4050 
L 3200 4050 
Q 2575 4050 2225 4025 
L 2225 4475 
Q 2550 4450 3200 4450 
L 3675 4450 
z
M 2225 4900 
Q 2025 4675 1650 3750 
L 1650 450 
Q 1650 -75 1675 -550 
L 1150 -550 
Q 1175 -125 1175 375 
L 1175 2950 
Q 875 2450 625 2150 
Q 425 2425 250 2575 
Q 500 2825 937 3537 
Q 1375 4250 1625 5150 
Q 1975 4975 2225 4900 
z
M 4925 2650 
L 4925 3150 
L 3075 3150 
L 3075 2650 
L 4925 2650 
z
M 4925 150 
L 4925 625 
L 3075 625 
L 3075 150 
L 4925 150 
z
M 4925 1000 
L 4925 1450 
L 3075 1450 
L 3075 1000 
L 4925 1000 
z
M 4925 1825 
L 4925 2275 
L 3075 2275 
L 3075 1825 
L 4925 1825 
z
" transform="scale(0.015625)"/>
      </defs>
      <use xlink:href="#SimHei-771f"/>
      <use xlink:href="#SimHei-5b9e" x="100"/>
      <use xlink:href="#SimHei-503c" x="200"/>
     </g>
    </g>
    <g id="line2d_19">
     <path d="M 55.006299 140.568898 
L 61.006299 140.568898 
L 67.006299 140.568898 
" style="fill: none; stroke-dasharray: 5.55,2.4; stroke-dashoffset: 0; stroke: #ff0000; stroke-width: 1.5"/>
    </g>
    <g id="text_17">
     <!-- 模型输出 -->
     <g transform="translate(71.806299 142.668898)scale(0.06 -0.06)">
      <defs>
       <path id="SimHei-6a21" d="M 5700 3675 
Q 5675 3400 5675 2725 
Q 5675 2050 5700 1725 
L 4375 1725 
Q 4350 1450 4325 1200 
L 5225 1200 
Q 5750 1200 6025 1225 
L 6025 825 
Q 5725 850 5225 850 
L 4700 850 
Q 5075 375 5437 137 
Q 5800 -100 6200 -200 
Q 5975 -375 5850 -625 
Q 5275 -400 4862 25 
Q 4450 450 4300 775 
L 4225 775 
Q 4000 275 3537 -62 
Q 3075 -400 2475 -625 
Q 2350 -375 2125 -200 
Q 2775 -75 3200 200 
Q 3625 475 3775 850 
L 3325 850 
Q 2800 850 2400 825 
L 2400 1225 
Q 2800 1200 3350 1200 
L 3875 1200 
Q 3925 1475 3925 1725 
L 2750 1725 
Q 2775 2075 2775 2700 
Q 2775 3350 2750 3675 
L 5700 3675 
z
M 2175 1650 
Q 2025 1975 1675 2525 
L 1675 300 
Q 1675 -300 1700 -550 
L 1175 -550 
Q 1200 -275 1200 250 
L 1200 2225 
Q 1125 2000 962 1712 
Q 800 1425 600 1050 
Q 450 1275 200 1425 
Q 600 1825 850 2425 
Q 1100 3025 1175 3425 
L 950 3425 
Q 700 3425 400 3400 
L 400 3825 
Q 675 3800 825 3800 
L 1200 3800 
L 1200 4350 
Q 1200 4775 1175 5150 
L 1700 5150 
Q 1675 4825 1675 4425 
L 1675 3800 
Q 2075 3800 2375 3825 
L 2375 3400 
Q 2050 3425 1675 3425 
L 1675 2575 
Q 1850 2675 2000 2775 
Q 2150 2525 2287 2325 
Q 2425 2125 2550 1925 
Q 2325 1775 2175 1650 
z
M 3375 4300 
L 3175 4300 
Q 2700 4300 2425 4275 
L 2425 4675 
Q 2700 4650 3150 4650 
L 3375 4650 
Q 3375 5000 3350 5225 
L 3825 5225 
Q 3800 5000 3800 4650 
L 4550 4650 
Q 4550 4975 4525 5200 
L 5025 5200 
Q 5000 4925 5000 4650 
L 5375 4650 
Q 5650 4650 5950 4675 
L 5950 4275 
Q 5650 4300 5375 4300 
L 5000 4300 
L 5000 3850 
L 4550 3850 
L 4550 4300 
L 3800 4300 
L 3800 3875 
L 3375 3875 
L 3375 4300 
z
M 5275 2075 
L 5275 2525 
L 3200 2525 
L 3200 2075 
L 5275 2075 
z
M 5275 2875 
L 5275 3325 
L 3200 3325 
L 3200 2875 
L 5275 2875 
z
" transform="scale(0.015625)"/>
       <path id="SimHei-578b" d="M 2625 1775 
Q 2650 2325 2650 2700 
L 2650 3000 
L 1825 3000 
Q 1725 2375 1425 2000 
Q 1125 1625 775 1425 
Q 650 1650 375 1900 
Q 850 2075 1062 2362 
Q 1275 2650 1350 3000 
Q 900 3000 375 2975 
L 375 3450 
Q 925 3425 1400 3425 
Q 1425 3950 1425 4475 
Q 1075 4475 700 4450 
L 700 4900 
Q 1050 4875 1525 4875 
L 3000 4875 
Q 3275 4875 3650 4900 
L 3650 4450 
Q 3325 4475 3125 4475 
L 3125 3425 
Q 3450 3425 3825 3450 
L 3825 2975 
Q 3450 3000 3125 3000 
L 3125 2675 
Q 3125 2225 3150 1775 
L 2625 1775 
z
M 3000 1175 
Q 3000 1375 2975 1725 
L 3500 1725 
Q 3475 1375 3475 1175 
L 4550 1175 
Q 5050 1175 5450 1200 
L 5450 725 
Q 4975 750 4550 750 
L 3475 750 
L 3475 -50 
L 5275 -50 
Q 5700 -50 6100 -25 
L 6100 -500 
Q 5725 -475 5300 -475 
L 1250 -475 
Q 775 -475 400 -500 
L 400 -25 
Q 775 -50 1250 -50 
L 3000 -50 
L 3000 750 
L 2025 750 
Q 1500 750 975 725 
L 1050 1200 
Q 1500 1175 2025 1175 
L 3000 1175 
z
M 5775 5200 
Q 5750 4775 5750 4325 
L 5750 2400 
Q 5775 1950 5612 1775 
Q 5450 1600 4900 1525 
Q 4825 1775 4675 2100 
Q 5175 2075 5237 2150 
Q 5300 2225 5300 2525 
L 5300 4325 
Q 5300 4775 5275 5200 
L 5775 5200 
z
M 4600 4750 
Q 4575 4450 4575 3975 
L 4575 3200 
Q 4575 2825 4600 2425 
L 4100 2425 
Q 4125 2825 4125 3200 
L 4125 3975 
Q 4125 4450 4100 4750 
L 4600 4750 
z
M 2650 3425 
L 2650 4475 
L 1875 4475 
Q 1850 3750 1850 3425 
L 2650 3425 
z
" transform="scale(0.015625)"/>
       <path id="SimHei-8f93" d="M 3225 3650 
Q 2725 3100 2550 2950 
L 4100 2950 
Q 4075 2675 4075 2275 
L 4075 -100 
Q 4100 -325 3962 -425 
Q 3825 -525 3475 -600 
Q 3400 -350 3225 -100 
Q 3650 -100 3650 25 
L 3650 675 
L 2975 675 
L 2975 -575 
L 2525 -575 
Q 2550 -125 2550 325 
L 2550 2075 
Q 2550 2500 2525 2925 
L 2375 2800 
Q 2200 3000 1950 3100 
Q 2575 3525 3025 4087 
Q 3475 4650 3775 5300 
Q 4075 5150 4325 5100 
L 4225 4975 
Q 4700 4325 5225 3975 
Q 5750 3625 6200 3475 
Q 5975 3275 5825 3025 
Q 5275 3300 4875 3650 
L 4875 3350 
L 3225 3350 
L 3225 3650 
z
M 2225 825 
Q 1975 775 1725 675 
Q 1725 -100 1750 -650 
L 1275 -650 
Q 1300 -100 1300 575 
Q 725 425 475 325 
Q 400 575 250 825 
Q 650 875 1300 1025 
L 1300 1975 
Q 700 1925 400 1800 
L 225 2225 
Q 425 2350 600 2850 
Q 775 3350 875 3825 
Q 625 3825 350 3800 
L 350 4250 
Q 675 4225 950 4225 
Q 1050 4700 1075 5175 
Q 1400 5075 1675 5025 
Q 1525 4850 1400 4225 
Q 1925 4225 2300 4250 
L 2300 3800 
Q 1850 3825 1325 3825 
Q 1075 2900 825 2325 
L 1300 2375 
Q 1300 2700 1275 3125 
L 1750 3125 
Q 1725 2900 1725 2425 
L 2150 2475 
L 2150 2075 
L 1725 2025 
L 1725 1125 
L 2225 1250 
L 2225 825 
z
M 5775 2925 
Q 5750 2525 5750 2150 
L 5750 -100 
Q 5750 -375 5625 -475 
Q 5500 -575 5000 -675 
Q 4950 -450 4750 -175 
Q 5300 -200 5325 0 
L 5325 2100 
Q 5325 2500 5300 2925 
L 5775 2925 
z
M 4975 2700 
Q 4950 2400 4950 2000 
L 4950 900 
Q 4950 425 4975 125 
L 4475 125 
Q 4500 500 4500 875 
L 4500 2000 
Q 4500 2350 4475 2700 
L 4975 2700 
z
M 4750 3750 
Q 4450 4025 3975 4675 
Q 3575 4075 3300 3750 
L 4750 3750 
z
M 3650 2000 
L 3650 2575 
L 2975 2575 
L 2975 2000 
L 3650 2000 
z
M 3650 1075 
L 3650 1625 
L 2975 1625 
L 2975 1075 
L 3650 1075 
z
" transform="scale(0.015625)"/>
       <path id="SimHei-51fa" d="M 1475 4550 
Q 1450 4225 1450 3950 
L 1450 2950 
L 2925 2950 
L 2925 4425 
Q 2925 4775 2900 5125 
L 3425 5125 
Q 3400 4825 3400 4425 
L 3400 2950 
L 4900 2950 
L 4900 3875 
Q 4900 4275 4875 4525 
L 5400 4525 
Q 5375 4275 5375 3850 
L 5375 3175 
Q 5375 2775 5400 2525 
L 3400 2525 
L 3400 225 
L 5125 225 
L 5125 1275 
Q 5125 1650 5100 1925 
L 5625 1925 
Q 5600 1650 5600 1300 
L 5600 175 
Q 5600 -325 5625 -650 
L 5125 -650 
L 5125 -200 
L 675 -200 
Q 700 100 700 525 
L 700 1275 
Q 700 1700 675 1950 
L 1200 1950 
Q 1175 1700 1175 1275 
L 1175 225 
L 2925 225 
L 2925 2525 
L 950 2525 
Q 975 2775 975 3150 
L 975 3925 
Q 975 4250 950 4550 
L 1475 4550 
z
" transform="scale(0.015625)"/>
      </defs>
      <use xlink:href="#SimHei-6a21"/>
      <use xlink:href="#SimHei-578b" x="100"/>
      <use xlink:href="#SimHei-8f93" x="200"/>
      <use xlink:href="#SimHei-51fa" x="300"/>
     </g>
    </g>
   </g>
  </g>
 </g>
 <defs>
  <clipPath id="p8627a9d100">
   <rect x="49.606299" y="20.409449" width="307.559055" height="128.409449"/>
  </clipPath>
 </defs>
</svg>
