<?xml version="1.0" encoding="utf-8" standalone="no"?>
<!DOCTYPE svg PUBLIC "-//W3C//DTD SVG 1.1//EN"
  "http://www.w3.org/Graphics/SVG/1.1/DTD/svg11.dtd">
<svg xmlns:xlink="http://www.w3.org/1999/xlink" width="283.464567pt" height="170.07874pt" viewBox="0 0 283.464567 170.07874" xmlns="http://www.w3.org/2000/svg" version="1.1">
 <metadata>
  <rdf:RDF xmlns:dc="http://purl.org/dc/elements/1.1/" xmlns:cc="http://creativecommons.org/ns#" xmlns:rdf="http://www.w3.org/1999/02/22-rdf-syntax-ns#">
   <cc:Work>
    <dc:type rdf:resource="http://purl.org/dc/dcmitype/StillImage"/>
    <dc:date>2023-02-23T10:47:01.450330</dc:date>
    <dc:format>image/svg+xml</dc:format>
    <dc:creator>
     <cc:Agent>
      <dc:title>Matplotlib v3.5.2, https://matplotlib.org/</dc:title>
     </cc:Agent>
    </dc:creator>
   </cc:Work>
  </rdf:RDF>
 </metadata>
 <defs>
  <style type="text/css">*{stroke-linejoin: round; stroke-linecap: butt}</style>
 </defs>
 <g id="figure_1">
  <g id="patch_1">
   <path d="M 0 170.07874 
L 283.464567 170.07874 
L 283.464567 0 
L 0 0 
L 0 170.07874 
z
" style="fill: none"/>
  </g>
  <g id="axes_1">
   <g id="patch_2">
    <path d="M 35.433071 148.818898 
L 255.11811 148.818898 
L 255.11811 20.409449 
L 35.433071 20.409449 
z
" style="fill: #ffffff"/>
   </g>
   <g id="matplotlib.axis_1">
    <g id="xtick_1">
     <g id="line2d_1">
      <defs>
       <path id="md3ba4b3ea4" d="M 0 0 
L 0 -3.5 
" style="stroke: #000000; stroke-width: 0.8"/>
      </defs>
      <g>
       <use xlink:href="#md3ba4b3ea4" x="45.418754" y="148.818898" style="stroke: #000000; stroke-width: 0.8"/>
      </g>
     </g>
     <g id="text_1">
      <!-- 0 -->
      <g transform="translate(43.668754 157.131398)scale(0.07 -0.07)">
       <defs>
        <path id="SimHei-30" d="M 225 2537 
Q 250 3200 412 3587 
Q 575 3975 875 4225 
Q 1175 4475 1612 4475 
Q 2050 4475 2375 4112 
Q 2700 3750 2800 3200 
Q 2900 2650 2862 1937 
Q 2825 1225 2612 775 
Q 2400 325 1975 150 
Q 1550 -25 1125 187 
Q 700 400 525 750 
Q 350 1100 275 1487 
Q 200 1875 225 2537 
z
M 750 2687 
Q 675 2000 800 1462 
Q 925 925 1212 700 
Q 1500 475 1800 612 
Q 2100 750 2237 1162 
Q 2375 1575 2375 2062 
Q 2375 2550 2337 2950 
Q 2300 3350 2112 3675 
Q 1925 4000 1612 4012 
Q 1300 4025 1062 3700 
Q 825 3375 750 2687 
z
" transform="scale(0.015625)"/>
       </defs>
       <use xlink:href="#SimHei-30"/>
      </g>
     </g>
    </g>
    <g id="xtick_2">
     <g id="line2d_2">
      <g>
       <use xlink:href="#md3ba4b3ea4" x="85.265856" y="148.818898" style="stroke: #000000; stroke-width: 0.8"/>
      </g>
     </g>
     <g id="text_2">
      <!-- 1000 -->
      <g transform="translate(78.265856 157.131398)scale(0.07 -0.07)">
       <defs>
        <path id="SimHei-31" d="M 1400 3600 
Q 1075 3275 575 2975 
L 575 3450 
Q 1200 3875 1600 4450 
L 1900 4450 
L 1900 150 
L 1400 150 
L 1400 3600 
z
" transform="scale(0.015625)"/>
       </defs>
       <use xlink:href="#SimHei-31"/>
       <use xlink:href="#SimHei-30" x="50"/>
       <use xlink:href="#SimHei-30" x="100"/>
       <use xlink:href="#SimHei-30" x="150"/>
      </g>
     </g>
    </g>
    <g id="xtick_3">
     <g id="line2d_3">
      <g>
       <use xlink:href="#md3ba4b3ea4" x="125.112957" y="148.818898" style="stroke: #000000; stroke-width: 0.8"/>
      </g>
     </g>
     <g id="text_3">
      <!-- 2000 -->
      <g transform="translate(118.112957 157.131398)scale(0.07 -0.07)">
       <defs>
        <path id="SimHei-32" d="M 300 250 
Q 325 625 650 925 
Q 975 1225 1475 1862 
Q 1975 2500 2125 2850 
Q 2275 3200 2237 3450 
Q 2200 3700 2000 3862 
Q 1800 4025 1537 4000 
Q 1275 3975 1037 3800 
Q 800 3625 675 3275 
L 200 3350 
Q 400 3925 712 4187 
Q 1025 4450 1450 4475 
Q 1700 4500 1900 4462 
Q 2100 4425 2312 4287 
Q 2525 4150 2662 3875 
Q 2800 3600 2762 3212 
Q 2725 2825 2375 2287 
Q 2025 1750 1025 600 
L 2825 600 
L 2825 150 
L 300 150 
L 300 250 
z
" transform="scale(0.015625)"/>
       </defs>
       <use xlink:href="#SimHei-32"/>
       <use xlink:href="#SimHei-30" x="50"/>
       <use xlink:href="#SimHei-30" x="100"/>
       <use xlink:href="#SimHei-30" x="150"/>
      </g>
     </g>
    </g>
    <g id="xtick_4">
     <g id="line2d_4">
      <g>
       <use xlink:href="#md3ba4b3ea4" x="164.960059" y="148.818898" style="stroke: #000000; stroke-width: 0.8"/>
      </g>
     </g>
     <g id="text_4">
      <!-- 3000 -->
      <g transform="translate(157.960059 157.131398)scale(0.07 -0.07)">
       <defs>
        <path id="SimHei-33" d="M 250 1225 
L 700 1300 
Q 800 975 1025 762 
Q 1250 550 1587 562 
Q 1925 575 2125 837 
Q 2325 1100 2300 1437 
Q 2275 1775 2037 1962 
Q 1800 2150 1275 2225 
L 1275 2550 
Q 1800 2600 2037 2825 
Q 2275 3050 2250 3412 
Q 2225 3775 1925 3937 
Q 1625 4100 1287 3975 
Q 950 3850 750 3275 
L 300 3350 
Q 450 3800 712 4100 
Q 975 4400 1425 4450 
Q 1875 4500 2212 4337 
Q 2550 4175 2687 3837 
Q 2825 3500 2725 3100 
Q 2625 2700 2150 2400 
Q 2500 2250 2687 1950 
Q 2875 1650 2812 1162 
Q 2750 675 2375 375 
Q 2000 75 1525 87 
Q 1050 100 700 387 
Q 350 675 250 1225 
z
" transform="scale(0.015625)"/>
       </defs>
       <use xlink:href="#SimHei-33"/>
       <use xlink:href="#SimHei-30" x="50"/>
       <use xlink:href="#SimHei-30" x="100"/>
       <use xlink:href="#SimHei-30" x="150"/>
      </g>
     </g>
    </g>
    <g id="xtick_5">
     <g id="line2d_5">
      <g>
       <use xlink:href="#md3ba4b3ea4" x="204.80716" y="148.818898" style="stroke: #000000; stroke-width: 0.8"/>
      </g>
     </g>
     <g id="text_5">
      <!-- 4000 -->
      <g transform="translate(197.80716 157.131398)scale(0.07 -0.07)">
       <defs>
        <path id="SimHei-34" d="M 2000 1100 
L 75 1100 
L 75 1525 
L 2100 4450 
L 2475 4450 
L 2475 1525 
L 3075 1525 
L 3075 1100 
L 2475 1100 
L 2475 150 
L 2000 150 
L 2000 1100 
z
M 2000 1525 
L 2000 3500 
L 600 1525 
L 2000 1525 
z
" transform="scale(0.015625)"/>
       </defs>
       <use xlink:href="#SimHei-34"/>
       <use xlink:href="#SimHei-30" x="50"/>
       <use xlink:href="#SimHei-30" x="100"/>
       <use xlink:href="#SimHei-30" x="150"/>
      </g>
     </g>
    </g>
    <g id="xtick_6">
     <g id="line2d_6">
      <g>
       <use xlink:href="#md3ba4b3ea4" x="244.654261" y="148.818898" style="stroke: #000000; stroke-width: 0.8"/>
      </g>
     </g>
     <g id="text_6">
      <!-- 5000 -->
      <g transform="translate(237.654261 157.131398)scale(0.07 -0.07)">
       <defs>
        <path id="SimHei-35" d="M 550 1325 
Q 725 650 1150 575 
Q 1575 500 1837 662 
Q 2100 825 2212 1087 
Q 2325 1350 2312 1675 
Q 2300 2000 2137 2225 
Q 1975 2450 1725 2525 
Q 1475 2600 1162 2525 
Q 850 2450 650 2175 
L 225 2225 
Q 275 2375 700 4375 
L 2675 4375 
L 2675 3925 
L 1075 3925 
Q 950 3250 825 2850 
Q 1200 3025 1525 3012 
Q 1850 3000 2150 2862 
Q 2450 2725 2587 2487 
Q 2725 2250 2787 2012 
Q 2850 1775 2837 1500 
Q 2825 1225 2725 937 
Q 2625 650 2425 462 
Q 2225 275 1937 162 
Q 1650 50 1275 75 
Q 900 100 562 350 
Q 225 600 100 1200 
L 550 1325 
z
" transform="scale(0.015625)"/>
       </defs>
       <use xlink:href="#SimHei-35"/>
       <use xlink:href="#SimHei-30" x="50"/>
       <use xlink:href="#SimHei-30" x="100"/>
       <use xlink:href="#SimHei-30" x="150"/>
      </g>
     </g>
    </g>
    <g id="text_7">
     <!-- 时间 -->
     <g transform="translate(138.275591 167.611866)scale(0.07 -0.07)">
      <defs>
       <path id="SimHei-65f6" d="M 2525 4575 
Q 2500 3675 2500 2400 
Q 2500 1125 2525 400 
L 2000 400 
L 2000 875 
L 1000 875 
L 1000 50 
L 475 50 
Q 500 1200 500 2350 
Q 500 3525 475 4575 
L 2525 4575 
z
M 4875 3825 
Q 4875 4575 4850 5225 
L 5400 5225 
Q 5375 4575 5375 3825 
Q 5750 3825 6175 3850 
L 6175 3375 
Q 5750 3400 5375 3400 
L 5375 50 
Q 5375 -325 5075 -425 
Q 4775 -525 4300 -575 
Q 4300 -275 4025 0 
Q 4500 -50 4687 -25 
Q 4875 0 4875 300 
L 4875 3400 
Q 3625 3400 2775 3375 
L 2775 3850 
Q 3575 3825 4875 3825 
z
M 2000 1300 
L 2000 2550 
L 1000 2550 
L 1000 1300 
L 2000 1300 
z
M 2000 2975 
L 2000 4150 
L 1000 4150 
L 1000 2975 
L 2000 2975 
z
M 3550 2725 
Q 3875 2200 4175 1600 
Q 3925 1525 3650 1375 
Q 3450 1975 3075 2500 
Q 3300 2600 3550 2725 
z
" transform="scale(0.015625)"/>
       <path id="SimHei-95f4" d="M 4450 3550 
Q 4425 3075 4425 2725 
L 4425 1400 
Q 4425 1075 4450 625 
L 1925 625 
Q 1950 1075 1950 1425 
L 1950 2725 
Q 1950 3075 1925 3550 
L 4450 3550 
z
M 5800 4875 
Q 5775 4400 5775 3925 
L 5775 250 
Q 5800 -325 5462 -450 
Q 5125 -575 4725 -625 
Q 4700 -325 4525 -25 
Q 5000 -50 5137 25 
Q 5275 100 5275 350 
L 5275 4450 
L 3775 4450 
Q 3175 4450 2650 4425 
L 2650 4900 
Q 3175 4875 3775 4875 
L 5800 4875 
z
M 550 -525 
Q 600 -25 600 525 
L 600 3150 
Q 600 3675 550 4025 
L 1125 4025 
Q 1100 3650 1100 3300 
L 1100 500 
Q 1100 0 1125 -525 
L 550 -525 
z
M 3950 1025 
L 3950 1950 
L 2425 1950 
L 2425 1025 
L 3950 1025 
z
M 3950 2350 
L 3950 3150 
L 2425 3150 
L 2425 2350 
L 3950 2350 
z
M 1525 5300 
Q 1750 5000 2225 4350 
Q 1950 4225 1700 4075 
Q 1450 4575 1075 5025 
Q 1350 5225 1525 5300 
z
" transform="scale(0.015625)"/>
      </defs>
      <use xlink:href="#SimHei-65f6"/>
      <use xlink:href="#SimHei-95f4" x="100"/>
     </g>
    </g>
   </g>
   <g id="matplotlib.axis_2">
    <g id="ytick_1">
     <g id="line2d_7">
      <defs>
       <path id="m8e81adb555" d="M 0 0 
L 3.5 0 
" style="stroke: #000000; stroke-width: 0.8"/>
      </defs>
      <g>
       <use xlink:href="#m8e81adb555" x="35.433071" y="144.911325" style="stroke: #000000; stroke-width: 0.8"/>
      </g>
     </g>
     <g id="text_8">
      <!-- -6 -->
      <g transform="translate(24.933071 147.317575)scale(0.07 -0.07)">
       <defs>
        <path id="SimHei-2d" d="M 2975 2125 
L 125 2125 
L 125 2525 
L 2975 2525 
L 2975 2125 
z
" transform="scale(0.015625)"/>
        <path id="SimHei-36" d="M 250 1612 
Q 275 1975 387 2225 
Q 500 2475 725 2850 
L 1750 4450 
L 2325 4450 
L 1275 2800 
Q 1950 2975 2350 2750 
Q 2750 2525 2887 2237 
Q 3025 1950 3037 1612 
Q 3050 1275 2937 950 
Q 2825 625 2537 362 
Q 2250 100 1737 75 
Q 1225 50 862 262 
Q 500 475 362 862 
Q 225 1250 250 1612 
z
M 1025 787 
Q 1250 550 1625 525 
Q 2000 500 2250 775 
Q 2500 1050 2500 1575 
Q 2500 2100 2187 2300 
Q 1875 2500 1487 2450 
Q 1100 2400 925 2075 
Q 750 1750 775 1387 
Q 800 1025 1025 787 
z
" transform="scale(0.015625)"/>
       </defs>
       <use xlink:href="#SimHei-2d"/>
       <use xlink:href="#SimHei-36" x="50"/>
      </g>
     </g>
    </g>
    <g id="ytick_2">
     <g id="line2d_8">
      <g>
       <use xlink:href="#m8e81adb555" x="35.433071" y="129.697853" style="stroke: #000000; stroke-width: 0.8"/>
      </g>
     </g>
     <g id="text_9">
      <!-- -5 -->
      <g transform="translate(24.933071 132.104103)scale(0.07 -0.07)">
       <use xlink:href="#SimHei-2d"/>
       <use xlink:href="#SimHei-35" x="50"/>
      </g>
     </g>
    </g>
    <g id="ytick_3">
     <g id="line2d_9">
      <g>
       <use xlink:href="#m8e81adb555" x="35.433071" y="114.484381" style="stroke: #000000; stroke-width: 0.8"/>
      </g>
     </g>
     <g id="text_10">
      <!-- -4 -->
      <g transform="translate(24.933071 116.890631)scale(0.07 -0.07)">
       <use xlink:href="#SimHei-2d"/>
       <use xlink:href="#SimHei-34" x="50"/>
      </g>
     </g>
    </g>
    <g id="ytick_4">
     <g id="line2d_10">
      <g>
       <use xlink:href="#m8e81adb555" x="35.433071" y="99.270908" style="stroke: #000000; stroke-width: 0.8"/>
      </g>
     </g>
     <g id="text_11">
      <!-- -3 -->
      <g transform="translate(24.933071 101.677158)scale(0.07 -0.07)">
       <use xlink:href="#SimHei-2d"/>
       <use xlink:href="#SimHei-33" x="50"/>
      </g>
     </g>
    </g>
    <g id="ytick_5">
     <g id="line2d_11">
      <g>
       <use xlink:href="#m8e81adb555" x="35.433071" y="84.057436" style="stroke: #000000; stroke-width: 0.8"/>
      </g>
     </g>
     <g id="text_12">
      <!-- -2 -->
      <g transform="translate(24.933071 86.463686)scale(0.07 -0.07)">
       <use xlink:href="#SimHei-2d"/>
       <use xlink:href="#SimHei-32" x="50"/>
      </g>
     </g>
    </g>
    <g id="ytick_6">
     <g id="line2d_12">
      <g>
       <use xlink:href="#m8e81adb555" x="35.433071" y="68.843964" style="stroke: #000000; stroke-width: 0.8"/>
      </g>
     </g>
     <g id="text_13">
      <!-- -1 -->
      <g transform="translate(24.933071 71.250214)scale(0.07 -0.07)">
       <use xlink:href="#SimHei-2d"/>
       <use xlink:href="#SimHei-31" x="50"/>
      </g>
     </g>
    </g>
    <g id="ytick_7">
     <g id="line2d_13">
      <g>
       <use xlink:href="#m8e81adb555" x="35.433071" y="53.630492" style="stroke: #000000; stroke-width: 0.8"/>
      </g>
     </g>
     <g id="text_14">
      <!-- 0 -->
      <g transform="translate(28.433071 56.036742)scale(0.07 -0.07)">
       <use xlink:href="#SimHei-30"/>
      </g>
     </g>
    </g>
    <g id="ytick_8">
     <g id="line2d_14">
      <g>
       <use xlink:href="#m8e81adb555" x="35.433071" y="38.41702" style="stroke: #000000; stroke-width: 0.8"/>
      </g>
     </g>
     <g id="text_15">
      <!-- 1 -->
      <g transform="translate(28.433071 40.82327)scale(0.07 -0.07)">
       <use xlink:href="#SimHei-31"/>
      </g>
     </g>
    </g>
    <g id="ytick_9">
     <g id="line2d_15">
      <g>
       <use xlink:href="#m8e81adb555" x="35.433071" y="23.203548" style="stroke: #000000; stroke-width: 0.8"/>
      </g>
     </g>
     <g id="text_16">
      <!-- 2 -->
      <g transform="translate(28.433071 25.609798)scale(0.07 -0.07)">
       <use xlink:href="#SimHei-32"/>
      </g>
     </g>
    </g>
    <g id="text_17">
     <!-- 液位 -->
     <g transform="translate(20.058071 91.614173)rotate(-90)scale(0.07 -0.07)">
      <defs>
       <path id="SimHei-6db2" d="M 4800 3775 
Q 4625 3575 4500 3250 
L 5950 3250 
Q 5825 2550 5587 1737 
Q 5350 925 5025 500 
Q 5600 0 6200 -150 
Q 5875 -375 5800 -600 
Q 5175 -275 4700 175 
Q 4300 -200 3675 -600 
Q 3525 -375 3175 -200 
Q 3875 25 4400 525 
Q 4100 875 3725 1725 
Q 3650 1575 3500 1325 
Q 3325 1525 3100 1700 
Q 3375 1975 3725 2700 
Q 4075 3425 4200 3950 
Q 4450 3850 4800 3775 
z
M 3600 3725 
Q 3475 3600 3337 3337 
Q 3200 3075 2975 2675 
L 2975 250 
Q 2975 -100 3000 -625 
L 2475 -625 
Q 2500 -25 2500 325 
L 2500 2100 
Q 2300 1825 2000 1475 
Q 1875 1650 1625 1850 
Q 1925 2100 2200 2450 
Q 2475 2800 2712 3225 
Q 2950 3650 3025 3925 
Q 3350 3775 3600 3725 
z
M 4275 5300 
Q 4400 4975 4500 4550 
L 5275 4550 
Q 5650 4550 6100 4600 
L 6100 4125 
Q 5750 4150 5275 4150 
L 3025 4150 
Q 2625 4150 2175 4100 
L 2175 4600 
Q 2500 4550 2875 4550 
L 3925 4550 
Q 3875 4850 3725 5175 
Q 4025 5225 4275 5300 
z
M 4025 2200 
Q 4300 1400 4700 850 
Q 5125 1375 5375 2825 
L 4300 2825 
Q 4150 2475 4025 2200 
z
M 1550 1600 
Q 1325 875 1175 287 
Q 1025 -300 925 -625 
Q 650 -450 300 -375 
Q 500 -50 687 450 
Q 875 950 1100 1925 
Q 1325 1725 1550 1600 
z
M 550 3500 
Q 1200 3150 1625 2925 
Q 1400 2650 1300 2450 
Q 875 2725 275 3050 
Q 425 3300 550 3500 
z
M 975 5025 
Q 1400 4675 1950 4275 
Q 1775 4100 1600 3850 
Q 1175 4250 675 4625 
Q 850 4825 975 5025 
z
M 4850 2500 
Q 4925 2150 4975 1750 
Q 4700 1725 4525 1675 
Q 4475 2100 4400 2425 
Q 4575 2475 4850 2500 
z
" transform="scale(0.015625)"/>
       <path id="SimHei-4f4d" d="M 2125 4925 
Q 1950 4750 1625 3750 
L 1625 575 
Q 1625 -225 1650 -650 
L 1100 -650 
Q 1150 -200 1150 550 
L 1150 2950 
Q 775 2275 550 1950 
Q 375 2275 200 2425 
Q 525 2775 912 3575 
Q 1300 4375 1500 5200 
Q 1825 5000 2125 4925 
z
M 5375 3025 
Q 5275 2875 5100 2250 
Q 4925 1625 4600 300 
L 5450 300 
Q 5925 300 6100 325 
L 6100 -175 
Q 5875 -150 5450 -150 
L 2900 -150 
Q 2275 -150 2050 -175 
L 2050 325 
Q 2275 300 2850 300 
L 4075 300 
Q 4400 1400 4700 3175 
Q 5100 3075 5375 3025 
z
M 5250 4025 
Q 5700 4025 5925 4050 
L 5925 3575 
Q 5700 3600 5225 3600 
L 3000 3600 
Q 2650 3600 2275 3575 
L 2275 4050 
Q 2675 4025 3000 4025 
L 5250 4025 
z
M 3050 3050 
Q 3500 1775 3750 725 
Q 3450 625 3250 550 
Q 3125 1125 2962 1675 
Q 2800 2225 2550 2875 
Q 2800 2925 3050 3050 
z
M 3875 5200 
Q 4175 4675 4400 4300 
Q 4200 4250 3875 4075 
Q 3700 4525 3400 4950 
Q 3650 5050 3875 5200 
z
" transform="scale(0.015625)"/>
      </defs>
      <use xlink:href="#SimHei-6db2"/>
      <use xlink:href="#SimHei-4f4d" x="100"/>
     </g>
    </g>
   </g>
   <g id="line2d_16">
    <path d="M 45.418754 52.17989 
L 50.997349 52.290562 
L 51.595055 52.303048 
L 52.152915 57.61525 
L 52.790468 64.379662 
L 52.949857 67.332916 
L 55.1016 89.313387 
L 55.260989 94.488249 
L 56.456402 104.684775 
L 56.974414 108.123324 
L 57.253344 114.979883 
L 57.811203 137.857599 
L 58.050286 142.085118 
L 58.249521 142.924141 
L 58.289368 142.982105 
L 58.329215 142.939963 
L 58.568298 142.787676 
L 59.006616 142.583664 
L 61.477136 142.585946 
L 63.748421 142.7145 
L 64.505516 142.777483 
L 68.649615 142.75375 
L 68.689462 142.795283 
L 68.729309 142.752837 
L 68.809003 142.67038 
L 68.84885 142.722411 
L 68.888697 142.761661 
L 68.928544 142.695178 
L 69.008238 142.70385 
L 69.087933 142.773528 
L 69.12778 142.709935 
L 69.207474 142.683616 
L 69.287168 142.780222 
L 69.327015 142.725453 
L 69.40671 142.667034 
L 69.446557 142.733212 
L 69.486404 142.779917 
L 69.526251 142.740362 
L 69.605945 142.655319 
L 69.645792 142.711913 
L 69.725486 142.753902 
L 69.805181 142.649538 
L 69.845028 142.691679 
L 69.924722 142.7644 
L 69.964569 142.700655 
L 70.044263 142.673727 
L 70.123957 142.770637 
L 70.163804 142.7145 
L 70.243499 142.658362 
L 70.283346 142.726518 
L 70.323193 142.771094 
L 70.36304 142.727887 
L 70.442734 142.647256 
L 70.482581 142.707958 
L 70.562275 142.740362 
L 70.64197 142.64041 
L 70.681817 142.689854 
L 70.801358 142.764248 
L 70.920899 142.637519 
L 70.960746 142.693201 
L 71.040441 142.741123 
L 71.120135 142.633412 
L 71.159982 142.677227 
L 71.239676 142.749643 
L 71.279523 142.68316 
L 71.359217 142.662469 
L 71.438912 142.755424 
L 71.478759 142.693961 
L 71.558453 142.649538 
L 71.638147 142.758162 
L 71.677994 142.704763 
L 71.757688 142.638889 
L 71.797536 142.707653 
L 71.837383 142.757249 
L 71.87723 142.714804 
L 71.956924 142.630065 
L 71.996771 142.69244 
L 72.036618 142.750555 
L 72.076465 142.720281 
L 72.15616 142.62261 
L 72.196007 142.681791 
L 72.275701 142.719064 
L 72.355395 142.617742 
L 72.395242 142.664904 
L 72.474936 142.725605 
L 72.514783 142.663078 
L 72.594478 142.648625 
L 72.674172 142.731843 
L 72.714019 142.674032 
L 72.793713 142.635998 
L 72.873407 142.736711 
L 72.913254 142.684681 
L 72.992949 142.625349 
L 73.032796 142.693961 
L 73.072643 142.73808 
L 73.11249 142.694418 
L 73.152337 142.644365 
L 73.192184 142.716934 
L 73.271878 142.668251 
L 73.351573 142.634325 
L 73.431267 142.734429 
L 73.471114 142.674792 
L 73.550808 142.632043 
L 73.630502 142.734277 
L 73.670349 142.673119 
L 73.750044 142.62474 
L 73.829738 142.735951 
L 73.869585 142.677987 
L 73.949279 142.618655 
L 73.989126 142.692896 
L 74.028973 142.736559 
L 74.06882 142.682399 
L 74.148515 142.61333 
L 74.188362 142.686659 
L 74.228209 142.736255 
L 74.268056 142.686202 
L 74.34775 142.608918 
L 74.387597 142.680878 
L 74.427444 142.735494 
L 74.467291 142.689549 
L 74.546986 142.605115 
L 74.586833 142.675553 
L 74.62668 142.734125 
L 74.666527 142.69244 
L 74.746221 142.60192 
L 74.786068 142.670533 
L 74.825915 142.732299 
L 74.865762 142.695026 
L 74.945457 142.599029 
L 74.985304 142.665816 
L 75.025151 142.730626 
L 75.064998 142.697613 
L 75.144692 142.597052 
L 75.184539 142.662013 
L 75.224386 142.729257 
L 75.264233 142.700199 
L 75.343928 142.595226 
L 75.383775 142.66749 
L 75.423622 142.731691 
L 75.463469 142.695635 
L 75.543163 142.597356 
L 75.58301 142.665512 
L 75.622857 142.731082 
L 75.662704 142.695787 
L 75.742399 142.593248 
L 75.782246 142.660187 
L 75.822093 142.726822 
L 75.86194 142.693201 
L 75.941634 142.59051 
L 75.981481 142.655471 
L 76.021328 142.723323 
L 76.061175 142.694722 
L 76.14087 142.591118 
L 76.180717 142.649842 
L 76.260411 142.69959 
L 76.340105 142.592944 
L 76.379952 142.639954 
L 76.459646 142.70598 
L 76.499494 142.645887 
L 76.579188 142.627326 
L 76.658882 142.71237 
L 76.698729 142.661557 
L 76.778423 142.614243 
L 76.81827 142.682247 
L 76.897965 142.677379 
L 76.977659 142.606484 
L 77.017506 142.657145 
L 77.0972 142.692896 
L 77.137047 142.651516 
L 77.216741 142.630217 
L 77.256588 142.690767 
L 77.37613 142.637671 
L 77.455824 142.657905 
L 77.575365 142.660644 
L 77.694907 142.675249 
L 77.933989 142.694266 
L 78.292613 142.640106 
L 78.730931 142.67175 
L 79.049708 142.648929 
L 79.288791 142.655471 
L 81.36084 142.676162 
L 81.719464 142.67388 
L 81.958546 142.664143 
L 82.357017 142.693049 
L 83.353195 142.668098 
L 83.592278 142.669011 
L 89.05133 142.623675 
L 89.091178 142.575753 
L 89.131025 142.618655 
L 89.210719 142.695635 
L 89.250566 142.621089 
L 89.290413 142.573471 
L 89.33026 142.618807 
L 89.409954 142.694418 
L 89.449802 142.617742 
L 89.489649 142.571341 
L 89.529496 142.619567 
L 89.60919 142.692136 
L 89.649037 142.566625 
L 89.688884 142.615916 
L 89.768578 142.688484 
L 89.808425 142.610287 
L 89.848273 142.565408 
L 89.88812 142.617285 
L 89.967814 142.684833 
L 90.007661 142.607245 
L 90.047508 142.564495 
L 90.087355 142.618198 
L 90.167049 142.681334 
L 90.246744 142.563734 
L 90.286591 142.618959 
L 90.326438 142.694418 
L 90.366285 142.670989 
L 90.445979 142.564495 
L 90.485826 142.627935 
L 90.525673 142.697308 
L 90.56552 142.668098 
L 90.645215 142.564038 
L 90.685062 142.628239 
L 90.724909 142.696396 
L 90.764756 142.665512 
L 90.84445 142.563582 
L 90.884297 142.629 
L 90.924144 142.695939 
L 90.963991 142.663078 
L 91.043686 142.56343 
L 91.083533 142.630369 
L 91.12338 142.696091 
L 91.163227 142.660644 
L 91.242921 142.563734 
L 91.282768 142.633107 
L 91.322615 142.697156 
L 91.362462 142.657601 
L 91.442157 142.564647 
L 91.482004 142.637367 
L 91.521851 142.698678 
L 91.561698 142.653189 
L 91.601545 142.556584 
L 91.641392 142.608005 
L 91.721086 142.6789 
L 91.80078 142.555062 
L 91.840628 142.61333 
L 91.920322 142.670228 
L 92.000016 142.553085 
L 92.039863 142.617285 
L 92.07971 142.69031 
L 92.119557 142.660492 
L 92.199252 142.553541 
L 92.239099 142.620785 
L 92.278946 142.689245 
L 92.318793 142.655319 
L 92.398487 142.556279 
L 92.438334 142.622306 
L 92.478181 142.68742 
L 92.518028 142.654711 
L 92.597723 142.557953 
L 92.63757 142.61759 
L 92.677417 142.682095 
L 92.717264 142.65608 
L 92.796958 142.559626 
L 92.836805 142.603745 
L 92.916499 142.659427 
L 92.956346 142.613938 
L 93.036041 142.586402 
L 93.115735 142.665664 
L 93.155582 142.633868 
L 93.275123 142.622458 
L 93.394665 142.625044 
L 93.514206 142.644061 
L 93.633747 142.621697 
L 93.753288 142.657905 
L 94.789313 142.598573 
L 95.227631 142.569059 
L 95.307325 142.648169 
L 95.347173 142.606788 
L 95.426867 142.523723 
L 95.466714 142.561148 
L 95.546408 142.558409 
L 95.626102 142.519919 
L 95.665949 142.55491 
L 95.745644 142.544565 
L 95.865185 142.49786 
L 95.944879 142.523114 
L 95.984726 142.47078 
L 96.303503 142.416772 
L 96.502738 142.438375 
L 96.980904 142.351354 
L 97.419222 142.369458 
L 97.85754 142.351658 
L 98.893565 142.345725 
L 101.523473 142.305866 
L 104.671394 142.159664 
L 106.225431 141.824359 
L 107.460691 141.374041 
L 108.496716 140.820879 
L 108.974881 140.30286 
L 109.971059 138.676996 
L 112.441579 134.300689 
L 117.820938 124.376637 
L 117.980326 123.288417 
L 119.255433 121.121714 
L 121.0884 117.951683 
L 122.124425 115.924792 
L 122.32366 115.364936 
L 124.515251 110.635068 
L 124.754333 109.99808 
L 125.192651 108.714519 
L 125.710664 107.516458 
L 127.703019 102.402145 
L 128.978126 98.680474 
L 129.217209 97.92269 
L 129.33675 96.758099 
L 130.093845 96.089315 
L 130.85094 95.98419 
L 133.998861 95.706544 
L 136.031063 95.24801 
L 139.896232 94.240574 
L 141.56981 93.860541 
L 145.036508 93.126796 
L 147.905499 92.855387 
L 148.064888 92.702035 
L 149.061065 92.521756 
L 149.778313 92.646202 
L 150.575255 93.017563 
L 152.886387 94.36928 
L 154.440424 94.660618 
L 158.385287 94.926245 
L 160.138559 95.11048 
L 162.409844 95.40623 
L 162.848162 95.308712 
L 164.880364 94.948609 
L 167.032108 94.714017 
L 168.625992 94.841354 
L 169.303393 94.802864 
L 170.817583 94.669898 
L 173.367797 94.236162 
L 173.925656 94.223687 
L 179.942569 92.641942 
L 180.022263 92.609842 
L 180.181651 92.323524 
L 182.771713 90.642436 
L 186.238411 88.433744 
L 188.31046 87.434523 
L 191.538075 86.040969 
L 195.562633 84.53164 
L 197.993306 83.804588 
L 202.735111 82.526352 
L 207.715998 81.252528 
L 210.226366 80.587547 
L 210.385754 80.398292 
L 212.139027 79.912221 
L 212.298415 79.735137 
L 214.768935 78.925019 
L 223.057132 75.762595 
L 223.176674 75.983342 
L 223.575145 76.847467 
L 224.013463 76.360941 
L 224.651017 75.614111 
L 224.890099 75.314558 
L 227.001995 70.840276 
L 228.755268 67.006055 
L 229.990528 66.132254 
L 230.388999 65.800022 
L 230.548388 65.501808 
L 233.018908 63.412207 
L 241.625882 59.930801 
L 244.455026 59.219496 
L 245.132427 59.069171 
L 245.132427 59.069171 
" clip-path="url(#p7f07b0a59d)" style="fill: none; stroke: #ff0000; stroke-width: 1.5; stroke-linecap: square"/>
   </g>
   <g id="line2d_17">
    <path d="M 45.418754 53.629218 
L 51.634902 53.576984 
L 53.029551 51.050911 
L 53.667104 50.574273 
L 54.384352 50.319721 
L 55.1016 50.271935 
L 55.300836 50.335375 
L 56.137625 50.524525 
L 56.416554 50.969306 
L 56.934567 51.19947 
L 57.133802 51.229806 
L 57.811203 64.559211 
L 58.169827 69.190831 
L 58.568298 73.207188 
L 58.767533 73.259826 
L 58.966769 73.283559 
L 59.126157 73.449843 
L 59.205852 74.211125 
L 59.444934 76.885958 
L 59.723864 77.806068 
L 59.883252 77.805003 
L 60.122335 77.472741 
L 60.759889 76.079187 
L 62.194384 72.429932 
L 62.991326 70.373679 
L 66.497871 62.00382 
L 68.84885 56.834966 
L 69.008238 55.499376 
L 70.761511 51.768964 
L 70.920899 51.150932 
L 72.196007 48.502517 
L 74.825915 43.324931 
L 75.383775 42.543355 
L 77.0972 40.917597 
L 79.009861 40.415233 
L 80.643592 39.041381 
L 83.990749 36.335588 
L 86.142492 35.138212 
L 89.370107 33.531441 
L 89.60919 33.417264 
L 89.768578 33.131555 
L 94.231454 30.900652 
L 97.100445 29.008552 
L 101.403932 26.246242 
L 245.132427 26.246242 
L 245.132427 26.246242 
" clip-path="url(#p7f07b0a59d)" style="fill: none; stroke: #0000ff; stroke-width: 1.5; stroke-linecap: square"/>
   </g>
   <g id="patch_3">
    <path d="M 35.433071 148.818898 
L 35.433071 20.409449 
" style="fill: none; stroke: #000000; stroke-linejoin: miter; stroke-linecap: square"/>
   </g>
   <g id="patch_4">
    <path d="M 255.11811 148.818898 
L 255.11811 20.409449 
" style="fill: none; stroke: #000000; stroke-linejoin: miter; stroke-linecap: square"/>
   </g>
   <g id="patch_5">
    <path d="M 35.433071 148.818898 
L 255.11811 148.818898 
" style="fill: none; stroke: #000000; stroke-linejoin: miter; stroke-linecap: square"/>
   </g>
   <g id="patch_6">
    <path d="M 35.433071 20.409449 
L 255.11811 20.409449 
" style="fill: none; stroke: #000000; stroke-linejoin: miter; stroke-linecap: square"/>
   </g>
   <g id="legend_1">
    <g id="patch_7">
     <path d="M 201.71811 145.818898 
L 250.91811 145.818898 
Q 252.11811 145.818898 252.11811 144.618898 
L 252.11811 127.94546 
Q 252.11811 126.74546 250.91811 126.74546 
L 201.71811 126.74546 
Q 200.51811 126.74546 200.51811 127.94546 
L 200.51811 144.618898 
Q 200.51811 145.818898 201.71811 145.818898 
z
" style="fill: #ffffff; opacity: 0.8; stroke: #cccccc; stroke-linejoin: miter"/>
    </g>
    <g id="line2d_18">
     <path d="M 202.91811 131.897023 
L 208.91811 131.897023 
L 214.91811 131.897023 
" style="fill: none; stroke: #ff0000; stroke-width: 1.5; stroke-linecap: square"/>
    </g>
    <g id="text_18">
     <!-- 稳压器水位 -->
     <g transform="translate(219.71811 133.997023)scale(0.06 -0.06)">
      <defs>
       <path id="SimHei-7a33" d="M 4050 5125 
Q 3875 4975 3675 4625 
L 5325 4625 
Q 5200 4450 5062 4212 
Q 4925 3975 4800 3650 
L 5625 3650 
Q 5600 3350 5600 2600 
Q 5600 1875 5625 1425 
L 3425 1425 
Q 3075 1425 2750 1400 
L 2750 1850 
Q 3075 1825 3450 1825 
L 5100 1825 
L 5100 2375 
L 3550 2375 
Q 3175 2375 2875 2350 
L 2875 2775 
Q 3175 2750 3525 2750 
L 5100 2750 
L 5100 3275 
L 3775 3275 
Q 3350 3275 3050 3250 
L 3050 3650 
Q 2875 3425 2725 3200 
Q 2525 3400 2350 3475 
Q 2675 3875 2987 4412 
Q 3300 4950 3400 5300 
Q 3725 5200 4050 5125 
z
M 2500 4575 
Q 2275 4575 2012 4512 
Q 1750 4450 1625 4450 
L 1625 3350 
Q 1975 3350 2375 3375 
L 2375 2950 
Q 1925 2975 1625 2975 
L 1625 2225 
Q 1775 2325 1950 2500 
Q 2225 2100 2525 1600 
Q 2300 1500 2150 1350 
Q 1950 1725 1625 2175 
L 1625 400 
Q 1625 25 1650 -625 
L 1150 -625 
Q 1200 25 1200 400 
L 1200 2075 
Q 875 1250 475 650 
Q 375 925 175 1125 
Q 325 1250 650 1887 
Q 975 2525 1050 2975 
Q 750 2975 275 2950 
L 275 3375 
Q 750 3350 1200 3350 
L 1200 4325 
Q 950 4275 550 4200 
Q 475 4425 275 4625 
Q 750 4675 1237 4775 
Q 1725 4875 2125 5075 
Q 2275 4775 2500 4575 
z
M 3675 1025 
Q 3650 700 3650 300 
Q 3650 -75 3775 -100 
Q 3900 -125 4250 -125 
Q 4600 -125 4687 -100 
Q 4775 -75 4825 425 
Q 5025 275 5350 200 
Q 5150 -450 4950 -500 
Q 4750 -550 4175 -550 
Q 3625 -550 3425 -487 
Q 3225 -425 3225 -100 
L 3225 525 
Q 3225 775 3200 1025 
L 3675 1025 
z
M 3050 3675 
Q 3325 3650 3775 3650 
L 4275 3650 
Q 4450 4000 4575 4275 
L 3425 4275 
Q 3275 4050 3050 3675 
z
M 2925 900 
Q 2800 725 2700 287 
Q 2600 -150 2550 -300 
Q 2325 -200 2075 -175 
Q 2225 200 2275 412 
Q 2325 625 2425 1000 
L 2925 900 
z
M 5575 1100 
Q 5950 475 6175 50 
Q 5950 -25 5750 -175 
Q 5625 175 5200 925 
Q 5425 975 5575 1100 
z
M 4225 1300 
Q 4525 825 4625 525 
Q 4550 500 4250 350 
Q 4150 700 3850 1125 
Q 4050 1200 4225 1300 
z
" transform="scale(0.015625)"/>
       <path id="SimHei-538b" d="M 3300 2725 
L 3300 3475 
Q 3300 3875 3275 4150 
L 3850 4150 
Q 3800 3950 3800 3450 
L 3800 2725 
L 4700 2725 
Q 5225 2725 5475 2750 
L 5475 2200 
Q 5225 2225 4700 2225 
L 3800 2225 
L 3800 175 
L 4900 175 
Q 5525 175 5850 200 
L 5850 -325 
Q 5525 -300 4925 -300 
L 2375 -300 
Q 1725 -300 1450 -325 
L 1450 200 
Q 1825 175 2375 175 
L 3300 175 
L 3300 2225 
L 2725 2225 
Q 2075 2225 1850 2200 
L 1850 2750 
Q 2250 2725 2725 2725 
L 3300 2725 
z
M 4900 4950 
Q 5450 4950 5750 4975 
L 5750 4475 
Q 5500 4500 4900 4500 
L 1450 4500 
L 1450 2275 
Q 1450 1425 1262 725 
Q 1075 25 725 -650 
Q 525 -450 200 -325 
Q 625 300 775 862 
Q 925 1425 950 2125 
L 950 4000 
Q 925 4525 900 4950 
L 4900 4950 
z
M 4625 1850 
Q 5025 1325 5275 925 
Q 5000 775 4775 625 
Q 4525 1150 4225 1575 
Q 4450 1700 4625 1850 
z
" transform="scale(0.015625)"/>
       <path id="SimHei-5668" d="M 275 1925 
Q 775 1925 1212 2000 
Q 1650 2075 1987 2200 
Q 2325 2325 2625 2625 
L 1525 2625 
Q 1250 2625 550 2600 
L 550 3025 
Q 1250 3000 1525 3000 
L 2750 3000 
Q 2825 3225 2800 3550 
Q 3125 3500 3475 3450 
Q 3325 3300 3300 3000 
L 4425 3000 
Q 4250 3175 4075 3300 
L 4425 3550 
Q 4625 3400 4800 3200 
Q 4650 3125 4500 3000 
L 4875 3000 
Q 5425 3000 5875 3025 
L 5875 2600 
Q 5450 2625 4875 2625 
L 3625 2625 
Q 4100 2225 4837 2112 
Q 5575 2000 6100 2050 
Q 5900 1800 5850 1500 
Q 5225 1550 4787 1637 
Q 4350 1725 3987 1900 
Q 3625 2075 3150 2575 
Q 2700 2000 1975 1762 
Q 1250 1525 525 1425 
Q 450 1725 275 1925 
z
M 5025 -575 
L 5025 -100 
L 3825 -100 
L 3825 -550 
L 3400 -550 
Q 3425 0 3425 475 
Q 3425 975 3400 1425 
L 5475 1425 
Q 5450 1125 5450 400 
Q 5450 -300 5475 -575 
L 5025 -575 
z
M 2400 -550 
L 2400 -100 
L 1325 -100 
L 1325 -575 
L 875 -575 
Q 900 -150 900 475 
Q 900 1100 875 1425 
L 2825 1425 
Q 2800 1025 2800 425 
Q 2800 -150 2825 -550 
L 2400 -550 
z
M 5475 5025 
Q 5450 4700 5450 4350 
Q 5450 4000 5475 3625 
L 3375 3625 
Q 3400 4000 3400 4350 
Q 3400 4725 3375 5025 
L 5475 5025 
z
M 2825 5025 
Q 2800 4700 2800 4325 
Q 2800 3975 2825 3625 
L 875 3625 
Q 900 3975 900 4325 
Q 900 4700 875 5025 
L 2825 5025 
z
M 5025 250 
L 5025 1050 
L 3825 1050 
L 3825 250 
L 5025 250 
z
M 2400 250 
L 2400 1050 
L 1325 1050 
L 1325 250 
L 2400 250 
z
M 5025 3975 
L 5025 4675 
L 3825 4675 
L 3825 3975 
L 5025 3975 
z
M 2400 3975 
L 2400 4675 
L 1325 4675 
L 1325 3975 
L 2400 3975 
z
" transform="scale(0.015625)"/>
       <path id="SimHei-6c34" d="M 3450 5175 
Q 3450 4800 3437 4500 
Q 3425 4200 3487 3762 
Q 3550 3325 3950 2725 
Q 4975 3575 5175 4050 
Q 5450 3800 5675 3575 
Q 5350 3350 5037 3075 
Q 4725 2800 4175 2325 
Q 4375 1900 4900 1375 
Q 5425 850 6175 625 
Q 5750 425 5675 125 
Q 4725 700 4212 1400 
Q 3700 2100 3425 2800 
L 3425 25 
Q 3450 -325 3162 -475 
Q 2875 -625 2400 -675 
Q 2375 -400 2175 -75 
Q 2575 -150 2750 -100 
Q 2925 -50 2925 225 
L 2925 4175 
Q 2925 4800 2875 5175 
L 3450 5175 
z
M 2550 3575 
Q 2425 2900 2237 2362 
Q 2050 1825 1737 1300 
Q 1425 775 750 100 
Q 575 325 225 450 
Q 925 950 1337 1600 
Q 1750 2250 1950 3125 
L 1275 3125 
Q 900 3125 425 3075 
L 425 3600 
Q 875 3575 1250 3575 
L 2550 3575 
z
" transform="scale(0.015625)"/>
      </defs>
      <use xlink:href="#SimHei-7a33"/>
      <use xlink:href="#SimHei-538b" x="100"/>
      <use xlink:href="#SimHei-5668" x="200"/>
      <use xlink:href="#SimHei-6c34" x="300"/>
      <use xlink:href="#SimHei-4f4d" x="400"/>
     </g>
    </g>
    <g id="line2d_19">
     <path d="M 202.91811 140.522023 
L 208.91811 140.522023 
L 214.91811 140.522023 
" style="fill: none; stroke: #0000ff; stroke-width: 1.5; stroke-linecap: square"/>
    </g>
    <g id="text_19">
     <!-- SG_1水位 -->
     <g transform="translate(219.71811 142.622023)scale(0.06 -0.06)">
      <defs>
       <path id="SimHei-53" d="M 2900 1325 
Q 2900 750 2537 412 
Q 2175 75 1550 75 
Q 925 75 575 425 
Q 225 775 225 1300 
L 225 1475 
L 800 1475 
L 800 1325 
Q 800 950 1025 750 
Q 1250 550 1550 550 
Q 1950 550 2137 762 
Q 2325 975 2325 1275 
Q 2325 1525 2100 1737 
Q 1875 1950 1450 2125 
Q 850 2350 587 2625 
Q 325 2900 325 3275 
Q 325 3800 687 4125 
Q 1050 4450 1550 4450 
Q 2200 4450 2487 4062 
Q 2775 3675 2775 3225 
L 2200 3225 
Q 2225 3500 2050 3725 
Q 1875 3950 1550 3950 
Q 1250 3950 1075 3787 
Q 900 3625 900 3350 
Q 900 3125 1037 2962 
Q 1175 2800 1750 2575 
Q 2300 2350 2600 2037 
Q 2900 1725 2900 1325 
z
" transform="scale(0.015625)"/>
       <path id="SimHei-47" d="M 2850 75 
L 2425 75 
L 2350 425 
Q 2250 275 2037 175 
Q 1825 75 1575 75 
Q 1050 75 637 562 
Q 225 1050 225 2125 
Q 225 3300 600 3875 
Q 975 4450 1625 4450 
Q 2200 4450 2525 4025 
Q 2850 3600 2850 2925 
L 2300 2925 
Q 2300 3450 2125 3712 
Q 1950 3975 1625 3975 
Q 1225 3975 1025 3562 
Q 825 3150 825 2175 
Q 825 1250 1075 900 
Q 1325 550 1650 550 
Q 1975 550 2162 787 
Q 2350 1025 2350 1525 
L 2350 1800 
L 1575 1800 
L 1575 2275 
L 2850 2275 
L 2850 75 
z
" transform="scale(0.015625)"/>
       <path id="SimHei-5f" d="M 3150 -850 
L 0 -850 
L 0 -550 
L 3150 -550 
L 3150 -850 
z
" transform="scale(0.015625)"/>
      </defs>
      <use xlink:href="#SimHei-53"/>
      <use xlink:href="#SimHei-47" x="50"/>
      <use xlink:href="#SimHei-5f" x="100"/>
      <use xlink:href="#SimHei-31" x="150"/>
      <use xlink:href="#SimHei-6c34" x="200"/>
      <use xlink:href="#SimHei-4f4d" x="300"/>
     </g>
    </g>
   </g>
  </g>
 </g>
 <defs>
  <clipPath id="p7f07b0a59d">
   <rect x="35.433071" y="20.409449" width="219.685039" height="128.409449"/>
  </clipPath>
 </defs>
</svg>
