<?xml version="1.0" encoding="utf-8" standalone="no"?>
<!DOCTYPE svg PUBLIC "-//W3C//DTD SVG 1.1//EN"
  "http://www.w3.org/Graphics/SVG/1.1/DTD/svg11.dtd">
<svg xmlns:xlink="http://www.w3.org/1999/xlink" width="396.850394pt" height="170.07874pt" viewBox="0 0 396.850394 170.07874" xmlns="http://www.w3.org/2000/svg" version="1.1">
 <metadata>
  <rdf:RDF xmlns:dc="http://purl.org/dc/elements/1.1/" xmlns:cc="http://creativecommons.org/ns#" xmlns:rdf="http://www.w3.org/1999/02/22-rdf-syntax-ns#">
   <cc:Work>
    <dc:type rdf:resource="http://purl.org/dc/dcmitype/StillImage"/>
    <dc:date>2023-03-03T23:18:43.555114</dc:date>
    <dc:format>image/svg+xml</dc:format>
    <dc:creator>
     <cc:Agent>
      <dc:title>Matplotlib v3.5.2, https://matplotlib.org/</dc:title>
     </cc:Agent>
    </dc:creator>
   </cc:Work>
  </rdf:RDF>
 </metadata>
 <defs>
  <style type="text/css">*{stroke-linejoin: round; stroke-linecap: butt}</style>
 </defs>
 <g id="figure_1">
  <g id="patch_1">
   <path d="M 0 170.07874 
L 396.850394 170.07874 
L 396.850394 0 
L 0 0 
L 0 170.07874 
z
" style="fill: none"/>
  </g>
  <g id="axes_1">
   <g id="patch_2">
    <path d="M 49.606299 148.818898 
L 357.165354 148.818898 
L 357.165354 20.409449 
L 49.606299 20.409449 
z
" style="fill: #ffffff"/>
   </g>
   <g id="matplotlib.axis_1">
    <g id="xtick_1">
     <g id="line2d_1">
      <defs>
       <path id="mf99b6e80fe" d="M 0 0 
L 0 -3.5 
" style="stroke: #000000; stroke-width: 0.8"/>
      </defs>
      <g>
       <use xlink:href="#mf99b6e80fe" x="63.586256" y="148.818898" style="stroke: #000000; stroke-width: 0.8"/>
      </g>
     </g>
     <g id="text_1">
      <!-- 0 -->
      <g transform="translate(61.836256 157.131398)scale(0.07 -0.07)">
       <defs>
        <path id="SimHei-30" d="M 225 2537 
Q 250 3200 412 3587 
Q 575 3975 875 4225 
Q 1175 4475 1612 4475 
Q 2050 4475 2375 4112 
Q 2700 3750 2800 3200 
Q 2900 2650 2862 1937 
Q 2825 1225 2612 775 
Q 2400 325 1975 150 
Q 1550 -25 1125 187 
Q 700 400 525 750 
Q 350 1100 275 1487 
Q 200 1875 225 2537 
z
M 750 2687 
Q 675 2000 800 1462 
Q 925 925 1212 700 
Q 1500 475 1800 612 
Q 2100 750 2237 1162 
Q 2375 1575 2375 2062 
Q 2375 2550 2337 2950 
Q 2300 3350 2112 3675 
Q 1925 4000 1612 4012 
Q 1300 4025 1062 3700 
Q 825 3375 750 2687 
z
" transform="scale(0.015625)"/>
       </defs>
       <use xlink:href="#SimHei-30"/>
      </g>
     </g>
    </g>
    <g id="xtick_2">
     <g id="line2d_2">
      <g>
       <use xlink:href="#mf99b6e80fe" x="102.41947" y="148.818898" style="stroke: #000000; stroke-width: 0.8"/>
      </g>
     </g>
     <g id="text_2">
      <!-- 200 -->
      <g transform="translate(97.16947 157.131398)scale(0.07 -0.07)">
       <defs>
        <path id="SimHei-32" d="M 300 250 
Q 325 625 650 925 
Q 975 1225 1475 1862 
Q 1975 2500 2125 2850 
Q 2275 3200 2237 3450 
Q 2200 3700 2000 3862 
Q 1800 4025 1537 4000 
Q 1275 3975 1037 3800 
Q 800 3625 675 3275 
L 200 3350 
Q 400 3925 712 4187 
Q 1025 4450 1450 4475 
Q 1700 4500 1900 4462 
Q 2100 4425 2312 4287 
Q 2525 4150 2662 3875 
Q 2800 3600 2762 3212 
Q 2725 2825 2375 2287 
Q 2025 1750 1025 600 
L 2825 600 
L 2825 150 
L 300 150 
L 300 250 
z
" transform="scale(0.015625)"/>
       </defs>
       <use xlink:href="#SimHei-32"/>
       <use xlink:href="#SimHei-30" x="50"/>
       <use xlink:href="#SimHei-30" x="100"/>
      </g>
     </g>
    </g>
    <g id="xtick_3">
     <g id="line2d_3">
      <g>
       <use xlink:href="#mf99b6e80fe" x="141.252684" y="148.818898" style="stroke: #000000; stroke-width: 0.8"/>
      </g>
     </g>
     <g id="text_3">
      <!-- 400 -->
      <g transform="translate(136.002684 157.131398)scale(0.07 -0.07)">
       <defs>
        <path id="SimHei-34" d="M 2000 1100 
L 75 1100 
L 75 1525 
L 2100 4450 
L 2475 4450 
L 2475 1525 
L 3075 1525 
L 3075 1100 
L 2475 1100 
L 2475 150 
L 2000 150 
L 2000 1100 
z
M 2000 1525 
L 2000 3500 
L 600 1525 
L 2000 1525 
z
" transform="scale(0.015625)"/>
       </defs>
       <use xlink:href="#SimHei-34"/>
       <use xlink:href="#SimHei-30" x="50"/>
       <use xlink:href="#SimHei-30" x="100"/>
      </g>
     </g>
    </g>
    <g id="xtick_4">
     <g id="line2d_4">
      <g>
       <use xlink:href="#mf99b6e80fe" x="180.085898" y="148.818898" style="stroke: #000000; stroke-width: 0.8"/>
      </g>
     </g>
     <g id="text_4">
      <!-- 600 -->
      <g transform="translate(174.835898 157.131398)scale(0.07 -0.07)">
       <defs>
        <path id="SimHei-36" d="M 250 1612 
Q 275 1975 387 2225 
Q 500 2475 725 2850 
L 1750 4450 
L 2325 4450 
L 1275 2800 
Q 1950 2975 2350 2750 
Q 2750 2525 2887 2237 
Q 3025 1950 3037 1612 
Q 3050 1275 2937 950 
Q 2825 625 2537 362 
Q 2250 100 1737 75 
Q 1225 50 862 262 
Q 500 475 362 862 
Q 225 1250 250 1612 
z
M 1025 787 
Q 1250 550 1625 525 
Q 2000 500 2250 775 
Q 2500 1050 2500 1575 
Q 2500 2100 2187 2300 
Q 1875 2500 1487 2450 
Q 1100 2400 925 2075 
Q 750 1750 775 1387 
Q 800 1025 1025 787 
z
" transform="scale(0.015625)"/>
       </defs>
       <use xlink:href="#SimHei-36"/>
       <use xlink:href="#SimHei-30" x="50"/>
       <use xlink:href="#SimHei-30" x="100"/>
      </g>
     </g>
    </g>
    <g id="xtick_5">
     <g id="line2d_5">
      <g>
       <use xlink:href="#mf99b6e80fe" x="218.919112" y="148.818898" style="stroke: #000000; stroke-width: 0.8"/>
      </g>
     </g>
     <g id="text_5">
      <!-- 800 -->
      <g transform="translate(213.669112 157.131398)scale(0.07 -0.07)">
       <defs>
        <path id="SimHei-38" d="M 175 1375 
Q 175 1675 325 1962 
Q 475 2250 825 2425 
Q 525 2600 425 2812 
Q 325 3025 312 3300 
Q 300 3575 387 3775 
Q 475 3975 650 4150 
Q 825 4325 1037 4387 
Q 1250 4450 1500 4450 
Q 1750 4450 1950 4400 
Q 2150 4350 2375 4187 
Q 2600 4025 2700 3725 
Q 2800 3425 2687 3025 
Q 2575 2625 2100 2400 
Q 2525 2275 2700 2012 
Q 2875 1750 2875 1375 
Q 2875 1000 2762 775 
Q 2650 550 2512 400 
Q 2375 250 2137 162 
Q 1900 75 1537 75 
Q 1175 75 912 162 
Q 650 250 475 425 
Q 300 600 237 837 
Q 175 1075 175 1375 
z
M 687 1400 
Q 675 1100 787 875 
Q 900 650 1200 587 
Q 1500 525 1825 600 
Q 2150 675 2275 950 
Q 2400 1225 2362 1500 
Q 2325 1775 2050 1962 
Q 1775 2150 1450 2125 
Q 1125 2100 912 1900 
Q 700 1700 687 1400 
z
M 775 3350 
Q 775 3100 950 2875 
Q 1125 2650 1500 2650 
Q 1875 2650 2062 2875 
Q 2250 3100 2237 3412 
Q 2225 3725 2012 3875 
Q 1800 4025 1437 4000 
Q 1075 3975 925 3787 
Q 775 3600 775 3350 
z
" transform="scale(0.015625)"/>
       </defs>
       <use xlink:href="#SimHei-38"/>
       <use xlink:href="#SimHei-30" x="50"/>
       <use xlink:href="#SimHei-30" x="100"/>
      </g>
     </g>
    </g>
    <g id="xtick_6">
     <g id="line2d_6">
      <g>
       <use xlink:href="#mf99b6e80fe" x="257.752326" y="148.818898" style="stroke: #000000; stroke-width: 0.8"/>
      </g>
     </g>
     <g id="text_6">
      <!-- 1000 -->
      <g transform="translate(250.752326 157.131398)scale(0.07 -0.07)">
       <defs>
        <path id="SimHei-31" d="M 1400 3600 
Q 1075 3275 575 2975 
L 575 3450 
Q 1200 3875 1600 4450 
L 1900 4450 
L 1900 150 
L 1400 150 
L 1400 3600 
z
" transform="scale(0.015625)"/>
       </defs>
       <use xlink:href="#SimHei-31"/>
       <use xlink:href="#SimHei-30" x="50"/>
       <use xlink:href="#SimHei-30" x="100"/>
       <use xlink:href="#SimHei-30" x="150"/>
      </g>
     </g>
    </g>
    <g id="xtick_7">
     <g id="line2d_7">
      <g>
       <use xlink:href="#mf99b6e80fe" x="296.58554" y="148.818898" style="stroke: #000000; stroke-width: 0.8"/>
      </g>
     </g>
     <g id="text_7">
      <!-- 1200 -->
      <g transform="translate(289.58554 157.131398)scale(0.07 -0.07)">
       <use xlink:href="#SimHei-31"/>
       <use xlink:href="#SimHei-32" x="50"/>
       <use xlink:href="#SimHei-30" x="100"/>
       <use xlink:href="#SimHei-30" x="150"/>
      </g>
     </g>
    </g>
    <g id="xtick_8">
     <g id="line2d_8">
      <g>
       <use xlink:href="#mf99b6e80fe" x="335.418754" y="148.818898" style="stroke: #000000; stroke-width: 0.8"/>
      </g>
     </g>
     <g id="text_8">
      <!-- 1400 -->
      <g transform="translate(328.418754 157.131398)scale(0.07 -0.07)">
       <use xlink:href="#SimHei-31"/>
       <use xlink:href="#SimHei-34" x="50"/>
       <use xlink:href="#SimHei-30" x="100"/>
       <use xlink:href="#SimHei-30" x="150"/>
      </g>
     </g>
    </g>
   </g>
   <g id="matplotlib.axis_2">
    <g id="ytick_1">
     <g id="line2d_9">
      <defs>
       <path id="m4693e29b37" d="M 0 0 
L 3.5 0 
" style="stroke: #000000; stroke-width: 0.8"/>
      </defs>
      <g>
       <use xlink:href="#m4693e29b37" x="49.606299" y="137.499212" style="stroke: #000000; stroke-width: 0.8"/>
      </g>
     </g>
     <g id="text_9">
      <!-- -0.6 -->
      <g transform="translate(32.106299 139.905462)scale(0.07 -0.07)">
       <defs>
        <path id="SimHei-2d" d="M 2975 2125 
L 125 2125 
L 125 2525 
L 2975 2525 
L 2975 2125 
z
" transform="scale(0.015625)"/>
        <path id="SimHei-2e" d="M 1075 125 
L 500 125 
L 500 675 
L 1075 675 
L 1075 125 
z
" transform="scale(0.015625)"/>
       </defs>
       <use xlink:href="#SimHei-2d"/>
       <use xlink:href="#SimHei-30" x="50"/>
       <use xlink:href="#SimHei-2e" x="100"/>
       <use xlink:href="#SimHei-36" x="150"/>
      </g>
     </g>
    </g>
    <g id="ytick_2">
     <g id="line2d_10">
      <g>
       <use xlink:href="#m4693e29b37" x="49.606299" y="121.274942" style="stroke: #000000; stroke-width: 0.8"/>
      </g>
     </g>
     <g id="text_10">
      <!-- -0.4 -->
      <g transform="translate(32.106299 123.681192)scale(0.07 -0.07)">
       <use xlink:href="#SimHei-2d"/>
       <use xlink:href="#SimHei-30" x="50"/>
       <use xlink:href="#SimHei-2e" x="100"/>
       <use xlink:href="#SimHei-34" x="150"/>
      </g>
     </g>
    </g>
    <g id="ytick_3">
     <g id="line2d_11">
      <g>
       <use xlink:href="#m4693e29b37" x="49.606299" y="105.050672" style="stroke: #000000; stroke-width: 0.8"/>
      </g>
     </g>
     <g id="text_11">
      <!-- -0.2 -->
      <g transform="translate(32.106299 107.456922)scale(0.07 -0.07)">
       <use xlink:href="#SimHei-2d"/>
       <use xlink:href="#SimHei-30" x="50"/>
       <use xlink:href="#SimHei-2e" x="100"/>
       <use xlink:href="#SimHei-32" x="150"/>
      </g>
     </g>
    </g>
    <g id="ytick_4">
     <g id="line2d_12">
      <g>
       <use xlink:href="#m4693e29b37" x="49.606299" y="88.826401" style="stroke: #000000; stroke-width: 0.8"/>
      </g>
     </g>
     <g id="text_12">
      <!-- 0.0 -->
      <g transform="translate(35.606299 91.232651)scale(0.07 -0.07)">
       <use xlink:href="#SimHei-30"/>
       <use xlink:href="#SimHei-2e" x="50"/>
       <use xlink:href="#SimHei-30" x="100"/>
      </g>
     </g>
    </g>
    <g id="ytick_5">
     <g id="line2d_13">
      <g>
       <use xlink:href="#m4693e29b37" x="49.606299" y="72.602131" style="stroke: #000000; stroke-width: 0.8"/>
      </g>
     </g>
     <g id="text_13">
      <!-- 0.2 -->
      <g transform="translate(35.606299 75.008381)scale(0.07 -0.07)">
       <use xlink:href="#SimHei-30"/>
       <use xlink:href="#SimHei-2e" x="50"/>
       <use xlink:href="#SimHei-32" x="100"/>
      </g>
     </g>
    </g>
    <g id="ytick_6">
     <g id="line2d_14">
      <g>
       <use xlink:href="#m4693e29b37" x="49.606299" y="56.377861" style="stroke: #000000; stroke-width: 0.8"/>
      </g>
     </g>
     <g id="text_14">
      <!-- 0.4 -->
      <g transform="translate(35.606299 58.784111)scale(0.07 -0.07)">
       <use xlink:href="#SimHei-30"/>
       <use xlink:href="#SimHei-2e" x="50"/>
       <use xlink:href="#SimHei-34" x="100"/>
      </g>
     </g>
    </g>
    <g id="ytick_7">
     <g id="line2d_15">
      <g>
       <use xlink:href="#m4693e29b37" x="49.606299" y="40.153591" style="stroke: #000000; stroke-width: 0.8"/>
      </g>
     </g>
     <g id="text_15">
      <!-- 0.6 -->
      <g transform="translate(35.606299 42.559841)scale(0.07 -0.07)">
       <use xlink:href="#SimHei-30"/>
       <use xlink:href="#SimHei-2e" x="50"/>
       <use xlink:href="#SimHei-36" x="100"/>
      </g>
     </g>
    </g>
    <g id="ytick_8">
     <g id="line2d_16">
      <g>
       <use xlink:href="#m4693e29b37" x="49.606299" y="23.92932" style="stroke: #000000; stroke-width: 0.8"/>
      </g>
     </g>
     <g id="text_16">
      <!-- 0.8 -->
      <g transform="translate(35.606299 26.33557)scale(0.07 -0.07)">
       <use xlink:href="#SimHei-30"/>
       <use xlink:href="#SimHei-2e" x="50"/>
       <use xlink:href="#SimHei-38" x="100"/>
      </g>
     </g>
    </g>
   </g>
   <g id="line2d_17">
    <path d="M 63.586256 68.972801 
L 67.469578 68.958678 
L 67.663744 81.158654 
L 68.246242 80.999015 
L 68.440408 93.201987 
L 69.217072 92.950759 
L 70.576235 92.804815 
L 74.071224 92.758379 
L 82.420365 92.658444 
L 85.721188 92.559793 
L 85.915354 123.053421 
L 86.692019 122.745485 
L 86.886185 106.481988 
L 87.468683 106.467009 
L 87.662849 90.052219 
L 88.245347 90.161997 
L 88.439513 77.893543 
L 88.633679 73.576227 
L 101.44864 73.593132 
L 105.137795 73.592062 
L 105.331961 40.751569 
L 127.466893 40.276932 
L 142.029349 40.070642 
L 142.223515 47.57111 
L 148.242663 47.394779 
L 166.300107 46.826199 
L 175.037581 46.703795 
L 175.231747 26.246242 
L 208.045812 26.246242 
L 208.239979 132.407499 
L 213.870795 132.386956 
L 230.957409 132.491171 
L 233.675734 132.991059 
L 233.8699 132.790548 
L 234.064066 132.760161 
L 234.258232 133.007109 
L 234.452398 133.011817 
L 234.646564 26.347247 
L 243.384037 26.246242 
L 248.626521 26.246242 
L 248.820687 31.682316 
L 249.209019 31.638875 
L 249.403185 36.991705 
L 250.568182 36.781136 
L 252.898175 36.65167 
L 266.4898 36.381182 
L 266.683966 26.246242 
L 283.964746 26.246242 
L 284.158912 29.489098 
L 284.353078 29.463418 
L 284.547244 32.656841 
L 285.518074 32.428297 
L 286.877237 32.314666 
L 287.265569 37.56264 
L 288.624732 37.377963 
L 291.537223 37.270967 
L 311.536328 36.948265 
L 311.730494 42.004072 
L 332.700429 41.664465 
L 332.894596 37.016529 
L 334.253758 37.054191 
L 334.447924 30.974212 
L 336.001253 31.088056 
L 340.467072 31.082492 
L 343.185397 31.054673 
L 343.185397 31.054673 
" clip-path="url(#p6c90b5c5ff)" style="fill: none; stroke: #1f77b4; stroke-width: 1.5; stroke-linecap: square"/>
   </g>
   <g id="line2d_18">
    <path d="M 63.586256 65.657882 
L 64.362921 65.698522 
L 65.527917 65.578691 
L 67.85791 65.819305 
L 68.246242 66.273336 
L 68.634574 67.659218 
L 69.022906 70.523144 
L 69.411238 75.435115 
L 69.605404 78.645162 
L 69.993737 81.669564 
L 70.382069 85.759938 
L 71.547065 85.529724 
L 75.23622 85.214793 
L 75.624553 85.351087 
L 77.760379 85.401809 
L 78.537044 85.861698 
L 78.73121 85.948915 
L 78.925376 85.870333 
L 79.313708 85.969914 
L 79.70204 85.988926 
L 80.090372 86.298849 
L 80.867037 87.114488 
L 81.449535 87.241057 
L 81.837867 87.065822 
L 82.614531 86.688032 
L 83.779528 86.477834 
L 84.16786 86.210858 
L 84.362026 86.165603 
L 84.944524 85.553567 
L 85.721188 85.258957 
L 86.10952 85.212252 
L 86.303686 85.522043 
L 86.497853 86.252914 
L 86.886185 89.322893 
L 87.274517 94.86993 
L 87.857015 106.69771 
L 88.245347 102.374908 
L 88.633679 95.597896 
L 89.022011 88.973348 
L 90.381174 70.668783 
L 90.57534 70.075837 
L 91.54617 70.104512 
L 92.711167 70.057748 
L 93.876163 69.954413 
L 94.846994 69.874414 
L 95.235326 69.489251 
L 95.817824 68.406428 
L 96.594488 66.269207 
L 96.788654 69.978942 
L 99.118647 69.864366 
L 101.254474 69.863532 
L 103.196135 69.893332 
L 105.137795 69.923919 
L 105.331961 43.229918 
L 106.691124 43.426324 
L 108.050286 43.455055 
L 109.215283 43.465456 
L 110.186113 43.448731 
L 113.875268 43.563233 
L 114.457767 43.862571 
L 114.846099 44.272863 
L 115.040265 44.210852 
L 115.234431 44.611637 
L 115.428597 44.738634 
L 115.816929 44.707055 
L 116.399427 45.026846 
L 116.981926 45.099892 
L 117.564424 44.761848 
L 117.952756 44.865582 
L 118.72942 45.041255 
L 119.894417 44.414922 
L 120.865247 45.806214 
L 121.253579 46.017619 
L 121.447745 45.988598 
L 121.641911 45.683714 
L 121.836077 45.63469 
L 122.806908 44.697104 
L 123.001074 45.095468 
L 123.19524 46.160804 
L 123.389406 46.558839 
L 123.583572 46.628911 
L 123.777738 46.471737 
L 124.16607 44.783016 
L 124.360236 44.360085 
L 124.748568 45.382544 
L 124.942734 45.310697 
L 125.136901 45.120059 
L 125.525233 46.305208 
L 125.719399 45.867825 
L 125.913565 46.037453 
L 126.107731 45.874226 
L 126.301897 45.447234 
L 126.690229 46.089674 
L 126.884395 45.279259 
L 127.078561 45.538358 
L 127.272727 46.147227 
L 127.466893 45.412372 
L 127.661059 45.694893 
L 127.855225 46.279093 
L 128.049392 45.487342 
L 128.243558 45.769568 
L 128.437724 46.322383 
L 128.63189 45.538421 
L 128.826056 45.729078 
L 129.020222 46.344576 
L 129.214388 45.589055 
L 129.408554 45.861428 
L 129.60272 46.457609 
L 129.796886 45.792705 
L 130.185218 46.419237 
L 130.379384 45.631663 
L 130.57355 45.845592 
L 130.767717 46.256832 
L 130.961883 45.446538 
L 131.350215 46.801499 
L 131.544381 45.823089 
L 131.738547 45.894887 
L 131.932713 45.675267 
L 132.126879 45.691339 
L 132.321045 46.848323 
L 132.515211 45.966767 
L 132.709377 46.196063 
L 132.903543 46.640259 
L 133.097709 45.821063 
L 133.291875 45.843102 
L 133.486042 46.238076 
L 133.680208 45.631615 
L 133.874374 46.013142 
L 134.06854 46.90813 
L 134.262706 46.094755 
L 134.456872 46.494221 
L 134.651038 47.268817 
L 134.845204 46.207986 
L 135.233536 46.861412 
L 135.427702 46.388707 
L 135.621868 46.721505 
L 135.816034 46.658894 
L 136.0102 46.197073 
L 136.398533 46.677021 
L 136.592699 46.400457 
L 136.786865 46.929608 
L 136.981031 46.976403 
L 137.175197 46.556329 
L 137.369363 46.872049 
L 137.563529 46.875564 
L 137.757695 46.517329 
L 137.951861 46.819099 
L 138.146027 46.801586 
L 138.340193 46.379602 
L 138.534359 46.718662 
L 138.728525 46.551712 
L 138.922691 46.145192 
L 139.311024 46.974865 
L 139.50519 46.638078 
L 139.699356 47.065699 
L 139.893522 46.997721 
L 140.087688 46.569283 
L 140.47602 47.005704 
L 140.670186 46.664135 
L 140.864352 47.137096 
L 141.058518 47.187445 
L 141.252684 46.737809 
L 141.44685 46.851712 
L 141.641016 47.443 
L 141.835183 46.665305 
L 142.029349 46.851978 
L 142.223515 51.349105 
L 142.611847 49.928192 
L 143.194345 48.91829 
L 143.971009 49.970741 
L 144.359341 50.086462 
L 144.553508 49.928554 
L 144.94184 50.06674 
L 146.301002 50.979941 
L 146.689334 51.082941 
L 147.271832 51.30523 
L 149.990157 51.689305 
L 151.543486 51.621854 
L 152.32015 51.617851 
L 153.290981 51.581698 
L 154.067645 51.565103 
L 155.81514 51.617652 
L 156.397638 51.894251 
L 158.145132 53.194313 
L 159.115963 54.818295 
L 159.698461 55.274758 
L 160.086793 55.31843 
L 161.25179 54.90971 
L 161.834288 55.078047 
L 162.22262 55.036595 
L 163.19345 54.324083 
L 163.775948 53.058066 
L 164.358447 51.106962 
L 164.746779 49.627108 
L 164.940945 55.001453 
L 166.882606 54.750501 
L 167.270938 54.877241 
L 167.65927 55.112165 
L 169.600931 54.991671 
L 169.795097 54.808625 
L 170.765927 54.855807 
L 171.154259 54.553248 
L 171.348425 54.967263 
L 171.736757 55.048659 
L 172.513422 54.990699 
L 175.037581 55.138715 
L 175.231747 26.331321 
L 175.814245 26.306158 
L 176.008411 27.203912 
L 176.396743 27.4918 
L 177.755906 29.03957 
L 178.144238 29.216877 
L 178.726736 28.994138 
L 178.920902 28.996353 
L 179.309234 29.278956 
L 179.697566 29.756922 
L 179.891732 29.789787 
L 180.280064 29.636191 
L 180.47423 29.614578 
L 180.862563 29.850705 
L 181.250895 29.857504 
L 181.639227 29.6738 
L 182.027559 29.733974 
L 182.415891 29.470319 
L 183.192555 28.661921 
L 183.96922 27.39352 
L 184.163386 29.497469 
L 184.94005 29.532674 
L 187.075877 29.62421 
L 187.852541 29.689132 
L 188.823372 29.740027 
L 191.34753 29.828299 
L 192.318361 29.679863 
L 192.706693 29.594183 
L 192.900859 30.02455 
L 193.677523 30.075451 
L 195.425018 30.163142 
L 196.201682 29.640209 
L 196.978346 28.604952 
L 197.172513 28.292085 
L 197.366679 30.581963 
L 197.949177 30.639584 
L 198.143343 30.798885 
L 199.114173 30.714525 
L 202.997495 30.906299 
L 203.774159 30.956078 
L 204.550823 30.944957 
L 205.521654 31.01924 
L 205.909986 30.774656 
L 206.298318 30.209057 
L 206.880816 28.881072 
L 207.463314 27.080092 
L 207.65748 31.173565 
L 208.045812 31.221226 
L 208.239979 133.82519 
L 208.628311 133.633348 
L 209.210809 133.953676 
L 209.599141 133.944349 
L 210.181639 134.068551 
L 211.929134 134.164264 
L 212.705798 134.168171 
L 213.870795 134.168722 
L 215.424123 134.305152 
L 216.58912 134.451591 
L 217.55995 134.94544 
L 218.142448 135.048488 
L 218.53078 134.966425 
L 219.113278 134.748396 
L 220.084109 134.907996 
L 221.443271 134.672802 
L 222.02577 134.686317 
L 222.219936 134.675312 
L 222.414102 134.808425 
L 223.773264 134.847532 
L 224.161596 134.855689 
L 227.268253 134.937994 
L 227.656586 134.967982 
L 229.209914 134.967697 
L 229.598246 134.932617 
L 229.792412 134.949613 
L 229.986578 135.091952 
L 230.374911 135.812688 
L 230.763243 137.456384 
L 231.734073 142.982105 
L 231.928239 142.887146 
L 232.316571 140.539371 
L 232.510737 139.435271 
L 232.704903 138.980795 
L 232.899069 139.22404 
L 233.481568 140.59662 
L 233.675734 140.684302 
L 233.8699 140.557726 
L 234.452398 139.609237 
L 234.646564 27.668827 
L 234.84073 27.732535 
L 235.034896 27.483068 
L 235.423228 27.651362 
L 235.617394 27.414321 
L 235.81156 27.485244 
L 236.199893 27.432192 
L 238.141553 27.745213 
L 238.335719 27.487255 
L 238.724052 27.64115 
L 238.918218 27.414098 
L 239.30655 27.414408 
L 239.694882 27.293092 
L 240.083214 27.249585 
L 242.607373 27.107053 
L 243.384037 27.24767 
L 244.7432 27.218911 
L 246.296528 27.640579 
L 246.490694 27.445605 
L 246.68486 27.429919 
L 246.879026 27.197616 
L 247.267359 27.298256 
L 249.209019 27.255697 
L 249.597351 27.580932 
L 249.985684 28.456163 
L 250.374016 30.023961 
L 250.956514 33.133073 
L 251.344846 34.673106 
L 251.927344 34.605549 
L 252.898175 34.490326 
L 253.480673 34.473393 
L 262.218146 34.245645 
L 264.353973 34.071466 
L 264.742305 34.104553 
L 265.324803 34.091982 
L 265.713135 33.797015 
L 266.4898 32.547601 
L 266.683966 32.815124 
L 269.208125 32.82874 
L 269.984789 32.863839 
L 270.761453 32.883175 
L 274.256442 32.957264 
L 275.421439 32.993437 
L 277.557266 33.152607 
L 278.528096 32.756105 
L 278.722262 32.491484 
L 278.916428 31.892348 
L 279.110594 33.888303 
L 280.275591 34.577698 
L 280.663923 34.958379 
L 280.858089 35.000987 
L 281.052255 34.807124 
L 281.440587 34.205899 
L 281.634753 34.114233 
L 282.799749 34.400898 
L 284.158912 34.150372 
L 284.74141 34.270875 
L 285.129742 34.62985 
L 285.518074 35.308114 
L 286.488905 37.945934 
L 287.848067 37.855631 
L 288.236399 38.015082 
L 288.624732 38.440372 
L 289.013064 39.166626 
L 289.20723 39.162559 
L 289.401396 41.148917 
L 291.925555 41.236927 
L 296.58554 41.527982 
L 297.168039 41.793266 
L 298.138869 42.463765 
L 299.692198 39.76963 
L 300.08053 38.740707 
L 300.274696 42.191605 
L 301.439692 42.189178 
L 304.934681 42.306591 
L 305.905512 42.349958 
L 307.45884 42.389926 
L 308.623837 42.459181 
L 309.400501 42.424479 
L 311.536328 42.44939 
L 311.730494 35.68733 
L 313.477989 35.731277 
L 318.137974 36.322077 
L 318.526306 36.492876 
L 318.914639 37.03133 
L 319.302971 38.082891 
L 319.885469 40.608664 
L 320.273801 42.223044 
L 320.467967 42.543139 
L 320.662133 41.96978 
L 321.632963 36.947884 
L 322.409628 35.048492 
L 322.603794 35.127621 
L 323.186292 35.953992 
L 323.76879 35.945709 
L 324.545455 35.419368 
L 324.933787 35.670552 
L 325.127953 36.311338 
L 325.710451 36.748494 
L 326.875447 36.935907 
L 327.457946 37.075939 
L 330.176271 37.401344 
L 330.952935 37.414061 
L 333.088762 37.337021 
L 333.477094 37.182667 
L 333.865426 36.731257 
L 334.447924 35.38498 
L 334.836256 33.911058 
L 335.224588 33.589294 
L 335.612921 32.840678 
L 336.001253 31.511208 
L 336.389585 29.809446 
L 337.554581 29.815563 
L 337.942913 29.906779 
L 339.690408 29.847238 
L 340.07874 29.752178 
L 341.437903 29.667456 
L 343.185397 29.453222 
L 343.185397 29.453222 
" clip-path="url(#p6c90b5c5ff)" style="fill: none; stroke-dasharray: 5.55,2.4; stroke-dashoffset: 0; stroke: #ff0000; stroke-width: 1.5"/>
   </g>
   <g id="patch_3">
    <path d="M 49.606299 148.818898 
L 49.606299 20.409449 
" style="fill: none; stroke: #000000; stroke-linejoin: miter; stroke-linecap: square"/>
   </g>
   <g id="patch_4">
    <path d="M 357.165354 148.818898 
L 357.165354 20.409449 
" style="fill: none; stroke: #000000; stroke-linejoin: miter; stroke-linecap: square"/>
   </g>
   <g id="patch_5">
    <path d="M 49.606299 148.818898 
L 357.165354 148.818898 
" style="fill: none; stroke: #000000; stroke-linejoin: miter; stroke-linecap: square"/>
   </g>
   <g id="patch_6">
    <path d="M 49.606299 20.409449 
L 357.165354 20.409449 
" style="fill: none; stroke: #000000; stroke-linejoin: miter; stroke-linecap: square"/>
   </g>
   <g id="legend_1">
    <g id="patch_7">
     <path d="M 53.806299 42.365699 
L 97.006299 42.365699 
Q 98.206299 42.365699 98.206299 41.165699 
L 98.206299 24.609449 
Q 98.206299 23.409449 97.006299 23.409449 
L 53.806299 23.409449 
Q 52.606299 23.409449 52.606299 24.609449 
L 52.606299 41.165699 
Q 52.606299 42.365699 53.806299 42.365699 
z
" style="fill: #ffffff; opacity: 0.8; stroke: #cccccc; stroke-linejoin: miter"/>
    </g>
    <g id="line2d_19">
     <path d="M 55.006299 28.514136 
L 61.006299 28.514136 
L 67.006299 28.514136 
" style="fill: none; stroke: #1f77b4; stroke-width: 1.5; stroke-linecap: square"/>
    </g>
    <g id="text_17">
     <!-- 真实值 -->
     <g transform="translate(71.806299 30.614136)scale(0.06 -0.06)">
      <defs>
       <path id="SimHei-771f" d="M 3550 5100 
Q 3450 4925 3400 4625 
L 4850 4625 
Q 5175 4625 5725 4650 
L 5725 4250 
Q 5200 4275 4850 4275 
L 3350 4275 
L 3300 3850 
L 5050 3850 
Q 5025 3550 5025 3150 
L 5025 1075 
L 5400 1075 
Q 5800 1075 6075 1100 
L 6075 625 
Q 5575 650 4900 650 
L 1450 650 
Q 775 650 350 625 
L 350 1100 
Q 725 1075 1100 1075 
L 1425 1075 
L 1425 3075 
Q 1425 3450 1400 3850 
L 2825 3850 
L 2850 4275 
L 1400 4275 
Q 1050 4275 625 4250 
L 625 4650 
Q 1175 4625 1375 4625 
L 2925 4625 
Q 2950 4875 2950 5125 
Q 3300 5100 3550 5100 
z
M 4075 525 
Q 4500 425 4925 250 
Q 5350 75 5825 -150 
Q 5550 -425 5450 -575 
Q 5025 -300 4550 -100 
Q 4075 100 3800 175 
Q 3925 350 4075 525 
z
M 4525 3150 
L 4525 3475 
L 1925 3475 
L 1925 3150 
L 4525 3150 
z
M 4525 1075 
L 4525 1400 
L 1925 1400 
L 1925 1075 
L 4525 1075 
z
M 2775 200 
Q 2375 -25 1875 -225 
Q 1375 -425 950 -575 
Q 775 -400 600 -250 
Q 1225 -50 1625 137 
Q 2025 325 2350 525 
Q 2550 350 2775 200 
z
M 4525 1775 
L 4525 2075 
L 1925 2075 
L 1925 1775 
L 4525 1775 
z
M 4525 2475 
L 4525 2775 
L 1925 2775 
L 1925 2475 
L 4525 2475 
z
" transform="scale(0.015625)"/>
       <path id="SimHei-5b9e" d="M 4125 3500 
Q 4050 3200 4000 2675 
Q 3950 2150 3850 1550 
L 5025 1550 
Q 5475 1550 5975 1575 
L 5975 1100 
Q 5450 1125 5000 1125 
L 3725 1125 
Q 3500 625 3050 250 
Q 2600 -125 2000 -337 
Q 1400 -550 925 -675 
Q 825 -375 500 -200 
Q 1225 -125 2050 212 
Q 2875 550 3200 1125 
L 1425 1125 
Q 975 1125 425 1100 
L 425 1575 
Q 1000 1550 1425 1550 
L 3375 1550 
Q 3450 1975 3487 2462 
Q 3525 2950 3500 3650 
Q 3800 3550 4125 3500 
z
M 3250 5250 
Q 3450 4850 3600 4375 
L 5775 4375 
Q 5750 4100 5750 3825 
Q 5750 3575 5775 3275 
L 5200 3275 
L 5200 3975 
L 1225 3975 
L 1225 3225 
L 675 3225 
Q 700 3525 700 3800 
Q 700 4100 675 4375 
L 2975 4375 
Q 2900 4675 2700 5075 
Q 2900 5150 3250 5250 
z
M 4000 825 
Q 4550 525 5050 262 
Q 5550 0 5925 -225 
Q 5750 -425 5550 -650 
Q 5100 -325 4575 -37 
Q 4050 250 3675 400 
Q 3875 650 4000 825 
z
M 1175 2750 
Q 1600 2550 2350 2050 
Q 2250 1900 2050 1650 
Q 1350 2175 925 2350 
Q 1075 2500 1175 2750 
z
M 3150 2825 
Q 2975 2625 2850 2425 
Q 2050 3000 1675 3125 
Q 1800 3300 1950 3525 
L 3150 2825 
z
" transform="scale(0.015625)"/>
       <path id="SimHei-503c" d="M 3675 4450 
L 3675 5100 
Q 3975 5075 4350 5050 
Q 4225 4875 4200 4450 
L 5125 4450 
Q 5550 4450 5875 4475 
L 5875 4025 
Q 5525 4050 5125 4050 
L 4175 4050 
L 4125 3500 
L 5400 3500 
Q 5375 3200 5375 2700 
L 5375 150 
Q 5875 150 6100 175 
L 6100 -275 
Q 5775 -250 5200 -250 
L 2850 -250 
Q 2275 -250 1900 -275 
L 1900 175 
Q 2125 150 2600 150 
L 2600 2700 
Q 2600 3175 2575 3500 
L 3600 3500 
L 3650 4050 
L 3200 4050 
Q 2575 4050 2225 4025 
L 2225 4475 
Q 2550 4450 3200 4450 
L 3675 4450 
z
M 2225 4900 
Q 2025 4675 1650 3750 
L 1650 450 
Q 1650 -75 1675 -550 
L 1150 -550 
Q 1175 -125 1175 375 
L 1175 2950 
Q 875 2450 625 2150 
Q 425 2425 250 2575 
Q 500 2825 937 3537 
Q 1375 4250 1625 5150 
Q 1975 4975 2225 4900 
z
M 4925 2650 
L 4925 3150 
L 3075 3150 
L 3075 2650 
L 4925 2650 
z
M 4925 150 
L 4925 625 
L 3075 625 
L 3075 150 
L 4925 150 
z
M 4925 1000 
L 4925 1450 
L 3075 1450 
L 3075 1000 
L 4925 1000 
z
M 4925 1825 
L 4925 2275 
L 3075 2275 
L 3075 1825 
L 4925 1825 
z
" transform="scale(0.015625)"/>
      </defs>
      <use xlink:href="#SimHei-771f"/>
      <use xlink:href="#SimHei-5b9e" x="100"/>
      <use xlink:href="#SimHei-503c" x="200"/>
     </g>
    </g>
    <g id="line2d_20">
     <path d="M 55.006299 37.115699 
L 61.006299 37.115699 
L 67.006299 37.115699 
" style="fill: none; stroke-dasharray: 5.55,2.4; stroke-dashoffset: 0; stroke: #ff0000; stroke-width: 1.5"/>
    </g>
    <g id="text_18">
     <!-- 模型输出 -->
     <g transform="translate(71.806299 39.215699)scale(0.06 -0.06)">
      <defs>
       <path id="SimHei-6a21" d="M 5700 3675 
Q 5675 3400 5675 2725 
Q 5675 2050 5700 1725 
L 4375 1725 
Q 4350 1450 4325 1200 
L 5225 1200 
Q 5750 1200 6025 1225 
L 6025 825 
Q 5725 850 5225 850 
L 4700 850 
Q 5075 375 5437 137 
Q 5800 -100 6200 -200 
Q 5975 -375 5850 -625 
Q 5275 -400 4862 25 
Q 4450 450 4300 775 
L 4225 775 
Q 4000 275 3537 -62 
Q 3075 -400 2475 -625 
Q 2350 -375 2125 -200 
Q 2775 -75 3200 200 
Q 3625 475 3775 850 
L 3325 850 
Q 2800 850 2400 825 
L 2400 1225 
Q 2800 1200 3350 1200 
L 3875 1200 
Q 3925 1475 3925 1725 
L 2750 1725 
Q 2775 2075 2775 2700 
Q 2775 3350 2750 3675 
L 5700 3675 
z
M 2175 1650 
Q 2025 1975 1675 2525 
L 1675 300 
Q 1675 -300 1700 -550 
L 1175 -550 
Q 1200 -275 1200 250 
L 1200 2225 
Q 1125 2000 962 1712 
Q 800 1425 600 1050 
Q 450 1275 200 1425 
Q 600 1825 850 2425 
Q 1100 3025 1175 3425 
L 950 3425 
Q 700 3425 400 3400 
L 400 3825 
Q 675 3800 825 3800 
L 1200 3800 
L 1200 4350 
Q 1200 4775 1175 5150 
L 1700 5150 
Q 1675 4825 1675 4425 
L 1675 3800 
Q 2075 3800 2375 3825 
L 2375 3400 
Q 2050 3425 1675 3425 
L 1675 2575 
Q 1850 2675 2000 2775 
Q 2150 2525 2287 2325 
Q 2425 2125 2550 1925 
Q 2325 1775 2175 1650 
z
M 3375 4300 
L 3175 4300 
Q 2700 4300 2425 4275 
L 2425 4675 
Q 2700 4650 3150 4650 
L 3375 4650 
Q 3375 5000 3350 5225 
L 3825 5225 
Q 3800 5000 3800 4650 
L 4550 4650 
Q 4550 4975 4525 5200 
L 5025 5200 
Q 5000 4925 5000 4650 
L 5375 4650 
Q 5650 4650 5950 4675 
L 5950 4275 
Q 5650 4300 5375 4300 
L 5000 4300 
L 5000 3850 
L 4550 3850 
L 4550 4300 
L 3800 4300 
L 3800 3875 
L 3375 3875 
L 3375 4300 
z
M 5275 2075 
L 5275 2525 
L 3200 2525 
L 3200 2075 
L 5275 2075 
z
M 5275 2875 
L 5275 3325 
L 3200 3325 
L 3200 2875 
L 5275 2875 
z
" transform="scale(0.015625)"/>
       <path id="SimHei-578b" d="M 2625 1775 
Q 2650 2325 2650 2700 
L 2650 3000 
L 1825 3000 
Q 1725 2375 1425 2000 
Q 1125 1625 775 1425 
Q 650 1650 375 1900 
Q 850 2075 1062 2362 
Q 1275 2650 1350 3000 
Q 900 3000 375 2975 
L 375 3450 
Q 925 3425 1400 3425 
Q 1425 3950 1425 4475 
Q 1075 4475 700 4450 
L 700 4900 
Q 1050 4875 1525 4875 
L 3000 4875 
Q 3275 4875 3650 4900 
L 3650 4450 
Q 3325 4475 3125 4475 
L 3125 3425 
Q 3450 3425 3825 3450 
L 3825 2975 
Q 3450 3000 3125 3000 
L 3125 2675 
Q 3125 2225 3150 1775 
L 2625 1775 
z
M 3000 1175 
Q 3000 1375 2975 1725 
L 3500 1725 
Q 3475 1375 3475 1175 
L 4550 1175 
Q 5050 1175 5450 1200 
L 5450 725 
Q 4975 750 4550 750 
L 3475 750 
L 3475 -50 
L 5275 -50 
Q 5700 -50 6100 -25 
L 6100 -500 
Q 5725 -475 5300 -475 
L 1250 -475 
Q 775 -475 400 -500 
L 400 -25 
Q 775 -50 1250 -50 
L 3000 -50 
L 3000 750 
L 2025 750 
Q 1500 750 975 725 
L 1050 1200 
Q 1500 1175 2025 1175 
L 3000 1175 
z
M 5775 5200 
Q 5750 4775 5750 4325 
L 5750 2400 
Q 5775 1950 5612 1775 
Q 5450 1600 4900 1525 
Q 4825 1775 4675 2100 
Q 5175 2075 5237 2150 
Q 5300 2225 5300 2525 
L 5300 4325 
Q 5300 4775 5275 5200 
L 5775 5200 
z
M 4600 4750 
Q 4575 4450 4575 3975 
L 4575 3200 
Q 4575 2825 4600 2425 
L 4100 2425 
Q 4125 2825 4125 3200 
L 4125 3975 
Q 4125 4450 4100 4750 
L 4600 4750 
z
M 2650 3425 
L 2650 4475 
L 1875 4475 
Q 1850 3750 1850 3425 
L 2650 3425 
z
" transform="scale(0.015625)"/>
       <path id="SimHei-8f93" d="M 3225 3650 
Q 2725 3100 2550 2950 
L 4100 2950 
Q 4075 2675 4075 2275 
L 4075 -100 
Q 4100 -325 3962 -425 
Q 3825 -525 3475 -600 
Q 3400 -350 3225 -100 
Q 3650 -100 3650 25 
L 3650 675 
L 2975 675 
L 2975 -575 
L 2525 -575 
Q 2550 -125 2550 325 
L 2550 2075 
Q 2550 2500 2525 2925 
L 2375 2800 
Q 2200 3000 1950 3100 
Q 2575 3525 3025 4087 
Q 3475 4650 3775 5300 
Q 4075 5150 4325 5100 
L 4225 4975 
Q 4700 4325 5225 3975 
Q 5750 3625 6200 3475 
Q 5975 3275 5825 3025 
Q 5275 3300 4875 3650 
L 4875 3350 
L 3225 3350 
L 3225 3650 
z
M 2225 825 
Q 1975 775 1725 675 
Q 1725 -100 1750 -650 
L 1275 -650 
Q 1300 -100 1300 575 
Q 725 425 475 325 
Q 400 575 250 825 
Q 650 875 1300 1025 
L 1300 1975 
Q 700 1925 400 1800 
L 225 2225 
Q 425 2350 600 2850 
Q 775 3350 875 3825 
Q 625 3825 350 3800 
L 350 4250 
Q 675 4225 950 4225 
Q 1050 4700 1075 5175 
Q 1400 5075 1675 5025 
Q 1525 4850 1400 4225 
Q 1925 4225 2300 4250 
L 2300 3800 
Q 1850 3825 1325 3825 
Q 1075 2900 825 2325 
L 1300 2375 
Q 1300 2700 1275 3125 
L 1750 3125 
Q 1725 2900 1725 2425 
L 2150 2475 
L 2150 2075 
L 1725 2025 
L 1725 1125 
L 2225 1250 
L 2225 825 
z
M 5775 2925 
Q 5750 2525 5750 2150 
L 5750 -100 
Q 5750 -375 5625 -475 
Q 5500 -575 5000 -675 
Q 4950 -450 4750 -175 
Q 5300 -200 5325 0 
L 5325 2100 
Q 5325 2500 5300 2925 
L 5775 2925 
z
M 4975 2700 
Q 4950 2400 4950 2000 
L 4950 900 
Q 4950 425 4975 125 
L 4475 125 
Q 4500 500 4500 875 
L 4500 2000 
Q 4500 2350 4475 2700 
L 4975 2700 
z
M 4750 3750 
Q 4450 4025 3975 4675 
Q 3575 4075 3300 3750 
L 4750 3750 
z
M 3650 2000 
L 3650 2575 
L 2975 2575 
L 2975 2000 
L 3650 2000 
z
M 3650 1075 
L 3650 1625 
L 2975 1625 
L 2975 1075 
L 3650 1075 
z
" transform="scale(0.015625)"/>
       <path id="SimHei-51fa" d="M 1475 4550 
Q 1450 4225 1450 3950 
L 1450 2950 
L 2925 2950 
L 2925 4425 
Q 2925 4775 2900 5125 
L 3425 5125 
Q 3400 4825 3400 4425 
L 3400 2950 
L 4900 2950 
L 4900 3875 
Q 4900 4275 4875 4525 
L 5400 4525 
Q 5375 4275 5375 3850 
L 5375 3175 
Q 5375 2775 5400 2525 
L 3400 2525 
L 3400 225 
L 5125 225 
L 5125 1275 
Q 5125 1650 5100 1925 
L 5625 1925 
Q 5600 1650 5600 1300 
L 5600 175 
Q 5600 -325 5625 -650 
L 5125 -650 
L 5125 -200 
L 675 -200 
Q 700 100 700 525 
L 700 1275 
Q 700 1700 675 1950 
L 1200 1950 
Q 1175 1700 1175 1275 
L 1175 225 
L 2925 225 
L 2925 2525 
L 950 2525 
Q 975 2775 975 3150 
L 975 3925 
Q 975 4250 950 4550 
L 1475 4550 
z
" transform="scale(0.015625)"/>
      </defs>
      <use xlink:href="#SimHei-6a21"/>
      <use xlink:href="#SimHei-578b" x="100"/>
      <use xlink:href="#SimHei-8f93" x="200"/>
      <use xlink:href="#SimHei-51fa" x="300"/>
     </g>
    </g>
   </g>
  </g>
 </g>
 <defs>
  <clipPath id="p6c90b5c5ff">
   <rect x="49.606299" y="20.409449" width="307.559055" height="128.409449"/>
  </clipPath>
 </defs>
</svg>
