<?xml version="1.0" encoding="utf-8" standalone="no"?>
<!DOCTYPE svg PUBLIC "-//W3C//DTD SVG 1.1//EN"
  "http://www.w3.org/Graphics/SVG/1.1/DTD/svg11.dtd">
<svg xmlns:xlink="http://www.w3.org/1999/xlink" width="283.464567pt" height="170.07874pt" viewBox="0 0 283.464567 170.07874" xmlns="http://www.w3.org/2000/svg" version="1.1">
 <metadata>
  <rdf:RDF xmlns:dc="http://purl.org/dc/elements/1.1/" xmlns:cc="http://creativecommons.org/ns#" xmlns:rdf="http://www.w3.org/1999/02/22-rdf-syntax-ns#">
   <cc:Work>
    <dc:type rdf:resource="http://purl.org/dc/dcmitype/StillImage"/>
    <dc:date>2023-03-08T10:06:58.765764</dc:date>
    <dc:format>image/svg+xml</dc:format>
    <dc:creator>
     <cc:Agent>
      <dc:title>Matplotlib v3.5.3, https://matplotlib.org/</dc:title>
     </cc:Agent>
    </dc:creator>
   </cc:Work>
  </rdf:RDF>
 </metadata>
 <defs>
  <style type="text/css">*{stroke-linejoin: round; stroke-linecap: butt}</style>
 </defs>
 <g id="figure_1">
  <g id="patch_1">
   <path d="M 0 170.07874 
L 283.464567 170.07874 
L 283.464567 0 
L 0 0 
z
" style="fill: #ffffff"/>
  </g>
  <g id="axes_1">
   <g id="patch_2">
    <path d="M 28.34 149.77874 
L 272.664567 149.77874 
L 272.664567 10.8 
L 28.34 10.8 
z
" style="fill: #ffffff"/>
   </g>
   <g id="matplotlib.axis_1">
    <g id="xtick_1">
     <g id="line2d_1">
      <defs>
       <path id="m9cf943fae8" d="M 0 0 
L 0 -3.5 
" style="stroke: #000000; stroke-width: 0.8"/>
      </defs>
      <g>
       <use xlink:href="#m9cf943fae8" x="39.445662" y="149.77874" style="stroke: #000000; stroke-width: 0.8"/>
      </g>
     </g>
     <g id="text_1">
      <!-- 0 -->
      <g transform="translate(37.695662 158.09124)scale(0.07 -0.07)">
       <defs>
        <path id="SimHei-30" d="M 225 2537 
Q 250 3200 412 3587 
Q 575 3975 875 4225 
Q 1175 4475 1612 4475 
Q 2050 4475 2375 4112 
Q 2700 3750 2800 3200 
Q 2900 2650 2862 1937 
Q 2825 1225 2612 775 
Q 2400 325 1975 150 
Q 1550 -25 1125 187 
Q 700 400 525 750 
Q 350 1100 275 1487 
Q 200 1875 225 2537 
z
M 750 2687 
Q 675 2000 800 1462 
Q 925 925 1212 700 
Q 1500 475 1800 612 
Q 2100 750 2237 1162 
Q 2375 1575 2375 2062 
Q 2375 2550 2337 2950 
Q 2300 3350 2112 3675 
Q 1925 4000 1612 4012 
Q 1300 4025 1062 3700 
Q 825 3375 750 2687 
z
" transform="scale(0.015625)"/>
       </defs>
       <use xlink:href="#SimHei-30"/>
      </g>
     </g>
    </g>
    <g id="xtick_2">
     <g id="line2d_2">
      <g>
       <use xlink:href="#m9cf943fae8" x="66.125932" y="149.77874" style="stroke: #000000; stroke-width: 0.8"/>
      </g>
     </g>
     <g id="text_2">
      <!-- 200 -->
      <g transform="translate(60.875932 158.09124)scale(0.07 -0.07)">
       <defs>
        <path id="SimHei-32" d="M 300 250 
Q 325 625 650 925 
Q 975 1225 1475 1862 
Q 1975 2500 2125 2850 
Q 2275 3200 2237 3450 
Q 2200 3700 2000 3862 
Q 1800 4025 1537 4000 
Q 1275 3975 1037 3800 
Q 800 3625 675 3275 
L 200 3350 
Q 400 3925 712 4187 
Q 1025 4450 1450 4475 
Q 1700 4500 1900 4462 
Q 2100 4425 2312 4287 
Q 2525 4150 2662 3875 
Q 2800 3600 2762 3212 
Q 2725 2825 2375 2287 
Q 2025 1750 1025 600 
L 2825 600 
L 2825 150 
L 300 150 
L 300 250 
z
" transform="scale(0.015625)"/>
       </defs>
       <use xlink:href="#SimHei-32"/>
       <use xlink:href="#SimHei-30" x="50"/>
       <use xlink:href="#SimHei-30" x="100"/>
      </g>
     </g>
    </g>
    <g id="xtick_3">
     <g id="line2d_3">
      <g>
       <use xlink:href="#m9cf943fae8" x="92.806201" y="149.77874" style="stroke: #000000; stroke-width: 0.8"/>
      </g>
     </g>
     <g id="text_3">
      <!-- 400 -->
      <g transform="translate(87.556201 158.09124)scale(0.07 -0.07)">
       <defs>
        <path id="SimHei-34" d="M 2000 1100 
L 75 1100 
L 75 1525 
L 2100 4450 
L 2475 4450 
L 2475 1525 
L 3075 1525 
L 3075 1100 
L 2475 1100 
L 2475 150 
L 2000 150 
L 2000 1100 
z
M 2000 1525 
L 2000 3500 
L 600 1525 
L 2000 1525 
z
" transform="scale(0.015625)"/>
       </defs>
       <use xlink:href="#SimHei-34"/>
       <use xlink:href="#SimHei-30" x="50"/>
       <use xlink:href="#SimHei-30" x="100"/>
      </g>
     </g>
    </g>
    <g id="xtick_4">
     <g id="line2d_4">
      <g>
       <use xlink:href="#m9cf943fae8" x="119.48647" y="149.77874" style="stroke: #000000; stroke-width: 0.8"/>
      </g>
     </g>
     <g id="text_4">
      <!-- 600 -->
      <g transform="translate(114.23647 158.09124)scale(0.07 -0.07)">
       <defs>
        <path id="SimHei-36" d="M 250 1612 
Q 275 1975 387 2225 
Q 500 2475 725 2850 
L 1750 4450 
L 2325 4450 
L 1275 2800 
Q 1950 2975 2350 2750 
Q 2750 2525 2887 2237 
Q 3025 1950 3037 1612 
Q 3050 1275 2937 950 
Q 2825 625 2537 362 
Q 2250 100 1737 75 
Q 1225 50 862 262 
Q 500 475 362 862 
Q 225 1250 250 1612 
z
M 1025 787 
Q 1250 550 1625 525 
Q 2000 500 2250 775 
Q 2500 1050 2500 1575 
Q 2500 2100 2187 2300 
Q 1875 2500 1487 2450 
Q 1100 2400 925 2075 
Q 750 1750 775 1387 
Q 800 1025 1025 787 
z
" transform="scale(0.015625)"/>
       </defs>
       <use xlink:href="#SimHei-36"/>
       <use xlink:href="#SimHei-30" x="50"/>
       <use xlink:href="#SimHei-30" x="100"/>
      </g>
     </g>
    </g>
    <g id="xtick_5">
     <g id="line2d_5">
      <g>
       <use xlink:href="#m9cf943fae8" x="146.16674" y="149.77874" style="stroke: #000000; stroke-width: 0.8"/>
      </g>
     </g>
     <g id="text_5">
      <!-- 800 -->
      <g transform="translate(140.91674 158.09124)scale(0.07 -0.07)">
       <defs>
        <path id="SimHei-38" d="M 175 1375 
Q 175 1675 325 1962 
Q 475 2250 825 2425 
Q 525 2600 425 2812 
Q 325 3025 312 3300 
Q 300 3575 387 3775 
Q 475 3975 650 4150 
Q 825 4325 1037 4387 
Q 1250 4450 1500 4450 
Q 1750 4450 1950 4400 
Q 2150 4350 2375 4187 
Q 2600 4025 2700 3725 
Q 2800 3425 2687 3025 
Q 2575 2625 2100 2400 
Q 2525 2275 2700 2012 
Q 2875 1750 2875 1375 
Q 2875 1000 2762 775 
Q 2650 550 2512 400 
Q 2375 250 2137 162 
Q 1900 75 1537 75 
Q 1175 75 912 162 
Q 650 250 475 425 
Q 300 600 237 837 
Q 175 1075 175 1375 
z
M 687 1400 
Q 675 1100 787 875 
Q 900 650 1200 587 
Q 1500 525 1825 600 
Q 2150 675 2275 950 
Q 2400 1225 2362 1500 
Q 2325 1775 2050 1962 
Q 1775 2150 1450 2125 
Q 1125 2100 912 1900 
Q 700 1700 687 1400 
z
M 775 3350 
Q 775 3100 950 2875 
Q 1125 2650 1500 2650 
Q 1875 2650 2062 2875 
Q 2250 3100 2237 3412 
Q 2225 3725 2012 3875 
Q 1800 4025 1437 4000 
Q 1075 3975 925 3787 
Q 775 3600 775 3350 
z
" transform="scale(0.015625)"/>
       </defs>
       <use xlink:href="#SimHei-38"/>
       <use xlink:href="#SimHei-30" x="50"/>
       <use xlink:href="#SimHei-30" x="100"/>
      </g>
     </g>
    </g>
    <g id="xtick_6">
     <g id="line2d_6">
      <g>
       <use xlink:href="#m9cf943fae8" x="172.847009" y="149.77874" style="stroke: #000000; stroke-width: 0.8"/>
      </g>
     </g>
     <g id="text_6">
      <!-- 1000 -->
      <g transform="translate(165.847009 158.09124)scale(0.07 -0.07)">
       <defs>
        <path id="SimHei-31" d="M 1400 3600 
Q 1075 3275 575 2975 
L 575 3450 
Q 1200 3875 1600 4450 
L 1900 4450 
L 1900 150 
L 1400 150 
L 1400 3600 
z
" transform="scale(0.015625)"/>
       </defs>
       <use xlink:href="#SimHei-31"/>
       <use xlink:href="#SimHei-30" x="50"/>
       <use xlink:href="#SimHei-30" x="100"/>
       <use xlink:href="#SimHei-30" x="150"/>
      </g>
     </g>
    </g>
    <g id="xtick_7">
     <g id="line2d_7">
      <g>
       <use xlink:href="#m9cf943fae8" x="199.527278" y="149.77874" style="stroke: #000000; stroke-width: 0.8"/>
      </g>
     </g>
     <g id="text_7">
      <!-- 1200 -->
      <g transform="translate(192.527278 158.09124)scale(0.07 -0.07)">
       <use xlink:href="#SimHei-31"/>
       <use xlink:href="#SimHei-32" x="50"/>
       <use xlink:href="#SimHei-30" x="100"/>
       <use xlink:href="#SimHei-30" x="150"/>
      </g>
     </g>
    </g>
    <g id="xtick_8">
     <g id="line2d_8">
      <g>
       <use xlink:href="#m9cf943fae8" x="226.207548" y="149.77874" style="stroke: #000000; stroke-width: 0.8"/>
      </g>
     </g>
     <g id="text_8">
      <!-- 1400 -->
      <g transform="translate(219.207548 158.09124)scale(0.07 -0.07)">
       <use xlink:href="#SimHei-31"/>
       <use xlink:href="#SimHei-34" x="50"/>
       <use xlink:href="#SimHei-30" x="100"/>
       <use xlink:href="#SimHei-30" x="150"/>
      </g>
     </g>
    </g>
    <g id="xtick_9">
     <g id="line2d_9">
      <g>
       <use xlink:href="#m9cf943fae8" x="252.887817" y="149.77874" style="stroke: #000000; stroke-width: 0.8"/>
      </g>
     </g>
     <g id="text_9">
      <!-- 1600 -->
      <g transform="translate(245.887817 158.09124)scale(0.07 -0.07)">
       <use xlink:href="#SimHei-31"/>
       <use xlink:href="#SimHei-36" x="50"/>
       <use xlink:href="#SimHei-30" x="100"/>
       <use xlink:href="#SimHei-30" x="150"/>
      </g>
     </g>
    </g>
   </g>
   <g id="matplotlib.axis_2">
    <g id="ytick_1">
     <g id="line2d_10">
      <defs>
       <path id="mfec41ba37b" d="M 0 0 
L 3.5 0 
" style="stroke: #000000; stroke-width: 0.8"/>
      </defs>
      <g>
       <use xlink:href="#mfec41ba37b" x="28.34" y="133.811025" style="stroke: #000000; stroke-width: 0.8"/>
      </g>
     </g>
     <g id="text_10">
      <!-- -200 -->
      <g transform="translate(10.84 136.217275)scale(0.07 -0.07)">
       <defs>
        <path id="SimHei-2d" d="M 2975 2125 
L 125 2125 
L 125 2525 
L 2975 2525 
L 2975 2125 
z
" transform="scale(0.015625)"/>
       </defs>
       <use xlink:href="#SimHei-2d"/>
       <use xlink:href="#SimHei-32" x="50"/>
       <use xlink:href="#SimHei-30" x="100"/>
       <use xlink:href="#SimHei-30" x="150"/>
      </g>
     </g>
    </g>
    <g id="ytick_2">
     <g id="line2d_11">
      <g>
       <use xlink:href="#mfec41ba37b" x="28.34" y="116.204616" style="stroke: #000000; stroke-width: 0.8"/>
      </g>
     </g>
     <g id="text_11">
      <!-- 0 -->
      <g transform="translate(21.34 118.610866)scale(0.07 -0.07)">
       <use xlink:href="#SimHei-30"/>
      </g>
     </g>
    </g>
    <g id="ytick_3">
     <g id="line2d_12">
      <g>
       <use xlink:href="#mfec41ba37b" x="28.34" y="98.598206" style="stroke: #000000; stroke-width: 0.8"/>
      </g>
     </g>
     <g id="text_12">
      <!-- 200 -->
      <g transform="translate(14.34 101.004456)scale(0.07 -0.07)">
       <use xlink:href="#SimHei-32"/>
       <use xlink:href="#SimHei-30" x="50"/>
       <use xlink:href="#SimHei-30" x="100"/>
      </g>
     </g>
    </g>
    <g id="ytick_4">
     <g id="line2d_13">
      <g>
       <use xlink:href="#mfec41ba37b" x="28.34" y="80.991797" style="stroke: #000000; stroke-width: 0.8"/>
      </g>
     </g>
     <g id="text_13">
      <!-- 400 -->
      <g transform="translate(14.34 83.398047)scale(0.07 -0.07)">
       <use xlink:href="#SimHei-34"/>
       <use xlink:href="#SimHei-30" x="50"/>
       <use xlink:href="#SimHei-30" x="100"/>
      </g>
     </g>
    </g>
    <g id="ytick_5">
     <g id="line2d_14">
      <g>
       <use xlink:href="#mfec41ba37b" x="28.34" y="63.385388" style="stroke: #000000; stroke-width: 0.8"/>
      </g>
     </g>
     <g id="text_14">
      <!-- 600 -->
      <g transform="translate(14.34 65.791638)scale(0.07 -0.07)">
       <use xlink:href="#SimHei-36"/>
       <use xlink:href="#SimHei-30" x="50"/>
       <use xlink:href="#SimHei-30" x="100"/>
      </g>
     </g>
    </g>
    <g id="ytick_6">
     <g id="line2d_15">
      <g>
       <use xlink:href="#mfec41ba37b" x="28.34" y="45.778978" style="stroke: #000000; stroke-width: 0.8"/>
      </g>
     </g>
     <g id="text_15">
      <!-- 800 -->
      <g transform="translate(14.34 48.185228)scale(0.07 -0.07)">
       <use xlink:href="#SimHei-38"/>
       <use xlink:href="#SimHei-30" x="50"/>
       <use xlink:href="#SimHei-30" x="100"/>
      </g>
     </g>
    </g>
    <g id="ytick_7">
     <g id="line2d_16">
      <g>
       <use xlink:href="#mfec41ba37b" x="28.34" y="28.172569" style="stroke: #000000; stroke-width: 0.8"/>
      </g>
     </g>
     <g id="text_16">
      <!-- 1000 -->
      <g transform="translate(10.84 30.578819)scale(0.07 -0.07)">
       <use xlink:href="#SimHei-31"/>
       <use xlink:href="#SimHei-30" x="50"/>
       <use xlink:href="#SimHei-30" x="100"/>
       <use xlink:href="#SimHei-30" x="150"/>
      </g>
     </g>
    </g>
   </g>
   <g id="line2d_17">
    <path d="M 39.445662 118.036797 
L 39.712465 116.91259 
L 39.845866 118.188727 
L 39.979268 116.554165 
L 40.112669 116.967038 
L 40.24607 118.160683 
L 40.379472 117.771971 
L 40.512873 118.159266 
L 40.646274 118.08207 
L 40.779676 143.461525 
L 40.913077 117.806441 
L 41.046478 116.548694 
L 41.17988 116.388752 
L 41.446682 117.300251 
L 41.580084 118.118878 
L 42.113689 112.782416 
L 42.24709 109.461977 
L 42.380492 112.354083 
L 42.513893 109.083789 
L 42.647294 109.099893 
L 42.780696 108.724347 
L 42.914097 105.682242 
L 43.047499 107.442138 
L 43.1809 106.704121 
L 43.314301 107.29452 
L 43.447703 107.238963 
L 43.581104 106.358154 
L 43.714505 107.539717 
L 43.847907 104.586278 
L 43.981308 104.554484 
L 44.248111 110.967369 
L 44.381512 101.211098 
L 44.514913 104.412303 
L 44.781716 102.233572 
L 44.915117 107.729568 
L 45.048519 104.348804 
L 45.18192 107.719835 
L 45.315321 101.879743 
L 45.448723 101.73817 
L 45.715525 106.114698 
L 45.982328 102.593544 
L 46.115729 105.270523 
L 46.249131 102.935726 
L 46.382532 106.103366 
L 46.515934 102.231106 
L 46.649335 105.585925 
L 46.916138 103.828098 
L 47.049539 104.891971 
L 47.18294 100.827134 
L 47.316342 102.043678 
L 47.583144 105.465006 
L 47.716546 99.960709 
L 47.849947 103.117422 
L 47.983348 102.071555 
L 48.11675 105.631606 
L 48.250151 104.553169 
L 48.383552 105.101864 
L 48.516954 103.699407 
L 48.650355 103.865228 
L 48.783756 107.400367 
L 48.917158 101.568556 
L 49.050559 105.806687 
L 49.18396 102.982892 
L 49.317362 102.978605 
L 49.584165 107.569184 
L 49.984369 102.606522 
L 50.517974 106.300691 
L 50.651375 101.708192 
L 50.784777 102.10504 
L 50.918178 104.060666 
L 51.051579 102.237979 
L 51.184981 104.214437 
L 51.318382 104.404533 
L 51.451783 103.642818 
L 51.585185 101.75777 
L 51.851987 102.585758 
L 51.985389 106.277809 
L 52.252191 100.85102 
L 52.518994 104.734589 
L 52.652395 99.933613 
L 52.785797 99.952267 
L 52.919198 103.265568 
L 53.0526 100.448509 
L 53.319402 102.744732 
L 53.452804 102.255003 
L 53.586205 102.571809 
L 53.719606 104.903314 
L 53.853008 102.935354 
L 53.986409 103.640709 
L 54.386613 99.386148 
L 54.786817 107.016619 
L 54.920218 105.04168 
L 55.05362 99.417983 
L 55.187021 105.452192 
L 55.453824 98.853884 
L 55.587225 107.167811 
L 55.720626 98.849338 
L 55.854028 99.192598 
L 55.987429 102.025146 
L 56.120831 99.580881 
L 56.254232 102.022206 
L 56.521035 98.489776 
L 56.787837 104.378285 
L 57.05464 102.413212 
L 57.188041 103.281821 
L 57.321443 100.801734 
L 57.454844 105.049879 
L 57.588245 103.409309 
L 57.721647 104.695071 
L 57.988449 102.765527 
L 58.121851 107.688512 
L 58.388653 100.311217 
L 58.522055 103.303928 
L 58.655456 99.613088 
L 58.788857 102.62497 
L 58.922259 100.99088 
L 59.05566 102.027207 
L 59.322463 101.361904 
L 59.455864 99.760097 
L 59.589266 101.190818 
L 59.856068 99.236305 
L 59.98947 96.054812 
L 60.122871 100.240697 
L 60.256272 93.725971 
L 60.389674 99.388116 
L 60.656476 94.983229 
L 60.923279 98.144611 
L 61.05668 101.73751 
L 61.190082 93.185235 
L 61.323483 91.93345 
L 61.456884 88.060454 
L 61.590286 90.138255 
L 61.723687 95.632982 
L 61.857088 79.039315 
L 61.99049 91.741049 
L 62.123891 88.738827 
L 62.257292 95.791356 
L 62.390694 84.820352 
L 62.524095 85.351627 
L 62.657497 88.012191 
L 62.790898 80.788746 
L 62.924299 90.652348 
L 63.057701 80.065662 
L 63.191102 90.297645 
L 63.457905 79.69721 
L 63.858109 91.343421 
L 63.99151 79.885374 
L 64.124911 88.889781 
L 64.258313 89.250913 
L 64.525115 79.000645 
L 64.658517 77.597135 
L 64.791918 84.82202 
L 64.925319 83.062942 
L 65.058721 87.471045 
L 65.192122 78.116198 
L 65.325523 80.962445 
L 65.458925 79.170257 
L 65.592326 88.008935 
L 65.725727 73.53067 
L 65.859129 78.635205 
L 65.99253 71.78177 
L 66.125932 84.839489 
L 66.259333 81.117705 
L 66.392734 74.058507 
L 66.659537 81.279914 
L 66.792938 69.124596 
L 66.92634 89.747697 
L 67.193142 76.35269 
L 67.326544 66.310445 
L 67.459945 73.523566 
L 67.593346 74.223323 
L 67.726748 65.413668 
L 67.860149 78.111091 
L 67.99355 67.522896 
L 68.260353 79.342104 
L 68.393754 76.515764 
L 68.527156 77.5756 
L 68.660557 59.946453 
L 68.793958 74.56993 
L 68.92736 73.507386 
L 69.060761 63.817677 
L 69.194163 66.108542 
L 69.327564 54.833552 
L 69.460965 58.001053 
L 69.594367 72.27988 
L 69.727768 59.410044 
L 69.994571 66.809073 
L 70.127972 65.408931 
L 70.261373 66.640117 
L 70.394775 61.003224 
L 70.528176 63.285669 
L 70.661577 54.648397 
L 70.794979 67.162711 
L 70.92838 56.940044 
L 71.061781 66.985809 
L 71.195183 61.526806 
L 71.328584 72.45859 
L 71.461985 61.174021 
L 71.595387 67.697905 
L 71.862189 57.653912 
L 71.995591 61.171408 
L 72.128992 73.684587 
L 72.262393 52.714478 
L 72.529196 66.812426 
L 72.662598 60.11292 
L 72.9294 57.646783 
L 73.062802 58.524328 
L 73.196203 48.479167 
L 73.329604 51.126422 
L 73.596407 65.049332 
L 73.729808 64.520052 
L 73.86321 56.766221 
L 73.996611 55.704656 
L 74.130012 47.422904 
L 74.396815 58.525811 
L 74.530216 48.481949 
L 74.663618 51.476267 
L 74.797019 59.053404 
L 74.93042 46.717992 
L 75.063822 49.18638 
L 75.197223 61.350984 
L 75.330624 56.773396 
L 75.464026 58.351424 
L 75.730829 53.061903 
L 75.997631 52.004193 
L 76.131033 45.134617 
L 76.264434 53.067036 
L 76.397835 43.5477 
L 76.664638 56.059676 
L 76.798039 53.23889 
L 76.931441 56.057267 
L 77.064842 49.537743 
L 77.198243 56.937393 
L 77.331645 42.487744 
L 77.465046 41.790104 
L 77.731849 49.363185 
L 77.86525 60.994187 
L 78.132053 48.831831 
L 78.265454 44.425275 
L 78.398855 36.323984 
L 78.532257 46.895218 
L 78.665658 43.193695 
L 78.932461 50.254563 
L 79.065862 42.669251 
L 79.199264 50.249787 
L 79.466066 42.489724 
L 79.732869 47.609673 
L 79.86627 42.545343 
L 79.999672 45.126887 
L 80.133073 52.950739 
L 80.266474 49.582583 
L 80.399876 66.031538 
L 80.533277 48.403761 
L 80.666678 58.182334 
L 80.80008 56.429628 
L 80.933481 59.987124 
L 81.066882 73.39326 
L 81.200284 61.765138 
L 81.333685 65.058783 
L 81.467086 64.16464 
L 81.600488 61.750579 
L 81.733889 76.81205 
L 81.86729 58.576194 
L 82.267495 104.333898 
L 82.400896 77.55608 
L 82.534297 90.704048 
L 82.667699 84.059111 
L 82.8011 97.146081 
L 82.934501 97.311951 
L 83.067903 99.234179 
L 83.334705 89.992662 
L 83.734909 110.451539 
L 83.868311 104.056759 
L 84.001712 103.713389 
L 84.135113 99.827793 
L 84.268515 99.961312 
L 84.401916 102.645416 
L 84.535317 100.531743 
L 84.668719 103.984485 
L 84.80212 90.987434 
L 84.935521 101.656076 
L 85.068923 95.133473 
L 85.202324 97.709496 
L 85.335725 82.262828 
L 85.602528 93.430606 
L 85.73593 93.381875 
L 85.869331 72.894204 
L 86.002732 94.049163 
L 86.269535 82.209706 
L 86.402936 84.648567 
L 86.536338 83.848553 
L 86.80314 87.605688 
L 87.069943 73.124726 
L 87.203344 84.347384 
L 87.336746 85.207577 
L 87.470147 97.387542 
L 87.603548 78.536757 
L 87.73695 89.135247 
L 88.003752 75.800409 
L 88.270555 90.414676 
L 88.403956 92.862695 
L 88.537358 90.562419 
L 88.670759 84.101678 
L 88.804161 87.708934 
L 88.937562 72.836088 
L 89.204365 85.947476 
L 89.337766 75.646586 
L 89.471167 74.983067 
L 89.604569 83.63928 
L 89.73797 72.333034 
L 89.871371 73.209617 
L 90.004773 78.121902 
L 90.138174 73.887987 
L 90.271575 86.110831 
L 90.538378 64.015712 
L 90.805181 78.452957 
L 90.938582 76.54791 
L 91.071983 71.590133 
L 91.205385 49.370481 
L 91.338786 61.704572 
L 91.472187 52.893271 
L 91.605589 72.35661 
L 91.73899 65.864292 
L 91.872391 87.153405 
L 92.139194 64.140373 
L 92.272596 54.366535 
L 92.405997 68.926951 
L 92.539398 64.634558 
L 92.806201 73.546917 
L 92.939602 105.49722 
L 93.073004 75.27405 
L 93.206405 81.981153 
L 93.473208 72.298814 
L 93.606609 70.912771 
L 93.74001 53.773632 
L 93.873412 81.451861 
L 94.140214 61.704471 
L 94.273616 59.946498 
L 94.407017 49.011776 
L 94.540418 47.779459 
L 94.67382 55.71106 
L 94.807221 54.309584 
L 94.940622 67.541268 
L 95.074024 43.722503 
L 95.207425 58.526865 
L 95.340827 55.885031 
L 95.474228 44.082711 
L 95.607629 46.719135 
L 95.741031 64.187492 
L 95.874432 41.607091 
L 96.007833 43.039946 
L 96.141235 68.923681 
L 96.274636 46.725605 
L 96.408037 46.896795 
L 96.541439 71.454971 
L 96.67484 42.134397 
L 96.808241 56.065501 
L 96.941643 39.669144 
L 97.075044 39.498033 
L 97.208445 70.531962 
L 97.475248 34.910423 
L 97.608649 38.615465 
L 97.742051 48.260548 
L 97.875452 43.203763 
L 98.008853 83.768146 
L 98.142255 48.126072 
L 98.275656 55.632932 
L 98.409057 43.021429 
L 98.542459 41.964315 
L 98.67586 51.265078 
L 98.809262 41.917751 
L 98.942663 44.417956 
L 99.076064 62.60283 
L 99.209466 56.225725 
L 99.476268 35.799339 
L 99.60967 47.752398 
L 99.743071 40.213074 
L 99.876472 46.899719 
L 100.009874 67.176269 
L 100.143275 37.201418 
L 100.276676 35.262707 
L 100.410078 59.599536 
L 100.543479 57.126774 
L 100.810282 42.665272 
L 100.943683 42.66824 
L 101.077084 71.791274 
L 101.343887 44.180393 
L 101.477288 44.340995 
L 101.61069 34.763704 
L 101.877493 43.387506 
L 102.010894 60.159392 
L 102.277697 31.56328 
L 102.544499 53.788599 
L 102.677901 41.255143 
L 102.944703 62.941517 
L 103.078105 47.081139 
L 103.211506 60.469829 
L 103.344907 41.957687 
L 103.478309 46.191297 
L 103.61171 43.550433 
L 103.745111 53.953009 
L 103.878513 37.554665 
L 104.011914 50.09407 
L 104.278717 41.604879 
L 104.412118 33.149419 
L 104.678921 67.378185 
L 104.812322 64.006927 
L 105.079125 41.605171 
L 105.212526 38.081788 
L 105.479329 54.308711 
L 105.61273 39.668369 
L 105.746132 61.028545 
L 105.879533 47.429459 
L 106.012934 52.531947 
L 106.279737 29.625376 
L 106.413138 55.532947 
L 106.679941 40.903968 
L 106.813342 64.896184 
L 106.946744 37.378923 
L 107.080145 44.081522 
L 107.213546 38.611418 
L 107.346948 39.143853 
L 107.480349 34.911827 
L 107.61375 40.37273 
L 107.747152 39.671726 
L 107.880553 47.073182 
L 108.013954 66.287086 
L 108.147356 53.420148 
L 108.280757 58.536781 
L 108.54756 49.189533 
L 108.814363 42.314509 
L 108.947764 49.185617 
L 109.081165 49.362687 
L 109.214567 45.83607 
L 109.347968 48.833015 
L 109.481369 67.002899 
L 109.614771 51.473951 
L 109.748172 53.24134 
L 109.881573 58.53806 
L 110.014975 45.139629 
L 110.148376 55.708122 
L 110.415179 51.840304 
L 110.54858 46.724152 
L 110.681981 48.312228 
L 110.815383 53.41834 
L 110.948784 46.538631 
L 111.215587 52.717409 
L 111.348988 53.946374 
L 111.482389 48.135134 
L 111.615791 58.707018 
L 111.749192 40.196947 
L 111.882594 61.880593 
L 112.015995 60.47183 
L 112.149396 41.080597 
L 112.282798 55.355192 
L 112.416199 46.014274 
L 112.683002 49.891227 
L 112.816403 39.669758 
L 112.949804 47.602672 
L 113.083206 38.965461 
L 113.216607 53.592016 
L 113.350008 54.850954 
L 113.616811 61.022623 
L 113.750212 80.212671 
L 113.883614 37.209777 
L 114.017015 44.600586 
L 114.150416 58.359804 
L 114.283818 38.264943 
L 114.417219 53.600351 
L 114.684022 42.138185 
L 114.817423 36.319914 
L 114.950825 45.485303 
L 115.084226 40.725275 
L 115.217627 45.841262 
L 115.351029 35.790054 
L 115.48443 51.656102 
L 115.617831 37.026696 
L 115.751233 37.205208 
L 115.884634 35.793432 
L 116.018035 45.483294 
L 116.151437 41.608669 
L 116.418239 63.47406 
L 116.551641 35.264931 
L 116.685042 39.319801 
L 116.818443 50.777956 
L 117.085246 32.975132 
L 117.218647 41.608205 
L 117.352049 43.017714 
L 117.618851 35.087453 
L 117.752253 43.369528 
L 117.885654 35.443703 
L 118.152457 39.669553 
L 118.285858 33.679679 
L 118.41926 36.147614 
L 118.552661 34.913501 
L 118.686062 41.619085 
L 118.819464 32.0928 
L 118.952865 32.44503 
L 119.086266 28.217482 
L 119.353069 45.141236 
L 119.48647 45.1397 
L 119.619872 31.741043 
L 119.753273 45.145345 
L 119.886674 73.86264 
L 120.153477 30.154825 
L 120.286878 57.484937 
L 120.42028 32.797557 
L 120.687082 42.846389 
L 120.820484 29.977888 
L 120.953885 32.797691 
L 121.087286 32.795914 
L 121.220688 31.033949 
L 121.487491 44.809746 
L 121.620892 36.144868 
L 121.754293 34.736105 
L 121.887695 34.909375 
L 122.021096 28.920013 
L 122.154497 36.496511 
L 122.287899 26.983094 
L 122.554701 54.677738 
L 122.821504 37.026321 
L 122.954905 41.431241 
L 123.088307 41.791044 
L 123.221708 43.903795 
L 123.355109 38.440509 
L 123.488511 47.258132 
L 123.621912 30.685563 
L 123.755313 35.619234 
L 123.888715 28.393477 
L 124.022116 33.68027 
L 124.155517 28.393444 
L 124.288919 46.194104 
L 124.555721 27.687232 
L 124.689123 53.781179 
L 124.822524 30.858698 
L 124.955926 38.814015 
L 125.089327 53.596744 
L 125.489531 26.804983 
L 125.622932 39.492325 
L 125.756334 39.140847 
L 125.889735 43.54668 
L 126.156538 26.45451 
L 126.42334 34.557034 
L 126.556742 26.806622 
L 126.690143 37.027458 
L 126.956946 29.273946 
L 127.090347 30.155534 
L 127.35715 41.079228 
L 127.490551 43.371578 
L 127.623952 28.218878 
L 127.757354 27.511684 
L 127.890755 53.6028 
L 128.157558 26.62995 
L 128.290959 28.392185 
L 128.424361 28.216427 
L 128.557762 55.728098 
L 128.824565 31.918982 
L 128.957966 39.138241 
L 129.091367 29.276138 
L 129.224769 37.026553 
L 129.491571 27.862096 
L 129.624973 32.095109 
L 129.758374 29.803005 
L 129.891775 59.604763 
L 130.025177 40.726862 
L 130.158578 39.689611 
L 130.425381 56.946068 
L 130.558782 29.094611 
L 130.692183 50.598617 
L 130.958986 28.042757 
L 131.225789 38.786967 
L 131.35919 47.249769 
L 131.759394 28.74773 
L 132.026197 45.871094 
L 132.426401 26.808667 
L 132.559802 45.838807 
L 132.693204 34.913122 
L 132.826605 61.016398 
L 132.960006 64.875834 
L 133.093408 43.197818 
L 133.226809 48.130909 
L 133.36021 33.504544 
L 133.493612 49.898589 
L 133.627013 37.732117 
L 133.760414 79.236841 
L 133.893816 38.790369 
L 134.027217 49.564226 
L 134.160618 46.012326 
L 134.29402 48.312112 
L 134.560823 46.015131 
L 134.694224 71.4141 
L 134.961027 47.613138 
L 135.094428 47.780881 
L 135.227829 38.438961 
L 135.361231 45.319947 
L 135.494632 40.551541 
L 135.761435 48.67219 
L 135.894836 40.384467 
L 136.028237 48.130809 
L 136.161639 49.012907 
L 136.29504 44.964538 
L 136.428441 49.551551 
L 136.561843 46.199099 
L 136.695244 49.911085 
L 136.828645 48.841303 
L 137.095448 39.49629 
L 137.228849 56.779546 
L 137.362251 46.909545 
L 137.495652 48.307717 
L 137.629053 37.035752 
L 137.762455 57.500355 
L 137.895856 59.237714 
L 138.029258 45.157095 
L 138.29606 43.913875 
L 138.429462 60.501276 
L 138.562863 62.237538 
L 138.696264 45.689713 
L 138.963067 50.783079 
L 139.096468 50.089316 
L 139.22987 63.317365 
L 139.363271 52.385919 
L 139.496672 55.188222 
L 139.630074 50.091647 
L 139.763475 53.954203 
L 139.896876 44.432563 
L 140.030278 48.487807 
L 140.163679 34.558894 
L 140.29708 53.783121 
L 140.430482 52.542006 
L 140.563883 44.784529 
L 140.697284 45.674799 
L 140.830686 39.844616 
L 140.964087 40.733264 
L 141.097489 52.019166 
L 141.364291 43.898927 
L 141.497693 41.084264 
L 141.631094 45.663445 
L 141.764495 36.32232 
L 141.897897 48.662629 
L 142.031298 33.503456 
L 142.164699 50.625345 
L 142.298101 30.153461 
L 142.431502 46.016558 
L 142.564903 41.962445 
L 142.698305 34.380993 
L 142.831706 45.841239 
L 143.098509 33.504341 
L 143.365311 41.961554 
L 143.498713 45.501562 
L 143.765515 31.56928 
L 143.898917 48.657342 
L 144.032318 35.441596 
L 144.165719 50.068072 
L 144.432522 36.145838 
L 144.565924 31.74043 
L 144.832726 52.366993 
L 144.966128 30.682802 
L 145.099529 30.332047 
L 145.23293 49.899923 
L 145.366332 25.398319 
L 145.499733 27.688644 
L 145.766536 71.572904 
L 145.899937 38.438671 
L 146.033338 59.948443 
L 146.16674 44.073079 
L 146.300141 54.477565 
L 146.566944 32.975756 
L 146.700345 32.093515 
L 146.833746 46.373373 
L 146.967148 26.277876 
L 147.367352 55.712177 
L 147.500753 28.92019 
L 147.634155 32.447515 
L 147.767556 56.061035 
L 147.900957 31.387734 
L 148.034359 31.914714 
L 148.16776 27.687982 
L 148.301161 34.561391 
L 148.434563 30.860277 
L 148.567964 42.663995 
L 148.701365 23.282836 
L 148.834767 46.559501 
L 148.968168 27.688407 
L 149.101569 27.687506 
L 149.234971 51.661399 
L 149.501773 30.69632 
L 149.768576 54.318439 
L 149.901977 38.259539 
L 150.035379 51.326789 
L 150.16878 43.204882 
L 150.302181 52.015432 
L 150.435583 33.325416 
L 150.702385 43.02952 
L 150.835787 34.736369 
L 150.969188 56.769251 
L 151.235991 40.726572 
L 151.636195 27.337432 
L 151.769596 52.721061 
L 151.902998 23.812375 
L 152.036399 33.501577 
L 152.1698 25.747831 
L 152.436603 43.195195 
L 152.570004 29.274015 
L 152.703406 33.501382 
L 152.836807 41.613889 
L 152.970208 36.499788 
L 153.10361 49.19551 
L 153.237011 29.801307 
L 153.370412 30.858691 
L 153.503814 37.031425 
L 153.637215 26.104862 
L 153.770616 55.535158 
L 153.904018 25.926346 
L 154.037419 26.981497 
L 154.170821 34.560233 
L 154.304222 49.540333 
L 154.437623 34.73672 
L 154.571025 69.292145 
L 154.704426 29.628451 
L 154.837827 25.220827 
L 154.971229 29.096965 
L 155.238031 46.902325 
L 155.371433 54.47891 
L 155.504834 33.679228 
L 155.638235 66.107896 
L 155.771637 65.237853 
L 155.905038 30.507722 
L 156.038439 27.512545 
L 156.171841 33.513782 
L 156.305242 26.806564 
L 156.572045 33.153115 
L 156.705446 33.157016 
L 156.838847 45.141118 
L 156.972249 29.449193 
L 157.239051 27.336277 
L 157.372453 24.339927 
L 157.505854 25.220373 
L 157.639256 29.978697 
L 157.772657 24.69237 
L 157.906058 51.142202 
L 158.03946 33.324244 
L 158.172861 31.035857 
L 158.306262 40.550185 
L 158.439664 40.928569 
L 158.573065 36.504515 
L 158.706466 49.37085 
L 158.839868 36.517662 
L 158.973269 49.359077 
L 159.10667 28.392252 
L 159.240072 25.219794 
L 159.773677 37.736048 
L 159.907078 56.408454 
L 160.04048 40.908302 
L 160.173881 50.605377 
L 160.440684 25.575128 
L 160.574085 24.693279 
L 160.707487 40.907734 
L 160.840888 35.616426 
L 160.974289 43.023758 
L 161.107691 56.972263 
L 161.374493 33.150462 
L 161.507895 25.044552 
L 161.641296 36.145396 
L 161.774697 32.269882 
L 162.0415 55.171699 
L 162.308303 22.929215 
L 162.441704 31.034618 
L 162.575105 21.52035 
L 162.708507 22.225274 
L 162.841908 25.220499 
L 162.975309 60.672618 
L 163.242112 24.163854 
L 163.375513 25.045952 
L 163.508915 49.89769 
L 163.642316 25.22078 
L 163.909119 21.520856 
L 164.04252 39.324089 
L 164.175922 23.458768 
L 164.309323 28.049065 
L 164.442724 26.1014 
L 164.576126 26.456338 
L 164.709527 22.754716 
L 164.842928 28.567196 
L 164.97633 25.220389 
L 165.109731 26.64131 
L 165.243132 40.905798 
L 165.509935 21.16633 
L 165.643336 44.60889 
L 166.04354 21.87228 
L 166.176942 28.390165 
L 166.310343 48.48361 
L 166.577146 36.185024 
L 166.710547 33.855257 
L 166.843948 23.459965 
L 166.97735 41.612046 
L 167.110751 34.922817 
L 167.244153 59.76735 
L 167.510955 25.753456 
L 167.644357 26.10366 
L 167.777758 33.67795 
L 167.911159 21.520143 
L 168.044561 22.050042 
L 168.177962 25.396751 
L 168.311363 23.106802 
L 168.444765 40.210335 
L 168.578166 21.875305 
L 168.711567 39.849492 
L 168.844969 39.673904 
L 168.97837 45.836444 
L 169.245173 21.699087 
L 169.511975 27.51104 
L 169.645377 27.535284 
L 169.778778 37.91158 
L 169.912179 21.697552 
L 170.045581 20.11323 
L 170.312383 31.922367 
L 170.712588 19.055415 
L 170.845989 19.759331 
L 170.97939 44.961262 
L 171.112792 34.206196 
L 171.246193 64.193657 
L 171.379594 25.399795 
L 171.512996 24.693728 
L 171.646397 33.150048 
L 171.9132 23.282978 
L 172.046601 21.875349 
L 172.313404 24.867768 
L 172.446805 23.107309 
L 172.580206 25.22047 
L 172.713608 21.167805 
L 172.847009 21.344737 
L 172.98041 19.406089 
L 173.113812 43.556732 
L 173.247213 24.515532 
L 173.380614 53.070043 
L 173.647417 29.802524 
L 173.780819 48.495089 
L 174.181023 40.024796 
L 174.314424 21.520456 
L 174.447825 33.857615 
L 174.581227 31.034754 
L 174.714628 44.265384 
L 174.848029 22.580735 
L 175.114832 18.701279 
L 175.248233 40.901257 
L 175.381635 34.048642 
L 175.648437 60.467011 
L 175.781839 29.802967 
L 175.91524 28.393099 
L 176.048641 22.225193 
L 176.182043 43.725897 
L 176.315444 20.64101 
L 176.582247 22.57705 
L 176.715648 18.702493 
L 176.849049 29.803686 
L 176.982451 23.458948 
L 177.115852 26.457835 
L 177.516056 22.226743 
L 177.649458 25.926674 
L 177.782859 20.642118 
L 177.91626 21.702479 
L 178.049662 18.704356 
L 178.183063 22.75557 
L 178.316464 21.169852 
L 178.449866 25.571502 
L 178.583267 20.462446 
L 178.983471 63.325824 
L 179.116872 31.035312 
L 179.250274 60.166796 
L 179.383675 23.284335 
L 179.517076 23.458824 
L 179.783879 21.347893 
L 179.91728 40.384645 
L 180.184083 21.169933 
L 180.317485 20.993547 
L 180.450886 22.579632 
L 180.584287 28.217975 
L 180.717689 17.998004 
L 181.251294 38.106641 
L 181.518097 21.699713 
L 181.651498 29.626515 
L 181.784899 62.100641 
L 182.185103 25.223589 
L 182.318505 28.747756 
L 182.585307 48.48561 
L 182.85211 20.465894 
L 182.985511 56.817857 
L 183.118913 56.433999 
L 183.252314 26.632864 
L 183.385715 41.080706 
L 183.519117 21.698035 
L 183.652518 25.749196 
L 183.78592 48.67892 
L 184.052722 35.794233 
L 184.186124 21.345721 
L 184.319525 24.693569 
L 184.586328 22.5792 
L 184.986532 56.413288 
L 185.119933 26.630379 
L 185.253334 26.102441 
L 185.520137 36.51231 
L 185.653538 23.283914 
L 185.78694 22.051611 
L 185.920341 23.987608 
L 186.053742 28.041137 
L 186.187144 59.458177 
L 186.320545 26.633161 
L 186.453946 59.946824 
L 186.854151 29.979543 
L 186.987552 29.4504 
L 187.254355 21.3469 
L 187.387756 24.51781 
L 187.654559 57.291384 
L 187.921361 24.3417 
L 188.054763 21.170573 
L 188.188164 22.756174 
L 188.321565 21.87455 
L 188.454967 38.800571 
L 188.588368 39.330899 
L 188.721769 46.905678 
L 188.988572 23.812838 
L 189.121973 29.099199 
L 189.255375 38.798326 
L 189.522177 27.864749 
L 189.655579 28.748367 
L 189.78898 24.340104 
L 189.922381 67.862434 
L 190.055783 27.689731 
L 190.189184 27.512436 
L 190.322586 24.870151 
L 190.589388 48.135986 
L 190.72279 44.264474 
L 190.989592 25.219355 
L 191.256395 21.521712 
L 191.389796 26.629991 
L 191.523198 47.08458 
L 191.656599 25.575803 
L 191.79 35.618461 
L 191.923402 62.102398 
L 192.056803 26.809047 
L 192.323606 23.987476 
L 192.457007 68.391782 
L 192.590408 56.652042 
L 192.72381 58.194241 
L 192.990612 23.635858 
L 193.124014 27.334836 
L 193.257415 27.689312 
L 193.390817 20.287539 
L 193.657619 29.977896 
L 193.791021 44.600348 
L 193.924422 23.107937 
L 194.057823 20.993454 
L 194.191225 76.86595 
L 194.458027 23.635828 
L 194.591429 20.288355 
L 194.72483 21.874168 
L 194.858231 45.134852 
L 194.991633 31.388923 
L 195.125034 75.112237 
L 195.391837 26.630616 
L 195.525238 21.873097 
L 195.792041 35.618847 
L 195.925442 18.879565 
L 196.058843 26.982211 
L 196.192245 21.344874 
L 196.325646 58.368068 
L 196.459047 47.27878 
L 196.592449 25.223039 
L 196.72585 21.697903 
L 196.859252 28.92341 
L 196.992653 20.111878 
L 197.126054 48.48603 
L 197.259456 37.217827 
L 197.392857 51.307962 
L 197.526258 50.964529 
L 197.65966 25.223104 
L 197.793061 24.693598 
L 197.926462 35.976289 
L 198.059864 24.164373 
L 198.193265 37.917024 
L 198.326666 25.046308 
L 198.460068 27.864185 
L 198.72687 23.460372 
L 198.860272 22.75523 
L 198.993673 23.812509 
L 199.127074 25.926095 
L 199.260476 32.623503 
L 199.393877 58.525946 
L 199.66068 36.321498 
L 199.794081 29.273088 
L 199.927483 39.495819 
L 200.060884 19.583388 
L 200.194285 22.930903 
L 200.327687 21.698625 
L 200.461088 38.63039 
L 200.594489 26.10451 
L 200.727891 27.159694 
L 200.861292 22.578297 
L 200.994693 21.872079 
L 201.128095 34.563405 
L 201.261496 19.407763 
L 201.394897 20.816765 
L 201.528299 44.258991 
L 201.795101 25.749233 
L 201.928503 20.112359 
L 202.195305 67.540934 
L 202.328707 62.756479 
L 202.462108 23.108174 
L 202.595509 25.928343 
L 202.728911 24.516314 
L 202.862312 20.818714 
L 202.995713 21.523047 
L 203.129115 26.984133 
L 203.395918 20.817597 
L 203.529319 20.817084 
L 203.66272 22.754979 
L 203.796122 48.323766 
L 203.929523 23.107995 
L 204.062924 41.08339 
L 204.196326 26.106139 
L 204.329727 30.860014 
L 204.463128 52.778717 
L 204.59653 50.062868 
L 204.863332 26.456771 
L 204.996734 19.9354 
L 205.130135 61.883662 
L 205.396938 22.226067 
L 205.530339 51.155496 
L 205.930543 23.637127 
L 206.063944 21.346499 
L 206.197346 43.222349 
L 206.330747 24.692419 
L 206.464149 22.226546 
L 206.59755 36.680696 
L 206.730951 19.936722 
L 206.864353 22.933121 
L 206.997754 22.402674 
L 207.131155 47.604101 
L 207.264557 50.600579 
L 207.397958 22.930453 
L 207.531359 58.359999 
L 207.664761 31.211307 
L 207.798162 39.328123 
L 208.198366 20.640757 
L 208.331767 19.054661 
L 208.465169 31.037555 
L 208.59857 24.166083 
L 208.731971 38.451391 
L 208.865373 22.756731 
L 208.998774 101.031839 
L 209.132175 19.760538 
L 209.265577 32.448282 
L 209.398978 20.994675 
L 209.532379 37.388868 
L 209.665781 21.69774 
L 209.799182 22.228725 
L 209.932584 19.407758 
L 210.065985 23.284101 
L 210.199386 22.5789 
L 210.59959 42.15018 
L 210.732992 22.932368 
L 210.866393 21.345851 
L 211.133196 24.516807 
L 211.399998 20.113498 
L 211.5334 19.584084 
L 211.666801 22.050627 
L 211.800202 20.287734 
L 211.933604 25.937768 
L 212.067005 25.752926 
L 212.200406 39.854991 
L 212.467209 17.822489 
L 212.867413 39.321592 
L 213.134216 18.880337 
L 213.267617 19.937225 
L 213.401019 24.517412 
L 213.53442 22.051583 
L 213.667821 21.698719 
L 213.801223 21.69782 
L 214.068025 19.583222 
L 214.201427 27.16076 
L 214.468229 19.760142 
L 214.601631 62.086293 
L 215.001835 19.759604 
L 215.135236 20.640267 
L 215.268637 25.046782 
L 215.402039 21.169885 
L 215.53544 35.795966 
L 215.802243 24.339642 
L 215.935644 23.284521 
L 216.069045 34.226784 
L 216.202447 28.924433 
L 216.335848 31.591918 
L 216.46925 46.544321 
L 216.736052 22.930712 
L 216.869454 53.604119 
L 217.002855 36.68245 
L 217.136256 62.760029 
L 217.269658 23.638122 
L 217.403059 22.931754 
L 217.669862 38.612299 
L 217.803263 23.636386 
L 217.936664 21.521396 
L 218.070066 21.345946 
L 218.203467 69.062144 
L 218.336868 32.620602 
L 218.47027 29.627331 
L 218.737072 32.665515 
L 218.870474 59.597755 
L 219.137276 21.699357 
L 219.404079 58.530074 
L 219.537481 30.332343 
L 219.670882 27.513853 
L 219.804283 28.041438 
L 219.937685 33.328064 
L 220.337889 20.464197 
L 220.604691 23.98996 
L 220.738093 19.582761 
L 220.871494 29.802754 
L 221.004895 20.817839 
L 221.138297 42.31822 
L 221.271698 20.993083 
L 221.405099 32.272925 
L 221.671902 20.995297 
L 221.805303 28.39334 
L 222.072106 21.168439 
L 222.205507 17.471419 
L 222.338909 20.817371 
L 222.47231 20.642099 
L 222.605711 42.150639 
L 222.739113 28.044395 
L 222.872514 48.666709 
L 223.005916 22.049675 
L 223.139317 41.102697 
L 223.272718 22.934278 
L 223.539521 26.455465 
L 223.806324 22.755775 
L 224.073126 19.406979 
L 224.206528 47.962828 
L 224.339929 23.460057 
L 224.47333 33.678411 
L 224.740133 22.57979 
L 224.873534 20.642281 
L 225.006936 22.40376 
L 225.140337 65.255106 
L 225.273738 20.818594 
L 225.40714 19.407654 
L 225.673942 49.731947 
L 225.940745 24.518937 
L 226.207548 19.055712 
L 226.340949 20.111616 
L 226.474351 17.82291 
L 226.607752 24.868922 
L 226.741153 22.051533 
L 226.874555 22.402353 
L 227.007956 18.174775 
L 227.141357 21.699718 
L 227.274759 29.274456 
L 227.40816 19.759809 
L 227.541561 21.696893 
L 227.674963 29.80246 
L 227.808364 45.860473 
L 228.075167 21.524017 
L 228.208568 20.110857 
L 228.341969 26.102189 
L 228.475371 20.641454 
L 228.608772 23.461102 
L 228.742173 20.642572 
L 228.875575 23.812948 
L 229.008976 24.16474 
L 229.142377 20.642067 
L 229.275779 34.758502 
L 229.40918 77.735011 
L 229.542582 25.223744 
L 229.675983 21.345178 
L 229.942786 34.391224 
L 230.076187 26.282609 
L 230.209588 38.640274 
L 230.34299 30.858937 
L 230.476391 30.510371 
L 230.609792 18.878564 
L 230.743194 29.100393 
L 230.876595 17.471594 
L 231.009996 76.539946 
L 231.143398 32.0966 
L 231.276799 49.755736 
L 231.4102 32.106658 
L 231.543602 47.266334 
L 231.943806 22.578705 
L 232.077207 28.921615 
L 232.210608 20.815937 
L 232.34401 19.761223 
L 232.477411 25.40492 
L 232.610813 43.245441 
L 232.877615 19.93694 
L 233.011017 18.174122 
L 233.144418 46.23715 
L 233.277819 26.807783 
L 233.411221 28.21775 
L 233.544622 40.209143 
L 233.678023 29.275533 
L 233.944826 33.516222 
L 234.211629 19.055335 
L 234.34503 20.463773 
L 234.478431 24.339228 
L 234.611833 34.921616 
L 234.745234 34.566176 
L 234.878635 20.116389 
L 235.278839 26.103954 
L 235.412241 23.635416 
L 235.679043 39.874334 
L 235.812445 31.568428 
L 235.945846 70.363878 
L 236.079248 68.920089 
L 236.34605 22.756927 
L 236.479452 23.812509 
L 236.612853 19.937123 
L 236.746254 19.938181 
L 236.879656 25.045985 
L 237.013057 24.340623 
L 237.146458 32.800799 
L 237.27986 20.289068 
L 237.413261 19.054063 
L 237.546662 19.582917 
L 237.680064 19.407609 
L 237.813465 25.75248 
L 237.946866 19.759753 
L 238.080268 31.391776 
L 238.213669 18.527377 
L 238.34707 28.751205 
L 238.480472 17.82163 
L 238.613873 28.573793 
L 238.880676 18.70376 
L 239.147479 22.227841 
L 239.28088 51.130726 
L 239.414281 44.955009 
L 239.547683 56.453979 
L 239.814485 32.094475 
L 239.947887 74.236595 
L 240.214689 23.460921 
L 240.348091 42.151419 
L 240.614893 20.995019 
L 240.748295 20.289911 
L 241.015097 26.984944 
L 241.148499 52.721473 
L 241.415301 23.637313 
L 241.548703 20.111939 
L 241.682104 26.10209 
L 241.815505 41.304954 
L 241.948907 78.610137 
L 242.215709 30.331717 
L 242.482512 35.285527 
L 242.615914 54.361537 
L 242.882716 37.025083 
L 243.149519 21.521033 
L 243.28292 23.283302 
L 243.416322 22.225187 
L 243.549723 36.674685 
L 243.683124 23.988044 
L 243.816526 21.876705 
L 243.949927 28.393784 
L 244.21673 21.170543 
L 244.350131 18.703214 
L 244.483532 39.145595 
L 244.750335 21.170569 
L 244.883736 24.694962 
L 245.017138 47.817118 
L 245.150539 48.675651 
L 245.417342 21.875247 
L 245.550743 29.985265 
L 245.817546 19.23198 
L 245.950947 21.169824 
L 246.084349 19.936318 
L 246.21775 25.749132 
L 246.351151 19.760203 
L 246.751355 49.370811 
L 246.884757 47.263728 
L 247.151559 26.280801 
L 247.284961 25.926178 
L 247.418362 50.788145 
L 247.551763 23.636636 
L 247.685165 51.319456 
L 247.818566 27.339806 
L 247.951967 32.800157 
L 248.21877 23.814117 
L 248.352171 24.69458 
L 248.485573 23.284802 
L 248.618974 25.399123 
L 248.752375 19.40704 
L 249.019178 29.453962 
L 249.285981 24.341012 
L 249.419382 33.680744 
L 249.552784 18.702127 
L 249.686185 19.054698 
L 249.819586 17.117215 
L 249.952988 34.389572 
L 250.086389 19.055503 
L 250.21979 18.174821 
L 250.353192 23.283337 
L 250.486593 18.174893 
L 250.619994 19.408334 
L 250.753396 60.664593 
L 250.886797 26.103514 
L 251.020198 26.278232 
L 251.1536 20.817954 
L 251.287001 32.451861 
L 251.553804 20.81887 
L 251.820606 21.345677 
L 251.954008 19.761691 
L 252.220811 32.997552 
L 252.354212 33.328634 
L 252.487613 31.388893 
L 252.621015 21.874693 
L 252.754416 29.275367 
L 252.887817 20.815838 
L 253.021219 26.457356 
L 253.15462 46.560657 
L 253.288021 22.404019 
L 253.421423 20.113994 
L 253.554824 19.937372 
L 253.688225 35.621904 
L 253.821627 19.583857 
L 253.955028 21.169268 
L 254.088429 33.155494 
L 254.221831 18.703149 
L 254.355232 25.419952 
L 254.488633 39.145261 
L 254.622035 23.284273 
L 254.755436 26.455358 
L 254.888837 22.932593 
L 255.022239 24.341388 
L 255.15564 38.973984 
L 255.289041 21.525201 
L 255.422443 21.697794 
L 255.555844 47.602279 
L 255.689246 25.574403 
L 255.956048 20.465398 
L 256.08945 23.28522 
L 256.222851 19.761757 
L 256.489654 23.286806 
L 256.623055 41.987941 
L 256.756456 23.987979 
L 256.889858 29.628016 
L 257.15666 22.579229 
L 257.290062 24.165874 
L 257.423463 20.817874 
L 257.556864 22.756173 
L 257.690266 42.491059 
L 257.823667 23.813443 
L 257.957068 22.756355 
L 258.09047 36.152091 
L 258.223871 19.760858 
L 258.357272 21.346758 
L 258.490674 44.614786 
L 258.624075 22.40501 
L 258.757477 23.461638 
L 258.890878 27.336716 
L 259.024279 19.233044 
L 259.157681 40.025693 
L 259.291082 19.054708 
L 259.424483 18.17434 
L 259.557885 19.759513 
L 259.691286 25.748884 
L 260.09149 18.174391 
L 260.224891 34.036316 
L 260.491694 18.526535 
L 260.625095 21.52264 
L 260.758497 53.179397 
L 260.891898 20.643394 
L 261.025299 20.642386 
L 261.158701 18.879723 
L 261.292102 20.289275 
L 261.425503 25.399663 
L 261.558905 21.873551 
L 261.558905 21.873551 
" clip-path="url(#p36b7e00996)" style="fill: none; stroke: #1f77b4; stroke-opacity: 0.4; stroke-width: 1.5; stroke-linecap: square"/>
   </g>
   <g id="line2d_18">
    <path d="M 39.445662 117.60673 
L 39.579063 120.149203 
L 39.845866 120.170058 
L 39.979268 119.990061 
L 40.379472 120.040784 
L 40.512873 119.930361 
L 40.779676 119.078931 
L 41.046478 115.176574 
L 41.313281 114.026617 
L 41.713485 111.158353 
L 42.113689 108.862953 
L 42.647294 107.067037 
L 42.914097 106.535616 
L 43.047499 107.064128 
L 43.314301 106.211843 
L 43.581104 105.330249 
L 43.714505 105.467391 
L 43.847907 105.148299 
L 43.981308 105.461655 
L 44.114709 105.194181 
L 44.381512 103.986983 
L 44.514913 104.477343 
L 44.648315 104.506566 
L 44.781716 104.417523 
L 44.915117 104.721218 
L 45.048519 104.241834 
L 45.18192 104.41729 
L 45.315321 103.868417 
L 45.582124 104.522821 
L 45.848927 104.272083 
L 46.115729 103.829356 
L 46.249131 103.773419 
L 46.382532 104.026347 
L 46.515934 103.412081 
L 46.649335 103.500713 
L 46.782736 103.149276 
L 47.449743 103.817712 
L 47.583144 104.086633 
L 47.716546 103.696988 
L 47.849947 104.281586 
L 48.250151 104.321286 
L 48.516954 104.695924 
L 48.650355 104.814411 
L 48.783756 104.68854 
L 48.917158 104.293641 
L 49.050559 104.508669 
L 49.18396 104.488159 
L 49.317362 104.819939 
L 49.450763 104.692898 
L 49.984369 103.600532 
L 50.251171 103.799478 
L 50.517974 103.285598 
L 50.651375 102.914105 
L 50.784777 103.371067 
L 50.918178 103.421432 
L 51.051579 103.100468 
L 51.318382 103.151334 
L 51.585185 102.335186 
L 51.718586 102.485966 
L 52.252191 101.829636 
L 52.518994 102.269398 
L 52.652395 102.089474 
L 52.919198 102.688775 
L 53.186001 102.372329 
L 53.452804 102.33518 
L 53.719606 103.058329 
L 53.853008 102.509796 
L 53.986409 102.76148 
L 54.11981 102.671143 
L 54.253212 102.332713 
L 54.386613 102.933147 
L 54.520014 102.879466 
L 54.786817 102.575459 
L 55.05362 101.529938 
L 55.187021 101.547799 
L 55.320422 100.851558 
L 55.453824 100.888865 
L 55.587225 101.441305 
L 55.720626 101.035404 
L 55.987429 101.800713 
L 56.120831 101.678372 
L 56.521035 102.87383 
L 56.654436 103.36962 
L 56.787837 103.335131 
L 56.921239 103.666154 
L 57.05464 103.639411 
L 57.188041 103.429211 
L 57.321443 103.431422 
L 57.588245 103.070067 
L 58.121851 102.227788 
L 58.388653 101.269891 
L 58.522055 101.230418 
L 59.722667 97.581148 
L 59.856068 97.763251 
L 60.523075 94.793698 
L 60.789878 92.59626 
L 61.590286 88.00547 
L 61.723687 88.056879 
L 61.857088 86.500147 
L 61.99049 87.62598 
L 62.257292 85.994055 
L 62.390694 84.737381 
L 62.657497 85.724747 
L 62.790898 84.912066 
L 62.924299 85.722169 
L 63.057701 85.582026 
L 63.191102 85.93522 
L 63.457905 84.118892 
L 63.591306 84.631373 
L 63.858109 84.492088 
L 63.99151 83.169365 
L 64.124911 83.277072 
L 64.258313 82.30512 
L 64.391714 82.180922 
L 64.525115 81.174229 
L 64.658517 81.137685 
L 64.791918 80.556149 
L 64.925319 80.557896 
L 65.058721 80.363372 
L 65.192122 79.022118 
L 65.458925 79.212348 
L 65.592326 78.207782 
L 65.725727 78.381658 
L 65.859129 79.438246 
L 65.99253 79.209994 
L 66.125932 78.662862 
L 66.526136 75.977347 
L 66.659537 75.818354 
L 66.792938 74.442652 
L 66.92634 74.741303 
L 67.193142 72.942666 
L 67.326544 73.064957 
L 67.459945 72.428558 
L 67.593346 72.533194 
L 67.860149 72.302001 
L 68.660557 64.806245 
L 68.793958 65.492507 
L 69.060761 63.88968 
L 69.327564 63.325948 
L 69.460965 63.307432 
L 69.594367 64.223598 
L 69.727768 62.689614 
L 69.861169 63.447191 
L 69.994571 63.041078 
L 70.127972 63.60603 
L 70.261373 63.182539 
L 70.528176 63.35835 
L 70.661577 62.795175 
L 70.92838 64.099663 
L 71.061781 63.677107 
L 71.195183 62.778192 
L 71.328584 63.306754 
L 71.461985 62.072187 
L 71.595387 61.877834 
L 72.262393 57.187438 
L 72.529196 59.073263 
L 72.9294 56.447057 
L 73.196203 56.359189 
L 73.596407 56.376722 
L 73.86321 53.010221 
L 74.263414 54.668423 
L 74.396815 54.386534 
L 74.530216 53.840143 
L 74.797019 54.280185 
L 74.93042 52.888306 
L 75.063822 53.52321 
L 75.197223 52.959342 
L 75.330624 51.637367 
L 75.464026 51.565995 
L 75.597427 51.054742 
L 75.730829 51.265695 
L 75.86423 50.913279 
L 75.997631 51.371575 
L 76.397835 49.309875 
L 76.531237 49.891423 
L 76.664638 51.177719 
L 76.931441 50.437314 
L 77.331645 46.948521 
L 77.465046 47.019116 
L 77.731849 48.059676 
L 78.265454 45.10124 
L 78.398855 45.312993 
L 78.532257 46.441562 
L 78.665658 46.006574 
L 78.799059 46.199893 
L 78.932461 46.769754 
L 79.065862 46.702556 
L 79.199264 49.038785 
L 79.332665 48.854182 
L 79.732869 52.684961 
L 80.133073 59.178489 
L 80.666678 63.611973 
L 80.80008 65.760737 
L 81.066882 74.358305 
L 81.200284 74.774587 
L 82.134093 93.099534 
L 82.267495 93.209799 
L 82.400896 92.933467 
L 82.667699 97.558284 
L 82.8011 99.523712 
L 83.201304 100.397943 
L 83.468107 102.59042 
L 83.601508 101.773045 
L 83.734909 101.781595 
L 84.268515 96.410052 
L 84.535317 94.830627 
L 84.80212 91.073341 
L 84.935521 90.412589 
L 85.335725 86.033367 
L 85.469127 86.474792 
L 85.602528 86.312536 
L 85.869331 82.747038 
L 86.002732 83.892356 
L 86.136134 83.008197 
L 86.269535 84.30896 
L 86.402936 83.941665 
L 86.536338 84.390333 
L 86.669739 83.826859 
L 86.936542 82.488576 
L 87.336746 86.322066 
L 87.470147 86.211476 
L 87.870351 83.655487 
L 88.003752 84.428853 
L 88.137154 84.413471 
L 88.537358 80.671319 
L 88.804161 78.338061 
L 88.937562 76.955966 
L 89.070963 78.283441 
L 89.204365 77.388545 
L 89.337766 75.195369 
L 89.471167 75.180291 
L 89.604569 75.52728 
L 89.73797 74.818143 
L 89.871371 74.743853 
L 90.271575 68.618735 
L 90.538378 66.829174 
L 90.671779 69.142944 
L 90.805181 68.553513 
L 91.205385 64.637799 
L 91.605589 69.241754 
L 91.872391 73.496791 
L 92.005793 72.979566 
L 92.272596 74.487653 
L 92.405997 76.142277 
L 92.539398 74.626945 
L 92.6728 76.308675 
L 92.939602 74.449095 
L 93.339806 63.847626 
L 93.606609 59.967415 
L 93.74001 59.630265 
L 93.873412 58.625152 
L 94.273616 53.651675 
L 94.407017 52.328939 
L 94.540418 53.846511 
L 94.67382 53.229274 
L 94.807221 51.962163 
L 94.940622 53.423572 
L 95.074024 51.342006 
L 95.207425 51.659435 
L 95.340827 52.952246 
L 95.474228 51.577182 
L 95.607629 52.775461 
L 95.741031 52.070462 
L 95.874432 49.601516 
L 96.141235 53.496032 
L 96.408037 49.283693 
L 96.541439 49.420068 
L 96.67484 46.594947 
L 96.808241 50.758322 
L 96.941643 49.964379 
L 97.208445 51.913098 
L 97.341847 49.056333 
L 97.475248 48.876817 
L 97.742051 50.157799 
L 98.008853 52.894224 
L 98.275656 47.600514 
L 98.542459 46.531625 
L 98.67586 47.025166 
L 98.809262 48.616285 
L 98.942663 48.144651 
L 99.209466 46.928797 
L 99.476268 47.198886 
L 99.60967 47.885479 
L 99.743071 47.377064 
L 99.876472 50.534884 
L 100.009874 50.728941 
L 100.143275 48.429354 
L 100.276676 49.143311 
L 100.410078 49.093411 
L 100.67688 45.7065 
L 100.943683 47.907827 
L 101.077084 46.797331 
L 101.210486 44.254973 
L 101.343887 44.749803 
L 101.477288 44.457278 
L 101.61069 45.031141 
L 101.877493 48.610067 
L 102.010894 50.3183 
L 102.277697 48.169581 
L 102.544499 50.126828 
L 102.677901 48.503435 
L 102.811302 49.387327 
L 102.944703 48.998493 
L 103.211506 45.471658 
L 103.344907 44.891519 
L 103.61171 49.215132 
L 103.745111 49.408627 
L 103.878513 48.173843 
L 104.011914 48.226555 
L 104.145315 47.854126 
L 104.278717 48.665868 
L 104.412118 48.472217 
L 104.545519 51.260129 
L 104.678921 50.536231 
L 105.079125 45.437808 
L 105.345928 47.377181 
L 105.479329 46.8306 
L 105.61273 47.889348 
L 105.746132 47.660403 
L 106.146336 43.745087 
L 106.279737 42.863375 
L 106.413138 43.938111 
L 106.54654 42.351989 
L 106.679941 42.704533 
L 106.813342 45.242845 
L 106.946744 44.095242 
L 107.213546 46.880065 
L 107.61375 49.312129 
L 107.880553 51.162514 
L 108.013954 51.038803 
L 108.147356 49.293396 
L 108.280757 50.651671 
L 108.414159 49.945388 
L 108.54756 50.192332 
L 108.680961 51.127184 
L 108.814363 51.092778 
L 109.081165 52.87363 
L 109.347968 53.2102 
L 109.481369 53.158121 
L 109.748172 51.306133 
L 110.014975 50.406505 
L 110.148376 51.287179 
L 110.281777 50.529881 
L 110.415179 51.040529 
L 110.54858 49.876194 
L 110.815383 52.607798 
L 110.948784 51.374024 
L 111.082185 52.25568 
L 111.482389 51.074708 
L 112.015995 48.16573 
L 112.149396 47.603642 
L 112.5496 53.317305 
L 112.816403 51.607792 
L 112.949804 53.476797 
L 113.083206 52.543024 
L 113.216607 54.006513 
L 113.48341 51.836679 
L 113.883614 44.131058 
L 114.017015 44.994207 
L 114.283818 43.442784 
L 114.417219 43.318959 
L 114.684022 40.798143 
L 114.950825 41.66153 
L 115.084226 42.454793 
L 115.217627 44.729672 
L 115.351029 43.672039 
L 115.48443 44.025014 
L 115.617831 43.937199 
L 115.751233 44.113373 
L 115.884634 43.690365 
L 116.018035 44.271842 
L 116.151437 44.025284 
L 116.284838 43.514356 
L 116.551641 39.670854 
L 116.685042 39.688731 
L 116.818443 39.494731 
L 117.085246 37.873015 
L 117.218647 38.190264 
L 117.48545 37.38093 
L 117.752253 36.676029 
L 117.885654 35.160824 
L 118.019055 35.266305 
L 118.285858 36.589463 
L 118.41926 36.3956 
L 118.552661 37.295373 
L 118.686062 41.190287 
L 118.952865 40.731402 
L 119.219668 43.6934 
L 119.353069 43.905033 
L 119.48647 43.675548 
L 119.619872 42.159367 
L 119.753273 42.265032 
L 119.886674 41.030089 
L 120.020076 36.74722 
L 120.153477 36.71152 
L 120.286878 38.177012 
L 120.42028 36.043005 
L 120.553681 36.23686 
L 120.687082 35.866314 
L 120.820484 34.473676 
L 120.953885 35.125538 
L 121.087286 34.544079 
L 121.220688 35.125831 
L 121.487491 38.054431 
L 121.620892 37.276089 
L 121.887695 38.51022 
L 122.4213 41.808121 
L 122.554701 41.508701 
L 122.821504 37.822959 
L 122.954905 36.959671 
L 123.088307 37.435957 
L 123.221708 36.766435 
L 123.355109 35.144779 
L 123.488511 36.678846 
L 123.621912 35.038903 
L 123.755313 35.851748 
L 124.022116 39.059224 
L 124.42232 37.666399 
L 124.555721 38.070901 
L 124.689123 39.656846 
L 124.955926 37.153392 
L 125.089327 36.551779 
L 125.35613 33.079397 
L 125.622932 34.348221 
L 126.023136 31.72304 
L 126.156538 32.51588 
L 126.289939 34.207587 
L 126.556742 33.045151 
L 126.690143 35.724769 
L 126.956946 34.861256 
L 127.223748 34.579169 
L 127.35715 36.502122 
L 127.490551 36.484701 
L 127.623952 35.339441 
L 127.890755 36.607823 
L 128.024157 34.950198 
L 128.157558 34.826757 
L 128.290959 34.949972 
L 128.691163 35.866589 
L 128.824565 35.848774 
L 129.091367 37.419329 
L 129.224769 40.186322 
L 129.35817 39.393128 
L 129.624973 41.702141 
L 129.758374 41.296906 
L 129.891775 41.543921 
L 130.025177 39.462141 
L 130.291979 40.359172 
L 130.425381 39.24877 
L 130.558782 36.428936 
L 130.692183 37.11678 
L 130.825585 36.644027 
L 131.092387 38.141865 
L 131.225789 37.595416 
L 131.35919 38.3006 
L 131.492592 37.066935 
L 132.026197 44.506338 
L 132.159598 43.269683 
L 132.293 44.433166 
L 132.426401 44.591681 
L 132.559802 49.834498 
L 132.693204 49.129654 
L 132.826605 50.594765 
L 133.093408 47.437985 
L 133.226809 47.772445 
L 133.36021 47.560867 
L 133.493612 51.351823 
L 133.627013 51.827415 
L 133.760414 52.815517 
L 133.893816 49.669921 
L 134.027217 49.63478 
L 134.427421 48.311417 
L 134.560823 48.524394 
L 134.694224 47.961328 
L 134.961027 45.068838 
L 135.094428 44.803978 
L 135.227829 44.981045 
L 135.628033 47.045149 
L 135.761435 47.080861 
L 135.894836 46.163271 
L 136.028237 47.802779 
L 136.29504 47.610133 
L 136.428441 46.817255 
L 136.695244 48.915997 
L 137.095448 47.860141 
L 137.362251 50.506439 
L 137.629053 50.35053 
L 137.762455 51.725262 
L 137.895856 50.984159 
L 138.162659 52.115006 
L 138.429462 53.825253 
L 138.562863 53.170546 
L 138.696264 51.390049 
L 138.829666 51.669858 
L 138.963067 50.328901 
L 139.22987 50.874175 
L 139.630074 46.815418 
L 139.896876 45.686077 
L 140.030278 45.932459 
L 140.163679 45.473571 
L 140.29708 46.126108 
L 140.430482 45.31414 
L 140.563883 43.692171 
L 140.697284 44.079981 
L 140.830686 42.862847 
L 140.964087 43.94092 
L 141.23089 42.282679 
L 141.364291 41.789285 
L 141.497693 40.837492 
L 141.631094 41.313189 
L 142.031298 38.915763 
L 142.164699 39.761572 
L 142.298101 39.249194 
L 142.431502 40.288873 
L 142.564903 38.844145 
L 142.831706 39.619695 
L 143.098509 40.218961 
L 143.23191 40.483111 
L 143.498713 39.919632 
L 143.632114 40.606176 
L 143.765515 39.619431 
L 143.898917 39.495708 
L 144.032318 39.619966 
L 144.165719 38.615638 
L 144.299121 36.377695 
L 144.832726 44.75163 
L 144.966128 43.922239 
L 145.23293 46.953415 
L 145.366332 45.260998 
L 145.499733 45.930518 
L 145.633134 47.798991 
L 145.899937 41.030946 
L 146.033338 41.277336 
L 146.16674 40.85371 
L 146.433542 37.135416 
L 146.566944 39.056614 
L 146.833746 38.879932 
L 146.967148 37.011393 
L 147.100549 37.839745 
L 147.23395 37.045559 
L 147.367352 37.221701 
L 147.500753 33.978767 
L 147.634155 35.742698 
L 147.767556 35.266787 
L 147.900957 32.429434 
L 148.16776 35.286384 
L 148.301161 35.587218 
L 148.434563 36.222695 
L 148.567964 38.568511 
L 148.701365 38.128066 
L 148.834767 40.932461 
L 148.968168 40.596999 
L 149.234971 43.593493 
L 149.368372 42.131093 
L 149.635175 42.816995 
L 149.768576 44.402304 
L 149.901977 43.361427 
L 150.035379 43.608131 
L 150.435583 38.246847 
L 150.568984 40.186411 
L 151.10259 35.058033 
L 151.235991 34.986585 
L 151.369392 33.84133 
L 151.502794 33.682589 
L 151.769596 35.709409 
L 151.902998 35.356854 
L 152.036399 35.955747 
L 152.1698 35.691459 
L 152.303202 36.819818 
L 152.436603 35.707606 
L 152.570004 36.941603 
L 152.703406 36.606836 
L 152.970208 35.249482 
L 153.10361 36.553536 
L 153.237011 35.107657 
L 153.370412 39.056741 
L 153.503814 38.933717 
L 153.637215 37.752657 
L 153.770616 38.051867 
L 153.904018 36.925058 
L 154.170821 41.772398 
L 154.304222 41.684297 
L 154.437623 43.341054 
L 154.571025 46.391167 
L 154.704426 42.512725 
L 154.837827 42.301134 
L 154.971229 43.13043 
L 155.10463 42.901389 
L 155.504834 38.053528 
L 155.638235 39.199717 
L 155.905038 31.831616 
L 156.171841 31.197209 
L 156.305242 30.367869 
L 156.438643 30.685082 
L 156.572045 30.068363 
L 156.705446 31.867271 
L 156.838847 31.883994 
L 156.972249 30.473468 
L 157.372453 33.771694 
L 157.772657 39.342553 
L 157.906058 39.712541 
L 158.172861 36.645624 
L 158.306262 36.522355 
L 158.573065 35.798094 
L 158.706466 37.788488 
L 158.839868 36.942233 
L 158.973269 38.351004 
L 159.240072 36.837504 
L 159.373473 36.784853 
L 159.640276 38.599204 
L 159.773677 39.25157 
L 159.907078 41.175192 
L 160.307282 35.869613 
L 160.440684 35.780033 
L 160.574085 36.449508 
L 160.840888 39.462684 
L 160.974289 38.740161 
L 161.507895 31.529325 
L 161.641296 31.54692 
L 161.908099 34.476692 
L 162.0415 32.836971 
L 162.174901 29.824396 
L 162.308303 31.975045 
L 162.441704 32.204202 
L 162.575105 31.376157 
L 162.708507 31.376207 
L 162.841908 33.086089 
L 162.975309 32.909916 
L 163.242112 28.553662 
L 163.375513 28.78291 
L 163.508915 28.553787 
L 163.642316 26.420737 
L 163.775717 26.420698 
L 163.909119 26.809413 
L 164.04252 28.747907 
L 164.309323 27.407928 
L 164.576126 30.227015 
L 164.709527 30.94932 
L 164.97633 30.843374 
L 165.243132 34.526076 
L 165.376534 34.053998 
L 165.643336 34.847214 
L 165.910139 34.266567 
L 166.176942 38.902703 
L 166.310343 38.639032 
L 166.577146 35.748321 
L 166.843948 33.101311 
L 166.97735 33.29499 
L 167.110751 31.444465 
L 167.244153 31.973217 
L 167.377554 28.184013 
L 167.510955 27.954394 
L 167.777758 31.319717 
L 167.911159 30.685456 
L 168.044561 30.70335 
L 168.444765 31.780619 
L 168.711567 31.532969 
L 169.111771 26.722671 
L 169.378574 26.669987 
L 169.645377 25.172361 
L 169.778778 26.914959 
L 169.912179 26.54442 
L 170.045581 30.794031 
L 170.178982 31.322687 
L 170.312383 31.269934 
L 170.445785 31.392702 
L 170.579186 31.28688 
L 170.97939 32.186701 
L 171.512996 24.746945 
L 171.646397 24.412045 
L 171.779798 23.03765 
L 171.9132 24.747826 
L 172.046601 24.871082 
L 172.313404 29.187313 
L 172.446805 29.680788 
L 172.98041 37.965734 
L 173.113812 38.177171 
L 173.247213 37.207259 
L 173.380614 37.859181 
L 173.780819 34.794061 
L 173.91422 31.81468 
L 174.181023 30.792681 
L 174.314424 31.886346 
L 174.447825 35.781001 
L 174.714628 35.111371 
L 174.848029 32.907352 
L 174.981431 35.021868 
L 175.114832 34.98678 
L 175.248233 35.303923 
L 175.648437 29.821112 
L 175.781839 26.120306 
L 176.048641 25.398022 
L 176.182043 25.504068 
L 176.315444 23.354152 
L 176.448845 23.882719 
L 176.715648 23.672202 
L 176.849049 23.672388 
L 177.115852 22.738667 
L 177.249254 22.650034 
L 177.382655 22.244739 
L 177.516056 23.461015 
L 178.183063 34.818342 
L 178.449866 35.011979 
L 178.583267 34.589618 
L 178.716668 36.581838 
L 178.85007 35.577158 
L 179.517076 24.395502 
L 179.650478 24.289751 
L 179.783879 24.448361 
L 179.91728 25.223906 
L 180.050682 24.996106 
L 180.317485 25.207563 
L 180.450886 26.07086 
L 180.717689 32.031631 
L 180.984491 33.335929 
L 181.117893 33.811799 
L 181.384695 36.118425 
L 181.518097 36.347323 
L 181.651498 36.223941 
L 181.784899 38.943075 
L 181.918301 38.376411 
L 182.051702 36.20923 
L 182.185103 37.49543 
L 182.451906 36.843018 
L 182.585307 37.531846 
L 182.718709 36.845327 
L 182.85211 37.497213 
L 182.985511 37.585195 
L 183.252314 31.093238 
L 183.385715 30.687871 
L 183.519117 29.825394 
L 183.652518 31.447285 
L 183.78592 34.513694 
L 184.052722 30.757042 
L 184.186124 30.634583 
L 184.319525 32.151242 
L 184.586328 31.851567 
L 184.719729 31.992407 
L 184.85313 31.550928 
L 184.986532 33.705051 
L 185.119933 30.727038 
L 185.386736 36.06963 
L 185.520137 35.734056 
L 185.653538 35.08078 
L 185.920341 35.926333 
L 186.187144 35.309929 
L 186.320545 34.409054 
L 186.453946 37.474876 
L 186.854151 32.309606 
L 187.120953 30.829684 
L 187.521157 36.312862 
L 187.921361 29.542925 
L 188.321565 32.697623 
L 188.454967 33.385004 
L 188.588368 31.938958 
L 188.721769 34.792111 
L 188.855171 32.870516 
L 189.121973 32.993785 
L 189.388776 34.438779 
L 189.522177 35.549991 
L 189.655579 35.567796 
L 189.922381 35.109256 
L 190.055783 30.475184 
L 190.189184 30.36921 
L 190.322586 32.326424 
L 190.589388 32.537687 
L 190.72279 33.934328 
L 190.989592 31.853913 
L 191.122994 31.730726 
L 191.523198 42.910991 
L 191.656599 41.676621 
L 191.79 41.482626 
L 191.923402 40.654264 
L 192.190204 36.560804 
L 192.323606 36.613376 
L 192.457007 37.212418 
L 192.72381 31.478864 
L 192.857211 27.758785 
L 193.124014 33.081641 
L 193.257415 32.711741 
L 193.390817 31.971645 
L 193.524218 32.130308 
L 193.657619 34.121814 
L 193.791021 34.262917 
L 194.057823 39.763284 
L 194.191225 40.327 
L 194.324626 34.827715 
L 194.458027 34.510333 
L 194.591429 35.708635 
L 194.72483 35.567756 
L 194.858231 36.078561 
L 194.991633 33.699563 
L 195.125034 36.397477 
L 195.391837 31.376463 
L 195.525238 30.883192 
L 195.658639 31.588223 
L 195.792041 30.442857 
L 196.058843 33.563402 
L 196.325646 38.957942 
L 196.592449 33.384928 
L 196.859252 34.7069 
L 197.126054 36.099704 
L 197.793061 27.038465 
L 197.926462 27.161715 
L 198.059864 26.826437 
L 198.193265 30.262594 
L 198.326666 30.82553 
L 198.460068 31.953049 
L 198.593469 32.093939 
L 198.72687 33.574044 
L 198.860272 33.186346 
L 198.993673 33.203913 
L 199.127074 32.992525 
L 199.260476 34.262954 
L 199.393877 33.611055 
L 199.66068 28.377621 
L 199.794081 26.932679 
L 199.927483 27.461711 
L 200.060884 25.452905 
L 200.194285 25.576243 
L 200.461088 28.413847 
L 200.727891 26.526516 
L 200.994693 33.544363 
L 201.128095 37.632803 
L 201.261496 36.48728 
L 201.528299 37.509293 
L 201.795101 34.442912 
L 202.061904 34.830698 
L 202.462108 23.00237 
L 202.595509 25.523929 
L 202.728911 25.241894 
L 202.995713 27.427344 
L 203.129115 28.361041 
L 203.529319 34.851473 
L 203.66272 35.415441 
L 203.796122 35.133483 
L 204.062924 37.335168 
L 204.196326 35.449436 
L 204.463128 38.800352 
L 204.863332 32.327647 
L 205.130135 34.479907 
L 205.263536 30.514195 
L 205.396938 31.02577 
L 205.530339 30.796836 
L 205.797142 26.282884 
L 206.197346 31.322966 
L 206.59755 35.198777 
L 206.730951 34.634321 
L 206.864353 34.775135 
L 207.131155 34.211097 
L 207.397958 29.910993 
L 207.531359 31.463087 
L 207.664761 27.90276 
L 207.798162 34.884813 
L 207.931563 32.928055 
L 208.064965 33.06927 
L 208.198366 33.034251 
L 208.331767 34.709062 
L 208.465169 34.97337 
L 208.998774 32.082143 
L 209.132175 24.906569 
L 209.398978 27.110219 
L 209.532379 27.303988 
L 209.665781 25.699686 
L 209.799182 25.787805 
L 210.065985 26.281005 
L 210.332788 25.664463 
L 210.59959 23.761175 
L 210.732992 22.139934 
L 210.866393 22.42199 
L 210.999794 24.272904 
L 211.133196 24.237644 
L 211.266597 23.568212 
L 211.399998 23.709181 
L 211.800202 27.28784 
L 211.933604 27.147101 
L 212.200406 26.423495 
L 212.333808 24.643154 
L 212.467209 24.590394 
L 212.60061 24.977927 
L 212.734012 24.64311 
L 213.134216 21.874626 
L 213.267617 21.962607 
L 213.53442 28.256463 
L 213.934624 27.745198 
L 214.601631 30.212322 
L 214.868433 25.224132 
L 215.135236 27.306247 
L 215.402039 31.007766 
L 215.53544 31.183848 
L 216.069045 37.70608 
L 216.202447 36.576577 
L 216.335848 36.541159 
L 216.46925 37.243197 
L 216.736052 33.488751 
L 216.869454 33.330275 
L 217.002855 34.876077 
L 217.136256 34.469893 
L 217.269658 31.156623 
L 217.53646 32.852147 
L 217.669862 35.954897 
L 217.936664 35.268197 
L 218.070066 36.979044 
L 218.203467 40.697457 
L 218.336868 36.824477 
L 218.603671 36.155213 
L 218.737072 36.402059 
L 218.870474 36.063131 
L 219.137276 30.968869 
L 219.270678 31.12719 
L 219.404079 29.663199 
L 219.537481 25.768468 
L 219.670882 25.715509 
L 219.804283 25.045907 
L 219.937685 26.473586 
L 220.071086 25.240087 
L 220.337889 25.62781 
L 220.47129 25.68092 
L 220.738093 26.350616 
L 220.871494 26.509183 
L 221.004895 25.27605 
L 221.138297 25.276003 
L 221.271698 23.108391 
L 221.405099 25.224147 
L 221.538501 24.801294 
L 221.671902 27.392584 
L 221.805303 27.498022 
L 221.938705 28.768958 
L 222.072106 28.504772 
L 222.205507 28.945362 
L 222.47231 30.125599 
L 222.605711 30.336966 
L 222.872514 27.392678 
L 223.005916 27.32229 
L 223.139317 27.463328 
L 223.272718 26.720899 
L 223.40612 26.879328 
L 223.539521 26.579872 
L 223.806324 25.875361 
L 223.939725 30.125294 
L 224.206528 30.072704 
L 224.339929 28.556444 
L 224.47333 31.183633 
L 224.740133 31.27238 
L 225.140337 30.760996 
L 225.273738 26.017776 
L 225.540541 26.687197 
L 225.673942 25.64741 
L 225.940745 21.205113 
L 226.074147 21.680665 
L 226.207548 21.52218 
L 226.340949 21.786298 
L 226.474351 22.755383 
L 226.741153 26.034999 
L 226.874555 25.982247 
L 227.007956 25.753098 
L 227.141357 26.545839 
L 227.274759 26.440013 
L 227.40816 25.858677 
L 227.674963 26.158559 
L 227.808364 25.594787 
L 227.941765 23.072947 
L 228.075167 23.586045 
L 228.208568 29.207144 
L 228.341969 29.718433 
L 228.475371 29.242732 
L 228.875575 31.692961 
L 229.142377 33.845113 
L 229.275779 34.831943 
L 229.40918 33.243949 
L 229.542582 28.380488 
L 229.675983 27.605273 
L 229.809384 33.124749 
L 229.942786 33.477051 
L 230.209588 35.595907 
L 230.476391 37.040364 
L 230.609792 37.163399 
L 230.743194 37.533413 
L 230.876595 37.515535 
L 231.009996 37.84997 
L 231.143398 32.172097 
L 231.543602 30.128136 
L 231.810404 25.544864 
L 232.077207 27.417415 
L 232.210608 27.347029 
L 232.477411 30.23778 
L 232.610813 30.977775 
L 232.744214 30.004853 
L 232.877615 30.3573 
L 233.011017 30.269139 
L 233.144418 30.498104 
L 233.277819 28.308312 
L 233.544622 29.754538 
L 233.811425 26.987569 
L 234.211629 24.730486 
L 234.611833 28.469117 
L 235.012037 38.17992 
L 235.278839 38.426566 
L 235.679043 36.96457 
L 235.812445 35.411199 
L 235.945846 35.534436 
L 236.34605 22.75582 
L 236.479452 22.420888 
L 236.612853 22.614885 
L 236.746254 22.597148 
L 236.879656 23.742507 
L 237.013057 23.090647 
L 237.146458 23.531705 
L 237.27986 22.033788 
L 237.546662 23.056052 
L 237.680064 22.968136 
L 237.813465 23.197088 
L 237.946866 22.844625 
L 238.34707 31.130705 
L 238.613873 33.561937 
L 238.880676 39.538032 
L 239.014077 40.013749 
L 239.28088 43.02833 
L 239.814485 33.314789 
L 239.947887 35.377489 
L 240.214689 29.595146 
L 240.348091 29.260248 
L 240.481492 27.655315 
L 240.614893 28.593874 
L 240.881696 36.610572 
L 241.148499 37.738284 
L 241.2819 35.994689 
L 241.682104 42.785897 
L 241.815505 42.803512 
L 241.948907 40.82512 
L 242.215709 33.230777 
L 242.349111 33.865074 
L 242.615914 31.537452 
L 243.016118 24.904823 
L 243.149519 24.14732 
L 243.28292 25.909776 
L 243.416322 26.015584 
L 243.549723 25.910122 
L 243.683124 24.71215 
L 244.083328 30.23303 
L 244.21673 30.056885 
L 244.483532 31.62552 
L 244.616934 29.634158 
L 244.883736 29.193577 
L 245.017138 29.298994 
L 245.28394 24.500294 
L 245.417342 25.153354 
L 245.684145 29.630757 
L 246.084349 31.780388 
L 246.21775 34.86557 
L 246.351151 34.654321 
L 246.484553 37.810246 
L 246.617954 37.66967 
L 246.751355 36.999169 
L 247.151559 31.499331 
L 247.418362 31.147025 
L 247.551763 28.008915 
L 247.685165 28.132229 
L 247.818566 25.945679 
L 247.951967 25.839565 
L 248.085369 24.99365 
L 248.21877 25.522381 
L 248.618974 23.830435 
L 248.752375 24.72948 
L 248.885777 24.694327 
L 249.419382 22.104125 
L 249.686185 25.542648 
L 249.952988 26.635075 
L 250.086389 26.441304 
L 250.353192 27.357516 
L 250.486593 27.146292 
L 250.753396 27.498706 
L 250.886797 24.21888 
L 251.287001 26.670418 
L 251.420402 25.612702 
L 251.553804 25.982881 
L 251.687205 25.982578 
L 251.820606 26.511204 
L 251.954008 29.032702 
L 252.087409 29.296935 
L 252.621015 26.264506 
L 252.754416 26.193963 
L 252.887817 26.581976 
L 253.15462 26.266966 
L 253.288021 25.525427 
L 253.421423 25.613452 
L 253.688225 26.547111 
L 253.821627 25.419059 
L 253.955028 27.358072 
L 254.088429 27.393665 
L 254.221831 26.247895 
L 254.355232 29.137808 
L 254.488633 29.153253 
L 254.755436 27.267543 
L 255.15564 26.351544 
L 255.289041 24.782826 
L 255.422443 26.8291 
L 255.555844 27.058119 
L 255.689246 25.260692 
L 255.956048 25.137453 
L 256.08945 25.5075 
L 256.222851 25.260766 
L 256.356252 25.560207 
L 256.489654 27.657076 
L 256.623055 27.709739 
L 256.756456 25.786581 
L 256.889858 27.002992 
L 257.15666 25.663971 
L 257.290062 27.867527 
L 257.423463 27.691441 
L 257.690266 28.413871 
L 257.823667 26.08807 
L 257.957068 27.709295 
L 258.09047 27.33913 
L 258.223871 25.541355 
L 258.357272 25.541221 
L 258.490674 25.981433 
L 258.624075 23.848401 
L 258.757477 23.619177 
L 258.890878 23.090452 
L 259.157681 24.077566 
L 259.291082 21.92765 
L 259.424483 22.174443 
L 259.557885 25.674949 
L 259.691286 25.763337 
L 259.958089 24.812213 
L 260.09149 24.829863 
L 260.224891 25.552391 
L 260.224891 25.552391 
" clip-path="url(#p36b7e00996)" style="fill: none; stroke: #ff7f0e; stroke-width: 1.5; stroke-linecap: square"/>
   </g>
   <g id="patch_3">
    <path d="M 28.34 149.77874 
L 28.34 10.8 
" style="fill: none; stroke: #000000; stroke-linejoin: miter; stroke-linecap: square"/>
   </g>
   <g id="patch_4">
    <path d="M 272.664567 149.77874 
L 272.664567 10.8 
" style="fill: none; stroke: #000000; stroke-linejoin: miter; stroke-linecap: square"/>
   </g>
   <g id="patch_5">
    <path d="M 28.34 149.77874 
L 272.664567 149.77874 
" style="fill: none; stroke: #000000; stroke-linejoin: miter; stroke-linecap: square"/>
   </g>
   <g id="patch_6">
    <path d="M 28.34 10.8 
L 272.664567 10.8 
" style="fill: none; stroke: #000000; stroke-linejoin: miter; stroke-linecap: square"/>
   </g>
   <g id="legend_1">
    <g id="patch_7">
     <path d="M 32.54 32.732813 
L 93.74 32.732813 
Q 94.94 32.732813 94.94 31.532813 
L 94.94 15 
Q 94.94 13.8 93.74 13.8 
L 32.54 13.8 
Q 31.34 13.8 31.34 15 
L 31.34 31.532813 
Q 31.34 32.732813 32.54 32.732813 
z
" style="fill: #ffffff; opacity: 0.8; stroke: #cccccc; stroke-linejoin: miter"/>
    </g>
    <g id="line2d_19">
     <path d="M 33.74 18.975 
L 39.74 18.975 
L 45.74 18.975 
" style="fill: none; stroke: #1f77b4; stroke-opacity: 0.4; stroke-width: 1.5; stroke-linecap: square"/>
    </g>
    <g id="text_17">
     <!--  -->
     <g transform="translate(50.54 21.075)scale(0.06 -0.06)">
      <defs>
       <path id="SimHei-5b66" d="M 4875 2675 
L 4875 2150 
Q 4525 2075 4237 1912 
Q 3950 1750 3575 1575 
L 3575 1350 
L 5150 1350 
Q 5450 1350 5925 1375 
L 5925 875 
Q 5425 900 5150 900 
L 3575 900 
L 3575 -125 
Q 3575 -475 3300 -562 
Q 3025 -650 2400 -700 
Q 2325 -425 2150 -150 
L 2825 -150 
Q 3075 -150 3075 125 
L 3075 900 
L 1350 900 
Q 950 900 450 875 
L 450 1375 
Q 975 1350 1325 1350 
L 3075 1350 
Q 3075 1550 3025 1800 
L 3925 2250 
L 2550 2250 
Q 2075 2250 1475 2225 
L 1475 2700 
Q 2025 2675 2525 2675 
L 4875 2675 
z
M 5350 4975 
Q 4850 4400 4500 3800 
L 5875 3800 
Q 5850 3575 5850 3275 
Q 5850 2975 5875 2700 
L 5350 2700 
L 5350 3375 
L 1025 3375 
L 1025 2675 
L 500 2675 
Q 525 2975 525 3275 
Q 525 3575 500 3800 
L 3975 3800 
Q 4175 4150 4387 4537 
Q 4600 4925 4725 5300 
Q 5125 5075 5350 4975 
z
M 2950 5225 
Q 3425 4625 3575 4350 
Q 3350 4175 3100 4025 
Q 2900 4425 2500 4925 
Q 2750 5100 2950 5225 
z
M 1250 5050 
Q 1700 4675 2025 4275 
Q 1750 4075 1600 3900 
Q 1275 4375 850 4725 
Q 1125 4925 1250 5050 
z
" transform="scale(0.015625)"/>
       <path id="SimHei-4e60" d="M 2500 4325 
Q 1775 4325 1125 4300 
L 1125 4800 
Q 1950 4775 2375 4775 
L 5500 4775 
Q 5450 4425 5425 3700 
L 5325 375 
Q 5275 -300 4925 -425 
Q 4575 -550 3775 -600 
Q 3700 -300 3500 0 
Q 4225 -50 4500 12 
Q 4775 75 4825 475 
L 4925 4325 
L 2500 4325 
z
M 4200 2075 
Q 4200 1800 4250 1550 
Q 2825 1025 1275 250 
Q 1150 550 925 825 
Q 1250 900 2212 1250 
Q 3175 1600 4200 2075 
z
M 1800 3825 
Q 2875 3200 3400 2800 
Q 3300 2650 3050 2325 
Q 2600 2750 1500 3400 
Q 1675 3625 1800 3825 
z
" transform="scale(0.015625)"/>
       <path id="SimHei-8fc7" d="M 250 -200 
Q 1025 475 1275 650 
L 1275 2475 
Q 675 2475 400 2450 
L 400 2950 
Q 625 2900 1325 2900 
L 1800 2900 
Q 1775 2525 1775 2150 
L 1775 600 
Q 2500 -25 3912 -37 
Q 5325 -50 6150 75 
Q 6000 -175 5925 -550 
L 4425 -550 
Q 3800 -550 3275 -512 
Q 2750 -475 2387 -300 
Q 2025 -125 1750 75 
Q 1475 275 1237 37 
Q 1000 -200 700 -625 
Q 550 -375 250 -200 
z
M 3625 850 
Q 4200 825 4350 875 
Q 4500 925 4500 1300 
L 4500 3575 
L 2875 3575 
Q 2600 3575 2275 3550 
L 2275 4025 
Q 2600 4000 3075 4000 
L 4500 4000 
Q 4500 4650 4450 5125 
L 5025 5125 
Q 5000 4800 5000 4000 
Q 5525 4000 5950 4025 
L 5950 3550 
Q 5550 3575 5000 3575 
L 5000 1100 
Q 5000 525 4662 412 
Q 4325 300 3825 275 
Q 3775 550 3625 850 
z
M 3125 1600 
Q 2900 2275 2575 2850 
Q 2800 2950 3050 3125 
Q 3500 2225 3625 1875 
Q 3450 1775 3125 1600 
z
M 1150 4975 
Q 1400 4675 1925 3875 
Q 1675 3725 1450 3550 
Q 950 4400 700 4625 
Q 925 4750 1150 4975 
z
" transform="scale(0.015625)"/>
       <path id="SimHei-7a0b" d="M 5825 4975 
Q 5800 4425 5800 3975 
Q 5800 3550 5825 3125 
L 3025 3125 
Q 3050 3600 3050 4025 
Q 3050 4450 3025 4975 
L 5825 4975 
z
M 400 4825 
Q 825 4875 1362 4987 
Q 1900 5100 2275 5275 
Q 2450 4950 2625 4725 
Q 2450 4750 2262 4712 
Q 2075 4675 1850 4650 
L 1850 3425 
Q 2200 3425 2600 3450 
L 2600 2975 
Q 2200 3000 1850 3000 
L 1850 800 
Q 1850 250 1875 -675 
L 1375 -675 
Q 1400 250 1400 775 
L 1400 1925 
Q 1050 1225 625 600 
Q 450 850 225 1050 
Q 575 1400 850 1850 
Q 1125 2300 1350 3000 
Q 725 3000 425 2975 
L 425 3450 
Q 850 3425 1050 3425 
L 1400 3425 
L 1400 4550 
Q 1075 4475 575 4400 
Q 500 4625 400 4825 
z
M 5100 2500 
Q 5500 2500 5950 2525 
L 5950 2075 
Q 5500 2100 5100 2100 
L 4625 2100 
L 4625 1300 
L 4900 1300 
Q 5275 1300 5775 1325 
L 5775 850 
Q 5275 875 4975 875 
L 4625 875 
L 4625 0 
L 5225 0 
Q 5675 0 6175 25 
L 6175 -450 
Q 5775 -425 5225 -425 
L 3550 -425 
Q 3000 -425 2600 -475 
L 2600 25 
Q 3000 0 3550 0 
L 4150 0 
L 4150 875 
L 3800 875 
Q 3400 875 3050 825 
L 3050 1325 
Q 3400 1300 3800 1300 
L 4150 1300 
L 4150 2100 
L 3750 2100 
Q 3300 2100 2900 2075 
L 2900 2525 
Q 3300 2500 3750 2500 
L 5100 2500 
z
M 5275 3575 
L 5275 4550 
L 3500 4550 
L 3500 3575 
L 5275 3575 
z
M 2300 2400 
Q 2550 2025 2825 1525 
Q 2675 1425 2425 1225 
Q 2175 1775 1925 2125 
Q 2075 2250 2300 2400 
z
" transform="scale(0.015625)"/>
       <path id="SimHei-5956" d="M 5075 1575 
Q 5650 1575 6075 1600 
L 6075 1125 
Q 5675 1200 5075 1175 
L 3550 1175 
Q 3975 600 4712 300 
Q 5450 0 6150 -50 
Q 6000 -225 5850 -550 
Q 5350 -450 4975 -325 
Q 4600 -200 4137 87 
Q 3675 375 3250 875 
Q 3025 550 2800 350 
Q 2575 150 2250 -50 
Q 1925 -250 1562 -375 
Q 1200 -500 700 -625 
Q 600 -375 400 -125 
Q 875 -75 1262 37 
Q 1650 150 1962 312 
Q 2275 475 2500 687 
Q 2725 900 2850 1175 
L 1325 1175 
Q 825 1175 350 1150 
L 350 1600 
Q 825 1575 1325 1575 
L 2950 1575 
Q 2975 1750 2975 1950 
Q 3475 1875 3550 1875 
Q 3475 1725 3450 1575 
L 5075 1575 
z
M 4325 5000 
Q 4125 4800 3925 4500 
L 5900 4500 
Q 5675 3950 5462 3587 
Q 5250 3225 4987 2937 
Q 4725 2650 4287 2400 
Q 3850 2150 3050 1975 
Q 2925 2200 2750 2425 
Q 3500 2450 4100 2800 
L 3425 3250 
Q 3575 3425 3700 3600 
Q 3950 3450 4100 3337 
Q 4250 3225 4475 3075 
Q 4900 3450 5175 4100 
L 3675 4100 
Q 3550 3950 3375 3750 
Q 3200 3550 2900 3200 
Q 2700 3375 2475 3475 
Q 2850 3800 3187 4250 
Q 3525 4700 3750 5225 
Q 4075 5075 4325 5000 
z
M 2450 5175 
Q 2425 4875 2425 4475 
L 2425 2875 
Q 2425 2500 2450 1975 
L 1925 1975 
Q 1950 2500 1950 2875 
L 1950 3050 
Q 1225 2575 750 2275 
Q 575 2550 400 2700 
Q 825 2825 1950 3525 
L 1950 4475 
Q 1950 4850 1925 5175 
L 2450 5175 
z
M 1000 4700 
Q 1475 4325 1800 4025 
L 1425 3650 
Q 1100 4000 675 4350 
Q 850 4500 1000 4700 
z
" transform="scale(0.015625)"/>
       <path id="SimHei-52b1" d="M 2725 3575 
Q 3125 3575 3400 3600 
L 3400 3150 
Q 3100 3175 2725 3175 
L 2275 3175 
Q 2275 2875 2250 2450 
L 3375 2450 
Q 3300 1350 3275 1037 
Q 3250 725 3200 337 
Q 3150 -50 2950 -137 
Q 2750 -225 2275 -275 
Q 2250 -25 2075 300 
Q 2525 250 2637 275 
Q 2750 300 2787 537 
Q 2825 775 2850 1250 
Q 2875 1725 2875 2075 
L 2225 2075 
Q 2200 1600 2112 1250 
Q 2025 900 1925 587 
Q 1825 275 1687 12 
Q 1550 -250 1425 -450 
Q 1250 -250 975 -100 
Q 1200 125 1362 462 
Q 1525 800 1625 1150 
Q 1725 1500 1775 2037 
Q 1825 2575 1825 3175 
L 1250 3175 
Q 1250 2675 1225 2262 
Q 1200 1850 1150 1400 
Q 1100 950 975 425 
Q 850 -100 625 -500 
Q 425 -325 200 -200 
Q 375 125 487 487 
Q 600 850 675 1350 
Q 750 1850 762 2300 
Q 775 2750 775 3475 
Q 775 4225 750 4700 
L 2875 4700 
Q 3125 4700 3425 4725 
L 3425 4300 
Q 3150 4325 2875 4325 
L 1250 4325 
L 1250 3575 
L 2725 3575 
z
M 4550 -600 
Q 4500 -300 4325 50 
Q 4825 -25 5000 50 
Q 5175 125 5212 625 
Q 5250 1125 5287 1912 
Q 5325 2700 5325 3400 
L 4675 3400 
Q 4650 2325 4525 1675 
Q 4400 1025 4212 575 
Q 4025 125 3837 -137 
Q 3650 -400 3475 -650 
Q 3225 -450 3025 -375 
Q 3400 50 3637 512 
Q 3875 975 3987 1362 
Q 4100 1750 4150 2175 
Q 4200 2600 4225 3400 
Q 3825 3400 3550 3375 
L 3550 3825 
Q 3925 3800 4225 3800 
L 4225 4350 
Q 4225 4625 4200 5175 
Q 4500 5100 4750 5075 
Q 4725 4850 4700 4575 
Q 4675 4300 4675 3800 
L 5825 3800 
Q 5775 3375 5775 2675 
Q 5700 850 5675 500 
Q 5650 150 5575 -112 
Q 5500 -375 5225 -475 
Q 4950 -575 4550 -600 
z
" transform="scale(0.015625)"/>
       <path id="SimHei-503c" d="M 3675 4450 
L 3675 5100 
Q 3975 5075 4350 5050 
Q 4225 4875 4200 4450 
L 5125 4450 
Q 5550 4450 5875 4475 
L 5875 4025 
Q 5525 4050 5125 4050 
L 4175 4050 
L 4125 3500 
L 5400 3500 
Q 5375 3200 5375 2700 
L 5375 150 
Q 5875 150 6100 175 
L 6100 -275 
Q 5775 -250 5200 -250 
L 2850 -250 
Q 2275 -250 1900 -275 
L 1900 175 
Q 2125 150 2600 150 
L 2600 2700 
Q 2600 3175 2575 3500 
L 3600 3500 
L 3650 4050 
L 3200 4050 
Q 2575 4050 2225 4025 
L 2225 4475 
Q 2550 4450 3200 4450 
L 3675 4450 
z
M 2225 4900 
Q 2025 4675 1650 3750 
L 1650 450 
Q 1650 -75 1675 -550 
L 1150 -550 
Q 1175 -125 1175 375 
L 1175 2950 
Q 875 2450 625 2150 
Q 425 2425 250 2575 
Q 500 2825 937 3537 
Q 1375 4250 1625 5150 
Q 1975 4975 2225 4900 
z
M 4925 2650 
L 4925 3150 
L 3075 3150 
L 3075 2650 
L 4925 2650 
z
M 4925 150 
L 4925 625 
L 3075 625 
L 3075 150 
L 4925 150 
z
M 4925 1000 
L 4925 1450 
L 3075 1450 
L 3075 1000 
L 4925 1000 
z
M 4925 1825 
L 4925 2275 
L 3075 2275 
L 3075 1825 
L 4925 1825 
z
" transform="scale(0.015625)"/>
      </defs>
      <use xlink:href="#SimHei-5b66"/>
      <use xlink:href="#SimHei-4e60" x="100"/>
      <use xlink:href="#SimHei-8fc7" x="200"/>
      <use xlink:href="#SimHei-7a0b" x="300"/>
      <use xlink:href="#SimHei-5956" x="400"/>
      <use xlink:href="#SimHei-52b1" x="500"/>
      <use xlink:href="#SimHei-503c" x="600"/>
     </g>
    </g>
    <g id="line2d_20">
     <path d="M 33.74 27.482813 
L 39.74 27.482813 
L 45.74 27.482813 
" style="fill: none; stroke: #ff7f0e; stroke-width: 1.5; stroke-linecap: square"/>
    </g>
    <g id="text_18">
     <!--  -->
     <g transform="translate(50.54 29.582813)scale(0.06 -0.06)">
      <defs>
       <path id="SimHei-5e73" d="M 4525 4825 
Q 4900 4825 5450 4850 
L 5450 4375 
Q 4925 4400 4525 4400 
L 3475 4400 
L 3475 2025 
L 5000 2025 
Q 5550 2025 6025 2050 
L 6025 1575 
Q 5550 1600 5000 1600 
L 3475 1600 
L 3475 450 
Q 3475 -100 3500 -600 
L 2925 -600 
Q 2950 -100 2950 450 
L 2950 1600 
L 1125 1600 
Q 775 1600 375 1575 
L 375 2050 
Q 775 2025 1175 2025 
L 2950 2025 
L 2950 4400 
L 1775 4400 
Q 1400 4400 875 4375 
L 875 4850 
Q 1400 4825 1750 4825 
L 4525 4825 
z
M 3925 2600 
Q 4500 3300 4900 4125 
Q 5150 3950 5400 3825 
Q 4775 2850 4350 2300 
Q 4150 2475 3925 2600 
z
M 1975 2350 
Q 1600 3100 1050 3725 
Q 1250 3875 1450 4050 
Q 2075 3300 2450 2725 
Q 2150 2500 1975 2350 
z
" transform="scale(0.015625)"/>
       <path id="SimHei-6ed1" d="M 5350 5100 
Q 5325 4725 5325 4400 
L 5325 3325 
L 6125 3325 
Q 6100 3050 6100 2775 
Q 6100 2500 6125 2275 
L 5650 2275 
L 5650 2925 
L 2150 2925 
L 2150 2275 
L 1700 2275 
Q 1725 2550 1725 2800 
Q 1725 3075 1700 3325 
L 2475 3325 
L 2475 4375 
Q 2475 4675 2450 5100 
L 5350 5100 
z
M 5275 2500 
Q 5250 2150 5250 1725 
L 5250 -75 
Q 5250 -375 5025 -475 
Q 4800 -575 4375 -625 
Q 4375 -400 4225 -75 
Q 4775 -175 4775 75 
L 4775 425 
L 3000 425 
L 3000 -625 
L 2525 -625 
Q 2550 -125 2550 225 
L 2550 1750 
Q 2550 2125 2525 2500 
L 5275 2500 
z
M 4300 4225 
L 4300 3325 
L 4900 3325 
L 4900 4700 
L 2925 4700 
L 2925 4225 
L 4300 4225 
z
M 1675 1900 
Q 1525 1675 1375 1262 
Q 1225 850 1062 437 
Q 900 25 775 -300 
Q 500 -100 200 50 
Q 375 250 525 525 
Q 675 800 875 1275 
Q 1075 1750 1175 2125 
Q 1375 2000 1675 1900 
z
M 4775 1625 
L 4775 2125 
L 3000 2125 
L 3000 1625 
L 4775 1625 
z
M 4775 800 
L 4775 1250 
L 3000 1250 
L 3000 800 
L 4775 800 
z
M 950 5125 
Q 1100 5025 1362 4825 
Q 1625 4625 1850 4450 
Q 1700 4275 1550 4000 
Q 1325 4225 1112 4400 
Q 900 4575 650 4725 
Q 825 4950 950 5125 
z
M 1000 3375 
Q 1225 3225 1475 3025 
Q 1325 2875 1175 2625 
Q 950 2800 750 2950 
Q 550 3100 250 3275 
L 550 3675 
L 1000 3375 
z
M 3900 3325 
L 3900 3825 
L 2925 3825 
L 2925 3325 
L 3900 3325 
z
" transform="scale(0.015625)"/>
      </defs>
      <use xlink:href="#SimHei-5e73"/>
      <use xlink:href="#SimHei-6ed1" x="100"/>
      <use xlink:href="#SimHei-5956" x="200"/>
      <use xlink:href="#SimHei-52b1" x="300"/>
     </g>
    </g>
   </g>
  </g>
 </g>
 <defs>
  <clipPath id="p36b7e00996">
   <rect x="28.34" y="10.8" width="244.324567" height="138.97874"/>
  </clipPath>
 </defs>
</svg>
