<?xml version="1.0" encoding="utf-8" standalone="no"?>
<!DOCTYPE svg PUBLIC "-//W3C//DTD SVG 1.1//EN"
  "http://www.w3.org/Graphics/SVG/1.1/DTD/svg11.dtd">
<svg xmlns:xlink="http://www.w3.org/1999/xlink" width="144pt" height="72pt" viewBox="0 0 144 72" xmlns="http://www.w3.org/2000/svg" version="1.1">
 <metadata>
  <rdf:RDF xmlns:dc="http://purl.org/dc/elements/1.1/" xmlns:cc="http://creativecommons.org/ns#" xmlns:rdf="http://www.w3.org/1999/02/22-rdf-syntax-ns#">
   <cc:Work>
    <dc:type rdf:resource="http://purl.org/dc/dcmitype/StillImage"/>
    <dc:date>2023-03-08T10:19:00.544020</dc:date>
    <dc:format>image/svg+xml</dc:format>
    <dc:creator>
     <cc:Agent>
      <dc:title>Matplotlib v3.5.3, https://matplotlib.org/</dc:title>
     </cc:Agent>
    </dc:creator>
   </cc:Work>
  </rdf:RDF>
 </metadata>
 <defs>
  <style type="text/css">*{stroke-linejoin: round; stroke-linecap: butt}</style>
 </defs>
 <g id="figure_1">
  <g id="patch_1">
   <path d="M 0 72 
L 144 72 
L 144 0 
L 0 0 
z
" style="fill: #ffffff"/>
  </g>
  <g id="axes_1">
   <g id="patch_2">
    <path d="M 35.3 60.24 
L 133.2 60.24 
L 133.2 10.8 
L 35.3 10.8 
z
" style="fill: #ffffff"/>
   </g>
   <g id="matplotlib.axis_1"/>
   <g id="matplotlib.axis_2">
    <g id="ytick_1">
     <g id="line2d_1">
      <defs>
       <path id="m6bec27415a" d="M 0 0 
L 3.5 0 
" style="stroke: #000000; stroke-width: 0.8"/>
      </defs>
      <g>
       <use xlink:href="#m6bec27415a" x="35.3" y="57.992727" style="stroke: #000000; stroke-width: 0.8"/>
      </g>
     </g>
     <g id="text_1">
      <!-- 0.0739 -->
      <g transform="translate(10.8 60.398977)scale(0.07 -0.07)">
       <defs>
        <path id="SimHei-30" d="M 225 2537 
Q 250 3200 412 3587 
Q 575 3975 875 4225 
Q 1175 4475 1612 4475 
Q 2050 4475 2375 4112 
Q 2700 3750 2800 3200 
Q 2900 2650 2862 1937 
Q 2825 1225 2612 775 
Q 2400 325 1975 150 
Q 1550 -25 1125 187 
Q 700 400 525 750 
Q 350 1100 275 1487 
Q 200 1875 225 2537 
z
M 750 2687 
Q 675 2000 800 1462 
Q 925 925 1212 700 
Q 1500 475 1800 612 
Q 2100 750 2237 1162 
Q 2375 1575 2375 2062 
Q 2375 2550 2337 2950 
Q 2300 3350 2112 3675 
Q 1925 4000 1612 4012 
Q 1300 4025 1062 3700 
Q 825 3375 750 2687 
z
" transform="scale(0.015625)"/>
        <path id="SimHei-2e" d="M 1075 125 
L 500 125 
L 500 675 
L 1075 675 
L 1075 125 
z
" transform="scale(0.015625)"/>
        <path id="SimHei-37" d="M 850 150 
Q 1300 2050 2425 3925 
L 275 3925 
L 275 4375 
L 2950 4375 
L 2950 3950 
Q 1775 2050 1400 150 
L 850 150 
z
" transform="scale(0.015625)"/>
        <path id="SimHei-33" d="M 250 1225 
L 700 1300 
Q 800 975 1025 762 
Q 1250 550 1587 562 
Q 1925 575 2125 837 
Q 2325 1100 2300 1437 
Q 2275 1775 2037 1962 
Q 1800 2150 1275 2225 
L 1275 2550 
Q 1800 2600 2037 2825 
Q 2275 3050 2250 3412 
Q 2225 3775 1925 3937 
Q 1625 4100 1287 3975 
Q 950 3850 750 3275 
L 300 3350 
Q 450 3800 712 4100 
Q 975 4400 1425 4450 
Q 1875 4500 2212 4337 
Q 2550 4175 2687 3837 
Q 2825 3500 2725 3100 
Q 2625 2700 2150 2400 
Q 2500 2250 2687 1950 
Q 2875 1650 2812 1162 
Q 2750 675 2375 375 
Q 2000 75 1525 87 
Q 1050 100 700 387 
Q 350 675 250 1225 
z
" transform="scale(0.015625)"/>
        <path id="SimHei-39" d="M 800 75 
Q 1350 1000 1700 1750 
Q 1075 1650 662 1912 
Q 250 2175 162 2625 
Q 75 3075 175 3437 
Q 275 3800 487 4037 
Q 700 4275 1000 4375 
Q 1300 4475 1537 4475 
Q 1775 4475 2025 4375 
Q 2275 4275 2475 4075 
Q 2675 3875 2750 3662 
Q 2825 3450 2825 3112 
Q 2825 2775 2575 2250 
Q 2325 1725 1350 75 
L 800 75 
z
M 662 2875 
Q 700 2550 937 2337 
Q 1175 2125 1450 2150 
Q 1725 2175 1887 2300 
Q 2050 2425 2200 2725 
Q 2300 3100 2250 3362 
Q 2200 3625 1987 3800 
Q 1775 3975 1525 3975 
Q 1375 4000 1137 3900 
Q 900 3800 762 3500 
Q 625 3200 662 2875 
z
" transform="scale(0.015625)"/>
       </defs>
       <use xlink:href="#SimHei-30"/>
       <use xlink:href="#SimHei-2e" x="50"/>
       <use xlink:href="#SimHei-30" x="100"/>
       <use xlink:href="#SimHei-37" x="150"/>
       <use xlink:href="#SimHei-33" x="200"/>
       <use xlink:href="#SimHei-39" x="250"/>
      </g>
     </g>
    </g>
    <g id="ytick_2">
     <g id="line2d_2">
      <g>
       <use xlink:href="#m6bec27415a" x="35.3" y="32.684362" style="stroke: #000000; stroke-width: 0.8"/>
      </g>
     </g>
     <g id="text_2">
      <!-- 0.0740 -->
      <g transform="translate(10.8 35.090612)scale(0.07 -0.07)">
       <defs>
        <path id="SimHei-34" d="M 2000 1100 
L 75 1100 
L 75 1525 
L 2100 4450 
L 2475 4450 
L 2475 1525 
L 3075 1525 
L 3075 1100 
L 2475 1100 
L 2475 150 
L 2000 150 
L 2000 1100 
z
M 2000 1525 
L 2000 3500 
L 600 1525 
L 2000 1525 
z
" transform="scale(0.015625)"/>
       </defs>
       <use xlink:href="#SimHei-30"/>
       <use xlink:href="#SimHei-2e" x="50"/>
       <use xlink:href="#SimHei-30" x="100"/>
       <use xlink:href="#SimHei-37" x="150"/>
       <use xlink:href="#SimHei-34" x="200"/>
       <use xlink:href="#SimHei-30" x="250"/>
      </g>
     </g>
    </g>
   </g>
   <g id="line2d_3">
    <path d="M 39.75 13.047273 
L 40.876582 17.421911 
L 42.003165 22.015282 
L 43.129747 26.367293 
L 44.256329 29.391828 
L 45.382911 30.990834 
L 46.509494 31.428298 
L 47.636076 30.930494 
L 48.762658 30.025396 
L 49.889241 28.57724 
L 51.015823 26.827385 
L 52.142405 24.790915 
L 53.268987 22.7997 
L 54.39557 22.362236 
L 55.522152 25.635673 
L 56.648734 25.605503 
L 57.775316 24.443961 
L 58.901899 22.995805 
L 60.028481 21.170524 
L 61.155063 21.457139 
L 62.281646 21.97757 
L 63.408228 23.297504 
L 64.53481 24.127177 
L 65.661392 24.95685 
L 66.787975 25.756352 
L 67.914557 25.349059 
L 69.041139 25.982627 
L 70.167722 26.63128 
L 71.294304 27.996469 
L 72.420886 29.738782 
L 73.547468 30.809814 
L 74.674051 32.061866 
L 75.800633 32.695435 
L 76.927215 33.955029 
L 78.053797 35.425813 
L 79.18038 37.258635 
L 80.306962 40.056896 
L 81.433544 42.22913 
L 82.560127 44.718149 
L 83.686709 46.830043 
L 84.813291 49.107872 
L 85.939873 50.827558 
L 87.066456 51.249937 
L 88.193038 51.061375 
L 89.31962 49.537794 
L 90.446203 47.614461 
L 91.572785 44.906711 
L 92.699367 41.640816 
L 93.825949 38.412635 
L 94.952532 34.867669 
L 96.079114 32.084494 
L 97.205696 33.721212 
L 98.332278 32.982049 
L 99.458861 31.134141 
L 100.585443 28.562155 
L 101.712025 24.987019 
L 102.838608 23.931072 
L 103.96519 22.211387 
L 105.091772 22.241557 
L 106.218354 21.509936 
L 107.344937 20.73306 
L 108.471519 20.861283 
L 109.598101 18.455231 
L 110.724684 18.274212 
L 111.851266 17.007075 
L 112.977848 17.0825 
L 114.10443 18.334552 
L 115.231013 17.602931 
L 116.357595 18.749388 
L 117.484177 17.376657 
L 118.610759 17.14284 
L 119.737342 16.705376 
L 120.863924 15.242135 
L 121.990506 16.13969 
L 123.117089 14.502971 
L 124.243671 15.121455 
L 125.370253 14.382292 
L 126.496835 13.628044 
L 127.623418 14.714161 
L 128.75 13.19058 
" clip-path="url(#pfed3fd2c27)" style="fill: none; stroke: #ff0000; stroke-linecap: square"/>
   </g>
   <g id="line2d_4">
    <path d="M 39.75 57.992727 
L 40.876582 57.992727 
L 42.003165 57.992727 
L 43.129747 57.992727 
L 44.256329 57.992727 
L 45.382911 57.992727 
L 46.509494 57.992727 
L 47.636076 57.992727 
L 48.762658 57.992727 
L 49.889241 57.992727 
L 51.015823 57.992727 
L 52.142405 57.992727 
L 53.268987 57.992727 
L 54.39557 57.992727 
L 55.522152 57.992727 
L 56.648734 57.992727 
L 57.775316 57.992727 
L 58.901899 57.992727 
L 60.028481 57.992727 
L 61.155063 57.992727 
L 62.281646 57.992727 
L 63.408228 57.992727 
L 64.53481 57.992727 
L 65.661392 57.992727 
L 66.787975 57.992727 
L 67.914557 57.992727 
L 69.041139 57.992727 
L 70.167722 57.992727 
L 71.294304 57.992727 
L 72.420886 57.992727 
L 73.547468 57.992727 
L 74.674051 57.992727 
L 75.800633 57.992727 
L 76.927215 57.992727 
L 78.053797 57.992727 
L 79.18038 57.992727 
L 80.306962 57.992727 
L 81.433544 57.992727 
L 82.560127 57.992727 
L 83.686709 57.992727 
L 84.813291 57.992727 
L 85.939873 57.992727 
L 87.066456 57.992727 
L 88.193038 57.992727 
L 89.31962 57.992727 
L 90.446203 57.992727 
L 91.572785 57.992727 
L 92.699367 57.992727 
L 93.825949 57.992727 
L 94.952532 57.992727 
L 96.079114 57.992727 
L 97.205696 57.992727 
L 98.332278 57.992727 
L 99.458861 57.992727 
L 100.585443 57.992727 
L 101.712025 57.992727 
L 102.838608 57.992727 
L 103.96519 57.992727 
L 105.091772 57.992727 
L 106.218354 57.992727 
L 107.344937 57.992727 
L 108.471519 57.992727 
L 109.598101 57.992727 
L 110.724684 57.992727 
L 111.851266 57.992727 
L 112.977848 57.992727 
L 114.10443 57.992727 
L 115.231013 57.992727 
L 116.357595 57.992727 
L 117.484177 57.992727 
L 118.610759 57.992727 
L 119.737342 57.992727 
L 120.863924 57.992727 
L 121.990506 57.992727 
L 123.117089 57.992727 
L 124.243671 57.992727 
L 125.370253 57.992727 
L 126.496835 57.992727 
L 127.623418 57.992727 
L 128.75 57.992727 
" clip-path="url(#pfed3fd2c27)" style="fill: none; stroke: #008000; stroke-linecap: square"/>
   </g>
   <g id="patch_3">
    <path d="M 35.3 60.24 
L 35.3 10.8 
" style="fill: none; stroke: #000000; stroke-linejoin: miter; stroke-linecap: square"/>
   </g>
   <g id="patch_4">
    <path d="M 133.2 60.24 
L 133.2 10.8 
" style="fill: none; stroke: #000000; stroke-linejoin: miter; stroke-linecap: square"/>
   </g>
   <g id="patch_5">
    <path d="M 35.3 60.24 
L 133.2 60.24 
" style="fill: none; stroke: #000000; stroke-linejoin: miter; stroke-linecap: square"/>
   </g>
   <g id="patch_6">
    <path d="M 35.3 10.8 
L 133.2 10.8 
" style="fill: none; stroke: #000000; stroke-linejoin: miter; stroke-linecap: square"/>
   </g>
  </g>
 </g>
 <defs>
  <clipPath id="pfed3fd2c27">
   <rect x="35.3" y="10.8" width="97.9" height="49.44"/>
  </clipPath>
 </defs>
</svg>
