<?xml version="1.0" encoding="utf-8" standalone="no"?>
<!DOCTYPE svg PUBLIC "-//W3C//DTD SVG 1.1//EN"
  "http://www.w3.org/Graphics/SVG/1.1/DTD/svg11.dtd">
<svg xmlns:xlink="http://www.w3.org/1999/xlink" width="283.464567pt" height="170.07874pt" viewBox="0 0 283.464567 170.07874" xmlns="http://www.w3.org/2000/svg" version="1.1">
 <metadata>
  <rdf:RDF xmlns:dc="http://purl.org/dc/elements/1.1/" xmlns:cc="http://creativecommons.org/ns#" xmlns:rdf="http://www.w3.org/1999/02/22-rdf-syntax-ns#">
   <cc:Work>
    <dc:type rdf:resource="http://purl.org/dc/dcmitype/StillImage"/>
    <dc:date>2023-03-08T10:10:47.613140</dc:date>
    <dc:format>image/svg+xml</dc:format>
    <dc:creator>
     <cc:Agent>
      <dc:title>Matplotlib v3.5.3, https://matplotlib.org/</dc:title>
     </cc:Agent>
    </dc:creator>
   </cc:Work>
  </rdf:RDF>
 </metadata>
 <defs>
  <style type="text/css">*{stroke-linejoin: round; stroke-linecap: butt}</style>
 </defs>
 <g id="figure_1">
  <g id="patch_1">
   <path d="M 0 170.07874 
L 283.464567 170.07874 
L 283.464567 0 
L 0 0 
z
" style="fill: #ffffff"/>
  </g>
  <g id="axes_1">
   <g id="patch_2">
    <path d="M 21.29 149.77874 
L 272.664567 149.77874 
L 272.664567 10.8 
L 21.29 10.8 
z
" style="fill: #ffffff"/>
   </g>
   <g id="matplotlib.axis_1">
    <g id="xtick_1">
     <g id="line2d_1">
      <defs>
       <path id="m8d2963c91a" d="M 0 0 
L 0 -3.5 
" style="stroke: #000000; stroke-width: 0.8"/>
      </defs>
      <g>
       <use xlink:href="#m8d2963c91a" x="32.716117" y="149.77874" style="stroke: #000000; stroke-width: 0.8"/>
      </g>
     </g>
     <g id="text_1">
      <!-- 0 -->
      <g transform="translate(30.966117 158.09124)scale(0.07 -0.07)">
       <defs>
        <path id="SimHei-30" d="M 225 2537 
Q 250 3200 412 3587 
Q 575 3975 875 4225 
Q 1175 4475 1612 4475 
Q 2050 4475 2375 4112 
Q 2700 3750 2800 3200 
Q 2900 2650 2862 1937 
Q 2825 1225 2612 775 
Q 2400 325 1975 150 
Q 1550 -25 1125 187 
Q 700 400 525 750 
Q 350 1100 275 1487 
Q 200 1875 225 2537 
z
M 750 2687 
Q 675 2000 800 1462 
Q 925 925 1212 700 
Q 1500 475 1800 612 
Q 2100 750 2237 1162 
Q 2375 1575 2375 2062 
Q 2375 2550 2337 2950 
Q 2300 3350 2112 3675 
Q 1925 4000 1612 4012 
Q 1300 4025 1062 3700 
Q 825 3375 750 2687 
z
" transform="scale(0.015625)"/>
       </defs>
       <use xlink:href="#SimHei-30"/>
      </g>
     </g>
    </g>
    <g id="xtick_2">
     <g id="line2d_2">
      <g>
       <use xlink:href="#m8d2963c91a" x="70.803172" y="149.77874" style="stroke: #000000; stroke-width: 0.8"/>
      </g>
     </g>
     <g id="text_2">
      <!-- 100 -->
      <g transform="translate(65.553172 158.09124)scale(0.07 -0.07)">
       <defs>
        <path id="SimHei-31" d="M 1400 3600 
Q 1075 3275 575 2975 
L 575 3450 
Q 1200 3875 1600 4450 
L 1900 4450 
L 1900 150 
L 1400 150 
L 1400 3600 
z
" transform="scale(0.015625)"/>
       </defs>
       <use xlink:href="#SimHei-31"/>
       <use xlink:href="#SimHei-30" x="50"/>
       <use xlink:href="#SimHei-30" x="100"/>
      </g>
     </g>
    </g>
    <g id="xtick_3">
     <g id="line2d_3">
      <g>
       <use xlink:href="#m8d2963c91a" x="108.890228" y="149.77874" style="stroke: #000000; stroke-width: 0.8"/>
      </g>
     </g>
     <g id="text_3">
      <!-- 200 -->
      <g transform="translate(103.640228 158.09124)scale(0.07 -0.07)">
       <defs>
        <path id="SimHei-32" d="M 300 250 
Q 325 625 650 925 
Q 975 1225 1475 1862 
Q 1975 2500 2125 2850 
Q 2275 3200 2237 3450 
Q 2200 3700 2000 3862 
Q 1800 4025 1537 4000 
Q 1275 3975 1037 3800 
Q 800 3625 675 3275 
L 200 3350 
Q 400 3925 712 4187 
Q 1025 4450 1450 4475 
Q 1700 4500 1900 4462 
Q 2100 4425 2312 4287 
Q 2525 4150 2662 3875 
Q 2800 3600 2762 3212 
Q 2725 2825 2375 2287 
Q 2025 1750 1025 600 
L 2825 600 
L 2825 150 
L 300 150 
L 300 250 
z
" transform="scale(0.015625)"/>
       </defs>
       <use xlink:href="#SimHei-32"/>
       <use xlink:href="#SimHei-30" x="50"/>
       <use xlink:href="#SimHei-30" x="100"/>
      </g>
     </g>
    </g>
    <g id="xtick_4">
     <g id="line2d_4">
      <g>
       <use xlink:href="#m8d2963c91a" x="146.977283" y="149.77874" style="stroke: #000000; stroke-width: 0.8"/>
      </g>
     </g>
     <g id="text_4">
      <!-- 300 -->
      <g transform="translate(141.727283 158.09124)scale(0.07 -0.07)">
       <defs>
        <path id="SimHei-33" d="M 250 1225 
L 700 1300 
Q 800 975 1025 762 
Q 1250 550 1587 562 
Q 1925 575 2125 837 
Q 2325 1100 2300 1437 
Q 2275 1775 2037 1962 
Q 1800 2150 1275 2225 
L 1275 2550 
Q 1800 2600 2037 2825 
Q 2275 3050 2250 3412 
Q 2225 3775 1925 3937 
Q 1625 4100 1287 3975 
Q 950 3850 750 3275 
L 300 3350 
Q 450 3800 712 4100 
Q 975 4400 1425 4450 
Q 1875 4500 2212 4337 
Q 2550 4175 2687 3837 
Q 2825 3500 2725 3100 
Q 2625 2700 2150 2400 
Q 2500 2250 2687 1950 
Q 2875 1650 2812 1162 
Q 2750 675 2375 375 
Q 2000 75 1525 87 
Q 1050 100 700 387 
Q 350 675 250 1225 
z
" transform="scale(0.015625)"/>
       </defs>
       <use xlink:href="#SimHei-33"/>
       <use xlink:href="#SimHei-30" x="50"/>
       <use xlink:href="#SimHei-30" x="100"/>
      </g>
     </g>
    </g>
    <g id="xtick_5">
     <g id="line2d_5">
      <g>
       <use xlink:href="#m8d2963c91a" x="185.064339" y="149.77874" style="stroke: #000000; stroke-width: 0.8"/>
      </g>
     </g>
     <g id="text_5">
      <!-- 400 -->
      <g transform="translate(179.814339 158.09124)scale(0.07 -0.07)">
       <defs>
        <path id="SimHei-34" d="M 2000 1100 
L 75 1100 
L 75 1525 
L 2100 4450 
L 2475 4450 
L 2475 1525 
L 3075 1525 
L 3075 1100 
L 2475 1100 
L 2475 150 
L 2000 150 
L 2000 1100 
z
M 2000 1525 
L 2000 3500 
L 600 1525 
L 2000 1525 
z
" transform="scale(0.015625)"/>
       </defs>
       <use xlink:href="#SimHei-34"/>
       <use xlink:href="#SimHei-30" x="50"/>
       <use xlink:href="#SimHei-30" x="100"/>
      </g>
     </g>
    </g>
    <g id="xtick_6">
     <g id="line2d_6">
      <g>
       <use xlink:href="#m8d2963c91a" x="223.151395" y="149.77874" style="stroke: #000000; stroke-width: 0.8"/>
      </g>
     </g>
     <g id="text_6">
      <!-- 500 -->
      <g transform="translate(217.901395 158.09124)scale(0.07 -0.07)">
       <defs>
        <path id="SimHei-35" d="M 550 1325 
Q 725 650 1150 575 
Q 1575 500 1837 662 
Q 2100 825 2212 1087 
Q 2325 1350 2312 1675 
Q 2300 2000 2137 2225 
Q 1975 2450 1725 2525 
Q 1475 2600 1162 2525 
Q 850 2450 650 2175 
L 225 2225 
Q 275 2375 700 4375 
L 2675 4375 
L 2675 3925 
L 1075 3925 
Q 950 3250 825 2850 
Q 1200 3025 1525 3012 
Q 1850 3000 2150 2862 
Q 2450 2725 2587 2487 
Q 2725 2250 2787 2012 
Q 2850 1775 2837 1500 
Q 2825 1225 2725 937 
Q 2625 650 2425 462 
Q 2225 275 1937 162 
Q 1650 50 1275 75 
Q 900 100 562 350 
Q 225 600 100 1200 
L 550 1325 
z
" transform="scale(0.015625)"/>
       </defs>
       <use xlink:href="#SimHei-35"/>
       <use xlink:href="#SimHei-30" x="50"/>
       <use xlink:href="#SimHei-30" x="100"/>
      </g>
     </g>
    </g>
    <g id="xtick_7">
     <g id="line2d_7">
      <g>
       <use xlink:href="#m8d2963c91a" x="261.23845" y="149.77874" style="stroke: #000000; stroke-width: 0.8"/>
      </g>
     </g>
     <g id="text_7">
      <!-- 600 -->
      <g transform="translate(255.98845 158.09124)scale(0.07 -0.07)">
       <defs>
        <path id="SimHei-36" d="M 250 1612 
Q 275 1975 387 2225 
Q 500 2475 725 2850 
L 1750 4450 
L 2325 4450 
L 1275 2800 
Q 1950 2975 2350 2750 
Q 2750 2525 2887 2237 
Q 3025 1950 3037 1612 
Q 3050 1275 2937 950 
Q 2825 625 2537 362 
Q 2250 100 1737 75 
Q 1225 50 862 262 
Q 500 475 362 862 
Q 225 1250 250 1612 
z
M 1025 787 
Q 1250 550 1625 525 
Q 2000 500 2250 775 
Q 2500 1050 2500 1575 
Q 2500 2100 2187 2300 
Q 1875 2500 1487 2450 
Q 1100 2400 925 2075 
Q 750 1750 775 1387 
Q 800 1025 1025 787 
z
" transform="scale(0.015625)"/>
       </defs>
       <use xlink:href="#SimHei-36"/>
       <use xlink:href="#SimHei-30" x="50"/>
       <use xlink:href="#SimHei-30" x="100"/>
      </g>
     </g>
    </g>
   </g>
   <g id="matplotlib.axis_2">
    <g id="ytick_1">
     <g id="line2d_8">
      <defs>
       <path id="m7c23af4e18" d="M 0 0 
L 3.5 0 
" style="stroke: #000000; stroke-width: 0.8"/>
      </defs>
      <g>
       <use xlink:href="#m7c23af4e18" x="21.29" y="140.608931" style="stroke: #000000; stroke-width: 0.8"/>
      </g>
     </g>
     <g id="text_8">
      <!-- -1 -->
      <g transform="translate(10.79 143.015181)scale(0.07 -0.07)">
       <defs>
        <path id="SimHei-2d" d="M 2975 2125 
L 125 2125 
L 125 2525 
L 2975 2525 
L 2975 2125 
z
" transform="scale(0.015625)"/>
       </defs>
       <use xlink:href="#SimHei-2d"/>
       <use xlink:href="#SimHei-31" x="50"/>
      </g>
     </g>
    </g>
    <g id="ytick_2">
     <g id="line2d_9">
      <g>
       <use xlink:href="#m7c23af4e18" x="21.29" y="115.699207" style="stroke: #000000; stroke-width: 0.8"/>
      </g>
     </g>
     <g id="text_9">
      <!-- 0 -->
      <g transform="translate(14.29 118.105457)scale(0.07 -0.07)">
       <use xlink:href="#SimHei-30"/>
      </g>
     </g>
    </g>
    <g id="ytick_3">
     <g id="line2d_10">
      <g>
       <use xlink:href="#m7c23af4e18" x="21.29" y="90.789482" style="stroke: #000000; stroke-width: 0.8"/>
      </g>
     </g>
     <g id="text_10">
      <!-- 1 -->
      <g transform="translate(14.29 93.195732)scale(0.07 -0.07)">
       <use xlink:href="#SimHei-31"/>
      </g>
     </g>
    </g>
    <g id="ytick_4">
     <g id="line2d_11">
      <g>
       <use xlink:href="#m7c23af4e18" x="21.29" y="65.879758" style="stroke: #000000; stroke-width: 0.8"/>
      </g>
     </g>
     <g id="text_11">
      <!-- 2 -->
      <g transform="translate(14.29 68.286008)scale(0.07 -0.07)">
       <use xlink:href="#SimHei-32"/>
      </g>
     </g>
    </g>
    <g id="ytick_5">
     <g id="line2d_12">
      <g>
       <use xlink:href="#m7c23af4e18" x="21.29" y="40.970034" style="stroke: #000000; stroke-width: 0.8"/>
      </g>
     </g>
     <g id="text_12">
      <!-- 3 -->
      <g transform="translate(14.29 43.376284)scale(0.07 -0.07)">
       <use xlink:href="#SimHei-33"/>
      </g>
     </g>
    </g>
    <g id="ytick_6">
     <g id="line2d_13">
      <g>
       <use xlink:href="#m7c23af4e18" x="21.29" y="16.06031" style="stroke: #000000; stroke-width: 0.8"/>
      </g>
     </g>
     <g id="text_13">
      <!-- 4 -->
      <g transform="translate(14.29 18.46656)scale(0.07 -0.07)">
       <use xlink:href="#SimHei-34"/>
      </g>
     </g>
    </g>
   </g>
   <g id="line2d_14">
    <path d="M 32.716117 143.461525 
L 33.096987 17.117215 
L 33.477858 17.127169 
L 33.858728 81.249212 
L 34.239599 85.679166 
L 34.620469 65.891663 
L 35.00134 82.571069 
L 35.382211 60.621289 
L 35.763081 64.202762 
L 36.143952 72.673209 
L 36.524822 71.176925 
L 36.905693 78.700444 
L 37.286563 64.398669 
L 37.667434 70.767094 
L 38.048304 71.838515 
L 38.429175 68.359501 
L 38.810046 72.529552 
L 39.190916 67.287923 
L 39.571787 68.704758 
L 39.952657 68.143733 
L 40.333528 69.094442 
L 40.714398 70.775058 
L 41.095269 67.946732 
L 41.476139 68.654604 
L 41.85701 67.770488 
L 42.237881 67.57994 
L 42.618751 67.788115 
L 42.999622 67.551068 
L 43.380492 68.222359 
L 43.761363 68.111865 
L 44.142233 68.165196 
L 44.523104 67.587034 
L 44.903974 66.609832 
L 45.665716 66.826517 
L 46.046586 67.27891 
L 46.427457 67.453863 
L 47.189198 67.023358 
L 47.950939 66.256311 
L 48.331809 66.208205 
L 48.71268 66.307463 
L 49.093551 66.571318 
L 49.474421 66.65139 
L 49.855292 66.492479 
L 50.617033 65.831469 
L 50.997903 65.697896 
L 51.759644 65.846102 
L 52.140515 65.916782 
L 52.521386 65.763925 
L 52.902256 65.213082 
L 53.283127 65.220571 
L 53.663997 64.987112 
L 54.044868 64.888311 
L 54.425738 65.067774 
L 54.806609 64.851727 
L 55.187479 64.826665 
L 55.949221 64.364117 
L 57.472703 64.09747 
L 62.043149 62.841907 
L 71.945784 60.507226 
L 78.801454 59.100344 
L 82.61016 58.434357 
L 86.799736 57.694419 
L 88.323218 57.445185 
L 88.704088 57.532571 
L 89.46583 57.308827 
L 91.751053 57.032791 
L 92.893665 56.812818 
L 95.559758 56.477452 
L 97.844982 56.162356 
L 102.034558 55.628273 
L 106.224134 55.164097 
L 113.460675 54.389713 
L 128.695497 53.0821 
L 139.359872 52.367598 
L 140.121613 52.377136 
L 145.834672 52.082119 
L 146.977283 52.047834 
L 154.213824 51.747306 
L 154.594695 51.801463 
L 154.975565 51.716352 
L 155.737306 51.721032 
L 158.02253 51.65546 
L 159.165141 51.675973 
L 159.546012 51.570569 
L 160.307753 51.605905 
L 160.688623 51.536164 
L 161.069494 51.62934 
L 161.450365 51.498696 
L 161.831235 51.587215 
L 162.592976 51.495643 
L 162.973847 51.577826 
L 163.354717 51.433237 
L 163.735588 51.559944 
L 164.116458 51.453649 
L 164.8782 51.518532 
L 165.25907 51.37747 
L 165.639941 51.532387 
L 166.020811 51.375177 
L 166.782552 51.450537 
L 167.163423 51.335179 
L 167.544293 51.500531 
L 167.925164 51.299848 
L 168.306035 51.440749 
L 169.067776 51.308887 
L 169.448646 51.459896 
L 169.829517 51.232892 
L 170.210387 51.436705 
L 170.591258 51.289526 
L 170.972128 51.299765 
L 171.352999 51.454159 
L 171.73387 51.287875 
L 172.11474 51.445964 
L 172.495611 51.296878 
L 173.257352 51.379792 
L 173.638222 51.27042 
L 174.019093 51.424554 
L 174.399963 51.283272 
L 175.161705 51.362052 
L 175.542575 51.279258 
L 175.923446 51.397003 
L 176.304316 51.281033 
L 177.066057 51.339057 
L 178.208669 51.285731 
L 178.58954 51.365075 
L 179.351281 51.316631 
L 179.732151 51.361114 
L 180.113022 51.293677 
L 180.493892 51.362444 
L 181.255634 51.32788 
L 183.540857 51.385173 
L 183.921727 51.338623 
L 184.302598 51.410473 
L 185.064339 51.404373 
L 189.634786 51.453637 
L 191.158268 51.48873 
L 208.678314 52.032452 
L 217.438336 52.431198 
L 222.770524 52.778258 
L 236.100994 53.803094 
L 237.243605 53.93318 
L 261.23845 56.540928 
L 261.23845 56.540928 
" clip-path="url(#p4898cc5cac)" style="fill: none; stroke: #008000; stroke-width: 1.5; stroke-linecap: square"/>
   </g>
   <g id="patch_3">
    <path d="M 21.29 149.77874 
L 21.29 10.8 
" style="fill: none; stroke: #000000; stroke-linejoin: miter; stroke-linecap: square"/>
   </g>
   <g id="patch_4">
    <path d="M 272.664567 149.77874 
L 272.664567 10.8 
" style="fill: none; stroke: #000000; stroke-linejoin: miter; stroke-linecap: square"/>
   </g>
   <g id="patch_5">
    <path d="M 21.29 149.77874 
L 272.664567 149.77874 
" style="fill: none; stroke: #000000; stroke-linejoin: miter; stroke-linecap: square"/>
   </g>
   <g id="patch_6">
    <path d="M 21.29 10.8 
L 272.664567 10.8 
" style="fill: none; stroke: #000000; stroke-linejoin: miter; stroke-linecap: square"/>
   </g>
   <g id="legend_1">
    <g id="patch_7">
     <path d="M 195.264567 24.225 
L 268.464567 24.225 
Q 269.664567 24.225 269.664567 23.025 
L 269.664567 15 
Q 269.664567 13.8 268.464567 13.8 
L 195.264567 13.8 
Q 194.064567 13.8 194.064567 15 
L 194.064567 23.025 
Q 194.064567 24.225 195.264567 24.225 
z
" style="fill: #ffffff; opacity: 0.8; stroke: #cccccc; stroke-linejoin: miter"/>
    </g>
    <g id="line2d_15">
     <path d="M 196.464567 18.975 
L 202.464567 18.975 
L 208.464567 18.975 
" style="fill: none; stroke: #008000; stroke-width: 1.5; stroke-linecap: square"/>
    </g>
    <g id="text_14">
     <!-- 蒸汽排放阀平均开度 -->
     <g transform="translate(213.264567 21.075)scale(0.06 -0.06)">
      <defs>
       <path id="SimHei-84b8" d="M 3750 3100 
Q 3900 2875 4200 2600 
Q 4350 2675 4662 2912 
Q 4975 3150 5225 3375 
Q 5450 3125 5650 2975 
Q 5400 2850 5137 2700 
Q 4875 2550 4475 2325 
Q 5000 1750 5975 1650 
Q 5825 1525 5625 1150 
Q 4950 1325 4362 1825 
Q 3775 2325 3425 2800 
L 3425 1775 
Q 3425 1425 3212 1350 
Q 3000 1275 2575 1175 
Q 2525 1450 2325 1700 
Q 2850 1725 2912 1762 
Q 2975 1800 2975 2100 
L 2975 2675 
Q 2950 2925 2875 3150 
Q 3275 3225 3850 3550 
L 2225 3550 
Q 1775 3550 1400 3525 
L 1400 3950 
Q 1775 3925 2225 3925 
L 4775 3925 
L 4775 3575 
Q 4425 3425 3750 3100 
z
M 2000 4875 
Q 2000 5100 1975 5300 
L 2525 5300 
Q 2500 5025 2500 4875 
L 3825 4875 
Q 3825 5075 3800 5300 
L 4350 5300 
Q 4325 5050 4325 4875 
L 5400 4875 
Q 5775 4875 6150 4900 
L 6150 4450 
Q 5775 4475 5400 4475 
L 4325 4475 
Q 4325 4350 4350 4150 
L 3825 4150 
L 3825 4475 
L 2500 4475 
L 2500 4150 
L 1975 4150 
Q 2000 4275 2000 4475 
L 1025 4475 
Q 650 4475 275 4450 
L 275 4900 
Q 650 4875 1025 4875 
L 2000 4875 
z
M 2550 3125 
Q 2425 2550 1987 2012 
Q 1550 1475 675 1050 
Q 550 1300 300 1500 
Q 825 1650 1237 1950 
Q 1650 2250 1925 2725 
L 1475 2725 
Q 900 2725 500 2700 
L 500 3150 
Q 900 3125 1450 3125 
L 2550 3125 
z
M 3975 1100 
Q 4400 1100 4850 1125 
L 4850 675 
Q 4450 700 3975 700 
L 2350 700 
Q 1625 700 1225 675 
L 1225 1125 
Q 1875 1100 2350 1100 
L 3975 1100 
z
M 225 -450 
Q 450 -100 550 125 
Q 650 350 775 700 
Q 1050 575 1300 475 
Q 1200 350 1050 37 
Q 900 -275 700 -675 
Q 425 -525 225 -450 
z
M 5475 700 
Q 5600 475 5775 200 
Q 5950 -75 6050 -325 
Q 5800 -475 5600 -600 
Q 5475 -250 5050 500 
Q 5225 575 5475 700 
z
M 3875 -575 
Q 3775 -175 3550 375 
Q 3750 475 4000 575 
Q 4300 -150 4375 -400 
Q 4100 -500 3875 -575 
z
M 2475 500 
Q 2675 -225 2725 -475 
Q 2425 -550 2225 -625 
Q 2150 -225 2112 -50 
Q 2075 125 2000 375 
Q 2200 450 2475 500 
z
" transform="scale(0.015625)"/>
       <path id="SimHei-6c7d" d="M 6300 300 
Q 6075 -475 5875 -587 
Q 5675 -700 5375 -525 
Q 5075 -350 4850 262 
Q 4625 875 4650 2150 
L 3050 2150 
Q 2675 2150 2350 2125 
L 2350 2575 
Q 2675 2550 3050 2550 
L 5175 2550 
Q 5125 1900 5137 1475 
Q 5150 1050 5262 550 
Q 5375 50 5550 -75 
Q 5725 -200 5800 575 
Q 6075 350 6300 300 
z
M 3450 4975 
Q 3350 4875 3175 4475 
L 4750 4475 
Q 5325 4475 5750 4500 
L 5750 4050 
Q 5325 4075 4725 4075 
L 3025 4075 
Q 2725 3500 2400 2950 
Q 2150 3075 1875 3150 
Q 2325 3675 2575 4300 
Q 2825 4925 2900 5175 
Q 3175 5050 3450 4975 
z
M 2000 1475 
Q 1825 1275 1437 600 
Q 1050 -75 800 -475 
Q 550 -250 225 -100 
Q 525 150 912 712 
Q 1300 1275 1525 1800 
Q 1750 1600 2000 1475 
z
M 5450 3075 
Q 5200 3100 4700 3100 
L 3775 3100 
Q 3400 3100 3000 3075 
L 3000 3525 
Q 3400 3500 3775 3500 
L 4725 3500 
Q 5200 3500 5450 3525 
L 5450 3075 
z
M 1475 2350 
Q 950 2750 400 2950 
Q 550 3125 650 3375 
Q 1225 3125 1775 2800 
Q 1625 2550 1475 2350 
z
M 1050 4875 
Q 1525 4575 2000 4125 
Q 1800 3950 1650 3750 
Q 1250 4175 700 4525 
Q 900 4675 1050 4875 
z
" transform="scale(0.015625)"/>
       <path id="SimHei-6392" d="M 225 1825 
Q 675 1900 1150 2075 
L 1150 3425 
L 950 3425 
Q 650 3425 350 3400 
L 350 3850 
Q 600 3825 950 3825 
L 1150 3825 
L 1150 4500 
Q 1150 4850 1125 5175 
L 1675 5175 
Q 1625 4900 1625 4500 
L 1625 3825 
Q 2075 3825 2275 3850 
L 2275 3400 
Q 1875 3425 1625 3425 
L 1625 2225 
Q 1950 2325 2275 2500 
Q 2275 2200 2300 2050 
Q 2075 1975 1625 1800 
L 1625 -100 
Q 1600 -425 1412 -500 
Q 1225 -575 700 -650 
Q 600 -225 450 -75 
Q 875 -125 1000 -112 
Q 1125 -100 1150 75 
L 1150 1650 
Q 850 1550 450 1300 
Q 375 1525 225 1825 
z
M 5050 5125 
Q 5025 4800 5025 4300 
L 5025 4000 
Q 5700 4000 6100 4050 
L 6100 3575 
Q 5725 3600 5525 3600 
L 5025 3600 
L 5025 2625 
Q 5625 2625 5950 2650 
L 5950 2175 
Q 5625 2200 5025 2200 
L 5025 1075 
Q 5750 1075 6150 1100 
L 6150 625 
Q 5850 650 5025 650 
L 5025 275 
Q 5025 75 5050 -600 
L 4550 -600 
L 4550 4300 
Q 4550 4850 4525 5125 
L 5050 5125 
z
M 3425 4350 
Q 3425 4925 3400 5150 
L 3925 5150 
Q 3900 4800 3900 4250 
L 3900 -600 
L 3400 -600 
Q 3425 -50 3425 275 
L 3425 650 
Q 2625 650 2225 625 
L 2225 1100 
Q 2550 1075 3425 1075 
L 3425 2200 
Q 2775 2200 2525 2150 
L 2525 2650 
Q 2750 2625 3425 2625 
L 3425 3600 
Q 2700 3600 2450 3575 
L 2450 4050 
Q 2725 4000 3425 4000 
L 3425 4350 
z
" transform="scale(0.015625)"/>
       <path id="SimHei-653e" d="M 4250 700 
Q 3825 1600 3575 2675 
Q 3450 2450 3350 2275 
Q 3250 2450 2975 2650 
Q 3250 2975 3525 3712 
Q 3800 4450 3950 5250 
Q 4275 5100 4575 5025 
Q 4425 4825 4300 4512 
Q 4175 4200 4075 3900 
L 5250 3900 
Q 5625 3900 6050 3925 
L 6050 3450 
Q 5675 3475 5475 3475 
Q 5425 2625 5275 1925 
Q 5125 1225 4850 675 
Q 5325 100 6150 -150 
Q 5950 -400 5875 -650 
Q 5075 -350 4550 350 
Q 4000 -200 3175 -650 
Q 3075 -375 2825 -200 
Q 3675 75 4250 700 
z
M 1650 100 
Q 2050 75 2225 137 
Q 2400 200 2437 725 
Q 2475 1250 2500 2250 
L 1600 2250 
Q 1550 1325 1325 662 
Q 1100 0 650 -575 
Q 425 -375 200 -250 
Q 600 175 762 562 
Q 925 950 1050 1487 
Q 1175 2025 1150 3500 
Q 775 3500 325 3475 
L 325 3950 
Q 775 3925 1050 3925 
L 2400 3925 
Q 2775 3925 3125 3950 
L 3125 3475 
Q 2775 3500 2400 3500 
L 1625 3500 
L 1625 2650 
L 2950 2650 
Q 2900 1175 2862 675 
Q 2825 175 2762 -25 
Q 2700 -225 2487 -312 
Q 2275 -400 1850 -450 
Q 1800 -175 1650 100 
z
M 3975 3075 
Q 4225 1825 4550 1200 
Q 4875 1925 5000 3475 
L 3925 3475 
L 3700 3025 
L 3975 3075 
z
M 1575 5275 
Q 1850 4775 2075 4300 
Q 1825 4200 1600 4075 
Q 1375 4650 1125 5025 
Q 1350 5125 1575 5275 
z
" transform="scale(0.015625)"/>
       <path id="SimHei-9600" d="M 5400 4500 
L 3550 4500 
Q 3025 4500 2550 4475 
L 2550 4950 
Q 3025 4925 3525 4925 
L 5925 4925 
Q 5900 4450 5900 3850 
L 5900 125 
Q 5900 -350 5562 -462 
Q 5225 -575 4750 -625 
Q 4700 -275 4525 -75 
Q 5050 -75 5225 -37 
Q 5400 0 5400 375 
L 5400 4500 
z
M 2975 125 
Q 2825 300 2550 500 
Q 2800 600 3075 787 
Q 3350 975 3575 1275 
Q 3400 1600 3225 2550 
Q 3100 2550 2575 2450 
L 2525 2900 
Q 2825 2925 3175 2975 
Q 3150 3475 3125 4275 
Q 3425 4200 3675 4200 
Q 3625 3875 3625 3575 
Q 3625 3300 3650 3050 
Q 4125 3100 5025 3250 
L 5100 2800 
Q 4650 2775 3675 2625 
Q 3725 2075 3900 1575 
Q 4200 1950 4425 2400 
Q 4575 2275 4925 2150 
Q 4750 1975 4550 1725 
Q 4350 1475 4100 1200 
Q 4425 625 4562 662 
Q 4700 700 4725 1125 
Q 4950 900 5225 875 
Q 4925 0 4537 87 
Q 4150 175 3775 850 
Q 3525 575 2975 125 
z
M 1100 2175 
Q 1475 2650 1762 3200 
Q 2050 3750 2150 4200 
Q 2525 4025 2675 3950 
Q 2475 3675 2250 3225 
L 2250 -125 
L 1775 -125 
Q 1800 400 1800 900 
L 1800 2475 
Q 1650 2250 1400 1875 
Q 1275 2025 1100 2175 
z
M 1075 3925 
Q 1000 3550 1000 2950 
L 1000 -650 
L 500 -650 
Q 525 -25 525 550 
L 525 2975 
Q 525 3525 500 3925 
L 1075 3925 
z
M 1450 5225 
Q 1775 4775 2075 4400 
Q 1800 4225 1600 4075 
Q 1300 4575 975 4875 
Q 1250 5075 1450 5225 
z
M 4450 3350 
Q 4200 3750 4000 3950 
Q 4225 4075 4350 4200 
Q 4575 3925 4825 3625 
Q 4625 3500 4450 3350 
z
" transform="scale(0.015625)"/>
       <path id="SimHei-5e73" d="M 4525 4825 
Q 4900 4825 5450 4850 
L 5450 4375 
Q 4925 4400 4525 4400 
L 3475 4400 
L 3475 2025 
L 5000 2025 
Q 5550 2025 6025 2050 
L 6025 1575 
Q 5550 1600 5000 1600 
L 3475 1600 
L 3475 450 
Q 3475 -100 3500 -600 
L 2925 -600 
Q 2950 -100 2950 450 
L 2950 1600 
L 1125 1600 
Q 775 1600 375 1575 
L 375 2050 
Q 775 2025 1175 2025 
L 2950 2025 
L 2950 4400 
L 1775 4400 
Q 1400 4400 875 4375 
L 875 4850 
Q 1400 4825 1750 4825 
L 4525 4825 
z
M 3925 2600 
Q 4500 3300 4900 4125 
Q 5150 3950 5400 3825 
Q 4775 2850 4350 2300 
Q 4150 2475 3925 2600 
z
M 1975 2350 
Q 1600 3100 1050 3725 
Q 1250 3875 1450 4050 
Q 2075 3300 2450 2725 
Q 2150 2500 1975 2350 
z
" transform="scale(0.015625)"/>
       <path id="SimHei-5747" d="M 5775 275 
Q 5775 -325 5362 -450 
Q 4950 -575 4425 -600 
Q 4375 -275 4250 25 
Q 4950 -25 5125 62 
Q 5300 150 5300 500 
L 5375 3700 
L 3550 3700 
Q 3425 3375 3262 3037 
Q 3100 2700 2925 2400 
Q 2675 2550 2475 2625 
Q 3150 3625 3500 5200 
Q 3800 5100 4075 5025 
Q 3975 4875 3875 4650 
Q 3775 4425 3675 4125 
L 5900 4125 
L 5775 275 
z
M 1250 3625 
L 1250 4375 
Q 1250 4775 1225 5100 
L 1775 5100 
Q 1750 4725 1750 4375 
L 1750 3625 
L 1900 3625 
Q 2200 3625 2525 3650 
L 2525 3150 
Q 2200 3175 1900 3175 
L 1750 3175 
L 1750 1100 
L 2500 1375 
Q 2475 1125 2525 900 
Q 1225 475 962 362 
Q 700 250 475 150 
Q 375 475 250 750 
Q 575 800 800 850 
Q 1025 900 1250 975 
L 1250 3175 
L 1125 3175 
Q 850 3175 400 3150 
L 400 3650 
Q 850 3625 1100 3625 
L 1250 3625 
z
M 4950 1625 
Q 4675 1425 4137 1050 
Q 3600 675 3175 300 
Q 3000 575 2850 775 
Q 3350 1050 3762 1325 
Q 4175 1600 4775 2075 
Q 4825 1850 4950 1625 
z
M 3775 3150 
Q 4125 2800 4475 2300 
Q 4250 2125 4100 1975 
Q 3900 2325 3450 2825 
Q 3600 3000 3775 3150 
z
" transform="scale(0.015625)"/>
       <path id="SimHei-5f00" d="M 2200 4450 
Q 1450 4450 800 4425 
L 800 4925 
Q 1425 4900 1950 4900 
L 4650 4900 
Q 5150 4900 5725 4925 
L 5725 4425 
Q 5175 4450 4500 4450 
L 4500 2600 
L 4975 2600 
Q 5475 2600 6050 2625 
L 6050 2125 
Q 5475 2175 4975 2175 
L 4500 2175 
L 4500 825 
Q 4500 200 4525 -575 
L 3950 -575 
Q 3975 200 3975 825 
L 3975 2175 
L 2725 2175 
Q 2650 1700 2525 1287 
Q 2400 875 2125 450 
Q 1850 25 1100 -575 
Q 900 -350 500 -150 
Q 1000 50 1362 412 
Q 1725 775 1937 1262 
Q 2150 1750 2175 2175 
L 1600 2175 
Q 950 2175 350 2100 
L 350 2625 
Q 975 2600 1600 2600 
L 2200 2600 
L 2200 4450 
z
M 3975 2600 
L 3975 4450 
L 2725 4450 
L 2725 2600 
L 3975 2600 
z
" transform="scale(0.015625)"/>
       <path id="SimHei-5ea6" d="M 1750 1675 
Q 2450 1650 2875 1650 
L 5200 1650 
Q 4975 1250 4650 850 
Q 4325 450 4025 200 
Q 4350 50 4950 -50 
Q 5550 -150 6100 -150 
Q 5950 -300 5825 -650 
Q 5100 -550 4550 -412 
Q 4000 -275 3625 -100 
Q 3100 -325 2587 -462 
Q 2075 -600 1525 -675 
Q 1450 -475 1225 -250 
Q 1675 -250 2250 -125 
Q 2825 0 3250 200 
Q 2825 550 2400 1275 
L 1750 1250 
L 1750 1675 
z
M 2975 5075 
Q 3250 5150 3475 5250 
Q 3625 4975 3775 4525 
L 4700 4525 
Q 4975 4525 5700 4550 
L 5700 4100 
Q 5000 4125 4650 4125 
L 1375 4125 
Q 1375 3000 1350 2312 
Q 1325 1625 1212 950 
Q 1100 275 725 -525 
Q 500 -375 250 -300 
Q 650 400 762 1075 
Q 875 1750 887 2800 
Q 900 3850 875 4525 
L 3200 4525 
Q 3100 4850 2975 5075 
z
M 2475 3300 
Q 2475 3700 2450 3925 
L 2975 3925 
Q 2950 3725 2950 3300 
L 4300 3300 
Q 4300 3700 4275 3950 
L 4800 3950 
Q 4775 3650 4775 3300 
Q 5325 3300 5725 3325 
L 5725 2900 
Q 5350 2925 4775 2925 
Q 4775 2250 4800 1950 
L 2450 1950 
Q 2475 2350 2475 2925 
Q 2175 2925 1600 2900 
L 1600 3325 
Q 2175 3300 2475 3300 
z
M 4300 2350 
L 4300 2925 
L 2950 2925 
L 2950 2350 
L 4300 2350 
z
M 2875 1275 
Q 3200 775 3650 425 
Q 4025 700 4425 1275 
L 2900 1275 
L 2875 1275 
z
" transform="scale(0.015625)"/>
      </defs>
      <use xlink:href="#SimHei-84b8"/>
      <use xlink:href="#SimHei-6c7d" x="100"/>
      <use xlink:href="#SimHei-6392" x="200"/>
      <use xlink:href="#SimHei-653e" x="300"/>
      <use xlink:href="#SimHei-9600" x="400"/>
      <use xlink:href="#SimHei-5e73" x="500"/>
      <use xlink:href="#SimHei-5747" x="600"/>
      <use xlink:href="#SimHei-5f00" x="700"/>
      <use xlink:href="#SimHei-5ea6" x="800"/>
     </g>
    </g>
   </g>
  </g>
 </g>
 <defs>
  <clipPath id="p4898cc5cac">
   <rect x="21.29" y="10.8" width="251.374567" height="138.97874"/>
  </clipPath>
 </defs>
</svg>
