<?xml version="1.0" encoding="utf-8" standalone="no"?>
<!DOCTYPE svg PUBLIC "-//W3C//DTD SVG 1.1//EN"
  "http://www.w3.org/Graphics/SVG/1.1/DTD/svg11.dtd">
<svg xmlns:xlink="http://www.w3.org/1999/xlink" width="283.464567pt" height="170.07874pt" viewBox="0 0 283.464567 170.07874" xmlns="http://www.w3.org/2000/svg" version="1.1">
 <metadata>
  <rdf:RDF xmlns:dc="http://purl.org/dc/elements/1.1/" xmlns:cc="http://creativecommons.org/ns#" xmlns:rdf="http://www.w3.org/1999/02/22-rdf-syntax-ns#">
   <cc:Work>
    <dc:type rdf:resource="http://purl.org/dc/dcmitype/StillImage"/>
    <dc:date>2023-02-16T10:16:05.156945</dc:date>
    <dc:format>image/svg+xml</dc:format>
    <dc:creator>
     <cc:Agent>
      <dc:title>Matplotlib v3.5.2, https://matplotlib.org/</dc:title>
     </cc:Agent>
    </dc:creator>
   </cc:Work>
  </rdf:RDF>
 </metadata>
 <defs>
  <style type="text/css">*{stroke-linejoin: round; stroke-linecap: butt}</style>
 </defs>
 <g id="figure_1">
  <g id="patch_1">
   <path d="M 0 170.07874 
L 283.464567 170.07874 
L 283.464567 0 
L 0 0 
L 0 170.07874 
z
" style="fill: none"/>
  </g>
  <g id="axes_1">
   <g id="patch_2">
    <path d="M 45.82875 139.19749 
L 272.664567 139.19749 
L 272.664567 10.8 
L 45.82875 10.8 
z
" style="fill: #ffffff"/>
   </g>
   <g id="matplotlib.axis_1">
    <g id="xtick_1">
     <g id="line2d_1">
      <defs>
       <path id="m4495c28077" d="M 0 0 
L 0 -3.5 
" style="stroke: #000000; stroke-width: 0.8"/>
      </defs>
      <g>
       <use xlink:href="#m4495c28077" x="56.139469" y="139.19749" style="stroke: #000000; stroke-width: 0.8"/>
      </g>
     </g>
     <g id="text_1">
      <!-- 0 -->
      <g transform="translate(54.389469 147.50999)scale(0.07 -0.07)">
       <defs>
        <path id="SimHei-30" d="M 225 2537 
Q 250 3200 412 3587 
Q 575 3975 875 4225 
Q 1175 4475 1612 4475 
Q 2050 4475 2375 4112 
Q 2700 3750 2800 3200 
Q 2900 2650 2862 1937 
Q 2825 1225 2612 775 
Q 2400 325 1975 150 
Q 1550 -25 1125 187 
Q 700 400 525 750 
Q 350 1100 275 1487 
Q 200 1875 225 2537 
z
M 750 2687 
Q 675 2000 800 1462 
Q 925 925 1212 700 
Q 1500 475 1800 612 
Q 2100 750 2237 1162 
Q 2375 1575 2375 2062 
Q 2375 2550 2337 2950 
Q 2300 3350 2112 3675 
Q 1925 4000 1612 4012 
Q 1300 4025 1062 3700 
Q 825 3375 750 2687 
z
" transform="scale(0.015625)"/>
       </defs>
       <use xlink:href="#SimHei-30"/>
      </g>
     </g>
    </g>
    <g id="xtick_2">
     <g id="line2d_2">
      <g>
       <use xlink:href="#m4495c28077" x="97.423629" y="139.19749" style="stroke: #000000; stroke-width: 0.8"/>
      </g>
     </g>
     <g id="text_2">
      <!-- 200 -->
      <g transform="translate(92.173629 147.50999)scale(0.07 -0.07)">
       <defs>
        <path id="SimHei-32" d="M 300 250 
Q 325 625 650 925 
Q 975 1225 1475 1862 
Q 1975 2500 2125 2850 
Q 2275 3200 2237 3450 
Q 2200 3700 2000 3862 
Q 1800 4025 1537 4000 
Q 1275 3975 1037 3800 
Q 800 3625 675 3275 
L 200 3350 
Q 400 3925 712 4187 
Q 1025 4450 1450 4475 
Q 1700 4500 1900 4462 
Q 2100 4425 2312 4287 
Q 2525 4150 2662 3875 
Q 2800 3600 2762 3212 
Q 2725 2825 2375 2287 
Q 2025 1750 1025 600 
L 2825 600 
L 2825 150 
L 300 150 
L 300 250 
z
" transform="scale(0.015625)"/>
       </defs>
       <use xlink:href="#SimHei-32"/>
       <use xlink:href="#SimHei-30" x="50"/>
       <use xlink:href="#SimHei-30" x="100"/>
      </g>
     </g>
    </g>
    <g id="xtick_3">
     <g id="line2d_3">
      <g>
       <use xlink:href="#m4495c28077" x="138.707789" y="139.19749" style="stroke: #000000; stroke-width: 0.8"/>
      </g>
     </g>
     <g id="text_3">
      <!-- 400 -->
      <g transform="translate(133.457789 147.50999)scale(0.07 -0.07)">
       <defs>
        <path id="SimHei-34" d="M 2000 1100 
L 75 1100 
L 75 1525 
L 2100 4450 
L 2475 4450 
L 2475 1525 
L 3075 1525 
L 3075 1100 
L 2475 1100 
L 2475 150 
L 2000 150 
L 2000 1100 
z
M 2000 1525 
L 2000 3500 
L 600 1525 
L 2000 1525 
z
" transform="scale(0.015625)"/>
       </defs>
       <use xlink:href="#SimHei-34"/>
       <use xlink:href="#SimHei-30" x="50"/>
       <use xlink:href="#SimHei-30" x="100"/>
      </g>
     </g>
    </g>
    <g id="xtick_4">
     <g id="line2d_4">
      <g>
       <use xlink:href="#m4495c28077" x="179.991949" y="139.19749" style="stroke: #000000; stroke-width: 0.8"/>
      </g>
     </g>
     <g id="text_4">
      <!-- 600 -->
      <g transform="translate(174.741949 147.50999)scale(0.07 -0.07)">
       <defs>
        <path id="SimHei-36" d="M 250 1612 
Q 275 1975 387 2225 
Q 500 2475 725 2850 
L 1750 4450 
L 2325 4450 
L 1275 2800 
Q 1950 2975 2350 2750 
Q 2750 2525 2887 2237 
Q 3025 1950 3037 1612 
Q 3050 1275 2937 950 
Q 2825 625 2537 362 
Q 2250 100 1737 75 
Q 1225 50 862 262 
Q 500 475 362 862 
Q 225 1250 250 1612 
z
M 1025 787 
Q 1250 550 1625 525 
Q 2000 500 2250 775 
Q 2500 1050 2500 1575 
Q 2500 2100 2187 2300 
Q 1875 2500 1487 2450 
Q 1100 2400 925 2075 
Q 750 1750 775 1387 
Q 800 1025 1025 787 
z
" transform="scale(0.015625)"/>
       </defs>
       <use xlink:href="#SimHei-36"/>
       <use xlink:href="#SimHei-30" x="50"/>
       <use xlink:href="#SimHei-30" x="100"/>
      </g>
     </g>
    </g>
    <g id="xtick_5">
     <g id="line2d_5">
      <g>
       <use xlink:href="#m4495c28077" x="221.276109" y="139.19749" style="stroke: #000000; stroke-width: 0.8"/>
      </g>
     </g>
     <g id="text_5">
      <!-- 800 -->
      <g transform="translate(216.026109 147.50999)scale(0.07 -0.07)">
       <defs>
        <path id="SimHei-38" d="M 175 1375 
Q 175 1675 325 1962 
Q 475 2250 825 2425 
Q 525 2600 425 2812 
Q 325 3025 312 3300 
Q 300 3575 387 3775 
Q 475 3975 650 4150 
Q 825 4325 1037 4387 
Q 1250 4450 1500 4450 
Q 1750 4450 1950 4400 
Q 2150 4350 2375 4187 
Q 2600 4025 2700 3725 
Q 2800 3425 2687 3025 
Q 2575 2625 2100 2400 
Q 2525 2275 2700 2012 
Q 2875 1750 2875 1375 
Q 2875 1000 2762 775 
Q 2650 550 2512 400 
Q 2375 250 2137 162 
Q 1900 75 1537 75 
Q 1175 75 912 162 
Q 650 250 475 425 
Q 300 600 237 837 
Q 175 1075 175 1375 
z
M 687 1400 
Q 675 1100 787 875 
Q 900 650 1200 587 
Q 1500 525 1825 600 
Q 2150 675 2275 950 
Q 2400 1225 2362 1500 
Q 2325 1775 2050 1962 
Q 1775 2150 1450 2125 
Q 1125 2100 912 1900 
Q 700 1700 687 1400 
z
M 775 3350 
Q 775 3100 950 2875 
Q 1125 2650 1500 2650 
Q 1875 2650 2062 2875 
Q 2250 3100 2237 3412 
Q 2225 3725 2012 3875 
Q 1800 4025 1437 4000 
Q 1075 3975 925 3787 
Q 775 3600 775 3350 
z
" transform="scale(0.015625)"/>
       </defs>
       <use xlink:href="#SimHei-38"/>
       <use xlink:href="#SimHei-30" x="50"/>
       <use xlink:href="#SimHei-30" x="100"/>
      </g>
     </g>
    </g>
    <g id="xtick_6">
     <g id="line2d_6">
      <g>
       <use xlink:href="#m4495c28077" x="262.560269" y="139.19749" style="stroke: #000000; stroke-width: 0.8"/>
      </g>
     </g>
     <g id="text_6">
      <!-- 1000 -->
      <g transform="translate(255.560269 147.50999)scale(0.07 -0.07)">
       <defs>
        <path id="SimHei-31" d="M 1400 3600 
Q 1075 3275 575 2975 
L 575 3450 
Q 1200 3875 1600 4450 
L 1900 4450 
L 1900 150 
L 1400 150 
L 1400 3600 
z
" transform="scale(0.015625)"/>
       </defs>
       <use xlink:href="#SimHei-31"/>
       <use xlink:href="#SimHei-30" x="50"/>
       <use xlink:href="#SimHei-30" x="100"/>
       <use xlink:href="#SimHei-30" x="150"/>
      </g>
     </g>
    </g>
    <g id="text_7">
     <!-- 时间 -->
     <g transform="translate(152.246658 157.990459)scale(0.07 -0.07)">
      <defs>
       <path id="SimHei-65f6" d="M 2525 4575 
Q 2500 3675 2500 2400 
Q 2500 1125 2525 400 
L 2000 400 
L 2000 875 
L 1000 875 
L 1000 50 
L 475 50 
Q 500 1200 500 2350 
Q 500 3525 475 4575 
L 2525 4575 
z
M 4875 3825 
Q 4875 4575 4850 5225 
L 5400 5225 
Q 5375 4575 5375 3825 
Q 5750 3825 6175 3850 
L 6175 3375 
Q 5750 3400 5375 3400 
L 5375 50 
Q 5375 -325 5075 -425 
Q 4775 -525 4300 -575 
Q 4300 -275 4025 0 
Q 4500 -50 4687 -25 
Q 4875 0 4875 300 
L 4875 3400 
Q 3625 3400 2775 3375 
L 2775 3850 
Q 3575 3825 4875 3825 
z
M 2000 1300 
L 2000 2550 
L 1000 2550 
L 1000 1300 
L 2000 1300 
z
M 2000 2975 
L 2000 4150 
L 1000 4150 
L 1000 2975 
L 2000 2975 
z
M 3550 2725 
Q 3875 2200 4175 1600 
Q 3925 1525 3650 1375 
Q 3450 1975 3075 2500 
Q 3300 2600 3550 2725 
z
" transform="scale(0.015625)"/>
       <path id="SimHei-95f4" d="M 4450 3550 
Q 4425 3075 4425 2725 
L 4425 1400 
Q 4425 1075 4450 625 
L 1925 625 
Q 1950 1075 1950 1425 
L 1950 2725 
Q 1950 3075 1925 3550 
L 4450 3550 
z
M 5800 4875 
Q 5775 4400 5775 3925 
L 5775 250 
Q 5800 -325 5462 -450 
Q 5125 -575 4725 -625 
Q 4700 -325 4525 -25 
Q 5000 -50 5137 25 
Q 5275 100 5275 350 
L 5275 4450 
L 3775 4450 
Q 3175 4450 2650 4425 
L 2650 4900 
Q 3175 4875 3775 4875 
L 5800 4875 
z
M 550 -525 
Q 600 -25 600 525 
L 600 3150 
Q 600 3675 550 4025 
L 1125 4025 
Q 1100 3650 1100 3300 
L 1100 500 
Q 1100 0 1125 -525 
L 550 -525 
z
M 3950 1025 
L 3950 1950 
L 2425 1950 
L 2425 1025 
L 3950 1025 
z
M 3950 2350 
L 3950 3150 
L 2425 3150 
L 2425 2350 
L 3950 2350 
z
M 1525 5300 
Q 1750 5000 2225 4350 
Q 1950 4225 1700 4075 
Q 1450 4575 1075 5025 
Q 1350 5225 1525 5300 
z
" transform="scale(0.015625)"/>
      </defs>
      <use xlink:href="#SimHei-65f6"/>
      <use xlink:href="#SimHei-95f4" x="100"/>
     </g>
    </g>
   </g>
   <g id="matplotlib.axis_2">
    <g id="ytick_1">
     <g id="line2d_7">
      <defs>
       <path id="md83c64f2e8" d="M 0 0 
L 3.5 0 
" style="stroke: #000000; stroke-width: 0.8"/>
      </defs>
      <g>
       <use xlink:href="#md83c64f2e8" x="45.82875" y="128.671781" style="stroke: #000000; stroke-width: 0.8"/>
      </g>
     </g>
     <g id="text_8">
      <!-- -40000 -->
      <g transform="translate(21.32875 131.078031)scale(0.07 -0.07)">
       <defs>
        <path id="SimHei-2d" d="M 2975 2125 
L 125 2125 
L 125 2525 
L 2975 2525 
L 2975 2125 
z
" transform="scale(0.015625)"/>
       </defs>
       <use xlink:href="#SimHei-2d"/>
       <use xlink:href="#SimHei-34" x="50"/>
       <use xlink:href="#SimHei-30" x="100"/>
       <use xlink:href="#SimHei-30" x="150"/>
       <use xlink:href="#SimHei-30" x="200"/>
       <use xlink:href="#SimHei-30" x="250"/>
      </g>
     </g>
    </g>
    <g id="ytick_2">
     <g id="line2d_8">
      <g>
       <use xlink:href="#md83c64f2e8" x="45.82875" y="100.50342" style="stroke: #000000; stroke-width: 0.8"/>
      </g>
     </g>
     <g id="text_9">
      <!-- -30000 -->
      <g transform="translate(21.32875 102.90967)scale(0.07 -0.07)">
       <defs>
        <path id="SimHei-33" d="M 250 1225 
L 700 1300 
Q 800 975 1025 762 
Q 1250 550 1587 562 
Q 1925 575 2125 837 
Q 2325 1100 2300 1437 
Q 2275 1775 2037 1962 
Q 1800 2150 1275 2225 
L 1275 2550 
Q 1800 2600 2037 2825 
Q 2275 3050 2250 3412 
Q 2225 3775 1925 3937 
Q 1625 4100 1287 3975 
Q 950 3850 750 3275 
L 300 3350 
Q 450 3800 712 4100 
Q 975 4400 1425 4450 
Q 1875 4500 2212 4337 
Q 2550 4175 2687 3837 
Q 2825 3500 2725 3100 
Q 2625 2700 2150 2400 
Q 2500 2250 2687 1950 
Q 2875 1650 2812 1162 
Q 2750 675 2375 375 
Q 2000 75 1525 87 
Q 1050 100 700 387 
Q 350 675 250 1225 
z
" transform="scale(0.015625)"/>
       </defs>
       <use xlink:href="#SimHei-2d"/>
       <use xlink:href="#SimHei-33" x="50"/>
       <use xlink:href="#SimHei-30" x="100"/>
       <use xlink:href="#SimHei-30" x="150"/>
       <use xlink:href="#SimHei-30" x="200"/>
       <use xlink:href="#SimHei-30" x="250"/>
      </g>
     </g>
    </g>
    <g id="ytick_3">
     <g id="line2d_9">
      <g>
       <use xlink:href="#md83c64f2e8" x="45.82875" y="72.335059" style="stroke: #000000; stroke-width: 0.8"/>
      </g>
     </g>
     <g id="text_10">
      <!-- -20000 -->
      <g transform="translate(21.32875 74.741309)scale(0.07 -0.07)">
       <use xlink:href="#SimHei-2d"/>
       <use xlink:href="#SimHei-32" x="50"/>
       <use xlink:href="#SimHei-30" x="100"/>
       <use xlink:href="#SimHei-30" x="150"/>
       <use xlink:href="#SimHei-30" x="200"/>
       <use xlink:href="#SimHei-30" x="250"/>
      </g>
     </g>
    </g>
    <g id="ytick_4">
     <g id="line2d_10">
      <g>
       <use xlink:href="#md83c64f2e8" x="45.82875" y="44.166699" style="stroke: #000000; stroke-width: 0.8"/>
      </g>
     </g>
     <g id="text_11">
      <!-- -10000 -->
      <g transform="translate(21.32875 46.572949)scale(0.07 -0.07)">
       <use xlink:href="#SimHei-2d"/>
       <use xlink:href="#SimHei-31" x="50"/>
       <use xlink:href="#SimHei-30" x="100"/>
       <use xlink:href="#SimHei-30" x="150"/>
       <use xlink:href="#SimHei-30" x="200"/>
       <use xlink:href="#SimHei-30" x="250"/>
      </g>
     </g>
    </g>
    <g id="ytick_5">
     <g id="line2d_11">
      <g>
       <use xlink:href="#md83c64f2e8" x="45.82875" y="15.998338" style="stroke: #000000; stroke-width: 0.8"/>
      </g>
     </g>
     <g id="text_12">
      <!-- 0 -->
      <g transform="translate(38.82875 18.404588)scale(0.07 -0.07)">
       <use xlink:href="#SimHei-30"/>
      </g>
     </g>
    </g>
    <g id="text_13">
     <!-- 奖励 -->
     <g transform="translate(16.45375 81.998745)rotate(-90)scale(0.07 -0.07)">
      <defs>
       <path id="SimHei-5956" d="M 5075 1575 
Q 5650 1575 6075 1600 
L 6075 1125 
Q 5675 1200 5075 1175 
L 3550 1175 
Q 3975 600 4712 300 
Q 5450 0 6150 -50 
Q 6000 -225 5850 -550 
Q 5350 -450 4975 -325 
Q 4600 -200 4137 87 
Q 3675 375 3250 875 
Q 3025 550 2800 350 
Q 2575 150 2250 -50 
Q 1925 -250 1562 -375 
Q 1200 -500 700 -625 
Q 600 -375 400 -125 
Q 875 -75 1262 37 
Q 1650 150 1962 312 
Q 2275 475 2500 687 
Q 2725 900 2850 1175 
L 1325 1175 
Q 825 1175 350 1150 
L 350 1600 
Q 825 1575 1325 1575 
L 2950 1575 
Q 2975 1750 2975 1950 
Q 3475 1875 3550 1875 
Q 3475 1725 3450 1575 
L 5075 1575 
z
M 4325 5000 
Q 4125 4800 3925 4500 
L 5900 4500 
Q 5675 3950 5462 3587 
Q 5250 3225 4987 2937 
Q 4725 2650 4287 2400 
Q 3850 2150 3050 1975 
Q 2925 2200 2750 2425 
Q 3500 2450 4100 2800 
L 3425 3250 
Q 3575 3425 3700 3600 
Q 3950 3450 4100 3337 
Q 4250 3225 4475 3075 
Q 4900 3450 5175 4100 
L 3675 4100 
Q 3550 3950 3375 3750 
Q 3200 3550 2900 3200 
Q 2700 3375 2475 3475 
Q 2850 3800 3187 4250 
Q 3525 4700 3750 5225 
Q 4075 5075 4325 5000 
z
M 2450 5175 
Q 2425 4875 2425 4475 
L 2425 2875 
Q 2425 2500 2450 1975 
L 1925 1975 
Q 1950 2500 1950 2875 
L 1950 3050 
Q 1225 2575 750 2275 
Q 575 2550 400 2700 
Q 825 2825 1950 3525 
L 1950 4475 
Q 1950 4850 1925 5175 
L 2450 5175 
z
M 1000 4700 
Q 1475 4325 1800 4025 
L 1425 3650 
Q 1100 4000 675 4350 
Q 850 4500 1000 4700 
z
" transform="scale(0.015625)"/>
       <path id="SimHei-52b1" d="M 2725 3575 
Q 3125 3575 3400 3600 
L 3400 3150 
Q 3100 3175 2725 3175 
L 2275 3175 
Q 2275 2875 2250 2450 
L 3375 2450 
Q 3300 1350 3275 1037 
Q 3250 725 3200 337 
Q 3150 -50 2950 -137 
Q 2750 -225 2275 -275 
Q 2250 -25 2075 300 
Q 2525 250 2637 275 
Q 2750 300 2787 537 
Q 2825 775 2850 1250 
Q 2875 1725 2875 2075 
L 2225 2075 
Q 2200 1600 2112 1250 
Q 2025 900 1925 587 
Q 1825 275 1687 12 
Q 1550 -250 1425 -450 
Q 1250 -250 975 -100 
Q 1200 125 1362 462 
Q 1525 800 1625 1150 
Q 1725 1500 1775 2037 
Q 1825 2575 1825 3175 
L 1250 3175 
Q 1250 2675 1225 2262 
Q 1200 1850 1150 1400 
Q 1100 950 975 425 
Q 850 -100 625 -500 
Q 425 -325 200 -200 
Q 375 125 487 487 
Q 600 850 675 1350 
Q 750 1850 762 2300 
Q 775 2750 775 3475 
Q 775 4225 750 4700 
L 2875 4700 
Q 3125 4700 3425 4725 
L 3425 4300 
Q 3150 4325 2875 4325 
L 1250 4325 
L 1250 3575 
L 2725 3575 
z
M 4550 -600 
Q 4500 -300 4325 50 
Q 4825 -25 5000 50 
Q 5175 125 5212 625 
Q 5250 1125 5287 1912 
Q 5325 2700 5325 3400 
L 4675 3400 
Q 4650 2325 4525 1675 
Q 4400 1025 4212 575 
Q 4025 125 3837 -137 
Q 3650 -400 3475 -650 
Q 3225 -450 3025 -375 
Q 3400 50 3637 512 
Q 3875 975 3987 1362 
Q 4100 1750 4150 2175 
Q 4200 2600 4225 3400 
Q 3825 3400 3550 3375 
L 3550 3825 
Q 3925 3800 4225 3800 
L 4225 4350 
Q 4225 4625 4200 5175 
Q 4500 5100 4750 5075 
Q 4725 4850 4700 4575 
Q 4675 4300 4675 3800 
L 5825 3800 
Q 5775 3375 5775 2675 
Q 5700 850 5675 500 
Q 5650 150 5575 -112 
Q 5500 -375 5225 -475 
Q 4950 -575 4550 -600 
z
" transform="scale(0.015625)"/>
      </defs>
      <use xlink:href="#SimHei-5956"/>
      <use xlink:href="#SimHei-52b1" x="100"/>
     </g>
    </g>
   </g>
   <g id="line2d_12">
    <path d="M 56.139469 64.069444 
L 56.34589 125.242591 
L 56.552311 122.50818 
L 56.758731 54.11265 
L 56.965152 66.434349 
L 57.377994 52.918391 
L 57.584415 62.545355 
L 57.790835 120.796446 
L 57.997256 58.588943 
L 58.203677 47.068895 
L 58.410098 76.504461 
L 58.616519 68.992339 
L 58.822939 72.31176 
L 59.02936 55.538585 
L 59.235781 56.151051 
L 59.442202 122.906884 
L 59.648623 130.731603 
L 59.855043 52.88074 
L 60.061464 56.348079 
L 60.267885 50.033511 
L 60.474306 50.034867 
L 60.680727 94.709375 
L 60.887147 51.173697 
L 61.093568 71.319166 
L 61.299989 55.438736 
L 61.50641 84.106958 
L 61.919251 95.090704 
L 62.125672 82.653273 
L 62.332093 84.055369 
L 62.538514 62.003658 
L 62.744935 119.606135 
L 62.951355 121.781943 
L 63.157776 60.920354 
L 63.364197 80.285298 
L 63.570618 121.536482 
L 63.983459 49.381317 
L 64.18988 48.98691 
L 64.396301 72.93422 
L 64.602722 52.577845 
L 64.809143 55.605573 
L 65.015563 113.37098 
L 65.221984 103.151802 
L 65.428405 72.603919 
L 65.634826 89.1871 
L 65.841247 79.664214 
L 66.047667 46.139708 
L 66.254088 59.614239 
L 66.460509 95.906079 
L 66.66693 66.180691 
L 66.873351 72.343917 
L 67.079771 48.479715 
L 67.286192 52.146889 
L 67.492613 69.568255 
L 67.699034 47.854366 
L 67.905455 75.209817 
L 68.111875 53.410036 
L 68.318296 73.888368 
L 68.524717 122.680921 
L 68.731138 115.649008 
L 68.937559 60.147394 
L 69.143979 129.628955 
L 69.3504 75.23722 
L 69.763242 88.839876 
L 69.969663 76.012147 
L 70.176083 104.260997 
L 70.588925 72.937906 
L 70.795346 93.15095 
L 71.001767 51.526464 
L 71.208187 56.48349 
L 71.414608 50.319909 
L 71.621029 64.26604 
L 71.82745 109.765617 
L 72.033871 119.427497 
L 72.240291 121.115255 
L 72.446712 55.219603 
L 72.653133 61.552194 
L 72.859554 133.361241 
L 73.065975 57.709227 
L 73.272395 67.723007 
L 73.685237 48.100361 
L 74.304499 76.065496 
L 74.51092 74.960697 
L 74.717341 53.616677 
L 74.923762 113.135455 
L 75.130183 70.242931 
L 75.543024 55.612719 
L 75.955866 103.553404 
L 76.162287 57.371138 
L 76.368707 106.647116 
L 76.575128 70.380472 
L 76.781549 117.452037 
L 76.98797 57.990313 
L 77.194391 50.367743 
L 77.400811 121.751926 
L 77.607232 55.675556 
L 77.813653 55.135238 
L 78.020074 59.643419 
L 78.226495 50.254916 
L 78.432915 61.229232 
L 78.639336 60.410707 
L 78.845757 122.006805 
L 79.052178 71.895649 
L 79.258599 95.36424 
L 79.465019 64.646192 
L 79.67144 64.721613 
L 79.877861 49.731994 
L 80.290703 110.234983 
L 80.497123 44.428543 
L 80.703544 62.873103 
L 80.909965 66.022964 
L 81.116386 55.419337 
L 81.322807 55.041699 
L 81.529227 53.762594 
L 81.735648 75.226382 
L 81.942069 60.880574 
L 82.354911 112.511636 
L 82.767752 61.968197 
L 82.974173 66.139566 
L 83.180594 50.154343 
L 83.387015 98.863537 
L 83.593435 66.20394 
L 83.799856 76.764094 
L 84.006277 70.924501 
L 84.212698 52.62925 
L 84.419119 51.969956 
L 84.625539 49.787065 
L 84.83196 76.776907 
L 85.038381 53.381923 
L 85.451223 63.240172 
L 85.657643 73.563959 
L 85.864064 113.234199 
L 86.070485 73.897484 
L 86.483327 87.731286 
L 86.689747 55.895578 
L 86.896168 110.957227 
L 87.30901 59.371754 
L 87.515431 66.797781 
L 87.721851 98.86176 
L 87.928272 96.886707 
L 88.134693 81.487213 
L 88.341114 54.258168 
L 88.547535 79.655862 
L 88.753955 59.456067 
L 88.960376 97.970226 
L 89.166797 101.861223 
L 89.373218 54.50852 
L 89.579639 78.934207 
L 89.786059 55.465782 
L 89.99248 60.724193 
L 90.405322 87.06073 
L 90.611743 78.201742 
L 90.818163 59.742677 
L 91.024584 71.402109 
L 91.231005 53.85273 
L 91.437426 63.533827 
L 91.643847 87.076773 
L 91.850267 89.977151 
L 92.056688 102.920326 
L 92.263109 71.13216 
L 92.46953 60.065862 
L 92.675951 56.510946 
L 92.882371 125.327184 
L 93.088792 59.354088 
L 93.295213 98.316845 
L 93.708055 67.646254 
L 93.914475 77.078419 
L 94.327317 57.724032 
L 94.533738 83.641031 
L 94.740159 62.206536 
L 94.946579 55.133291 
L 95.153 94.834295 
L 95.359421 103.910917 
L 95.565842 67.053123 
L 95.772263 62.005006 
L 95.978683 72.417523 
L 96.185104 53.779284 
L 96.391525 55.091676 
L 96.597946 52.500869 
L 96.804367 62.151174 
L 97.010787 110.092073 
L 97.217208 52.884858 
L 97.423629 116.261483 
L 98.042891 47.960685 
L 98.249312 66.188112 
L 98.455733 110.907646 
L 98.662154 68.904395 
L 98.868575 94.6207 
L 99.074995 66.394875 
L 99.281416 71.295977 
L 99.487837 63.085873 
L 99.694258 71.299564 
L 100.107099 49.986912 
L 100.31352 95.919179 
L 100.519941 114.109464 
L 100.726362 46.76877 
L 101.139203 82.3064 
L 101.345624 54.312001 
L 101.758466 121.762632 
L 101.964887 67.416731 
L 102.171307 117.405471 
L 102.377728 48.084348 
L 102.584149 125.093816 
L 102.79057 122.40728 
L 102.996991 72.96476 
L 103.203411 69.507143 
L 103.409832 58.589823 
L 103.616253 75.798337 
L 103.822674 110.741156 
L 104.029095 88.0189 
L 104.441936 115.829825 
L 104.648357 113.365027 
L 105.061199 59.085826 
L 105.267619 53.714375 
L 105.47404 90.330681 
L 105.680461 86.050399 
L 105.886882 48.916839 
L 106.093303 48.469947 
L 106.299723 118.751192 
L 106.506144 49.321107 
L 106.918986 73.550122 
L 107.125407 111.255943 
L 107.331827 58.81423 
L 107.538248 104.343945 
L 107.95109 48.24726 
L 108.157511 55.940969 
L 108.570352 47.985976 
L 108.776773 48.365658 
L 108.983194 60.371728 
L 109.189615 64.916624 
L 109.396035 100.027831 
L 109.602456 68.647683 
L 109.808877 64.891432 
L 110.015298 127.137034 
L 110.221719 63.44239 
L 110.428139 73.109194 
L 110.63456 128.83036 
L 110.840981 55.156741 
L 111.047402 52.523236 
L 111.253823 54.296036 
L 111.666664 119.101965 
L 111.873085 63.172024 
L 112.285927 76.039523 
L 112.492347 128.952727 
L 112.698768 74.079187 
L 112.905189 85.801445 
L 113.11161 113.945769 
L 113.318031 107.359571 
L 113.524451 62.973068 
L 113.730872 62.897437 
L 113.937293 60.913193 
L 114.143714 72.419845 
L 114.350135 71.457279 
L 114.556555 114.434864 
L 114.762976 53.243238 
L 114.969397 51.593053 
L 115.382239 111.874437 
L 115.588659 61.270205 
L 115.79508 94.703879 
L 116.001501 97.340812 
L 116.207922 80.468838 
L 116.414343 96.269688 
L 116.620763 54.580558 
L 116.827184 70.844221 
L 117.033605 77.516096 
L 117.240026 88.460246 
L 117.446446 116.645189 
L 117.652867 86.368333 
L 117.859288 76.315051 
L 118.065709 88.457386 
L 118.684971 53.718862 
L 118.891392 75.176047 
L 119.097813 115.428756 
L 119.304234 88.504601 
L 119.717075 74.626913 
L 119.923496 78.528737 
L 120.129917 84.735888 
L 120.336338 98.319684 
L 120.542758 128.317388 
L 120.749179 55.279598 
L 121.162021 125.636024 
L 121.368442 65.544685 
L 121.574862 123.334537 
L 121.781283 57.119578 
L 121.987704 50.073078 
L 122.194125 67.436251 
L 122.400546 121.899557 
L 122.813387 69.052802 
L 123.019808 63.305884 
L 123.226229 49.269507 
L 123.43265 65.541835 
L 123.63907 50.418531 
L 123.845491 96.968945 
L 124.051912 108.682445 
L 124.464754 51.154702 
L 124.877595 107.800819 
L 125.084016 59.773057 
L 125.290437 102.638835 
L 125.496858 61.857169 
L 125.703278 65.145239 
L 125.909699 51.880235 
L 126.11612 52.404948 
L 126.322541 49.809712 
L 126.528962 60.378498 
L 126.735382 82.921081 
L 126.941803 75.463552 
L 127.148224 58.345389 
L 127.354645 78.687624 
L 127.561066 70.986802 
L 127.767486 75.493618 
L 127.973907 16.700719 
L 128.180328 17.616104 
L 128.386749 24.601648 
L 128.79959 23.707399 
L 129.212432 23.596667 
L 129.418853 24.472129 
L 129.625274 22.913992 
L 129.831694 23.12921 
L 130.038115 22.894151 
L 130.450957 20.34373 
L 130.863798 17.345774 
L 131.070219 17.300318 
L 131.27664 17.542164 
L 131.689482 17.149707 
L 132.721586 16.850454 
L 134.166531 16.672333 
L 135.405056 16.682798 
L 136.024318 16.902168 
L 137.056422 16.86914 
L 137.469264 31.280024 
L 137.882106 17.052196 
L 138.088526 16.690769 
L 138.294947 16.934351 
L 138.91421 17.05673 
L 139.12063 16.814625 
L 139.946314 16.695648 
L 140.978418 16.696168 
L 142.423363 16.787149 
L 142.629784 16.693256 
L 143.042626 16.709811 
L 143.455467 17.092721 
L 144.07473 16.950062 
L 145.106834 16.961834 
L 146.551779 16.755497 
L 147.377462 16.8292 
L 149.028829 16.919278 
L 151.91872 16.917082 
L 153.570086 17.114404 
L 154.189349 17.016419 
L 155.634294 17.064588 
L 156.253557 17.171615 
L 156.872819 16.972795 
L 158.317765 17.02729 
L 158.730606 16.968262 
L 159.969131 16.956363 
L 161.001235 16.921314 
L 161.414077 17.086889 
L 162.859022 17.005791 
L 163.684706 17.067678 
L 164.510389 17.099659 
L 164.92323 17.124535 
L 165.336072 17.074874 
L 165.955334 17.200069 
L 166.161755 17.100031 
L 166.574597 17.268341 
L 166.781018 17.106124 
L 166.987438 17.328572 
L 167.40028 17.119766 
L 168.225963 16.860199 
L 175.03785 16.871786 
L 176.069954 17.214806 
L 176.276374 16.949627 
L 176.482795 17.169662 
L 176.895637 17.352022 
L 177.102058 17.45314 
L 177.308478 17.215456 
L 177.514899 17.314322 
L 178.134162 16.911628 
L 178.547003 16.830533 
L 179.785528 16.826682 
L 182.056157 16.814345 
L 184.739627 16.822366 
L 185.978152 16.854683 
L 193.20288 16.86905 
L 193.615722 17.213784 
L 194.234984 17.035774 
L 199.808346 16.901761 
L 200.634029 16.946848 
L 201.459712 16.99074 
L 202.078974 17.405915 
L 202.491816 17.199423 
L 207.239494 17.093673 
L 207.445915 17.172574 
L 207.652336 17.376834 
L 207.858757 17.248287 
L 208.065178 17.33895 
L 208.271598 17.203141 
L 209.922965 17.264326 
L 210.542227 17.104393 
L 211.16149 17.107897 
L 212.400014 17.151833 
L 212.606435 17.1514 
L 212.812856 17.395028 
L 213.019277 17.191995 
L 213.432118 17.22138 
L 217.973376 17.21684 
L 218.386218 17.283585 
L 219.00548 17.258626 
L 219.211901 17.637163 
L 219.418322 17.613134 
L 219.624742 17.27082 
L 220.244005 17.171037 
L 220.656846 17.151445 
L 220.863267 76.276605 
L 221.069688 17.056636 
L 226.84947 17.040659 
L 227.468733 17.048152 
L 228.913678 16.977522 
L 230.565045 17.095884 
L 230.771466 17.464718 
L 230.977886 17.404485 
L 231.390728 17.61563 
L 231.597149 17.609852 
L 231.80357 17.413362 
L 232.835674 17.560184 
L 233.042094 17.492027 
L 233.248515 17.270299 
L 233.454936 17.324106 
L 233.867778 17.174794 
L 236.344827 17.123861 
L 236.757669 17.229146 
L 237.376931 17.217672 
L 237.583352 17.445438 
L 237.789773 17.924517 
L 237.996194 17.638403 
L 238.615456 17.583389 
L 238.821877 17.790947 
L 239.028298 17.78362 
L 239.853981 17.158176 
L 241.298926 17.194014 
L 241.711768 17.217165 
L 242.12461 17.333746 
L 242.33103 17.529773 
L 242.537451 17.363683 
L 242.950293 17.74648 
L 243.156714 17.711323 
L 243.363134 17.839288 
L 243.569555 17.722859 
L 243.775976 17.821273 
L 243.982397 17.764959 
L 244.188818 17.838887 
L 244.601659 17.641844 
L 245.014501 18.070196 
L 245.633763 17.517267 
L 246.253026 17.469637 
L 246.459446 17.341655 
L 246.872288 17.476425 
L 247.28513 18.138155 
L 247.49155 18.564797 
L 247.697971 18.019823 
L 247.904392 18.583989 
L 248.110813 18.656625 
L 248.317234 17.797584 
L 249.349338 18.380756 
L 249.555758 18.17849 
L 249.762179 18.491886 
L 249.9686 18.533654 
L 250.587862 17.726788 
L 251.207125 17.334562 
L 251.826387 17.298509 
L 252.44565 17.129785 
L 255.12912 16.903753 
L 255.748382 16.754394 
L 257.193328 16.911997 
L 257.399749 17.69101 
L 257.81259 17.362814 
L 258.019011 17.597916 
L 258.225432 17.496067 
L 258.638274 17.132126 
L 259.051115 17.033983 
L 259.670378 16.896995 
L 262.353848 16.968055 
L 262.353848 16.968055 
" clip-path="url(#p8dba6df0cb)" style="fill: none; stroke: #0000ff; stroke-width: 1.5; stroke-linecap: square"/>
   </g>
   <g id="line2d_13">
    <path d="M 56.139469 86.473443 
L 56.34589 85.209666 
L 56.758731 58.752261 
L 56.965152 72.08902 
L 57.377994 68.383606 
L 57.584415 73.10082 
L 57.790835 74.390217 
L 57.997256 64.69328 
L 58.203677 64.083208 
L 58.410098 65.899639 
L 58.822939 87.527977 
L 59.02936 83.641773 
L 59.235781 83.803671 
L 59.442202 82.580163 
L 59.855043 60.801314 
L 60.061464 60.459906 
L 60.267885 63.454123 
L 60.474306 64.535168 
L 60.680727 71.349586 
L 60.887147 70.446233 
L 61.093568 79.229634 
L 61.299989 81.496455 
L 61.50641 87.219782 
L 61.712831 82.799122 
L 62.125672 94.020076 
L 62.332093 89.673492 
L 62.538514 88.919478 
L 62.744935 100.826042 
L 62.951355 92.250267 
L 63.157776 77.770142 
L 63.570618 73.913238 
L 63.777039 60.121511 
L 63.983459 55.897173 
L 64.396301 79.528084 
L 64.602722 79.462024 
L 65.015563 91.595603 
L 65.428405 69.441836 
L 65.634826 74.102268 
L 65.841247 69.500986 
L 66.047667 68.036927 
L 66.254088 68.504928 
L 66.460509 67.011458 
L 66.873351 58.078628 
L 67.079771 58.651808 
L 67.286192 59.637872 
L 67.492613 63.986168 
L 67.905455 88.16763 
L 68.111875 85.155145 
L 68.318296 100.398929 
L 68.524717 100.668699 
L 68.937559 87.351157 
L 69.143979 90.524108 
L 69.3504 85.450516 
L 69.556821 87.495259 
L 69.763242 85.502372 
L 69.969663 86.364586 
L 70.176083 81.46745 
L 70.588925 64.883744 
L 70.795346 63.149371 
L 71.001767 66.472304 
L 71.414608 92.978864 
L 71.621029 93.958802 
L 71.82745 93.416033 
L 72.033871 98.135158 
L 72.446712 75.113054 
L 72.653133 75.877605 
L 72.859554 73.187238 
L 73.065975 57.919122 
L 73.891658 66.208098 
L 74.098079 77.431057 
L 74.304499 77.604252 
L 74.717341 71.139228 
L 74.923762 77.864518 
L 75.336603 73.373749 
L 75.543024 82.085502 
L 75.749445 85.039052 
L 75.955866 91.080833 
L 76.162287 81.968215 
L 76.368707 80.567536 
L 76.575128 83.588498 
L 76.781549 80.647515 
L 76.98797 68.184155 
L 77.194391 68.514776 
L 77.400811 68.492211 
L 77.607232 56.387672 
L 77.813653 57.334702 
L 78.020074 70.709016 
L 78.226495 73.159462 
L 78.432915 82.181327 
L 78.845757 83.7269 
L 79.052178 69.271938 
L 79.258599 70.637868 
L 79.465019 73.612016 
L 79.67144 69.568487 
L 79.877861 69.198785 
L 80.084282 72.456979 
L 80.290703 67.795786 
L 80.497123 56.757129 
L 80.909965 61.094595 
L 81.116386 60.066117 
L 81.322807 65.506473 
L 81.735648 83.60667 
L 81.942069 80.955033 
L 82.14849 82.006832 
L 82.354911 75.513477 
L 82.767752 68.665917 
L 82.974173 71.625096 
L 83.387015 73.077064 
L 83.593435 63.698348 
L 83.799856 60.414973 
L 84.006277 60.417536 
L 84.212698 56.90902 
L 84.419119 57.92146 
L 84.625539 60.175503 
L 85.657643 85.611338 
L 85.864064 82.077662 
L 86.070485 81.622267 
L 86.276906 83.114828 
L 86.689747 74.876526 
L 86.896168 83.469762 
L 87.102589 80.655659 
L 87.30901 80.681043 
L 87.515431 79.658326 
L 87.721851 82.229942 
L 87.928272 74.348803 
L 88.134693 74.565507 
L 88.341114 78.640309 
L 88.547535 78.690379 
L 88.753955 78.546049 
L 88.960376 77.747992 
L 89.373218 65.277889 
L 89.579639 71.788331 
L 89.786059 71.641838 
L 89.99248 72.497217 
L 90.198901 74.6328 
L 90.611743 65.346617 
L 90.818163 67.121623 
L 91.437426 82.928047 
L 91.643847 82.234454 
L 91.850267 76.121289 
L 92.056688 83.191296 
L 92.263109 74.478048 
L 92.675951 83.918536 
L 92.882371 86.145597 
L 93.088792 76.495844 
L 93.295213 78.196286 
L 93.501634 70.077723 
L 93.708055 70.789206 
L 93.914475 69.701263 
L 94.120896 65.312237 
L 94.327317 70.707837 
L 94.533738 79.945214 
L 94.740159 76.627632 
L 94.946579 76.587326 
L 95.153 80.044173 
L 95.772263 59.158872 
L 95.978683 59.188105 
L 96.185104 66.723015 
L 96.391525 66.54413 
L 96.804367 87.370786 
L 97.010787 87.703188 
L 97.217208 75.276911 
L 97.423629 77.937561 
L 97.63005 76.866794 
L 97.836471 71.554804 
L 98.249312 81.403146 
L 98.455733 82.424718 
L 98.662154 72.860364 
L 98.868575 73.339398 
L 99.281416 63.692563 
L 99.487837 68.617204 
L 99.694258 78.821922 
L 99.900679 73.915763 
L 100.107099 75.555441 
L 100.31352 82.019339 
L 100.726362 67.489713 
L 100.932783 82.488486 
L 101.139203 81.773256 
L 101.345624 88.79307 
L 101.552045 87.547539 
L 101.758466 95.9526 
L 101.964887 96.081529 
L 102.171307 97.191135 
L 102.377728 87.611469 
L 102.584149 89.712564 
L 102.79057 79.853469 
L 102.996991 77.520244 
L 103.203411 80.531072 
L 103.409832 87.954235 
L 103.822674 106.915573 
L 104.235515 94.815199 
L 104.648357 79.133653 
L 105.267619 65.496448 
L 105.47404 78.503811 
L 105.886882 66.099389 
L 106.093303 71.026045 
L 106.299723 83.583245 
L 106.506144 71.595852 
L 106.712565 82.60042 
L 106.918986 85.111076 
L 107.125407 80.050503 
L 107.331827 68.987508 
L 107.538248 67.627057 
L 107.95109 50.510367 
L 108.363931 54.730392 
L 108.570352 64.333564 
L 108.983194 71.77106 
L 109.189615 85.124121 
L 109.396035 84.829274 
L 109.602456 79.445547 
L 109.808877 91.482082 
L 110.015298 89.535144 
L 110.221719 74.612384 
L 110.428139 72.783113 
L 110.63456 74.181796 
L 110.840981 72.236117 
L 111.047402 73.839173 
L 111.460243 81.880033 
L 111.666664 91.650057 
L 111.873085 82.645501 
L 112.079506 87.171385 
L 112.492347 102.02774 
L 112.698768 88.831808 
L 112.905189 86.595458 
L 113.11161 81.617808 
L 113.524451 66.132165 
L 113.730872 76.424524 
L 114.143714 72.629656 
L 114.350135 74.485891 
L 114.556555 82.569323 
L 114.762976 71.936391 
L 115.175818 89.378071 
L 115.382239 89.131634 
L 115.588659 86.010685 
L 115.79508 84.672755 
L 116.207922 75.93588 
L 116.414343 77.534162 
L 116.620763 81.609262 
L 116.827184 87.966817 
L 117.033605 89.060983 
L 117.240026 91.249241 
L 117.446446 88.452226 
L 117.859288 71.306374 
L 118.065709 71.078574 
L 118.47855 79.278733 
L 119.097813 87.447003 
L 119.304234 81.308429 
L 119.510654 83.271446 
L 119.717075 92.905722 
L 119.923496 89.036259 
L 120.129917 93.183811 
L 120.336338 101.363839 
L 120.542758 94.808839 
L 120.749179 93.812269 
L 120.9556 94.180264 
L 121.368442 72.701626 
L 121.574862 83.9726 
L 121.781283 78.490752 
L 122.194125 83.523958 
L 122.400546 79.890609 
L 122.813387 59.517712 
L 123.019808 65.100941 
L 123.43265 80.597063 
L 123.63907 77.719637 
L 123.845491 83.129696 
L 124.051912 85.29607 
L 124.258333 75.514193 
L 124.671174 81.907741 
L 124.877595 79.443024 
L 125.084016 68.258907 
L 125.290437 66.785285 
L 125.496858 56.219461 
L 125.703278 55.923727 
L 126.735382 73.28089 
L 126.941803 71.795397 
L 127.561066 41.079778 
L 127.973907 21.342819 
L 128.386749 23.93931 
L 128.59317 23.913406 
L 129.006011 23.562922 
L 129.212432 23.40123 
L 129.418853 23.043018 
L 130.038115 20.149831 
L 130.450957 18.178376 
L 130.657378 17.571481 
L 130.863798 17.329444 
L 133.547269 16.687538 
L 134.785794 16.677471 
L 136.230739 16.912213 
L 136.43716 18.051091 
L 136.643581 20.919235 
L 136.850002 22.143936 
L 137.262843 22.133045 
L 137.469264 21.002804 
L 137.675685 18.145906 
L 137.882106 16.942895 
L 138.707789 16.879343 
L 139.533472 16.698223 
L 140.978418 16.712235 
L 142.629784 16.828958 
L 143.455467 17.003992 
L 146.551779 16.770409 
L 149.028829 16.91112 
L 151.91872 16.987221 
L 153.363666 17.057865 
L 155.015032 17.062592 
L 156.253557 17.054251 
L 157.07924 16.987943 
L 158.317765 16.987757 
L 159.969131 16.937834 
L 160.794814 17.006389 
L 161.620498 17.033247 
L 163.065443 17.072307 
L 165.542493 17.139922 
L 166.574597 17.220445 
L 168.845226 16.805433 
L 171.528696 16.807205 
L 172.767221 16.779981 
L 174.212166 16.820244 
L 176.276374 17.226663 
L 176.895637 17.293507 
L 178.340582 16.825457 
L 183.501102 16.824713 
L 192.583618 16.92205 
L 193.409301 17.105418 
L 196.505613 16.955697 
L 198.569821 16.923586 
L 200.84045 16.995701 
L 202.078974 17.243971 
L 203.111078 17.13735 
L 205.381707 17.050288 
L 206.620232 17.099129 
L 207.445915 17.267957 
L 208.271598 17.195966 
L 218.179797 17.251796 
L 218.799059 17.398151 
L 219.418322 17.296207 
L 219.831163 17.190881 
L 220.037584 29.001485 
L 220.863267 28.895266 
L 221.069688 17.047923 
L 225.610946 16.993109 
L 227.262312 17.010041 
L 229.120099 16.967104 
L 229.739362 17.028798 
L 230.977886 17.512999 
L 232.422832 17.489763 
L 234.280619 17.110317 
L 235.519144 17.119827 
L 236.757669 17.267045 
L 237.376931 17.569962 
L 237.789773 17.679508 
L 239.028298 17.413976 
L 239.441139 17.198174 
L 240.266822 17.156796 
L 241.711768 17.339115 
L 243.363134 17.797453 
L 243.982397 17.746919 
L 244.601659 17.81917 
L 245.014501 17.742605 
L 245.633763 17.468567 
L 246.253026 17.480666 
L 246.872288 17.984734 
L 247.28513 18.392678 
L 248.317234 18.073095 
L 248.936496 18.338885 
L 249.349338 18.365022 
L 249.9686 17.994047 
L 250.587862 17.497308 
L 251.413546 17.263201 
L 252.44565 17.124664 
L 253.684174 17.09266 
L 256.161224 16.727019 
L 256.367645 16.759639 
L 257.193328 17.427019 
L 257.399749 17.543833 
L 258.844694 16.972888 
L 260.496061 16.877609 
L 261.321744 16.913149 
L 261.321744 16.913149 
" clip-path="url(#p8dba6df0cb)" style="fill: none; stroke: #ff0000; stroke-width: 1.5; stroke-linecap: square"/>
   </g>
   <g id="patch_3">
    <path d="M 45.82875 139.19749 
L 45.82875 10.8 
" style="fill: none; stroke: #000000; stroke-linejoin: miter; stroke-linecap: square"/>
   </g>
   <g id="patch_4">
    <path d="M 272.664567 139.19749 
L 272.664567 10.8 
" style="fill: none; stroke: #000000; stroke-linejoin: miter; stroke-linecap: square"/>
   </g>
   <g id="patch_5">
    <path d="M 45.82875 139.19749 
L 272.664567 139.19749 
" style="fill: none; stroke: #000000; stroke-linejoin: miter; stroke-linecap: square"/>
   </g>
   <g id="patch_6">
    <path d="M 45.82875 10.8 
L 272.664567 10.8 
" style="fill: none; stroke: #000000; stroke-linejoin: miter; stroke-linecap: square"/>
   </g>
   <g id="legend_1">
    <g id="patch_7">
     <path d="M 50.02875 24.107813 
L 93.22875 24.107813 
Q 94.42875 24.107813 94.42875 22.907813 
L 94.42875 15 
Q 94.42875 13.8 93.22875 13.8 
L 50.02875 13.8 
Q 48.82875 13.8 48.82875 15 
L 48.82875 22.907813 
Q 48.82875 24.107813 50.02875 24.107813 
z
" style="fill: #ffffff; opacity: 0.8; stroke: #cccccc; stroke-linejoin: miter"/>
    </g>
    <g id="line2d_14">
     <path d="M 51.22875 18.857813 
L 57.22875 18.857813 
L 63.22875 18.857813 
" style="fill: none; stroke: #ff0000; stroke-width: 1.5; stroke-linecap: square"/>
    </g>
    <g id="text_14">
     <!-- 平滑奖励 -->
     <g transform="translate(68.02875 20.957813)scale(0.06 -0.06)">
      <defs>
       <path id="SimHei-5e73" d="M 4525 4825 
Q 4900 4825 5450 4850 
L 5450 4375 
Q 4925 4400 4525 4400 
L 3475 4400 
L 3475 2025 
L 5000 2025 
Q 5550 2025 6025 2050 
L 6025 1575 
Q 5550 1600 5000 1600 
L 3475 1600 
L 3475 450 
Q 3475 -100 3500 -600 
L 2925 -600 
Q 2950 -100 2950 450 
L 2950 1600 
L 1125 1600 
Q 775 1600 375 1575 
L 375 2050 
Q 775 2025 1175 2025 
L 2950 2025 
L 2950 4400 
L 1775 4400 
Q 1400 4400 875 4375 
L 875 4850 
Q 1400 4825 1750 4825 
L 4525 4825 
z
M 3925 2600 
Q 4500 3300 4900 4125 
Q 5150 3950 5400 3825 
Q 4775 2850 4350 2300 
Q 4150 2475 3925 2600 
z
M 1975 2350 
Q 1600 3100 1050 3725 
Q 1250 3875 1450 4050 
Q 2075 3300 2450 2725 
Q 2150 2500 1975 2350 
z
" transform="scale(0.015625)"/>
       <path id="SimHei-6ed1" d="M 5350 5100 
Q 5325 4725 5325 4400 
L 5325 3325 
L 6125 3325 
Q 6100 3050 6100 2775 
Q 6100 2500 6125 2275 
L 5650 2275 
L 5650 2925 
L 2150 2925 
L 2150 2275 
L 1700 2275 
Q 1725 2550 1725 2800 
Q 1725 3075 1700 3325 
L 2475 3325 
L 2475 4375 
Q 2475 4675 2450 5100 
L 5350 5100 
z
M 5275 2500 
Q 5250 2150 5250 1725 
L 5250 -75 
Q 5250 -375 5025 -475 
Q 4800 -575 4375 -625 
Q 4375 -400 4225 -75 
Q 4775 -175 4775 75 
L 4775 425 
L 3000 425 
L 3000 -625 
L 2525 -625 
Q 2550 -125 2550 225 
L 2550 1750 
Q 2550 2125 2525 2500 
L 5275 2500 
z
M 4300 4225 
L 4300 3325 
L 4900 3325 
L 4900 4700 
L 2925 4700 
L 2925 4225 
L 4300 4225 
z
M 1675 1900 
Q 1525 1675 1375 1262 
Q 1225 850 1062 437 
Q 900 25 775 -300 
Q 500 -100 200 50 
Q 375 250 525 525 
Q 675 800 875 1275 
Q 1075 1750 1175 2125 
Q 1375 2000 1675 1900 
z
M 4775 1625 
L 4775 2125 
L 3000 2125 
L 3000 1625 
L 4775 1625 
z
M 4775 800 
L 4775 1250 
L 3000 1250 
L 3000 800 
L 4775 800 
z
M 950 5125 
Q 1100 5025 1362 4825 
Q 1625 4625 1850 4450 
Q 1700 4275 1550 4000 
Q 1325 4225 1112 4400 
Q 900 4575 650 4725 
Q 825 4950 950 5125 
z
M 1000 3375 
Q 1225 3225 1475 3025 
Q 1325 2875 1175 2625 
Q 950 2800 750 2950 
Q 550 3100 250 3275 
L 550 3675 
L 1000 3375 
z
M 3900 3325 
L 3900 3825 
L 2925 3825 
L 2925 3325 
L 3900 3325 
z
" transform="scale(0.015625)"/>
      </defs>
      <use xlink:href="#SimHei-5e73"/>
      <use xlink:href="#SimHei-6ed1" x="100"/>
      <use xlink:href="#SimHei-5956" x="200"/>
      <use xlink:href="#SimHei-52b1" x="300"/>
     </g>
    </g>
   </g>
  </g>
 </g>
 <defs>
  <clipPath id="p8dba6df0cb">
   <rect x="45.82875" y="10.8" width="226.835817" height="128.39749"/>
  </clipPath>
 </defs>
</svg>
