<svg viewBox="0 0 1466 400" xmlns="http://www.w3.org/2000/svg"><g><g><g><g><g><line x1="61.953125" y1="365.57471224311394" x2="56.953125" y2="365.57471224311394" style="visibility: inherit;" fill="rgb(0, 0, 0)" stroke="rgb(204, 204, 204)" stroke-width="1px"></line><line x1="61.953125" y1="331.3019849703864" x2="56.953125" y2="331.3019849703864" style="visibility: inherit;" fill="rgb(0, 0, 0)" stroke="rgb(204, 204, 204)" stroke-width="1px"></line><line x1="61.953125" y1="297.02925769765886" x2="56.953125" y2="297.02925769765886" style="visibility: inherit;" fill="rgb(0, 0, 0)" stroke="rgb(204, 204, 204)" stroke-width="1px"></line><line x1="61.953125" y1="262.7565304249313" x2="56.953125" y2="262.7565304249313" style="visibility: inherit;" fill="rgb(0, 0, 0)" stroke="rgb(204, 204, 204)" stroke-width="1px"></line><line x1="61.953125" y1="228.48380315220382" x2="56.953125" y2="228.48380315220382" style="visibility: inherit;" fill="rgb(0, 0, 0)" stroke="rgb(204, 204, 204)" stroke-width="1px"></line><line x1="61.953125" y1="194.21107587947628" x2="56.953125" y2="194.21107587947628" style="visibility: inherit;" fill="rgb(0, 0, 0)" stroke="rgb(204, 204, 204)" stroke-width="1px"></line><line x1="61.953125" y1="159.93834860674875" x2="56.953125" y2="159.93834860674875" style="visibility: inherit;" fill="rgb(0, 0, 0)" stroke="rgb(204, 204, 204)" stroke-width="1px"></line><line x1="61.953125" y1="125.66562133402121" x2="56.953125" y2="125.66562133402121" style="visibility: inherit;" fill="rgb(0, 0, 0)" stroke="rgb(204, 204, 204)" stroke-width="1px"></line><line x1="61.953125" y1="91.39289406129367" x2="56.953125" y2="91.39289406129367" style="visibility: inherit;" fill="rgb(0, 0, 0)" stroke="rgb(204, 204, 204)" stroke-width="1px"></line><line x1="61.953125" y1="57.12016678856609" x2="56.953125" y2="57.12016678856609" style="visibility: inherit;" fill="rgb(0, 0, 0)" stroke="rgb(204, 204, 204)" stroke-width="1px"></line><line x1="61.953125" y1="22.847439515838555" x2="56.953125" y2="22.847439515838555" style="visibility: inherit;" fill="rgb(0, 0, 0)" stroke="rgb(204, 204, 204)" stroke-width="1px"></line></g><g transform="translate(51.953125, 0)"><text x="0" y="365.57471224311394" dx="0em" dy="0.3em" style="text-anchor: end; visibility: inherit; font-family: Roboto, sans-serif; font-size: 12px; font-weight: 200;" fill="rgb(33, 33, 33)" stroke="none" stroke-width="1px">-6e+3</text><text x="0" y="331.3019849703864" dx="0em" dy="0.3em" style="text-anchor: end; visibility: inherit; font-family: Roboto, sans-serif; font-size: 12px; font-weight: 200;" fill="rgb(33, 33, 33)" stroke="none" stroke-width="1px">-5e+3</text><text x="0" y="297.02925769765886" dx="0em" dy="0.3em" style="text-anchor: end; visibility: inherit; font-family: Roboto, sans-serif; font-size: 12px; font-weight: 200;" fill="rgb(33, 33, 33)" stroke="none" stroke-width="1px">-4e+3</text><text x="0" y="262.7565304249313" dx="0em" dy="0.3em" style="text-anchor: end; visibility: inherit; font-family: Roboto, sans-serif; font-size: 12px; font-weight: 200;" fill="rgb(33, 33, 33)" stroke="none" stroke-width="1px">-3e+3</text><text x="0" y="228.48380315220382" dx="0em" dy="0.3em" style="text-anchor: end; visibility: inherit; font-family: Roboto, sans-serif; font-size: 12px; font-weight: 200;" fill="rgb(33, 33, 33)" stroke="none" stroke-width="1px">-2e+3</text><text x="0" y="194.21107587947628" dx="0em" dy="0.3em" style="text-anchor: end; visibility: inherit; font-family: Roboto, sans-serif; font-size: 12px; font-weight: 200;" fill="rgb(33, 33, 33)" stroke="none" stroke-width="1px">-1e+3</text><text x="0" y="159.93834860674875" dx="0em" dy="0.3em" style="text-anchor: end; visibility: inherit; font-family: Roboto, sans-serif; font-size: 12px; font-weight: 200;" fill="rgb(33, 33, 33)" stroke="none" stroke-width="1px">0</text><text x="0" y="125.66562133402121" dx="0em" dy="0.3em" style="text-anchor: end; visibility: inherit; font-family: Roboto, sans-serif; font-size: 12px; font-weight: 200;" fill="rgb(33, 33, 33)" stroke="none" stroke-width="1px">1e+3</text><text x="0" y="91.39289406129367" dx="0em" dy="0.3em" style="text-anchor: end; visibility: inherit; font-family: Roboto, sans-serif; font-size: 12px; font-weight: 200;" fill="rgb(33, 33, 33)" stroke="none" stroke-width="1px">2e+3</text><text x="0" y="57.12016678856609" dx="0em" dy="0.3em" style="text-anchor: end; visibility: inherit; font-family: Roboto, sans-serif; font-size: 12px; font-weight: 200;" fill="rgb(33, 33, 33)" stroke="none" stroke-width="1px">3e+3</text><text x="0" y="22.847439515838555" dx="0em" dy="0.3em" style="text-anchor: end; visibility: inherit; font-family: Roboto, sans-serif; font-size: 12px; font-weight: 200;" fill="rgb(33, 33, 33)" stroke="none" stroke-width="1px">4e+3</text></g><line x1="61.953125" y1="0" x2="61.953125" y2="377" fill="rgb(0, 0, 0)" stroke="rgb(204, 204, 204)" stroke-width="1px"></line></g></g><g transform="translate(61, 0)" clip-path="url(#clip_0)"><clipPath id="clip_0"><rect width="1404" height="377"></rect></clipPath><g><g><g><line x1="76.76037475588255" y1="0" x2="76.76037475588255" y2="377" fill="rgb(0, 0, 0)" stroke="rgb(66, 66, 66)" stroke-width="1px" opacity="0.25"></line><line x1="202.12170288088294" y1="0" x2="202.12170288088294" y2="377" fill="rgb(0, 0, 0)" stroke="rgb(66, 66, 66)" stroke-width="1px" opacity="0.25"></line><line x1="327.48303100588333" y1="0" x2="327.48303100588333" y2="377" fill="rgb(0, 0, 0)" stroke="rgb(66, 66, 66)" stroke-width="1px" opacity="0.25"></line><line x1="452.84435913088373" y1="0" x2="452.84435913088373" y2="377" fill="rgb(0, 0, 0)" stroke="rgb(66, 66, 66)" stroke-width="1px" opacity="0.25"></line><line x1="578.2056872558841" y1="0" x2="578.2056872558841" y2="377" fill="rgb(0, 0, 0)" stroke="rgb(66, 66, 66)" stroke-width="1px" opacity="0.25"></line><line x1="703.5670153808844" y1="0" x2="703.5670153808844" y2="377" fill="rgb(0, 0, 0)" stroke="rgb(66, 66, 66)" stroke-width="1px" opacity="0.25"></line><line x1="828.9283435058849" y1="0" x2="828.9283435058849" y2="377" fill="rgb(0, 0, 0)" stroke="rgb(66, 66, 66)" stroke-width="1px" opacity="0.25"></line><line x1="954.2896716308852" y1="0" x2="954.2896716308852" y2="377" fill="rgb(0, 0, 0)" stroke="rgb(66, 66, 66)" stroke-width="1px" opacity="0.25"></line><line x1="1079.6509997558858" y1="0" x2="1079.6509997558858" y2="377" fill="rgb(0, 0, 0)" stroke="rgb(66, 66, 66)" stroke-width="1px" opacity="0.25"></line><line x1="1205.012327880886" y1="0" x2="1205.012327880886" y2="377" fill="rgb(0, 0, 0)" stroke="rgb(66, 66, 66)" stroke-width="1px" opacity="0.25"></line><line x1="1330.3736560058865" y1="0" x2="1330.3736560058865" y2="377" fill="rgb(0, 0, 0)" stroke="rgb(66, 66, 66)" stroke-width="1px" opacity="0.25"></line></g><g><line x1="0" y1="365.57471224311394" x2="1404.046875" y2="365.57471224311394" fill="rgb(0, 0, 0)" stroke="rgb(66, 66, 66)" stroke-width="1px" opacity="0.25"></line><line x1="0" y1="331.3019849703864" x2="1404.046875" y2="331.3019849703864" fill="rgb(0, 0, 0)" stroke="rgb(66, 66, 66)" stroke-width="1px" opacity="0.25"></line><line x1="0" y1="297.02925769765886" x2="1404.046875" y2="297.02925769765886" fill="rgb(0, 0, 0)" stroke="rgb(66, 66, 66)" stroke-width="1px" opacity="0.25"></line><line x1="0" y1="262.7565304249313" x2="1404.046875" y2="262.7565304249313" fill="rgb(0, 0, 0)" stroke="rgb(66, 66, 66)" stroke-width="1px" opacity="0.25"></line><line x1="0" y1="228.48380315220382" x2="1404.046875" y2="228.48380315220382" fill="rgb(0, 0, 0)" stroke="rgb(66, 66, 66)" stroke-width="1px" opacity="0.25"></line><line x1="0" y1="194.21107587947628" x2="1404.046875" y2="194.21107587947628" fill="rgb(0, 0, 0)" stroke="rgb(66, 66, 66)" stroke-width="1px" opacity="0.25"></line><line x1="0" y1="159.93834860674875" x2="1404.046875" y2="159.93834860674875" fill="rgb(0, 0, 0)" stroke="rgb(66, 66, 66)" stroke-width="1px" opacity="0.25"></line><line x1="0" y1="125.66562133402121" x2="1404.046875" y2="125.66562133402121" fill="rgb(0, 0, 0)" stroke="rgb(66, 66, 66)" stroke-width="1px" opacity="0.25"></line><line x1="0" y1="91.39289406129367" x2="1404.046875" y2="91.39289406129367" fill="rgb(0, 0, 0)" stroke="rgb(66, 66, 66)" stroke-width="1px" opacity="0.25"></line><line x1="0" y1="57.12016678856609" x2="1404.046875" y2="57.12016678856609" fill="rgb(0, 0, 0)" stroke="rgb(66, 66, 66)" stroke-width="1px" opacity="0.25"></line><line x1="0" y1="22.847439515838555" x2="1404.046875" y2="22.847439515838555" fill="rgb(0, 0, 0)" stroke="rgb(66, 66, 66)" stroke-width="1px" opacity="0.25"></line></g></g></g><g><g><line x1="0" y1="159.93834860674875" x2="1404.046875" y2="159.93834860674875" fill="rgb(0, 0, 0)" stroke="rgb(153, 153, 153)" stroke-width="1.5px"></line></g></g><g><g><line x1="202.12170288088294" y1="0" x2="202.12170288088294" y2="377" fill="rgb(0, 0, 0)" stroke="rgb(153, 153, 153)" stroke-width="1.5px"></line></g></g><g><g><g><g><g><path style="fill: none;" stroke="rgb(255, 112, 67)" stroke-width="2px" d="M203.37531616213295,226.8512507396505L203.62603881838294,233.3015646412106L204.62892944338293,238.646391125668L204.87965209963292,228.8557602977677L205.63182006838295,227.71190397818341L205.88254272463294,232.21391373872493L206.63471069338297,248.37520849946506L206.88543334963293,237.1940267096933L207.13615600588292,239.19157020814026L208.13904663088294,231.0328822310406L210.39555053713295,236.13256251253915L211.14771850588298,337.23931896814173L212.15060913088294,304.60945595714827L212.65205444338295,293.4597253403194L213.15349975588296,267.0191037250811L213.40422241213295,268.987076133162L213.90566772463296,258.814186435781L214.40711303713297,251.52854516694376L214.657835693383,244.9557897985367L215.41000366213297,329.4301043567866L215.66072631838296,303.7558594121957L215.91144897463298,284.24128950969595L216.16217163088297,369.37210171579414L216.41289428713299,324.8866474542425L217.91723022463296,307.6814218458151L218.41867553713297,291.70251846524866L218.669398193383,274.7557886037068L218.92012084963298,275.0399549333528L219.170843505883,271.38323319247195L219.923011474633,264.09068483809955L220.17373413088296,257.28486285020847L220.42445678713298,246.95953771377947L220.67517944338297,234.87845406595727L221.928792724633,233.271198836543L223.182406005883,322.6898758207177L223.934573974633,297.17274943716774L224.18529663088302,368.74327448341495L225.689632568383,318.96180390643843L227.69541381838303,296.32918618469756L228.447581787133,277.0937420635299L228.69830444338302,272.9107515166148L230.45336303713304,262.987227592659L231.20553100588302,255.71407026131098L231.70697631838303,251.6814282711672L233.211312255883,256.7276147738316L233.46203491213302,249.02383436665193L233.712757568383,248.3549717314031L234.46492553713304,242.5441408048015L234.71564819338303,243.56134575262865L236.47070678713303,242.96344369654463L236.97215209963304,240.25292341339593L237.47359741213305,230.67782865233693L237.72432006838304,226.70006535677737L237.97504272463306,237.38460929794817L239.73010131838305,233.16287381758826L240.98371459963303,227.16928854382786L241.48515991213304,233.5270278216436L241.73588256838306,226.9007371968657L241.98660522463305,219.41377846255867L242.73877319338305,229.44623647210676L243.49094116213308,225.19574467546977L243.9923864746331,225.87113612273774L244.24310913088306,235.38378143540876L244.99527709963306,238.0429742053232L246.49961303713306,229.85324272424927L246.75033569338305,230.69760652800818L247.25178100588306,224.15968242117253L248.0039489746331,225.53842369508803L248.50539428713304,234.7542696135098L248.7561169433831,236.25986941205653L249.25756225588307,234.72214217454646L249.75900756838308,233.9249731125236L250.00973022463307,233.7535949085364L251.76478881838307,228.35893585124285L253.7705700683831,230.5951590777419L254.02129272463307,332.2897047891497L254.27201538088312,311.38566119030276L255.27490600588308,291.88619990830466L257.78213256838313,264.79385300494L258.03285522463307,250.3080729232431L258.5343005371331,251.9063203040801L259.0357458496331,249.43372750707897L259.5371911621331,341.801281751118L260.2893591308831,309.60065056242274L260.54008178713315,283.43708718254635L260.7908044433831,270.1568189292073L261.5429724121331,256.43779007590246L264.05019897463313,252.86931425519577L264.5516442871331,247.35320096477716L266.0559802246331,244.31892118405204L266.80814819338315,240.8937454759943L267.05887084963314,232.30658555312903L267.30959350588313,239.98842104121115L267.5603161621331,242.64860967107126L268.06176147463316,242.9996935178061L269.0646520996331,234.23523854629087L269.56609741213316,234.39545173580936L270.06754272463314,230.3477099199327L270.5689880371331,233.71100811277864L271.82260131838314,231.20765267974988L272.3240466308832,230.8470634553572L273.32693725588314,239.63019424465546L275.08199584963313,226.65177189568902L275.3327185058832,239.24668055443945L276.58633178713313,234.9855457340046L276.8370544433832,225.52856538464593L277.0877770996332,229.36976035332273L277.58922241213315,236.885901386897L277.83994506838314,232.56065223860898L278.0906677246332,321.97506648611136L279.09355834963316,297.733170123137L279.34428100588315,278.6869605832516L279.8457263183832,261.33873994386306L280.59789428713316,252.88447124470594L281.6007849121332,252.81465896156735L281.85150756838317,249.09781769516985L282.10223022463316,242.67788285667677L282.35295288088315,245.5969787639489L282.8543981933832,243.71296933471876L283.60656616213316,241.82438751924406L283.8572888183832,232.38952233444533L284.10801147463314,323.4184066071201L284.8601794433832,297.5162556512998L285.6123474121332,281.6035117216835L287.1166833496332,273.46623840797736L287.6181286621332,247.4325125072764L288.3702966308832,237.57022250716287L288.6210192871332,227.78600725474905L289.1224645996332,233.9061941162632L289.37318725588324,233.90065578698753L290.6268005371332,235.77007013903494L290.8775231933832,236.33173859923517L291.8804138183832,230.96005147991895L292.3818591308832,233.25571722796008L293.1340270996332,232.2255267861161L294.13691772463324,230.8288726184887L295.1398083496332,331.4963962780734L295.64125366213324,290.1326670901612L296.6441442871332,275.7803604360474L296.89486694338325,263.5509819273129L297.1455895996332,259.3631131253992L297.6470349121332,257.8736989559567L297.8977575683832,256.5138330167886L298.90064819338323,246.64644047944753L299.1513708496332,246.64889443966058L300.15426147463324,258.716732536949L300.40498413088324,251.68017023720338L300.6557067871332,244.05835673375663L303.16293334963325,234.84723954562236L304.41654663088326,226.3417654180825L306.17160522463325,223.55281476450347L306.42232788088324,317.1854852263056L307.67594116213326,293.2156284873306L307.92666381838325,270.73806511979126L308.42810913088323,261.3303733498758L308.92955444338327,252.8001422277057L309.9324450683833,246.63619416252112L312.18894897463326,231.4776289981901L312.43967163088325,230.60610275983612L312.6903942871333,228.61689857716075L312.9411169433833,240.09328061733186L313.69328491213327,335.037757085492L315.19762084963327,311.0258233383951L316.95267944338326,285.97779317665027L317.2034020996333,266.8176781562464L317.4541247558833,252.52650439055677L317.7048474121333,250.17539197570326L318.20629272463333,356.499908263901L318.4570153808833,307.43964129912155L319.2091833496333,293.1009345838996L319.4599060058833,265.86972834090966L320.7135192871333,259.79148029367593L320.9642419433833,262.87011932162886L321.9671325683833,249.51015598519328L323.7221911621333,234.85259106821647L324.47435913088333,235.12252904122778L324.7250817871333,324.7434609505875L325.2265270996333,299.34597953573194L325.72797241213334,284.76341633296585L326.4801403808833,273.7639000808654L329.2380895996333,238.09364888046596L329.9902575683833,212.59642164282738L330.24098022463335,194.38397243637615L330.49170288088334,181.346090193139L330.9931481933833,171.99815902101597L331.49459350588336,165.34217683278763L331.7453161621333,160.58283359558143L332.24676147463333,157.18499987900478L333.50037475588334,154.79146084877596L333.75109741213333,153.05394115979703L335.25543334963334,151.78440278141812L335.7568786621334,150.8810924474917L336.00760131838337,150.258294541084L336.25832397463336,149.8202166952236L336.50904663088335,149.49497185417837L336.75976928713334,149.32178619267515L337.0104919433834,149.2762764325238L337.51193725588337,149.10898953469294L337.76265991213336,148.97060109014407L338.01338256838335,148.86108585657792L339.26699584963336,148.80218795302582L339.51771850588335,148.7420756474484L339.7684411621334,148.70667958617366L340.2698864746334,148.68965197169544L341.27277709963334,148.6484831621385L341.7742224121334,148.66854338234214L342.27566772463337,148.64277371530324L343.2785583496334,161.8537369977309L343.5292810058834,158.06772882368207L343.78000366213337,155.36712367458023L344.78289428713333,153.45396683771278L345.78578491213335,152.0614126424124L346.0365075683834,151.07209042336783L346.7886755371334,150.3355342338751L347.2901208496334,149.8264017397871L347.54084350588334,149.4641414532027L347.7915661621334,149.26052280128388L348.0422888183834,149.08077167052306L348.2930114746334,148.93343314424456L348.54373413088337,148.8427734593501L349.0451794433834,148.7638316835403L349.2959020996334,148.706711357396L350.5495153808834,148.67442096070235L350.8002380371334,148.64227564393326L351.55240600588337,148.64050990024967L351.80312866213336,148.65375798909423L352.5552966308834,148.65038697975695L353.05674194338343,148.6581149579671L354.0596325683834,162.95580714729064L354.56107788088343,165.92741117527515L355.06252319338336,163.56885813373154L355.56396850588345,159.42676056297276L356.31613647463337,156.38338678697136L357.3190270996334,154.11878028496355L357.56974975588344,152.38165849904294L358.0711950683834,150.8820701180103L358.82336303713345,150.37489442021754L359.82625366213347,155.2359580752625L361.0798669433835,152.8133749249288L362.8349255371334,151.5712186423566L363.0856481933834,150.73184846702057L363.58709350588344,150.06452092540277L363.83781616213344,149.63924237936962L364.0885388183834,149.32374014497574L364.3392614746335,149.054730677844L364.58998413088347,148.73386734254396L364.84070678713346,148.43402631806947L365.5928747558835,148.01087329653322L366.5957653808834,147.98134814684647L366.84648803713344,147.98177567038576L367.84937866213346,147.97674349899998L368.60154663088343,148.0641816804441L369.1029919433835,151.0386361565669L369.60443725588345,152.5042480995255L370.3566052246335,153.56625510433648L370.6073278808835,153.6591504187948L370.8580505371334,154.62993571013354L371.1087731933834,155.3806337169892L371.3594958496335,155.12241527177366L371.86094116213343,154.83103728564708L372.1116638183834,155.5980641288346L372.36238647463347,156.3389766452253L372.86383178713345,156.02816057678226L373.11455444338344,155.92151911403235L373.36527709963343,156.6007554205206L373.6159997558835,155.55537081660415L374.11744506838346,155.1078211723991L374.6188903808835,156.57160552090488L374.8696130371335,156.7368268998098L376.6246716308834,158.61158777555258L377.37683959963346,160.18510305935885L377.62756225588345,162.09072029021792L377.87828491213344,163.67117678939957L378.3797302246335,164.64014791621307L379.1318981933835,165.12867628330244L379.6333435058835,165.73109451749394L380.13478881838347,166.77967403717406L381.13767944338343,167.50727600194406L382.14057006838345,168.33356725874987L382.8927380371335,168.78252658926968L383.1434606933835,168.9106777259067L383.39418334963347,162.01134115703255L383.6449060058835,157.55445674243475L383.8956286621335,154.902986863123L385.1492419433835,151.43148199783982L386.65357788088346,154.62453292245013L387.15502319338356,155.91006236766216L387.4057458496335,156.82776492477453L387.6564685058835,157.18641573348188L387.9071911621335,157.577640921221L388.4086364746335,153.72166751847612L389.1608044433835,154.93642963471584L389.41152709963353,156.52273221539906L390.1636950683835,157.92946254455947L390.41441772463355,159.26351301512466L390.66514038088354,159.262774489817L391.1665856933835,159.37525410871442L391.66803100588356,159.43967818351092L393.1723669433835,159.58964258109617L393.92453491213354,154.98117002887588L394.17525756838353,152.4287554275341L394.92742553713356,149.44928447764542L395.17814819338355,147.50987638814013L395.42887084963354,146.35014246927278L395.9303161621335,145.26794446731316L396.18103881838357,144.33623815354971L396.43176147463356,143.44598333588078L397.6853747558835,142.8909446539317L398.68826538088354,142.49883993212913L398.9389880371335,142.2298040300393L399.4404333496335,141.84048808535914L399.94187866213355,141.4888734035907L400.44332397463353,141.3479150498696L400.6940466308836,141.51126982390727L400.94476928713357,142.2399587124113L401.19549194338356,142.5180297547828L401.44621459963355,142.7111296570786L402.1983825683836,142.81162396147653L402.6998278808835,143.1252021093443L403.20127319338354,142.939822924201L403.9534411621335,142.77282774256182L404.45488647463355,142.80081489662984L404.70560913088354,143.19309660779842L404.95633178713354,143.6820069873192L405.95922241213356,145.63994443684436L406.4606677246336,146.61681456455094L406.7113903808836,147.33099038210574L407.2128356933835,148.07312224151815L407.96500366213354,148.8553990414171L408.96789428713356,148.12878216860466L409.7200622558836,146.5928425925948L410.47223022463356,145.25097545919434L410.72295288088355,144.48569907769837L411.2243981933836,143.8785262447028L411.7258435058836,143.74853055941693L412.2272888183836,143.68965383963908L413.48090209963357,143.64574819077518L413.98234741213355,143.63708719927288L414.2330700683836,144.1495931615851L414.4837927246336,144.59914585944725L414.7345153808836,145.08310222069744L415.4866833496336,145.28600406532527L416.9910192871336,145.11720539260713L417.49246459963354,144.65580434123908L417.74318725588364,145.05828897434316L417.99390991213363,145.36783480838486L418.49535522463356,144.5756793820235L419.4982458496336,144.4555867643461L419.9996911621336,144.13143217380187L420.2504138183836,143.8888574644693L421.2533044433836,144.2216300267027L421.5040270996336,144.87242088239068L421.7547497558836,145.89045205109178L422.0054724121336,145.74974155794885L422.75764038088363,146.05575693531213L423.00836303713356,146.7765859646284L423.25908569338367,146.34684021844774L423.7605310058836,146.85939249084402L424.5126989746336,146.82608568719604L425.0141442871336,146.5999928034671L425.2648669433836,146.04833615248177L425.76631225588363,146.02028084596859L426.0170349121336,145.9057976528387L426.76920288088365,145.73378862249857L427.5213708496336,149.06316942101276L427.7720935058837,150.56310406539268L429.5271520996336,149.75528161057574L429.7778747558836,148.41618857230506L430.0285974121336,147.71142929914254L430.27932006838364,147.04120647846545L430.7807653808836,146.17209260861125L431.0314880371336,145.4516473907566L431.53293334963365,145.51894261638424L431.78365600588364,145.5996366724845L432.03437866213363,145.72686716958884L432.78654663088366,145.01049800888467L433.03726928713365,144.91545959722797L433.2879919433836,144.21020078544527L433.5387145996337,143.5619988104573L434.0401599121336,143.28193921690007L435.5444958496336,142.48563154336424L435.79521850588367,142.94521017175973L436.54738647463364,143.43044516479682L438.3024450683837,144.19793433204347L439.0546130371336,143.85924092560026L440.80967163088366,143.79542350232293L441.06039428713365,143.73802913195996L441.31111694338364,143.69515415036446L441.8125622558837,143.55180928724468L442.06328491213367,143.33603705347284L442.31400756838366,143.30397036661432L443.0661755371337,143.58509568839852L443.3168981933837,144.00623722753966L443.8183435058837,143.7180883331991L444.31978881838364,143.75212386256226L444.57051147463363,143.8813332624032L445.57340209963365,143.3073570588981L445.82412475588364,143.2302174179521L446.82701538088367,142.5045102436321L447.0777380371337,141.66702130241995L447.3284606933837,140.9373152135093L447.5791833496337,140.567991014457L448.3313513183837,140.08135726974623L448.5820739746337,139.79101893231712L448.8327966308837,139.5644549516583L449.58496459963374,139.3180588599728L449.83568725588367,139.8495832500764L451.8414685058837,139.1770057048974L452.84435913088373,139.3581284647452L453.3458044433837,139.89510535937987L453.84724975588375,139.96350880835962L454.09797241213374,140.20133074772446L454.85014038088366,140.13625880180192L455.10086303713376,140.22310500079269L455.6023083496337,139.91559850955034L455.8530310058837,139.9666767001491L456.1037536621337,140.0554809405559L456.3544763183837,140.0060968395066L457.1066442871337,140.10232005227147L459.11242553713373,140.27147911237216L459.61387084963377,139.59996313639243L460.11531616213375,139.5177210179881L460.6167614746338,139.3714191222843L460.8674841308837,139.24995702168343L461.1182067871337,139.33182192282106L461.6196520996337,139.19599281648107L462.12109741213374,139.4449312029855L462.3718200683837,138.92836364921968L462.6225427246337,138.7944806469054L463.37471069338375,139.08212269133628L463.87615600588373,139.3306898735545L465.6312145996337,138.9411032572125L465.8819372558837,139.05964175677036L466.63410522463374,139.27134325653833L467.1355505371337,139.12072346579095L468.6398864746338,139.33215551049713L468.8906091308838,139.52144525958695L469.39205444338376,139.76111145531598L469.8934997558838,139.68324550376812L470.8963903808838,141.2807052355047L471.8992810058837,140.77413396021748L472.40072631838376,140.46349984575477L472.90217163088374,140.21908819055838L473.6543395996338,139.84082423709228L473.90506225588376,139.43947653409006L474.15578491213375,139.2398882993128L474.4065075683838,139.15868767676793L475.9108435058838,139.6399164001443L476.16156616213374,139.77187536146945L477.6659020996338,139.89324763982748L478.1673474121338,140.48063855360024L478.66879272463376,140.50819519420475L478.9195153808838,140.4570559378202L479.1702380371338,140.36235658010432L481.42674194338383,140.12371846616185L481.92818725588376,140.19978813815487L482.6803552246338,140.15654479783487L483.6832458496338,139.61944661014866L484.1846911621338,139.54369741275562L484.43541381838384,139.88582185006177L484.6861364746338,139.7317066233782L485.4383044433838,139.52471095577076L485.68902709963385,139.30089052829052L486.19047241213383,139.40543770421394L486.44119506838376,139.43732814295709L486.69191772463387,139.25772370613907L487.4440856933838,139.35888627990798L487.6948083496338,139.1793211642567L490.20203491213385,140.22848218491302L490.70348022463384,140.67521513217605L490.9542028808838,141.00249213838273L491.70637084963386,140.7951881588301L491.9570935058838,139.97725468499317L492.2078161621338,139.20487746013418L492.9599841308838,138.52546605268742L493.2107067871338,138.13703865767116L493.46142944338385,137.7997075176999L497.2222692871339,137.60039106778382L497.9744372558838,137.45535381363442L498.47588256838384,137.5532629803067L498.72660522463383,137.4769458821836L499.22805053713387,137.34975255155126L499.47877319338386,137.3593977142309L500.23094116213383,137.16648186140964L500.98310913088386,137.03713790493828L501.23383178713385,137.00196546724445L501.4845544433839,137.08478263485912L501.7352770996339,136.95062941472514L502.2367224121338,136.95550512905297L502.7381677246339,137.3073355810649L503.23961303713384,137.28938163036543L503.7410583496339,137.64490126623647L503.99178100588387,137.9566268817288L504.49322631838385,138.1272756528328L504.9946716308839,138.04703306351757L505.49611694338387,137.8618820719572L505.74683959963386,137.57080216119826L505.9975622558839,137.72399352700864L506.2482849121339,137.64619472420742L506.4990075683839,137.5065627870804L509.00623413088385,137.55906768088312L510.0091247558839,137.53900329373826L511.0120153808839,137.5153974705527L511.2627380371339,137.39958947107644L511.5134606933839,137.40027029548497L512.0149060058839,137.39765280296018L512.767073974634,137.44303589583046L513.5192419433839,137.41165595269615L514.0206872558839,137.43273647380835L514.5221325683839,137.5402292500945L514.7728552246339,137.58907710255082L515.274300537134,137.58123910532606L516.2771911621339,137.56834073911816L516.5279138183839,137.54564485769674L516.7786364746339,137.53130359942205L517.2800817871339,137.69291247495534L517.5308044433839,137.8412882032637L518.2829724121339,137.83822559684023L518.533695068384,137.9433353666059L518.784417724634,138.14280082830675L519.035140380884,137.9900653107244L519.2858630371339,137.9595020206335L519.5365856933839,137.96215026234248L520.790198974634,138.06414507446706L521.0409216308839,138.01940852591937L521.5423669433839,138.07329013678304L522.5452575683839,138.04513751483455L522.7959802246339,138.20726974551025L523.2974255371339,138.16736255454805L524.300316162134,138.05135755600435L524.801761474634,137.98891047030466L525.8046520996339,137.88480906458287L526.0553747558839,137.76003913978082L526.306097412134,137.62814312688474L526.5568200683839,137.6444594929617L527.0582653808839,137.6722063165162L527.810433349634,137.70848302584864L528.061156005884,137.76418132088068L528.5626013183839,137.76381984593587L528.8133239746339,137.57620870352855L529.0640466308839,137.81745652097578L530.568382568384,138.14664013035022L531.069827880884,138.33373592923587L531.320550537134,138.49757749947477L531.8219958496339,138.91599934878803L532.0727185058839,139.03355706146783L532.8248864746339,139.40781081410427L533.0756091308839,140.1063257104296L534.329222412134,139.70875097051078L534.579945068384,139.50852480655422L534.8306677246339,139.05607180690586L535.582835693384,138.91765513588996L536.084281005884,138.6578154187947L536.3350036621339,138.22080913117904L536.585726318384,138.1101035208654L536.836448974634,137.92966607181359L537.087171630884,138.07129755932468L537.337894287134,137.78375260624802L538.0900622558839,137.61576049545448L538.842230224634,137.54460102667903L540.095843505884,137.88039022488834L540.346566162134,137.8163045809815L540.597288818384,137.91372267819634L540.848011474634,138.12733195620046L541.8509020996339,138.39317065402145L542.853792724634,138.2064282963188L543.355238037134,138.26389924912013L543.605960693384,138.57025893996783L544.608851318384,138.60580948945167L545.611741943384,138.72198798931618L547.3668005371339,138.67201206486158L547.868245849634,138.7062272711528L548.620413818384,138.65394079735978L549.121859130884,138.6452790723742L549.372581787134,138.63374063610868L549.874027099634,138.63018076101807L550.1247497558841,138.589423629067L550.3754724121341,139.00189634871384L550.876917724634,138.79424557825226L551.127640380884,138.66439083426255L551.879808349634,138.84872005039207L556.1420935058841,138.6041890651078L556.3928161621341,138.38967517268122L556.6435388183841,138.39098303142748L556.894261474634,138.2774615390752L557.897152099634,138.75057642428496L558.649320068384,138.6371826261865L558.900042724634,138.64227656422491L559.6522106933841,138.50796389038933L559.902933349634,138.33861037187637L560.153656005884,138.45191884812184L561.156546630884,138.62921722860023L561.407269287134,138.60856526444002L561.6579919433841,138.59082240948732L562.1594372558841,138.53189456908834L562.410159912134,138.27271301057078L562.6608825683841,138.21737323659715L563.162327880884,138.11568269583344L563.663773193384,138.18300169836192L565.1681091308841,138.46324469694628L565.6695544433841,138.80039822001459L566.923167724634,138.93750024578327L567.1738903808841,139.17823156570677L569.430394287134,138.84751801197552L569.681116943384,138.5348601287692L572.439066162134,138.67555940497425L573.441956787134,138.45873925218473L573.692679443384,138.4618672757017L574.4448474121341,138.43169634872126L574.6955700683841,138.20701633771802L575.4477380371341,138.34429833133882L575.949183349634,138.04393299563495L576.1999060058841,137.93973596695253L576.4506286621341,137.6347747952299L578.2056872558841,137.93463291816602L578.4564099121342,138.08445144133074L578.7071325683842,138.3780289187254L578.957855224634,138.8058279588059L579.459300537134,138.5403894034949L579.7100231933841,138.36989484021498L580.2114685058841,138.39152089718647L580.4621911621341,138.50792247276192L580.7129138183841,138.5350716128205L580.9636364746341,138.66591129153588L582.2172497558842,138.77577598413293L582.7186950683841,138.9058673550181L583.9723083496341,138.62645708184075L584.2230310058842,138.64765687317106L584.975198974634,138.48278067750786L586.7302575683841,138.43990490594945L587.2317028808841,138.12903705314878L589.7389294433842,137.2767570719268L590.2403747558841,152.2349116185741L590.4910974121341,169.33307895483733L590.9925427246342,160.03265631588593L591.2432653808842,151.82359183308728L591.7447106933841,149.28586884821158L591.9954333496341,146.89172695387856L593.4997692871342,144.36412307328305L593.7504919433842,142.64380380931064L595.2548278808841,139.89546150303306L595.5055505371341,137.97425196558694L597.7620544433842,137.4452582778492L598.7649450683841,137.07845824979597L599.2663903808842,136.76750186766625L600.2692810058842,135.24071621661946L601.7736169433841,133.62399547948348L602.2750622558842,132.34837178132088L602.5257849121342,129.51979452809692L603.0272302246342,126.66248342711819L603.7793981933842,124.90759909638585L604.2808435058841,124.58732615854375L604.5315661621343,125.38416951420665L605.5344567871341,125.44102754044437L605.7851794433842,125.09206532280561L606.2866247558842,124.02613773519859L606.5373474121342,123.10773733598735L606.7880700683842,122.87838215589792L607.0387927246342,122.35332711265646L607.7909606933841,122.16112560702516L608.0416833496342,122.3831352934826L608.2924060058842,125.21385774250967L609.2952966308842,123.72462545242747L609.7967419433842,122.48052003646086L610.0474645996342,122.1741139282382L610.2981872558843,121.34207528870878L610.7996325683841,120.61684028179548L611.3010778808842,119.18052794060642L611.8025231933842,118.16385101597048L612.5546911621342,117.40442952867188L613.3068591308842,117.03880992584024L613.5575817871343,117.2361781966032L613.8083044433843,117.67116535774396L614.5604724121341,117.57173989483415L615.0619177246342,117.29978987331296L615.3126403808842,117.16487485009067L616.0648083496342,117.14093407572744L616.3155310058842,116.94973100735162L617.0676989746343,116.18692523429476L617.8198669433842,115.36112619329562L618.0705895996342,114.83050243912857L618.3213122558842,114.43396523819106L618.5720349121342,114.27459691805188L619.3242028808843,114.49899801556356L620.3270935058842,113.95918746563413L620.8285388183842,114.13324206821986L621.0792614746342,113.57354360879123L621.3299841308842,113.31370948001963L622.0821520996342,112.9147264448691L622.3328747558842,113.0541267417398L622.8343200683843,113.07132552236168L623.8372106933842,113.52058536401843L624.0879333496342,112.63496362178354L624.3386560058842,112.33794133161207L625.0908239746343,111.7268856772871L626.0937145996343,111.56984677922013L626.3444372558843,111.5806430540163L626.8458825683842,111.27155869992164L627.0966052246342,111.30220040661919L627.3473278808842,111.5845517479928L627.5980505371342,111.34684826696713L628.0994958496342,111.05361803049736L628.8516638183843,111.26878181446429L629.1023864746343,111.33793491060128L629.3531091308843,111.38828317527582L629.6038317871343,111.48330229343816L630.6067224121343,111.47789358216473L630.8574450683843,111.3688980887227L632.1110583496343,110.89401646261176L632.6125036621343,110.91108280221299L632.8632263183842,111.05043142615666L633.1139489746342,110.80240041906083L634.1168395996343,110.76411958887546L634.8690075683843,110.54391964612297L635.3704528808843,110.11327602609974L636.1226208496342,109.78340275961372L636.3733435058843,109.82780155184385L636.6240661621342,109.78491753179425L636.8747888183842,110.26840491718673L637.1255114746342,110.55796019761357L637.6269567871343,110.77362960304602L638.1284020996343,110.90276407925965L638.8805700683843,111.31862377162251L639.1312927246342,111.638484549407L639.6327380371343,112.3009534146693L639.8834606933843,112.16051334094284L640.1341833496343,112.21990452507586L640.8863513183843,112.31434850673185L641.3877966308843,112.32266387642309L641.6385192871343,111.84717797686959L641.8892419433844,111.85572455416116L642.1399645996343,111.93755789792914L643.8950231933843,115.28306754848222L644.1457458496343,120.09978606542128L644.8979138183843,122.32776507103497L646.1515270996342,124.40144609551022L647.1544177246343,127.00363393551953L647.6558630371343,130.81748197495193L648.6587536621344,132.23424457428354L648.9094763183843,135.07122293488976L649.4109216308843,135.59217794470666L650.4138122558843,136.47702946244468L650.6645349121343,136.53849550951367L650.9152575683844,138.40691198653602L651.4167028808844,140.00937980102375L651.6674255371342,140.09503437797935L651.9181481933842,141.42864877638758L652.9210388183843,141.9329328978403L653.9239294433843,143.39331238646753L654.4253747558844,149.74742153488967L654.6760974121344,150.81171582293194L655.1775427246343,151.61263531339506L656.6818786621344,156.33092286760228L656.9326013183844,159.2284870537673L657.6847692871343,160.3985852993054L658.4369372558843,161.9985550856138L659.4398278808843,164.22002084418435L659.9412731933843,165.75279762363058L660.9441638183844,166.96425827554836L661.9470544433843,167.88047170405855L662.1977770996343,168.96236551825356L662.4484997558844,169.00103195936393L663.4513903808844,168.98340763624722L663.7021130371344,168.33691627723448L664.4542810058844,167.66561166956015L664.7050036621343,166.8497888772716L664.9557263183843,165.23938406426282L665.7078942871344,158.45907179356587L666.4600622558844,153.2407409682209L666.7107849121344,149.51323711217572L667.2122302246344,146.854315593368L667.7136755371343,145.13980967733573L667.9643981933845,143.89581483083433L668.2151208496343,143.1716712186942L669.9701794433844,142.43897978465458L670.4716247558844,141.69233159428606L670.7223474121344,141.09380688869967L672.2266833496344,140.2974734163219L672.4774060058844,139.74326524652236L672.7281286621344,139.30580119038288L672.9788513183844,138.90299975170998L673.2295739746344,138.5721132763759L673.7310192871344,138.5883641814807L674.4831872558843,138.78899422846087L676.2382458496344,138.92158717731712L676.4889685058844,138.7865496689358L676.7396911621344,138.84794660291232L678.9961950683844,138.98172710226717L679.7483630371344,138.92310861275823L679.9990856933844,138.97542598684782L680.7512536621344,138.95411506100533L681.0019763183844,138.95462928236975L681.2526989746344,138.98263680488233L681.5034216308844,138.86075708998402L681.7541442871344,138.84070600518095L682.5063122558844,139.05565888853224L682.7570349121345,138.84604666677546L683.0077575683845,138.877291820398L683.2584802246345,139.2264795519988L684.2613708496344,138.66561282680752L684.5120935058844,138.64835140767448L684.7628161621344,139.04127061362757L685.5149841308844,142.21315464653213L686.0164294433845,145.4222207516029L686.5178747558845,148.43523169186685L687.0193200683844,151.07055036923038L687.2700427246344,152.99490689362563L687.5207653808844,154.45151316811246L688.0222106933844,150.4572581171838L688.2729333496344,156.45336472154304L689.5265466308845,152.23010843959545L690.2787145996344,149.45352753193183L690.7801599121344,147.7729538521251L691.5323278808844,146.70555602353855L692.2844958496345,146.08085052073196L692.5352185058845,145.77708172408427L693.0366638183845,145.66737704567558L693.5381091308844,145.65173716325154L695.0424450683844,145.69126199346812L695.2931677246345,145.7358657819518L695.7946130371345,145.77763729884526L696.2960583496344,145.72725732025106L697.5496716308845,145.69966763327847L698.5525622558845,145.74211994798057L698.8032849121345,145.82346775728942L699.0540075683845,145.8486543321667L699.3047302246345,145.8610807489233L702.3134020996345,145.5459366063229L702.8148474121346,145.4879789446571L703.3162927246345,145.40241840916806L703.8177380371345,150.13234672374475L704.0684606933845,153.72221101060893L704.8206286621346,152.43583701740386L705.0713513183845,151.604066958523L705.3220739746345,150.86000005017226L705.5727966308845,150.35460455773904L705.8235192871344,150.26742606247362L706.0742419433845,149.924948831883L706.3249645996344,149.66619210566859L706.8264099121344,149.56338221854998L707.0771325683845,149.44540268536525L707.3278552246345,149.33306734720045L707.8293005371345,149.54107349312403L709.0829138183846,148.48908671776223L709.8350817871345,146.3848472612747L710.3365270996345,146.0618342674376L710.5872497558846,146.0369662641588L711.0886950683845,146.10095279871362L711.8408630371346,146.60532342303716L712.5930310058844,147.8610604069967L713.0944763183845,148.49544364635966L713.8466442871346,147.57840996508315L714.0973669433845,146.70062955306992L714.5988122558845,145.6339547136373L714.8495349121346,144.9460559323165L715.6017028808845,145.23011723453044L716.1031481933845,145.65922286888326L716.3538708496345,146.11479450068367L718.3596520996346,146.78202159143052L718.6103747558845,147.26250265799203L719.1118200683844,147.60519468685104L720.3654333496345,147.91376366857372L721.6190466308844,148.0999065500203L721.8697692871345,148.27132380472037L722.1204919433845,148.38305583878582L722.6219372558845,148.46791395594448L722.8726599121346,148.48473676948126L723.3741052246346,148.51170879770177L723.8755505371346,147.96724706940537L724.6277185058846,150.81565883498274L724.8784411621344,151.55451015500878L725.8813317871346,153.36247353775795L727.1349450683846,153.71695428112386L727.6363903808846,153.34134050228226L729.1407263183846,151.46762037428329L729.3914489746345,150.06635365023894L729.6421716308846,149.0395257509551L729.8928942871346,148.42053758441415L730.1436169433845,147.9329847271583L730.8957849121346,148.50811698350628L731.3972302246345,149.07987299581131L732.1493981933845,148.1796853455488L732.4001208496346,147.53706020139288L733.1522888183846,147.05999666406737L733.6537341308846,146.68492261998927L734.1551794433846,146.47154297582838L734.4059020996347,146.33113819727606L734.6566247558845,146.16588884182667L735.6595153808846,146.0667073239899L736.6624060058846,145.9744402416092L736.9131286621347,145.94308497281415L737.1638513183846,145.91490750361598L738.1667419433846,145.87946813436287L738.4174645996345,145.88959571992442L738.9189099121346,145.82655718007055L739.1696325683846,145.857558013926L739.6710778808845,147.7670649008528L739.9218005371346,147.12887933496944L740.1725231933847,146.6618112296288L740.6739685058847,146.28774063660234L740.9246911621345,146.0246939424263L741.1754138183845,145.7840436733778L741.4261364746346,145.5409501719788L742.1783044433847,145.92146667808936L742.6797497558846,144.81235317152277L742.9304724121346,144.06190508456245L744.4348083496346,143.3222352506203L744.6855310058846,143.227687016928L744.9362536621346,143.1467366769549L745.9391442871347,142.56726865548725L746.4405895996347,142.56398588184888L746.9420349121345,142.71118705070657L747.9449255371347,143.5448410162228L749.6999841308847,143.15445108279857L750.4521520996346,142.51563395079378L750.9535974121346,141.77961415461857L751.4550427246346,140.87084533152446L751.7057653808847,140.17273181169963L752.2072106933846,139.67702713131413L752.7086560058846,139.41701746250075L753.2101013183845,139.40597397206753L753.4608239746346,139.2534506489575L753.7115466308846,139.11070782957887L754.4637145996346,139.03317334336182L754.7144372558846,139.12581228415524L755.4666052246347,139.14888249712843L755.7173278808847,139.01205407072544L756.4694958496345,138.72248001944018L757.2216638183846,138.48710315581235L758.2245544433847,138.43761738542446L759.7288903808846,138.00193769001817L759.9796130371346,137.66915578852993L760.7317810058847,137.51463528995114L760.9825036621346,137.48865852104052L761.4839489746347,137.39134415745352L761.9853942871347,137.3389187200416L762.2361169433846,137.2566278258324L762.7375622558848,137.2973790416563L762.9882849121346,137.295708830232L763.4897302246346,137.23189183606718L763.7404528808846,137.2692096719891L763.9911755371347,137.21494629659378L764.2418981933846,137.1659700876783L764.7433435058847,137.1349577965182L765.2447888183847,137.1545466464724L765.4955114746347,137.1657643648357L766.4984020996347,137.26717819436527L766.7491247558846,137.4497572514242L767.2505700683847,137.32736578871814L768.0027380371346,137.25664357795853L768.5041833496348,137.21991620197628L769.2563513183846,137.22183790524298L770.7606872558847,137.0572052725493L772.2650231933848,137.56151903042775L773.2679138183846,138.0707601399659L774.0200817871347,138.30249825508193L775.2736950683847,138.8034910199021L775.7751403808846,139.05448060463314L776.5273083496347,138.81217253501853L778.0316442871348,144.1314337557192L778.2823669433847,142.29696586643638L778.7838122558848,140.919014172584L779.5359802246348,140.32493493345893L780.2881481933847,139.66261827102028L780.5388708496347,139.30908852951802L780.7895935058848,139.07308098712775L783.0460974121347,139.00435225680542L783.2968200683848,138.84995357982046L783.5475427246347,138.72620659584456L783.7982653808847,138.67499200186904L784.2997106933847,138.66785083202467L784.8011560058846,138.8175369026994L785.5533239746347,138.9233349194003L785.8040466308847,138.6763963002917L786.8069372558847,138.45992009507754L787.3083825683847,138.2915939216206L787.5591052246348,138.191821852674L787.8098278808848,138.3522871089773L788.0605505371346,138.46535107408005L790.0663317871347,138.0932891710504L792.3228356933848,137.71180732160576L792.8242810058848,137.39528082157506L793.5764489746348,137.29661552520392L794.8300622558847,137.18252523380633L795.5822302246348,136.9669073385264L795.8329528808847,136.88856204941592L796.5851208496348,136.90438839954123L796.8358435058848,137.03073079430754L797.5880114746349,137.09896063880313L798.3401794433847,137.04598510013167L798.8416247558848,137.15294228624845L799.3430700683848,137.07925634892132L800.0952380371349,136.9524639963283L800.8474060058847,136.8349140207872L801.0981286621347,136.80690681191817L801.3488513183848,136.8035471268262L801.8502966308848,136.67379486908857L803.8560778808849,136.4944103318048L804.3575231933847,136.4310046627712L804.6082458496348,136.4073614280656" fill="none"></path></g></g></g></g><g opacity="0.2"><g><g><g><path stroke="rgb(255, 112, 67)" stroke-width="2px" d="M203.37531616213295,226.8512507396505L203.62603881838294,237.91353908082604L204.62892944338293,245.20035098157186L204.87965209963292,213.2715151106554L205.63182006838295,225.59222168691613L205.88254272463294,241.39786887042123L206.63471069338297,283.50302718451957L206.88543334963293,211.82272258579744L207.13615600588292,243.86065216232467L208.13904663088294,211.56421702604956L210.39555053713295,248.47974726619543L211.14771850588298,584.5601358049054L212.15060913088294,224.20990369375207L212.65205444338295,265.8446236422609L213.15349975588296,201.29097957709703L213.40422241213295,273.8920541287667L213.90566772463296,233.4117962718771L214.40711303713297,233.31150503430612L214.657835693383,228.50557503608167L215.41000366213297,540.9954831060414L215.66072631838296,239.4235723505349L215.91144897463298,235.326366539988L216.16217163088297,582.81276222536L216.41289428713299,213.3325299366497L217.91723022463296,264.53118998192707L218.41867553713297,251.6242281566429L218.669398193383,232.24723477063424L218.92012084963298,275.75278040273685L219.170843505883,262.21011638462596L219.923011474633,245.79643370085452L220.17373413088296,240.21133466853914L220.42445678713298,221.05644043691606L220.67517944338297,204.5704302495935L221.928792724633,229.2390247875021L223.182406005883,547.0184463517801L223.934573974633,233.15660837237428L224.18529663088302,548.2963772821779L225.689632568383,194.07195588435908L227.69541381838303,239.54927527578343L228.447581787133,228.83650014039628L228.69830444338302,262.41659785213307L230.45336303713304,238.09139579247375L231.20553100588302,237.46739117599648L231.70697631838303,241.5644547413374L233.211312255883,269.38734090522263L233.46203491213302,229.6968116971257L233.712757568383,246.6769482605136L234.46492553713304,227.96609335772584L234.71564819338303,246.11328071346105L236.47070678713303,241.4634439103715L236.97215209963304,233.45284656484588L237.47359741213305,206.6561005820687L237.72432006838304,216.72076472224987L237.97504272463306,264.1896927118632L239.73010131838305,222.5715024930241L240.98371459963303,212.1327501958827L241.48515991213304,249.47714554833325L241.73588256838306,210.27688536101044L241.98660522463305,200.630706616781L242.73877319338305,254.61538544978927L243.49094116213308,214.5322301874487L243.9923864746331,227.56553922509087L244.24310913088306,259.2488389520975L244.99527709963306,244.71428237805623L246.49961303713306,209.30707428146502L246.75033569338305,232.8159227367209L247.25178100588306,207.75752194659285L248.0039489746331,228.99737110097865L248.50539428713304,257.87472516037167L248.7561169433831,240.03707592386584L249.25756225588307,230.8643352455987L249.75900756838308,231.92505774648652L250.00973022463307,233.32364608100357L251.76478881838307,214.82496663764405L253.7705700683831,236.20533313711155L254.02129272463307,587.4181264831725L254.27201538088312,258.9421833901302L255.27490600588308,242.96649879762296L257.78213256838313,196.8253335810033L258.03285522463307,213.96655447278252L258.5343005371331,255.91595847003074L259.0357458496331,243.23055610408602L259.5371911621331,573.5304090648485L260.2893591308831,228.81661091365623L260.54008178713315,217.79867379096436L260.7908044433831,236.83965471470387L261.5429724121331,222.0198755842883L264.05019897463313,243.91682228395106L264.5516442871331,233.51453078004477L266.0559802246331,236.70660524293538L266.80814819338315,232.3007608049027L267.05887084963314,210.76335978173137L267.30959350588313,259.260394283241L267.5603161621331,249.32241623370257L268.06176147463316,243.88048281750935L269.0646520996331,212.24721993354245L269.56609741213316,234.79739008846096L270.06754272463314,220.19284887308444L270.5689880371331,242.14875621062012L271.82260131838314,224.92730483899356L272.3240466308832,229.94242733100353L273.32693725588314,261.6650662248248L275.08199584963313,194.09187021319428L275.3327185058832,270.8444338562169L276.58633178713313,224.29533030729965L276.8370544433832,201.8031585432725L277.0877770996332,239.00644246772237L277.58922241213315,255.74218503253076L277.83994506838314,221.70958858588628L278.0906677246332,546.2954390719506L279.09355834963316,236.9157810019908L279.34428100588315,230.90436472003051L279.8457263183832,217.8160109713621L280.59789428713316,231.67463924506606L281.6007849121332,252.63951586527216L281.85150756838317,239.7731106584184L282.10223022463316,226.57173054256248L282.35295288088315,252.92032463657898L282.8543981933832,238.98641936314138L283.60656616213316,237.08636647340415L283.8572888183832,208.71959739714327L284.10801147463314,551.7891162736552L284.8601794433832,232.53366641125925L285.6123474121332,241.68206642457608L287.1166833496332,253.05167553324094L287.6181286621332,182.11983173885116L288.3702966308832,212.82798619108863L288.6210192871332,203.23964267413186L289.1224645996332,249.2603471197111L289.37318725588324,233.88676138196237L290.6268005371332,240.46000439066273L290.8775231933832,237.7408366660533L291.8804138183832,217.48371361917816L292.3818591308832,239.0150190169056L293.1340270996332,229.64101392324432L294.13691772463324,227.32498584707238L295.1398083496332,584.0482538801896L295.64125366213324,186.3605043906623L296.6441442871332,239.77369637397234L296.89486694338325,232.87026040539982L297.1455895996332,248.85670542937012L297.6470349121332,254.13709849577646L297.8977575683832,253.1022395202793L298.90064819338323,221.89140306120586L299.1513708496332,246.6550508661599L300.15426147463324,288.9921860090935L300.40498413088324,234.02704025713996L300.6557067871332,224.93696496195165L303.16293334963325,211.73864730170652L304.41654663088326,205.0034706770616L306.17160522463325,216.5559736511384L306.42232788088324,552.0885005953882L307.67594116213326,233.080724738674L307.92666381838325,214.3469850924558L308.42810913088323,237.72862031307037L308.92955444338327,231.39973783348933L309.9324450683833,231.1722542796896L312.18894897463326,193.44824621750004L312.43967163088325,228.41964219694813L312.6903942871333,223.6264389609751L312.9411169433833,268.8849057356558L313.69328491213327,573.2317945407009L315.19762084963327,250.7853579728716L316.95267944338326,223.13799820946585L317.2034020996333,218.74931942084717L317.4541247558833,216.67320880294946L317.7048474121333,244.27698714545673L318.20629272463333,623.2438701799058L318.4570153808833,184.3586206681836L319.2091833496333,257.12838966676367L319.4599060058833,197.5528425032334L320.7135192871333,244.542542210265L320.9642419433833,270.5937224970195L321.9671325683833,215.9930549832584L323.7221911621333,198.08010364492375L324.47435913088333,235.79974185071237L324.7250817871333,549.5819392495075L325.2265270996333,235.6294910739013L325.72797241213334,248.17909110497385L326.4801403808833,246.16862246594684L329.2380895996333,148.6051239391128L329.9902575683833,148.62969366068154L330.24098022463335,148.69309109387578L330.49170288088334,148.6370171969475L330.9931481933833,148.5463316944617L331.49459350588336,148.64383555354817L331.7453161621333,148.64272687767814L332.24676147463333,148.6606100286458L333.50037475588334,148.78661731679836L333.75109741213333,148.69490053656932L335.25543334963334,148.59942053390594L335.7568786621334,148.61489283781665L336.00760131838337,148.69583663553504L336.25832397463336,148.7211792924509L336.50904663088335,148.67900672664388L336.75976928713334,148.8873028664477L337.0104919433834,149.16210282372307L337.51193725588337,148.68930486118754L337.76265991213336,148.62341604504766L338.01338256838335,148.586337112719L339.26699584963336,148.65442654586883L339.51771850588335,148.5912675825787L339.7684411621334,148.6178789412213L340.2698864746334,148.64693357046048L341.27277709963334,148.5452000083378L341.7742224121334,148.71886989969522L342.27566772463337,148.57812349799508L343.2785583496334,194.99703084662823L343.5292810058834,148.56949779054213L343.78000366213337,148.59192128297377L344.78289428713333,148.65429266802795L345.78578491213335,148.56781176648317L346.0365075683834,148.5901066106771L346.7886755371334,148.4876827409372L347.2901208496334,148.54910443005738L347.54084350588334,148.5553130149296L347.7915661621334,148.74969004296133L348.0422888183834,148.6298170793161L348.2930114746334,148.56379438533529L348.54373413088337,148.61532898672024L349.0451794433834,148.56578477229817L349.2959020996334,148.56340948654267L350.5495153808834,148.5934117198745L350.8002380371334,148.56163037554748L351.55240600588337,148.63608005206112L351.80312866213336,148.68699442251125L352.5552966308834,148.6419298861565L353.05674194338343,148.6775026927749L354.0596325683834,198.8254559731375L354.56107788088343,173.38248794723623L355.06252319338336,157.6517864681046L355.56396850588345,149.03518244685873L356.31613647463337,148.74825608577476L357.3190270996334,148.43739906062825L357.56974975588344,148.02361612383848L358.0711950683834,147.11994488138464L358.82336303713345,149.10250626610588L359.82625366213347,167.43125812212963L361.0798669433835,146.73566631970584L362.8349255371334,148.4549318281842L363.0856481933834,148.62606013240563L363.58709350588344,148.39034832099313L363.83781616213344,148.57231550072504L364.0885388183834,148.53221699553148L364.3392614746335,148.37984727784684L364.58998413088347,147.9288944136334L364.84070678713346,147.681793572458L365.5928747558835,146.9492788740826L366.5957653808834,147.90727628008847L366.84648803713344,147.98284822944038L367.84937866213346,147.96411892868133L368.60154663088343,148.28354413564603L369.1029919433835,158.50086405280476L369.60443725588345,156.18113420203568L370.3566052246335,156.23058846728335L370.6073278808835,153.89220357612012L370.8580505371334,157.06541459893066L371.1087731933834,157.26396380436393L371.3594958496335,154.47460408465395L371.86094116213343,154.1000363730839L372.1116638183834,157.5223595424454L372.36238647463347,158.19775716880207L372.86383178713345,155.24839394893397L373.11455444338344,155.65398000572995L373.36527709963343,158.30480439995605L373.6159997558835,152.93273926642775L374.11744506838346,153.98502118781445L374.6188903808835,160.24390660575276L374.8696130371335,157.1513296574134L376.6246716308834,163.31493523574935L377.37683959963346,164.13269403452196L377.62756225588345,166.87147930798724L377.87828491213344,167.6361816908552L378.3797302246335,167.0710754799732L379.1318981933835,166.3542825375793L379.6333435058835,167.24242447344798L380.13478881838347,169.41032090233654L381.13767944338343,169.3326633872442L382.14057006838345,170.4065435696838L382.8927380371335,169.90886315531063L383.1434606933835,169.23217970027684L383.39418334963347,144.70247923862894L383.6449060058835,146.3731502286192L383.8956286621335,148.2510536571304L385.1492419433835,142.722268037568L386.65357788088346,162.63516945261276L387.15502319338356,159.13516255477313L387.4057458496335,159.13007133998624L387.6564685058835,158.0861888149757L387.9071911621335,158.5591356904612L388.4086364746335,144.04790968351972L389.1608044433835,157.98399073335227L389.41152709963353,160.50240360202545L390.1636950683835,161.45862810718987L390.41441772463355,162.61034138864792L390.66514038088354,159.2609216982557L391.1665856933835,159.65743981928148L391.66803100588356,159.60130349396545L393.1723669433835,159.96586905223106L393.92453491213354,143.4195634504986L394.17525756838353,146.02532932241357L394.92742553713356,141.974471392837L395.17814819338355,142.6443438127145L395.42887084963354,143.44063456755293L395.9303161621335,142.55295649748456L396.18103881838357,141.99879950673972L396.43176147463356,141.21253703892185L397.6853747558835,141.49847918869105L398.68826538088354,141.5151386125192L398.9389880371335,141.55485431076139L399.4404333496335,140.86378317151244L399.94187866213355,140.60675235985582L400.44332397463353,140.9942826887798L400.6940466308836,141.9210896956158L400.94476928713357,144.0680729414654L401.19549194338356,143.21564658038142L401.44621459963355,143.1955732716101L402.1983825683836,143.0637412514574L402.6998278808835,143.91189816452115L403.20127319338354,142.47474882813972L403.9534411621335,142.35387491844958L404.45488647463355,142.8710282831513L404.70560913088354,144.1772419533617L404.95633178713354,144.90857162366092L405.95922241213356,150.55196295056524L406.4606677246336,149.06755892002545L406.7113903808836,149.12269462614674L407.2128356933835,149.93496181864055L407.96500366213354,150.81795311835643L408.96789428713356,146.30586615435604L409.7200622558836,142.73952049839454L410.47223022463356,141.88453686136506L410.72295288088355,142.56579517324363L411.2243981933836,142.35526808473153L411.7258435058836,143.42240103317351L412.2272888183836,143.54194557774028L413.48090209963357,143.53559893134465L413.98234741213355,143.61535874690753L414.2330700683836,145.43535373370176L414.4837927246336,145.72697104882073L414.7345153808836,146.29723835506186L415.4866833496336,145.7950385176373L416.9910192871336,144.69372802070012L417.49246459963354,143.49825433517546L417.74318725588364,146.0680311240604L417.99390991213363,146.14441470782285L418.49535522463356,142.58834208430983L419.4982458496336,144.15430177613783L419.9996911621336,143.31820223612095L420.2504138183836,143.28029284281038L421.2533044433836,145.05648048984963L421.5040270996336,146.5051067133271L421.7547497558836,148.44446007081558L422.0054724121336,145.3967310225201L422.75764038088363,146.82347972413586L423.00836303713356,148.58498159957978L423.25908569338367,145.26870615346826L423.7605310058836,148.14526924439957L424.5126989746336,146.74252651313176L425.0141442871336,146.03277732323477L425.2648669433836,144.6643554315888L425.76631225588363,145.94989648050574L426.0170349121336,145.61858543147787L426.76920288088365,145.3022571955048L427.5213708496336,157.41582651202214L427.7720935058837,154.3260979977843L429.5271520996336,147.7286393116492L429.7778747558836,145.05670954646806L430.0285974121336,145.94334901734877L430.27932006838364,145.3597702792229L430.7807653808836,143.99168412809982L431.0314880371336,143.64421465122658L431.53293334963365,145.68777098945014L431.78365600588364,145.80207965533262L432.03437866213363,146.04605946934186L432.78654663088366,143.21329116711792L433.03726928713365,144.6770298978086L433.2879919433836,142.44086727518342L433.5387145996337,141.93580789075074L434.0401599121336,142.57933356990554L435.5444958496336,140.4878772044936L435.79521850588367,144.09818813422552L436.54738647463364,144.64778909469695L438.3024450683837,146.12338961127634L439.0546130371336,143.0095364146987L440.80967163088366,143.6353201421712L441.06039428713365,143.59403974666338L441.31111694338364,143.58759060004581L441.8125622558837,143.19218971836526L442.06328491213367,142.7947137301506L442.31400756838366,143.22352236274114L443.0661755371337,144.2903750044537L443.3168981933837,145.06278529941994L443.8183435058837,142.99518847546753L444.31978881838364,143.83751124324542L444.57051147463363,144.20549017779354L445.57340209963365,141.86738167115735L445.82412475588364,143.03669165206998L446.82701538088367,140.6838764554258L447.0777380371337,139.56595255516834L447.3284606933837,139.1066490606282L447.5791833496337,139.64144083086967L448.3313513183837,138.8605041909105L448.5820739746337,139.062626261223L448.8327966308837,138.9960575966722L449.58496459963374,138.69990726153372L449.83568725588367,141.18305671998542L451.8414685058837,137.48966203892184L452.84435913088373,139.81252416050393L453.3458044433837,141.2422579196037L453.84724975588375,140.1351174610632L454.09797241213374,140.7979717534993L454.85014038088366,139.9730081304524L455.10086303713376,140.44098230703267L455.6023083496337,139.1441348560827L455.8530310058837,140.09482023094955L456.1037536621337,140.27827052613776L456.3544763183837,139.88220339301455L457.1066442871337,140.3437221474535L459.11242553713373,140.69586061402842L459.61387084963377,137.91528270542577L460.11531616213375,139.311394299886L460.6167614746338,139.0043810330625L460.8674841308837,138.94523631315838L461.1182067871337,139.53720228883307L461.6196520996337,138.85522856724216L462.12109741213374,140.06946083930364L462.3718200683837,137.6324134704737L462.6225427246337,138.45859872881886L463.37471069338375,139.8037509782418L463.87615600588373,139.95428824297903L465.6312145996337,137.96371928989842L465.8819372558837,139.35702781706465L466.63410522463374,139.80245403665802L467.1355505371337,138.74285276268785L468.6398864746338,139.86259028932136L468.8906091308838,139.99633006870704L469.39205444338376,140.36237927968892L469.8934997558838,139.48789759023578L470.8963903808838,145.2883673695105L471.8992810058837,139.50326216432134L472.40072631838376,139.68418969894492L472.90217163088374,139.60591509067967L473.6543395996338,138.89184624857208L473.90506225588376,138.43258668269848L474.15578491213375,138.7391669383803L474.4065075683838,138.95497383424325L475.9108435058838,140.84720951317613L476.16156616213374,140.10293029953087L477.6659020996338,140.19774300483095L478.1673474121338,141.95426838990733L478.66879272463376,140.57732852063353L478.9195153808838,140.32875920689062L479.1702380371338,140.12477748969422L481.42674194338383,139.52502986451665L481.92818725588376,140.390629595962L482.6803552246338,140.04805711948828L483.6832458496338,138.27198975332172L484.1846911621338,139.35365995262924L484.43541381838384,140.74413403488245L484.6861364746338,139.34506666871587L485.4383044433838,139.00540603528196L485.68902709963385,138.7393761225067L486.19047241213383,139.66772272451314L486.44119506838376,139.51733398050564L486.69191772463387,138.80713713657812L487.4440856933838,139.6126801053281L487.6948083496338,138.72883324253513L490.20203491213385,142.86058790340164L490.70348022463384,141.79596621039735L490.9542028808838,141.82355550483098L491.70637084963386,140.27510975398755L491.9570935058838,137.92524614536714L492.2078161621338,137.2671591591722L492.9599841308838,136.82097778488242L493.2107067871338,137.16256291227944L493.46142944338385,136.95342062268426L497.2222692871339,137.100351553082L497.9744372558838,137.09148842164558L498.47588256838384,137.79889474932668L498.72660522463383,137.28548368864662L499.22805053713387,137.03065349399998L499.47877319338386,137.38359522762036L500.23094116213383,136.68249998503336L500.98310913088386,136.71264341765053L501.23383178713385,136.91372584285472L501.4845544433839,137.29255202027838L501.7352770996339,136.6140695817574L502.2367224121338,136.96773718429648L502.7381677246339,138.18999794312995L503.23961303713384,137.244339262821L503.7410583496339,138.5368189492113L503.99178100588387,138.7386753556832L504.49322631838385,138.5553944996374L504.9946716308839,137.84572270786714L505.49611694338387,137.39738046155145L505.74683959963386,136.84054905175034L505.9975622558839,138.10831572544527L506.2482849121339,137.45101527156567L506.4990075683839,137.15625810270913L509.00623413088385,137.69079048463385L510.0091247558839,137.48866632248007L511.0120153808839,137.45617584396447L511.2627380371339,137.10905361274112L511.5134606933839,137.40197832865016L512.0149060058839,137.39108611118746L512.767073974634,137.5568917253121L513.5192419433839,137.3329308322013L514.0206872558839,137.48562269344066L514.5221325683839,137.8099041099002L514.7728552246339,137.71162522362533L515.274300537134,137.56157535790265L516.2771911621339,137.53598168003512L516.5279138183839,137.48870606746408L516.7786364746339,137.49532465322403L517.2800817871339,138.0983522855039L517.5308044433839,138.213529065511L518.2829724121339,137.8305422158128L518.533695068384,138.20703180654436L518.784417724634,138.64321417959124L519.035140380884,137.6068867315266L519.2858630371339,137.88282569637036L519.5365856933839,137.96879409680537L520.790198974634,138.3200267961129L521.0409216308839,137.9071747286857L521.5423669433839,138.2084668096516L522.5452575683839,137.97450900713918L522.7959802246339,138.61402253474927L523.2974255371339,138.06724451406393L524.300316162134,137.76032747193855L524.801761474634,137.8322449746019L525.8046520996339,137.62364238005287L526.0553747558839,137.447019854751L526.306097412134,137.29724611207524L526.5568200683839,137.68539353417222L527.0582653808839,137.74181676859158L527.810433349634,137.79949301592825L528.061156005884,137.90391563999606L528.5626013183839,137.7629129877411L528.8133239746339,137.1055351357347L529.0640466308839,138.4226922735188L530.568382568384,138.97248672930715L531.069827880884,138.80311661766828L531.320550537134,138.90861863182846L531.8219958496339,139.96572433917046L532.0727185058839,139.3284825511733L532.8248864746339,140.34672812335012L533.0756091308839,141.8587402748949L534.329222412134,138.71132662299502L534.579945068384,139.00620302680363L534.8306677246339,137.92097042182314L535.582835693384,138.57039927702553L536.084281005884,138.0059368302926L536.3350036621339,137.12446002365195L536.585726318384,137.83236839323646L536.836448974634,137.4769896645433L537.087171630884,138.4266186595717L537.337894287134,137.06236789940658L538.0900622558839,137.19430660346376L538.842230224634,137.36607814887392L540.095843505884,138.72280873969422L540.346566162134,137.65552831644314L540.597288818384,138.158122465946L540.848011474634,138.66322891680716L541.8509020996339,139.06009931697582L542.853792724634,137.73793431120524L543.355238037134,138.40808076228834L543.605960693384,139.33884553279614L544.608851318384,138.6949977100866L545.611741943384,139.01345334862535L547.3668005371339,138.5466338684229L547.868245849634,138.7920654202695L548.620413818384,138.52276595959836L549.121859130884,138.62354877986647L549.372581787134,138.6047933310916L549.874027099634,138.62124984631708L550.1247497558841,138.48717328048792L550.3754724121341,140.03669632958236L550.876917724634,138.27329715411184L551.127640380884,138.33861489758664L551.879808349634,139.31116001366442L556.1420935058841,137.99071659325426L556.3928161621341,137.85150874080398L556.6435388183841,138.39426415073828L556.894261474634,137.99266200562997L557.897152099634,139.9375137678814L558.649320068384,138.35270344850105L558.900042724634,138.65505609298788L559.6522106933841,138.17100402445095L559.902933349634,137.91374101841402L560.153656005884,138.73618397273756L561.156546630884,139.07401842874785L561.407269287134,138.55675419645917L561.6579919433841,138.546309633027L562.1594372558841,138.3840580572102L562.410159912134,137.62248559183377L562.6608825683841,138.07853836504933L563.162327880884,137.86056432163667L563.663773193384,138.35188972224927L565.1681091308841,139.16631046532459L565.6695544433841,139.64623951472973L566.923167724634,139.28145795955396L567.1738903808841,139.78217154376028L569.430394287134,138.01783313156213L569.681116943384,137.75047280774288L572.439066162134,139.02854179966403L573.441956787134,137.91478693904617L573.692679443384,138.46971477329683L574.4448474121341,138.35600437401598L574.6955700683841,137.64334543292043L575.4477380371341,138.68870754340517L575.949183349634,137.29038487272865L576.1999060058841,137.678329386223L576.4506286621341,136.86969676792575L578.2056872558841,138.68690855991795L578.4564099121342,138.46031194681424L578.7071325683842,139.11454785324182L578.957855224634,139.87907818216584L579.459300537134,137.87446460683734L579.7100231933841,137.9421628656708L580.2114685058841,138.4457757418693L580.4621911621341,138.79994747815306L580.7129138183841,138.60318261331818L580.9636364746341,138.9941582048043L582.2172497558842,139.05140144099929L582.7186950683841,139.23223693460722L583.9723083496341,137.92548043158877L584.2230310058842,138.7008423145788L584.975198974634,138.0691439059318L586.7302575683841,138.33233937379399L587.2317028808841,137.34914051015767L589.7389294433842,135.1385809786857L590.2403747558841,189.76150986718042L590.4910974121341,212.2284812194977L590.9925427246342,136.70001706377982L591.2432653808842,131.2289212885223L591.7447106933841,142.91930065808472L591.9954333496341,140.88537097335902L593.4997692871342,138.0229414079293L593.7504919433842,138.32791512952022L595.2548278808841,133.0004974714946L595.5055505371341,133.15437540673076L597.7620544433842,136.11813376299855L598.7649450683841,136.15824063555715L599.2663903808842,135.98738322477942L600.2692810058842,131.41035923241435L601.7736169433841,129.56801187579148L602.2750622558842,129.14812285435144L602.5257849121342,122.42353931386847L603.0272302246342,119.49414154220652L603.7793981933842,120.50499454735565L604.2808435058841,123.78383440220301L604.5315661621343,127.38326775736103L605.5344567871341,125.5836713606547L605.7851794433842,124.21659870662418L606.2866247558842,121.35196852418449L606.5373474121342,120.80368019410638L606.7880700683842,122.30298231812984L607.0387927246342,121.03608375855951L607.7909606933841,121.67893586482727L608.0416833496342,122.9401069630162L608.2924060058842,132.31549476375315L609.2952966308842,119.98848128608081L609.7967419433842,119.35934329114116L610.0474645996342,121.40541088480241L610.2981872558843,119.25468010532796L610.7996325683841,118.79739105392527L611.3010778808842,115.57714785657083L611.8025231933842,115.61324048574342L612.5546911621342,115.4992142184316L613.3068591308842,116.12155372926259L613.5575817871343,117.7313301741312L613.8083044433843,118.76244893744797L614.5604724121341,117.32230408437621L615.0619177246342,116.6175292930055L615.3126403808842,116.82640382691883L616.0648083496342,117.08087213302683L616.3155310058842,116.47004611651401L617.0676989746343,114.27321952294157L617.8198669433842,113.28938473956086L618.0705895996342,113.49928845937622L618.3213122558842,113.43914383934779L618.5720349121342,113.87477814998344L619.3242028808843,115.06196919002252L620.3270935058842,112.60492591054808L620.8285388183842,114.56990536944367L621.0792614746342,112.16938782461058L621.3299841308842,112.66184491134709L622.0821520996342,111.9137690058073L622.3328747558842,113.40385029353816L622.8343200683843,113.11447334041314L623.8372106933842,114.64767584396427L624.0879333496342,110.41314065442234L624.3386560058842,111.59278014749763L625.0908239746343,110.19388640415602L626.0937145996343,111.17587199985914L626.3444372558843,111.60772844517163L626.8458825683842,110.49613654842094L627.0966052246342,111.37907346026398L627.3473278808842,112.29290686757933L627.5980505371342,110.75050444614823L628.0994958496342,110.31797024426608L628.8516638183843,111.80857867599552L629.1023864746343,111.5114242570502L629.3531091308843,111.51459548840673L629.6038317871343,111.72168358988047L630.6067224121343,111.46432435914538L630.8574450683843,111.09545325429806L632.1110583496343,109.70264676903528L632.6125036621343,110.95389835594932L632.8632263183842,111.40002534236626L633.1139489746342,110.1801471907327L634.1168395996343,110.66808171665603L634.8690075683843,109.99148821079665L635.3704528808843,109.03288940042732L636.1226208496342,108.95582596825399L636.3733435058843,109.939187995509L636.6240661621342,109.67733130605586L636.8747888183842,111.48136449808356L637.1255114746342,111.28438835728102L637.6269567871343,111.31469495351682L638.1284020996343,111.22673302835703L638.8805700683843,112.36192089456797L639.1312927246342,112.44094229016453L639.6327380371343,113.96293670822209L639.8834606933843,111.80818122615531L640.1341833496343,112.36890346070788L640.8863513183843,112.55128691685135L641.3877966308843,112.34352524249056L641.6385192871343,110.65429229904238L641.8892419433844,111.87716596736624L642.1399645996343,112.14285909369792L643.8950231933843,123.67618825074703L644.1457458496343,132.1838342745841L644.8979138183843,127.91725626055707L646.1515270996342,129.6038388411235L647.1544177246343,133.5319297446658L647.6558630371343,140.38555688089633L648.6587536621344,135.78857881471194L648.9094763183843,142.18855461149823L649.4109216308843,136.89913525003692L650.4138122558843,138.69692011220843L650.6645349121343,136.6926998030376L650.9152575683844,143.09434279731147L651.4167028808844,144.02960607245797L651.6674255371342,140.30992217630646L651.9181481933842,144.77438314432405L652.9210388183843,143.19806674639702L653.9239294433843,147.05707145442707L654.4253747558844,165.68843220549255L654.6760974121344,153.4817874578451L655.1775427246343,153.6219596491182L656.6818786621344,168.16803024043796L656.9326013183844,166.49781474888303L657.6847692871343,163.3340949328485L658.4369372558843,166.01251437407166L659.4398278808843,169.7931717823525L659.9412731933843,169.5981849825922L660.9441638183844,170.00353675316657L661.9470544433843,170.17904223523337L662.1977770996343,171.67659035035678L662.4484997558844,169.09803724144786L663.4513903808844,168.93919222912984L663.7021130371344,166.71501690286917L664.4542810058844,165.98146151346486L664.7050036621343,164.80307555626715L664.9557263183843,161.19924567373204L665.7078942871344,141.44881469339634L666.4600622558844,140.14913907305717L666.7107849121344,140.16178006981679L667.2122302246344,140.18368792337677L667.7136755371343,140.83850536167577L667.9643981933845,140.77491547908522L668.2151208496343,141.35496005139524L669.9701794433844,140.60082408171309L670.4716247558844,139.81916157283524L670.7223474121344,139.59224490801807L672.2266833496344,138.29965435404083L672.4774060058844,138.35288334684978L672.7281286621344,138.20830364603302L672.9788513183844,137.89246280907457L673.2295739746344,137.74199457509906L673.7310192871344,138.6291339960419L674.4831872558843,139.292329258604L676.2382458496344,139.25423264550037L676.4889685058844,138.44777135843535L676.7396911621344,139.0019775074499L678.9961950683844,139.31735186380646L679.7483630371344,138.7760481917095L679.9990856933844,139.10667834640586L680.7512536621344,138.90065080845312L681.0019763183844,138.95591934649468L681.2526989746344,139.05290129118572L681.5034216308844,138.55498868243217L681.7541442871344,138.7904024064645L682.5063122558844,139.59492664851882L682.7570349121345,138.32017740868392L683.0077575683845,138.95567878474927L683.2584802246345,140.10251193127806L684.2613708496344,137.25852613027484L684.5120935058844,138.6050464438846L684.7628161621344,140.02701528821163L685.5149841308844,150.17068827294182L686.0164294433845,153.473035716956L686.5178747558845,155.9941889630553L687.0193200683844,157.68196389314232L687.2700427246344,157.8226785250032L687.5207653808844,158.1058061023514L688.0222106933844,140.43658316485406L688.2729333496344,171.49622865879513L689.5265466308845,141.63492162699006L690.2787145996344,142.48771928989845L690.7801599121344,143.5567777782241L691.5323278808844,144.027698313225L692.2844958496345,144.51360689088392L692.5352185058845,145.0149950938979L693.0366638183845,145.3921530279134L693.5381091308844,145.61250026524027L695.0424450683844,145.79042077804655L695.2931677246345,145.84776651446347L695.7946130371345,145.88243250789384L696.2960583496344,145.60086544412877L697.5496716308845,145.63045140104902L698.5525622558845,145.84862312346118L698.8032849121345,146.02755085783616L699.0540075683845,145.91184170422733L699.3047302246345,145.89225579447054L702.3134020996345,144.75531182751834L702.8148474121346,145.34257638995172L703.3162927246345,145.1877665394324L703.8177380371345,161.99865810943706L704.0684606933845,162.72836176537356L704.8206286621346,149.20861805199456L705.0713513183845,149.51734558273407L705.3220739746345,148.9933058765906L705.5727966308845,149.08668253286282L705.8235192871344,150.04871510066732L706.0742419433845,149.0657515691732L706.3249645996344,149.0170304942886L706.8264099121344,149.3054556596384L707.0771325683845,149.1494189442176L707.3278552246345,149.05124360408527L707.8293005371345,150.06291347324813L709.0829138183846,145.84989182518788L709.8350817871345,141.10579037920954L710.3365270996345,145.25146833553055L710.5872497558846,145.9745781155821L711.0886950683845,146.26148042049155L711.8408630371346,147.87067428756805L712.5930310058844,151.01141810359704L713.0944763183845,150.08696651002455L713.8466442871346,145.277781606793L714.0973669433845,144.49847869486118L714.5988122558845,142.95791081821875L714.8495349121346,143.22027477917845L715.6017028808845,145.94276225587416L716.1031481933845,146.73575103927703L716.3538708496345,147.25771982256893L718.3596520996346,148.4559421875148L718.6103747558845,148.46792007059364L719.1118200683844,148.4649308294271L720.3654333496345,148.68789286833422L721.6190466308844,148.5668965859301L721.8697692871345,148.7013706015995L722.1204919433845,148.66336602951142L722.6219372558845,148.68080361828981L722.8726599121346,148.52694137186316L723.3741052246346,148.57937546499173L723.8755505371346,146.60131676859166L724.6277185058846,157.96167431704532L724.8784411621344,153.40811960700393L725.8813317871346,157.8982413225496L727.1349450683846,154.60626561974365L727.6363903808846,152.3990111974691L729.1407263183846,146.76688391281218L729.3914489746345,146.5508950267593L729.6421716308846,146.4634487404711L729.8928942871346,146.8676374473026L730.1436169433845,146.70982580456914L730.8957849121346,149.95099264416874L731.3972302246345,150.5142784301906L732.1493981933845,145.92131983699542L732.4001208496346,145.92486027833507L733.1522888183846,145.8631530528823L733.6537341308846,145.74394738660035L734.1551794433846,145.93622211416164L734.4059020996347,145.97889463003077L734.6566247558845,145.7513158974535L735.6595153808846,145.81788351608364L736.6624060058846,145.74296317528555L736.9131286621347,145.86442175460905L737.1638513183846,145.8442166598381L738.1667419433846,145.79055883956997L738.4174645996345,145.91500352229815L738.9189099121346,145.66840786078802L739.1696325683846,145.93533203570368L739.6710778808845,152.5575821785815L739.9218005371346,145.5278173012621L740.1725231933847,145.49004387763372L740.6739685058847,145.34928283304478L740.9246911621345,145.3647697798443L741.1754138183845,145.18030703348424L741.4261364746346,144.93108401934626L742.1783044433847,146.87609580745442L742.6797497558846,142.02984033925927L742.9304724121346,142.17920198920598L744.4348083496346,141.46657233388814L744.6855310058846,142.99048706222624L744.9362536621346,142.9436507363207L745.9391442871347,141.1135155489982L746.4405895996347,142.5557501514929L746.9420349121345,143.08048121117423L747.9449255371347,145.63628868409683L749.6999841308847,142.1750517761378L750.4521520996346,140.91298746172905L750.9535974121346,139.93310835017897L751.4550427246346,138.59095161744636L751.7057653808847,138.42132420933203L752.2072106933846,138.4334171436804L752.7086560058846,138.76471250389875L753.2101013183845,139.37826837326134L753.4608239746346,138.87080441729543L753.7115466308846,138.75259865113776L754.4637145996346,138.83865700074713L754.7144372558846,139.35822225842645L755.4666052246347,139.2067603998505L755.7173278808847,138.6687827553636L756.4694958496345,137.99600476797013L757.2216638183846,137.89659628741265L758.2245544433847,138.31346887374963L759.7288903808846,136.9089166997883L759.9796130371346,136.83428189532276L760.7317810058847,137.12697860053404L760.9825036621346,137.42348873237L761.4839489746347,137.14720461371766L761.9853942871347,137.20739525425387L762.2361169433846,137.05017874036005L762.7375622558848,137.39961454802165L762.9882849121346,137.2915186506939L763.4897302246346,137.0717895524606L763.7404528808846,137.36283161123185L763.9911755371347,137.0788118635845L764.2418981933846,137.043099949522L764.7433435058847,137.0571550309762L765.2447888183847,137.20369060337495L765.4955114746347,137.19390706178226L766.4984020996347,137.52160236318497L766.7491247558846,137.90780646474752L767.2505700683847,137.02031352263103L768.0027380371346,137.07921768078975L768.5041833496348,137.1277755920557L769.2563513183846,137.22665902045594L770.7606872558847,136.64417954491438L772.2650231933848,138.82672723001738L773.2679138183846,139.34832994108805L774.0200817871347,138.88387633335546L775.2736950683847,140.0603676053281L775.7751403808846,139.6841562294847L776.5273083496347,138.2042768515994L778.0316442871348,157.47624699361728L778.2823669433847,137.69470431963916L778.7838122558848,137.4620476423931L779.5359802246348,138.83452561425037L780.2881481933847,138.00101681963918L780.5388708496347,138.42216303767896L780.7895935058848,138.4809918895522L783.0460974121347,138.83192754740017L783.2968200683848,138.4626025129986L783.5475427246347,138.41575363604545L783.7982653808847,138.54650626610578L784.2997106933847,138.64993526557313L784.8011560058846,139.19306511509376L785.5533239746347,139.18875801393074L785.8040466308847,138.05688362428228L786.8069372558847,137.91683066796125L787.3083825683847,137.86930194259728L787.5591052246348,137.94151648672013L787.8098278808848,138.75485783970308L788.0605505371346,138.7490027760046L790.0663317871347,137.15987071257243L792.3228356933848,136.7547563659815L792.8242810058848,136.60118802325246L793.5764489746348,137.04908679922013L794.8300622558847,136.89629871328265L795.5822302246348,136.42597121528013L795.8329528808847,136.6920115872617L796.5851208496348,136.94409310248716L796.8358435058848,137.34769504784407L797.5880114746349,137.2701337574499L798.3401794433847,136.91308155574535L798.8416247558848,137.4212734724712L799.3430700683848,136.89439513773223L800.0952380371349,136.6343709012265L800.8474060058847,136.54000794179828L801.0981286621347,136.73664311247472L801.3488513183848,136.79511844317435L801.8502966308848,136.34827604704506L803.8560778808849,136.04437544002266L804.3575231933847,136.27193430010792L804.6082458496348,136.348045944506" style="fill: none;" fill="none"></path></g></g></g></g></g></g><g transform="translate(61, 377)" clip-path="url(#clip_1)"><clipPath id="clip_1"><rect width="1404" height="23"></rect></clipPath><g><g><line x1="76.76037475588255" y1="0" x2="76.76037475588255" y2="5" style="visibility: inherit;" fill="rgb(0, 0, 0)" stroke="rgb(204, 204, 204)" stroke-width="1px"></line><line x1="202.12170288088294" y1="0" x2="202.12170288088294" y2="5" style="visibility: inherit;" fill="rgb(0, 0, 0)" stroke="rgb(204, 204, 204)" stroke-width="1px"></line><line x1="327.48303100588333" y1="0" x2="327.48303100588333" y2="5" style="visibility: inherit;" fill="rgb(0, 0, 0)" stroke="rgb(204, 204, 204)" stroke-width="1px"></line><line x1="452.84435913088373" y1="0" x2="452.84435913088373" y2="5" style="visibility: inherit;" fill="rgb(0, 0, 0)" stroke="rgb(204, 204, 204)" stroke-width="1px"></line><line x1="578.2056872558841" y1="0" x2="578.2056872558841" y2="5" style="visibility: inherit;" fill="rgb(0, 0, 0)" stroke="rgb(204, 204, 204)" stroke-width="1px"></line><line x1="703.5670153808844" y1="0" x2="703.5670153808844" y2="5" style="visibility: inherit;" fill="rgb(0, 0, 0)" stroke="rgb(204, 204, 204)" stroke-width="1px"></line><line x1="828.9283435058849" y1="0" x2="828.9283435058849" y2="5" style="visibility: inherit;" fill="rgb(0, 0, 0)" stroke="rgb(204, 204, 204)" stroke-width="1px"></line><line x1="954.2896716308852" y1="0" x2="954.2896716308852" y2="5" style="visibility: inherit;" fill="rgb(0, 0, 0)" stroke="rgb(204, 204, 204)" stroke-width="1px"></line><line x1="1079.6509997558858" y1="0" x2="1079.6509997558858" y2="5" style="visibility: inherit;" fill="rgb(0, 0, 0)" stroke="rgb(204, 204, 204)" stroke-width="1px"></line><line x1="1205.012327880886" y1="0" x2="1205.012327880886" y2="5" style="visibility: inherit;" fill="rgb(0, 0, 0)" stroke="rgb(204, 204, 204)" stroke-width="1px"></line><line x1="1330.3736560058865" y1="0" x2="1330.3736560058865" y2="5" style="visibility: inherit;" fill="rgb(0, 0, 0)" stroke="rgb(204, 204, 204)" stroke-width="1px"></line></g><g transform="translate(0, 8)"><text x="76.76037475588255" y="0" dx="0em" dy="0.95em" style="text-anchor: middle; visibility: inherit; font-family: Roboto, sans-serif; font-size: 12px; font-weight: 200;" fill="rgb(33, 33, 33)" stroke="none" stroke-width="1px">-500</text><text x="202.12170288088294" y="0" dx="0em" dy="0.95em" style="text-anchor: middle; visibility: inherit; font-family: Roboto, sans-serif; font-size: 12px; font-weight: 200;" fill="rgb(33, 33, 33)" stroke="none" stroke-width="1px">0</text><text x="327.48303100588333" y="0" dx="0em" dy="0.95em" style="text-anchor: middle; visibility: inherit; font-family: Roboto, sans-serif; font-size: 12px; font-weight: 200;" fill="rgb(33, 33, 33)" stroke="none" stroke-width="1px">500</text><text x="452.84435913088373" y="0" dx="0em" dy="0.95em" style="text-anchor: middle; visibility: inherit; font-family: Roboto, sans-serif; font-size: 12px; font-weight: 200;" fill="rgb(33, 33, 33)" stroke="none" stroke-width="1px">1k</text><text x="578.2056872558841" y="0" dx="0em" dy="0.95em" style="text-anchor: middle; visibility: inherit; font-family: Roboto, sans-serif; font-size: 12px; font-weight: 200;" fill="rgb(33, 33, 33)" stroke="none" stroke-width="1px">1.5k</text><text x="703.5670153808844" y="0" dx="0em" dy="0.95em" style="text-anchor: middle; visibility: inherit; font-family: Roboto, sans-serif; font-size: 12px; font-weight: 200;" fill="rgb(33, 33, 33)" stroke="none" stroke-width="1px">2k</text><text x="828.9283435058849" y="0" dx="0em" dy="0.95em" style="text-anchor: middle; visibility: inherit; font-family: Roboto, sans-serif; font-size: 12px; font-weight: 200;" fill="rgb(33, 33, 33)" stroke="none" stroke-width="1px">2.5k</text><text x="954.2896716308852" y="0" dx="0em" dy="0.95em" style="text-anchor: middle; visibility: inherit; font-family: Roboto, sans-serif; font-size: 12px; font-weight: 200;" fill="rgb(33, 33, 33)" stroke="none" stroke-width="1px">3k</text><text x="1079.6509997558858" y="0" dx="0em" dy="0.95em" style="text-anchor: middle; visibility: inherit; font-family: Roboto, sans-serif; font-size: 12px; font-weight: 200;" fill="rgb(33, 33, 33)" stroke="none" stroke-width="1px">3.5k</text><text x="1205.012327880886" y="0" dx="0em" dy="0.95em" style="text-anchor: middle; visibility: inherit; font-family: Roboto, sans-serif; font-size: 12px; font-weight: 200;" fill="rgb(33, 33, 33)" stroke="none" stroke-width="1px">4k</text><text x="1330.3736560058865" y="0" dx="0em" dy="0.95em" style="text-anchor: middle; visibility: inherit; font-family: Roboto, sans-serif; font-size: 12px; font-weight: 200;" fill="rgb(33, 33, 33)" stroke="none" stroke-width="1px">4.5k</text></g><line x1="0" y1="0" x2="1404.046875" y2="0" fill="rgb(0, 0, 0)" stroke="rgb(204, 204, 204)" stroke-width="1px"></line></g></g></g></g></svg>