<?xml version="1.0" encoding="utf-8" standalone="no"?>
<!DOCTYPE svg PUBLIC "-//W3C//DTD SVG 1.1//EN"
  "http://www.w3.org/Graphics/SVG/1.1/DTD/svg11.dtd">
<svg xmlns:xlink="http://www.w3.org/1999/xlink" width="613.229687pt" height="487.155pt" viewBox="0 0 613.229687 487.155" xmlns="http://www.w3.org/2000/svg" version="1.1">
 <metadata>
  <rdf:RDF xmlns:dc="http://purl.org/dc/elements/1.1/" xmlns:cc="http://creativecommons.org/ns#" xmlns:rdf="http://www.w3.org/1999/02/22-rdf-syntax-ns#">
   <cc:Work>
    <dc:type rdf:resource="http://purl.org/dc/dcmitype/StillImage"/>
    <dc:date>2022-10-17T19:29:47.164601</dc:date>
    <dc:format>image/svg+xml</dc:format>
    <dc:creator>
     <cc:Agent>
      <dc:title>Matplotlib v3.5.2, https://matplotlib.org/</dc:title>
     </cc:Agent>
    </dc:creator>
   </cc:Work>
  </rdf:RDF>
 </metadata>
 <defs>
  <style type="text/css">*{stroke-linejoin: round; stroke-linecap: butt}</style>
 </defs>
 <g id="figure_1">
  <g id="patch_1">
   <path d="M 0 487.155 
L 613.229687 487.155 
L 613.229687 0 
L 0 0 
L 0 487.155 
z
" style="fill: none"/>
  </g>
  <g id="axes_1">
   <g id="patch_2">
    <path d="M 48.029687 463.276875 
L 606.029688 463.276875 
L 606.029688 28.396875 
L 48.029687 28.396875 
z
" style="fill: #ffffff"/>
   </g>
   <g id="matplotlib.axis_1">
    <g id="xtick_1">
     <g id="line2d_1">
      <defs>
       <path id="m823e675b79" d="M 0 0 
L 0 3.5 
" style="stroke: #000000; stroke-width: 0.8"/>
      </defs>
      <g>
       <use xlink:href="#m823e675b79" x="73.393324" y="463.276875" style="stroke: #000000; stroke-width: 0.8"/>
      </g>
     </g>
     <g id="text_1">
      <!-- 0 -->
      <g transform="translate(70.212074 477.875312)scale(0.1 -0.1)">
       <defs>
        <path id="DejaVuSans-30" d="M 2034 4250 
Q 1547 4250 1301 3770 
Q 1056 3291 1056 2328 
Q 1056 1369 1301 889 
Q 1547 409 2034 409 
Q 2525 409 2770 889 
Q 3016 1369 3016 2328 
Q 3016 3291 2770 3770 
Q 2525 4250 2034 4250 
z
M 2034 4750 
Q 2819 4750 3233 4129 
Q 3647 3509 3647 2328 
Q 3647 1150 3233 529 
Q 2819 -91 2034 -91 
Q 1250 -91 836 529 
Q 422 1150 422 2328 
Q 422 3509 836 4129 
Q 1250 4750 2034 4750 
z
" transform="scale(0.015625)"/>
       </defs>
       <use xlink:href="#DejaVuSans-30"/>
      </g>
     </g>
    </g>
    <g id="xtick_2">
     <g id="line2d_2">
      <g>
       <use xlink:href="#m823e675b79" x="174.949425" y="463.276875" style="stroke: #000000; stroke-width: 0.8"/>
      </g>
     </g>
     <g id="text_2">
      <!-- 200 -->
      <g transform="translate(165.405675 477.875312)scale(0.1 -0.1)">
       <defs>
        <path id="DejaVuSans-32" d="M 1228 531 
L 3431 531 
L 3431 0 
L 469 0 
L 469 531 
Q 828 903 1448 1529 
Q 2069 2156 2228 2338 
Q 2531 2678 2651 2914 
Q 2772 3150 2772 3378 
Q 2772 3750 2511 3984 
Q 2250 4219 1831 4219 
Q 1534 4219 1204 4116 
Q 875 4013 500 3803 
L 500 4441 
Q 881 4594 1212 4672 
Q 1544 4750 1819 4750 
Q 2544 4750 2975 4387 
Q 3406 4025 3406 3419 
Q 3406 3131 3298 2873 
Q 3191 2616 2906 2266 
Q 2828 2175 2409 1742 
Q 1991 1309 1228 531 
z
" transform="scale(0.015625)"/>
       </defs>
       <use xlink:href="#DejaVuSans-32"/>
       <use xlink:href="#DejaVuSans-30" x="63.623047"/>
       <use xlink:href="#DejaVuSans-30" x="127.246094"/>
      </g>
     </g>
    </g>
    <g id="xtick_3">
     <g id="line2d_3">
      <g>
       <use xlink:href="#m823e675b79" x="276.505527" y="463.276875" style="stroke: #000000; stroke-width: 0.8"/>
      </g>
     </g>
     <g id="text_3">
      <!-- 400 -->
      <g transform="translate(266.961777 477.875312)scale(0.1 -0.1)">
       <defs>
        <path id="DejaVuSans-34" d="M 2419 4116 
L 825 1625 
L 2419 1625 
L 2419 4116 
z
M 2253 4666 
L 3047 4666 
L 3047 1625 
L 3713 1625 
L 3713 1100 
L 3047 1100 
L 3047 0 
L 2419 0 
L 2419 1100 
L 313 1100 
L 313 1709 
L 2253 4666 
z
" transform="scale(0.015625)"/>
       </defs>
       <use xlink:href="#DejaVuSans-34"/>
       <use xlink:href="#DejaVuSans-30" x="63.623047"/>
       <use xlink:href="#DejaVuSans-30" x="127.246094"/>
      </g>
     </g>
    </g>
    <g id="xtick_4">
     <g id="line2d_4">
      <g>
       <use xlink:href="#m823e675b79" x="378.061629" y="463.276875" style="stroke: #000000; stroke-width: 0.8"/>
      </g>
     </g>
     <g id="text_4">
      <!-- 600 -->
      <g transform="translate(368.517879 477.875312)scale(0.1 -0.1)">
       <defs>
        <path id="DejaVuSans-36" d="M 2113 2584 
Q 1688 2584 1439 2293 
Q 1191 2003 1191 1497 
Q 1191 994 1439 701 
Q 1688 409 2113 409 
Q 2538 409 2786 701 
Q 3034 994 3034 1497 
Q 3034 2003 2786 2293 
Q 2538 2584 2113 2584 
z
M 3366 4563 
L 3366 3988 
Q 3128 4100 2886 4159 
Q 2644 4219 2406 4219 
Q 1781 4219 1451 3797 
Q 1122 3375 1075 2522 
Q 1259 2794 1537 2939 
Q 1816 3084 2150 3084 
Q 2853 3084 3261 2657 
Q 3669 2231 3669 1497 
Q 3669 778 3244 343 
Q 2819 -91 2113 -91 
Q 1303 -91 875 529 
Q 447 1150 447 2328 
Q 447 3434 972 4092 
Q 1497 4750 2381 4750 
Q 2619 4750 2861 4703 
Q 3103 4656 3366 4563 
z
" transform="scale(0.015625)"/>
       </defs>
       <use xlink:href="#DejaVuSans-36"/>
       <use xlink:href="#DejaVuSans-30" x="63.623047"/>
       <use xlink:href="#DejaVuSans-30" x="127.246094"/>
      </g>
     </g>
    </g>
    <g id="xtick_5">
     <g id="line2d_5">
      <g>
       <use xlink:href="#m823e675b79" x="479.61773" y="463.276875" style="stroke: #000000; stroke-width: 0.8"/>
      </g>
     </g>
     <g id="text_5">
      <!-- 800 -->
      <g transform="translate(470.07398 477.875312)scale(0.1 -0.1)">
       <defs>
        <path id="DejaVuSans-38" d="M 2034 2216 
Q 1584 2216 1326 1975 
Q 1069 1734 1069 1313 
Q 1069 891 1326 650 
Q 1584 409 2034 409 
Q 2484 409 2743 651 
Q 3003 894 3003 1313 
Q 3003 1734 2745 1975 
Q 2488 2216 2034 2216 
z
M 1403 2484 
Q 997 2584 770 2862 
Q 544 3141 544 3541 
Q 544 4100 942 4425 
Q 1341 4750 2034 4750 
Q 2731 4750 3128 4425 
Q 3525 4100 3525 3541 
Q 3525 3141 3298 2862 
Q 3072 2584 2669 2484 
Q 3125 2378 3379 2068 
Q 3634 1759 3634 1313 
Q 3634 634 3220 271 
Q 2806 -91 2034 -91 
Q 1263 -91 848 271 
Q 434 634 434 1313 
Q 434 1759 690 2068 
Q 947 2378 1403 2484 
z
M 1172 3481 
Q 1172 3119 1398 2916 
Q 1625 2713 2034 2713 
Q 2441 2713 2670 2916 
Q 2900 3119 2900 3481 
Q 2900 3844 2670 4047 
Q 2441 4250 2034 4250 
Q 1625 4250 1398 4047 
Q 1172 3844 1172 3481 
z
" transform="scale(0.015625)"/>
       </defs>
       <use xlink:href="#DejaVuSans-38"/>
       <use xlink:href="#DejaVuSans-30" x="63.623047"/>
       <use xlink:href="#DejaVuSans-30" x="127.246094"/>
      </g>
     </g>
    </g>
    <g id="xtick_6">
     <g id="line2d_6">
      <g>
       <use xlink:href="#m823e675b79" x="581.173832" y="463.276875" style="stroke: #000000; stroke-width: 0.8"/>
      </g>
     </g>
     <g id="text_6">
      <!-- 1000 -->
      <g transform="translate(568.448832 477.875312)scale(0.1 -0.1)">
       <defs>
        <path id="DejaVuSans-31" d="M 794 531 
L 1825 531 
L 1825 4091 
L 703 3866 
L 703 4441 
L 1819 4666 
L 2450 4666 
L 2450 531 
L 3481 531 
L 3481 0 
L 794 0 
L 794 531 
z
" transform="scale(0.015625)"/>
       </defs>
       <use xlink:href="#DejaVuSans-31"/>
       <use xlink:href="#DejaVuSans-30" x="63.623047"/>
       <use xlink:href="#DejaVuSans-30" x="127.246094"/>
       <use xlink:href="#DejaVuSans-30" x="190.869141"/>
      </g>
     </g>
    </g>
   </g>
   <g id="matplotlib.axis_2">
    <g id="ytick_1">
     <g id="line2d_7">
      <defs>
       <path id="m5de13a84b6" d="M 0 0 
L -3.5 0 
" style="stroke: #000000; stroke-width: 0.8"/>
      </defs>
      <g>
       <use xlink:href="#m5de13a84b6" x="48.029687" y="434.613809" style="stroke: #000000; stroke-width: 0.8"/>
      </g>
     </g>
     <g id="text_7">
      <!-- −6000 -->
      <g transform="translate(7.2 438.413028)scale(0.1 -0.1)">
       <defs>
        <path id="DejaVuSans-2212" d="M 678 2272 
L 4684 2272 
L 4684 1741 
L 678 1741 
L 678 2272 
z
" transform="scale(0.015625)"/>
       </defs>
       <use xlink:href="#DejaVuSans-2212"/>
       <use xlink:href="#DejaVuSans-36" x="83.789062"/>
       <use xlink:href="#DejaVuSans-30" x="147.412109"/>
       <use xlink:href="#DejaVuSans-30" x="211.035156"/>
       <use xlink:href="#DejaVuSans-30" x="274.658203"/>
      </g>
     </g>
    </g>
    <g id="ytick_2">
     <g id="line2d_8">
      <g>
       <use xlink:href="#m5de13a84b6" x="48.029687" y="376.734852" style="stroke: #000000; stroke-width: 0.8"/>
      </g>
     </g>
     <g id="text_8">
      <!-- −5000 -->
      <g transform="translate(7.2 380.534071)scale(0.1 -0.1)">
       <defs>
        <path id="DejaVuSans-35" d="M 691 4666 
L 3169 4666 
L 3169 4134 
L 1269 4134 
L 1269 2991 
Q 1406 3038 1543 3061 
Q 1681 3084 1819 3084 
Q 2600 3084 3056 2656 
Q 3513 2228 3513 1497 
Q 3513 744 3044 326 
Q 2575 -91 1722 -91 
Q 1428 -91 1123 -41 
Q 819 9 494 109 
L 494 744 
Q 775 591 1075 516 
Q 1375 441 1709 441 
Q 2250 441 2565 725 
Q 2881 1009 2881 1497 
Q 2881 1984 2565 2268 
Q 2250 2553 1709 2553 
Q 1456 2553 1204 2497 
Q 953 2441 691 2322 
L 691 4666 
z
" transform="scale(0.015625)"/>
       </defs>
       <use xlink:href="#DejaVuSans-2212"/>
       <use xlink:href="#DejaVuSans-35" x="83.789062"/>
       <use xlink:href="#DejaVuSans-30" x="147.412109"/>
       <use xlink:href="#DejaVuSans-30" x="211.035156"/>
       <use xlink:href="#DejaVuSans-30" x="274.658203"/>
      </g>
     </g>
    </g>
    <g id="ytick_3">
     <g id="line2d_9">
      <g>
       <use xlink:href="#m5de13a84b6" x="48.029687" y="318.855895" style="stroke: #000000; stroke-width: 0.8"/>
      </g>
     </g>
     <g id="text_9">
      <!-- −4000 -->
      <g transform="translate(7.2 322.655114)scale(0.1 -0.1)">
       <use xlink:href="#DejaVuSans-2212"/>
       <use xlink:href="#DejaVuSans-34" x="83.789062"/>
       <use xlink:href="#DejaVuSans-30" x="147.412109"/>
       <use xlink:href="#DejaVuSans-30" x="211.035156"/>
       <use xlink:href="#DejaVuSans-30" x="274.658203"/>
      </g>
     </g>
    </g>
    <g id="ytick_4">
     <g id="line2d_10">
      <g>
       <use xlink:href="#m5de13a84b6" x="48.029687" y="260.976938" style="stroke: #000000; stroke-width: 0.8"/>
      </g>
     </g>
     <g id="text_10">
      <!-- −3000 -->
      <g transform="translate(7.2 264.776157)scale(0.1 -0.1)">
       <defs>
        <path id="DejaVuSans-33" d="M 2597 2516 
Q 3050 2419 3304 2112 
Q 3559 1806 3559 1356 
Q 3559 666 3084 287 
Q 2609 -91 1734 -91 
Q 1441 -91 1130 -33 
Q 819 25 488 141 
L 488 750 
Q 750 597 1062 519 
Q 1375 441 1716 441 
Q 2309 441 2620 675 
Q 2931 909 2931 1356 
Q 2931 1769 2642 2001 
Q 2353 2234 1838 2234 
L 1294 2234 
L 1294 2753 
L 1863 2753 
Q 2328 2753 2575 2939 
Q 2822 3125 2822 3475 
Q 2822 3834 2567 4026 
Q 2313 4219 1838 4219 
Q 1578 4219 1281 4162 
Q 984 4106 628 3988 
L 628 4550 
Q 988 4650 1302 4700 
Q 1616 4750 1894 4750 
Q 2613 4750 3031 4423 
Q 3450 4097 3450 3541 
Q 3450 3153 3228 2886 
Q 3006 2619 2597 2516 
z
" transform="scale(0.015625)"/>
       </defs>
       <use xlink:href="#DejaVuSans-2212"/>
       <use xlink:href="#DejaVuSans-33" x="83.789062"/>
       <use xlink:href="#DejaVuSans-30" x="147.412109"/>
       <use xlink:href="#DejaVuSans-30" x="211.035156"/>
       <use xlink:href="#DejaVuSans-30" x="274.658203"/>
      </g>
     </g>
    </g>
    <g id="ytick_5">
     <g id="line2d_11">
      <g>
       <use xlink:href="#m5de13a84b6" x="48.029687" y="203.097981" style="stroke: #000000; stroke-width: 0.8"/>
      </g>
     </g>
     <g id="text_11">
      <!-- −2000 -->
      <g transform="translate(7.2 206.8972)scale(0.1 -0.1)">
       <use xlink:href="#DejaVuSans-2212"/>
       <use xlink:href="#DejaVuSans-32" x="83.789062"/>
       <use xlink:href="#DejaVuSans-30" x="147.412109"/>
       <use xlink:href="#DejaVuSans-30" x="211.035156"/>
       <use xlink:href="#DejaVuSans-30" x="274.658203"/>
      </g>
     </g>
    </g>
    <g id="ytick_6">
     <g id="line2d_12">
      <g>
       <use xlink:href="#m5de13a84b6" x="48.029687" y="145.219025" style="stroke: #000000; stroke-width: 0.8"/>
      </g>
     </g>
     <g id="text_12">
      <!-- −1000 -->
      <g transform="translate(7.2 149.018243)scale(0.1 -0.1)">
       <use xlink:href="#DejaVuSans-2212"/>
       <use xlink:href="#DejaVuSans-31" x="83.789062"/>
       <use xlink:href="#DejaVuSans-30" x="147.412109"/>
       <use xlink:href="#DejaVuSans-30" x="211.035156"/>
       <use xlink:href="#DejaVuSans-30" x="274.658203"/>
      </g>
     </g>
    </g>
    <g id="ytick_7">
     <g id="line2d_13">
      <g>
       <use xlink:href="#m5de13a84b6" x="48.029687" y="87.340068" style="stroke: #000000; stroke-width: 0.8"/>
      </g>
     </g>
     <g id="text_13">
      <!-- 0 -->
      <g transform="translate(34.667187 91.139286)scale(0.1 -0.1)">
       <use xlink:href="#DejaVuSans-30"/>
      </g>
     </g>
    </g>
    <g id="ytick_8">
     <g id="line2d_14">
      <g>
       <use xlink:href="#m5de13a84b6" x="48.029687" y="29.461111" style="stroke: #000000; stroke-width: 0.8"/>
      </g>
     </g>
     <g id="text_14">
      <!-- 1000 -->
      <g transform="translate(15.579687 33.26033)scale(0.1 -0.1)">
       <use xlink:href="#DejaVuSans-31"/>
       <use xlink:href="#DejaVuSans-30" x="63.623047"/>
       <use xlink:href="#DejaVuSans-30" x="127.246094"/>
       <use xlink:href="#DejaVuSans-30" x="190.869141"/>
      </g>
     </g>
    </g>
   </g>
   <g id="line2d_15">
    <path d="M 73.393324 48.164148 
L 73.901104 103.435121 
L 74.408885 118.456732 
L 74.916665 140.019426 
L 75.424446 169.417417 
L 75.932226 208.017442 
L 76.440007 256.772965 
L 77.963348 443.509602 
L 78.471129 126.505229 
L 78.978909 130.368482 
L 79.99447 170.489675 
L 81.010031 215.051202 
L 81.517812 233.532172 
L 82.025592 243.236259 
L 82.533373 238.887833 
L 83.041154 214.220905 
L 83.548934 166.725832 
L 84.056715 182.393923 
L 85.072276 219.090768 
L 85.580056 231.917845 
L 86.087837 239.242959 
L 86.595617 240.550301 
L 87.103398 235.741085 
L 88.118959 219.536552 
L 88.626739 218.543698 
L 89.13452 230.651769 
L 89.6423 239.858804 
L 90.150081 244.767431 
L 90.657861 245.331382 
L 91.165642 242.587278 
L 92.688983 229.957771 
L 93.196764 228.962416 
L 93.704544 229.957458 
L 94.212325 231.718087 
L 94.720105 230.66146 
L 95.227886 227.923608 
L 96.243447 219.640027 
L 97.259008 212.551872 
L 98.274569 208.224078 
L 98.782349 206.59162 
L 99.79791 200.541024 
L 102.336813 185.450013 
L 107.922398 157.722775 
L 108.937959 153.042355 
L 110.461301 146.464226 
L 114.015764 132.71135 
L 117.570228 121.071571 
L 118.078009 119.815107 
L 118.585789 118.23892 
L 119.09357 117.137902 
L 119.60135 115.571014 
L 122.648033 108.562185 
L 123.155814 107.477071 
L 123.663594 106.668267 
L 124.679155 104.814129 
L 125.694716 102.958037 
L 126.202497 102.369741 
L 126.710277 101.233554 
L 127.725838 99.987407 
L 128.741399 98.477493 
L 130.264741 96.83425 
L 130.772521 96.023179 
L 131.280302 95.872657 
L 131.788082 94.958815 
L 132.295863 94.824861 
L 132.803643 93.947829 
L 133.311424 93.845371 
L 133.819204 93.443509 
L 134.326985 92.659714 
L 134.834765 92.650101 
L 135.850326 91.720003 
L 136.865887 91.26445 
L 137.373668 90.475184 
L 137.881448 90.473855 
L 138.389229 90.177421 
L 138.897009 90.140846 
L 139.91257 89.281633 
L 140.420351 89.412305 
L 140.928131 88.706584 
L 141.435912 88.938151 
L 141.943692 88.432189 
L 142.451473 88.409291 
L 142.959253 88.017745 
L 143.467034 88.215237 
L 143.974814 87.566177 
L 144.482595 87.806028 
L 144.990375 87.550156 
L 145.498156 87.069125 
L 146.005936 87.329139 
L 146.513717 86.969714 
L 147.021497 86.88781 
L 147.529278 87.003164 
L 148.037059 86.491028 
L 148.544839 86.653351 
L 149.05262 86.171539 
L 149.5604 86.638971 
L 150.068181 86.599504 
L 150.575961 86.749089 
L 151.591522 87.62104 
L 152.099303 87.626433 
L 152.607083 87.42261 
L 153.114864 87.04818 
L 153.622644 86.85733 
L 154.130425 86.793167 
L 154.638205 87.367512 
L 155.145986 87.342347 
L 155.653766 87.604707 
L 156.161547 87.465125 
L 156.669327 87.686454 
L 157.684888 87.309601 
L 159.71601 87.191512 
L 160.223791 87.576259 
L 160.731571 87.72897 
L 161.747132 87.347349 
L 162.254913 87.315072 
L 162.762693 87.397054 
L 163.778254 87.301395 
L 164.286035 87.381111 
L 164.793815 87.345317 
L 165.301596 87.570007 
L 166.317157 87.278027 
L 166.824937 87.302646 
L 167.332718 87.202297 
L 168.348279 87.37142 
L 168.856059 87.140869 
L 169.36384 87.170176 
L 169.87162 87.415342 
L 170.379401 87.229651 
L 170.887181 87.348756 
L 171.394962 87.149075 
L 171.902742 87.142901 
L 172.410523 87.006602 
L 172.918303 87.318354 
L 173.426084 87.316948 
L 173.933864 87.183775 
L 174.441645 87.241608 
L 174.949425 87.049352 
L 175.457206 87.063967 
L 175.964986 87.287328 
L 176.472767 87.049274 
L 176.980547 87.200969 
L 177.996108 86.978155 
L 178.503889 87.21824 
L 180.02723 86.954084 
L 180.535011 87.294518 
L 181.550572 86.902659 
L 182.058353 87.20769 
L 183.581694 86.915242 
L 184.089475 87.213317 
L 184.597255 86.902894 
L 185.105036 87.17893 
L 186.120597 87.139306 
L 186.628377 86.889061 
L 187.136158 86.967213 
L 187.643938 87.221601 
L 188.151719 87.007853 
L 189.16728 87.175803 
L 189.67506 86.855689 
L 190.182841 87.063263 
L 191.198402 87.026531 
L 191.706182 86.959789 
L 192.213963 87.198546 
L 192.721743 87.127661 
L 193.229524 86.938844 
L 193.737304 87.192606 
L 194.245085 86.859128 
L 194.752865 87.183697 
L 195.768426 86.93689 
L 196.276207 87.11289 
L 196.783987 87.018716 
L 197.291768 87.261303 
L 197.799548 86.949395 
L 199.32289 87.083974 
L 199.83067 86.949004 
L 200.338451 87.103473 
L 200.846231 87.022272 
L 201.354012 87.158649 
L 201.861792 87.067093 
L 202.369573 87.136297 
L 202.877353 86.956389 
L 203.385134 87.236255 
L 203.892914 87.003594 
L 204.400695 87.092141 
L 204.908475 87.030595 
L 205.416256 87.173967 
L 205.924036 87.06342 
L 206.431817 87.204837 
L 206.939597 86.928918 
L 207.955158 87.345708 
L 208.462939 86.902034 
L 208.970719 87.180727 
L 209.4785 87.047164 
L 210.494061 87.168223 
L 211.001841 87.151029 
L 211.509622 87.267868 
L 212.017402 87.049274 
L 214.048525 87.254816 
L 214.556305 86.959086 
L 215.064086 87.249814 
L 215.571866 87.179086 
L 216.079647 87.296784 
L 217.095208 87.058887 
L 217.602988 87.170802 
L 218.110769 87.474269 
L 218.618549 87.115704 
L 219.63411 87.3139 
L 220.141891 87.104059 
L 220.649671 87.293502 
L 221.157452 87.291782 
L 221.665232 87.106247 
L 222.680793 87.380564 
L 223.188574 87.112031 
L 223.696354 87.294518 
L 225.219696 87.279043 
L 225.727476 87.137274 
L 226.235257 87.396116 
L 226.743037 87.178226 
L 227.250818 87.305303 
L 228.266379 87.16666 
L 228.774159 87.424173 
L 229.28194 87.11883 
L 229.78972 87.074439 
L 230.805281 87.425815 
L 231.313062 87.192763 
L 231.820842 87.126958 
L 232.328623 87.292095 
L 232.836403 87.126255 
L 233.344184 87.304521 
L 233.851964 87.04099 
L 234.867525 87.316088 
L 235.375306 87.121331 
L 235.883086 87.278418 
L 236.390867 86.957522 
L 236.898647 87.195967 
L 237.406428 87.084834 
L 237.914208 87.197139 
L 238.929769 87.118127 
L 240.453111 87.069984 
L 240.960891 87.002773 
L 241.468672 87.191278 
L 242.484233 86.940954 
L 243.499794 87.173146 
L 244.007574 86.936343 
L 244.515355 87.12985 
L 245.023135 86.836698 
L 245.530916 87.198155 
L 246.038697 86.960336 
L 247.054258 87.101167 
L 247.562038 86.90938 
L 248.577599 87.172677 
L 249.08538 86.789806 
L 249.59316 87.173928 
L 250.100941 86.851156 
L 250.608721 86.83748 
L 251.116502 87.187917 
L 251.624282 87.184322 
L 252.132063 86.835917 
L 253.147624 87.000194 
L 253.655404 87.174162 
L 254.163185 86.952755 
L 255.178746 86.927668 
L 255.686526 87.16791 
L 256.702087 86.697039 
L 257.209868 87.241999 
L 257.717648 86.786993 
L 258.225429 87.10023 
L 258.733209 86.921728 
L 260.256551 87.17002 
L 260.764331 86.654211 
L 261.272112 87.089288 
L 261.779892 86.910162 
L 262.287673 87.02489 
L 262.795453 86.793558 
L 263.811014 87.431129 
L 264.318795 86.892577 
L 264.826575 87.112656 
L 265.842136 86.977999 
L 267.365478 87.240045 
L 268.381039 87.122816 
L 269.3966 87.093587 
L 269.90438 87.413779 
L 270.412161 87.040677 
L 270.919941 87.047867 
L 271.427722 87.276699 
L 271.935502 86.949863 
L 272.443283 87.170567 
L 272.951063 86.861707 
L 273.966624 86.896407 
L 274.474405 86.796527 
L 274.982185 87.018013 
L 275.489966 86.585202 
L 275.997746 86.487511 
L 276.505527 86.83451 
L 277.013307 86.646318 
L 277.521088 86.777771 
L 278.536649 86.866865 
L 279.55221 87.24278 
L 280.059991 87.389552 
L 280.567771 87.126333 
L 281.075552 87.688721 
L 282.091113 87.777971 
L 282.598893 88.058071 
L 283.614454 88.129034 
L 284.122235 88.465404 
L 284.630015 88.19312 
L 285.137796 88.493539 
L 285.645576 87.852373 
L 286.153357 88.090583 
L 287.168918 87.707946 
L 288.184479 87.739833 
L 288.692259 88.548872 
L 289.70782 89.248027 
L 290.215601 89.335246 
L 290.723381 90.067695 
L 291.231162 90.582722 
L 291.738942 90.696669 
L 292.754503 93.621932 
L 293.262284 94.582431 
L 293.770064 96.39042 
L 294.277845 97.705733 
L 295.293406 98.931639 
L 295.801186 98.780335 
L 296.308967 99.222055 
L 296.816747 99.162972 
L 297.324528 100.181929 
L 297.832308 100.652253 
L 298.340089 100.953454 
L 299.35565 102.088234 
L 299.86343 101.901762 
L 300.371211 101.987886 
L 300.878991 102.371773 
L 301.386772 102.366302 
L 301.894552 102.53355 
L 303.417894 103.711782 
L 303.925674 103.84855 
L 304.941235 104.672594 
L 305.449016 104.603663 
L 305.956796 105.622777 
L 306.464577 105.468503 
L 306.972357 106.03433 
L 307.480138 107.051099 
L 308.495699 107.769324 
L 309.003479 107.737281 
L 309.51126 106.796946 
L 310.01904 104.995366 
L 310.526821 102.502914 
L 312.557943 85.592504 
L 313.065724 85.246756 
L 314.589065 92.2355 
L 315.096846 92.074505 
L 315.604626 91.302354 
L 316.620187 88.175613 
L 317.127968 87.779222 
L 317.635748 87.757339 
L 318.651309 90.192739 
L 319.15909 90.85657 
L 320.174651 91.518994 
L 320.682431 91.545879 
L 321.190212 91.919606 
L 322.205773 95.178737 
L 323.729114 102.401315 
L 324.236895 103.752578 
L 324.744675 102.981678 
L 325.252456 98.883497 
L 325.760236 99.283952 
L 326.775797 101.739516 
L 327.283578 102.808335 
L 328.299139 102.877422 
L 328.806919 102.385684 
L 329.82248 101.046456 
L 330.330261 100.430455 
L 331.345822 101.035671 
L 331.853602 101.122421 
L 332.361383 101.016289 
L 332.869163 100.392473 
L 333.376944 100.212565 
L 333.884724 99.707072 
L 334.392505 98.911007 
L 334.900285 98.589955 
L 335.408066 97.693072 
L 335.915846 97.098016 
L 337.439188 92.89386 
L 338.454749 89.797442 
L 339.97809 87.489275 
L 340.485871 87.175569 
L 340.993651 86.545031 
L 341.501432 86.557536 
L 342.009212 85.840405 
L 342.516993 85.943098 
L 343.024773 85.684724 
L 343.532554 85.861194 
L 344.040335 85.531545 
L 344.548115 85.777258 
L 345.055896 85.562962 
L 346.071457 85.751936 
L 347.087018 85.83384 
L 347.594798 85.991865 
L 348.102579 85.993897 
L 348.610359 86.114878 
L 349.11814 85.996398 
L 349.62592 86.343866 
L 350.133701 86.129883 
L 351.149262 86.399667 
L 352.164823 86.582857 
L 352.672603 86.748229 
L 353.180384 86.439212 
L 354.703725 86.98472 
L 355.211506 86.66992 
L 356.227067 87.0338 
L 356.734847 86.890624 
L 357.750408 87.229494 
L 358.258189 86.816066 
L 359.27375 87.282795 
L 360.289311 87.150247 
L 360.797091 87.369857 
L 361.304872 86.973935 
L 361.812652 87.29358 
L 362.320433 87.230432 
L 363.335994 87.400962 
L 363.843774 87.092883 
L 364.351555 87.421125 
L 364.859335 87.258411 
L 365.874896 87.344379 
L 366.890457 87.297331 
L 367.906018 87.273104 
L 368.413799 87.190574 
L 368.921579 87.341097 
L 369.42936 87.229807 
L 369.93714 87.422532 
L 370.444921 87.277168 
L 370.952701 87.277168 
L 371.460482 87.465985 
L 371.968262 87.085849 
L 372.983823 87.324997 
L 373.491604 86.95299 
L 373.999384 87.604472 
L 374.507165 87.2284 
L 375.014945 87.349694 
L 375.522726 87.104919 
L 376.030507 87.24278 
L 376.538287 87.153999 
L 377.046068 87.230901 
L 377.553848 87.133366 
L 378.061629 87.191512 
L 378.569409 87.137118 
L 379.07719 87.281857 
L 380.092751 87.086475 
L 380.600531 87.203704 
L 382.631653 87.015824 
L 383.139434 87.153374 
L 383.647214 87.049587 
L 384.154995 87.11586 
L 384.662775 87.050524 
L 385.170556 87.189637 
L 385.678336 86.951114 
L 386.693897 87.161189 
L 387.201678 87.157438 
L 387.709458 86.729785 
L 388.217239 87.027391 
L 388.725019 86.983626 
L 389.74058 87.041459 
L 390.248361 87.108983 
L 390.756141 86.908911 
L 391.263922 87.118674 
L 392.279483 86.762922 
L 392.787263 87.174319 
L 393.295044 86.877963 
L 393.802824 87.042084 
L 394.818385 86.897345 
L 395.833946 86.941736 
L 396.849507 86.868584 
L 397.357288 87.007697 
L 397.865068 86.793245 
L 398.372849 86.966744 
L 399.89619 86.988002 
L 400.403971 86.786055 
L 400.911751 86.758545 
L 401.927312 87.118048 
L 402.942873 86.748229 
L 403.450654 86.890155 
L 403.958434 86.827007 
L 404.466215 86.958617 
L 404.973995 86.751355 
L 405.481776 87.136805 
L 405.989556 86.560662 
L 407.005117 87.097729 
L 407.512898 86.770424 
L 408.020678 86.819504 
L 408.528459 86.752606 
L 409.03624 86.902347 
L 409.54402 86.690396 
L 410.051801 86.975498 
L 410.559581 87.043022 
L 411.067362 86.773238 
L 411.575142 86.632875 
L 412.082923 87.049274 
L 412.590703 86.775114 
L 413.098484 86.859519 
L 413.606264 86.747604 
L 415.129606 86.933295 
L 415.637386 86.694147 
L 416.145167 86.947675 
L 417.668508 86.726034 
L 418.176289 87.056464 
L 418.684069 86.762297 
L 419.19185 86.770424 
L 419.69963 86.95424 
L 420.207411 86.688833 
L 420.715191 86.958304 
L 422.238533 86.769174 
L 424.269655 86.954553 
L 424.777435 86.722282 
L 426.808557 86.904847 
L 427.316338 86.983938 
L 427.824118 86.763547 
L 428.331899 86.756044 
L 428.839679 87.068031 
L 429.34746 86.581294 
L 429.85524 87.015512 
L 430.363021 86.709153 
L 430.870801 86.934233 
L 431.378582 86.98894 
L 431.886362 86.781991 
L 432.901923 86.770424 
L 433.409704 87.025515 
L 433.917484 86.773238 
L 434.933045 87.00457 
L 435.440826 86.681955 
L 436.456387 87.094915 
L 436.964167 86.702588 
L 437.471948 86.978311 
L 438.487509 86.707277 
L 438.995289 87.018638 
L 439.50307 87.043022 
L 440.01085 86.867647 
L 441.534192 86.845451 
L 442.041973 86.965181 
L 442.549753 86.946425 
L 443.057534 86.691646 
L 443.565314 87.130866 
L 444.073095 86.770424 
L 444.580875 86.878901 
L 445.088656 87.159313 
L 445.596436 86.809813 
L 446.104217 86.96737 
L 446.611997 86.900783 
L 447.119778 86.698211 
L 447.627558 86.962993 
L 448.135339 87.093352 
L 448.643119 86.843888 
L 449.1509 87.038333 
L 449.65868 86.863895 
L 450.166461 86.846389 
L 450.674241 87.025203 
L 451.182022 86.866709 
L 451.689802 87.098041 
L 452.197583 86.762297 
L 453.213144 87.089913 
L 453.720924 86.938609 
L 454.228705 86.975498 
L 454.736485 86.869835 
L 455.244266 87.029579 
L 456.767607 86.770737 
L 457.275388 87.145558 
L 457.783168 86.877025 
L 458.290949 86.992691 
L 458.798729 86.831384 
L 459.30651 87.110546 
L 459.81429 86.992691 
L 462.353193 87.057402 
L 462.860973 86.759796 
L 463.368754 87.242468 
L 463.876534 86.873586 
L 464.384315 86.888592 
L 464.892095 87.038645 
L 466.923217 86.970496 
L 467.938778 87.077409 
L 468.446559 87.026141 
L 468.954339 86.839199 
L 469.46212 87.053338 
L 470.477681 86.964556 
L 470.985461 87.123675 
L 471.493242 86.797934 
L 472.001022 87.265289 
L 472.508803 86.925167 
L 473.016583 86.979249 
L 473.524364 87.165253 
L 474.032145 86.828883 
L 475.047706 87.080848 
L 475.555486 86.921728 
L 476.063267 87.13743 
L 476.571047 87.009572 
L 477.078828 87.097729 
L 478.094389 86.927668 
L 479.10995 87.091789 
L 479.61773 86.936734 
L 480.125511 87.118674 
L 480.633291 87.099292 
L 481.141072 86.901096 
L 481.648852 86.942673 
L 482.156633 87.1937 
L 482.664413 86.960492 
L 483.172194 87.019576 
L 483.679974 86.875462 
L 484.187755 87.144933 
L 484.695535 87.113047 
L 485.203316 86.882965 
L 485.711096 87.136805 
L 486.218877 86.88484 
L 487.234438 87.077409 
L 488.757779 86.972684 
L 489.26556 86.891405 
L 490.281121 87.207143 
L 490.788901 86.936109 
L 491.804462 86.957679 
L 492.312243 87.194638 
L 492.820023 86.855455 
L 493.327804 87.108358 
L 493.835584 86.987689 
L 494.343365 87.152436 
L 494.851145 86.936109 
L 496.374487 87.11586 
L 496.882267 86.96018 
L 497.390048 86.969871 
L 497.897828 87.108358 
L 498.405609 86.983 
L 498.913389 87.036144 
L 499.42117 86.888592 
L 499.92895 86.983313 
L 500.944511 86.989565 
L 501.960072 87.161814 
L 502.467853 86.911412 
L 502.975633 86.865771 
L 503.483414 87.073658 
L 504.498975 86.910162 
L 505.514536 87.138681 
L 506.022316 86.972371 
L 507.037878 86.952364 
L 507.545658 87.070532 
L 508.053439 86.801998 
L 508.561219 87.138368 
L 509.069 86.891718 
L 509.57678 86.999569 
L 511.607902 86.93392 
L 512.115683 87.03083 
L 512.623463 86.85014 
L 513.131244 87.175256 
L 513.639024 86.849515 
L 514.146805 86.875775 
L 514.654585 87.058027 
L 515.162366 87.033956 
L 515.670146 86.772925 
L 517.193488 87.071157 
L 517.701268 86.85733 
L 518.716829 86.956428 
L 519.22461 87.052087 
L 519.73239 86.839199 
L 520.240171 86.813877 
L 520.747951 87.050524 
L 521.255732 86.786368 
L 521.763512 87.139619 
L 522.779073 86.694772 
L 523.286854 87.003633 
L 525.317976 86.732911 
L 525.825756 87.12305 
L 526.841317 86.846389 
L 527.349098 86.801686 
L 527.856878 87.118674 
L 528.364659 86.7029 
L 528.872439 86.910787 
L 529.888 86.788243 
L 530.395781 87.098979 
L 530.903561 86.796059 
L 532.934683 86.883902 
L 533.442464 86.742289 
L 533.950244 86.993316 
L 534.458025 86.769174 
L 534.965805 87.027079 
L 535.473586 86.774488 
L 535.981366 86.78543 
L 536.489147 86.986752 
L 536.996927 86.780741 
L 537.504708 86.902972 
L 538.012488 86.776364 
L 538.520269 86.907661 
L 539.028049 86.792307 
L 539.53583 86.938297 
L 540.551391 86.760108 
L 541.059172 86.915789 
L 541.566952 86.799497 
L 542.074733 86.948926 
L 542.582513 86.70884 
L 543.090294 86.818254 
L 544.613635 86.839199 
L 545.121416 86.659135 
L 545.629196 86.9111 
L 548.168099 86.822005 
L 548.675879 86.889529 
L 549.18366 86.588485 
L 549.69144 86.873586 
L 550.707001 86.712904 
L 551.214782 86.910474 
L 551.722562 86.813565 
L 552.230343 86.884528 
L 552.738123 86.658822 
L 553.245904 86.685394 
L 553.753684 86.909224 
L 554.769245 86.629124 
L 555.277026 86.925792 
L 555.784806 86.69446 
L 556.292587 86.907036 
L 556.800367 86.645692 
L 557.308148 86.801686 
L 558.323709 86.731661 
L 558.831489 86.869522 
L 559.33927 86.702588 
L 559.84705 86.745103 
L 560.354831 86.948613 
L 560.862611 86.58911 
L 561.370392 86.663511 
L 561.878172 86.879213 
L 562.385953 86.689771 
L 562.893733 86.817316 
L 563.401514 86.756357 
L 563.909294 86.836698 
L 564.417075 86.615994 
L 564.924855 86.798872 
L 565.432636 86.801373 
L 566.448197 86.607866 
L 566.955977 86.867334 
L 568.479319 86.608492 
L 568.987099 86.859831 
L 569.49488 86.617245 
L 570.510441 86.882965 
L 571.018221 86.610993 
L 571.526002 86.766048 
L 572.541563 86.757295 
L 573.049344 86.585046 
L 573.557124 86.902659 
L 574.064905 86.741977 
L 574.572685 86.824819 
L 575.080466 86.693209 
L 575.588246 86.762297 
L 576.096027 86.593486 
L 576.603807 86.888904 
L 577.619368 86.620371 
L 578.127149 86.811377 
L 578.634929 86.788243 
L 579.14271 86.608804 
L 579.65049 86.843576 
L 580.158271 86.721344 
L 580.666051 86.74479 
L 580.666051 86.74479 
" clip-path="url(#p7e2b7f65cb)" style="fill: none; stroke: #1f77b4; stroke-width: 1.5; stroke-linecap: square"/>
   </g>
   <g id="line2d_16">
    <path d="M 73.393324 87.340068 
L 580.666051 87.340068 
L 580.666051 87.340068 
" clip-path="url(#p7e2b7f65cb)" style="fill: none; stroke-dasharray: 5.55,2.4; stroke-dashoffset: 0; stroke: #ff0000; stroke-width: 1.5"/>
   </g>
   <g id="patch_3">
    <path d="M 48.029687 463.276875 
L 48.029687 28.396875 
" style="fill: none; stroke: #000000; stroke-width: 0.8; stroke-linejoin: miter; stroke-linecap: square"/>
   </g>
   <g id="patch_4">
    <path d="M 606.029688 463.276875 
L 606.029688 28.396875 
" style="fill: none; stroke: #000000; stroke-width: 0.8; stroke-linejoin: miter; stroke-linecap: square"/>
   </g>
   <g id="patch_5">
    <path d="M 48.029687 463.276875 
L 606.029688 463.276875 
" style="fill: none; stroke: #000000; stroke-width: 0.8; stroke-linejoin: miter; stroke-linecap: square"/>
   </g>
   <g id="patch_6">
    <path d="M 48.029687 28.396875 
L 606.029688 28.396875 
" style="fill: none; stroke: #000000; stroke-width: 0.8; stroke-linejoin: miter; stroke-linecap: square"/>
   </g>
   <g id="text_15">
    <!-- temp_speed_error -->
    <g transform="translate(236.45 22.396875)scale(0.2 -0.2)">
     <defs>
      <path id="DejaVuSans-74" d="M 1172 4494 
L 1172 3500 
L 2356 3500 
L 2356 3053 
L 1172 3053 
L 1172 1153 
Q 1172 725 1289 603 
Q 1406 481 1766 481 
L 2356 481 
L 2356 0 
L 1766 0 
Q 1100 0 847 248 
Q 594 497 594 1153 
L 594 3053 
L 172 3053 
L 172 3500 
L 594 3500 
L 594 4494 
L 1172 4494 
z
" transform="scale(0.015625)"/>
      <path id="DejaVuSans-65" d="M 3597 1894 
L 3597 1613 
L 953 1613 
Q 991 1019 1311 708 
Q 1631 397 2203 397 
Q 2534 397 2845 478 
Q 3156 559 3463 722 
L 3463 178 
Q 3153 47 2828 -22 
Q 2503 -91 2169 -91 
Q 1331 -91 842 396 
Q 353 884 353 1716 
Q 353 2575 817 3079 
Q 1281 3584 2069 3584 
Q 2775 3584 3186 3129 
Q 3597 2675 3597 1894 
z
M 3022 2063 
Q 3016 2534 2758 2815 
Q 2500 3097 2075 3097 
Q 1594 3097 1305 2825 
Q 1016 2553 972 2059 
L 3022 2063 
z
" transform="scale(0.015625)"/>
      <path id="DejaVuSans-6d" d="M 3328 2828 
Q 3544 3216 3844 3400 
Q 4144 3584 4550 3584 
Q 5097 3584 5394 3201 
Q 5691 2819 5691 2113 
L 5691 0 
L 5113 0 
L 5113 2094 
Q 5113 2597 4934 2840 
Q 4756 3084 4391 3084 
Q 3944 3084 3684 2787 
Q 3425 2491 3425 1978 
L 3425 0 
L 2847 0 
L 2847 2094 
Q 2847 2600 2669 2842 
Q 2491 3084 2119 3084 
Q 1678 3084 1418 2786 
Q 1159 2488 1159 1978 
L 1159 0 
L 581 0 
L 581 3500 
L 1159 3500 
L 1159 2956 
Q 1356 3278 1631 3431 
Q 1906 3584 2284 3584 
Q 2666 3584 2933 3390 
Q 3200 3197 3328 2828 
z
" transform="scale(0.015625)"/>
      <path id="DejaVuSans-70" d="M 1159 525 
L 1159 -1331 
L 581 -1331 
L 581 3500 
L 1159 3500 
L 1159 2969 
Q 1341 3281 1617 3432 
Q 1894 3584 2278 3584 
Q 2916 3584 3314 3078 
Q 3713 2572 3713 1747 
Q 3713 922 3314 415 
Q 2916 -91 2278 -91 
Q 1894 -91 1617 61 
Q 1341 213 1159 525 
z
M 3116 1747 
Q 3116 2381 2855 2742 
Q 2594 3103 2138 3103 
Q 1681 3103 1420 2742 
Q 1159 2381 1159 1747 
Q 1159 1113 1420 752 
Q 1681 391 2138 391 
Q 2594 391 2855 752 
Q 3116 1113 3116 1747 
z
" transform="scale(0.015625)"/>
      <path id="DejaVuSans-5f" d="M 3263 -1063 
L 3263 -1509 
L -63 -1509 
L -63 -1063 
L 3263 -1063 
z
" transform="scale(0.015625)"/>
      <path id="DejaVuSans-73" d="M 2834 3397 
L 2834 2853 
Q 2591 2978 2328 3040 
Q 2066 3103 1784 3103 
Q 1356 3103 1142 2972 
Q 928 2841 928 2578 
Q 928 2378 1081 2264 
Q 1234 2150 1697 2047 
L 1894 2003 
Q 2506 1872 2764 1633 
Q 3022 1394 3022 966 
Q 3022 478 2636 193 
Q 2250 -91 1575 -91 
Q 1294 -91 989 -36 
Q 684 19 347 128 
L 347 722 
Q 666 556 975 473 
Q 1284 391 1588 391 
Q 1994 391 2212 530 
Q 2431 669 2431 922 
Q 2431 1156 2273 1281 
Q 2116 1406 1581 1522 
L 1381 1569 
Q 847 1681 609 1914 
Q 372 2147 372 2553 
Q 372 3047 722 3315 
Q 1072 3584 1716 3584 
Q 2034 3584 2315 3537 
Q 2597 3491 2834 3397 
z
" transform="scale(0.015625)"/>
      <path id="DejaVuSans-64" d="M 2906 2969 
L 2906 4863 
L 3481 4863 
L 3481 0 
L 2906 0 
L 2906 525 
Q 2725 213 2448 61 
Q 2172 -91 1784 -91 
Q 1150 -91 751 415 
Q 353 922 353 1747 
Q 353 2572 751 3078 
Q 1150 3584 1784 3584 
Q 2172 3584 2448 3432 
Q 2725 3281 2906 2969 
z
M 947 1747 
Q 947 1113 1208 752 
Q 1469 391 1925 391 
Q 2381 391 2643 752 
Q 2906 1113 2906 1747 
Q 2906 2381 2643 2742 
Q 2381 3103 1925 3103 
Q 1469 3103 1208 2742 
Q 947 2381 947 1747 
z
" transform="scale(0.015625)"/>
      <path id="DejaVuSans-72" d="M 2631 2963 
Q 2534 3019 2420 3045 
Q 2306 3072 2169 3072 
Q 1681 3072 1420 2755 
Q 1159 2438 1159 1844 
L 1159 0 
L 581 0 
L 581 3500 
L 1159 3500 
L 1159 2956 
Q 1341 3275 1631 3429 
Q 1922 3584 2338 3584 
Q 2397 3584 2469 3576 
Q 2541 3569 2628 3553 
L 2631 2963 
z
" transform="scale(0.015625)"/>
      <path id="DejaVuSans-6f" d="M 1959 3097 
Q 1497 3097 1228 2736 
Q 959 2375 959 1747 
Q 959 1119 1226 758 
Q 1494 397 1959 397 
Q 2419 397 2687 759 
Q 2956 1122 2956 1747 
Q 2956 2369 2687 2733 
Q 2419 3097 1959 3097 
z
M 1959 3584 
Q 2709 3584 3137 3096 
Q 3566 2609 3566 1747 
Q 3566 888 3137 398 
Q 2709 -91 1959 -91 
Q 1206 -91 779 398 
Q 353 888 353 1747 
Q 353 2609 779 3096 
Q 1206 3584 1959 3584 
z
" transform="scale(0.015625)"/>
     </defs>
     <use xlink:href="#DejaVuSans-74"/>
     <use xlink:href="#DejaVuSans-65" x="39.208984"/>
     <use xlink:href="#DejaVuSans-6d" x="100.732422"/>
     <use xlink:href="#DejaVuSans-70" x="198.144531"/>
     <use xlink:href="#DejaVuSans-5f" x="261.621094"/>
     <use xlink:href="#DejaVuSans-73" x="311.621094"/>
     <use xlink:href="#DejaVuSans-70" x="363.720703"/>
     <use xlink:href="#DejaVuSans-65" x="427.197266"/>
     <use xlink:href="#DejaVuSans-65" x="488.720703"/>
     <use xlink:href="#DejaVuSans-64" x="550.244141"/>
     <use xlink:href="#DejaVuSans-5f" x="613.720703"/>
     <use xlink:href="#DejaVuSans-65" x="663.720703"/>
     <use xlink:href="#DejaVuSans-72" x="725.244141"/>
     <use xlink:href="#DejaVuSans-72" x="764.607422"/>
     <use xlink:href="#DejaVuSans-6f" x="803.470703"/>
     <use xlink:href="#DejaVuSans-72" x="864.652344"/>
    </g>
   </g>
   <g id="legend_1">
    <g id="patch_7">
     <path d="M 511.222656 84.43125 
L 595.529688 84.43125 
Q 598.529688 84.43125 598.529688 81.43125 
L 598.529688 38.896875 
Q 598.529688 35.896875 595.529688 35.896875 
L 511.222656 35.896875 
Q 508.222656 35.896875 508.222656 38.896875 
L 508.222656 81.43125 
Q 508.222656 84.43125 511.222656 84.43125 
z
" style="fill: #ffffff; opacity: 0.8; stroke: #cccccc; stroke-linejoin: miter"/>
    </g>
    <g id="line2d_17">
     <path d="M 514.222656 48.044531 
L 529.222656 48.044531 
L 544.222656 48.044531 
" style="fill: none; stroke: #1f77b4; stroke-width: 1.5; stroke-linecap: square"/>
    </g>
    <g id="text_16">
     <!-- error -->
     <g transform="translate(556.222656 53.294531)scale(0.15 -0.15)">
      <use xlink:href="#DejaVuSans-65"/>
      <use xlink:href="#DejaVuSans-72" x="61.523438"/>
      <use xlink:href="#DejaVuSans-72" x="100.886719"/>
      <use xlink:href="#DejaVuSans-6f" x="139.75"/>
      <use xlink:href="#DejaVuSans-72" x="200.931641"/>
     </g>
    </g>
    <g id="line2d_18">
     <path d="M 514.222656 70.061719 
L 529.222656 70.061719 
L 544.222656 70.061719 
" style="fill: none; stroke-dasharray: 5.55,2.4; stroke-dashoffset: 0; stroke: #ff0000; stroke-width: 1.5"/>
    </g>
    <g id="text_17">
     <!-- zero -->
     <g transform="translate(556.222656 75.311719)scale(0.15 -0.15)">
      <defs>
       <path id="DejaVuSans-7a" d="M 353 3500 
L 3084 3500 
L 3084 2975 
L 922 459 
L 3084 459 
L 3084 0 
L 275 0 
L 275 525 
L 2438 3041 
L 353 3041 
L 353 3500 
z
" transform="scale(0.015625)"/>
      </defs>
      <use xlink:href="#DejaVuSans-7a"/>
      <use xlink:href="#DejaVuSans-65" x="52.490234"/>
      <use xlink:href="#DejaVuSans-72" x="114.013672"/>
      <use xlink:href="#DejaVuSans-6f" x="152.876953"/>
     </g>
    </g>
   </g>
  </g>
 </g>
 <defs>
  <clipPath id="p7e2b7f65cb">
   <rect x="48.029687" y="28.396875" width="558" height="434.88"/>
  </clipPath>
 </defs>
</svg>
