<?xml version="1.0" encoding="utf-8" standalone="no"?>
<!DOCTYPE svg PUBLIC "-//W3C//DTD SVG 1.1//EN"
  "http://www.w3.org/Graphics/SVG/1.1/DTD/svg11.dtd">
<svg xmlns:xlink="http://www.w3.org/1999/xlink" width="283.464567pt" height="170.07874pt" viewBox="0 0 283.464567 170.07874" xmlns="http://www.w3.org/2000/svg" version="1.1">
 <metadata>
  <rdf:RDF xmlns:dc="http://purl.org/dc/elements/1.1/" xmlns:cc="http://creativecommons.org/ns#" xmlns:rdf="http://www.w3.org/1999/02/22-rdf-syntax-ns#">
   <cc:Work>
    <dc:type rdf:resource="http://purl.org/dc/dcmitype/StillImage"/>
    <dc:date>2023-02-23T21:43:07.953478</dc:date>
    <dc:format>image/svg+xml</dc:format>
    <dc:creator>
     <cc:Agent>
      <dc:title>Matplotlib v3.5.2, https://matplotlib.org/</dc:title>
     </cc:Agent>
    </dc:creator>
   </cc:Work>
  </rdf:RDF>
 </metadata>
 <defs>
  <style type="text/css">*{stroke-linejoin: round; stroke-linecap: butt}</style>
 </defs>
 <g id="figure_1">
  <g id="patch_1">
   <path d="M 0 170.07874 
L 283.464567 170.07874 
L 283.464567 0 
L 0 0 
L 0 170.07874 
z
" style="fill: none"/>
  </g>
  <g id="axes_1">
   <g id="patch_2">
    <path d="M 31.60125 139.19749 
L 265.659567 139.19749 
L 265.659567 11.97301 
L 31.60125 11.97301 
z
" style="fill: #ffffff"/>
   </g>
   <g id="matplotlib.axis_1">
    <g id="xtick_1">
     <g id="line2d_1">
      <defs>
       <path id="mc104629840" d="M 0 0 
L 0 -3.5 
" style="stroke: #000000; stroke-width: 0.8"/>
      </defs>
      <g>
       <use xlink:href="#mc104629840" x="42.240264" y="139.19749" style="stroke: #000000; stroke-width: 0.8"/>
      </g>
     </g>
     <g id="text_1">
      <!-- 0 -->
      <g transform="translate(40.490264 147.50999)scale(0.07 -0.07)">
       <defs>
        <path id="SimHei-30" d="M 225 2537 
Q 250 3200 412 3587 
Q 575 3975 875 4225 
Q 1175 4475 1612 4475 
Q 2050 4475 2375 4112 
Q 2700 3750 2800 3200 
Q 2900 2650 2862 1937 
Q 2825 1225 2612 775 
Q 2400 325 1975 150 
Q 1550 -25 1125 187 
Q 700 400 525 750 
Q 350 1100 275 1487 
Q 200 1875 225 2537 
z
M 750 2687 
Q 675 2000 800 1462 
Q 925 925 1212 700 
Q 1500 475 1800 612 
Q 2100 750 2237 1162 
Q 2375 1575 2375 2062 
Q 2375 2550 2337 2950 
Q 2300 3350 2112 3675 
Q 1925 4000 1612 4012 
Q 1300 4025 1062 3700 
Q 825 3375 750 2687 
z
" transform="scale(0.015625)"/>
       </defs>
       <use xlink:href="#SimHei-30"/>
      </g>
     </g>
    </g>
    <g id="xtick_2">
     <g id="line2d_2">
      <g>
       <use xlink:href="#mc104629840" x="74.157308" y="139.19749" style="stroke: #000000; stroke-width: 0.8"/>
      </g>
     </g>
     <g id="text_2">
      <!-- 150 -->
      <g transform="translate(68.907308 147.50999)scale(0.07 -0.07)">
       <defs>
        <path id="SimHei-31" d="M 1400 3600 
Q 1075 3275 575 2975 
L 575 3450 
Q 1200 3875 1600 4450 
L 1900 4450 
L 1900 150 
L 1400 150 
L 1400 3600 
z
" transform="scale(0.015625)"/>
        <path id="SimHei-35" d="M 550 1325 
Q 725 650 1150 575 
Q 1575 500 1837 662 
Q 2100 825 2212 1087 
Q 2325 1350 2312 1675 
Q 2300 2000 2137 2225 
Q 1975 2450 1725 2525 
Q 1475 2600 1162 2525 
Q 850 2450 650 2175 
L 225 2225 
Q 275 2375 700 4375 
L 2675 4375 
L 2675 3925 
L 1075 3925 
Q 950 3250 825 2850 
Q 1200 3025 1525 3012 
Q 1850 3000 2150 2862 
Q 2450 2725 2587 2487 
Q 2725 2250 2787 2012 
Q 2850 1775 2837 1500 
Q 2825 1225 2725 937 
Q 2625 650 2425 462 
Q 2225 275 1937 162 
Q 1650 50 1275 75 
Q 900 100 562 350 
Q 225 600 100 1200 
L 550 1325 
z
" transform="scale(0.015625)"/>
       </defs>
       <use xlink:href="#SimHei-31"/>
       <use xlink:href="#SimHei-35" x="50"/>
       <use xlink:href="#SimHei-30" x="100"/>
      </g>
     </g>
    </g>
    <g id="xtick_3">
     <g id="line2d_3">
      <g>
       <use xlink:href="#mc104629840" x="106.074351" y="139.19749" style="stroke: #000000; stroke-width: 0.8"/>
      </g>
     </g>
     <g id="text_3">
      <!-- 300 -->
      <g transform="translate(100.824351 147.50999)scale(0.07 -0.07)">
       <defs>
        <path id="SimHei-33" d="M 250 1225 
L 700 1300 
Q 800 975 1025 762 
Q 1250 550 1587 562 
Q 1925 575 2125 837 
Q 2325 1100 2300 1437 
Q 2275 1775 2037 1962 
Q 1800 2150 1275 2225 
L 1275 2550 
Q 1800 2600 2037 2825 
Q 2275 3050 2250 3412 
Q 2225 3775 1925 3937 
Q 1625 4100 1287 3975 
Q 950 3850 750 3275 
L 300 3350 
Q 450 3800 712 4100 
Q 975 4400 1425 4450 
Q 1875 4500 2212 4337 
Q 2550 4175 2687 3837 
Q 2825 3500 2725 3100 
Q 2625 2700 2150 2400 
Q 2500 2250 2687 1950 
Q 2875 1650 2812 1162 
Q 2750 675 2375 375 
Q 2000 75 1525 87 
Q 1050 100 700 387 
Q 350 675 250 1225 
z
" transform="scale(0.015625)"/>
       </defs>
       <use xlink:href="#SimHei-33"/>
       <use xlink:href="#SimHei-30" x="50"/>
       <use xlink:href="#SimHei-30" x="100"/>
      </g>
     </g>
    </g>
    <g id="xtick_4">
     <g id="line2d_4">
      <g>
       <use xlink:href="#mc104629840" x="137.991394" y="139.19749" style="stroke: #000000; stroke-width: 0.8"/>
      </g>
     </g>
     <g id="text_4">
      <!-- 450 -->
      <g transform="translate(132.741394 147.50999)scale(0.07 -0.07)">
       <defs>
        <path id="SimHei-34" d="M 2000 1100 
L 75 1100 
L 75 1525 
L 2100 4450 
L 2475 4450 
L 2475 1525 
L 3075 1525 
L 3075 1100 
L 2475 1100 
L 2475 150 
L 2000 150 
L 2000 1100 
z
M 2000 1525 
L 2000 3500 
L 600 1525 
L 2000 1525 
z
" transform="scale(0.015625)"/>
       </defs>
       <use xlink:href="#SimHei-34"/>
       <use xlink:href="#SimHei-35" x="50"/>
       <use xlink:href="#SimHei-30" x="100"/>
      </g>
     </g>
    </g>
    <g id="xtick_5">
     <g id="line2d_5">
      <g>
       <use xlink:href="#mc104629840" x="169.908437" y="139.19749" style="stroke: #000000; stroke-width: 0.8"/>
      </g>
     </g>
     <g id="text_5">
      <!-- 600 -->
      <g transform="translate(164.658437 147.50999)scale(0.07 -0.07)">
       <defs>
        <path id="SimHei-36" d="M 250 1612 
Q 275 1975 387 2225 
Q 500 2475 725 2850 
L 1750 4450 
L 2325 4450 
L 1275 2800 
Q 1950 2975 2350 2750 
Q 2750 2525 2887 2237 
Q 3025 1950 3037 1612 
Q 3050 1275 2937 950 
Q 2825 625 2537 362 
Q 2250 100 1737 75 
Q 1225 50 862 262 
Q 500 475 362 862 
Q 225 1250 250 1612 
z
M 1025 787 
Q 1250 550 1625 525 
Q 2000 500 2250 775 
Q 2500 1050 2500 1575 
Q 2500 2100 2187 2300 
Q 1875 2500 1487 2450 
Q 1100 2400 925 2075 
Q 750 1750 775 1387 
Q 800 1025 1025 787 
z
" transform="scale(0.015625)"/>
       </defs>
       <use xlink:href="#SimHei-36"/>
       <use xlink:href="#SimHei-30" x="50"/>
       <use xlink:href="#SimHei-30" x="100"/>
      </g>
     </g>
    </g>
    <g id="xtick_6">
     <g id="line2d_6">
      <g>
       <use xlink:href="#mc104629840" x="201.82548" y="139.19749" style="stroke: #000000; stroke-width: 0.8"/>
      </g>
     </g>
     <g id="text_6">
      <!-- 750 -->
      <g transform="translate(196.57548 147.50999)scale(0.07 -0.07)">
       <defs>
        <path id="SimHei-37" d="M 850 150 
Q 1300 2050 2425 3925 
L 275 3925 
L 275 4375 
L 2950 4375 
L 2950 3950 
Q 1775 2050 1400 150 
L 850 150 
z
" transform="scale(0.015625)"/>
       </defs>
       <use xlink:href="#SimHei-37"/>
       <use xlink:href="#SimHei-35" x="50"/>
       <use xlink:href="#SimHei-30" x="100"/>
      </g>
     </g>
    </g>
    <g id="xtick_7">
     <g id="line2d_7">
      <g>
       <use xlink:href="#mc104629840" x="233.742524" y="139.19749" style="stroke: #000000; stroke-width: 0.8"/>
      </g>
     </g>
     <g id="text_7">
      <!-- 900 -->
      <g transform="translate(228.492524 147.50999)scale(0.07 -0.07)">
       <defs>
        <path id="SimHei-39" d="M 800 75 
Q 1350 1000 1700 1750 
Q 1075 1650 662 1912 
Q 250 2175 162 2625 
Q 75 3075 175 3437 
Q 275 3800 487 4037 
Q 700 4275 1000 4375 
Q 1300 4475 1537 4475 
Q 1775 4475 2025 4375 
Q 2275 4275 2475 4075 
Q 2675 3875 2750 3662 
Q 2825 3450 2825 3112 
Q 2825 2775 2575 2250 
Q 2325 1725 1350 75 
L 800 75 
z
M 662 2875 
Q 700 2550 937 2337 
Q 1175 2125 1450 2150 
Q 1725 2175 1887 2300 
Q 2050 2425 2200 2725 
Q 2300 3100 2250 3362 
Q 2200 3625 1987 3800 
Q 1775 3975 1525 3975 
Q 1375 4000 1137 3900 
Q 900 3800 762 3500 
Q 625 3200 662 2875 
z
" transform="scale(0.015625)"/>
       </defs>
       <use xlink:href="#SimHei-39"/>
       <use xlink:href="#SimHei-30" x="50"/>
       <use xlink:href="#SimHei-30" x="100"/>
      </g>
     </g>
    </g>
    <g id="xtick_8">
     <g id="line2d_8">
      <g>
       <use xlink:href="#mc104629840" x="265.659567" y="139.19749" style="stroke: #000000; stroke-width: 0.8"/>
      </g>
     </g>
     <g id="text_8">
      <!-- 1050 -->
      <g transform="translate(258.659567 147.50999)scale(0.07 -0.07)">
       <use xlink:href="#SimHei-31"/>
       <use xlink:href="#SimHei-30" x="50"/>
       <use xlink:href="#SimHei-35" x="100"/>
       <use xlink:href="#SimHei-30" x="150"/>
      </g>
     </g>
    </g>
    <g id="text_9">
     <!-- 时间 -->
     <g transform="translate(141.630408 157.990459)scale(0.07 -0.07)">
      <defs>
       <path id="SimHei-65f6" d="M 2525 4575 
Q 2500 3675 2500 2400 
Q 2500 1125 2525 400 
L 2000 400 
L 2000 875 
L 1000 875 
L 1000 50 
L 475 50 
Q 500 1200 500 2350 
Q 500 3525 475 4575 
L 2525 4575 
z
M 4875 3825 
Q 4875 4575 4850 5225 
L 5400 5225 
Q 5375 4575 5375 3825 
Q 5750 3825 6175 3850 
L 6175 3375 
Q 5750 3400 5375 3400 
L 5375 50 
Q 5375 -325 5075 -425 
Q 4775 -525 4300 -575 
Q 4300 -275 4025 0 
Q 4500 -50 4687 -25 
Q 4875 0 4875 300 
L 4875 3400 
Q 3625 3400 2775 3375 
L 2775 3850 
Q 3575 3825 4875 3825 
z
M 2000 1300 
L 2000 2550 
L 1000 2550 
L 1000 1300 
L 2000 1300 
z
M 2000 2975 
L 2000 4150 
L 1000 4150 
L 1000 2975 
L 2000 2975 
z
M 3550 2725 
Q 3875 2200 4175 1600 
Q 3925 1525 3650 1375 
Q 3450 1975 3075 2500 
Q 3300 2600 3550 2725 
z
" transform="scale(0.015625)"/>
       <path id="SimHei-95f4" d="M 4450 3550 
Q 4425 3075 4425 2725 
L 4425 1400 
Q 4425 1075 4450 625 
L 1925 625 
Q 1950 1075 1950 1425 
L 1950 2725 
Q 1950 3075 1925 3550 
L 4450 3550 
z
M 5800 4875 
Q 5775 4400 5775 3925 
L 5775 250 
Q 5800 -325 5462 -450 
Q 5125 -575 4725 -625 
Q 4700 -325 4525 -25 
Q 5000 -50 5137 25 
Q 5275 100 5275 350 
L 5275 4450 
L 3775 4450 
Q 3175 4450 2650 4425 
L 2650 4900 
Q 3175 4875 3775 4875 
L 5800 4875 
z
M 550 -525 
Q 600 -25 600 525 
L 600 3150 
Q 600 3675 550 4025 
L 1125 4025 
Q 1100 3650 1100 3300 
L 1100 500 
Q 1100 0 1125 -525 
L 550 -525 
z
M 3950 1025 
L 3950 1950 
L 2425 1950 
L 2425 1025 
L 3950 1025 
z
M 3950 2350 
L 3950 3150 
L 2425 3150 
L 2425 2350 
L 3950 2350 
z
M 1525 5300 
Q 1750 5000 2225 4350 
Q 1950 4225 1700 4075 
Q 1450 4575 1075 5025 
Q 1350 5225 1525 5300 
z
" transform="scale(0.015625)"/>
      </defs>
      <use xlink:href="#SimHei-65f6"/>
      <use xlink:href="#SimHei-95f4" x="100"/>
     </g>
    </g>
   </g>
   <g id="matplotlib.axis_2">
    <g id="ytick_1">
     <g id="line2d_9">
      <defs>
       <path id="m2f3e41ca7f" d="M 0 0 
L 3.5 0 
" style="stroke: #000000; stroke-width: 0.8"/>
      </defs>
      <g>
       <use xlink:href="#m2f3e41ca7f" x="31.60125" y="134.975092" style="stroke: #000000; stroke-width: 0.8"/>
      </g>
     </g>
     <g id="text_10">
      <!-- -5 -->
      <g transform="translate(21.10125 137.381342)scale(0.07 -0.07)">
       <defs>
        <path id="SimHei-2d" d="M 2975 2125 
L 125 2125 
L 125 2525 
L 2975 2525 
L 2975 2125 
z
" transform="scale(0.015625)"/>
       </defs>
       <use xlink:href="#SimHei-2d"/>
       <use xlink:href="#SimHei-35" x="50"/>
      </g>
     </g>
    </g>
    <g id="ytick_2">
     <g id="line2d_10">
      <g>
       <use xlink:href="#m2f3e41ca7f" x="31.60125" y="117.594017" style="stroke: #000000; stroke-width: 0.8"/>
      </g>
     </g>
     <g id="text_11">
      <!-- -4 -->
      <g transform="translate(21.10125 120.000267)scale(0.07 -0.07)">
       <use xlink:href="#SimHei-2d"/>
       <use xlink:href="#SimHei-34" x="50"/>
      </g>
     </g>
    </g>
    <g id="ytick_3">
     <g id="line2d_11">
      <g>
       <use xlink:href="#m2f3e41ca7f" x="31.60125" y="100.212943" style="stroke: #000000; stroke-width: 0.8"/>
      </g>
     </g>
     <g id="text_12">
      <!-- -3 -->
      <g transform="translate(21.10125 102.619193)scale(0.07 -0.07)">
       <use xlink:href="#SimHei-2d"/>
       <use xlink:href="#SimHei-33" x="50"/>
      </g>
     </g>
    </g>
    <g id="ytick_4">
     <g id="line2d_12">
      <g>
       <use xlink:href="#m2f3e41ca7f" x="31.60125" y="82.831868" style="stroke: #000000; stroke-width: 0.8"/>
      </g>
     </g>
     <g id="text_13">
      <!-- -2 -->
      <g transform="translate(21.10125 85.238118)scale(0.07 -0.07)">
       <defs>
        <path id="SimHei-32" d="M 300 250 
Q 325 625 650 925 
Q 975 1225 1475 1862 
Q 1975 2500 2125 2850 
Q 2275 3200 2237 3450 
Q 2200 3700 2000 3862 
Q 1800 4025 1537 4000 
Q 1275 3975 1037 3800 
Q 800 3625 675 3275 
L 200 3350 
Q 400 3925 712 4187 
Q 1025 4450 1450 4475 
Q 1700 4500 1900 4462 
Q 2100 4425 2312 4287 
Q 2525 4150 2662 3875 
Q 2800 3600 2762 3212 
Q 2725 2825 2375 2287 
Q 2025 1750 1025 600 
L 2825 600 
L 2825 150 
L 300 150 
L 300 250 
z
" transform="scale(0.015625)"/>
       </defs>
       <use xlink:href="#SimHei-2d"/>
       <use xlink:href="#SimHei-32" x="50"/>
      </g>
     </g>
    </g>
    <g id="ytick_5">
     <g id="line2d_13">
      <g>
       <use xlink:href="#m2f3e41ca7f" x="31.60125" y="65.450794" style="stroke: #000000; stroke-width: 0.8"/>
      </g>
     </g>
     <g id="text_14">
      <!-- -1 -->
      <g transform="translate(21.10125 67.857044)scale(0.07 -0.07)">
       <use xlink:href="#SimHei-2d"/>
       <use xlink:href="#SimHei-31" x="50"/>
      </g>
     </g>
    </g>
    <g id="ytick_6">
     <g id="line2d_14">
      <g>
       <use xlink:href="#m2f3e41ca7f" x="31.60125" y="48.069719" style="stroke: #000000; stroke-width: 0.8"/>
      </g>
     </g>
     <g id="text_15">
      <!-- 0 -->
      <g transform="translate(24.60125 50.475969)scale(0.07 -0.07)">
       <use xlink:href="#SimHei-30"/>
      </g>
     </g>
    </g>
    <g id="ytick_7">
     <g id="line2d_15">
      <g>
       <use xlink:href="#m2f3e41ca7f" x="31.60125" y="30.688644" style="stroke: #000000; stroke-width: 0.8"/>
      </g>
     </g>
     <g id="text_16">
      <!-- 1 -->
      <g transform="translate(24.60125 33.094894)scale(0.07 -0.07)">
       <use xlink:href="#SimHei-31"/>
      </g>
     </g>
    </g>
    <g id="ytick_8">
     <g id="line2d_16">
      <g>
       <use xlink:href="#m2f3e41ca7f" x="31.60125" y="13.30757" style="stroke: #000000; stroke-width: 0.8"/>
      </g>
     </g>
     <g id="text_17">
      <!-- 2 -->
      <g transform="translate(24.60125 15.71382)scale(0.07 -0.07)">
       <use xlink:href="#SimHei-32"/>
      </g>
     </g>
    </g>
    <g id="text_18">
     <!-- 值 -->
     <g transform="translate(16.22625 79.08525)rotate(-90)scale(0.07 -0.07)">
      <defs>
       <path id="SimHei-503c" d="M 3675 4450 
L 3675 5100 
Q 3975 5075 4350 5050 
Q 4225 4875 4200 4450 
L 5125 4450 
Q 5550 4450 5875 4475 
L 5875 4025 
Q 5525 4050 5125 4050 
L 4175 4050 
L 4125 3500 
L 5400 3500 
Q 5375 3200 5375 2700 
L 5375 150 
Q 5875 150 6100 175 
L 6100 -275 
Q 5775 -250 5200 -250 
L 2850 -250 
Q 2275 -250 1900 -275 
L 1900 175 
Q 2125 150 2600 150 
L 2600 2700 
Q 2600 3175 2575 3500 
L 3600 3500 
L 3650 4050 
L 3200 4050 
Q 2575 4050 2225 4025 
L 2225 4475 
Q 2550 4450 3200 4450 
L 3675 4450 
z
M 2225 4900 
Q 2025 4675 1650 3750 
L 1650 450 
Q 1650 -75 1675 -550 
L 1150 -550 
Q 1175 -125 1175 375 
L 1175 2950 
Q 875 2450 625 2150 
Q 425 2425 250 2575 
Q 500 2825 937 3537 
Q 1375 4250 1625 5150 
Q 1975 4975 2225 4900 
z
M 4925 2650 
L 4925 3150 
L 3075 3150 
L 3075 2650 
L 4925 2650 
z
M 4925 150 
L 4925 625 
L 3075 625 
L 3075 150 
L 4925 150 
z
M 4925 1000 
L 4925 1450 
L 3075 1450 
L 3075 1000 
L 4925 1000 
z
M 4925 1825 
L 4925 2275 
L 3075 2275 
L 3075 1825 
L 4925 1825 
z
" transform="scale(0.015625)"/>
      </defs>
      <use xlink:href="#SimHei-503c"/>
     </g>
    </g>
   </g>
   <g id="line2d_17">
    <path d="M 42.240264 47.962316 
L 42.665825 47.564863 
L 43.091386 47.564863 
L 43.304166 47.697347 
L 43.516946 47.697347 
L 43.729726 47.564863 
L 43.942507 47.697347 
L 44.155287 47.697347 
L 44.368067 47.564863 
L 44.580848 47.697347 
L 45.006408 47.697347 
L 45.219188 47.829831 
L 45.431969 47.564863 
L 45.644749 47.829831 
L 45.857529 47.697347 
L 46.07031 47.697347 
L 46.28309 47.829831 
L 46.49587 47.829831 
L 46.70865 47.697347 
L 46.921431 47.697347 
L 47.134211 47.829831 
L 48.198112 47.829831 
L 48.410893 47.962316 
L 48.623673 47.829831 
L 49.049234 47.829831 
L 49.262014 47.962316 
L 49.474794 47.962316 
L 49.687574 47.829831 
L 49.900355 47.962316 
L 50.113135 47.962316 
L 50.325915 47.829831 
L 50.538696 47.962316 
L 51.177037 47.962316 
L 51.389817 48.0948 
L 51.602597 47.829831 
L 51.815377 48.0948 
L 52.028158 47.829831 
L 52.240938 48.0948 
L 52.453718 47.962316 
L 52.879279 47.962316 
L 53.092059 48.0948 
L 53.304839 47.962316 
L 53.7304 47.962316 
L 53.94318 48.0948 
L 54.155961 47.829831 
L 54.581521 48.0948 
L 54.794301 47.962316 
L 55.007082 47.962316 
L 55.219862 47.829831 
L 55.432642 47.962316 
L 56.070983 47.962316 
L 56.283763 47.829831 
L 56.496544 47.829831 
L 56.709324 47.962316 
L 56.922104 47.829831 
L 57.986006 47.829831 
L 58.198786 47.697347 
L 58.411566 47.829831 
L 58.624347 47.697347 
L 59.049907 47.697347 
L 59.262687 48.227284 
L 59.475468 47.697347 
L 59.688248 47.564863 
L 59.901028 47.829831 
L 60.113809 47.564863 
L 60.326589 47.697347 
L 60.539369 47.564863 
L 60.752149 47.564863 
L 60.96493 47.697347 
L 61.39049 47.432379 
L 61.603271 47.564863 
L 61.816051 47.564863 
L 62.028831 47.697347 
L 62.241611 47.034927 
L 62.667172 47.697347 
L 62.879952 47.432379 
L 63.092733 47.564863 
L 63.305513 47.432379 
L 63.518293 133.414559 
L 63.731074 47.564863 
L 63.943854 47.167411 
L 64.156634 47.034927 
L 65.433316 47.034927 
L 65.646096 46.902443 
L 65.858876 47.034927 
L 66.071657 47.034927 
L 66.284437 46.902443 
L 66.497217 46.902443 
L 66.709998 47.034927 
L 67.135558 46.769959 
L 67.348338 46.902443 
L 67.561119 46.902443 
L 67.773899 46.769959 
L 67.986679 46.902443 
L 68.41224 46.637475 
L 68.62502 46.902443 
L 68.8378 46.637475 
L 69.050581 46.769959 
L 69.263361 46.637475 
L 69.476141 46.769959 
L 69.688922 46.637475 
L 70.114482 46.637475 
L 70.327262 46.504991 
L 70.540043 46.637475 
L 70.752823 46.637475 
L 70.965603 46.504991 
L 71.178384 46.637475 
L 71.391164 46.372506 
L 71.603944 46.637475 
L 71.816724 46.504991 
L 72.029505 46.769959 
L 72.455065 46.372506 
L 72.667846 46.504991 
L 72.880626 46.372506 
L 73.944527 46.372506 
L 74.157308 46.240022 
L 74.370088 46.372506 
L 74.582868 46.372506 
L 74.795648 46.107538 
L 75.008429 46.372506 
L 75.221209 46.107538 
L 75.433989 46.240022 
L 75.85955 46.240022 
L 76.07233 46.107538 
L 76.285111 46.107538 
L 76.497891 46.240022 
L 76.710671 46.107538 
L 77.987353 46.107538 
L 78.200133 45.84257 
L 78.412913 46.107538 
L 78.625694 45.975054 
L 79.476815 45.975054 
L 79.689595 45.84257 
L 79.902375 46.107538 
L 80.115156 45.84257 
L 81.604618 45.84257 
L 81.817398 45.710086 
L 82.030178 45.84257 
L 82.242959 45.84257 
L 82.455739 45.577602 
L 82.668519 45.84257 
L 83.09408 45.577602 
L 83.30686 46.107538 
L 83.51964 45.577602 
L 83.732421 45.445118 
L 84.157981 45.710086 
L 84.370761 45.710086 
L 84.583542 45.577602 
L 85.009102 45.577602 
L 85.221883 45.445118 
L 85.434663 45.577602 
L 85.860223 45.577602 
L 86.073004 45.445118 
L 86.285784 45.577602 
L 86.498564 45.312634 
L 86.711345 45.577602 
L 86.924125 45.445118 
L 87.562466 45.445118 
L 87.775246 45.312634 
L 87.988026 45.312634 
L 88.200807 45.577602 
L 88.413587 45.312634 
L 88.626367 45.312634 
L 89.051928 45.577602 
L 89.264708 45.18015 
L 89.477488 45.312634 
L 89.903049 45.312634 
L 90.115829 45.18015 
L 90.32861 45.312634 
L 90.54139 45.18015 
L 90.75417 45.312634 
L 90.96695 45.18015 
L 92.030852 45.18015 
L 92.243632 45.047665 
L 92.456412 45.18015 
L 92.669193 45.047665 
L 92.881973 45.18015 
L 93.094753 45.047665 
L 93.307534 45.18015 
L 93.520314 45.047665 
L 93.733094 45.047665 
L 93.945874 44.915181 
L 94.158655 45.18015 
L 94.371435 45.047665 
L 94.584215 45.047665 
L 94.796996 44.915181 
L 95.009776 45.047665 
L 95.222556 44.915181 
L 95.435336 45.047665 
L 95.648117 44.915181 
L 95.860897 45.047665 
L 96.073677 45.047665 
L 96.286458 44.915181 
L 96.499238 44.650213 
L 96.712018 45.047665 
L 97.137579 44.782697 
L 97.350359 68.232383 
L 97.563139 44.915181 
L 97.9887 44.650213 
L 98.20148 44.782697 
L 98.41426 44.650213 
L 98.627041 44.650213 
L 98.839821 44.782697 
L 99.052601 44.650213 
L 99.265382 44.650213 
L 99.478162 44.782697 
L 99.690942 44.650213 
L 100.116503 44.650213 
L 100.329283 44.517729 
L 100.542063 44.650213 
L 100.967624 44.650213 
L 101.180404 44.517729 
L 101.393185 44.650213 
L 101.605965 44.517729 
L 101.818745 44.650213 
L 102.031525 44.385245 
L 102.244306 44.650213 
L 102.457086 44.517729 
L 102.669866 44.650213 
L 102.882647 44.385245 
L 103.095427 44.517729 
L 103.520987 44.517729 
L 103.733768 44.385245 
L 103.946548 44.650213 
L 104.159328 44.385245 
L 104.372109 44.517729 
L 104.584889 44.385245 
L 104.797669 44.385245 
L 105.010449 44.517729 
L 105.22323 44.385245 
L 105.861571 44.385245 
L 106.074351 44.517729 
L 106.287131 44.385245 
L 106.925472 44.385245 
L 107.138252 44.252761 
L 107.351033 44.385245 
L 107.563813 44.252761 
L 107.776593 44.252761 
L 107.989373 44.650213 
L 108.414934 44.252761 
L 108.627714 44.385245 
L 108.840495 44.252761 
L 109.904396 44.252761 
L 110.117176 44.120277 
L 110.329957 44.385245 
L 110.542737 44.120277 
L 110.755517 44.252761 
L 110.968297 44.252761 
L 111.181078 44.120277 
L 111.393858 44.252761 
L 111.606638 44.120277 
L 112.032199 44.120277 
L 112.244979 44.385245 
L 112.457759 44.120277 
L 114.372782 44.120277 
L 114.585562 43.987793 
L 114.798343 43.987793 
L 115.011123 44.120277 
L 115.223903 44.120277 
L 115.436684 43.855309 
L 115.649464 44.120277 
L 115.862244 44.120277 
L 116.075024 43.855309 
L 116.287805 44.120277 
L 116.500585 43.987793 
L 117.777267 43.987793 
L 117.990047 43.855309 
L 118.202827 43.987793 
L 118.415608 43.987793 
L 118.628388 43.855309 
L 118.841168 44.120277 
L 119.053948 43.855309 
L 119.266729 43.855309 
L 119.479509 43.987793 
L 119.692289 43.987793 
L 119.90507 43.855309 
L 120.11785 43.855309 
L 120.33063 57.766139 
L 120.54341 43.855309 
L 120.968971 43.855309 
L 121.181751 43.59034 
L 121.394532 43.855309 
L 121.607312 43.855309 
L 121.820092 43.722824 
L 122.032872 43.855309 
L 122.245653 43.722824 
L 122.458433 43.722824 
L 122.671213 43.855309 
L 122.883994 43.722824 
L 123.096774 43.855309 
L 123.309554 43.59034 
L 123.735115 43.855309 
L 123.947895 43.59034 
L 124.160675 43.855309 
L 124.586236 43.59034 
L 124.799016 43.855309 
L 125.011796 43.59034 
L 125.224577 43.722824 
L 125.650137 43.722824 
L 125.862918 43.59034 
L 126.075698 43.722824 
L 126.501259 43.722824 
L 126.714039 43.59034 
L 126.926819 43.722824 
L 127.139599 43.59034 
L 127.35238 43.59034 
L 127.56516 43.722824 
L 127.77794 43.59034 
L 127.990721 43.59034 
L 128.203501 43.722824 
L 128.416281 43.59034 
L 128.841842 43.59034 
L 129.054622 43.722824 
L 129.267402 43.59034 
L 129.905743 43.59034 
L 130.118523 43.722824 
L 130.331304 43.457856 
L 130.544084 43.59034 
L 130.756864 43.59034 
L 130.969645 47.432379 
L 131.182425 43.457856 
L 131.395205 43.59034 
L 131.607985 43.59034 
L 131.820766 43.457856 
L 132.033546 43.59034 
L 132.246326 43.59034 
L 132.459107 43.457856 
L 132.671887 43.59034 
L 132.884667 43.457856 
L 133.097447 43.59034 
L 133.310228 43.457856 
L 133.523008 43.59034 
L 133.735788 43.457856 
L 134.374129 43.457856 
L 134.586909 43.59034 
L 134.79969 43.457856 
L 135.01247 43.59034 
L 135.22525 43.325372 
L 135.650811 43.59034 
L 136.076371 43.325372 
L 136.501932 43.59034 
L 136.714712 43.325372 
L 136.927493 43.457856 
L 137.778614 43.457856 
L 137.991394 43.325372 
L 138.204174 43.457856 
L 138.416955 43.325372 
L 138.842515 43.59034 
L 139.055295 43.325372 
L 139.268076 43.457856 
L 139.480856 43.325372 
L 139.693636 43.457856 
L 139.906417 43.325372 
L 140.331977 43.59034 
L 140.757538 43.325372 
L 140.970318 43.457856 
L 141.183098 43.325372 
L 142.03422 43.325372 
L 142.247 43.457856 
L 142.45978 43.325372 
L 143.098121 43.325372 
L 143.310901 43.457856 
L 143.523682 43.325372 
L 144.374803 43.325372 
L 144.587583 43.192888 
L 144.800363 43.457856 
L 145.225924 43.192888 
L 145.651484 43.457856 
L 145.864265 43.192888 
L 146.077045 43.325372 
L 146.289825 43.325372 
L 146.502606 43.192888 
L 146.715386 43.457856 
L 146.928166 43.192888 
L 147.140946 43.325372 
L 147.353727 43.192888 
L 147.566507 43.325372 
L 147.779287 43.192888 
L 147.992068 43.325372 
L 148.204848 43.192888 
L 148.417628 43.325372 
L 148.630408 43.192888 
L 148.843189 43.457856 
L 149.055969 43.192888 
L 149.268749 43.325372 
L 149.48153 43.192888 
L 149.69431 43.192888 
L 149.90709 43.325372 
L 150.11987 43.192888 
L 150.332651 43.325372 
L 150.545431 43.192888 
L 150.758211 43.192888 
L 150.970992 43.325372 
L 151.183772 43.192888 
L 151.396552 43.192888 
L 151.609332 43.060404 
L 151.822113 43.325372 
L 152.034893 43.192888 
L 152.460454 43.192888 
L 152.673234 43.325372 
L 152.886014 43.192888 
L 153.524355 43.192888 
L 153.737135 43.060404 
L 153.949916 43.325372 
L 154.162696 43.192888 
L 154.588257 43.192888 
L 154.801037 43.060404 
L 155.013817 43.192888 
L 155.652158 43.192888 
L 155.864938 43.060404 
L 156.077719 43.192888 
L 156.503279 43.192888 
L 156.716059 43.060404 
L 156.92884 43.192888 
L 157.14162 43.192888 
L 157.3544 43.060404 
L 157.567181 43.192888 
L 157.779961 43.192888 
L 157.992741 43.060404 
L 158.205521 43.192888 
L 158.418302 43.192888 
L 158.631082 43.060404 
L 158.843862 43.192888 
L 159.056643 43.192888 
L 159.269423 43.060404 
L 159.482203 43.192888 
L 159.907764 42.92792 
L 160.120544 43.060404 
L 160.333324 43.060404 
L 160.546105 42.92792 
L 160.758885 42.92792 
L 160.971665 42.795436 
L 161.184445 43.060404 
L 161.397226 42.92792 
L 161.610006 42.92792 
L 161.822786 42.795436 
L 162.035567 43.060404 
L 162.248347 42.92792 
L 162.673907 42.92792 
L 162.886688 42.795436 
L 163.099468 42.92792 
L 163.312248 42.662952 
L 163.525029 42.662952 
L 163.737809 42.133015 
L 163.950589 42.000531 
L 164.163369 41.735563 
L 164.80171 38.555945 
L 165.014491 35.243842 
L 165.227271 35.50881 
L 165.440051 35.111358 
L 165.652832 34.051485 
L 165.865612 35.376326 
L 166.078392 37.893524 
L 166.291172 39.085881 
L 166.503953 39.350849 
L 166.716733 39.218365 
L 167.355074 37.893524 
L 167.567854 37.893524 
L 167.780634 37.76104 
L 167.993415 36.038747 
L 168.206195 38.555945 
L 168.631756 39.350849 
L 168.844536 39.615817 
L 169.057316 39.615817 
L 169.270096 39.880786 
L 169.482877 39.880786 
L 169.695657 39.748301 
L 169.908437 40.01327 
L 170.121218 39.880786 
L 170.333998 40.01327 
L 170.546778 40.01327 
L 170.759558 40.145754 
L 171.185119 40.145754 
L 171.397899 40.410722 
L 171.61068 40.278238 
L 172.03624 40.543206 
L 172.24902 40.410722 
L 172.461801 40.543206 
L 172.674581 40.410722 
L 173.100142 40.67569 
L 173.312922 40.543206 
L 173.525702 40.543206 
L 173.738482 40.410722 
L 173.951263 40.808174 
L 174.164043 40.543206 
L 174.589604 40.808174 
L 174.802384 40.67569 
L 175.015164 40.67569 
L 175.227944 40.808174 
L 175.440725 40.67569 
L 175.653505 40.808174 
L 176.291846 40.808174 
L 176.504626 40.67569 
L 176.717406 40.808174 
L 177.142967 40.808174 
L 177.355747 41.073142 
L 177.568528 40.808174 
L 177.781308 40.808174 
L 177.994088 40.940658 
L 178.206869 40.808174 
L 178.419649 40.940658 
L 178.632429 40.940658 
L 178.845209 43.060404 
L 179.05799 47.299895 
L 179.27077 46.902443 
L 179.48355 48.492252 
L 179.696331 51.00945 
L 179.909111 52.201807 
L 180.121891 51.274418 
L 180.760232 45.84257 
L 180.973012 45.18015 
L 181.185793 45.312634 
L 181.398573 45.577602 
L 181.824133 46.637475 
L 182.036914 46.769959 
L 182.249694 46.637475 
L 182.462474 46.637475 
L 183.100815 45.18015 
L 183.313595 46.372506 
L 183.526376 45.047665 
L 183.739156 45.445118 
L 183.951936 46.107538 
L 184.164717 46.372506 
L 184.803057 44.120277 
L 185.228618 44.385245 
L 185.441398 44.385245 
L 185.654179 44.517729 
L 185.866959 44.517729 
L 186.079739 44.385245 
L 186.292519 44.517729 
L 186.5053 44.252761 
L 186.71808 44.385245 
L 186.93086 43.987793 
L 187.143641 44.120277 
L 187.356421 44.120277 
L 187.569201 43.987793 
L 187.781981 43.987793 
L 187.994762 44.120277 
L 188.207542 43.987793 
L 188.633103 43.987793 
L 188.845883 44.120277 
L 189.058663 44.120277 
L 189.271443 43.987793 
L 189.484224 43.987793 
L 189.697004 44.120277 
L 189.909784 43.987793 
L 190.122565 43.987793 
L 190.335345 44.120277 
L 190.548125 43.855309 
L 190.760906 44.120277 
L 190.973686 43.987793 
L 191.186466 44.120277 
L 191.399246 43.987793 
L 191.612027 44.120277 
L 191.824807 40.145754 
L 192.037587 43.722824 
L 192.250368 42.000531 
L 192.463148 39.350849 
L 192.675928 39.085881 
L 193.101489 37.893524 
L 193.314269 38.026008 
L 193.527049 17.755941 
L 193.73983 40.01327 
L 193.95261 39.880786 
L 194.37817 40.145754 
L 195.016511 40.940658 
L 195.229292 40.940658 
L 195.442072 41.205627 
L 195.654852 41.205627 
L 195.867632 41.470595 
L 196.080413 41.470595 
L 196.293193 41.338111 
L 196.718754 41.603079 
L 196.931534 41.338111 
L 197.144314 41.603079 
L 197.357094 41.603079 
L 197.569875 41.735563 
L 197.782655 41.603079 
L 197.995435 41.868047 
L 198.208216 41.603079 
L 198.633776 41.868047 
L 198.846556 41.735563 
L 199.059337 41.868047 
L 199.697678 41.868047 
L 199.910458 41.735563 
L 200.336018 42.000531 
L 200.548799 41.868047 
L 200.974359 41.868047 
L 201.18714 42.000531 
L 201.39992 41.868047 
L 201.6127 42.000531 
L 201.82548 41.868047 
L 202.038261 42.000531 
L 202.251041 41.868047 
L 202.463821 41.868047 
L 202.676602 42.000531 
L 202.889382 41.868047 
L 203.102162 42.000531 
L 203.314943 42.000531 
L 203.527723 41.868047 
L 203.740503 42.000531 
L 203.953283 42.92792 
L 204.166064 42.133015 
L 204.804405 42.133015 
L 205.017185 43.060404 
L 205.229965 42.133015 
L 205.442745 42.265499 
L 205.655526 42.265499 
L 205.868306 42.133015 
L 206.293867 42.530468 
L 206.719427 42.265499 
L 206.932207 42.530468 
L 207.144988 42.530468 
L 207.357768 42.397983 
L 207.570548 42.530468 
L 207.783329 42.397983 
L 207.996109 42.397983 
L 208.208889 42.530468 
L 209.272791 42.530468 
L 209.485571 42.662952 
L 209.698351 42.530468 
L 210.123912 42.530468 
L 210.336692 42.662952 
L 210.549472 42.662952 
L 210.762253 42.530468 
L 210.975033 42.530468 
L 211.187813 42.662952 
L 211.400593 42.662952 
L 211.613374 42.530468 
L 211.826154 42.662952 
L 212.038934 42.530468 
L 212.251715 42.662952 
L 212.677275 42.662952 
L 212.890055 42.530468 
L 213.102836 42.662952 
L 213.528396 42.662952 
L 213.741177 42.530468 
L 214.166737 42.795436 
L 214.379517 42.530468 
L 214.592298 42.662952 
L 215.656199 42.662952 
L 215.86898 42.795436 
L 216.08176 42.530468 
L 216.29454 42.795436 
L 216.50732 42.795436 
L 216.720101 42.662952 
L 216.932881 42.662952 
L 217.145661 42.795436 
L 217.358442 42.795436 
L 217.571222 45.047665 
L 217.784002 43.060404 
L 217.996782 42.795436 
L 218.209563 42.92792 
L 219.060684 42.92792 
L 219.273464 43.060404 
L 219.486244 42.92792 
L 219.699025 43.060404 
L 219.911805 43.060404 
L 220.124585 42.92792 
L 220.337366 43.060404 
L 220.550146 43.060404 
L 220.762926 43.192888 
L 220.975706 43.060404 
L 221.188487 43.192888 
L 221.614047 43.192888 
L 221.826828 43.060404 
L 222.252388 43.325372 
L 222.677949 43.325372 
L 222.890729 43.192888 
L 223.103509 43.325372 
L 223.31629 43.192888 
L 223.52907 43.325372 
L 223.95463 43.325372 
L 224.167411 43.457856 
L 224.380191 43.325372 
L 224.805752 43.325372 
L 225.018532 43.457856 
L 225.231312 43.325372 
L 225.444092 43.457856 
L 226.295214 43.457856 
L 226.507994 43.59034 
L 226.720774 43.59034 
L 226.933554 43.457856 
L 227.146335 43.722824 
L 227.359115 43.722824 
L 227.571895 43.59034 
L 227.997456 43.855309 
L 228.210236 43.722824 
L 228.423017 43.722824 
L 228.635797 43.855309 
L 229.274138 43.855309 
L 229.486918 43.987793 
L 229.699698 43.855309 
L 229.912479 43.987793 
L 230.125259 43.855309 
L 230.338039 43.987793 
L 230.7636 43.987793 
L 230.97638 43.855309 
L 231.18916 44.252761 
L 231.401941 43.855309 
L 231.614721 44.120277 
L 231.827501 43.987793 
L 232.253062 43.987793 
L 232.465842 43.855309 
L 232.678622 44.120277 
L 232.891403 43.855309 
L 233.104183 43.987793 
L 233.529743 43.987793 
L 233.742524 43.855309 
L 233.955304 43.987793 
L 234.168084 43.987793 
L 234.380865 43.855309 
L 234.593645 43.987793 
L 234.806425 43.855309 
L 235.019205 43.987793 
L 235.231986 43.855309 
L 235.444766 43.987793 
L 235.657546 43.855309 
L 235.870327 43.855309 
L 236.083107 43.987793 
L 236.295887 43.722824 
L 236.721448 43.987793 
L 236.934228 43.722824 
L 237.147008 43.855309 
L 237.359789 43.855309 
L 237.572569 42.662952 
L 237.785349 43.722824 
L 237.998129 43.987793 
L 238.21091 43.855309 
L 238.42369 42.397983 
L 238.63647 43.987793 
L 238.849251 43.59034 
L 239.062031 43.722824 
L 239.274811 43.59034 
L 239.487591 43.722824 
L 239.700372 43.59034 
L 240.338713 43.59034 
L 240.551493 43.722824 
L 240.764273 43.59034 
L 242.253735 43.59034 
L 242.466516 43.722824 
L 242.679296 43.59034 
L 243.104856 43.59034 
L 243.317637 43.457856 
L 243.530417 43.722824 
L 243.743197 43.457856 
L 243.955978 43.722824 
L 244.168758 43.457856 
L 244.381538 43.59034 
L 244.594318 43.59034 
L 244.807099 43.457856 
L 245.019879 43.457856 
L 245.232659 43.59034 
L 245.44544 43.457856 
L 245.65822 43.59034 
L 245.871 43.59034 
L 246.08378 43.457856 
L 246.296561 43.59034 
L 246.509341 43.457856 
L 246.934902 43.457856 
L 247.147682 43.59034 
L 247.573242 43.325372 
L 247.786023 43.59034 
L 247.998803 43.457856 
L 248.637144 43.457856 
L 248.849924 43.325372 
L 249.062704 43.457856 
L 249.275485 43.457856 
L 249.488265 43.59034 
L 249.701045 43.325372 
L 249.913826 43.457856 
L 250.126606 43.325372 
L 250.339386 43.457856 
L 250.552166 43.457856 
L 250.764947 43.325372 
L 250.977727 43.457856 
L 251.190507 43.325372 
L 251.403288 43.457856 
L 251.616068 43.325372 
L 251.828848 43.325372 
L 252.041628 43.457856 
L 252.254409 43.192888 
L 252.467189 43.457856 
L 252.679969 43.325372 
L 252.89275 43.457856 
L 253.10553 43.192888 
L 253.31831 43.192888 
L 253.531091 43.457856 
L 253.956651 43.192888 
L 254.169431 43.325372 
L 255.020553 43.325372 
L 255.020553 43.325372 
" clip-path="url(#pae7d08a337)" style="fill: none; stroke: #ff0000; stroke-width: 1.5; stroke-linecap: square"/>
   </g>
   <g id="line2d_18">
    <path d="M 42.240264 47.962316 
L 42.665825 47.564863 
L 43.091386 47.564863 
L 43.304166 47.697347 
L 43.516946 47.697347 
L 43.729726 47.564863 
L 43.942507 47.697347 
L 44.155287 47.697347 
L 44.368067 45.913962 
L 46.28309 45.686853 
L 46.921431 45.599236 
L 65.220536 44.104005 
L 66.284437 43.970019 
L 73.306186 43.600385 
L 87.775246 43.089577 
L 112.244979 42.458537 
L 143.736462 41.967593 
L 170.972339 41.796053 
L 193.314269 42.019382 
L 202.676602 42.000407 
L 221.401267 42.040651 
L 235.231986 41.850375 
L 255.020553 41.496353 
L 255.020553 41.496353 
" clip-path="url(#pae7d08a337)" style="fill: none; stroke-dasharray: 5.55,2.4; stroke-dashoffset: 0; stroke: #008000; stroke-width: 1.5"/>
   </g>
   <g id="patch_3">
    <path d="M 31.60125 139.19749 
L 31.60125 11.97301 
" style="fill: none; stroke: #000000; stroke-linejoin: miter; stroke-linecap: square"/>
   </g>
   <g id="patch_4">
    <path d="M 265.659567 139.19749 
L 265.659567 11.97301 
" style="fill: none; stroke: #000000; stroke-linejoin: miter; stroke-linecap: square"/>
   </g>
   <g id="patch_5">
    <path d="M 31.60125 139.19749 
L 265.659567 139.19749 
" style="fill: none; stroke: #000000; stroke-linejoin: miter; stroke-linecap: square"/>
   </g>
   <g id="patch_6">
    <path d="M 31.60125 11.97301 
L 265.659567 11.97301 
" style="fill: none; stroke: #000000; stroke-linejoin: miter; stroke-linecap: square"/>
   </g>
   <g id="legend_1">
    <g id="patch_7">
     <path d="M 218.259567 33.92926 
L 261.459567 33.92926 
Q 262.659567 33.92926 262.659567 32.72926 
L 262.659567 16.17301 
Q 262.659567 14.97301 261.459567 14.97301 
L 218.259567 14.97301 
Q 217.059567 14.97301 217.059567 16.17301 
L 217.059567 32.72926 
Q 217.059567 33.92926 218.259567 33.92926 
z
" style="fill: #ffffff; opacity: 0.8; stroke: #cccccc; stroke-linejoin: miter"/>
    </g>
    <g id="line2d_19">
     <path d="M 219.459567 20.077698 
L 225.459567 20.077698 
L 231.459567 20.077698 
" style="fill: none; stroke: #ff0000; stroke-width: 1.5; stroke-linecap: square"/>
    </g>
    <g id="text_19">
     <!-- 真实值 -->
     <g transform="translate(236.259567 22.177698)scale(0.06 -0.06)">
      <defs>
       <path id="SimHei-771f" d="M 3550 5100 
Q 3450 4925 3400 4625 
L 4850 4625 
Q 5175 4625 5725 4650 
L 5725 4250 
Q 5200 4275 4850 4275 
L 3350 4275 
L 3300 3850 
L 5050 3850 
Q 5025 3550 5025 3150 
L 5025 1075 
L 5400 1075 
Q 5800 1075 6075 1100 
L 6075 625 
Q 5575 650 4900 650 
L 1450 650 
Q 775 650 350 625 
L 350 1100 
Q 725 1075 1100 1075 
L 1425 1075 
L 1425 3075 
Q 1425 3450 1400 3850 
L 2825 3850 
L 2850 4275 
L 1400 4275 
Q 1050 4275 625 4250 
L 625 4650 
Q 1175 4625 1375 4625 
L 2925 4625 
Q 2950 4875 2950 5125 
Q 3300 5100 3550 5100 
z
M 4075 525 
Q 4500 425 4925 250 
Q 5350 75 5825 -150 
Q 5550 -425 5450 -575 
Q 5025 -300 4550 -100 
Q 4075 100 3800 175 
Q 3925 350 4075 525 
z
M 4525 3150 
L 4525 3475 
L 1925 3475 
L 1925 3150 
L 4525 3150 
z
M 4525 1075 
L 4525 1400 
L 1925 1400 
L 1925 1075 
L 4525 1075 
z
M 2775 200 
Q 2375 -25 1875 -225 
Q 1375 -425 950 -575 
Q 775 -400 600 -250 
Q 1225 -50 1625 137 
Q 2025 325 2350 525 
Q 2550 350 2775 200 
z
M 4525 1775 
L 4525 2075 
L 1925 2075 
L 1925 1775 
L 4525 1775 
z
M 4525 2475 
L 4525 2775 
L 1925 2775 
L 1925 2475 
L 4525 2475 
z
" transform="scale(0.015625)"/>
       <path id="SimHei-5b9e" d="M 4125 3500 
Q 4050 3200 4000 2675 
Q 3950 2150 3850 1550 
L 5025 1550 
Q 5475 1550 5975 1575 
L 5975 1100 
Q 5450 1125 5000 1125 
L 3725 1125 
Q 3500 625 3050 250 
Q 2600 -125 2000 -337 
Q 1400 -550 925 -675 
Q 825 -375 500 -200 
Q 1225 -125 2050 212 
Q 2875 550 3200 1125 
L 1425 1125 
Q 975 1125 425 1100 
L 425 1575 
Q 1000 1550 1425 1550 
L 3375 1550 
Q 3450 1975 3487 2462 
Q 3525 2950 3500 3650 
Q 3800 3550 4125 3500 
z
M 3250 5250 
Q 3450 4850 3600 4375 
L 5775 4375 
Q 5750 4100 5750 3825 
Q 5750 3575 5775 3275 
L 5200 3275 
L 5200 3975 
L 1225 3975 
L 1225 3225 
L 675 3225 
Q 700 3525 700 3800 
Q 700 4100 675 4375 
L 2975 4375 
Q 2900 4675 2700 5075 
Q 2900 5150 3250 5250 
z
M 4000 825 
Q 4550 525 5050 262 
Q 5550 0 5925 -225 
Q 5750 -425 5550 -650 
Q 5100 -325 4575 -37 
Q 4050 250 3675 400 
Q 3875 650 4000 825 
z
M 1175 2750 
Q 1600 2550 2350 2050 
Q 2250 1900 2050 1650 
Q 1350 2175 925 2350 
Q 1075 2500 1175 2750 
z
M 3150 2825 
Q 2975 2625 2850 2425 
Q 2050 3000 1675 3125 
Q 1800 3300 1950 3525 
L 3150 2825 
z
" transform="scale(0.015625)"/>
      </defs>
      <use xlink:href="#SimHei-771f"/>
      <use xlink:href="#SimHei-5b9e" x="100"/>
      <use xlink:href="#SimHei-503c" x="200"/>
     </g>
    </g>
    <g id="line2d_20">
     <path d="M 219.459567 28.67926 
L 225.459567 28.67926 
L 231.459567 28.67926 
" style="fill: none; stroke-dasharray: 5.55,2.4; stroke-dashoffset: 0; stroke: #008000; stroke-width: 1.5"/>
    </g>
    <g id="text_20">
     <!-- 模型输出 -->
     <g transform="translate(236.259567 30.77926)scale(0.06 -0.06)">
      <defs>
       <path id="SimHei-6a21" d="M 5700 3675 
Q 5675 3400 5675 2725 
Q 5675 2050 5700 1725 
L 4375 1725 
Q 4350 1450 4325 1200 
L 5225 1200 
Q 5750 1200 6025 1225 
L 6025 825 
Q 5725 850 5225 850 
L 4700 850 
Q 5075 375 5437 137 
Q 5800 -100 6200 -200 
Q 5975 -375 5850 -625 
Q 5275 -400 4862 25 
Q 4450 450 4300 775 
L 4225 775 
Q 4000 275 3537 -62 
Q 3075 -400 2475 -625 
Q 2350 -375 2125 -200 
Q 2775 -75 3200 200 
Q 3625 475 3775 850 
L 3325 850 
Q 2800 850 2400 825 
L 2400 1225 
Q 2800 1200 3350 1200 
L 3875 1200 
Q 3925 1475 3925 1725 
L 2750 1725 
Q 2775 2075 2775 2700 
Q 2775 3350 2750 3675 
L 5700 3675 
z
M 2175 1650 
Q 2025 1975 1675 2525 
L 1675 300 
Q 1675 -300 1700 -550 
L 1175 -550 
Q 1200 -275 1200 250 
L 1200 2225 
Q 1125 2000 962 1712 
Q 800 1425 600 1050 
Q 450 1275 200 1425 
Q 600 1825 850 2425 
Q 1100 3025 1175 3425 
L 950 3425 
Q 700 3425 400 3400 
L 400 3825 
Q 675 3800 825 3800 
L 1200 3800 
L 1200 4350 
Q 1200 4775 1175 5150 
L 1700 5150 
Q 1675 4825 1675 4425 
L 1675 3800 
Q 2075 3800 2375 3825 
L 2375 3400 
Q 2050 3425 1675 3425 
L 1675 2575 
Q 1850 2675 2000 2775 
Q 2150 2525 2287 2325 
Q 2425 2125 2550 1925 
Q 2325 1775 2175 1650 
z
M 3375 4300 
L 3175 4300 
Q 2700 4300 2425 4275 
L 2425 4675 
Q 2700 4650 3150 4650 
L 3375 4650 
Q 3375 5000 3350 5225 
L 3825 5225 
Q 3800 5000 3800 4650 
L 4550 4650 
Q 4550 4975 4525 5200 
L 5025 5200 
Q 5000 4925 5000 4650 
L 5375 4650 
Q 5650 4650 5950 4675 
L 5950 4275 
Q 5650 4300 5375 4300 
L 5000 4300 
L 5000 3850 
L 4550 3850 
L 4550 4300 
L 3800 4300 
L 3800 3875 
L 3375 3875 
L 3375 4300 
z
M 5275 2075 
L 5275 2525 
L 3200 2525 
L 3200 2075 
L 5275 2075 
z
M 5275 2875 
L 5275 3325 
L 3200 3325 
L 3200 2875 
L 5275 2875 
z
" transform="scale(0.015625)"/>
       <path id="SimHei-578b" d="M 2625 1775 
Q 2650 2325 2650 2700 
L 2650 3000 
L 1825 3000 
Q 1725 2375 1425 2000 
Q 1125 1625 775 1425 
Q 650 1650 375 1900 
Q 850 2075 1062 2362 
Q 1275 2650 1350 3000 
Q 900 3000 375 2975 
L 375 3450 
Q 925 3425 1400 3425 
Q 1425 3950 1425 4475 
Q 1075 4475 700 4450 
L 700 4900 
Q 1050 4875 1525 4875 
L 3000 4875 
Q 3275 4875 3650 4900 
L 3650 4450 
Q 3325 4475 3125 4475 
L 3125 3425 
Q 3450 3425 3825 3450 
L 3825 2975 
Q 3450 3000 3125 3000 
L 3125 2675 
Q 3125 2225 3150 1775 
L 2625 1775 
z
M 3000 1175 
Q 3000 1375 2975 1725 
L 3500 1725 
Q 3475 1375 3475 1175 
L 4550 1175 
Q 5050 1175 5450 1200 
L 5450 725 
Q 4975 750 4550 750 
L 3475 750 
L 3475 -50 
L 5275 -50 
Q 5700 -50 6100 -25 
L 6100 -500 
Q 5725 -475 5300 -475 
L 1250 -475 
Q 775 -475 400 -500 
L 400 -25 
Q 775 -50 1250 -50 
L 3000 -50 
L 3000 750 
L 2025 750 
Q 1500 750 975 725 
L 1050 1200 
Q 1500 1175 2025 1175 
L 3000 1175 
z
M 5775 5200 
Q 5750 4775 5750 4325 
L 5750 2400 
Q 5775 1950 5612 1775 
Q 5450 1600 4900 1525 
Q 4825 1775 4675 2100 
Q 5175 2075 5237 2150 
Q 5300 2225 5300 2525 
L 5300 4325 
Q 5300 4775 5275 5200 
L 5775 5200 
z
M 4600 4750 
Q 4575 4450 4575 3975 
L 4575 3200 
Q 4575 2825 4600 2425 
L 4100 2425 
Q 4125 2825 4125 3200 
L 4125 3975 
Q 4125 4450 4100 4750 
L 4600 4750 
z
M 2650 3425 
L 2650 4475 
L 1875 4475 
Q 1850 3750 1850 3425 
L 2650 3425 
z
" transform="scale(0.015625)"/>
       <path id="SimHei-8f93" d="M 3225 3650 
Q 2725 3100 2550 2950 
L 4100 2950 
Q 4075 2675 4075 2275 
L 4075 -100 
Q 4100 -325 3962 -425 
Q 3825 -525 3475 -600 
Q 3400 -350 3225 -100 
Q 3650 -100 3650 25 
L 3650 675 
L 2975 675 
L 2975 -575 
L 2525 -575 
Q 2550 -125 2550 325 
L 2550 2075 
Q 2550 2500 2525 2925 
L 2375 2800 
Q 2200 3000 1950 3100 
Q 2575 3525 3025 4087 
Q 3475 4650 3775 5300 
Q 4075 5150 4325 5100 
L 4225 4975 
Q 4700 4325 5225 3975 
Q 5750 3625 6200 3475 
Q 5975 3275 5825 3025 
Q 5275 3300 4875 3650 
L 4875 3350 
L 3225 3350 
L 3225 3650 
z
M 2225 825 
Q 1975 775 1725 675 
Q 1725 -100 1750 -650 
L 1275 -650 
Q 1300 -100 1300 575 
Q 725 425 475 325 
Q 400 575 250 825 
Q 650 875 1300 1025 
L 1300 1975 
Q 700 1925 400 1800 
L 225 2225 
Q 425 2350 600 2850 
Q 775 3350 875 3825 
Q 625 3825 350 3800 
L 350 4250 
Q 675 4225 950 4225 
Q 1050 4700 1075 5175 
Q 1400 5075 1675 5025 
Q 1525 4850 1400 4225 
Q 1925 4225 2300 4250 
L 2300 3800 
Q 1850 3825 1325 3825 
Q 1075 2900 825 2325 
L 1300 2375 
Q 1300 2700 1275 3125 
L 1750 3125 
Q 1725 2900 1725 2425 
L 2150 2475 
L 2150 2075 
L 1725 2025 
L 1725 1125 
L 2225 1250 
L 2225 825 
z
M 5775 2925 
Q 5750 2525 5750 2150 
L 5750 -100 
Q 5750 -375 5625 -475 
Q 5500 -575 5000 -675 
Q 4950 -450 4750 -175 
Q 5300 -200 5325 0 
L 5325 2100 
Q 5325 2500 5300 2925 
L 5775 2925 
z
M 4975 2700 
Q 4950 2400 4950 2000 
L 4950 900 
Q 4950 425 4975 125 
L 4475 125 
Q 4500 500 4500 875 
L 4500 2000 
Q 4500 2350 4475 2700 
L 4975 2700 
z
M 4750 3750 
Q 4450 4025 3975 4675 
Q 3575 4075 3300 3750 
L 4750 3750 
z
M 3650 2000 
L 3650 2575 
L 2975 2575 
L 2975 2000 
L 3650 2000 
z
M 3650 1075 
L 3650 1625 
L 2975 1625 
L 2975 1075 
L 3650 1075 
z
" transform="scale(0.015625)"/>
       <path id="SimHei-51fa" d="M 1475 4550 
Q 1450 4225 1450 3950 
L 1450 2950 
L 2925 2950 
L 2925 4425 
Q 2925 4775 2900 5125 
L 3425 5125 
Q 3400 4825 3400 4425 
L 3400 2950 
L 4900 2950 
L 4900 3875 
Q 4900 4275 4875 4525 
L 5400 4525 
Q 5375 4275 5375 3850 
L 5375 3175 
Q 5375 2775 5400 2525 
L 3400 2525 
L 3400 225 
L 5125 225 
L 5125 1275 
Q 5125 1650 5100 1925 
L 5625 1925 
Q 5600 1650 5600 1300 
L 5600 175 
Q 5600 -325 5625 -650 
L 5125 -650 
L 5125 -200 
L 675 -200 
Q 700 100 700 525 
L 700 1275 
Q 700 1700 675 1950 
L 1200 1950 
Q 1175 1700 1175 1275 
L 1175 225 
L 2925 225 
L 2925 2525 
L 950 2525 
Q 975 2775 975 3150 
L 975 3925 
Q 975 4250 950 4550 
L 1475 4550 
z
" transform="scale(0.015625)"/>
      </defs>
      <use xlink:href="#SimHei-6a21"/>
      <use xlink:href="#SimHei-578b" x="100"/>
      <use xlink:href="#SimHei-8f93" x="200"/>
      <use xlink:href="#SimHei-51fa" x="300"/>
     </g>
    </g>
   </g>
  </g>
 </g>
 <defs>
  <clipPath id="pae7d08a337">
   <rect x="31.60125" y="11.97301" width="234.058317" height="127.22448"/>
  </clipPath>
 </defs>
</svg>
